<?xml version="1.0" encoding="utf-8"?>
<!-- Generator: Adobe Illustrator 18.0.0, SVG Export Plug-In . SVG Version: 6.00 Build 0)  -->
<!DOCTYPE svg PUBLIC "-//W3C//DTD SVG 1.1//EN" "http://www.w3.org/Graphics/SVG/1.1/DTD/svg11.dtd">
<svg version="1.1" id="Vrstva_1" xmlns="http://www.w3.org/2000/svg" xmlns:xlink="http://www.w3.org/1999/xlink" x="0px" y="0px"
	 viewBox="240 0 768 480" enable-background="new 240 0 768 480" xml:space="preserve">
<desc>Created by Grid Painter http://grid-painter.appspot.com</desc>
<path d="M432,0v24h24V0H432z"/>
<path d="M456,0v24h24V0H456z"/>
<path d="M480,0v24h24V0H480z"/>
<path d="M504,0v24h24V0H504z"/>
<path d="M528,0v24h24V0H528z"/>
<path d="M552,0v24h24V0H552z"/>
<path d="M576,0v24h24V0H576z"/>
<path d="M600,0v24h24V0H600z"/>
<path d="M624,0v24h24V0H624z"/>
<path d="M648,0v24h24V0H648z"/>
<path d="M672,0v24h24V0H672z"/>
<path d="M696,0v24h24V0H696z"/>
<path d="M720,0v24h24V0H720z"/>
<path d="M744,0v24h24V0H744z"/>
<path d="M768,0v24h24V0H768z"/>
<path d="M792,0v24h24V0H792z"/>
<path d="M816,0v24h24V0H816z"/>
<path d="M408,24v24h24V24H408z"/>
<path fill="#FFF3A3" d="M432,24v24h24V24H432z"/>
<path fill="#FFF3A3" d="M456,24v24h24V24H456z"/>
<path fill="#FFF3A3" d="M480,24v24h24V24H480z"/>
<path fill="#FFF3A3" d="M504,24v24h24V24H504z"/>
<path fill="#FFF3A3" d="M528,24v24h24V24H528z"/>
<path fill="#FFF3A3" d="M552,24v24h24V24H552z"/>
<path fill="#FFF3A3" d="M576,24v24h24V24H576z"/>
<path fill="#FFF3A3" d="M600,24v24h24V24H600z"/>
<path fill="#FFF3A3" d="M624,24v24h24V24H624z"/>
<path fill="#FFF3A3" d="M648,24v24h24V24H648z"/>
<path fill="#FFF3A3" d="M672,24v24h24V24H672z"/>
<path fill="#FFF3A3" d="M696,24v24h24V24H696z"/>
<path fill="#FFF3A3" d="M720,24v24h24V24H720z"/>
<path fill="#FFF3A3" d="M744,24v24h24V24H744z"/>
<path fill="#FFF3A3" d="M768,24v24h24V24H768z"/>
<path fill="#FFF3A3" d="M792,24v24h24V24H792z"/>
<path fill="#FFF3A3" d="M816,24v24h24V24H816z"/>
<path d="M840,24v24h24V24H840z"/>
<path d="M384,48v24h24V48H384z"/>
<path fill="#FFF3A3" d="M408,48v24h24V48H408z"/>
<path fill="#FFF3A3" d="M432,48v24h24V48H432z"/>
<path fill="#FF8C9B" d="M456,48v24h24V48H456z"/>
<path fill="#FF8C9B" d="M480,48v24h24V48H480z"/>
<path fill="#FF8C9B" d="M504,48v24h24V48H504z"/>
<path fill="#FF8C9B" d="M528,48v24h24V48H528z"/>
<path fill="#FF8C9B" d="M552,48v24h24V48H552z"/>
<path fill="#FF8C9B" d="M576,48v24h24V48H576z"/>
<path fill="#FF8C9B" d="M600,48v24h24V48H600z"/>
<path fill="#FF8C9B" d="M624,48v24h24V48H624z"/>
<path fill="#FF8C9B" d="M648,48v24h24V48H648z"/>
<path fill="#FF8C9B" d="M672,48v24h24V48H672z"/>
<path fill="#FF8C9B" d="M696,48v24h24V48H696z"/>
<path fill="#FF8C9B" d="M720,48v24h24V48H720z"/>
<path fill="#FF8C9B" d="M744,48v24h24V48H744z"/>
<path fill="#FF8C9B" d="M768,48v24h24V48H768z"/>
<path fill="#FFF3A3" d="M792,48v24h24V48H792z"/>
<path fill="#FFF3A3" d="M816,48v24h24V48H816z"/>
<path fill="#FFF3A3" d="M840,48v24h24V48H840z"/>
<path d="M864,48v24h24V48H864z"/>
<path d="M384,72v24h24V72H384z"/>
<path fill="#FFF3A3" d="M408,72v24h24V72H408z"/>
<path fill="#FFF3A3" d="M432,72v24h24V72H432z"/>
<path fill="#FF8C9B" d="M456,72v24h24V72H456z"/>
<path fill="#FF8C9B" d="M480,72v24h24V72H480z"/>
<path fill="#FF8C9B" d="M504,72v24h24V72H504z"/>
<path fill="#FF8C9B" d="M528,72v24h24V72H528z"/>
<path fill="#FF8C9B" d="M552,72v24h24V72H552z"/>
<path fill="#FF8C9B" d="M576,72v24h24V72H576z"/>
<path fill="#D42071" d="M600,72v24h24V72H600z"/>
<path fill="#FF8C9B" d="M624,72v24h24V72H624z"/>
<path fill="#FF8C9B" d="M648,72v24h24V72H648z"/>
<path fill="#D42071" d="M672,72v24h24V72H672z"/>
<path fill="#FF8C9B" d="M696,72v24h24V72H696z"/>
<path fill="#FF8C9B" d="M720,72v24h24V72H720z"/>
<path fill="#FF8C9B" d="M744,72v24h24V72H744z"/>
<path fill="#FF8C9B" d="M768,72v24h24V72H768z"/>
<path fill="#FF8C9B" d="M792,72v24h24V72H792z"/>
<path fill="#FFF3A3" d="M816,72v24h24V72H816z"/>
<path fill="#FFF3A3" d="M840,72v24h24V72H840z"/>
<path d="M864,72v24h24V72H864z"/>
<path d="M384,96v24h24V96H384z"/>
<path fill="#FFF3A3" d="M408,96v24h24V96H408z"/>
<path fill="#FF8C9B" d="M432,96v24h24V96H432z"/>
<path fill="#FF8C9B" d="M456,96v24h24V96H456z"/>
<path fill="#D42071" d="M480,96v24h24V96H480z"/>
<path fill="#FF8C9B" d="M504,96v24h24V96H504z"/>
<path fill="#FF8C9B" d="M528,96v24h24V96H528z"/>
<path fill="#FF8C9B" d="M552,96v24h24V96H552z"/>
<path fill="#FF8C9B" d="M576,96v24h24V96H576z"/>
<path fill="#FF8C9B" d="M600,96v24h24V96H600z"/>
<path fill="#FF8C9B" d="M624,96v24h24V96H624z"/>
<path fill="#FF8C9B" d="M648,96v24h24V96H648z"/>
<path fill="#FF8C9B" d="M672,96v24h24V96H672z"/>
<path fill="#FF8C9B" d="M696,96v24h24V96H696z"/>
<path fill="#FF8C9B" d="M720,96v24h24V96H720z"/>
<path fill="#FF8C9B" d="M744,96v24h24V96H744z"/>
<path fill="#FF8C9B" d="M768,96v24h24V96H768z"/>
<path fill="#FF8C9B" d="M792,96v24h24V96H792z"/>
<path fill="#FF8C9B" d="M816,96v24h24V96H816z"/>
<path fill="#FFF3A3" d="M840,96v24h24V96H840z"/>
<path d="M864,96v24h24V96H864z"/>
<path d="M384,120v24h24v-24H384z"/>
<path fill="#FFF3A3" d="M408,120v24h24v-24H408z"/>
<path fill="#FF8C9B" d="M432,120v24h24v-24H432z"/>
<path fill="#FF8C9B" d="M456,120v24h24v-24H456z"/>
<path fill="#FF8C9B" d="M480,120v24h24v-24H480z"/>
<path fill="#FF8C9B" d="M504,120v24h24v-24H504z"/>
<path fill="#FF8C9B" d="M528,120v24h24v-24H528z"/>
<path fill="#FF8C9B" d="M552,120v24h24v-24H552z"/>
<path fill="#FF8C9B" d="M576,120v24h24v-24H576z"/>
<path fill="#FF8C9B" d="M600,120v24h24v-24H600z"/>
<path fill="#FF8C9B" d="M624,120v24h24v-24H624z"/>
<path fill="#FF8C9B" d="M648,120v24h24v-24H648z"/>
<path d="M672,120v24h24v-24H672z"/>
<path d="M696,120v24h24v-24H696z"/>
<path fill="#FF8C9B" d="M720,120v24h24v-24H720z"/>
<path fill="#D42071" d="M744,120v24h24v-24H744z"/>
<path fill="#FF8C9B" d="M768,120v24h24v-24H768z"/>
<path fill="#FF8C9B" d="M792,120v24h24v-24H792z"/>
<path fill="#FF8C9B" d="M816,120v24h24v-24H816z"/>
<path fill="#FFF3A3" d="M840,120v24h24v-24H840z"/>
<path d="M864,120v24h24v-24H864z"/>
<path d="M912,120v24h24v-24H912z"/>
<path d="M936,120v24h24v-24H936z"/>
<path d="M384,144v24h24v-24H384z"/>
<path fill="#FFF3A3" d="M408,144v24h24v-24H408z"/>
<path fill="#FF8C9B" d="M432,144v24h24v-24H432z"/>
<path fill="#FF8C9B" d="M456,144v24h24v-24H456z"/>
<path fill="#FF8C9B" d="M480,144v24h24v-24H480z"/>
<path fill="#FF8C9B" d="M504,144v24h24v-24H504z"/>
<path fill="#FF8C9B" d="M528,144v24h24v-24H528z"/>
<path fill="#FF8C9B" d="M552,144v24h24v-24H552z"/>
<path fill="#FF8C9B" d="M576,144v24h24v-24H576z"/>
<path fill="#FF8C9B" d="M600,144v24h24v-24H600z"/>
<path fill="#FF8C9B" d="M624,144v24h24v-24H624z"/>
<path d="M648,144v24h24v-24H648z"/>
<path fill="#8B8F89" d="M672,144v24h24v-24H672z"/>
<path fill="#8B8F89" d="M696,144v24h24v-24H696z"/>
<path d="M720,144v24h24v-24H720z"/>
<path fill="#FF8C9B" d="M744,144v24h24v-24H744z"/>
<path fill="#FF8C9B" d="M768,144v24h24v-24H768z"/>
<path fill="#FF8C9B" d="M792,144v24h24v-24H792z"/>
<path fill="#FF8C9B" d="M816,144v24h24v-24H816z"/>
<path fill="#FFF3A3" d="M840,144v24h24v-24H840z"/>
<path d="M864,144v24h24v-24H864z"/>
<path d="M888,144v24h24v-24H888z"/>
<path fill="#8B8F89" d="M912,144v24h24v-24H912z"/>
<path fill="#8B8F89" d="M936,144v24h24v-24H936z"/>
<path d="M960,144v24h24v-24H960z"/>
<path d="M240,168v24h24v-24H240z"/>
<path d="M264,168v24h24v-24H264z"/>
<path d="M288,168v24h24v-24H288z"/>
<path d="M312,168v24h24v-24H312z"/>
<path d="M384,168v24h24v-24H384z"/>
<path fill="#FFF3A3" d="M408,168v24h24v-24H408z"/>
<path fill="#FF8C9B" d="M432,168v24h24v-24H432z"/>
<path fill="#FF8C9B" d="M456,168v24h24v-24H456z"/>
<path fill="#FF8C9B" d="M480,168v24h24v-24H480z"/>
<path fill="#FF8C9B" d="M504,168v24h24v-24H504z"/>
<path fill="#FF8C9B" d="M528,168v24h24v-24H528z"/>
<path fill="#FF8C9B" d="M552,168v24h24v-24H552z"/>
<path fill="#D42071" d="M576,168v24h24v-24H576z"/>
<path fill="#FF8C9B" d="M600,168v24h24v-24H600z"/>
<path fill="#FF8C9B" d="M624,168v24h24v-24H624z"/>
<path d="M648,168v24h24v-24H648z"/>
<path fill="#8B8F89" d="M672,168v24h24v-24H672z"/>
<path fill="#8B8F89" d="M696,168v24h24v-24H696z"/>
<path fill="#8B8F89" d="M720,168v24h24v-24H720z"/>
<path d="M744,168v24h24v-24H744z"/>
<path fill="#FF8C9B" d="M768,168v24h24v-24H768z"/>
<path fill="#FF8C9B" d="M792,168v24h24v-24H792z"/>
<path fill="#FF8C9B" d="M816,168v24h24v-24H816z"/>
<path fill="#FFF3A3" d="M840,168v24h24v-24H840z"/>
<path d="M864,168v24h24v-24H864z"/>
<path fill="#8B8F89" d="M888,168v24h24v-24H888z"/>
<path fill="#8B8F89" d="M912,168v24h24v-24H912z"/>
<path fill="#8B8F89" d="M936,168v24h24v-24H936z"/>
<path d="M960,168v24h24v-24H960z"/>
<path d="M240,192v24h24v-24H240z"/>
<path fill="#8B8F89" d="M264,192v24h24v-24H264z"/>
<path fill="#8B8F89" d="M288,192v24h24v-24H288z"/>
<path d="M312,192v24h24v-24H312z"/>
<path d="M336,192v24h24v-24H336z"/>
<path d="M384,192v24h24v-24H384z"/>
<path fill="#FFF3A3" d="M408,192v24h24v-24H408z"/>
<path fill="#FF8C9B" d="M432,192v24h24v-24H432z"/>
<path fill="#FF8C9B" d="M456,192v24h24v-24H456z"/>
<path fill="#FF8C9B" d="M480,192v24h24v-24H480z"/>
<path fill="#FF8C9B" d="M504,192v24h24v-24H504z"/>
<path fill="#FF8C9B" d="M528,192v24h24v-24H528z"/>
<path fill="#FF8C9B" d="M552,192v24h24v-24H552z"/>
<path fill="#FF8C9B" d="M576,192v24h24v-24H576z"/>
<path fill="#FF8C9B" d="M600,192v24h24v-24H600z"/>
<path fill="#FF8C9B" d="M624,192v24h24v-24H624z"/>
<path d="M648,192v24h24v-24H648z"/>
<path fill="#8B8F89" d="M672,192v24h24v-24H672z"/>
<path fill="#8B8F89" d="M696,192v24h24v-24H696z"/>
<path fill="#8B8F89" d="M720,192v24h24v-24H720z"/>
<path fill="#8B8F89" d="M744,192v24h24v-24H744z"/>
<path d="M768,192v24h24v-24H768z"/>
<path d="M792,192v24h24v-24H792z"/>
<path d="M816,192v24h24v-24H816z"/>
<path d="M840,192v24h24v-24H840z"/>
<path fill="#8B8F89" d="M864,192v24h24v-24H864z"/>
<path fill="#8B8F89" d="M888,192v24h24v-24H888z"/>
<path fill="#8B8F89" d="M912,192v24h24v-24H912z"/>
<path fill="#8B8F89" d="M936,192v24h24v-24H936z"/>
<path d="M960,192v24h24v-24H960z"/>
<path d="M240,216v24h24v-24H240z"/>
<path d="M264,216v24h24v-24H264z"/>
<path fill="#8B8F89" d="M288,216v24h24v-24H288z"/>
<path fill="#8B8F89" d="M312,216v24h24v-24H312z"/>
<path d="M336,216v24h24v-24H336z"/>
<path d="M360,216v24h24v-24H360z"/>
<path d="M384,216v24h24v-24H384z"/>
<path fill="#FFF3A3" d="M408,216v24h24v-24H408z"/>
<path fill="#FF8C9B" d="M432,216v24h24v-24H432z"/>
<path fill="#FF8C9B" d="M456,216v24h24v-24H456z"/>
<path fill="#FF8C9B" d="M480,216v24h24v-24H480z"/>
<path fill="#D42071" d="M504,216v24h24v-24H504z"/>
<path fill="#FF8C9B" d="M528,216v24h24v-24H528z"/>
<path fill="#FF8C9B" d="M552,216v24h24v-24H552z"/>
<path fill="#FF8C9B" d="M576,216v24h24v-24H576z"/>
<path fill="#FF8C9B" d="M600,216v24h24v-24H600z"/>
<path fill="#FF8C9B" d="M624,216v24h24v-24H624z"/>
<path d="M648,216v24h24v-24H648z"/>
<path fill="#8B8F89" d="M672,216v24h24v-24H672z"/>
<path fill="#8B8F89" d="M696,216v24h24v-24H696z"/>
<path fill="#8B8F89" d="M720,216v24h24v-24H720z"/>
<path fill="#8B8F89" d="M744,216v24h24v-24H744z"/>
<path fill="#8B8F89" d="M768,216v24h24v-24H768z"/>
<path fill="#8B8F89" d="M792,216v24h24v-24H792z"/>
<path fill="#8B8F89" d="M816,216v24h24v-24H816z"/>
<path fill="#8B8F89" d="M840,216v24h24v-24H840z"/>
<path fill="#8B8F89" d="M864,216v24h24v-24H864z"/>
<path fill="#8B8F89" d="M888,216v24h24v-24H888z"/>
<path fill="#8B8F89" d="M912,216v24h24v-24H912z"/>
<path fill="#8B8F89" d="M936,216v24h24v-24H936z"/>
<path d="M960,216v24h24v-24H960z"/>
<path d="M264,240v24h24v-24H264z"/>
<path d="M288,240v24h24v-24H288z"/>
<path fill="#8B8F89" d="M312,240v24h24v-24H312z"/>
<path fill="#8B8F89" d="M336,240v24h24v-24H336z"/>
<path d="M360,240v24h24v-24H360z"/>
<path d="M384,240v24h24v-24H384z"/>
<path fill="#FFF3A3" d="M408,240v24h24v-24H408z"/>
<path fill="#FF8C9B" d="M432,240v24h24v-24H432z"/>
<path fill="#FF8C9B" d="M456,240v24h24v-24H456z"/>
<path fill="#FF8C9B" d="M480,240v24h24v-24H480z"/>
<path fill="#FF8C9B" d="M504,240v24h24v-24H504z"/>
<path fill="#FF8C9B" d="M528,240v24h24v-24H528z"/>
<path fill="#FF8C9B" d="M552,240v24h24v-24H552z"/>
<path fill="#FF8C9B" d="M576,240v24h24v-24H576z"/>
<path fill="#FF8C9B" d="M600,240v24h24v-24H600z"/>
<path d="M624,240v24h24v-24H624z"/>
<path fill="#8B8F89" d="M648,240v24h24v-24H648z"/>
<path fill="#8B8F89" d="M672,240v24h24v-24H672z"/>
<path fill="#8B8F89" d="M696,240v24h24v-24H696z"/>
<path fill="#8B8F89" d="M720,240v24h24v-24H720z"/>
<path fill="#8B8F89" d="M744,240v24h24v-24H744z"/>
<path fill="#8B8F89" d="M768,240v24h24v-24H768z"/>
<path fill="#8B8F89" d="M792,240v24h24v-24H792z"/>
<path fill="#8B8F89" d="M816,240v24h24v-24H816z"/>
<path fill="#8B8F89" d="M840,240v24h24v-24H840z"/>
<path fill="#8B8F89" d="M864,240v24h24v-24H864z"/>
<path fill="#8B8F89" d="M888,240v24h24v-24H888z"/>
<path fill="#8B8F89" d="M912,240v24h24v-24H912z"/>
<path fill="#8B8F89" d="M936,240v24h24v-24H936z"/>
<path fill="#8B8F89" d="M960,240v24h24v-24H960z"/>
<path d="M984,240v24h24v-24H984z"/>
<path d="M288,264v24h24v-24H288z"/>
<path d="M312,264v24h24v-24H312z"/>
<path fill="#8B8F89" d="M336,264v24h24v-24H336z"/>
<path fill="#8B8F89" d="M360,264v24h24v-24H360z"/>
<path d="M384,264v24h24v-24H384z"/>
<path fill="#FFF3A3" d="M408,264v24h24v-24H408z"/>
<path fill="#FF8C9B" d="M432,264v24h24v-24H432z"/>
<path fill="#D42071" d="M456,264v24h24v-24H456z"/>
<path fill="#FF8C9B" d="M480,264v24h24v-24H480z"/>
<path fill="#FF8C9B" d="M504,264v24h24v-24H504z"/>
<path fill="#FF8C9B" d="M528,264v24h24v-24H528z"/>
<path fill="#FF8C9B" d="M552,264v24h24v-24H552z"/>
<path fill="#FF8C9B" d="M576,264v24h24v-24H576z"/>
<path fill="#FF8C9B" d="M600,264v24h24v-24H600z"/>
<path d="M624,264v24h24v-24H624z"/>
<path fill="#8B8F89" d="M648,264v24h24v-24H648z"/>
<path fill="#8B8F89" d="M672,264v24h24v-24H672z"/>
<path fill="#8B8F89" d="M696,264v24h24v-24H696z"/>
<path fill="#FFFFFF" d="M720,264v24h24v-24H720z"/>
<path d="M744,264v24h24v-24H744z"/>
<path fill="#8B8F89" d="M768,264v24h24v-24H768z"/>
<path fill="#8B8F89" d="M792,264v24h24v-24H792z"/>
<path fill="#8B8F89" d="M816,264v24h24v-24H816z"/>
<path fill="#8B8F89" d="M840,264v24h24v-24H840z"/>
<path fill="#8B8F89" d="M864,264v24h24v-24H864z"/>
<path d="M912,264v24h24v-24H912z"/>
<path fill="#8B8F89" d="M936,264v24h24v-24H936z"/>
<path fill="#8B8F89" d="M960,264v24h24v-24H960z"/>
<path d="M984,264v24h24v-24H984z"/>
<path d="M312,288v24h24v-24H312z"/>
<path d="M336,288v24h24v-24H336z"/>
<path d="M360,288v24h24v-24H360z"/>
<path d="M384,288v24h24v-24H384z"/>
<path fill="#FFF3A3" d="M408,288v24h24v-24H408z"/>
<path fill="#FF8C9B" d="M432,288v24h24v-24H432z"/>
<path fill="#FF8C9B" d="M456,288v24h24v-24H456z"/>
<path fill="#FF8C9B" d="M480,288v24h24v-24H480z"/>
<path fill="#FF8C9B" d="M504,288v24h24v-24H504z"/>
<path fill="#FF8C9B" d="M528,288v24h24v-24H528z"/>
<path fill="#FF8C9B" d="M552,288v24h24v-24H552z"/>
<path fill="#D42071" d="M576,288v24h24v-24H576z"/>
<path fill="#FF8C9B" d="M600,288v24h24v-24H600z"/>
<path d="M624,288v24h24v-24H624z"/>
<path fill="#8B8F89" d="M648,288v24h24v-24H648z"/>
<path fill="#8B8F89" d="M672,288v24h24v-24H672z"/>
<path fill="#8B8F89" d="M696,288v24h24v-24H696z"/>
<path d="M720,288v24h24v-24H720z"/>
<path d="M744,288v24h24v-24H744z"/>
<path fill="#8B8F89" d="M768,288v24h24v-24H768z"/>
<path fill="#8B8F89" d="M792,288v24h24v-24H792z"/>
<path fill="#8B8F89" d="M816,288v24h24v-24H816z"/>
<path d="M840,288v24h24v-24H840z"/>
<path fill="#8B8F89" d="M864,288v24h24v-24H864z"/>
<path d="M888,288v24h24v-24H888z"/>
<path d="M912,288v24h24v-24H912z"/>
<path fill="#8B8F89" d="M936,288v24h24v-24H936z"/>
<path fill="#8B8F89" d="M960,288v24h24v-24H960z"/>
<path d="M984,288v24h24v-24H984z"/>
<path d="M360,312v24h24v-24H360z"/>
<path d="M384,312v24h24v-24H384z"/>
<path fill="#FFF3A3" d="M408,312v24h24v-24H408z"/>
<path fill="#FF8C9B" d="M432,312v24h24v-24H432z"/>
<path fill="#FF8C9B" d="M456,312v24h24v-24H456z"/>
<path fill="#FF8C9B" d="M480,312v24h24v-24H480z"/>
<path fill="#FF8C9B" d="M504,312v24h24v-24H504z"/>
<path fill="#FF8C9B" d="M528,312v24h24v-24H528z"/>
<path fill="#FF8C9B" d="M552,312v24h24v-24H552z"/>
<path fill="#FF8C9B" d="M576,312v24h24v-24H576z"/>
<path fill="#FF8C9B" d="M600,312v24h24v-24H600z"/>
<path d="M624,312v24h24v-24H624z"/>
<path fill="#8B8F89" d="M648,312v24h24v-24H648z"/>
<path fill="#FFB8BC" d="M672,312v24h24v-24H672z"/>
<path fill="#FFB8BC" d="M696,312v24h24v-24H696z"/>
<path fill="#8B8F89" d="M720,312v24h24v-24H720z"/>
<path fill="#8B8F89" d="M744,312v24h24v-24H744z"/>
<path fill="#8B8F89" d="M768,312v24h24v-24H768z"/>
<path fill="#8B8F89" d="M792,312v24h24v-24H792z"/>
<path fill="#8B8F89" d="M816,312v24h24v-24H816z"/>
<path fill="#8B8F89" d="M840,312v24h24v-24H840z"/>
<path fill="#8B8F89" d="M864,312v24h24v-24H864z"/>
<path fill="#8B8F89" d="M888,312v24h24v-24H888z"/>
<path fill="#8B8F89" d="M912,312v24h24v-24H912z"/>
<path fill="#FFB8BC" d="M936,312v24h24v-24H936z"/>
<path fill="#FFB8BC" d="M960,312v24h24v-24H960z"/>
<path d="M984,312v24h24v-24H984z"/>
<path d="M384,336v24h24v-24H384z"/>
<path fill="#FFF3A3" d="M408,336v24h24v-24H408z"/>
<path fill="#FFF3A3" d="M432,336v24h24v-24H432z"/>
<path fill="#FF8C9B" d="M456,336v24h24v-24H456z"/>
<path fill="#D42071" d="M480,336v24h24v-24H480z"/>
<path fill="#FF8C9B" d="M504,336v24h24v-24H504z"/>
<path fill="#FF8C9B" d="M528,336v24h24v-24H528z"/>
<path fill="#FF8C9B" d="M552,336v24h24v-24H552z"/>
<path fill="#FF8C9B" d="M576,336v24h24v-24H576z"/>
<path fill="#FF8C9B" d="M600,336v24h24v-24H600z"/>
<path d="M624,336v24h24v-24H624z"/>
<path fill="#8B8F89" d="M648,336v24h24v-24H648z"/>
<path fill="#FFB8BC" d="M672,336v24h24v-24H672z"/>
<path fill="#FFB8BC" d="M696,336v24h24v-24H696z"/>
<path fill="#8B8F89" d="M720,336v24h24v-24H720z"/>
<path d="M744,336v24h24v-24H744z"/>
<path fill="#8B8F89" d="M768,336v24h24v-24H768z"/>
<path fill="#8B8F89" d="M792,336v24h24v-24H792z"/>
<path d="M816,336v24h24v-24H816z"/>
<path fill="#8B8F89" d="M840,336v24h24v-24H840z"/>
<path fill="#8B8F89" d="M864,336v24h24v-24H864z"/>
<path d="M888,336v24h24v-24H888z"/>
<path fill="#8B8F89" d="M912,336v24h24v-24H912z"/>
<path fill="#FFB8BC" d="M936,336v24h24v-24H936z"/>
<path fill="#FFB8BC" d="M960,336v24h24v-24H960z"/>
<path d="M984,336v24h24v-24H984z"/>
<path d="M384,360v24h24v-24H384z"/>
<path fill="#FFF3A3" d="M408,360v24h24v-24H408z"/>
<path fill="#FFF3A3" d="M432,360v24h24v-24H432z"/>
<path fill="#FFF3A3" d="M456,360v24h24v-24H456z"/>
<path fill="#FF8C9B" d="M480,360v24h24v-24H480z"/>
<path fill="#FF8C9B" d="M504,360v24h24v-24H504z"/>
<path fill="#FF8C9B" d="M528,360v24h24v-24H528z"/>
<path fill="#FF8C9B" d="M552,360v24h24v-24H552z"/>
<path fill="#FF8C9B" d="M576,360v24h24v-24H576z"/>
<path fill="#FF8C9B" d="M600,360v24h24v-24H600z"/>
<path fill="#FF8C9B" d="M624,360v24h24v-24H624z"/>
<path d="M648,360v24h24v-24H648z"/>
<path fill="#8B8F89" d="M672,360v24h24v-24H672z"/>
<path fill="#8B8F89" d="M696,360v24h24v-24H696z"/>
<path fill="#8B8F89" d="M720,360v24h24v-24H720z"/>
<path d="M744,360v24h24v-24H744z"/>
<path d="M768,360v24h24v-24H768z"/>
<path d="M792,360v24h24v-24H792z"/>
<path d="M816,360v24h24v-24H816z"/>
<path d="M840,360v24h24v-24H840z"/>
<path d="M864,360v24h24v-24H864z"/>
<path d="M888,360v24h24v-24H888z"/>
<path fill="#8B8F89" d="M912,360v24h24v-24H912z"/>
<path fill="#8B8F89" d="M936,360v24h24v-24H936z"/>
<path d="M960,360v24h24v-24H960z"/>
<path d="M360,384v24h24v-24H360z"/>
<path d="M384,384v24h24v-24H384z"/>
<path d="M408,384v24h24v-24H408z"/>
<path fill="#FFF3A3" d="M432,384v24h24v-24H432z"/>
<path fill="#FFF3A3" d="M456,384v24h24v-24H456z"/>
<path fill="#FFF3A3" d="M480,384v24h24v-24H480z"/>
<path fill="#FFF3A3" d="M504,384v24h24v-24H504z"/>
<path fill="#FFF3A3" d="M528,384v24h24v-24H528z"/>
<path fill="#FFF3A3" d="M552,384v24h24v-24H552z"/>
<path fill="#FFF3A3" d="M576,384v24h24v-24H576z"/>
<path fill="#FFF3A3" d="M600,384v24h24v-24H600z"/>
<path fill="#FFF3A3" d="M624,384v24h24v-24H624z"/>
<path fill="#FFF3A3" d="M648,384v24h24v-24H648z"/>
<path d="M672,384v24h24v-24H672z"/>
<path fill="#8B8F89" d="M696,384v24h24v-24H696z"/>
<path fill="#8B8F89" d="M720,384v24h24v-24H720z"/>
<path fill="#8B8F89" d="M744,384v24h24v-24H744z"/>
<path fill="#8B8F89" d="M768,384v24h24v-24H768z"/>
<path fill="#8B8F89" d="M792,384v24h24v-24H792z"/>
<path fill="#8B8F89" d="M816,384v24h24v-24H816z"/>
<path fill="#8B8F89" d="M840,384v24h24v-24H840z"/>
<path fill="#8B8F89" d="M864,384v24h24v-24H864z"/>
<path fill="#8B8F89" d="M888,384v24h24v-24H888z"/>
<path fill="#8B8F89" d="M912,384v24h24v-24H912z"/>
<path d="M936,384v24h24v-24H936z"/>
<path d="M336,408v24h24v-24H336z"/>
<path fill="#8B8F89" d="M360,408v24h24v-24H360z"/>
<path fill="#8B8F89" d="M384,408v24h24v-24H384z"/>
<path fill="#8B8F89" d="M408,408v24h24v-24H408z"/>
<path d="M432,408v24h24v-24H432z"/>
<path d="M456,408v24h24v-24H456z"/>
<path d="M480,408v24h24v-24H480z"/>
<path d="M504,408v24h24v-24H504z"/>
<path d="M528,408v24h24v-24H528z"/>
<path d="M552,408v24h24v-24H552z"/>
<path d="M576,408v24h24v-24H576z"/>
<path d="M600,408v24h24v-24H600z"/>
<path d="M624,408v24h24v-24H624z"/>
<path d="M648,408v24h24v-24H648z"/>
<path d="M672,408v24h24v-24H672z"/>
<path d="M696,408v24h24v-24H696z"/>
<path d="M720,408v24h24v-24H720z"/>
<path d="M744,408v24h24v-24H744z"/>
<path d="M768,408v24h24v-24H768z"/>
<path d="M792,408v24h24v-24H792z"/>
<path d="M816,408v24h24v-24H816z"/>
<path d="M840,408v24h24v-24H840z"/>
<path d="M864,408v24h24v-24H864z"/>
<path d="M888,408v24h24v-24H888z"/>
<path d="M912,408v24h24v-24H912z"/>
<path d="M336,432v24h24v-24H336z"/>
<path fill="#8B8F89" d="M360,432v24h24v-24H360z"/>
<path fill="#8B8F89" d="M384,432v24h24v-24H384z"/>
<path d="M408,432v24h24v-24H408z"/>
<path d="M432,432v24h24v-24H432z"/>
<path d="M480,432v24h24v-24H480z"/>
<path fill="#8B8F89" d="M504,432v24h24v-24H504z"/>
<path fill="#8B8F89" d="M528,432v24h24v-24H528z"/>
<path d="M552,432v24h24v-24H552z"/>
<path d="M696,432v24h24v-24H696z"/>
<path fill="#8B8F89" d="M720,432v24h24v-24H720z"/>
<path fill="#8B8F89" d="M744,432v24h24v-24H744z"/>
<path d="M768,432v24h24v-24H768z"/>
<path d="M816,432v24h24v-24H816z"/>
<path fill="#8B8F89" d="M840,432v24h24v-24H840z"/>
<path fill="#8B8F89" d="M864,432v24h24v-24H864z"/>
<path d="M888,432v24h24v-24H888z"/>
<path d="M336,456v24h24v-24H336z"/>
<path d="M360,456v24h24v-24H360z"/>
<path d="M384,456v24h24v-24H384z"/>
<path d="M408,456v24h24v-24H408z"/>
<path d="M480,456v24h24v-24H480z"/>
<path d="M504,456v24h24v-24H504z"/>
<path d="M528,456v24h24v-24H528z"/>
<path d="M720,456v24h24v-24H720z"/>
<path d="M744,456v24h24v-24H744z"/>
<path d="M768,456v24h24v-24H768z"/>
<path d="M840,456v24h24v-24H840z"/>
<path d="M864,456v24h24v-24H864z"/>
</svg>
