<?xml version="1.0" encoding="utf-8"?>
<!-- Generator: Adobe Illustrator 18.0.0, SVG Export Plug-In . SVG Version: 6.00 Build 0)  -->
<!DOCTYPE svg PUBLIC "-//W3C//DTD SVG 1.1//EN" "http://www.w3.org/Graphics/SVG/1.1/DTD/svg11.dtd">
<svg version="1.1" id="Vrstva_1" xmlns="http://www.w3.org/2000/svg" xmlns:xlink="http://www.w3.org/1999/xlink" x="0px" y="0px"
	 viewBox="0 0 342.2 400" enable-background="new 0 0 342.2 400" xml:space="preserve">
<g>
	<path fill="#FFFFFF" d="M326,91.4c0,0,0-14.6,0-17.7c0-3-2.6-13.5-12.4-13.5c-4.4,0-33.6,0-64.4,0c0-0.3,0-1.9,0-9.9
		c0-23-19.6-50.3-41-50.3c-21.5,0-37.1,0-37.1,0S155.4,0,134,0c-21.5,0-41,27.4-41,50.3c0,8,0,9.6,0,9.9c-30.8,0-60,0-64.4,0
		c-9.8,0-12.4,10.5-12.4,13.5c0,3,0,17.7,0,17.7H0v31.2h32.1c0,0,0,229.9,0,246.2c0,16.3,10.9,31.2,32.6,31.2
		c21.7,0,106.4,0,106.4,0v0c0,0,84.7,0,106.4,0s32.6-14.9,32.6-31.2s0-246.2,0-246.2h32.1V91.4H326z M124.8,46.5
		c0-4.4,7.1-16.4,16.4-16.4c13.5,0,30,0,30,0s16.4,0,30,0c9.3,0,16.4,11.9,16.4,16.4c0,10.4,0,13.7,0,13.7c-25.6,0-46.3,0-46.3,0
		s-20.7,0-46.3,0C124.8,60.2,124.8,56.8,124.8,46.5z M280.9,360.7c0,8.8-2,10.2-13.6,10.2c-11.5,0-96.2,0-96.2,0s-84.7,0-96.2,0
		c-11.5,0-13.6-1.4-13.6-10.2c0-8.8,0-238,0-238h109.8h109.8C280.9,122.6,280.9,351.9,280.9,360.7z"/>
	<rect x="155.6" y="154.2" fill="#FFFFFF" width="31.1" height="185.7"/>
	<rect x="217.9" y="154.2" fill="#FFFFFF" width="31.1" height="185.7"/>
	<rect x="93.2" y="154.2" fill="#FFFFFF" width="31.1" height="185.7"/>
</g>
</svg>
