<?xml version="1.0" encoding="utf-8"?>
<!-- Generator: Adobe Illustrator 18.0.0, SVG Export Plug-In . SVG Version: 6.00 Build 0)  -->
<!DOCTYPE svg PUBLIC "-//W3C//DTD SVG 1.1//EN" "http://www.w3.org/Graphics/SVG/1.1/DTD/svg11.dtd">
<svg version="1.1" id="Vrstva_1" xmlns="http://www.w3.org/2000/svg" xmlns:xlink="http://www.w3.org/1999/xlink" x="0px" y="0px"
	 viewBox="0 131.5 500 237.2" enable-background="new 0 131.5 500 237.2" xml:space="preserve">
<g id="error" display="none">
	<rect x="-62.4" y="377.2" display="inline" opacity="0.9" enable-background="new    " width="125.2" height="54.3"/>
	<rect x="-62.5" y="389.7" display="inline" fill="#ED1D2B" width="125.3" height="23.5"/>
	
		<text transform="matrix(1 0 0 1 -53.7852 398.0605)" display="inline" fill="#FFFFFF" font-family="'Roboto-Light'" font-size="7.1514">Error</text>
	
		<text transform="matrix(1 0 0 1 -53.2183 406.082)" display="inline" fill="#FFFFFF" font-family="'Roboto-Light'" font-size="3.4055">Naskytla se nějaká chyba.</text>
	<rect x="39.1" y="406.7" display="inline" fill="none" stroke="#FFFFFF" stroke-miterlimit="10" width="19.6" height="4.2"/>
	
		<text transform="matrix(1 0 0 1 47.3901 410.1943)" display="inline" fill="#FFFFFF" font-family="'Roboto-Light'" font-size="3.2428">Ok</text>
</g>
<g>
	<rect x="26.3" y="273.7" fill="#F2F2F2" width="285.6" height="93.6"/>
	<rect x="313.5" y="274.8" fill="#ED1A46" width="33.7" height="93.5"/>
	<rect x="324" y="318.4" fill="#FFFFFF" width="12.9" height="2"/>
	<rect x="324" y="324.9" fill="#FFFFFF" width="12.9" height="2.1"/>
	<g id="frame">
		<rect x="0" y="131.5" fill="#303030" width="499.7" height="20.5"/>
		<g id="close_button">
			<rect x="479.9" y="131.5" fill="#C82027" width="20.5" height="20.5"/>
			<g>
				<path fill="#FFFFFF" d="M9,142.1l-3.3,4.2H11v0.7H4.8v-0.5l3.4-4.5l-3.4-4v-0.7h6.3v0.7H5.9l0,0l3.1,3.8V142.1z"/>
			</g>
			<polygon fill="#FFFFFF" points="11,138 10.6,138 11,138.5 			"/>
			<polygon fill="#FFFFFF" points="11,146.3 10.6,146.3 11,145.9 			"/>
			<rect x="5.4" y="140.5" fill="#C82027" width="4.9" height="0.8"/>
			<rect x="5.4" y="143" fill="#C82027" width="4.9" height="0.8"/>
			
				<rect x="489.7" y="133.6" transform="matrix(0.7073 -0.7069 0.7069 0.7073 43.3406 387.8613)" fill="#E1E1E1" width="0.6" height="16"/>
			
				<rect x="489.8" y="133.6" transform="matrix(-0.7073 -0.7069 0.7069 -0.7073 736.6077 588.2269)" fill="#E1E1E1" width="0.6" height="16"/>
		</g>
		<g>
			<path fill="#F7F7F7" d="M17.6,147v-9.8h2.9c1,0,1.8,0.3,2.5,0.7c0.6,0.5,0.8,1,0.8,1.8c0,0.5-0.1,1-0.5,1.3
				c-0.3,0.5-0.8,0.8-1.3,0.8c0.6,0.1,1.1,0.5,1.5,0.8c0.5,0.5,0.6,1,0.6,1.6c0,0.8-0.3,1.5-0.8,2c-0.6,0.5-1.4,0.7-2.3,0.7
				L17.6,147C17.6,147.1,17.6,147,17.6,147z M18.4,141.5h2.3c0.7,0,1.3-0.1,1.6-0.5c0.5-0.3,0.6-0.8,0.6-1.3c0-0.7-0.3-1-0.7-1.3
				c-0.5-0.3-1-0.5-1.8-0.5h-2.1C18.4,138,18.4,141.5,18.4,141.5z M18.4,142.3v4H21c0.7,0,1.3-0.1,1.8-0.5c0.5-0.5,0.7-0.8,0.7-1.5
				c0-0.5-0.1-1-0.6-1.5c-0.5-0.5-1-0.5-1.6-0.5C21.2,142.3,18.4,142.3,18.4,142.3z"/>
			<path fill="#F7F7F7" d="M30.6,147c0-0.3-0.1-0.5-0.1-0.7c0-0.1,0-0.5,0-0.5c-0.3,0.5-0.7,0.7-1.1,1c-0.5,0.3-1,0.5-1.5,0.5
				c-0.7,0-1.3-0.2-1.6-0.5c-0.4-0.4-0.6-0.8-0.6-1.5c0-0.7,0.3-1.3,0.8-1.6c0.6-0.5,1.4-0.5,2.3-0.5h1.6v-1c0-0.5-0.1-1-0.6-1.3
				c-0.5-0.3-0.8-0.5-1.4-0.5s-1.1,0.2-1.4,0.5c-0.3,0.3-0.6,0.7-0.6,1H26l0,0c0-0.5,0.3-1,0.7-1.5c0.5-0.5,1.3-0.7,2.1-0.7
				s1.5,0.3,1.9,0.7c0.6,0.5,0.7,1,0.7,1.8v3.5c0,0.3,0,0.5,0,0.7s0.1,0.5,0.1,0.7L30.6,147L30.6,147z M27.8,146.4
				c0.6,0,1.1-0.2,1.5-0.5c0.5-0.3,0.8-0.7,1-1v-1.5h-1.6c-0.7,0-1.4,0.1-1.8,0.5c-0.5,0.3-0.7,0.7-0.7,1.3c0,0.5,0.1,0.7,0.5,1
				C27,146.3,27.5,146.4,27.8,146.4z"/>
			<path fill="#F7F7F7" d="M36.7,140.5h-0.6c-0.6,0-1,0.1-1.3,0.5c-0.3,0.3-0.6,0.7-0.7,1.3v5h-0.8v-7.5H34l0.1,1.3v0.1
				c0.3-0.5,0.6-0.8,0.8-1s0.8-0.5,1.3-0.5c0.1,0,0.1,0,0.3,0c0.3,0.1,0.3,0.1,0.5,0.1L36.7,140.5z"/>
			<path fill="#F7F7F7" d="M44,143.6c0,1-0.3,1.8-0.7,2.5c-0.6,0.7-1.3,1-2.1,1c-0.6,0-1-0.2-1.4-0.3c-0.5-0.2-0.7-0.5-1-1l-0.1,1
				H38v-10.3h0.8v4.3c0.3-0.5,0.6-0.7,1-1c0.5-0.3,0.8-0.3,1.4-0.3c0.8,0,1.5,0.5,2.1,1C43.9,141.5,44,142.4,44,143.6L44,143.6z
				 M43.2,143.5c0-1-0.1-1.6-0.6-2.3c-0.5-0.5-1-0.8-1.6-0.8s-1,0.1-1.4,0.5c-0.5,0.3-0.6,0.7-0.8,1v3.3c0.1,0.5,0.5,0.8,0.8,1
				c0.5,0.3,0.8,0.5,1.4,0.5c0.7,0,1.3-0.3,1.6-0.8C43.1,145.1,43.2,144.5,43.2,143.5L43.2,143.5z"/>
			<path fill="#F7F7F7" d="M46.7,137.6h-0.8v-1h0.8V137.6z M46.7,147h-0.8v-7.4h0.8V147z"/>
			<path fill="#F7F7F7" d="M51.6,147.1c-1,0-1.6-0.3-2.3-1c-0.6-0.7-1-1.5-1-2.5v-0.5c0-1,0.3-1.8,1-2.5c0.6-0.7,1.4-1,2.2-1
				c1,0,1.6,0.3,2.2,0.8c0.6,0.7,0.8,1.3,0.8,2.3v0.7h-5.2v0.1c0,0.8,0.3,1.5,0.7,2c0.4,0.5,1,0.8,1.8,0.8c0.6,0,1-0.2,1.3-0.3
				c0.3-0.1,0.7-0.3,1-0.5l0.5,0.5c-0.3,0.3-0.7,0.5-1.1,0.7C52.7,147,52.3,147.1,51.6,147.1z M51.6,140.3c-0.5,0-1,0.2-1.5,0.7
				c-0.5,0.5-0.7,1-0.7,1.8l0,0h4.2v-0.3c0-0.7-0.1-1.3-0.6-1.6C52.7,140.5,52.2,140.3,51.6,140.3z"/>
			<path fill="#F7F7F7" d="M66.3,144L66.3,144c-0.1,1-0.5,1.8-1.1,2.3c-0.7,0.5-1.5,0.8-2.5,0.8c-1.1,0-1.9-0.5-2.6-1.3
				s-1-1.8-1-3.1v-1.4c0-1.3,0.3-2.3,1-3.1c0.7-0.8,1.5-1.3,2.6-1.3c1.1,0,1.9,0.3,2.5,0.8c0.6,0.5,1,1.3,1.1,2.3l0,0h-0.8
				c-0.1-0.8-0.5-1.5-0.8-1.8c-0.3-0.3-1.1-0.7-1.9-0.7s-1.5,0.3-2.1,1c-0.6,0.7-0.8,1.5-0.8,2.5v1.5c0,1,0.3,1.8,0.8,2.5
				c0.6,0.7,1.3,1,2.1,1s1.5-0.3,1.9-0.7c0.5-0.5,0.7-1,0.8-1.8h0.8C66.3,143.5,66.3,144,66.3,144z"/>
			<path fill="#F7F7F7" d="M72.8,147c0-0.3-0.1-0.5-0.1-0.7c0-0.1,0-0.5,0-0.5c-0.3,0.5-0.7,0.7-1.1,1c-0.4,0.3-1,0.5-1.5,0.5
				c-0.7,0-1.3-0.2-1.6-0.5c-0.5-0.5-0.6-0.8-0.6-1.5c0-0.7,0.3-1.3,0.8-1.6c0.6-0.5,1.4-0.5,2.3-0.5h1.6v-1c0-0.5-0.1-1-0.6-1.3
				c-0.5-0.3-0.8-0.5-1.4-0.5c-0.6,0-1.1,0.2-1.4,0.5c-0.3,0.3-0.6,0.7-0.6,1h-0.7l0,0c0-0.5,0.3-1,0.7-1.5c0.4-0.5,1.3-0.7,2.1-0.7
				s1.5,0.3,1.9,0.7c0.5,0.3,0.7,0.8,0.7,1.6v3.5c0,0.3,0,0.5,0,0.7s0.1,0.5,0.1,0.7h-0.8L72.8,147L72.8,147z M70.2,146.4
				c0.6,0,1.1-0.2,1.5-0.5c0.5-0.3,0.8-0.7,1-1v-1.5h-1.6c-0.7,0-1.4,0.1-1.8,0.5c-0.4,0.3-0.7,0.7-0.7,1.3c0,0.5,0.1,0.7,0.5,1
				C69.3,146.3,69.7,146.4,70.2,146.4z"/>
			<path fill="#F7F7F7" d="M76.4,147h-0.8v-10.5h0.8V147z"/>
			<path fill="#F7F7F7" d="M81.5,146.4c0.6,0,1-0.2,1.4-0.5c0.5-0.3,0.7-0.7,0.7-1.3h0.7l0,0c0,0.7-0.3,1.3-0.8,1.6
				c-0.6,0.5-1.3,0.7-1.9,0.7c-1,0-1.8-0.5-2.3-1c-0.6-0.7-0.8-1.5-0.8-2.5v-0.3c0-1,0.3-1.8,0.8-2.5c0.6-0.7,1.4-1,2.3-1
				c0.8,0,1.5,0.3,2.1,0.7c0.6,0.5,0.8,1,0.8,1.8l0,0h-0.7c0-0.5-0.1-1-0.6-1.3c-0.5-0.5-0.8-0.5-1.5-0.5c-0.8,0-1.4,0.3-1.8,0.8
				c-0.5,0.5-0.7,1.3-0.7,2.2v0.2c0,0.8,0.1,1.6,0.6,2.2C80.1,146.1,80.7,146.4,81.5,146.4z"/>
			<path fill="#F7F7F7" d="M90.6,145.8c-0.3,0.5-0.6,0.8-1,1c-0.5,0.3-0.8,0.5-1.4,0.5c-0.8,0-1.4-0.3-1.8-0.8
				c-0.5-0.5-0.7-1.3-0.7-2.5v-4.3h0.8v4.2c0,1,0.1,1.5,0.5,1.8c0.3,0.5,0.7,0.5,1.3,0.5s1.1-0.2,1.5-0.5c0.4-0.3,0.7-0.7,0.8-1
				v-5.1h0.8v7.3h-0.7L90.6,145.8z"/>
			<path fill="#F7F7F7" d="M94.4,147h-0.8v-10.5h0.8V147z"/>
			<path fill="#F7F7F7" d="M101.4,147c0-0.3-0.1-0.5-0.1-0.7c0-0.1,0-0.5,0-0.5c-0.3,0.5-0.7,0.7-1.1,1c-0.5,0.3-1,0.5-1.5,0.5
				c-0.7,0-1.3-0.2-1.6-0.5c-0.4-0.5-0.6-0.8-0.6-1.5c0-0.7,0.3-1.3,0.8-1.6c0.6-0.5,1.4-0.5,2.3-0.5h1.6v-1c0-0.5-0.1-1-0.6-1.3
				c-0.5-0.3-0.8-0.5-1.4-0.5c-0.6,0-1.1,0.2-1.4,0.5c-0.3,0.3-0.6,0.7-0.6,1h-0.7l0,0c0-0.5,0.3-1,0.7-1.5c0.4-0.5,1.3-0.7,2.1-0.7
				s1.5,0.3,1.9,0.7c0.6,0.5,0.7,1,0.7,1.8v3.5c0,0.3,0,0.5,0,0.7s0.1,0.5,0.1,0.7L101.4,147L101.4,147z M98.6,146.4
				c0.6,0,1.1-0.2,1.5-0.5c0.5-0.3,0.8-0.7,1-1v-1.5h-1.6c-0.7,0-1.4,0.1-1.8,0.5c-0.5,0.3-0.7,0.7-0.7,1.3c0,0.5,0.1,0.7,0.5,1
				C97.8,146.3,98.2,146.4,98.6,146.4z"/>
			<path fill="#F7F7F7" d="M105.4,137.9v1.8h1.6v0.7h-1.6v4.8c0,0.5,0.1,0.8,0.3,1c0.1,0.1,0.5,0.3,0.7,0.3c0.1,0,0.3,0,0.5,0
				c0.1,0,0.3,0,0.5,0l0.1,0.5c-0.1,0-0.3,0.1-0.6,0.1s-0.5,0-0.6,0c-0.6,0-1-0.1-1.3-0.5c-0.3-0.3-0.5-0.8-0.5-1.5v-4.8h-1.3v-0.7
				h1.3v-1.8L105.4,137.9C105.4,137.8,105.4,137.9,105.4,137.9z"/>
			<path fill="#F7F7F7" d="M108.2,143.2c0-1,0.3-1.8,0.8-2.5c0.6-0.7,1.4-1,2.3-1c0.9,0,1.8,0.5,2.3,1c0.6,0.7,0.8,1.6,0.8,2.5v0.3
				c0,1-0.3,1.8-0.8,2.5c-0.6,0.7-1.4,1-2.3,1c-0.9,0-1.8-0.5-2.3-1c-0.6-0.7-0.8-1.6-0.8-2.5V143.2z M109,143.5
				c0,0.8,0.3,1.5,0.7,2.2c0.5,0.5,1.1,0.8,1.8,0.8c0.8,0,1.4-0.3,1.8-0.8c0.5-0.5,0.7-1.3,0.7-2.2v-0.3c0-0.8-0.3-1.5-0.7-2.2
				c-0.5-0.5-1.1-0.8-1.8-0.8c-0.8,0-1.4,0.3-1.8,0.8c-0.5,0.5-0.7,1.3-0.7,2.2V143.5z"/>
			<path fill="#F7F7F7" d="M119.6,140.5H119c-0.6,0-1,0.1-1.3,0.5c-0.3,0.3-0.6,0.7-0.7,1.3v5h-0.8v-7.5h0.7v1.3v0.1
				c0.3-0.5,0.6-0.8,0.8-1c0.3-0.3,0.8-0.5,1.3-0.5c0.1,0,0.1,0,0.3,0s0.1,0,0.3,0L119.6,140.5z"/>
		</g>
	</g>
	<g id="display">
		<rect x="0.3" y="151.8" fill="#F7F7F7" width="346.1" height="123.2"/>
		<g>
			<path fill="#303030" d="M261.2,210.5c0,3.1-0.7,5.6-2.2,7.2c-1.4,1.6-3.4,2.5-5.9,2.5s-4.4-0.8-5.9-2.5c-1.5-1.6-2.2-4-2.2-7.2
				V205c0-3.1,0.7-5.6,2.2-7.2c1.5-1.6,3.4-2.4,5.9-2.4s4.4,0.8,5.9,2.4c1.5,1.7,2.2,4.1,2.2,7.2V210.5z M257.1,204.4
				c0-2-0.3-3.3-0.9-4.3c-0.7-0.9-1.6-1.5-2.9-1.5c-1.3,0-2.2,0.6-2.9,1.5c-0.7,0.9-0.9,2.4-0.9,4.3v6.7c0,2,0.3,3.5,0.9,4.5
				c0.7,0.9,1.6,1.5,2.9,1.5c1.3,0,2.2-0.6,2.9-1.5c0.6-1,0.9-2.5,0.9-4.5V204.4z"/>
			<path fill="#303030" d="M269.4,219.9h-4.1v-4h4.1V219.9z"/>
			<path fill="#303030" d="M287.8,211.3h3.1v3.3h-3.1v5.4h-4.1v-5.4h-10.3l-0.1-2.5l10.3-16.3h4.2V211.3L287.8,211.3z M277.3,211.3
				h6.5v-9.8h-0.1l-0.3,0.7L277.3,211.3z"/>
			<path fill="#303030" d="M307.2,211.3h3.1v3.3h-3.1v5.4h-4v-5.4h-10.4l-0.1-2.5l10.3-16.3h4.2V211.3L307.2,211.3z M296.7,211.3
				h6.5v-9.8h-0.1l-0.3,0.7L296.7,211.3z"/>
			<path fill="#303030" d="M326.6,211.3h3.1v3.3h-3.1v5.4h-4.1v-5.4h-10.3l-0.1-2.5l10.3-16.3h4.2V211.3z M316,211.3h6.5v-9.8h-0.1
				l-0.3,0.7L316,211.3z"/>
		</g>
	</g>
	<g id="extension">
		<rect x="0.3" y="274.7" fill="#2B2B2B" width="27.2" height="13.5"/>
		<g>
			<path fill="#FFFFFF" d="M10.6,281.7c0,0.6-0.1,1.1-0.4,1.5c-0.3,0.4-0.7,0.6-1.1,0.6c-0.3,0-0.6,0-0.8-0.2
				c-0.3-0.1-0.4-0.3-0.6-0.4v2.2H7.1v-5.6h0.4v0.7c0.1-0.3,0.3-0.4,0.6-0.6c0.3-0.1,0.4-0.1,0.8-0.1c0.6,0,0.8,0.1,1.1,0.6
				C10.4,280.5,10.6,281,10.6,281.7L10.6,281.7z M10.1,281.6c0-0.6-0.1-0.9-0.3-1.3c-0.3-0.3-0.6-0.6-0.9-0.6
				c-0.3,0-0.6,0.1-0.7,0.3c-0.1,0.1-0.3,0.3-0.4,0.6v1.8c0.1,0.3,0.3,0.4,0.4,0.6s0.4,0.2,0.7,0.2c0.4,0,0.7-0.2,0.9-0.4
				C10.1,282.5,10.1,282.1,10.1,281.6L10.1,281.6z"/>
			<path fill="#FFFFFF" d="M11.3,281.6c0-0.6,0.1-1.1,0.6-1.5c0.5-0.4,0.8-0.6,1.3-0.6c0.6,0,0.9,0.1,1.3,0.6
				c0.4,0.4,0.6,0.8,0.6,1.5v0.1c0,0.6-0.1,1.1-0.6,1.5c-0.4,0.4-0.8,0.6-1.3,0.6s-0.9-0.1-1.3-0.6
				C11.4,282.8,11.3,282.3,11.3,281.6L11.3,281.6z M11.8,281.6c0,0.4,0.1,0.8,0.4,1.3c0.3,0.4,0.6,0.6,0.9,0.6
				c0.4,0,0.8-0.1,0.9-0.6c0.3-0.3,0.4-0.7,0.4-1.3v-0.2c0-0.4-0.1-0.8-0.4-1.3c-0.3-0.3-0.6-0.6-0.9-0.6c-0.4,0-0.8,0.1-0.9,0.6
				C12.1,280.6,11.8,281,11.8,281.6L11.8,281.6z"/>
			<path fill="#FFFFFF" d="M16.7,282.3l0.1,0.7l0,0l0.1-0.7l0.8-2.8h0.4l0.8,2.8L19,283l0,0l0.1-0.7l0.7-2.8h0.4l-1.3,4.1H19
				l-0.9-2.8l-0.1-0.7l0,0l-0.1,0.7l-0.9,2.8h-0.4l-1.3-4.1h0.4L16.7,282.3z"/>
		</g>
		<rect x="0.3" y="288.1" fill="#2B2B2B" width="27.2" height="13.5"/>
		<g>
			<path fill="#EE1D3E" d="M9.5,293.3H9.3c-0.3,0-0.6,0.1-0.7,0.3c-0.2,0.1-0.3,0.4-0.4,0.7v2.8H7.6V293H8v0.7l0,0
				c0.1-0.3,0.3-0.4,0.4-0.6c0.1-0.1,0.4-0.3,0.7-0.3h0.1h0.1L9.5,293.3z"/>
			<path fill="#EE1D3E" d="M9.9,294.8c0-0.6,0.1-1.1,0.6-1.5c0.4-0.4,0.8-0.6,1.3-0.6c0.6,0,0.9,0.2,1.3,0.6
				c0.4,0.4,0.6,0.8,0.6,1.5v0.2c0,0.6-0.1,1.1-0.6,1.5c-0.4,0.4-0.8,0.6-1.3,0.6c-0.6,0-0.9-0.1-1.3-0.6
				C10.1,296.1,9.9,295.6,9.9,294.8L9.9,294.8z M10.3,294.8c0,0.4,0.1,0.8,0.4,1.3c0.3,0.4,0.6,0.6,0.9,0.6c0.4,0,0.8-0.1,0.9-0.6
				c0.3-0.3,0.4-0.7,0.4-1.3v-0.1c0-0.4-0.1-0.8-0.4-1.3c-0.3-0.3-0.6-0.6-0.9-0.6c-0.4,0-0.8,0.1-0.9,0.6
				C10.6,294,10.3,294.3,10.3,294.8L10.3,294.8z"/>
			<path fill="#EE1D3E" d="M14.3,294.8c0-0.6,0.1-1.1,0.6-1.5c0.4-0.4,0.8-0.6,1.3-0.6c0.6,0,0.9,0.2,1.3,0.6s0.6,0.8,0.6,1.5v0.2
				c0,0.6-0.1,1.1-0.6,1.5c-0.4,0.4-0.8,0.6-1.3,0.6s-0.9-0.1-1.3-0.6C14.3,296.1,14.3,295.6,14.3,294.8L14.3,294.8z M14.7,294.8
				c0,0.4,0.1,0.8,0.4,1.3c0.3,0.4,0.6,0.6,0.9,0.6c0.4,0,0.8-0.1,0.9-0.6c0.3-0.3,0.4-0.7,0.4-1.3v-0.1c0-0.4-0.1-0.8-0.4-1.3
				c-0.3-0.3-0.6-0.6-0.9-0.6c-0.4,0-0.8,0.1-0.9,0.6C14.9,294,14.7,294.3,14.7,294.8L14.7,294.8z"/>
			<path fill="#EE1D3E" d="M19.4,291.8v1.1h0.9v0.4h-0.9v2.8c0,0.3,0,0.4,0.1,0.6c0.1,0.1,0.3,0.1,0.4,0.1s0.1,0,0.3,0
				c0.1,0,0.1,0,0.3,0v0.3c-0.1,0-0.1,0-0.3,0.1c-0.1,0-0.3,0-0.3,0c-0.3,0-0.6-0.1-0.7-0.3c-0.2-0.2-0.3-0.4-0.3-0.8v-2.8h-0.7
				v-0.4h0.6v-1.2L19.4,291.8L19.4,291.8z"/>
		</g>
		<rect x="0.3" y="301.6" fill="#2B2B2B" width="27.2" height="13.5"/>
		<g>
			<path fill="#FFFFFF" d="M8.1,310.5v-3.7H7.4v-0.4h0.7v-0.7c0-0.4,0.1-0.7,0.3-0.9c0.3-0.3,0.6-0.3,0.8-0.3c0.1,0,0.1,0,0.3,0
				c0.1,0,0.1,0,0.3,0v0.4H9.6c0,0-0.1,0-0.3,0c-0.3,0-0.4,0.1-0.6,0.3c-0.1,0.1-0.1,0.4-0.1,0.7v0.6h0.9v0.4H8.7v3.7L8.1,310.5
				L8.1,310.5L8.1,310.5z"/>
			<path fill="#FFFFFF" d="M12.8,310.5c0-0.2,0-0.3,0-0.4s0-0.1,0-0.3c-0.1,0.3-0.4,0.4-0.6,0.6c-0.3,0.1-0.6,0.3-0.8,0.3
				c-0.4,0-0.7-0.1-0.9-0.3c-0.3-0.3-0.3-0.6-0.3-0.8c0-0.4,0.1-0.7,0.6-0.9c0.3-0.3,0.8-0.3,1.3-0.3H13v-0.6c0-0.3-0.1-0.6-0.3-0.7
				c-0.1-0.1-0.4-0.3-0.8-0.3c-0.3,0-0.6,0.1-0.8,0.3c-0.3,0.1-0.3,0.4-0.3,0.6h-0.4l0,0c0-0.3,0.1-0.6,0.4-0.8
				c0.3-0.3,0.7-0.4,1.1-0.4c0.4,0,0.8,0.1,1.1,0.4s0.4,0.6,0.4,0.9v2.1c0,0.1,0,0.3,0,0.4s0,0.3,0.1,0.4h-0.8L12.8,310.5
				L12.8,310.5z M11.6,310c0.3,0,0.6-0.1,0.8-0.3c0.3-0.2,0.4-0.4,0.6-0.6v-0.8h-1c-0.4,0-0.7,0.1-0.9,0.3c-0.3,0.1-0.4,0.4-0.4,0.7
				c0,0.3,0.1,0.4,0.3,0.6C11,310,11.3,310,11.6,310z"/>
			<path fill="#FFFFFF" d="M16.1,310c0.3,0,0.6-0.1,0.8-0.3c0.3-0.2,0.4-0.4,0.4-0.7h0.4l0,0c0,0.4-0.1,0.7-0.4,0.9
				c-0.3,0.3-0.7,0.4-1.1,0.4c-0.6,0-0.9-0.2-1.3-0.6c-0.3-0.4-0.4-0.8-0.4-1.5v-0.1c0-0.6,0.1-1.1,0.4-1.5c0.3-0.4,0.7-0.6,1.3-0.6
				c0.4,0,0.8,0.1,1.1,0.4c0.3,0.3,0.4,0.6,0.4,1.1l0,0h-0.4c0-0.3-0.1-0.6-0.3-0.8c-0.3-0.2-0.6-0.3-0.8-0.3
				c-0.4,0-0.8,0.1-0.9,0.4c-0.3,0.3-0.3,0.7-0.3,1.3v0.1c0,0.6,0.1,0.8,0.3,1.3C15.2,309.8,15.6,310,16.1,310z"/>
			<path fill="#FFFFFF" d="M19.3,305.3v1.1h0.9v0.4h-0.9v2.8c0,0.3,0,0.4,0.1,0.6c0.1,0.1,0.3,0.1,0.4,0.1s0.1,0,0.3,0
				c0.1,0,0.1,0,0.3,0v0.3c-0.1,0-0.1,0-0.3,0.1c-0.1,0-0.3,0-0.3,0c-0.3,0-0.6-0.1-0.7-0.3c-0.2-0.2-0.3-0.4-0.3-0.8v-2.9h-0.7
				v-0.4h0.7v-1.1L19.3,305.3L19.3,305.3z"/>
		</g>
		<rect x="0.3" y="314.8" fill="#2B2B2B" width="27.2" height="13.5"/>
		<g>
			<path fill="#FFFFFF" d="M8.7,320H8.4c-0.3,0-0.6,0.1-0.7,0.3c-0.1,0.1-0.3,0.4-0.4,0.7v2.9H6.7v-4.1h0.4v0.7l0,0
				c0.1-0.3,0.3-0.4,0.4-0.6c0.1-0.1,0.4-0.3,0.7-0.3h0.1h0.1L8.7,320z"/>
			<path fill="#FFFFFF" d="M11.9,323.7c0-0.1,0-0.3,0-0.4c0-0.1,0-0.1,0-0.3c-0.1,0.3-0.4,0.4-0.6,0.6c-0.3,0.1-0.6,0.3-0.8,0.3
				c-0.4,0-0.7-0.1-0.9-0.3c-0.3-0.3-0.3-0.6-0.3-0.8c0-0.4,0.1-0.7,0.6-0.9c0.3-0.3,0.8-0.3,1.3-0.3h0.9V321c0-0.3-0.1-0.6-0.3-0.7
				c-0.1-0.1-0.4-0.3-0.8-0.3c-0.3,0-0.6,0.1-0.8,0.3c-0.3,0.1-0.6,0.1-0.6,0.4H9.3l0,0c0-0.3,0.1-0.6,0.4-0.8
				c0.3-0.3,0.7-0.4,1.1-0.4c0.4,0,0.8,0.1,1.1,0.4c0.3,0.3,0.4,0.6,0.4,0.9v2.1c0,0.1,0,0.3,0,0.4c0,0.1,0,0.3,0.1,0.4h-0.6
				C11.9,323.8,11.9,323.7,11.9,323.7z M10.4,323.3c0.3,0,0.6-0.1,0.8-0.3c0.3-0.1,0.4-0.4,0.6-0.6v-0.8H11c-0.4,0-0.7,0.1-0.9,0.3
				c-0.3,0.1-0.4,0.4-0.4,0.7s0.1,0.4,0.3,0.6C10.1,323.3,10.2,323.3,10.4,323.3z"/>
			<path fill="#FFFFFF" d="M14,319.6v0.7c0.1-0.3,0.3-0.4,0.6-0.6c0.3-0.1,0.6-0.3,0.8-0.3c0.4,0,0.8,0.1,0.9,0.4
				c0.3,0.3,0.4,0.7,0.4,1.3v2.4h-0.4v-2.4c0-0.4-0.1-0.8-0.3-0.9s-0.4-0.3-0.7-0.3s-0.6,0.1-0.8,0.3c-0.1,0.1-0.4,0.4-0.4,0.7v2.9
				h-0.6v-4.1L14,319.6L14,319.6z"/>
			<path fill="#FFFFFF" d="M17.7,321.6c0-0.7,0.1-1.3,0.4-1.5c0.3-0.4,0.7-0.6,1.1-0.6c0.3,0,0.6,0,0.7,0.1c0.3,0.1,0.4,0.3,0.6,0.6
				v-2.4h0.4v5.9h-0.4v-0.6c-0.1,0.3-0.3,0.4-0.6,0.6c-0.3,0.1-0.4,0.1-0.8,0.1c-0.6,0-0.8-0.1-1.1-0.6
				C17.8,322.9,17.7,322.3,17.7,321.6L17.7,321.6z M18.1,321.8c0,0.6,0.1,0.9,0.3,1.3c0.1,0.3,0.6,0.4,0.9,0.4s0.6,0,0.7-0.1
				s0.4-0.3,0.4-0.6v-1.9c-0.1-0.3-0.3-0.4-0.4-0.6c-0.1-0.1-0.4-0.3-0.7-0.3c-0.4,0-0.7,0.1-0.9,0.6
				C18.2,320.7,18.1,321.1,18.1,321.8L18.1,321.8z"/>
		</g>
		<rect x="0.3" y="328.3" fill="#2B2B2B" width="27.2" height="13.5"/>
		<g>
			<path fill="#FFFFFF" d="M9.8,337.1H9.3v-5.8h0.4v5.8H9.8z"/>
			<path fill="#FFFFFF" d="M10.8,335.1c0-0.6,0.1-1.1,0.6-1.5c0.4-0.4,0.8-0.6,1.3-0.6c0.6,0,0.9,0.1,1.3,0.6
				c0.4,0.4,0.6,0.8,0.6,1.5v0.1c0,0.6-0.1,1.1-0.6,1.5c-0.4,0.4-0.8,0.6-1.3,0.6c-0.6,0-0.9-0.1-1.3-0.6
				C11,336.3,10.8,335.7,10.8,335.1L10.8,335.1z M11.3,335.2c0,0.4,0.1,0.8,0.4,1.3c0.3,0.4,0.6,0.6,0.9,0.6c0.4,0,0.8-0.1,0.9-0.6
				c0.3-0.3,0.4-0.7,0.4-1.3v-0.1c0-0.4-0.1-0.8-0.4-1.3c-0.3-0.3-0.6-0.6-0.9-0.6c-0.4,0-0.8,0.1-0.9,0.6
				C11.6,334.3,11.3,334.7,11.3,335.2L11.3,335.2z"/>
			<path fill="#FFFFFF" d="M15.2,335.2c0-0.7,0.1-1.3,0.4-1.5c0.3-0.4,0.7-0.6,1.3-0.6c0.3,0,0.6,0,0.8,0.1s0.4,0.3,0.6,0.6V333h0.4
				v4.1c0,0.6-0.1,0.9-0.4,1.3c-0.3,0.3-0.7,0.4-1.3,0.4c-0.1,0-0.4,0-0.7-0.1c-0.3,0-0.4-0.1-0.6-0.1l0.1-0.4
				c0.1,0.1,0.3,0.1,0.6,0.1c0.1,0,0.4,0,0.6,0c0.4,0,0.7-0.1,0.9-0.4c0.1-0.3,0.3-0.6,0.3-0.9v-0.6c-0.1,0.3-0.3,0.4-0.6,0.6
				c-0.3,0.1-0.4,0.1-0.7,0.1c-0.6,0-0.8-0.1-1.1-0.6C15.3,336.3,15.2,335.9,15.2,335.2L15.2,335.2z M15.6,335.2
				c0,0.6,0.1,0.8,0.3,1.3c0.1,0.3,0.6,0.4,0.9,0.4c0.3,0,0.6,0,0.7-0.1s0.4-0.3,0.4-0.6v-1.9c-0.1-0.3-0.3-0.4-0.4-0.6
				c-0.1-0.1-0.4-0.3-0.7-0.3c-0.4,0-0.7,0.1-0.9,0.6C15.6,334.4,15.6,334.7,15.6,335.2L15.6,335.2z"/>
		</g>
		<rect x="0.3" y="341.7" fill="#2B2B2B" width="27.2" height="13.5"/>
		<g>
			<g>
				<path fill="#FFFFFF" d="M14,350.6c-0.6,0-0.9-0.1-1.3-0.6c-0.3-0.4-0.6-0.8-0.6-1.5v-0.3c0-0.6,0.1-1.1,0.6-1.5s0.7-0.6,1.3-0.6
					s0.9,0.1,1.3,0.4s0.4,0.7,0.4,1.3v0.4h-3v0.1c0,0.4,0.1,0.8,0.4,1.1c0.3,0.3,0.6,0.4,0.9,0.4c0.3,0,0.6,0,0.7-0.1
					c0.1-0.1,0.4-0.1,0.6-0.3l0.1,0.3c-0.1,0.1-0.4,0.3-0.6,0.4C14.7,350.3,14.3,350.6,14,350.6z M14,346.8c-0.3,0-0.7,0.1-0.8,0.4
					c-0.3,0.3-0.4,0.6-0.4,0.9l0,0h2.4V348c0-0.4-0.1-0.7-0.3-0.9C14.6,346.9,14.3,346.8,14,346.8z"/>
			</g>
		</g>
		<rect x="0.3" y="355.2" fill="#2B2B2B" width="27.2" height="13.5"/>
		<g>
			<path fill="#FFFFFF" d="M14.7,362c0,0.6-0.1,1.1-0.4,1.5c-0.3,0.4-0.7,0.6-1.1,0.6c-0.3,0-0.6,0-0.8-0.1
				c-0.2-0.1-0.4-0.3-0.6-0.4v2.2h-0.4v-5.6h0.4v0.7c0.1-0.3,0.3-0.4,0.6-0.6c0.3-0.1,0.4-0.1,0.8-0.1c0.6,0,0.8,0.1,1.1,0.6
				C14.6,360.7,14.7,361.3,14.7,362L14.7,362z M14.3,361.8c0-0.6-0.1-0.9-0.3-1.3c-0.3-0.3-0.6-0.6-0.9-0.6c-0.3,0-0.6,0.1-0.7,0.3
				c-0.1,0.1-0.3,0.3-0.4,0.6v1.9c0.1,0.3,0.3,0.4,0.4,0.6c0.1,0.1,0.4,0.1,0.7,0.1c0.4,0,0.7-0.1,0.9-0.4
				C14.1,362.8,14.3,362.5,14.3,361.8L14.3,361.8z"/>
			<path fill="#FFFFFF" d="M16.3,358.7h-0.4V358h0.4V358.7z M16.3,363.9h-0.4v-4.1h0.4V363.9z"/>
		</g>
	</g>
	<g id="soustavy">
		<g>
			<path fill="#EF4323" d="M8.6,253.6v-4.6h1.3c0.6,0,0.8,0.1,1.1,0.3c0.3,0.1,0.4,0.5,0.4,0.9c0,0.3,0,0.4-0.1,0.7
				c-0.1,0.3-0.3,0.3-0.6,0.5c0.3,0,0.6,0.1,0.7,0.5c0.1,0.3,0.3,0.4,0.3,0.7c0,0.4-0.1,0.7-0.4,0.9c-0.3,0.3-0.7,0.3-1.1,0.3H8.5
				C8.5,253.7,8.5,253.6,8.6,253.6z M8.9,251H10c0.3,0,0.6-0.1,0.8-0.3c0.1-0.1,0.3-0.5,0.3-0.7s-0.1-0.5-0.3-0.7
				c-0.1-0.1-0.4-0.3-0.8-0.3H8.9V251z M8.9,251.4v1.9h1.3c0.3,0,0.6-0.2,0.8-0.3c0.1-0.2,0.3-0.5,0.3-0.7s-0.1-0.5-0.3-0.7
				c-0.1-0.1-0.4-0.3-0.8-0.3L8.9,251.4L8.9,251.4z"/>
			<path fill="#EF4323" d="M13.1,253.6h-0.4v-4.6h0.4V253.6z"/>
			<path fill="#EF4323" d="M17.7,253.6h-0.4l-2.6-3.9l0,0v3.9h-0.4v-4.6h0.4l2.6,3.9l0,0v-3.9h0.4V253.6z"/>
			<path d="M28.2,253.6h-0.4v-4.2l-1.3,0.1v-0.2l1.5-0.3v4.6H28.2L28.2,253.6z"/>
			<path d="M33,251.8c0,0.5-0.1,1-0.4,1.3c-0.3,0.3-0.7,0.6-1.1,0.6s-0.8-0.2-1.1-0.6c-0.3-0.3-0.4-0.8-0.4-1.3v-1
				c0-0.6,0.1-1.1,0.4-1.4s0.7-0.5,1.1-0.5s0.8,0.1,1.1,0.5c0.3,0.5,0.4,0.8,0.4,1.4V251.8z M32.7,250.8c0-0.5-0.1-0.8-0.3-1.1
				c-0.2-0.3-0.4-0.4-0.8-0.4c-0.4,0-0.7,0.1-0.8,0.4c-0.1,0.3-0.3,0.7-0.3,1.1v1c0,0.5,0.1,0.8,0.3,1c0.1,0.3,0.4,0.5,0.8,0.5
				c0.4,0,0.7-0.2,0.8-0.5c0.1-0.3,0.3-0.7,0.3-1V250.8z"/>
			<path d="M35.6,253.6h-0.4v-4.2l-1.3,0.1v-0.2l1.5-0.3v4.6H35.6L35.6,253.6z"/>
			<path d="M40.4,251.8c0,0.5-0.1,1-0.4,1.3c-0.3,0.3-0.7,0.6-1.1,0.6c-0.4,0-0.8-0.2-1.1-0.6c-0.3-0.3-0.4-0.8-0.4-1.3v-1
				c0-0.6,0.1-1.1,0.4-1.4c0.3-0.3,0.7-0.5,1.1-0.5c0.4,0,0.8,0.1,1.1,0.5c0.3,0.5,0.4,0.8,0.4,1.4V251.8z M40.1,250.8
				c0-0.5-0.1-0.8-0.3-1.1c-0.1-0.3-0.4-0.4-0.8-0.4c-0.4,0-0.7,0.1-0.8,0.4c-0.1,0.3-0.3,0.7-0.3,1.1v1c0,0.5,0.1,0.8,0.3,1
				s0.4,0.5,0.8,0.5s0.7-0.2,0.8-0.5c0.1-0.3,0.3-0.7,0.3-1V250.8z"/>
			<path d="M44.7,253.6h-0.4v-4.2l-1.3,0.1v-0.2l1.5-0.3v4.6H44.7L44.7,253.6z"/>
			<path d="M49.4,251.8c0,0.5-0.1,1-0.4,1.3c-0.3,0.3-0.7,0.6-1.1,0.6c-0.4,0-0.8-0.2-1.1-0.6c-0.3-0.3-0.4-0.8-0.4-1.3v-1
				c0-0.6,0.1-1.1,0.4-1.4s0.7-0.5,1.1-0.5s0.8,0.1,1.1,0.5c0.3,0.5,0.4,0.8,0.4,1.4V251.8z M48.9,250.8c0-0.5-0.1-0.8-0.3-1.1
				c-0.2-0.3-0.4-0.4-0.8-0.4c-0.4,0-0.7,0.1-0.8,0.4c-0.1,0.3-0.3,0.7-0.3,1.1v1c0,0.5,0.1,0.8,0.3,1c0.1,0.3,0.4,0.5,0.8,0.5
				c0.4,0,0.7-0.2,0.8-0.5c0.1-0.3,0.3-0.7,0.3-1V250.8z"/>
			<path d="M51.9,253.6h-0.4v-4.2l-1.3,0.1v-0.2l1.5-0.3v4.6H51.9L51.9,253.6z"/>
			<path d="M56.7,251.8c0,0.5-0.1,1-0.4,1.3c-0.3,0.3-0.7,0.6-1.1,0.6c-0.4,0-0.8-0.2-1.1-0.6c-0.3-0.3-0.4-0.8-0.4-1.3v-1
				c0-0.6,0.1-1.1,0.4-1.4s0.7-0.5,1.1-0.5c0.4,0,0.8,0.1,1.1,0.5c0.3,0.5,0.4,0.8,0.4,1.4V251.8z M56.4,250.8
				c0-0.5-0.1-0.8-0.3-1.1c-0.2-0.3-0.4-0.4-0.8-0.4c-0.4,0-0.7,0.1-0.8,0.4c-0.1,0.3-0.3,0.7-0.3,1.1v1c0,0.5,0.1,0.8,0.3,1
				c0.1,0.3,0.4,0.5,0.8,0.5c0.4,0,0.7-0.2,0.8-0.5c0.1-0.3,0.3-0.7,0.3-1V250.8z"/>
			<path d="M59.4,253.6H59v-4.2l-1.3,0.1v-0.2l1.5-0.3v4.6H59.4L59.4,253.6z"/>
			<path d="M64.1,251.8c0,0.5-0.1,1-0.5,1.3c-0.3,0.3-0.7,0.6-1,0.6c-0.3,0-0.8-0.2-1-0.6c-0.3-0.3-0.4-0.8-0.4-1.3v-1
				c0-0.6,0.1-1.1,0.5-1.4c0.3-0.3,0.7-0.5,1-0.5c0.3,0,0.8,0.1,1,0.5c0.3,0.5,0.5,0.8,0.5,1.4C64.1,250.8,64.1,251.8,64.1,251.8z
				 M63.8,250.8c0-0.5-0.1-0.8-0.3-1.1c-0.1-0.3-0.5-0.4-0.8-0.4c-0.3,0-0.7,0.1-0.8,0.4c-0.1,0.3-0.3,0.7-0.3,1.1v1
				c0,0.5,0.1,0.8,0.3,1c0.1,0.3,0.5,0.5,0.8,0.5c0.3,0,0.7-0.2,0.8-0.5c0.1-0.3,0.3-0.7,0.3-1V250.8z"/>
		</g>
		<g>
			<path opacity="0.8" fill="#ED1A46" enable-background="new    " d="M8.6,246.4v-4.6h1.3c0.6,0,1.1,0.1,1.3,0.6
				c0.4,0.4,0.6,0.8,0.6,1.5v0.6c0,0.5-0.1,1-0.6,1.5c-0.4,0.4-0.8,0.5-1.3,0.5L8.6,246.4L8.6,246.4z M8.9,242v4h0.9
				c0.4,0,0.8-0.2,1.1-0.5c0.3-0.3,0.4-0.7,0.4-1.3v-0.5c0-0.6-0.1-0.8-0.4-1.3c-0.3-0.3-0.7-0.6-1.1-0.6H8.9
				C8.9,241.9,8.9,242,8.9,242z"/>
			<path opacity="0.8" fill="#ED1A46" enable-background="new    " d="M15.3,244h-2.2v1.9h2.6v0.3h-3v-4.6h2.8v0.3h-2.4v1.8h2.2V244
				L15.3,244z"/>
			<path opacity="0.8" fill="#ED1A46" enable-background="new    " d="M19.7,244.9L19.7,244.9c0,0.5-0.1,0.8-0.6,1
				c-0.4,0.3-0.7,0.5-1.3,0.5s-0.9-0.1-1.3-0.6c-0.3-0.4-0.4-0.8-0.4-1.5v-0.6c0-0.5,0.1-1,0.4-1.5s0.7-0.5,1.3-0.5s0.8,0.1,1.3,0.4
				c0.3,0.3,0.4,0.7,0.6,1.1l0,0h-0.4c0-0.5-0.1-0.7-0.4-0.8s-0.6-0.3-0.9-0.3c-0.4,0-0.7,0.2-0.9,0.4c-0.3,0.3-0.4,0.7-0.4,1.3v0.8
				c0,0.6,0.1,0.9,0.4,1.3c0.3,0.3,0.6,0.4,0.9,0.4c0.4,0,0.7-0.1,0.9-0.3c0.3-0.1,0.4-0.5,0.4-0.9L19.7,244.9L19.7,244.9z"/>
			<path d="M28.5,246.4h-0.4v-4.2l-1.3,0.1V242l1.5-0.3v4.6L28.5,246.4L28.5,246.4z"/>
			<path d="M33.3,244.7c0,0.5-0.1,1-0.4,1.3c-0.3,0.3-0.7,0.6-1.1,0.6s-0.8-0.1-1.1-0.6c-0.3-0.3-0.4-0.8-0.4-1.3v-1.1
				c0-0.6,0.1-1.1,0.4-1.3c0.3-0.3,0.7-0.5,1.1-0.5s0.8,0.1,1.1,0.5c0.3,0.5,0.4,0.8,0.4,1.3V244.7z M32.8,243.5
				c0-0.4-0.1-0.8-0.3-1c-0.1-0.3-0.4-0.5-0.8-0.5c-0.4,0-0.7,0.2-0.8,0.5c-0.1,0.3-0.3,0.7-0.3,1v1.1c0,0.4,0.1,0.8,0.3,1.1
				c0.1,0.3,0.4,0.4,0.8,0.4s0.7-0.1,0.8-0.4c0.1-0.3,0.3-0.7,0.3-1.1V243.5z"/>
			<path d="M34.8,243.8h0.4c0.3,0,0.6-0.1,0.8-0.3c0.3-0.1,0.3-0.4,0.3-0.7s-0.1-0.6-0.3-0.7c-0.1-0.2-0.4-0.3-0.7-0.3
				c-0.3,0-0.6,0.1-0.7,0.3c-0.1,0.1-0.3,0.4-0.3,0.7H34l0,0c0-0.4,0.1-0.7,0.4-0.9c0.3-0.3,0.6-0.5,0.9-0.5c0.4,0,0.7,0.1,0.9,0.3
				c0.3,0.1,0.4,0.5,0.4,1c0,0.3,0,0.4-0.1,0.5c-0.1,0.1-0.3,0.3-0.6,0.5c0.3,0.1,0.6,0.3,0.7,0.4c0.1,0.1,0.3,0.4,0.3,0.7
				c0,0.5-0.1,0.7-0.4,1c-0.3,0.3-0.6,0.5-0.9,0.5c-0.4,0-0.7-0.2-1.1-0.5c-0.4-0.3-0.4-0.5-0.4-1l0,0h0.4c0,0.3,0.1,0.6,0.3,0.7
				c0.1,0.1,0.4,0.3,0.8,0.3c0.3,0,0.6-0.2,0.8-0.3c0.3-0.2,0.3-0.5,0.3-0.7c0-0.2-0.1-0.5-0.3-0.7c-0.1-0.1-0.4-0.3-0.8-0.3h-0.4
				l0,0H34.8L34.8,243.8L34.8,243.8z"/>
		</g>
		<g>
			<path fill="#EF4323" d="M11.9,265.3c0,0.6-0.1,1.1-0.6,1.5c-0.3,0.4-0.8,0.6-1.3,0.6s-0.9-0.2-1.3-0.6c-0.3-0.4-0.4-0.9-0.4-1.5
				v-0.7c0-0.6,0.1-1.1,0.6-1.5c0.3-0.4,0.8-0.6,1.3-0.6c0.6,0,0.9,0.1,1.3,0.6c0.3,0.4,0.6,0.8,0.6,1.5v0.7H11.9z M11.6,264.6
				c0-0.6-0.1-0.9-0.4-1.3c-0.3-0.3-0.6-0.4-1.1-0.4c-0.4,0-0.8,0.2-1.1,0.4c-0.3,0.3-0.4,0.7-0.4,1.3v0.8c0,0.6,0.1,0.9,0.4,1.3
				c0.3,0.3,0.6,0.4,1.1,0.4c0.4,0,0.8-0.1,1.1-0.4s0.4-0.7,0.4-1.3V264.6z"/>
			<path fill="#EF4323" d="M16.1,265.8L16.1,265.8c0,0.6-0.1,0.8-0.6,1.1c-0.4,0.3-0.7,0.4-1.3,0.4s-0.9-0.1-1.3-0.6
				c-0.3-0.4-0.4-0.8-0.4-1.5v-0.7c0-0.6,0.1-1.1,0.4-1.5c0.3-0.4,0.7-0.6,1.3-0.6s0.8,0.2,1.3,0.4c0.3,0.3,0.4,0.7,0.6,1.1l0,0
				h-0.4c0-0.4-0.1-0.7-0.4-0.8s-0.6-0.3-0.9-0.3c-0.4,0-0.7,0.2-0.9,0.4c-0.3,0.3-0.4,0.7-0.4,1.3v0.8c0,0.6,0.1,0.9,0.4,1.3
				c0.3,0.3,0.6,0.4,0.9,0.4c0.4,0,0.7-0.1,0.9-0.3c0.3-0.1,0.4-0.6,0.4-0.9L16.1,265.8L16.1,265.8z"/>
			<path fill="#EF4323" d="M20.1,263h-1.6v4.2h-0.4V263h-1.5v-0.3h3.6C20.1,262.8,20.1,263,20.1,263z"/>
			<path d="M29.2,265.6h0.7v0.3h-0.7v1.3h-0.4v-1.3h-2.2v-0.3l2.2-3.3h0.4V265.6z M27.1,265.6h1.6V263l0,0l-0.1,0.4L27.1,265.6z"/>
			<path d="M33.3,265.4c0,0.6-0.1,1.1-0.4,1.4c-0.3,0.3-0.7,0.6-1.1,0.6c-0.3,0-0.8-0.2-1.1-0.6c-0.3-0.3-0.4-0.8-0.4-1.4v-1.1
				c0-0.6,0.1-1.1,0.4-1.3c0.3-0.3,0.7-0.6,1.1-0.6c0.3,0,0.8,0.1,1.1,0.6c0.3,0.4,0.4,0.8,0.4,1.3V265.4z M33,264.3
				c0-0.4-0.1-0.8-0.3-1.1c-0.1-0.3-0.4-0.4-0.8-0.4c-0.4,0-0.7,0.1-0.8,0.4c-0.1,0.3-0.3,0.7-0.3,1.1v1.1c0,0.4,0.1,0.8,0.3,1.1
				c0.1,0.3,0.4,0.4,0.8,0.4s0.7-0.1,0.8-0.4c0.1-0.3,0.3-0.7,0.3-1.1V264.3z"/>
			<path d="M35,264.8h0.6c0.3,0,0.6-0.1,0.8-0.3c0.3-0.2,0.3-0.4,0.3-0.7s-0.1-0.6-0.3-0.7c-0.1-0.2-0.4-0.3-0.7-0.3
				c-0.3,0-0.6,0.1-0.7,0.3c-0.2,0.1-0.3,0.4-0.3,0.7h-0.6l0,0c0-0.4,0.1-0.7,0.4-0.9c0.3-0.3,0.6-0.4,0.9-0.4
				c0.4,0,0.7,0.1,0.9,0.3c0.3,0.1,0.4,0.6,0.4,0.9c0,0.3,0,0.4-0.1,0.6c-0.1,0.1-0.3,0.3-0.6,0.4c0.3,0.1,0.6,0.3,0.7,0.4
				s0.3,0.4,0.3,0.7c0,0.4-0.1,0.7-0.4,0.9c-0.3,0.3-0.6,0.4-0.9,0.4c-0.4,0-0.7-0.2-1.1-0.4c-0.4-0.3-0.4-0.6-0.4-0.9l0,0h0.4
				c0,0.3,0.1,0.6,0.3,0.7c0.2,0.1,0.4,0.3,0.8,0.3c0.3,0,0.6-0.2,0.8-0.3c0.3-0.1,0.3-0.4,0.3-0.7c0-0.3-0.1-0.6-0.3-0.7
				c-0.1-0.1-0.4-0.3-0.8-0.3h-0.4l0,0H35L35,264.8z"/>
		</g>
		<g>
			<path fill="#EF4323" d="M11.9,260.3h-0.4v-2.2H8.9v2.2H8.5v-4.6h0.4v2.2h2.6v-2.2h0.4V260.3z"/>
			<path fill="#EF4323" d="M15.8,258.3h-2.3v1.8H16v0.3h-2.8v-4.6H16v0.3h-2.6v1.8h2.2v0.4H15.8L15.8,258.3z"/>
			<path fill="#EF4323" d="M18.2,257.8l1.3-1.9h0.4l-1.5,2.2l1.6,2.3h-0.4l-1.3-2.1l-1.3,2.1h-0.4l1.6-2.3l-1.5-2.3h0.5L18.2,257.8z
				"/>
			<path d="M29.2,258.8h0.7v0.3h-0.7v1.3h-0.4v-1.3h-2.2v-0.3l2.2-3.3h0.4V258.8z M27.1,258.8h1.8v-2.6l0,0l-0.1,0.4L27.1,258.8z"/>
			<path d="M33.3,258.3h-2.2v2.2h-0.4v-4.6h3v0.3h-2.6v1.8h2.2C33.3,258,33.3,258.3,33.3,258.3z"/>
			<path d="M36.6,259.1h-2.1l-0.4,1.3h-0.4l1.8-4.6h0.4l1.8,4.6h-0.4L36.6,259.1z M34.8,258.8h1.8l-1.1-2.4l0,0L34.8,258.8z"/>
		</g>
	</g>
	<rect x="348.4" y="151.9" fill="#2B2B2B" width="152" height="216.6"/>
	<rect x="347.4" y="151.9" fill="#C1C1C0" width="153" height="36.8"/>
	<g>
		<g>
			<path d="M363.4,178.9h-6.8l-1.5,4h-1.2l5.5-14.6h1L366,183h-1.3L363.4,178.9z M357.2,177.8h6l-3-8l0,0L357.2,177.8z"/>
			<path d="M369.3,172.1l0.1,1.8c0.5-0.7,0.8-1.3,1.4-1.5c0.6-0.4,1.4-0.5,2.2-0.5c1.3,0,2.1,0.4,2.8,1c0.7,0.6,1,1.9,1,3.4v6.7
				h-1.4v-6.7c0-1.3-0.3-2.2-0.7-2.8c-0.4-0.5-1-0.8-2-0.8c-0.8,0-1.5,0.3-2,0.7c-0.6,0.5-1,1-1.3,1.8v7.6h-1.3V172h1.2L369.3,172.1
				L369.3,172.1z"/>
			<path d="M386.4,180.3c0-0.6-0.3-1-0.7-1.4c-0.5-0.5-1.3-0.7-2.3-1c-1.4-0.3-2.3-0.7-2.9-1c-0.7-0.5-1-1-1-1.9
				c0-0.8,0.5-1.5,1.1-2.2c0.7-0.6,1.6-0.8,2.9-0.8c1.3,0,2.2,0.3,3,1c0.7,0.5,1,1.3,1,2.3l0,0h-1c0-0.5-0.3-1-0.8-1.6
				c-0.5-0.4-1.3-0.7-2-0.7c-0.7,0-1.5,0.1-2,0.5c-0.5,0.5-0.7,0.8-0.7,1.4s0.2,1,0.6,1.3c0.5,0.3,1,0.7,2.3,0.8
				c1.4,0.3,2.3,0.7,2.9,1.3c0.5,0.6,1,1.3,1,2.1c0,0.9-0.5,1.6-1,2.2c-0.7,0.6-1.8,0.8-3,0.8c-1.4,0-2.3-0.3-3.1-1
				c-0.8-0.7-1.1-1.4-1.1-2.3l0,0h1.1c0,0.8,0.4,1.3,0.9,1.8c0.6,0.4,1.4,0.5,2.1,0.5c0.8,0,1.6-0.1,2-0.5
				C386.1,181.3,386.4,180.8,386.4,180.3z"/>
		</g>
	</g>
	<g>
		<path fill="#FFFFFF" d="M355.3,158.8h0.6c0.4,0,0.8-0.1,0.9-0.3c0.3-0.3,0.3-0.5,0.3-0.8c0-0.5-0.1-0.7-0.3-0.8
			c-0.3-0.3-0.6-0.3-0.9-0.3c-0.5,0-0.7,0.1-1,0.3c-0.3,0.3-0.5,0.5-0.5,0.8H354l0,0c0-0.5,0.1-0.8,0.6-1c0.4-0.3,0.8-0.5,1.3-0.5
			s0.9,0.1,1.3,0.5c0.3,0.3,0.4,0.7,0.4,1.3c0,0.3-0.1,0.5-0.3,0.8c-0.1,0.3-0.4,0.5-0.7,0.5c0.4,0.1,0.7,0.3,0.8,0.5
			c0.1,0.3,0.3,0.5,0.3,1s-0.1,1-0.5,1.3c-0.3,0.3-0.8,0.5-1.4,0.5c-0.5,0-0.9-0.1-1.3-0.5c-0.5-0.3-0.6-0.7-0.6-1.3l0,0h0.4
			c0,0.5,0.1,0.7,0.5,1c0.3,0.3,0.5,0.5,1,0.5c0.4,0,0.7-0.1,0.9-0.3c0.3-0.1,0.4-0.5,0.4-1s-0.1-0.7-0.4-1
			c-0.3-0.1-0.6-0.3-1.1-0.3h-0.2L355.3,158.8L355.3,158.8z"/>
		<path fill="#FFFFFF" d="M359.6,158l-1.4-0.5l0.2-0.5l1.3,0.6v-1.5h0.5v1.5l1.4-0.5l0.1,0.5l-1.4,0.5l0.9,1.3l-0.4,0.3l-0.8-1.3
			l-0.8,1.3l-0.5-0.3L359.6,158z"/>
		<path fill="#FFFFFF" d="M362.4,159.8c0-1,0.1-1.8,0.5-2.5c0.5-0.8,0.8-1.3,1.3-1.6l0,0l0.1,0.3c-0.4,0.3-0.7,0.8-1.1,1.5
			c-0.3,0.7-0.4,1.5-0.4,2.5v0.1c0,1,0.1,1.6,0.4,2.5c0.3,0.7,0.7,1.3,1.1,1.5l-0.1,0.3l0,0c-0.5-0.3-1-0.8-1.3-1.5
			C362.4,161.6,362.4,160.7,362.4,159.8L362.4,159.8z"/>
		<path fill="#FFFFFF" d="M366,158.8h0.6c0.4,0,0.8-0.1,0.9-0.3c0.3-0.3,0.3-0.5,0.3-0.8c0-0.5-0.1-0.7-0.3-0.8
			c-0.3-0.3-0.6-0.3-0.9-0.3c-0.5,0-0.7,0.1-1,0.3c-0.3,0.3-0.5,0.5-0.5,0.8h-0.4l0,0c0-0.5,0.1-0.8,0.6-1c0.4-0.3,0.8-0.5,1.3-0.5
			c0.5,0,0.9,0.1,1.3,0.5c0.3,0.3,0.4,0.7,0.4,1.3c0,0.3-0.1,0.5-0.3,0.8c-0.2,0.3-0.4,0.5-0.7,0.5c0.4,0.1,0.7,0.3,0.8,0.5
			c0.1,0.3,0.3,0.5,0.3,1s-0.1,1-0.5,1.3c-0.3,0.3-0.8,0.5-1.4,0.5c-0.5,0-0.9-0.1-1.3-0.5c-0.5-0.3-0.6-0.7-0.6-1.3l0,0h0.4
			c0,0.5,0.2,0.7,0.5,1c0.3,0.3,0.5,0.5,1,0.5c0.4,0,0.7-0.1,0.9-0.3c0.3-0.1,0.4-0.5,0.4-1s-0.1-0.7-0.4-1
			c-0.3-0.1-0.6-0.3-1.1-0.3h-0.5v-0.8h0.4L366,158.8L366,158.8z"/>
		<path fill="#FFFFFF" d="M372.4,160.1h1v0.5h-1v1.5h-0.5v-1.5h-2.8v-0.3l2.8-4.1h0.5V160.1z M369.9,160.1h2.2v-3.4l0,0l-0.3,0.5
			L369.9,160.1z"/>
		<path fill="#FFFFFF" d="M375.2,158.8h0.5c0.5,0,0.8-0.1,1-0.3c0.1-0.1,0.3-0.5,0.3-0.8c0-0.5-0.2-0.7-0.3-0.8
			c-0.3-0.3-0.6-0.3-1-0.3c-0.5,0-0.7,0.1-1,0.3c-0.3,0.3-0.4,0.5-0.4,0.8h-0.4l0,0c0-0.5,0.1-0.8,0.5-1c0.3-0.3,0.8-0.5,1.3-0.5
			c0.6,0,1,0.1,1.3,0.5c0.3,0.3,0.5,0.7,0.5,1.3c0,0.3-0.1,0.5-0.3,0.8c-0.1,0.3-0.5,0.5-0.7,0.5c0.5,0.1,0.7,0.3,0.8,0.5
			c0.1,0.3,0.3,0.5,0.3,1s-0.1,1-0.6,1.3c-0.4,0.3-0.8,0.5-1.3,0.5c-0.6,0-1-0.1-1.4-0.5c-0.4-0.3-0.5-0.7-0.5-1.3l0,0h0.5
			c0,0.5,0.1,0.7,0.4,1c0.3,0.3,0.6,0.5,0.9,0.5c0.4,0,0.7-0.1,1-0.3s0.5-0.5,0.5-1s-0.1-0.7-0.5-1c-0.3-0.1-0.5-0.3-1-0.3h-0.6
			v-0.8h0.3L375.2,158.8L375.2,158.8z"/>
		<path fill="#FFFFFF" d="M380.3,159.8c0,1-0.1,1.9-0.5,2.5c-0.5,0.8-0.8,1.3-1.3,1.5l0,0l-0.2-0.3c0.5-0.3,0.7-0.8,1.1-1.5
			c0.3-0.7,0.4-1.5,0.4-2.5l0,0c0-0.9-0.1-1.6-0.4-2.4c-0.3-0.8-0.7-1.3-0.9-1.5l0.1-0.3l0,0c0.5,0.3,0.8,0.8,1.3,1.6
			C380.1,157.8,380.3,158.6,380.3,159.8L380.3,159.8z"/>
		<path fill="#FFFFFF" d="M383.4,159.1h1.8v0.4h-1.8v1.9h-0.6v-1.9h-1.6V159h1.8v-1.8h0.5L383.4,159.1L383.4,159.1L383.4,159.1z"/>
		<path fill="#FFFFFF" d="M389,160.1h1v0.5h-1v1.5h-0.5v-1.5h-2.8v-0.3l2.8-4.1h0.5V160.1z M386.4,160.1h2.2v-3.4l0,0l-0.3,0.5
			L386.4,160.1z"/>
		<path fill="#FFFFFF" d="M393.8,160.1h1v0.5h-1v1.5h-0.5v-1.5h-2.8v-0.3l2.8-4.1h0.5V160.1z M391,160.1h2.2v-3.4l0,0l-0.3,0.5
			L391,160.1z"/>
	</g>
	<g>
		<g>
			<path fill="#FFFFFF" d="M447.2,171.7l1-9.4h8.5v1.4h-7.2l-0.7,6.1c0.5-0.4,1-0.7,1.5-0.9c0.5-0.2,1.3-0.3,2.2-0.5
				c1.5,0,2.8,0.5,3.5,1.5c1,1,1.4,2.3,1.4,4.1c0,1.8-0.5,3.1-1.4,4.2c-0.8,1-2.2,1.5-4,1.5c-1.4,0-2.5-0.5-3.5-1.3
				c-1-0.8-1.4-1.9-1.4-3.5v-0.1h1.3c0,1.3,0.3,2,1,2.8c0.7,0.8,1.5,1,2.5,1c1.3,0,2.2-0.5,2.9-1.3c0.7-0.8,1-1.9,1-3.3
				c0-1.3-0.3-2.3-1-3.1c-0.7-0.8-1.5-1.3-2.8-1.3c-1,0-1.9,0.1-2.5,0.5c-0.7,0.5-1,0.8-1.3,1.6H447.2L447.2,171.7z"/>
			<path fill="#FFFFFF" d="M468.8,174h2.8v1h-2.8v4.3h-1.4v-4.4h-8v-0.8l7.9-12.2h1.5V174z M461,174h6.4v-9.8h-0.1l-0.5,1.3L461,174
				z"/>
			<path fill="#FFFFFF" d="M475.1,179.3l-1.3,3.3h-1l0.8-3.3v-2h1.4L475.1,179.3L475.1,179.3z"/>
			<path fill="#FFFFFF" d="M486.9,174h2.8v1h-2.8v4.3h-1.4v-4.4h-8v-0.8l7.9-12.1h1.5V174z M479,174h6.4v-9.8h-0.1l-0.5,1.3L479,174
				z"/>
		</g>
	</g>
	<rect x="347.4" y="188.8" fill="#2B2B2B" width="147.6" height="37"/>
	<g>
		<path fill="#ED1A46" d="M355.5,219.9v-14.7h4.2c1.8,0,3.3,0.5,4.5,1.8c1.3,1.3,1.8,2.8,1.8,4.6v1.8c0,1.8-0.5,3.3-1.8,4.6
			s-2.8,1.8-4.5,1.8h-4.2V219.9z M356.8,206.2v12.6h3.1c1.5,0,2.8-0.5,3.5-1.5c1-0.9,1.4-2.3,1.4-3.8v-1.8c0-1.5-0.5-2.9-1.4-3.8
			c-0.9-0.9-2.2-1.5-3.5-1.5h-3.1V206.2z"/>
		<path fill="#ED1A46" d="M377.5,213h-7.2v6.9h-1.3v-14.7h9.4v1h-8.2v5.7h7.2L377.5,213L377.5,213z"/>
	</g>
	<g>
		<path fill="#FFFFFF" d="M355.3,195.9h0.6c0.4,0,0.8-0.1,0.9-0.3c0.3-0.3,0.3-0.6,0.3-0.8c0-0.5-0.1-0.7-0.3-0.8
			c-0.3-0.3-0.6-0.3-0.9-0.3c-0.5,0-0.7,0.1-1,0.3c-0.3,0.3-0.5,0.5-0.5,0.8H354l0,0c0-0.5,0.1-0.8,0.6-1c0.4-0.3,0.8-0.5,1.3-0.5
			s0.9,0.1,1.3,0.5c0.3,0.3,0.4,0.7,0.4,1.2c0,0.3-0.1,0.6-0.3,0.8s-0.4,0.4-0.7,0.6c0.4,0.1,0.7,0.3,0.8,0.5c0.1,0.3,0.3,0.6,0.3,1
			c0,0.5-0.1,0.9-0.5,1.3c-0.3,0.3-0.8,0.4-1.4,0.4c-0.5,0-0.9-0.1-1.3-0.4c-0.5-0.3-0.6-0.7-0.6-1.3l0,0h0.4c0,0.4,0.1,0.7,0.5,0.9
			c0.3,0.3,0.5,0.4,1,0.4c0.4,0,0.7-0.1,0.9-0.3c0.3-0.1,0.4-0.5,0.4-0.9s-0.1-0.7-0.4-0.9c-0.3-0.1-0.6-0.3-1.1-0.3h-0.2
			L355.3,195.9L355.3,195.9z"/>
		<path fill="#FFFFFF" d="M359.6,195.1l-1.4-0.4l0.2-0.5l1.3,0.5v-1.5h0.5v1.5l1.4-0.5l0.1,0.5l-1.4,0.5l0.9,1.3l-0.4,0.3l-0.8-1.3
			l-0.8,1.3l-0.5-0.3L359.6,195.1z"/>
		<path fill="#FFFFFF" d="M362.4,196.7c0-0.9,0.1-1.8,0.5-2.5c0.5-0.8,0.8-1.3,1.3-1.6l0,0l0.1,0.3c-0.4,0.3-0.7,0.8-1.1,1.5
			c-0.3,0.7-0.4,1.5-0.4,2.5v0.1c0,0.9,0.1,1.6,0.4,2.4c0.3,0.7,0.7,1.3,1.1,1.5l-0.1,0.3l0,0c-0.5-0.3-1-0.8-1.3-1.5
			C362.4,198.7,362.4,197.8,362.4,196.7L362.4,196.7z"/>
		<path fill="#FFFFFF" d="M366,195.9h0.6c0.4,0,0.8-0.1,0.9-0.3c0.3-0.3,0.3-0.6,0.3-0.8c0-0.5-0.1-0.7-0.3-0.8
			c-0.3-0.3-0.6-0.3-0.9-0.3c-0.5,0-0.7,0.1-1,0.3c-0.3,0.3-0.5,0.5-0.5,0.8h-0.4l0,0c0-0.5,0.1-0.8,0.6-1c0.4-0.3,0.8-0.5,1.3-0.5
			c0.5,0,0.9,0.1,1.3,0.5c0.3,0.3,0.4,0.7,0.4,1.2c0,0.3-0.1,0.6-0.3,0.8s-0.4,0.4-0.7,0.6c0.4,0.1,0.7,0.3,0.8,0.5
			c0.1,0.3,0.3,0.6,0.3,1c0,0.5-0.1,0.9-0.5,1.3c-0.3,0.3-0.8,0.4-1.4,0.4c-0.5,0-0.9-0.1-1.3-0.4c-0.5-0.3-0.6-0.7-0.6-1.3l0,0h0.4
			c0,0.4,0.2,0.7,0.5,0.9c0.3,0.3,0.5,0.4,1,0.4c0.4,0,0.7-0.1,0.9-0.3c0.3-0.1,0.4-0.5,0.4-0.9s-0.1-0.7-0.4-0.9
			c-0.3-0.1-0.6-0.3-1.1-0.3h-0.5V196h0.4L366,195.9L366,195.9z"/>
		<path fill="#FFFFFF" d="M372.4,197.2h1v0.5h-1v1.5h-0.5v-1.5h-2.8v-0.3l2.8-4.1h0.5V197.2z M369.9,197.2h2.2v-3.4l0,0l-0.3,0.4
			L369.9,197.2z"/>
		<path fill="#FFFFFF" d="M375.2,195.9h0.5c0.5,0,0.8-0.1,1-0.3c0.1-0.1,0.3-0.6,0.3-0.8c0-0.5-0.2-0.7-0.3-0.8
			c-0.3-0.3-0.6-0.3-1-0.3c-0.5,0-0.7,0.1-1,0.3c-0.3,0.3-0.4,0.5-0.4,0.8h-0.4l0,0c0-0.5,0.1-0.8,0.5-1c0.3-0.3,0.8-0.5,1.3-0.5
			c0.6,0,1,0.1,1.3,0.5c0.3,0.3,0.5,0.7,0.5,1.2c0,0.3-0.1,0.6-0.3,0.8c-0.2,0.2-0.5,0.4-0.7,0.6c0.5,0.1,0.7,0.3,0.8,0.5
			c0.1,0.3,0.3,0.6,0.3,1c0,0.5-0.1,0.9-0.6,1.3c-0.4,0.3-0.8,0.4-1.3,0.4c-0.6,0-1-0.1-1.4-0.4c-0.4-0.3-0.5-0.7-0.5-1.3l0,0h0.5
			c0,0.4,0.1,0.7,0.4,0.9c0.3,0.3,0.6,0.4,0.9,0.4c0.4,0,0.7-0.1,1-0.3c0.3-0.1,0.5-0.5,0.5-0.9s-0.1-0.7-0.5-0.9
			c-0.3-0.1-0.5-0.3-1-0.3h-0.6V196h0.3L375.2,195.9L375.2,195.9z"/>
		<path fill="#FFFFFF" d="M380.3,196.8c0,1-0.1,1.9-0.5,2.6c-0.5,0.8-0.8,1.3-1.3,1.5l0,0l-0.1-0.3c0.4-0.3,0.7-0.8,1.1-1.5
			c0.3-0.7,0.4-1.5,0.4-2.4v-0.1c0-0.9-0.1-1.6-0.4-2.4c-0.3-0.8-0.7-1.3-1-1.5l0.1-0.3l0,0c0.4,0.3,0.8,0.8,1.3,1.6
			C380.1,194.7,380.3,195.7,380.3,196.8L380.3,196.8z"/>
		<path fill="#FFFFFF" d="M383.4,196.2h1.8v0.4h-1.8v1.8h-0.6v-1.8h-1.6v-0.4h1.8v-1.9h0.5L383.4,196.2L383.4,196.2L383.4,196.2z"/>
		<path fill="#FFFFFF" d="M389,197.2h1v0.5h-1v1.5h-0.5v-1.5h-2.8v-0.3l2.8-4.1h0.5V197.2z M386.4,197.2h2.2v-3.4l0,0l-0.3,0.4
			L386.4,197.2z"/>
		<path fill="#FFFFFF" d="M393.8,197.2h1v0.5h-1v1.5h-0.5v-1.5h-2.8v-0.3l2.8-4.1h0.5V197.2z M391,197.2h2.2v-3.4l0,0l-0.3,0.4
			L391,197.2z"/>
	</g>
	<g>
		<g>
			<path fill="#FFFFFF" d="M447.2,208.7l1-9.4h8.5v1.4h-7.2l-0.7,6.1c0.5-0.5,1-0.7,1.5-1c0.5-0.3,1.3-0.3,2.2-0.4
				c1.5,0,2.8,0.4,3.5,1.5c1,0.9,1.4,2.3,1.4,4.1s-0.5,3.1-1.4,4.2c-0.8,1.1-2.2,1.5-4,1.5c-1.4,0-2.5-0.4-3.5-1.3
				c-1-0.8-1.4-1.8-1.4-3.6v-0.1h1.3c0,1.3,0.3,2.1,1,2.8c0.7,0.7,1.5,1,2.5,1c1.3,0,2.2-0.5,2.9-1.3s1-1.9,1-3.4
				c0-1.3-0.3-2.3-1-3.1c-0.7-0.8-1.5-1.3-2.8-1.3c-1,0-1.9,0.1-2.5,0.6c-0.7,0.4-1,0.8-1.3,1.6L447.2,208.7z"/>
			<path fill="#FFFFFF" d="M468.8,210.8h2.8v1.3h-2.8v4.4h-1.4v-4.4h-8v-0.8l7.9-12.1h1.5V210.8z M461,210.8h6.4V201h-0.1l-0.5,1.3
				L461,210.8z"/>
			<path fill="#FFFFFF" d="M475.1,216.2l-1.3,3.3h-1l0.8-3.3v-2.1h1.4L475.1,216.2L475.1,216.2z"/>
			<path fill="#FFFFFF" d="M486.9,210.8h2.8v1.3h-2.8v4.4h-1.4v-4.4h-8v-0.8l7.9-12.1h1.5V210.8z M479,210.8h6.4V201h-0.1l-0.5,1.3
				L479,210.8z"/>
		</g>
	</g>
	<rect x="347.2" y="224.8" fill="#2B2B2B" width="147.6" height="37"/>
	<g>
		<path fill="#ED1A46" d="M359.9,247.5l4.2-6.3h1.5l-4.9,7.2l5.1,7.5h-1.5l-4.4-6.5l-4.4,6.5H354l5.1-7.5l-4.9-7.2h1.5L359.9,247.5z
			"/>
		<path fill="#ED1A46" d="M372.5,249.4l4.6-8.2h1.4l-5.3,9.3v5.4h-1.3v-5.4l-5.3-9.3h1.4L372.5,249.4z"/>
	</g>
	<g>
		<path fill="#FFFFFF" d="M355.3,231.8h0.6c0.4,0,0.8-0.1,0.9-0.3c0.3-0.3,0.3-0.5,0.3-0.8c0-0.5-0.1-0.7-0.3-0.8
			c-0.3-0.3-0.6-0.3-0.9-0.3c-0.5,0-0.7,0.1-1,0.3c-0.3,0.3-0.5,0.5-0.5,0.8H354l0,0c0-0.5,0.1-0.8,0.6-1c0.4-0.3,0.8-0.5,1.3-0.5
			s0.9,0.2,1.3,0.5c0.3,0.3,0.4,0.7,0.4,1.3c0,0.3-0.1,0.5-0.3,0.8c-0.1,0.3-0.4,0.5-0.7,0.5c0.4,0.1,0.7,0.3,0.8,0.6
			c0.1,0.3,0.3,0.6,0.3,0.9c0,0.6-0.1,1-0.5,1.3c-0.3,0.3-0.8,0.5-1.4,0.5c-0.5,0-0.9-0.1-1.3-0.5c-0.5-0.3-0.6-0.7-0.6-1.3l0,0h0.4
			c0,0.5,0.1,0.7,0.5,1c0.3,0.3,0.5,0.5,1,0.5c0.4,0,0.7-0.2,0.9-0.3c0.3-0.2,0.4-0.6,0.4-1c0-0.5-0.1-0.7-0.4-1
			c-0.3-0.1-0.6-0.3-1.1-0.3h-0.2L355.3,231.8L355.3,231.8z"/>
		<path fill="#FFFFFF" d="M359.6,231l-1.4-0.4l0.2-0.4l1.3,0.5v-1.5h0.5v1.4l1.4-0.5l0.1,0.4l-1.4,0.4l0.9,1.3l-0.4,0.3l-0.8-1.3
			l-0.8,1.3l-0.5-0.3L359.6,231z"/>
		<path fill="#FFFFFF" d="M362.4,232.7c0-1,0.1-1.8,0.5-2.5c0.5-0.8,0.8-1.4,1.3-1.6l0,0l0.1,0.3c-0.4,0.3-0.7,0.8-1.1,1.5
			c-0.3,0.7-0.4,1.5-0.4,2.5v0.1c0,0.9,0.1,1.6,0.4,2.4c0.3,0.7,0.7,1.3,1.1,1.5l-0.1,0.3l0,0c-0.5-0.3-1-0.8-1.3-1.5
			C362.4,234.7,362.4,233.7,362.4,232.7L362.4,232.7z"/>
		<path fill="#FFFFFF" d="M365.9,231.8h0.5c0.5,0,0.8-0.1,1-0.3c0.3-0.3,0.3-0.5,0.3-0.8c0-0.5-0.2-0.7-0.3-0.8
			c-0.3-0.3-0.6-0.3-1-0.3c-0.4,0-0.7,0.1-1,0.3c-0.3,0.3-0.4,0.5-0.4,0.8h-0.3l0,0c0-0.5,0.1-0.8,0.6-1c0.4-0.3,0.8-0.5,1.3-0.5
			c0.5,0,0.9,0.2,1.3,0.5c0.3,0.3,0.4,0.7,0.4,1.3c0,0.3-0.1,0.5-0.3,0.8c-0.1,0.3-0.4,0.5-0.7,0.5c0.4,0.1,0.7,0.3,0.8,0.6
			c0.1,0.3,0.3,0.6,0.3,0.9c0,0.6-0.1,1-0.5,1.3c-0.3,0.3-0.8,0.5-1.4,0.5c-0.5,0-0.9-0.1-1.3-0.5c-0.5-0.3-0.6-0.7-0.6-1.3l0,0h0.4
			c0,0.5,0.2,0.7,0.5,1c0.3,0.3,0.5,0.5,1,0.5c0.4,0,0.7-0.2,0.9-0.3c0.3-0.2,0.4-0.6,0.4-1c0-0.5-0.1-0.7-0.4-1
			c-0.3-0.1-0.6-0.3-1.1-0.3h-0.5v-1h0.1V231.8z"/>
		<path fill="#FFFFFF" d="M372.4,233.2h1v0.5h-1v1.5h-0.5v-1.5h-2.8v-0.3l2.8-4.1h0.5V233.2z M369.9,233.2h2.2v-3.3l0,0l-0.3,0.4
			L369.9,233.2z"/>
		<path fill="#FFFFFF" d="M375.2,231.8h0.5c0.5,0,0.8-0.1,1-0.3c0.1-0.1,0.3-0.5,0.3-0.8c0-0.5-0.2-0.7-0.3-0.8
			c-0.3-0.3-0.6-0.3-1-0.3c-0.5,0-0.7,0.1-1,0.3c-0.3,0.3-0.4,0.5-0.4,0.8h-0.4l0,0c0-0.5,0.1-0.8,0.5-1c0.3-0.3,0.8-0.5,1.3-0.5
			c0.6,0,1,0.2,1.3,0.5c0.3,0.3,0.5,0.7,0.5,1.3c0,0.3-0.1,0.5-0.3,0.8c-0.1,0.3-0.5,0.5-0.7,0.5c0.5,0.1,0.7,0.3,0.8,0.6
			c0.1,0.3,0.3,0.6,0.3,0.9c0,0.6-0.1,1-0.6,1.3c-0.4,0.3-0.8,0.5-1.3,0.5c-0.6,0-1-0.1-1.4-0.5c-0.4-0.3-0.5-0.7-0.5-1.3l0,0h0.5
			c0,0.5,0.1,0.7,0.4,1c0.3,0.3,0.6,0.5,0.9,0.5c0.4,0,0.7-0.2,1-0.3c0.3-0.2,0.5-0.6,0.5-1c0-0.5-0.1-0.7-0.5-1
			c-0.3-0.1-0.5-0.3-1-0.3h-0.6v-1h0.2V231.8z"/>
		<path fill="#FFFFFF" d="M380.3,232.8c0,1-0.1,1.9-0.5,2.6c-0.5,0.8-0.8,1.3-1.3,1.5l0,0l-0.2-0.2c0.5-0.3,0.7-0.8,1.1-1.5
			c0.3-0.7,0.4-1.5,0.4-2.5v-0.2c0-0.9-0.1-1.6-0.4-2.4s-0.7-1.3-0.9-1.5l0.1-0.3l0,0c0.5,0.3,0.8,0.8,1.3,1.6
			C380,230.7,380.3,231.7,380.3,232.8L380.3,232.8z"/>
		<path fill="#FFFFFF" d="M383.4,232.2h1.8v0.4h-1.8v1.8h-0.6v-1.8h-1.6v-0.4h1.8v-1.9h0.5L383.4,232.2L383.4,232.2z"/>
		<path fill="#FFFFFF" d="M389,233.2h1v0.5h-1v1.5h-0.5v-1.5h-2.8v-0.3l2.8-4.1h0.5V233.2z M386.4,233.2h2.2v-3.3l0,0l-0.3,0.4
			L386.4,233.2z"/>
		<path fill="#FFFFFF" d="M393.8,233.2h1v0.5h-1v1.5h-0.5v-1.5h-2.8v-0.3l2.8-4.1h0.5V233.2z M391,233.2h2.2v-3.3l0,0l-0.3,0.4
			L391,233.2z"/>
	</g>
	<g>
		<g>
			<path fill="#FFFFFF" d="M420,244.7l1-9.4h8.5v1.4h-7.3l-0.7,6.1c0.5-0.4,1-0.7,1.5-0.9c0.5-0.2,1.3-0.3,2.2-0.4
				c1.5,0,2.8,0.4,3.5,1.5c1,0.9,1.4,2.3,1.4,4s-0.5,3.1-1.4,4.2c-0.8,1-2.2,1.5-4,1.5c-1.4,0-2.5-0.5-3.5-1.3s-1.4-1.9-1.4-3.6
				v-0.1h1.3c0,1.3,0.3,2,1,2.8c0.7,0.7,1.5,0.9,2.5,0.9c1.3,0,2.2-0.4,2.9-1.3c0.7-0.8,1-1.8,1-3.3c0-1.3-0.3-2.3-1-3.1
				s-1.5-1.3-2.8-1.3c-1,0-1.9,0.1-2.5,0.6c-0.7,0.4-1,0.8-1.3,1.6L420,244.7z"/>
			<path fill="#FFFFFF" d="M441.5,246.8h2.8v1.3h-2.8v4.4h-1.4v-4.4h-8v-0.8l7.9-12.1h1.5V246.8z M433.7,246.8h6.3V237h-0.1
				l-0.5,1.3L433.7,246.8z"/>
			<path fill="#FFFFFF" d="M446.9,244.7l1-9.4h8.4v1.4h-7.2l-0.7,6.1c0.5-0.4,1-0.7,1.5-0.9s1.3-0.3,2.2-0.4c1.5,0,2.8,0.4,3.5,1.5
				c1,0.9,1.4,2.3,1.4,4s-0.5,3.1-1.4,4.2c-0.8,1-2.2,1.5-4,1.5c-1.4,0-2.5-0.5-3.5-1.3s-1.4-1.9-1.4-3.6v-0.1h1.3
				c0,1.3,0.3,2,1,2.8c0.7,0.7,1.5,0.9,2.5,0.9c1.3,0,2.2-0.4,2.9-1.3c0.7-0.8,1-1.8,1-3.3c0-1.3-0.3-2.3-1-3.1s-1.5-1.3-2.8-1.3
				c-1,0-1.9,0.1-2.5,0.6c-0.7,0.4-1,0.8-1.3,1.6L446.9,244.7z"/>
			<path fill="#FFFFFF" d="M468.5,246.8h2.8v1.3h-2.8v4.4h-1.4v-4.4h-8v-0.8l7.8-12.1h1.5L468.5,246.8L468.5,246.8z M460.7,246.8
				h6.4V237H467l-0.5,1.3L460.7,246.8z"/>
			<path fill="#FFFFFF" d="M474.8,252.3l-1.3,3.3h-1l0.8-3.3v-2.1h1.4L474.8,252.3L474.8,252.3z"/>
			<path fill="#FFFFFF" d="M486.5,246.8h2.8v1.3h-2.8v4.4h-1.4v-4.4h-8v-0.8l7.9-12.1h1.5V246.8z M478.7,246.8h6.4V237H485l-0.5,1.3
				L478.7,246.8z"/>
		</g>
	</g>
	<rect x="494.9" y="188.8" fill="#3D3D3D" width="5.5" height="37"/>
	<circle fill="#2D2D2D" cx="497.6" cy="204" r="0.7"/>
	<circle fill="#2D2D2D" cx="497.6" cy="207.2" r="0.7"/>
	<circle fill="#2D2D2D" cx="497.6" cy="210.6" r="0.7"/>
	<rect x="347.2" y="262.8" fill="#2B2B2B" width="147.6" height="37"/>
	<g>
		<path fill="#ED1A46" d="M363.9,286.8h-7.2v6.9h-1.3V279h9.4v1.1h-8.2v5.7h7.2L363.9,286.8L363.9,286.8z"/>
		<path fill="#ED1A46" d="M378.2,287.7c0,1.8-0.6,3.3-1.5,4.6c-1.1,1.3-2.5,1.8-4.2,1.8c-1.7,0-3.1-0.6-4-1.8
			c-1.1-1.3-1.5-2.8-1.5-4.6v-2.4c0-1.9,0.5-3.4,1.5-4.6c1-1.3,2.4-1.8,4-1.8c1.8,0,3.1,0.6,4.2,1.8c1,1.3,1.6,2.8,1.6,4.6
			L378.2,287.7L378.2,287.7z M377,285.3c0-1.6-0.5-2.9-1.3-3.8c-0.8-0.9-1.9-1.5-3.4-1.5c-1.4,0-2.4,0.6-3.3,1.5
			c-0.9,0.9-1.3,2.3-1.3,3.8v2.4c0,1.6,0.4,2.8,1.3,3.8c0.8,0.9,1.9,1.5,3.3,1.5c1.5,0,2.6-0.6,3.4-1.5c0.8-0.9,1.3-2.3,1.3-3.8
			V285.3z"/>
		<path fill="#ED1A46" d="M392.3,287.7c0,1.8-0.5,3.3-1.5,4.6s-2.5,1.8-4.2,1.8s-3.1-0.6-4-1.8c-1-1.3-1.5-2.8-1.5-4.6v-2.4
			c0-1.9,0.5-3.4,1.5-4.6c1-1.2,2.5-1.8,4-1.8c1.8,0,3.1,0.6,4.2,1.8c1,1.3,1.6,2.8,1.6,4.6v2.4H392.3z M391,285.3
			c0-1.6-0.5-2.9-1.3-3.8c-0.8-0.9-1.9-1.5-3.4-1.5c-1.4,0-2.5,0.6-3.3,1.5c-0.8,0.9-1.3,2.3-1.3,3.8v2.4c0,1.6,0.5,2.8,1.3,3.8
			c0.8,0.9,1.9,1.5,3.3,1.5c1.5,0,2.5-0.6,3.4-1.5c0.8-0.9,1.3-2.3,1.3-3.8V285.3z"/>
	</g>
	<g>
		<path fill="#FFFFFF" d="M355.1,269.8h0.5c0.5,0,0.8-0.2,1-0.3c0.3-0.3,0.3-0.6,0.3-0.8c0-0.4-0.2-0.7-0.3-0.8
			c-0.3-0.3-0.6-0.3-1-0.3s-0.7,0.1-1,0.3c-0.3,0.3-0.4,0.6-0.4,0.8h-0.4l0,0c0-0.4,0.1-0.8,0.5-1.1c0.5-0.3,0.8-0.4,1.3-0.4
			c0.6,0,1,0.1,1.3,0.4s0.5,0.7,0.5,1.3c0,0.3-0.1,0.6-0.3,0.8c-0.1,0.3-0.5,0.4-0.7,0.6c0.5,0.1,0.7,0.3,0.8,0.6
			c0.1,0.3,0.3,0.6,0.3,0.9c0,0.6-0.1,0.9-0.6,1.3c-0.3,0.3-0.8,0.4-1.3,0.4c-0.6,0-1-0.2-1.4-0.4c-0.4-0.3-0.5-0.7-0.5-1.3l0,0h0.5
			c0,0.4,0.1,0.7,0.4,0.9c0.3,0.3,0.6,0.4,0.9,0.4c0.5,0,0.7-0.2,1-0.3c0.3-0.2,0.5-0.6,0.5-0.9c0-0.4-0.2-0.7-0.5-0.9
			c-0.3-0.2-0.5-0.3-1-0.3h-0.6v-0.8h0.3L355.1,269.8L355.1,269.8z"/>
		<path fill="#FFFFFF" d="M359.6,269l-1.4-0.4l0.2-0.4l1.3,0.6v-1.5h0.5v1.5l1.4-0.6l0.1,0.4l-1.4,0.4l0.9,1.3l-0.4,0.3l-0.8-1.3
			l-0.8,1.3l-0.5-0.3L359.6,269z"/>
		<path fill="#FFFFFF" d="M362.2,270.8c0-0.9,0.2-1.9,0.6-2.6c0.4-0.8,0.8-1.4,1.3-1.6l0,0l0.1,0.3c-0.5,0.3-0.7,0.8-1,1.5
			c-0.3,0.7-0.5,1.5-0.5,2.4v0.2c0,0.9,0.1,1.6,0.5,2.4c0.3,0.7,0.7,1.3,1,1.5l-0.1,0.3l0,0c-0.4-0.3-0.9-0.8-1.3-1.5
			C362.4,272.6,362.2,271.6,362.2,270.8L362.2,270.8z"/>
		<path fill="#FFFFFF" d="M365.9,269.8h0.5c0.5,0,0.8-0.2,1-0.3c0.3-0.3,0.3-0.6,0.3-0.8c0-0.4-0.2-0.7-0.3-0.8
			c-0.3-0.3-0.6-0.3-1-0.3c-0.4,0-0.7,0.1-1,0.3c-0.3,0.3-0.4,0.6-0.4,0.8h-0.3l0,0c0-0.4,0.1-0.8,0.6-1.1c0.4-0.3,0.8-0.4,1.3-0.4
			c0.5,0,0.9,0.1,1.3,0.4c0.3,0.3,0.4,0.7,0.4,1.3c0,0.3-0.1,0.6-0.3,0.8c-0.1,0.3-0.4,0.4-0.7,0.6c0.4,0.1,0.7,0.3,0.8,0.6
			c0.1,0.3,0.3,0.6,0.3,0.9c0,0.6-0.1,0.9-0.5,1.3c-0.3,0.3-0.8,0.4-1.4,0.4c-0.5,0-0.9-0.2-1.3-0.4c-0.5-0.3-0.6-0.7-0.6-1.3l0,0
			h0.4c0,0.4,0.2,0.7,0.5,0.9c0.3,0.3,0.5,0.4,1,0.4c0.4,0,0.7-0.2,0.9-0.3c0.3-0.2,0.4-0.6,0.4-0.9c0-0.4-0.1-0.7-0.4-0.9
			s-0.6-0.3-1.1-0.3h-0.5v-0.8h0.2L365.9,269.8L365.9,269.8z"/>
		<path fill="#FFFFFF" d="M372.4,271.1h1v0.4h-1v1.5h-0.5v-1.5h-2.8v-0.3l2.8-4.1h0.5V271.1z M369.7,271.1h2.2v-3.3l0,0l-0.3,0.4
			L369.7,271.1z"/>
		<path fill="#FFFFFF" d="M375.2,269.8h0.5c0.5,0,0.8-0.2,1-0.3c0.1-0.1,0.3-0.6,0.3-0.8c0-0.4-0.2-0.7-0.3-0.8
			c-0.3-0.3-0.6-0.3-1-0.3c-0.5,0-0.7,0.1-1,0.3c-0.3,0.3-0.4,0.6-0.4,0.8h-0.4l0,0c0-0.4,0.1-0.8,0.5-1.1c0.3-0.3,0.8-0.4,1.3-0.4
			c0.6,0,1,0.1,1.3,0.4s0.5,0.7,0.5,1.3c0,0.3-0.1,0.6-0.3,0.8c-0.1,0.3-0.5,0.4-0.7,0.6c0.5,0.1,0.7,0.3,0.8,0.6
			c0.1,0.3,0.3,0.6,0.3,0.9c0,0.6-0.1,0.9-0.6,1.3c-0.4,0.3-0.8,0.4-1.3,0.4c-0.6,0-1-0.2-1.4-0.4c-0.4-0.3-0.5-0.7-0.5-1.3l0,0h0.5
			c0,0.4,0.1,0.7,0.4,0.9c0.3,0.3,0.6,0.4,0.9,0.4c0.4,0,0.7-0.2,1-0.3c0.3-0.2,0.5-0.6,0.5-0.9c0-0.4-0.1-0.7-0.5-0.9
			c-0.3-0.2-0.5-0.3-1-0.3h-0.6v-0.8h0.3L375.2,269.8L375.2,269.8z"/>
		<path fill="#FFFFFF" d="M380.1,270.8c0,0.9-0.1,1.8-0.6,2.6c-0.4,0.8-0.8,1.3-1.3,1.5l0,0l-0.1-0.3c0.4-0.3,0.7-0.8,1-1.5
			c0.3-0.7,0.5-1.5,0.5-2.4v-0.1c0-0.9-0.2-1.6-0.5-2.4c-0.3-0.8-0.7-1.3-1-1.5l0.2-0.3l0,0c0.4,0.3,0.8,0.8,1.3,1.6
			C380,268.8,380.1,269.6,380.1,270.8L380.1,270.8z"/>
		<path fill="#FFFFFF" d="M383.4,270.1h1.8v0.4h-1.8v1.8h-0.6v-1.8H381v-0.4h1.8v-1.9h0.5L383.4,270.1L383.4,270.1z"/>
		<path fill="#FFFFFF" d="M389,271.1h1v0.4h-1v1.5h-0.5v-1.5h-2.8v-0.3l2.8-4.1h0.5V271.1z M386.4,271.1h2.2v-3.3l0,0l-0.3,0.4
			L386.4,271.1z"/>
		<path fill="#FFFFFF" d="M393.5,271.1h1v0.4h-1v1.5H393v-1.5h-2.8v-0.3l2.8-4.1h0.5V271.1L393.5,271.1z M390.9,271.1h2.2v-3.3l0,0
			l-0.3,0.4L390.9,271.1z"/>
	</g>
	<g>
		<g>
			<path fill="#FFFFFF" d="M447.1,282.5l1-9.4h8.4v1.4h-7.2l-0.7,6.1c0.5-0.4,1-0.7,1.5-0.9c0.5-0.2,1.3-0.3,2.2-0.4
				c1.5,0,2.8,0.4,3.5,1.5c1,0.9,1.4,2.3,1.4,4.1c0,1.8-0.5,3.1-1.4,4.2c-0.8,1.1-2.2,1.5-4,1.5c-1.4,0-2.5-0.4-3.5-1.3
				c-1-0.8-1.4-1.8-1.4-3.6v-0.1h1.3c0,1.3,0.3,2.1,1,2.8c0.7,0.7,1.5,0.9,2.5,0.9c1.3,0,2.2-0.4,2.9-1.3c0.7-0.8,1-1.8,1-3.3
				c0-1.3-0.3-2.3-1-3.1c-0.7-0.8-1.5-1.3-2.8-1.3c-1,0-1.9,0.1-2.5,0.6c-0.7,0.4-1,0.8-1.3,1.6H447.1L447.1,282.5z"/>
			<path fill="#FFFFFF" d="M468.7,284.8h2.8v1.3h-2.8v4.3h-1.4v-4.3h-8v-0.8l7.9-12.1h1.5V284.8L468.7,284.8z M461,284.8h6.4V275
				h-0.1l-0.6,1.3L461,284.8z"/>
			<path fill="#FFFFFF" d="M475.1,290.1l-1.3,3.3h-1l0.8-3.3v-2h1.4L475.1,290.1L475.1,290.1z"/>
			<path fill="#FFFFFF" d="M486.7,284.8h2.8v1.3h-2.8v4.3h-1.4v-4.3h-8v-0.8l7.9-12.1h1.5V284.8z M479,284.8h6.4V275h-0.1l-0.6,1.3
				L479,284.8z"/>
		</g>
	</g>
	<g>
		<rect x="495" y="262.8" fill="#3D3D3D" width="5.5" height="37"/>
		<circle fill="#FFFFFF" cx="497.7" cy="277.8" r="0.7"/>
		<circle fill="#FFFFFF" cx="497.7" cy="281.3" r="0.7"/>
		<circle fill="#FFFFFF" cx="497.7" cy="284.6" r="0.7"/>
	</g>
	<rect x="347.3" y="198.7" fill="#B7B7B7" width="1.4" height="108.9"/>
	<rect x="489.3" y="225.8" fill="#D81F27" width="11.3" height="37"/>
	<g>
		<path fill="#FFFFFF" d="M493.2,248.2c-0.3,0-0.3,0-0.3-0.1c0-0.2,0-4.8,0-4.8h-0.5c0,0,0,4.6,0,4.8c0,0.2,0.3,0.7,0.7,0.7
			s2.2,0,2.2,0v-0.6C495.1,248.2,493.4,248.2,493.2,248.2z"/>
		<path fill="#FFFFFF" d="M497.9,243.2c0,0,0,4.6,0,4.9c0,0.3-0.3,0.7-0.7,0.7s-2.2,0-2.2,0v-0.6c0,0,1.6,0,1.9,0
			c0.3,0,0.3,0,0.3-0.1c0-0.1,0-4.8,0-4.8h0.7L497.9,243.2L497.9,243.2z"/>
		<path fill="#FFFFFF" d="M498.1,242.7c0,0,0-0.3,0-0.4c0-0.1,0-0.3-0.3-0.3s-2.9,0-2.9,0s-2.5,0-2.9,0c-0.1,0-0.3,0.3-0.3,0.3v0.4
			h-0.3v0.7h3.4h3.4v-0.7H498.1z"/>
		<path fill="#FFFFFF" d="M495.8,240.8c-0.5,0-0.7,0-0.7,0s-0.3,0-0.7,0s-0.8,0.6-0.8,1c0,0.1,0,0.1,0,0.1h0.7c0,0,0,0,0-0.3
			c0-0.1,0.1-0.3,0.3-0.3c0.3,0,0.5,0,0.5,0s0.3,0,0.5,0c0.1,0,0.3,0.3,0.3,0.3c0,0.3,0,0.3,0,0.3h0.7c0,0,0,0,0-0.1
			C496.6,241.4,496.2,240.8,495.8,240.8z"/>
		<rect x="494.7" y="244" fill="#FFFFFF" width="0.7" height="3.7"/>
		<rect x="496.1" y="244" fill="#FFFFFF" width="0.7" height="3.7"/>
		<rect x="493.5" y="244" fill="#FFFFFF" width="0.7" height="3.7"/>
	</g>
	<rect x="462.8" y="225.8" fill="#3D3D3D" width="26.5" height="37"/>
	<rect x="463.9" y="225.8" fill="#2D2D2D" width="25.4" height="18.3"/>
	<g>
		<path fill="#FFFFFF" d="M476.5,252.6H471v-0.7h5.5V252.6z M476.5,255.3H471v-0.7h5.5V255.3z"/>
		<path fill="#FFFFFF" d="M482,258.3h-0.8v-8.8l-2.5,0.3v-0.6l3.3-0.5V258.3z"/>
	</g>
	<g>
		<path fill="#FFFFFF" d="M476.2,233.7h-5.5V233h5.5V233.7z M476.2,236.4h-5.5v-0.7h5.5V236.4z"/>
		<path fill="#FFFFFF" d="M484.2,235.5c0,1.3-0.3,2.2-0.8,2.9c-0.5,0.7-1.3,0.9-2.3,0.9c-1,0-1.8-0.3-2.3-0.9
			c-0.5-0.7-0.8-1.6-0.8-2.9v-2.2c0-1.3,0.3-2.2,0.8-2.8c0.5-0.6,1.3-1,2.3-1c1,0,1.8,0.3,2.3,1s0.8,1.6,0.8,2.8V235.5z
			 M483.5,233.2c0-1-0.1-1.8-0.5-2.3c-0.5-0.6-1-0.8-1.6-0.8s-1.4,0.3-1.6,0.8c-0.3,0.5-0.5,1.3-0.5,2.3v2.5c0,0.9,0.1,1.8,0.5,2.3
			c0.5,0.5,1,0.8,1.6,0.8s1.4-0.3,1.6-0.8c0.2-0.5,0.5-1.3,0.5-2.3V233.2z"/>
	</g>
	<g>
		<rect x="457.3" y="225.8" fill="#3D3D3D" width="5.5" height="37"/>
		<circle fill="#FFFFFF" cx="460.1" cy="241" r="0.7"/>
		<circle fill="#FFFFFF" cx="460.1" cy="244.2" r="0.7"/>
		<circle fill="#FFFFFF" cx="460.1" cy="247.5" r="0.7"/>
	</g>
	<g id="completer">
		<rect x="54.4" y="293.8" fill="#2B2B2B" width="64.9" height="38.9"/>
		<rect x="54.4" y="322.9" opacity="0.8" fill="#ED1A46" enable-background="new    " width="64.9" height="9.8"/>
		<g>
			<path fill="#C9C9C9" d="M69.5,302.3c0-0.1,0-0.3,0-0.4s0-0.1,0-0.3c-0.1,0.3-0.5,0.4-0.5,0.6c-0.3,0.2-0.6,0.3-0.8,0.3
				c-0.4,0-0.7-0.1-0.9-0.3c-0.3-0.3-0.3-0.6-0.3-0.8c0-0.4,0.1-0.7,0.5-0.9c0.3-0.3,0.8-0.3,1.3-0.3h0.9v-0.5
				c0-0.3-0.1-0.6-0.3-0.7c-0.1-0.1-0.4-0.3-0.8-0.3c-0.3,0-0.5,0.2-0.8,0.3c-0.3,0.1-0.3,0.4-0.3,0.6H67l0,0c0-0.3,0.1-0.6,0.5-0.8
				c0.3-0.3,0.7-0.4,1-0.4c0.5,0,0.8,0.1,1,0.4c0.3,0.3,0.5,0.6,0.5,0.9v2.1c0,0.1,0,0.3,0,0.4c0,0.2,0,0.3,0.1,0.4h-0.8L69.5,302.3
				L69.5,302.3z M68,302.1c0.3,0,0.5-0.1,0.8-0.3c0.3-0.1,0.5-0.4,0.6-0.6v-0.8h-0.9c-0.5,0-0.7,0.2-1,0.3c-0.3,0.2-0.5,0.4-0.5,0.7
				c0,0.3,0.1,0.4,0.3,0.6C67.4,302,67.8,302.1,68,302.1z"/>
			<path fill="#C9C9C9" d="M74.3,300.5c0,0.6-0.1,1.1-0.5,1.5c-0.3,0.4-0.7,0.6-1,0.6s-0.5,0-0.8-0.1s-0.5-0.3-0.6-0.6v0.7H71v-5.9
				h0.4v2.4c0.1-0.3,0.3-0.4,0.6-0.6c0.3-0.2,0.4-0.2,0.8-0.2c0.5,0,0.8,0.2,1,0.6C74.1,299.3,74.3,299.7,74.3,300.5L74.3,300.5z
				 M73.9,300.3c0-0.6-0.1-0.9-0.3-1.3c-0.1-0.3-0.6-0.6-0.9-0.6c-0.3,0-0.6,0.1-0.8,0.3c-0.1,0.1-0.3,0.4-0.4,0.6v1.8
				c0.1,0.3,0.3,0.4,0.4,0.6c0.1,0.2,0.4,0.3,0.7,0.3c0.5,0,0.7-0.1,1-0.4C73.8,301.3,73.9,300.8,73.9,300.3L73.9,300.3z"/>
			<path fill="#C9C9C9" d="M77.8,301.3c0-0.2-0.1-0.4-0.3-0.6c-0.1-0.1-0.4-0.3-0.8-0.4c-0.5-0.1-0.8-0.3-1-0.4
				c-0.3-0.2-0.5-0.4-0.5-0.7s0.1-0.6,0.5-0.8c0.3-0.3,0.5-0.3,1-0.3c0.5,0,0.8,0.1,1,0.4c0.3,0.3,0.5,0.6,0.5,0.8l0,0h-0.5
				c0-0.3-0.1-0.4-0.3-0.6c-0.1-0.2-0.4-0.3-0.8-0.3c-0.3,0-0.5,0.1-0.7,0.3c-0.1,0.1-0.3,0.3-0.3,0.6c0,0.1,0.1,0.4,0.3,0.4
				c0.1,0.1,0.5,0.3,0.8,0.3c0.6,0.1,0.8,0.3,1.1,0.4c0.3,0.1,0.4,0.4,0.4,0.8c0,0.4-0.1,0.7-0.4,0.8c-0.3,0.3-0.7,0.3-1.1,0.3
				c-0.6,0-0.8-0.2-1.3-0.4c-0.4-0.3-0.6-0.4-0.6-0.7l0,0h0.5c0,0.3,0.1,0.6,0.5,0.7c0.3,0.1,0.5,0.1,0.8,0.1c0.3,0,0.5-0.1,0.8-0.3
				C77.7,301.7,77.8,301.6,77.8,301.3z"/>
		</g>
		<g>
			<path fill="#C9C9C9" d="M69.4,310.6c0-0.1-0.1-0.4-0.3-0.6c-0.1-0.1-0.4-0.3-0.8-0.4c-0.5-0.2-0.8-0.3-1-0.4
				c-0.3-0.2-0.5-0.4-0.5-0.7c0-0.3,0.1-0.6,0.5-0.8c0.3-0.3,0.5-0.3,1-0.3c0.5,0,0.8,0.1,1.1,0.4s0.4,0.6,0.4,0.8l0,0h-0.4
				c0-0.3-0.1-0.4-0.3-0.6c-0.1-0.2-0.4-0.3-0.8-0.3c-0.3,0-0.5,0.1-0.7,0.3c-0.2,0.1-0.3,0.3-0.3,0.6c0,0.1,0.1,0.4,0.3,0.4
				c0.1,0.1,0.4,0.3,0.8,0.3c0.5,0.1,0.8,0.3,1,0.4c0.3,0.1,0.5,0.4,0.5,0.8c0,0.4-0.1,0.7-0.5,0.8c-0.3,0.3-0.7,0.3-1,0.3
				c-0.6,0-0.8-0.2-1.3-0.4c-0.5-0.3-0.5-0.6-0.5-0.8l0,0h0.5c0,0.3,0.1,0.6,0.4,0.7c0.3,0.1,0.6,0.1,0.8,0.1c0.2,0,0.5-0.1,0.8-0.3
				C69.3,311,69.4,310.7,69.4,310.6z"/>
			<path fill="#C9C9C9" d="M71.3,306.3H71v-0.7h0.4L71.3,306.3L71.3,306.3z M71.3,311.5H71v-4.1h0.4L71.3,311.5L71.3,311.5z"/>
			<path fill="#C9C9C9" d="M72.9,307.6v0.7c0.1-0.3,0.3-0.4,0.6-0.6c0.3-0.2,0.5-0.3,0.8-0.3c0.5,0,0.8,0.1,1,0.4
				c0.3,0.3,0.4,0.7,0.4,1.3v2.4h-0.4v-2.4c0-0.4-0.1-0.8-0.3-0.9c-0.1-0.2-0.5-0.3-0.7-0.3c-0.2,0-0.5,0.1-0.8,0.3
				c-0.1,0.1-0.5,0.4-0.5,0.7v2.8h-0.5v-4L72.9,307.6L72.9,307.6z"/>
		</g>
		<g>
			<path fill="#C9C9C9" d="M69.5,321.1c0-0.1,0-0.3,0-0.4c0-0.1,0-0.1,0-0.3c-0.1,0.3-0.5,0.4-0.5,0.6c-0.3,0.1-0.6,0.3-0.8,0.3
				c-0.4,0-0.7-0.1-0.9-0.3c-0.3-0.3-0.3-0.6-0.3-0.8c0-0.4,0.1-0.7,0.5-0.9c0.3-0.3,0.8-0.3,1.3-0.3h0.9v-0.6
				c0-0.3-0.1-0.6-0.3-0.7c-0.1-0.1-0.4-0.3-0.8-0.3c-0.3,0-0.5,0.1-0.8,0.3c-0.3,0.1-0.3,0.4-0.3,0.6H67l0,0c0-0.3,0.1-0.6,0.5-0.8
				c0.3-0.3,0.7-0.4,1-0.4c0.5,0,0.8,0.1,1,0.4c0.3,0.3,0.5,0.6,0.5,0.9v2.1c0,0.1,0,0.3,0,0.4c0,0.1,0,0.3,0.1,0.4h-0.8L69.5,321.1
				L69.5,321.1z M68,320.8c0.3,0,0.5-0.1,0.8-0.3c0.3-0.2,0.5-0.4,0.6-0.6v-0.8h-0.9c-0.5,0-0.7,0.1-1,0.3c-0.3,0.2-0.5,0.4-0.5,0.7
				c0,0.3,0.1,0.4,0.3,0.6C67.4,320.7,67.8,320.8,68,320.8z"/>
			<path fill="#C9C9C9" d="M71.5,317.7c0.1-0.3,0.3-0.4,0.6-0.6c0.3-0.2,0.6-0.2,0.8-0.2c0.4,0,0.8,0.2,0.9,0.4
				c0.3,0.3,0.4,0.7,0.4,1.3v2.5h-0.5v-2.6c0-0.4-0.1-0.8-0.3-0.9c-0.1-0.2-0.5-0.3-0.7-0.3c-0.2,0-0.5,0.1-0.8,0.3
				c-0.3,0.1-0.5,0.4-0.5,0.7v2.9h-0.5v-5.9h0.5L71.5,317.7L71.5,317.7L71.5,317.7z"/>
			<path fill="#C9C9C9" d="M75,319.1c0-0.6,0.1-1.1,0.6-1.5s0.8-0.6,1.3-0.6s1,0.1,1.3,0.6c0.4,0.4,0.6,0.8,0.6,1.5v0.1
				c0,0.6-0.1,1.1-0.6,1.5c-0.5,0.4-0.8,0.6-1.3,0.6s-1-0.1-1.3-0.6C75.2,320.3,75,319.8,75,319.1L75,319.1z M75.5,319.2
				c0,0.4,0.1,0.8,0.5,1.3c0.3,0.4,0.5,0.6,0.9,0.6s0.8-0.1,0.9-0.6c0.3-0.3,0.5-0.7,0.5-1.3v-0.1c0-0.4-0.1-0.8-0.5-1.3
				c-0.3-0.3-0.5-0.6-0.9-0.6s-0.8,0.1-0.9,0.6C75.8,318.3,75.5,318.5,75.5,319.2L75.5,319.2z"/>
			<path fill="#C9C9C9" d="M80.1,317v4.4c0,0.4-0.1,0.7-0.3,0.9c-0.1,0.3-0.6,0.4-0.8,0.4c-0.1,0-0.1,0-0.3,0c-0.1,0-0.1,0-0.3,0
				v-0.4h0.1c0.1,0,0.1,0,0.1,0c0.3,0,0.5-0.1,0.6-0.3c0.1-0.1,0.1-0.4,0.1-0.7v-4.4C79.4,317,80.1,317,80.1,317z M80.1,316h-0.4
				v-0.7h0.4V316z"/>
			<path fill="#C9C9C9" d="M81.2,319.2c0-0.7,0.1-1.3,0.4-1.5c0.3-0.4,0.7-0.6,1.1-0.6c0.3,0,0.5,0,0.7,0.1c0.3,0.2,0.4,0.3,0.6,0.6
				v-2.4h0.4v5.9H84v-0.6c-0.1,0.3-0.3,0.4-0.6,0.6c-0.3,0.1-0.4,0.1-0.8,0.1c-0.5,0-0.8-0.1-1-0.6
				C81.3,320.3,81.2,319.9,81.2,319.2L81.2,319.2z M81.8,319.2c0,0.6,0.1,0.9,0.3,1.3c0.2,0.4,0.5,0.4,1,0.4c0.3,0,0.5,0,0.7-0.1
				c0.1-0.1,0.4-0.3,0.4-0.6v-1.9c-0.1-0.3-0.3-0.4-0.4-0.6c-0.1-0.1-0.4-0.3-0.7-0.3c-0.5,0-0.7,0.2-1,0.6
				C81.8,318.3,81.8,318.6,81.8,319.2L81.8,319.2z"/>
		</g>
		<g>
			<path fill="#C9C9C9" d="M68.7,327.2l1.5-2.3h0.5l-1.8,2.8l1.8,2.8h-0.6l-1.6-2.4l-1.6,2.4h-0.5l1.8-2.8l-1.8-2.8H67L68.7,327.2z"
				/>
			<path fill="#C9C9C9" d="M73.3,327.9l1.6-3h0.5l-2,3.6v2.1h-0.5v-2.1l-2-3.4h0.5L73.3,327.9z"/>
		</g>
		<rect x="118.3" y="293.8" fill="#969696" width="0.9" height="21.2"/>
		<rect x="57.9" y="298.3" fill="#EF4323" width="3.7" height="3.7"/>
		<rect x="57.9" y="307.6" fill="#EF4323" width="3.7" height="3.7"/>
		<rect x="57.9" y="317.1" fill="#C9C9C9" width="3.7" height="3.7"/>
		<rect x="57.9" y="326.4" fill="#C9C9C9" width="3.7" height="3.7"/>
	</g>
	<g id="new">
		<rect x="282.9" y="256.4" display="none" fill="#E0E0E0" width="64.4" height="18.6"/>
		<polygon display="none" fill="#E0E0E0" points="282.9,256.4 258.7,275.1 282.9,275.1 		"/>
		<polygon fill="#303030" points="14.3,151.7 14.3,168.3 2,179.4 2,274.8 0.3,274.8 0.3,151.7 		"/>
		
			<text transform="matrix(1 0 0 1 306.9785 269.7363)" display="none" fill="#2B2B2B" enable-background="new    " font-family="'Roboto-Light'" font-size="12.4711">Graph</text>
		<g id="grapicon">
			<path fill="#FFFFFF" d="M12.1,160.8v0.5h-0.6v-0.5H12.1z M10.6,160.8v0.5h-0.4v-0.5H10.6z M9.3,160.8v0.5H8.7v-0.5H9.3z
				 M7.8,160.8v0.5H7.2v-0.5H7.8z M6.3,160.8v0.5H5.8v-0.5H6.3z M4.8,160.8v0.5H4.3v-0.5H4.8z M3.3,160.8v0.5H2.8v-0.5H3.3z
				 M1.8,160.8v0.5H1.5v-0.5H1.8z"/>
			<path fill="#FFFFFF" d="M7.2,153L7.2,153H6.6l0,0H7.2z M7.2,154v0.5H6.6V154H7.2z M7.2,155.5v0.5H6.6v-0.5H7.2L7.2,155.5z
				 M7.2,156.9v0.5H6.6v-0.5H7.2z M7.2,158.4v0.5H6.6v-0.5H7.2z M7.2,159.9v0.5H6.6v-0.5H7.2z M7.2,161.3v0.5H6.6v-0.5H7.2z
				 M7.2,162.8v0.5H6.6v-0.5H7.2z M7.2,164.3v0.5H6.6v-0.5H7.2z M7.2,165.8v0.5H6.6v-0.5H7.2z M7.2,167.2v0.5H6.6v-0.5H7.2z
				 M7.2,168.7v0.5H6.6v-0.5H7.2z"/>
			<path display="none" fill="#FFFFFF" d="M11.9,153.6v14.1H2.1v-14.1H11.9z M11.6,167.5v-13.3h-9v13.3
				C2.6,167.5,11.6,167.5,11.6,167.5z"/>
			<polygon fill="#ED1A46" points="4.8,166.2 3.6,158.8 2.4,162.4 2.1,162.4 3.8,157.6 5,164.8 6.1,160.1 7.3,163.1 9.8,158.1 
				11.1,161.6 12.5,159.1 12.8,159.2 11,162.3 9.8,158.8 7.3,163.8 6.1,160.9 			"/>
		</g>
	</g>
	<g>
		<path fill="#A09F9F" d="M59.3,285.5c-0.4-0.3-0.8-0.3-1.3-0.3c-1.1,0-2.1,0.8-2.1,2.3c0,1.3,0.8,2.3,1.8,2.3
			c0.6,0,0.9-0.1,1.5-0.4l0.3,0.9c-0.6,0.3-1.1,0.4-1.8,0.4c-1.8,0-3-1.4-3-3.3c0-1.8,1.3-3.3,3-3.3c0.7,0,1.3,0.1,1.8,0.4
			L59.3,285.5z"/>
		<path fill="#A09F9F" d="M63.4,284.1c1.8,0,3.1,1.3,3.1,3.3c0,2-1.3,3.3-3.1,3.3c-1.8,0-3.1-1.4-3.1-3.3
			C60.3,285.3,61.7,284.1,63.4,284.1z M63.4,285c-1.3,0-2,0.9-2,2.3c0,1.3,0.8,2.3,2,2.3s2-0.9,2-2.3C65.5,286.1,64.5,285,63.4,285z
			"/>
		<path fill="#A09F9F" d="M73.7,290.6c-0.8,0-1.3-0.3-1.4-0.9c-0.5,0.6-1.3,0.9-2.2,0.9c-1.1,0-2.2-0.7-2.2-2.3v-4h1v3.9
			c0,0.9,0.5,1.5,1.3,1.5c0.7,0,1.3-0.3,1.8-0.7v-4.8h1v4.6c0,0.7,0.5,0.8,0.7,0.8L73.7,290.6z"/>
		<path fill="#A09F9F" d="M76.4,285.3c0.4-0.7,1.1-1.3,2.2-1.3c1.4,0,2.2,0.9,2.2,2.3v4.1h-1v-3.9c0-0.9-0.5-1.5-1.3-1.5
			c-0.7,0-1.5,0.6-1.9,1.3v4.1h-1v-6.3h1L76.4,285.3L76.4,285.3z"/>
		<path fill="#A09F9F" d="M82.9,282.5h0.8v2.1h1.8v0.9h-1.8v3c0,0.9,0.5,1.3,1,1.3c0.4,0,0.8-0.1,1-0.3l0.3,0.8
			c-0.3,0.1-1,0.4-1.5,0.4c-1.3,0-1.8-0.8-1.8-2.3v-2.9h-1.1v-0.9h1.1L82.9,282.5z"/>
		<path fill="#A09F9F" d="M86.5,287.5c0-1.9,1.3-3.3,2.8-3.3c0.8,0,1.5,0.4,1.8,0.8v-3.3h1v7.3c0,0.7,0.4,0.7,0.7,0.7l-0.3,0.8
			c-0.8,0-1.3-0.3-1.3-0.9c-0.5,0.6-1,0.9-1.9,0.9C87.8,290.6,86.5,289.3,86.5,287.5z M91.2,289v-3.1c-0.3-0.4-0.8-0.8-1.5-0.8
			c-1.3,0-1.9,1.1-1.9,2.3c0,1.4,0.8,2.3,1.9,2.3C90.2,289.6,90.8,289.3,91.2,289z"/>
		<path fill="#A09F9F" d="M96.9,284.1c1.8,0,3.1,1.3,3.1,3.3c0,2-1.3,3.3-3.1,3.3c-1.8,0-3.1-1.4-3.1-3.3
			C93.8,285.3,95.1,284.1,96.9,284.1z M96.9,285c-1.3,0-2.1,0.9-2.1,2.3c0,1.3,0.8,2.3,2.1,2.3c1.3,0,2-0.9,2-2.3
			C98.9,286.1,97.9,285,96.9,285z"/>
		<path fill="#A09F9F" d="M108.9,284.2l1,0.4l-2.1,6h-1.3L105,286l-1.5,4.6h-1.3l-2.1-6l1-0.4l1.6,5.2l1.5-4.6h1.3l1.5,4.6
			L108.9,284.2z"/>
		<path fill="#A09F9F" d="M112.3,285.3c0.4-0.7,1-1.3,2.2-1.3c1.3,0,2.2,0.9,2.2,2.3v4.1h-1.1v-3.9c0-0.9-0.4-1.5-1.3-1.5
			c-0.7,0-1.5,0.6-1.8,1.3v4.1h-1.1v-6.3h1.1v1.1L112.3,285.3L112.3,285.3z"/>
		<path fill="#A09F9F" d="M120.3,291.7l-0.7,0.4c-0.9-1.8-1.6-3.6-1.6-5.3c0-2.1,0.6-3.7,1.6-5.3l0.7,0.4c-0.6,1.3-1.1,3-1.1,5.1
			C119.2,289,119.7,290.2,120.3,291.7z"/>
		<path fill="#A09F9F" d="M123.9,286.3l-2.8-3.6l1-0.7l2.4,3.3l2.4-3.3l1,0.7l-2.7,3.6l2.9,3.8l-0.9,0.7l-2.8-3.7l-2.5,3.6l-1-0.7
			L123.9,286.3z"/>
		<path fill="#A09F9F" d="M132,286.3l2.6-4.2l0.9,0.6l-2.9,4.8v3.3h-1.1v-3.3l-3-4.8l1-0.6L132,286.3z"/>
		<path fill="#A09F9F" d="M136.3,281.6l0.7-0.4c0.9,1.6,1.6,3.4,1.6,5.3s-0.6,3.6-1.6,5.3l-0.7-0.4c0.6-1.3,1.1-3,1.1-5.1
			C137.3,284.3,137,283,136.3,281.6z"/>
	</g>
</g>
<g id="new_1_">
	<rect x="0" y="151.8" opacity="0.8" enable-background="new    " width="500" height="216.8"/>
	<path fill="#ED1A46" d="M249.8,309.7c-33.6,0-61-27.4-61-61c0-4.3,0.6-8.8,1.5-13l2.1,0.5c-1,4.2-1.4,8.4-1.4,12.6
		c0,32.4,26.4,59,59,59s58.9-26.4,58.9-59s-26.4-58.8-59-58.8h-0.3V188h0.3c33.6,0,61,27.4,61,61S283.3,309.7,249.8,309.7z"/>
	<g>
		<path fill="#BCBCBC" d="M229.9,248.3h3.3c3.6,0,6.3-0.8,8.3-2.5c2-1.7,3-4,3-6.5c0-2.8-0.8-5.2-2.6-7c-1.8-1.9-4.3-2.8-7.8-2.8
			c-3.1,0-5.7,0.9-7.8,2.8c-2.1,1.8-3.1,4.2-3.1,7.3h-1.4v-0.3c-0.1-3.3,1.1-6.3,3.4-8.3c2.4-2.2,5.3-3.1,8.8-3.1
			c3.7,0,6.5,1.1,8.7,3.1c2.2,2,3.3,4.8,3.3,8.5c0,2.2-0.7,4.2-2.1,6c-1.3,1.8-3.3,3-5.7,3.8c2.8,0.7,4.8,1.8,6.3,3.7
			c1.5,1.8,2.3,4.1,2.3,6.7c0,3.7-1.3,6.5-3.6,8.7c-2.3,2.2-5.3,3.1-9.1,3.1c-3.6,0-6.8-1.1-9.5-3.1c-2.8-2.2-4.1-5.2-4-9v-0.2h1.4
			c0,3.1,1.1,5.7,3.4,7.8c2.3,2.1,5.2,3,8.5,3c3.6,0,6.1-0.9,8.2-2.8c1.8-1.8,2.8-4.2,2.8-7.5s-1.1-5.7-3.3-7.4
			c-2.2-1.6-5.2-2.3-9-2.3h-3.3v-1.8L229.9,248.3L229.9,248.3z"/>
		<path fill="#BCBCBC" d="M274.7,257.6h7.4v1.6h-7.4v11.6h-1.6v-11.6h-20.6v-0.8l20.1-29.8h1.9v28.9L274.7,257.6L274.7,257.6z
			 M254.9,257.6H273v-26.8h-0.1l-2.3,3.8L254.9,257.6z"/>
	</g>
</g>
<path fill="#EF0000" d="M83.7,300.1c-2.1,0-3.8-1.8-3.8-3.9c0-2.1,1.8-3.8,3.8-3.8s3.8,1.8,3.8,3.8
	C87.5,298.3,85.8,300.1,83.7,300.1z M83.7,292.8c-1.8,0-3.3,1.5-3.3,3.4c0,1.8,1.5,3.3,3.3,3.3c1.8,0,3.3-1.5,3.3-3.3
	C87,294.3,85.5,292.8,83.7,292.8z"/>
<polygon fill="#EF0000" points="184.4,312.6 98.7,312.6 85.4,299.5 85.8,299.1 98.9,312.1 184.4,312.1 "/>
<g>
	<path fill="#FFFFFF" d="M98.2,324.7l4-5.8h-3.8V318h5v0.8l-4,5.8h4.1v0.9h-5.3V324.7z"/>
	<path fill="#FFFFFF" d="M107,319.8c0.6,0,1.2,0.3,1.6,0.6v-0.4h0.9v4.2c0,0.5,0.3,0.7,0.6,0.7l-0.2,0.7c-0.7,0-1.1-0.3-1.2-0.8
		c-0.3,0.5-0.9,0.9-1.7,0.9c-1.4,0-2.5-1.1-2.5-2.9C104.4,321.1,105.5,319.8,107,319.8z M108.5,324.1v-3c-0.4-0.3-0.9-0.4-1.4-0.4
		c-1,0-1.7,0.8-1.7,2.1c0,1.2,0.7,2.1,1.7,2.1C107.6,324.8,108.2,324.5,108.5,324.1z"/>
	<path fill="#FFFFFF" d="M110.4,320.2l0.9-0.4l1.9,4.6l1.9-4.6l0.8,0.4l-2.2,5.3h-1L110.4,320.2z"/>
	<path fill="#FFFFFF" d="M119,319.8c1.6,0,2.8,1.1,2.8,2.9c0,1.8-1.2,2.9-2.8,2.9c-1.6,0-2.8-1.2-2.8-2.9
		C116.2,320.9,117.4,319.8,119,319.8z M119,320.6c-1.1,0-1.8,0.8-1.8,2c0,1.1,0.8,2.1,1.8,2.1c1.1,0,1.8-0.8,1.8-2.1
		C120.8,321.6,120,320.6,119,320.6z"/>
	<path fill="#FFFFFF" d="M124,323.6c0,0.8,0.3,1.1,0.9,1.1c0.3,0,0.5-0.1,0.7-0.2l0.2,0.8c-0.3,0.1-0.6,0.2-1.1,0.2
		c-1,0-1.7-0.5-1.7-1.9v-6.2h1V323.6z"/>
	<path fill="#FFFFFF" d="M128.8,319.8c0.6,0,1.2,0.3,1.6,0.6v-0.4h0.9v4.2c0,0.5,0.3,0.7,0.6,0.7l-0.2,0.7c-0.7,0-1.1-0.3-1.2-0.8
		c-0.3,0.5-0.9,0.9-1.7,0.9c-1.4,0-2.5-1.1-2.5-2.9C126.2,321.1,127.3,319.8,128.8,319.8z M130.3,324.1v-3c-0.4-0.3-0.9-0.4-1.4-0.4
		c-1,0-1.7,0.8-1.7,2.1c0,1.2,0.7,2.1,1.7,2.1C129.5,324.8,130,324.5,130.3,324.1z M127.9,318.7l2-1.3l0.4,0.9l-2.1,1.1L127.9,318.7
		z"/>
	<path fill="#FFFFFF" d="M134.1,320.9c0.4-0.6,1-1.1,1.8-1.1c0.9,0,1.4,0.5,1.7,1.2c0.4-0.7,1-1.2,1.9-1.2c1.2,0,1.8,0.8,1.8,2.1
		v3.6h-1v-3.6c0-0.8-0.4-1.3-1-1.3c-0.6,0-1.2,0.6-1.6,1.2v3.6h-1v-3.6c0-0.8-0.4-1.3-1-1.3c-0.6,0-1.2,0.5-1.6,1.2v3.7h-1v-5.6h0.9
		V320.9z"/>
	<path fill="#FFFFFF" d="M143.6,323.1c0.1,1,0.7,1.7,1.7,1.7c0.6,0,1.1-0.1,1.6-0.4l0.2,0.8c-0.5,0.2-1.2,0.4-1.9,0.4
		c-1.6,0-2.6-1.1-2.6-2.9c0-1.7,1-2.9,2.5-2.9c1.6,0,2.4,1.2,2.4,2.6c0,0.3,0,0.5,0,0.7H143.6z M143.6,322.3h3
		c0-1.1-0.6-1.7-1.5-1.7C144.3,320.6,143.7,321.2,143.6,322.3z"/>
	<path fill="#FFFFFF" d="M155.1,318.6c-0.3-0.2-0.6-0.3-1-0.3c-0.6,0-1,0.4-1,1.1v0.7h1.6v0.8h-1.6v4.5h-1V321h-0.9v-0.8h0.9v-0.7
		c0-1.3,0.8-2,1.9-2c0.6,0,1,0.2,1.4,0.4L155.1,318.6z"/>
	<path fill="#FFFFFF" d="M160.7,325.5c-0.7,0-1.1-0.3-1.2-0.8c-0.5,0.5-1.2,0.9-1.9,0.9c-1,0-1.9-0.6-1.9-2.1v-3.6h1v3.5
		c0,0.9,0.4,1.3,1.1,1.3c0.6,0,1.2-0.3,1.6-0.7v-4.2h1v4.1c0,0.6,0.3,0.7,0.6,0.7L160.7,325.5z"/>
	<path fill="#FFFFFF" d="M163.1,320.9c0.4-0.6,1-1.1,1.9-1.1c1.3,0,1.9,0.8,1.9,2.1v3.6h-1V322c0-0.8-0.4-1.3-1.1-1.3
		c-0.7,0-1.3,0.5-1.7,1.2v3.7h-1v-5.6h0.9V320.9z"/>
	<path fill="#FFFFFF" d="M168.5,317.6h1v4.5l2.5-2.3l0.6,0.6l-2.2,1.9l2.6,2.6l-0.7,0.6l-2.9-3v2.9h-1V317.6z"/>
	<path fill="#FFFFFF" d="M177.4,320.9c-0.4-0.2-0.7-0.3-1.2-0.3c-1,0-1.8,0.8-1.8,2c0,1.2,0.7,2.1,1.7,2.1c0.5,0,0.9-0.1,1.3-0.4
		l0.3,0.8c-0.4,0.2-1,0.4-1.7,0.4c-1.6,0-2.6-1.2-2.6-2.9c0-1.6,1-2.9,2.7-2.9c0.6,0,1.1,0.1,1.5,0.3L177.4,320.9z"/>
	<path fill="#FFFFFF" d="M178.7,318.3c0-0.4,0.3-0.7,0.7-0.7c0.4,0,0.7,0.3,0.7,0.7c0,0.4-0.3,0.7-0.7,0.7
		C179,319,178.7,318.7,178.7,318.3z M179.9,325.5h-1v-5.6h1V325.5z"/>
	<path fill="#FFFFFF" d="M102.2,333.8c-0.4-0.2-0.7-0.3-1.2-0.3c-1,0-1.8,0.8-1.8,2c0,1.2,0.7,2.1,1.7,2.1c0.5,0,0.9-0.1,1.3-0.4
		l0.3,0.8c-0.4,0.2-1,0.4-1.7,0.4c-1.6,0-2.6-1.2-2.6-2.9c0-1.6,1-2.9,2.7-2.9c0.6,0,1.1,0.1,1.5,0.3L102.2,333.8z"/>
	<path fill="#FFFFFF" d="M105.9,332.6c1.6,0,2.8,1.1,2.8,2.9c0,1.8-1.2,2.9-2.8,2.9c-1.6,0-2.8-1.2-2.8-2.9
		C103.1,333.7,104.3,332.6,105.9,332.6z M105.9,333.5c-1.1,0-1.8,0.8-1.8,2c0,1.1,0.8,2.1,1.8,2.1c1.1,0,1.8-0.8,1.8-2.1
		C107.7,334.4,106.9,333.5,105.9,333.5z"/>
	<path fill="#FFFFFF" d="M114.9,338.4c-0.7,0-1.1-0.3-1.2-0.8c-0.5,0.5-1.2,0.9-1.9,0.9c-1,0-1.9-0.6-1.9-2.1v-3.6h1v3.5
		c0,0.9,0.4,1.3,1.1,1.3c0.6,0,1.2-0.3,1.6-0.7v-4.2h1v4.1c0,0.6,0.3,0.7,0.6,0.7L114.9,338.4z"/>
	<path fill="#FFFFFF" d="M117.4,333.7c0.4-0.6,1-1.1,1.9-1.1c1.3,0,1.9,0.8,1.9,2.1v3.6h-1v-3.5c0-0.8-0.4-1.3-1.1-1.3
		c-0.7,0-1.3,0.5-1.7,1.2v3.7h-1v-5.6h0.9V333.7z"/>
	<path fill="#FFFFFF" d="M123.2,331.2h0.7v1.8h1.5v0.8h-1.5v2.7c0,0.8,0.4,1.1,0.9,1.1c0.4,0,0.7-0.1,1-0.3l0.3,0.8
		c-0.3,0.2-0.8,0.4-1.3,0.4c-1.1,0-1.7-0.7-1.7-2v-2.6h-1V333h1L123.2,331.2z"/>
	<path fill="#FFFFFF" d="M126.4,335.6c0-1.7,1.1-2.9,2.5-2.9c0.7,0,1.3,0.4,1.6,0.7v-2.9h1v6.6c0,0.5,0.3,0.7,0.6,0.7l-0.2,0.7
		c-0.7,0-1.1-0.3-1.2-0.8c-0.3,0.4-0.9,0.9-1.7,0.9C127.5,338.5,126.4,337.3,126.4,335.6z M130.5,336.9v-2.8
		c-0.3-0.3-0.8-0.7-1.4-0.7c-1,0-1.7,0.9-1.7,2.1c0,1.2,0.7,2.1,1.7,2.1C129.6,337.6,130.1,337.3,130.5,336.9z"/>
	<path fill="#FFFFFF" d="M135.6,332.6c1.6,0,2.8,1.1,2.8,2.9c0,1.8-1.2,2.9-2.8,2.9c-1.6,0-2.8-1.2-2.8-2.9
		C132.8,333.7,134,332.6,135.6,332.6z M135.6,333.5c-1.1,0-1.8,0.8-1.8,2c0,1.1,0.8,2.1,1.8,2.1c1.1,0,1.8-0.8,1.8-2.1
		C137.4,334.4,136.6,333.5,135.6,333.5z"/>
	<path fill="#FFFFFF" d="M146.3,332.7l0.9,0.3l-1.8,5.3h-1.1l-1.3-4.1l-1.3,4.1h-1.1l-1.8-5.3l0.9-0.3l1.4,4.5l1.3-4.1h1l1.3,4.1
		L146.3,332.7z"/>
	<path fill="#FFFFFF" d="M149.2,333.7c0.4-0.6,1-1.1,1.9-1.1c1.3,0,1.9,0.8,1.9,2.1v3.6h-1v-3.5c0-0.8-0.4-1.3-1.1-1.3
		c-0.7,0-1.3,0.5-1.7,1.2v3.7h-1v-5.6h0.9V333.7z"/>
	<path fill="#FFFFFF" d="M156.4,339.3l-0.6,0.3c-0.9-1.6-1.4-3.1-1.4-4.7c0-1.8,0.5-3.2,1.4-4.7l0.6,0.3c-0.5,1.2-1,2.7-1,4.4
		S155.8,338.1,156.4,339.3z"/>
	<path fill="#FFFFFF" d="M157.8,337.1c0.4,0.3,1,0.5,1.6,0.5c0.8,0,1.2-0.3,1.2-0.7c0-0.4-0.3-0.7-1.4-1.1c-1-0.4-1.6-0.8-1.6-1.7
		c0-0.9,0.8-1.5,2.1-1.5c0.7,0,1.3,0.2,1.7,0.4l-0.3,0.8c-0.4-0.2-0.9-0.4-1.5-0.4c-0.7,0-1.1,0.4-1.1,0.7c0,0.3,0.2,0.5,1.1,0.8
		c1.4,0.5,1.9,1,1.9,1.9c0,1-0.9,1.6-2.2,1.6c-0.8,0-1.5-0.2-2-0.6L157.8,337.1z"/>
	<path fill="#FFFFFF" d="M163.5,335.9c0.1,1,0.7,1.7,1.7,1.7c0.6,0,1.1-0.1,1.6-0.4l0.2,0.8c-0.5,0.2-1.2,0.4-1.9,0.4
		c-1.6,0-2.6-1.1-2.6-2.9c0-1.7,1-2.9,2.5-2.9c1.6,0,2.4,1.2,2.4,2.6c0,0.3,0,0.5,0,0.7H163.5z M163.4,335.2h3
		c0-1.1-0.6-1.7-1.5-1.7C164.1,333.5,163.6,334.1,163.4,335.2z"/>
	<path fill="#FFFFFF" d="M172.2,333.8c-0.4-0.2-0.7-0.3-1.2-0.3c-1,0-1.8,0.8-1.8,2c0,1.2,0.7,2.1,1.7,2.1c0.5,0,0.9-0.1,1.3-0.4
		l0.3,0.8c-0.4,0.2-1,0.4-1.7,0.4c-1.6,0-2.6-1.2-2.6-2.9c0-1.6,1-2.9,2.7-2.9c0.6,0,1.1,0.1,1.5,0.3L172.2,333.8z"/>
	<path fill="#FFFFFF" d="M176,332.6c1.6,0,2.8,1.1,2.8,2.9c0,1.8-1.2,2.9-2.8,2.9c-1.6,0-2.8-1.2-2.8-2.9
		C173.2,333.7,174.4,332.6,176,332.6z M176,333.5c-1.1,0-1.8,0.8-1.8,2c0,1.1,0.8,2.1,1.8,2.1c1.1,0,1.8-0.8,1.8-2.1
		C177.7,334.4,177,333.5,176,333.5z"/>
	<path fill="#FFFFFF" d="M180.9,333.7c0.4-0.6,1-1.1,1.9-1.1c1.3,0,1.9,0.8,1.9,2.1v3.6h-1v-3.5c0-0.8-0.4-1.3-1.1-1.3
		c-0.7,0-1.3,0.5-1.7,1.2v3.7h-1v-5.6h0.9V333.7z"/>
	<path fill="#FFFFFF" d="M186,335.6c0-1.7,1.1-2.9,2.5-2.9c0.7,0,1.3,0.4,1.6,0.7v-2.9h1v6.6c0,0.5,0.3,0.7,0.6,0.7l-0.2,0.7
		c-0.7,0-1.1-0.3-1.2-0.8c-0.3,0.4-0.9,0.9-1.7,0.9C187.1,338.5,186,337.3,186,335.6z M190,336.9v-2.8c-0.3-0.3-0.8-0.7-1.4-0.7
		c-1,0-1.7,0.9-1.7,2.1c0,1.2,0.7,2.1,1.7,2.1C189.2,337.6,189.7,337.3,190,336.9z"/>
	<path fill="#FFFFFF" d="M192.8,337.1c0.4,0.3,1,0.5,1.6,0.5c0.8,0,1.2-0.3,1.2-0.7c0-0.4-0.3-0.7-1.4-1.1c-1-0.4-1.6-0.8-1.6-1.7
		c0-0.9,0.8-1.5,2.1-1.5c0.7,0,1.3,0.2,1.7,0.4l-0.3,0.8c-0.4-0.2-0.9-0.4-1.5-0.4c-0.7,0-1.1,0.4-1.1,0.7c0,0.3,0.2,0.5,1.1,0.8
		c1.4,0.5,1.9,1,1.9,1.9c0,1-0.9,1.6-2.2,1.6c-0.8,0-1.5-0.2-2-0.6L192.8,337.1z"/>
	<path fill="#FFFFFF" d="M197.7,330.5l0.6-0.3c0.9,1.5,1.4,3,1.4,4.7c0,1.7-0.5,3.2-1.4,4.7l-0.6-0.3c0.5-1.2,1-2.7,1-4.4
		S198.2,331.7,197.7,330.5z"/>
</g>
</svg>
