<?xml version="1.0" encoding="utf-8"?>
<!-- Generator: Adobe Illustrator 18.0.0, SVG Export Plug-In . SVG Version: 6.00 Build 0)  -->
<!DOCTYPE svg PUBLIC "-//W3C//DTD SVG 1.1//EN" "http://www.w3.org/Graphics/SVG/1.1/DTD/svg11.dtd">
<svg version="1.1" id="Vrstva_1" xmlns="http://www.w3.org/2000/svg" xmlns:xlink="http://www.w3.org/1999/xlink" x="0px" y="0px"
	 viewBox="0 0 499.4 236.7" enable-background="new 0 0 499.4 236.7" xml:space="preserve">
<g id="error" display="none">
	<rect x="-62.3" y="245.4" display="inline" opacity="0.9" enable-background="new    " width="125" height="54.2"/>
	<rect x="-62.4" y="257.9" display="inline" fill="#ED1D2B" width="125.1" height="23.5"/>
	
		<text transform="matrix(1 0 0 1 -53.7207 266.2324)" display="inline" fill="#FFFFFF" font-family="'Roboto-Light'" font-size="7.1428">Error</text>
	
		<text transform="matrix(1 0 0 1 -53.1543 274.2441)" display="inline" fill="#FFFFFF" font-family="'Roboto-Light'" font-size="3.4014">Naskytla se nějaká chyba.</text>
	<rect x="39.1" y="274.9" display="inline" fill="none" stroke="#FFFFFF" stroke-miterlimit="10" width="19.6" height="4.2"/>
	
		<text transform="matrix(1 0 0 1 47.333 278.3516)" display="inline" fill="#FFFFFF" font-family="'Roboto-Light'" font-size="3.2389">Ok</text>
</g>
<g>
	<rect x="26.3" y="142" fill="#F2F2F2" width="285.3" height="93.5"/>
	<rect x="313.1" y="143.1" fill="#ED1A46" width="33.7" height="93.4"/>
	<rect x="323.6" y="186.7" fill="#FFFFFF" width="12.9" height="2"/>
	<rect x="323.6" y="193.2" fill="#FFFFFF" width="12.9" height="2.1"/>
	<g id="frame">
		<rect y="0" fill="#303030" width="499.1" height="20.5"/>
		<g id="close_button">
			<rect x="479.3" y="0" fill="#C82027" width="20.5" height="20.5"/>
			<g>
				<path fill="#FFFFFF" d="M9,10.6l-3.3,4.2h5.3v0.7H4.8V15l3.4-4.5l-3.4-4V5.8h6.3v0.7H5.9l0,0L9,10.3C9,10.3,9,10.6,9,10.6z"/>
			</g>
			<polygon fill="#FFFFFF" points="11,6.5 10.6,6.5 11,7 			"/>
			<polygon fill="#FFFFFF" points="11,14.8 10.6,14.8 11,14.4 			"/>
			<rect x="5.4" y="9" fill="#C82027" width="4.9" height="0.8"/>
			<rect x="5.4" y="11.5" fill="#C82027" width="4.9" height="0.8"/>
			
				<rect x="489.3" y="2.1" transform="matrix(-0.7073 0.7069 -0.7069 -0.7073 842.8934 -328.8814)" fill="#E1E1E1" width="0.6" height="16"/>
			
				<rect x="489.2" y="2.1" transform="matrix(0.7073 0.7069 -0.7069 0.7073 150.4091 -343.0732)" fill="#E1E1E1" width="0.6" height="16"/>
		</g>
		<g>
			<path fill="#F7F7F7" d="M17.6,15.5V5.7h2.9c1,0,1.8,0.3,2.5,0.7c0.6,0.5,0.8,1,0.8,1.8c0,0.5-0.1,1-0.5,1.3
				C23,10,22.5,10.3,22,10.3c0.6,0.1,1.1,0.5,1.5,0.8c0.5,0.5,0.6,1,0.6,1.6c0,0.8-0.3,1.5-0.8,2c-0.6,0.5-1.4,0.7-2.3,0.7
				L17.6,15.5C17.6,15.6,17.6,15.5,17.6,15.5z M18.4,10h2.3c0.7,0,1.3-0.1,1.6-0.5c0.5-0.3,0.6-0.8,0.6-1.3c0-0.7-0.3-1-0.7-1.3
				c-0.5-0.3-1-0.5-1.8-0.5h-2.1C18.4,6.5,18.4,10,18.4,10z M18.4,10.8v4h2.6c0.7,0,1.3-0.1,1.8-0.5c0.5-0.5,0.7-0.8,0.7-1.5
				c0-0.5-0.1-1-0.6-1.5c-0.5-0.5-1-0.5-1.6-0.5C21.2,10.8,18.4,10.8,18.4,10.8z"/>
			<path fill="#F7F7F7" d="M30.6,15.5c0-0.3-0.1-0.5-0.1-0.7c0-0.1,0-0.5,0-0.5c-0.3,0.5-0.7,0.7-1.1,1c-0.5,0.3-1,0.5-1.5,0.5
				c-0.7,0-1.3-0.2-1.6-0.5c-0.4-0.4-0.6-0.8-0.6-1.5s0.3-1.3,0.8-1.6c0.6-0.5,1.4-0.5,2.3-0.5h1.6v-1c0-0.5-0.1-1-0.6-1.3
				c-0.5-0.3-0.8-0.5-1.4-0.5c-0.6,0-1.1,0.2-1.4,0.5c-0.3,0.3-0.6,0.7-0.6,1H26l0,0c0-0.5,0.3-1,0.7-1.5c0.5-0.5,1.3-0.7,2.1-0.7
				s1.5,0.3,1.9,0.7c0.6,0.5,0.7,1,0.7,1.8v3.5c0,0.3,0,0.5,0,0.7s0.1,0.5,0.1,0.7L30.6,15.5L30.6,15.5z M27.8,14.9
				c0.6,0,1.1-0.2,1.5-0.5c0.5-0.3,0.8-0.7,1-1v-1.5h-1.6c-0.7,0-1.4,0.1-1.8,0.5c-0.5,0.3-0.7,0.7-0.7,1.3c0,0.5,0.1,0.7,0.5,1
				C27,14.8,27.5,14.9,27.8,14.9z"/>
			<path fill="#F7F7F7" d="M36.7,9h-0.6c-0.6,0-1,0.1-1.3,0.5c-0.3,0.3-0.6,0.7-0.7,1.3v5h-0.8V8.3H34l0.1,1.3v0.1
				c0.3-0.5,0.6-0.8,0.8-1s0.8-0.5,1.3-0.5c0.1,0,0.1,0,0.3,0c0.3,0.1,0.3,0.1,0.5,0.1L36.7,9z"/>
			<path fill="#F7F7F7" d="M43.9,12.1c0,1-0.3,1.8-0.7,2.5c-0.6,0.7-1.3,1-2.1,1c-0.6,0-1-0.2-1.4-0.3c-0.5-0.2-0.7-0.5-1-1l-0.1,1
				h-0.6V5h0.8v4.3c0.3-0.5,0.6-0.7,1-1c0.5-0.3,0.8-0.3,1.4-0.3c0.8,0,1.5,0.5,2.1,1C43.8,10,43.9,10.9,43.9,12.1L43.9,12.1z
				 M43.1,12c0-1-0.1-1.6-0.6-2.3c-0.5-0.5-1-0.8-1.6-0.8c-0.6,0-1,0.1-1.4,0.5c-0.5,0.3-0.6,0.7-0.8,1v3.3c0.1,0.5,0.5,0.8,0.8,1
				c0.5,0.3,0.8,0.5,1.4,0.5c0.7,0,1.3-0.3,1.6-0.8C43,13.6,43.1,13,43.1,12L43.1,12z"/>
			<path fill="#F7F7F7" d="M46.6,6.1h-0.8v-1h0.8V6.1z M46.6,15.5h-0.8V8.1h0.8V15.5z"/>
			<path fill="#F7F7F7" d="M51.5,15.6c-1,0-1.6-0.3-2.3-1c-0.6-0.7-1-1.5-1-2.5v-0.5c0-1,0.3-1.8,1-2.5c0.6-0.7,1.4-1,2.2-1
				c1,0,1.6,0.3,2.2,0.8c0.6,0.7,0.8,1.3,0.8,2.3v0.7h-5.2V12c0,0.8,0.3,1.5,0.7,2s1,0.8,1.8,0.8c0.6,0,1-0.2,1.3-0.3
				c0.3-0.1,0.7-0.3,1-0.5l0.5,0.5c-0.3,0.3-0.7,0.5-1.1,0.7C52.6,15.5,52.2,15.6,51.5,15.6z M51.5,8.8C51,8.8,50.5,9,50,9.5
				c-0.5,0.5-0.7,1-0.7,1.8l0,0h4.2V11c0-0.7-0.1-1.3-0.6-1.6C52.6,9,52.1,8.8,51.5,8.8z"/>
			<path fill="#F7F7F7" d="M66.2,12.5L66.2,12.5c-0.1,1-0.5,1.8-1.1,2.3c-0.7,0.5-1.5,0.8-2.5,0.8c-1.1,0-1.9-0.5-2.6-1.3
				c-0.7-0.8-1-1.8-1-3.1V9.8c0-1.3,0.3-2.3,1-3.1s1.5-1.3,2.6-1.3s1.9,0.3,2.5,0.8c0.6,0.5,1,1.3,1.1,2.3l0,0h-0.8
				c-0.1-0.8-0.5-1.5-0.8-1.8S63.5,6,62.7,6s-1.5,0.3-2.1,1c-0.6,0.7-0.8,1.5-0.8,2.5V11c0,1,0.3,1.8,0.8,2.5c0.6,0.7,1.3,1,2.1,1
				s1.5-0.3,1.9-0.7c0.5-0.5,0.7-1,0.8-1.8h0.8C66.2,12,66.2,12.5,66.2,12.5z"/>
			<path fill="#F7F7F7" d="M72.7,15.5c0-0.3-0.1-0.5-0.1-0.7c0-0.1,0-0.5,0-0.5c-0.3,0.5-0.7,0.7-1.1,1s-1,0.5-1.5,0.5
				c-0.7,0-1.3-0.2-1.6-0.5c-0.5-0.5-0.6-0.8-0.6-1.5s0.3-1.3,0.8-1.6c0.6-0.5,1.4-0.5,2.3-0.5h1.6v-1c0-0.5-0.1-1-0.6-1.3
				s-0.8-0.5-1.4-0.5c-0.6,0-1.1,0.2-1.4,0.5c-0.3,0.3-0.6,0.7-0.6,1h-0.7l0,0c0-0.5,0.3-1,0.7-1.5s1.3-0.7,2.1-0.7s1.5,0.3,1.9,0.7
				c0.5,0.3,0.7,0.8,0.7,1.6v3.5c0,0.3,0,0.5,0,0.7s0.1,0.5,0.1,0.7h-0.8L72.7,15.5L72.7,15.5z M70.1,14.9c0.6,0,1.1-0.2,1.5-0.5
				c0.5-0.3,0.8-0.7,1-1v-1.5h-1.6c-0.7,0-1.4,0.1-1.8,0.5c-0.4,0.3-0.7,0.7-0.7,1.3c0,0.5,0.1,0.7,0.5,1
				C69.2,14.8,69.6,14.9,70.1,14.9z"/>
			<path fill="#F7F7F7" d="M76.3,15.5h-0.8V5h0.8V15.5z"/>
			<path fill="#F7F7F7" d="M81.4,14.9c0.6,0,1-0.2,1.4-0.5c0.5-0.3,0.7-0.7,0.7-1.3h0.7l0,0c0,0.7-0.3,1.3-0.8,1.6
				c-0.6,0.5-1.3,0.7-1.9,0.7c-1,0-1.8-0.5-2.3-1c-0.6-0.7-0.8-1.5-0.8-2.5v-0.3c0-1,0.3-1.8,0.8-2.5c0.6-0.7,1.4-1,2.3-1
				c0.8,0,1.5,0.3,2.1,0.7c0.6,0.5,0.8,1,0.8,1.8l0,0h-0.7c0-0.5-0.1-1-0.6-1.3c-0.5-0.5-0.8-0.5-1.5-0.5c-0.8,0-1.4,0.3-1.8,0.8
				c-0.5,0.5-0.7,1.3-0.7,2.2V12c0,0.8,0.1,1.6,0.6,2.2C80,14.6,80.6,14.9,81.4,14.9z"/>
			<path fill="#F7F7F7" d="M90.5,14.3c-0.3,0.5-0.6,0.8-1,1c-0.5,0.3-0.8,0.5-1.4,0.5c-0.8,0-1.4-0.3-1.8-0.8
				c-0.5-0.5-0.7-1.3-0.7-2.5V8.2h0.8v4.2c0,1,0.1,1.5,0.5,1.8c0.3,0.5,0.7,0.5,1.3,0.5c0.6,0,1.1-0.2,1.5-0.5s0.7-0.7,0.8-1V8.1
				h0.8v7.3h-0.7L90.5,14.3z"/>
			<path fill="#F7F7F7" d="M94.3,15.5h-0.8V5h0.8V15.5z"/>
			<path fill="#F7F7F7" d="M101.3,15.5c0-0.3-0.1-0.5-0.1-0.7c0-0.1,0-0.5,0-0.5c-0.3,0.5-0.7,0.7-1.1,1c-0.5,0.3-1,0.5-1.5,0.5
				c-0.7,0-1.3-0.2-1.6-0.5c-0.4-0.5-0.6-0.8-0.6-1.5s0.3-1.3,0.8-1.6c0.6-0.5,1.4-0.5,2.3-0.5h1.6v-1c0-0.5-0.1-1-0.6-1.3
				s-0.8-0.5-1.4-0.5c-0.6,0-1.1,0.2-1.4,0.5c-0.3,0.3-0.6,0.7-0.6,1h-0.7l0,0c0-0.5,0.3-1,0.7-1.5s1.3-0.7,2.1-0.7s1.5,0.3,1.9,0.7
				c0.6,0.5,0.7,1,0.7,1.8v3.5c0,0.3,0,0.5,0,0.7s0.1,0.5,0.1,0.7L101.3,15.5L101.3,15.5z M98.5,14.9c0.6,0,1.1-0.2,1.5-0.5
				c0.5-0.3,0.8-0.7,1-1v-1.5h-1.6c-0.7,0-1.4,0.1-1.8,0.5c-0.5,0.3-0.7,0.7-0.7,1.3c0,0.5,0.1,0.7,0.5,1
				C97.7,14.8,98.1,14.9,98.5,14.9z"/>
			<path fill="#F7F7F7" d="M105.3,6.4v1.8h1.6v0.7h-1.6v4.8c0,0.5,0.1,0.8,0.3,1c0.1,0.1,0.5,0.3,0.7,0.3c0.1,0,0.3,0,0.5,0
				c0.1,0,0.3,0,0.5,0l0.1,0.5c-0.1,0-0.3,0.1-0.6,0.1c-0.3,0-0.5,0-0.6,0c-0.6,0-1-0.1-1.3-0.5c-0.3-0.3-0.5-0.8-0.5-1.5V8.8h-1.3
				V8.1h1.3V6.3L105.3,6.4C105.3,6.3,105.3,6.4,105.3,6.4z"/>
			<path fill="#F7F7F7" d="M108.1,11.7c0-1,0.3-1.8,0.8-2.5c0.6-0.7,1.4-1,2.3-1s1.8,0.5,2.3,1c0.6,0.7,0.8,1.6,0.8,2.5V12
				c0,1-0.3,1.8-0.8,2.5c-0.6,0.7-1.4,1-2.3,1s-1.8-0.5-2.3-1c-0.6-0.7-0.8-1.6-0.8-2.5V11.7z M108.9,12c0,0.8,0.3,1.5,0.7,2.2
				c0.5,0.5,1.1,0.8,1.8,0.8c0.8,0,1.4-0.3,1.8-0.8c0.5-0.5,0.7-1.3,0.7-2.2v-0.3c0-0.8-0.3-1.5-0.7-2.2c-0.5-0.5-1.1-0.8-1.8-0.8
				c-0.8,0-1.4,0.3-1.8,0.8c-0.5,0.5-0.7,1.3-0.7,2.2V12z"/>
			<path fill="#F7F7F7" d="M119.5,9h-0.6c-0.6,0-1,0.1-1.3,0.5c-0.3,0.3-0.6,0.7-0.7,1.3v5h-0.8V8.3h0.7v1.3v0.1
				c0.3-0.5,0.6-0.8,0.8-1c0.3-0.3,0.8-0.5,1.3-0.5c0.1,0,0.1,0,0.3,0c0.2,0,0.1,0,0.3,0L119.5,9z"/>
		</g>
	</g>
	<g id="display">
		<rect x="0.3" y="20.3" fill="#F7F7F7" width="345.7" height="123.1"/>
		<g>
			<path fill="#303030" d="M260.9,78.9c0,3.1-0.7,5.6-2.2,7.2c-1.4,1.6-3.4,2.5-5.9,2.5c-2.5,0-4.4-0.8-5.9-2.5
				c-1.5-1.6-2.2-4-2.2-7.2v-5.5c0-3.1,0.7-5.6,2.2-7.2c1.5-1.6,3.4-2.4,5.9-2.4s4.4,0.8,5.9,2.4c1.5,1.7,2.2,4.1,2.2,7.2V78.9z
				 M256.8,72.8c0-2-0.3-3.3-0.9-4.3c-0.7-0.9-1.6-1.5-2.9-1.5s-2.2,0.6-2.9,1.5c-0.7,0.9-0.9,2.4-0.9,4.3v6.7c0,2,0.3,3.5,0.9,4.5
				c0.7,0.9,1.6,1.5,2.9,1.5s2.2-0.6,2.9-1.5c0.6-1,0.9-2.5,0.9-4.5V72.8z"/>
			<path fill="#303030" d="M269.1,88.3h-4.1v-4h4.1V88.3z"/>
			<path fill="#303030" d="M287.5,79.7h3.1v3.3h-3.1v5.4h-4.1v-5.4h-10.3l-0.1-2.5l10.3-16.3h4.2L287.5,79.7L287.5,79.7z M277,79.7
				h6.5v-9.8h-0.1l-0.3,0.7L277,79.7z"/>
			<path fill="#303030" d="M306.8,79.7h3.1v3.3h-3.1v5.4h-4v-5.4h-10.4l-0.1-2.5l10.3-16.3h4.2L306.8,79.7L306.8,79.7z M296.3,79.7
				h6.5v-9.8h-0.1l-0.3,0.7L296.3,79.7z"/>
			<path fill="#303030" d="M326.2,79.7h3.1v3.3h-3.1v5.4h-4.1v-5.4h-10.3l-0.1-2.5L322,64.2h4.2V79.7z M315.6,79.7h6.5v-9.8H322
				l-0.3,0.7L315.6,79.7z"/>
		</g>
	</g>
	<g id="extension">
		<rect x="0.3" y="143" fill="#2B2B2B" width="27.2" height="13.5"/>
		<g>
			<path fill="#FFFFFF" d="M10.6,150c0,0.6-0.1,1.1-0.4,1.5c-0.3,0.4-0.7,0.6-1.1,0.6c-0.3,0-0.6,0-0.8-0.2
				c-0.3-0.1-0.4-0.3-0.6-0.4v2.2H7.1v-5.6h0.4v0.7c0.1-0.3,0.3-0.4,0.6-0.6c0.3-0.1,0.4-0.1,0.8-0.1c0.6,0,0.8,0.1,1.1,0.6
				C10.4,148.8,10.6,149.3,10.6,150L10.6,150z M10.1,149.9c0-0.6-0.1-0.9-0.3-1.3c-0.3-0.3-0.6-0.6-0.9-0.6c-0.3,0-0.6,0.1-0.7,0.3
				c-0.1,0.1-0.3,0.3-0.4,0.6v1.8c0.1,0.3,0.3,0.4,0.4,0.6c0.1,0.2,0.4,0.2,0.7,0.2c0.4,0,0.7-0.2,0.9-0.4
				C10.1,150.8,10.1,150.4,10.1,149.9L10.1,149.9z"/>
			<path fill="#FFFFFF" d="M11.3,149.9c0-0.6,0.1-1.1,0.6-1.5s0.8-0.6,1.3-0.6c0.6,0,0.9,0.1,1.3,0.6c0.4,0.4,0.6,0.8,0.6,1.5v0.1
				c0,0.6-0.1,1.1-0.6,1.5c-0.4,0.4-0.8,0.6-1.3,0.6s-0.9-0.1-1.3-0.6C11.4,151.1,11.3,150.6,11.3,149.9L11.3,149.9z M11.8,149.9
				c0,0.4,0.1,0.8,0.4,1.3c0.3,0.4,0.6,0.6,0.9,0.6c0.4,0,0.8-0.1,0.9-0.6c0.3-0.3,0.4-0.7,0.4-1.3v-0.2c0-0.4-0.1-0.8-0.4-1.3
				c-0.3-0.3-0.6-0.6-0.9-0.6c-0.4,0-0.8,0.1-0.9,0.6C12.1,148.9,11.8,149.3,11.8,149.9L11.8,149.9z"/>
			<path fill="#FFFFFF" d="M16.7,150.6l0.1,0.7l0,0l0.1-0.7l0.8-2.8h0.4l0.8,2.8l0.1,0.7l0,0l0.1-0.7l0.7-2.8h0.4l-1.3,4.1h0.1
				l-0.9-2.8l-0.1-0.7l0,0l-0.1,0.7l-0.9,2.8h-0.4l-1.3-4.1h0.4L16.7,150.6z"/>
		</g>
		<rect x="0.3" y="156.4" fill="#2B2B2B" width="27.2" height="13.5"/>
		<g>
			<path fill="#EE1D3E" d="M9.5,161.6H9.3c-0.3,0-0.6,0.1-0.7,0.3c-0.2,0.1-0.3,0.4-0.4,0.7v2.8H7.6v-4.1H8v0.7l0,0
				c0.1-0.3,0.3-0.4,0.4-0.6c0.1-0.1,0.4-0.3,0.7-0.3h0.1h0.1L9.5,161.6z"/>
			<path fill="#EE1D3E" d="M9.9,163.1c0-0.6,0.1-1.1,0.6-1.5c0.4-0.4,0.8-0.6,1.3-0.6c0.6,0,0.9,0.2,1.3,0.6
				c0.4,0.4,0.6,0.8,0.6,1.5v0.2c0,0.6-0.1,1.1-0.6,1.5c-0.4,0.4-0.8,0.6-1.3,0.6c-0.6,0-0.9-0.1-1.3-0.6
				C10.1,164.4,9.9,163.9,9.9,163.1L9.9,163.1z M10.3,163.1c0,0.4,0.1,0.8,0.4,1.3c0.3,0.4,0.6,0.6,0.9,0.6c0.4,0,0.8-0.1,0.9-0.6
				c0.3-0.3,0.4-0.7,0.4-1.3V163c0-0.4-0.1-0.8-0.4-1.3c-0.3-0.3-0.6-0.6-0.9-0.6c-0.4,0-0.8,0.1-0.9,0.6
				C10.6,162.3,10.3,162.6,10.3,163.1L10.3,163.1z"/>
			<path fill="#EE1D3E" d="M14.3,163.1c0-0.6,0.1-1.1,0.6-1.5c0.4-0.4,0.8-0.6,1.3-0.6c0.6,0,0.9,0.2,1.3,0.6
				c0.4,0.4,0.6,0.8,0.6,1.5v0.2c0,0.6-0.1,1.1-0.6,1.5c-0.4,0.4-0.8,0.6-1.3,0.6s-0.9-0.1-1.3-0.6
				C14.3,164.4,14.3,163.9,14.3,163.1L14.3,163.1z M14.7,163.1c0,0.4,0.1,0.8,0.4,1.3c0.3,0.4,0.6,0.6,0.9,0.6
				c0.4,0,0.8-0.1,0.9-0.6c0.3-0.3,0.4-0.7,0.4-1.3V163c0-0.4-0.1-0.8-0.4-1.3c-0.3-0.3-0.6-0.6-0.9-0.6c-0.4,0-0.8,0.1-0.9,0.6
				C14.9,162.3,14.7,162.6,14.7,163.1L14.7,163.1z"/>
			<path fill="#EE1D3E" d="M19.4,160.1v1.1h0.9v0.4h-0.9v2.8c0,0.3,0,0.4,0.1,0.6c0.1,0.1,0.3,0.1,0.4,0.1s0.1,0,0.3,0
				c0.1,0,0.1,0,0.3,0v0.3c-0.1,0-0.1,0-0.3,0.1c-0.1,0-0.3,0-0.3,0c-0.3,0-0.6-0.1-0.7-0.3c-0.2-0.2-0.3-0.4-0.3-0.8v-2.8h-0.7
				v-0.4h0.6V160L19.4,160.1L19.4,160.1z"/>
		</g>
		<rect x="0.3" y="169.9" fill="#2B2B2B" width="27.2" height="13.5"/>
		<g>
			<path fill="#FFFFFF" d="M8.1,178.8v-3.7H7.4v-0.4h0.7v-0.7c0-0.4,0.1-0.7,0.3-0.9c0.3-0.3,0.6-0.3,0.8-0.3c0.1,0,0.1,0,0.3,0
				c0.1,0,0.1,0,0.3,0v0.4H9.6c0,0-0.1,0-0.3,0c-0.3,0-0.4,0.1-0.6,0.3c-0.1,0.1-0.1,0.4-0.1,0.7v0.6h0.9v0.4H8.7v3.7L8.1,178.8
				L8.1,178.8L8.1,178.8z"/>
			<path fill="#FFFFFF" d="M12.8,178.8c0-0.2,0-0.3,0-0.4c0-0.1,0-0.1,0-0.3c-0.1,0.3-0.4,0.4-0.6,0.6c-0.3,0.1-0.6,0.3-0.8,0.3
				c-0.4,0-0.7-0.1-0.9-0.3c-0.3-0.3-0.3-0.6-0.3-0.8c0-0.4,0.1-0.7,0.6-0.9c0.3-0.3,0.8-0.3,1.3-0.3h0.9v-0.6
				c0-0.3-0.1-0.6-0.3-0.7c-0.1-0.1-0.4-0.3-0.8-0.3c-0.3,0-0.6,0.1-0.8,0.3c-0.3,0.1-0.3,0.4-0.3,0.6h-0.4l0,0
				c0-0.3,0.1-0.6,0.4-0.8c0.3-0.3,0.7-0.4,1.1-0.4s0.8,0.1,1.1,0.4c0.3,0.3,0.4,0.6,0.4,0.9v2.1c0,0.1,0,0.3,0,0.4
				c0,0.1,0,0.3,0.1,0.4h-0.8L12.8,178.8L12.8,178.8z M11.6,178.3c0.3,0,0.6-0.1,0.8-0.3c0.3-0.2,0.4-0.4,0.6-0.6v-0.8H12
				c-0.4,0-0.7,0.1-0.9,0.3c-0.3,0.1-0.4,0.4-0.4,0.7s0.1,0.4,0.3,0.6C11,178.3,11.3,178.3,11.6,178.3z"/>
			<path fill="#FFFFFF" d="M16.1,178.3c0.3,0,0.6-0.1,0.8-0.3c0.3-0.2,0.4-0.4,0.4-0.7h0.4l0,0c0,0.4-0.1,0.7-0.4,0.9
				c-0.3,0.3-0.7,0.4-1.1,0.4c-0.6,0-0.9-0.2-1.3-0.6c-0.3-0.4-0.4-0.8-0.4-1.5v-0.1c0-0.6,0.1-1.1,0.4-1.5c0.3-0.4,0.7-0.6,1.3-0.6
				c0.4,0,0.8,0.1,1.1,0.4c0.3,0.3,0.4,0.6,0.4,1.1l0,0h-0.4c0-0.3-0.1-0.6-0.3-0.8c-0.3-0.2-0.6-0.3-0.8-0.3
				c-0.4,0-0.8,0.1-0.9,0.4c-0.3,0.3-0.3,0.7-0.3,1.3v0.1c0,0.6,0.1,0.8,0.3,1.3C15.2,178.1,15.6,178.3,16.1,178.3z"/>
			<path fill="#FFFFFF" d="M19.3,173.6v1.1h0.9v0.4h-0.9v2.8c0,0.3,0,0.4,0.1,0.6c0.1,0.1,0.3,0.1,0.4,0.1s0.1,0,0.3,0
				c0.1,0,0.1,0,0.3,0v0.3c-0.1,0-0.1,0-0.3,0.1c-0.1,0-0.3,0-0.3,0c-0.3,0-0.6-0.1-0.7-0.3c-0.2-0.2-0.3-0.4-0.3-0.8V175h-0.7v-0.4
				h0.7v-1.1L19.3,173.6L19.3,173.6z"/>
		</g>
		<rect x="0.3" y="183.1" fill="#2B2B2B" width="27.2" height="13.5"/>
		<g>
			<path fill="#FFFFFF" d="M8.7,188.3H8.4c-0.3,0-0.6,0.1-0.7,0.3c-0.1,0.1-0.3,0.4-0.4,0.7v2.9H6.7v-4.1h0.4v0.7l0,0
				c0.1-0.3,0.3-0.4,0.4-0.6c0.1-0.1,0.4-0.3,0.7-0.3h0.1h0.1L8.7,188.3z"/>
			<path fill="#FFFFFF" d="M11.9,192c0-0.1,0-0.3,0-0.4c0-0.1,0-0.1,0-0.3c-0.1,0.3-0.4,0.4-0.6,0.6c-0.3,0.1-0.6,0.3-0.8,0.3
				c-0.4,0-0.7-0.1-0.9-0.3c-0.3-0.3-0.3-0.6-0.3-0.8c0-0.4,0.1-0.7,0.6-0.9c0.3-0.3,0.8-0.3,1.3-0.3h0.9v-0.6
				c0-0.3-0.1-0.6-0.3-0.7c-0.1-0.1-0.4-0.3-0.8-0.3c-0.3,0-0.6,0.1-0.8,0.3c-0.3,0.1-0.6,0.1-0.6,0.4H9.3l0,0
				c0-0.3,0.1-0.6,0.4-0.8c0.3-0.3,0.7-0.4,1.1-0.4c0.4,0,0.8,0.1,1.1,0.4s0.4,0.6,0.4,0.9v2.1c0,0.1,0,0.3,0,0.4
				c0,0.1,0,0.3,0.1,0.4h-0.6C11.9,192.1,11.9,192,11.9,192z M10.4,191.6c0.3,0,0.6-0.1,0.8-0.3c0.3-0.1,0.4-0.4,0.6-0.6v-0.8H11
				c-0.4,0-0.7,0.1-0.9,0.3c-0.3,0.1-0.4,0.4-0.4,0.7s0.1,0.4,0.3,0.6C10.1,191.6,10.2,191.6,10.4,191.6z"/>
			<path fill="#FFFFFF" d="M14,187.9v0.7c0.1-0.3,0.3-0.4,0.6-0.6c0.3-0.1,0.6-0.3,0.8-0.3c0.4,0,0.8,0.1,0.9,0.4
				c0.3,0.3,0.4,0.7,0.4,1.3v2.4h-0.4v-2.4c0-0.4-0.1-0.8-0.3-0.9s-0.4-0.3-0.7-0.3s-0.6,0.1-0.8,0.3c-0.1,0.1-0.4,0.4-0.4,0.7v2.9
				h-0.6v-4.1L14,187.9L14,187.9z"/>
			<path fill="#FFFFFF" d="M17.7,189.9c0-0.7,0.1-1.3,0.4-1.5c0.3-0.4,0.7-0.6,1.1-0.6c0.3,0,0.6,0,0.7,0.1c0.3,0.1,0.4,0.3,0.6,0.6
				v-2.4h0.4v5.9h-0.4v-0.6c-0.1,0.3-0.3,0.4-0.6,0.6c-0.3,0.1-0.4,0.1-0.8,0.1c-0.6,0-0.8-0.1-1.1-0.6
				C17.8,191.2,17.7,190.6,17.7,189.9L17.7,189.9z M18.1,190.1c0,0.6,0.1,0.9,0.3,1.3c0.1,0.3,0.6,0.4,0.9,0.4c0.3,0,0.6,0,0.7-0.1
				c0.1-0.1,0.4-0.3,0.4-0.6v-1.9c-0.1-0.3-0.3-0.4-0.4-0.6c-0.1-0.1-0.4-0.3-0.7-0.3c-0.4,0-0.7,0.1-0.9,0.6
				C18.2,189,18.1,189.4,18.1,190.1L18.1,190.1z"/>
		</g>
		<rect x="0.3" y="196.6" fill="#2B2B2B" width="27.2" height="13.5"/>
		<g>
			<path fill="#FFFFFF" d="M9.8,205.3H9.3v-5.8h0.4V205.3z"/>
			<path fill="#FFFFFF" d="M10.8,203.3c0-0.6,0.1-1.1,0.6-1.5c0.4-0.4,0.8-0.6,1.3-0.6c0.6,0,0.9,0.1,1.3,0.6
				c0.4,0.4,0.6,0.8,0.6,1.5v0.1c0,0.6-0.1,1.1-0.6,1.5c-0.4,0.4-0.8,0.6-1.3,0.6c-0.6,0-0.9-0.1-1.3-0.6
				C11,204.5,10.8,203.9,10.8,203.3L10.8,203.3z M11.3,203.4c0,0.4,0.1,0.8,0.4,1.3c0.3,0.4,0.6,0.6,0.9,0.6c0.4,0,0.8-0.1,0.9-0.6
				c0.3-0.3,0.4-0.7,0.4-1.3v-0.1c0-0.4-0.1-0.8-0.4-1.3c-0.3-0.3-0.6-0.6-0.9-0.6c-0.4,0-0.8,0.1-0.9,0.6S11.3,202.9,11.3,203.4
				L11.3,203.4z"/>
			<path fill="#FFFFFF" d="M15.2,203.4c0-0.7,0.1-1.3,0.4-1.5c0.3-0.4,0.7-0.6,1.3-0.6c0.3,0,0.6,0,0.8,0.1s0.4,0.3,0.6,0.6v-0.7
				h0.4v4.1c0,0.6-0.1,0.9-0.4,1.3c-0.3,0.3-0.7,0.4-1.3,0.4c-0.1,0-0.4,0-0.7-0.1c-0.3,0-0.4-0.1-0.6-0.1l0.1-0.4
				c0.1,0.1,0.3,0.1,0.6,0.1c0.1,0,0.4,0,0.6,0c0.4,0,0.7-0.1,0.9-0.4c0.1-0.3,0.3-0.6,0.3-0.9v-0.6c-0.1,0.3-0.3,0.4-0.6,0.6
				c-0.3,0.1-0.4,0.1-0.7,0.1c-0.6,0-0.8-0.1-1.1-0.6C15.3,204.5,15.2,204.1,15.2,203.4L15.2,203.4z M15.6,203.4
				c0,0.6,0.1,0.8,0.3,1.3c0.1,0.3,0.6,0.4,0.9,0.4c0.3,0,0.6,0,0.7-0.1c0.1-0.1,0.4-0.3,0.4-0.6v-1.9c-0.1-0.3-0.3-0.4-0.4-0.6
				c-0.1-0.1-0.4-0.3-0.7-0.3c-0.4,0-0.7,0.1-0.9,0.6C15.6,202.6,15.6,202.9,15.6,203.4L15.6,203.4z"/>
		</g>
		<rect x="0.3" y="209.9" fill="#2B2B2B" width="27.2" height="13.5"/>
		<g>
			<g>
				<path fill="#FFFFFF" d="M14,218.8c-0.6,0-0.9-0.1-1.3-0.6c-0.3-0.4-0.6-0.8-0.6-1.5v-0.3c0-0.6,0.1-1.1,0.6-1.5s0.7-0.6,1.3-0.6
					s0.9,0.1,1.3,0.4s0.4,0.7,0.4,1.3v0.4h-3v0.1c0,0.4,0.1,0.8,0.4,1.1c0.3,0.3,0.6,0.4,0.9,0.4c0.3,0,0.6,0,0.7-0.1
					c0.1-0.1,0.4-0.1,0.6-0.3l0.1,0.3c-0.1,0.1-0.4,0.3-0.6,0.4C14.7,218.5,14.3,218.8,14,218.8z M14,215c-0.3,0-0.7,0.1-0.8,0.4
					c-0.3,0.3-0.4,0.6-0.4,0.9l0,0h2.4v-0.1c0-0.4-0.1-0.7-0.3-0.9C14.6,215.1,14.3,215,14,215z"/>
			</g>
		</g>
		<rect x="0.3" y="223.4" fill="#2B2B2B" width="27.2" height="13.5"/>
		<g>
			<path fill="#FFFFFF" d="M14.7,230.2c0,0.6-0.1,1.1-0.4,1.5c-0.3,0.4-0.7,0.6-1.1,0.6c-0.3,0-0.6,0-0.8-0.1s-0.4-0.3-0.6-0.4v2.2
				h-0.4v-5.6h0.4v0.7c0.1-0.3,0.3-0.4,0.6-0.6c0.3-0.1,0.4-0.1,0.8-0.1c0.6,0,0.8,0.1,1.1,0.6C14.6,228.9,14.7,229.5,14.7,230.2
				L14.7,230.2z M14.3,230c0-0.6-0.1-0.9-0.3-1.3c-0.3-0.3-0.6-0.6-0.9-0.6c-0.3,0-0.6,0.1-0.7,0.3c-0.1,0.1-0.3,0.3-0.4,0.6v1.9
				c0.1,0.3,0.3,0.4,0.4,0.6c0.1,0.1,0.4,0.1,0.7,0.1c0.4,0,0.7-0.1,0.9-0.4C14.1,231,14.3,230.7,14.3,230L14.3,230z"/>
			<path fill="#FFFFFF" d="M16.3,226.9h-0.4v-0.7h0.4V226.9z M16.3,232.1h-0.4V228h0.4V232.1z"/>
		</g>
	</g>
	<g id="soustavy">
		<g>
			<path fill="#EF4323" d="M8.6,121.9v-4.6h1.3c0.6,0,0.8,0.1,1.1,0.3c0.3,0.1,0.4,0.5,0.4,0.9c0,0.3,0,0.4-0.1,0.7
				s-0.3,0.3-0.6,0.5c0.3,0,0.6,0.1,0.7,0.5c0.1,0.3,0.3,0.4,0.3,0.7c0,0.4-0.1,0.7-0.4,0.9c-0.3,0.3-0.7,0.3-1.1,0.3H8.5
				C8.5,122,8.5,121.9,8.6,121.9z M8.9,119.3H10c0.3,0,0.6-0.1,0.8-0.3c0.1-0.1,0.3-0.5,0.3-0.7s-0.1-0.5-0.3-0.7
				c-0.1-0.1-0.4-0.3-0.8-0.3H8.9V119.3z M8.9,119.7v1.9h1.3c0.3,0,0.6-0.2,0.8-0.3c0.1-0.2,0.3-0.5,0.3-0.7s-0.1-0.5-0.3-0.7
				c-0.1-0.1-0.4-0.3-0.8-0.3L8.9,119.7L8.9,119.7z"/>
			<path fill="#EF4323" d="M13.1,121.9h-0.4v-4.6h0.4V121.9z"/>
			<path fill="#EF4323" d="M17.7,121.9h-0.4l-2.6-3.9l0,0v3.9h-0.4v-4.6h0.4l2.6,3.9l0,0v-3.9h0.4V121.9z"/>
			<path d="M28.2,121.9h-0.4v-4.2l-1.3,0.1v-0.2l1.5-0.3v4.6H28.2L28.2,121.9z"/>
			<path d="M33,120.1c0,0.5-0.1,1-0.4,1.3c-0.3,0.3-0.7,0.6-1.1,0.6c-0.4,0-0.8-0.2-1.1-0.6c-0.3-0.3-0.4-0.8-0.4-1.3v-1
				c0-0.6,0.1-1.1,0.4-1.4c0.3-0.3,0.7-0.5,1.1-0.5c0.4,0,0.8,0.1,1.1,0.5c0.3,0.5,0.4,0.8,0.4,1.4V120.1z M32.7,119.1
				c0-0.5-0.1-0.8-0.3-1.1s-0.4-0.4-0.8-0.4c-0.4,0-0.7,0.1-0.8,0.4c-0.1,0.3-0.3,0.7-0.3,1.1v1c0,0.5,0.1,0.8,0.3,1
				c0.1,0.3,0.4,0.5,0.8,0.5s0.7-0.2,0.8-0.5c0.1-0.3,0.3-0.7,0.3-1V119.1z"/>
			<path d="M35.6,121.9h-0.4v-4.2l-1.3,0.1v-0.2l1.5-0.3v4.6H35.6L35.6,121.9z"/>
			<path d="M40.4,120.1c0,0.5-0.1,1-0.4,1.3c-0.3,0.3-0.7,0.6-1.1,0.6c-0.4,0-0.8-0.2-1.1-0.6c-0.3-0.3-0.4-0.8-0.4-1.3v-1
				c0-0.6,0.1-1.1,0.4-1.4c0.3-0.3,0.7-0.5,1.1-0.5c0.4,0,0.8,0.1,1.1,0.5c0.3,0.5,0.4,0.8,0.4,1.4V120.1z M40.1,119.1
				c0-0.5-0.1-0.8-0.3-1.1c-0.1-0.3-0.4-0.4-0.8-0.4c-0.4,0-0.7,0.1-0.8,0.4c-0.1,0.3-0.3,0.7-0.3,1.1v1c0,0.5,0.1,0.8,0.3,1
				s0.4,0.5,0.8,0.5s0.7-0.2,0.8-0.5c0.1-0.3,0.3-0.7,0.3-1V119.1z"/>
			<path d="M44.6,121.9h-0.4v-4.2l-1.3,0.1v-0.2l1.5-0.3v4.6H44.6L44.6,121.9z"/>
			<path d="M49.3,120.1c0,0.5-0.1,1-0.4,1.3c-0.3,0.3-0.7,0.6-1.1,0.6c-0.4,0-0.8-0.2-1.1-0.6c-0.3-0.3-0.4-0.8-0.4-1.3v-1
				c0-0.6,0.1-1.1,0.4-1.4c0.3-0.3,0.7-0.5,1.1-0.5c0.4,0,0.8,0.1,1.1,0.5c0.3,0.5,0.4,0.8,0.4,1.4V120.1z M48.8,119.1
				c0-0.5-0.1-0.8-0.3-1.1s-0.4-0.4-0.8-0.4c-0.4,0-0.7,0.1-0.8,0.4c-0.1,0.3-0.3,0.7-0.3,1.1v1c0,0.5,0.1,0.8,0.3,1
				c0.1,0.3,0.4,0.5,0.8,0.5c0.4,0,0.7-0.2,0.8-0.5c0.1-0.3,0.3-0.7,0.3-1V119.1z"/>
			<path d="M51.8,121.9h-0.4v-4.2l-1.3,0.1v-0.2l1.5-0.3v4.6H51.8C51.8,121.9,51.8,121.9,51.8,121.9z"/>
			<path d="M56.6,120.1c0,0.5-0.1,1-0.4,1.3c-0.3,0.3-0.7,0.6-1.1,0.6c-0.4,0-0.8-0.2-1.1-0.6c-0.3-0.3-0.4-0.8-0.4-1.3v-1
				c0-0.6,0.1-1.1,0.4-1.4c0.3-0.3,0.7-0.5,1.1-0.5c0.4,0,0.8,0.1,1.1,0.5c0.3,0.5,0.4,0.8,0.4,1.4V120.1z M56.3,119.1
				c0-0.5-0.1-0.8-0.3-1.1s-0.4-0.4-0.8-0.4c-0.4,0-0.7,0.1-0.8,0.4c-0.1,0.3-0.3,0.7-0.3,1.1v1c0,0.5,0.1,0.8,0.3,1
				c0.1,0.3,0.4,0.5,0.8,0.5c0.4,0,0.7-0.2,0.8-0.5c0.1-0.3,0.3-0.7,0.3-1V119.1z"/>
			<path d="M59.3,121.9h-0.4v-4.2l-1.3,0.1v-0.2l1.5-0.3v4.6H59.3C59.3,121.9,59.3,121.9,59.3,121.9z"/>
			<path d="M64,120.1c0,0.5-0.1,1-0.5,1.3c-0.3,0.3-0.7,0.6-1,0.6s-0.8-0.2-1-0.6c-0.3-0.3-0.4-0.8-0.4-1.3v-1
				c0-0.6,0.1-1.1,0.5-1.4c0.3-0.3,0.7-0.5,1-0.5s0.8,0.1,1,0.5c0.3,0.5,0.5,0.8,0.5,1.4C64,119.1,64,120.1,64,120.1z M63.7,119.1
				c0-0.5-0.1-0.8-0.3-1.1c-0.1-0.3-0.5-0.4-0.8-0.4s-0.7,0.1-0.8,0.4c-0.1,0.3-0.3,0.7-0.3,1.1v1c0,0.5,0.1,0.8,0.3,1
				c0.1,0.3,0.5,0.5,0.8,0.5s0.7-0.2,0.8-0.5c0.1-0.3,0.3-0.7,0.3-1V119.1z"/>
		</g>
		<g>
			<path opacity="0.8" fill="#ED1A46" enable-background="new    " d="M8.6,114.8v-4.6h1.3c0.6,0,1.1,0.1,1.3,0.6
				c0.4,0.4,0.6,0.8,0.6,1.5v0.6c0,0.5-0.1,1-0.6,1.5c-0.4,0.4-0.8,0.5-1.3,0.5L8.6,114.8L8.6,114.8z M8.9,110.4v4h0.9
				c0.4,0,0.8-0.2,1.1-0.5c0.3-0.3,0.4-0.7,0.4-1.3v-0.5c0-0.6-0.1-0.8-0.4-1.3c-0.3-0.3-0.7-0.6-1.1-0.6H8.9
				C8.9,110.3,8.9,110.4,8.9,110.4z"/>
			<path opacity="0.8" fill="#ED1A46" enable-background="new    " d="M15.3,112.4h-2.2v1.9h2.6v0.3h-3v-4.6h2.8v0.3h-2.4v1.8h2.2
				L15.3,112.4L15.3,112.4z"/>
			<path opacity="0.8" fill="#ED1A46" enable-background="new    " d="M19.7,113.3L19.7,113.3c0,0.5-0.1,0.8-0.6,1
				c-0.4,0.3-0.7,0.5-1.3,0.5s-0.9-0.1-1.3-0.6c-0.3-0.4-0.4-0.8-0.4-1.5v-0.6c0-0.5,0.1-1,0.4-1.5c0.3-0.5,0.7-0.5,1.3-0.5
				s0.8,0.1,1.3,0.4c0.3,0.3,0.4,0.7,0.6,1.1l0,0h-0.4c0-0.5-0.1-0.7-0.4-0.8c-0.3-0.1-0.6-0.3-0.9-0.3c-0.4,0-0.7,0.2-0.9,0.4
				c-0.3,0.3-0.4,0.7-0.4,1.3v0.8c0,0.6,0.1,0.9,0.4,1.3c0.3,0.3,0.6,0.4,0.9,0.4c0.4,0,0.7-0.1,0.9-0.3c0.3-0.1,0.4-0.5,0.4-0.9
				L19.7,113.3L19.7,113.3z"/>
			<path d="M28.5,114.8h-0.4v-4.2l-1.3,0.1v-0.3l1.5-0.3v4.6L28.5,114.8L28.5,114.8z"/>
			<path d="M33.3,113.1c0,0.5-0.1,1-0.4,1.3c-0.3,0.3-0.7,0.6-1.1,0.6c-0.4,0-0.8-0.1-1.1-0.6c-0.3-0.3-0.4-0.8-0.4-1.3V112
				c0-0.6,0.1-1.1,0.4-1.3c0.3-0.3,0.7-0.5,1.1-0.5c0.4,0,0.8,0.1,1.1,0.5c0.3,0.5,0.4,0.8,0.4,1.3V113.1z M32.8,111.9
				c0-0.4-0.1-0.8-0.3-1c-0.1-0.3-0.4-0.5-0.8-0.5c-0.4,0-0.7,0.2-0.8,0.5c-0.1,0.3-0.3,0.7-0.3,1v1.1c0,0.4,0.1,0.8,0.3,1.1
				c0.1,0.3,0.4,0.4,0.8,0.4c0.4,0,0.7-0.1,0.8-0.4c0.1-0.3,0.3-0.7,0.3-1.1V111.9z"/>
			<path d="M34.8,112.2h0.4c0.3,0,0.6-0.1,0.8-0.3c0.3-0.1,0.3-0.4,0.3-0.7s-0.1-0.6-0.3-0.7c-0.1-0.2-0.4-0.3-0.7-0.3
				s-0.6,0.1-0.7,0.3c-0.1,0.1-0.3,0.4-0.3,0.7H34l0,0c0-0.4,0.1-0.7,0.4-0.9c0.3-0.3,0.6-0.5,0.9-0.5c0.4,0,0.7,0.1,0.9,0.3
				c0.3,0.1,0.4,0.5,0.4,1c0,0.3,0,0.4-0.1,0.5s-0.3,0.3-0.6,0.5c0.3,0.1,0.6,0.3,0.7,0.4c0.1,0.1,0.3,0.4,0.3,0.7
				c0,0.5-0.1,0.7-0.4,1s-0.6,0.5-0.9,0.5c-0.4,0-0.7-0.2-1.1-0.5c-0.4-0.3-0.4-0.5-0.4-1l0,0h0.4c0,0.3,0.1,0.6,0.3,0.7
				c0.1,0.1,0.4,0.3,0.8,0.3c0.3,0,0.6-0.2,0.8-0.3c0.3-0.2,0.3-0.5,0.3-0.7s-0.1-0.5-0.3-0.7c-0.1-0.1-0.4-0.3-0.8-0.3h-0.4l0,0
				L34.8,112.2L34.8,112.2L34.8,112.2z"/>
		</g>
		<g>
			<path fill="#EF4323" d="M11.9,133.6c0,0.6-0.1,1.1-0.6,1.5c-0.3,0.4-0.8,0.6-1.3,0.6s-0.9-0.2-1.3-0.6c-0.3-0.4-0.4-0.9-0.4-1.5
				v-0.7c0-0.6,0.1-1.1,0.6-1.5c0.3-0.4,0.8-0.6,1.3-0.6c0.6,0,0.9,0.1,1.3,0.6c0.3,0.4,0.6,0.8,0.6,1.5v0.7H11.9z M11.6,132.9
				c0-0.6-0.1-0.9-0.4-1.3c-0.3-0.3-0.6-0.4-1.1-0.4c-0.4,0-0.8,0.2-1.1,0.4c-0.3,0.3-0.4,0.7-0.4,1.3v0.8c0,0.6,0.1,0.9,0.4,1.3
				c0.3,0.3,0.6,0.4,1.1,0.4c0.4,0,0.8-0.1,1.1-0.4c0.3-0.3,0.4-0.7,0.4-1.3V132.9z"/>
			<path fill="#EF4323" d="M16.1,134.1L16.1,134.1c0,0.6-0.1,0.8-0.6,1.1c-0.4,0.3-0.7,0.4-1.3,0.4s-0.9-0.1-1.3-0.6
				c-0.3-0.4-0.4-0.8-0.4-1.5v-0.7c0-0.6,0.1-1.1,0.4-1.5c0.3-0.4,0.7-0.6,1.3-0.6s0.8,0.2,1.3,0.4c0.3,0.3,0.4,0.7,0.6,1.1l0,0
				h-0.4c0-0.4-0.1-0.7-0.4-0.8s-0.6-0.3-0.9-0.3c-0.4,0-0.7,0.2-0.9,0.4c-0.3,0.3-0.4,0.7-0.4,1.3v0.8c0,0.6,0.1,0.9,0.4,1.3
				c0.3,0.3,0.6,0.4,0.9,0.4c0.4,0,0.7-0.1,0.9-0.3c0.3-0.1,0.4-0.6,0.4-0.9L16.1,134.1L16.1,134.1z"/>
			<path fill="#EF4323" d="M20.1,131.3h-1.6v4.2h-0.4v-4.2h-1.5v-0.3h3.6C20.1,131.1,20.1,131.3,20.1,131.3z"/>
			<path d="M29.2,133.9h0.7v0.3h-0.7v1.3h-0.4v-1.3h-2.2v-0.3l2.2-3.3h0.4V133.9z M27.1,133.9h1.6v-2.6l0,0l-0.1,0.4L27.1,133.9z"/>
			<path d="M33.3,133.7c0,0.6-0.1,1.1-0.4,1.4c-0.3,0.3-0.7,0.6-1.1,0.6c-0.3,0-0.8-0.2-1.1-0.6c-0.3-0.3-0.4-0.8-0.4-1.4v-1.1
				c0-0.6,0.1-1.1,0.4-1.3c0.3-0.3,0.7-0.6,1.1-0.6c0.3,0,0.8,0.1,1.1,0.6c0.3,0.4,0.4,0.8,0.4,1.3V133.7z M33,132.6
				c0-0.4-0.1-0.8-0.3-1.1c-0.1-0.3-0.4-0.4-0.8-0.4c-0.4,0-0.7,0.1-0.8,0.4c-0.1,0.3-0.3,0.7-0.3,1.1v1.1c0,0.4,0.1,0.8,0.3,1.1
				c0.1,0.3,0.4,0.4,0.8,0.4s0.7-0.1,0.8-0.4c0.1-0.3,0.3-0.7,0.3-1.1V132.6z"/>
			<path d="M35,133.1h0.6c0.3,0,0.6-0.1,0.8-0.3c0.3-0.2,0.3-0.4,0.3-0.7s-0.1-0.6-0.3-0.7c-0.1-0.2-0.4-0.3-0.7-0.3
				s-0.6,0.1-0.7,0.3c-0.2,0.1-0.3,0.4-0.3,0.7h-0.6l0,0c0-0.4,0.1-0.7,0.4-0.9c0.3-0.3,0.6-0.4,0.9-0.4c0.4,0,0.7,0.1,0.9,0.3
				c0.3,0.1,0.4,0.6,0.4,0.9c0,0.3,0,0.4-0.1,0.6c-0.1,0.1-0.3,0.3-0.6,0.4c0.3,0.1,0.6,0.3,0.7,0.4c0.1,0.1,0.3,0.4,0.3,0.7
				c0,0.4-0.1,0.7-0.4,0.9c-0.3,0.3-0.6,0.4-0.9,0.4c-0.4,0-0.7-0.2-1.1-0.4c-0.4-0.3-0.4-0.6-0.4-0.9l0,0h0.4
				c0,0.3,0.1,0.6,0.3,0.7s0.4,0.3,0.8,0.3c0.3,0,0.6-0.2,0.8-0.3c0.3-0.1,0.3-0.4,0.3-0.7s-0.1-0.6-0.3-0.7
				c-0.1-0.1-0.4-0.3-0.8-0.3h-0.4l0,0L35,133.1L35,133.1z"/>
		</g>
		<g>
			<path fill="#EF4323" d="M11.9,128.6h-0.4v-2.2H8.9v2.2H8.5v-4.6h0.4v2.2h2.6v-2.2h0.4V128.6z"/>
			<path fill="#EF4323" d="M15.8,126.6h-2.3v1.8H16v0.3h-2.8v-4.6H16v0.3h-2.6v1.8h2.2v0.4L15.8,126.6L15.8,126.6z"/>
			<path fill="#EF4323" d="M18.2,126.1l1.3-1.9h0.4l-1.5,2.2l1.6,2.3h-0.4l-1.3-2.1l-1.3,2.1h-0.4l1.6-2.3l-1.5-2.3h0.5L18.2,126.1z
				"/>
			<path d="M29.2,127.1h0.7v0.3h-0.7v1.3h-0.4v-1.3h-2.2v-0.3l2.2-3.3h0.4V127.1z M27.1,127.1h1.8v-2.6l0,0l-0.1,0.4L27.1,127.1z"/>
			<path d="M33.3,126.6h-2.2v2.2h-0.4v-4.6h3v0.3h-2.6v1.8h2.2V126.6z"/>
			<path d="M36.6,127.4h-2.1l-0.4,1.3h-0.4l1.8-4.6h0.4l1.8,4.6h-0.4L36.6,127.4z M34.8,127.1h1.8l-1.1-2.4l0,0L34.8,127.1z"/>
		</g>
	</g>
	<rect x="348" y="20.4" fill="#2B2B2B" width="151.8" height="216.3"/>
	<rect x="347" y="20.4" fill="#C1C1C0" width="152.8" height="36.8"/>
	<g>
		<g>
			<path d="M363,47.3h-6.8l-1.5,4h-1.2l5.5-14.6h1l5.6,14.7h-1.3L363,47.3z M356.8,46.2h6l-3-8l0,0L356.8,46.2z"/>
			<path d="M368.9,40.5l0.1,1.8c0.5-0.7,0.8-1.3,1.4-1.5c0.6-0.4,1.4-0.5,2.2-0.5c1.3,0,2.1,0.4,2.8,1c0.7,0.6,1,1.9,1,3.4v6.7H375
				v-6.7c0-1.3-0.3-2.2-0.7-2.8c-0.4-0.5-1-0.8-2-0.8c-0.8,0-1.5,0.3-2,0.7c-0.6,0.5-1,1-1.3,1.8v7.6h-1.3V40.4h1.2V40.5L368.9,40.5
				z"/>
			<path d="M385.9,48.7c0-0.6-0.3-1-0.7-1.4c-0.5-0.5-1.3-0.7-2.3-1c-1.4-0.3-2.3-0.7-2.9-1c-0.7-0.5-1-1-1-1.9
				c0-0.8,0.5-1.5,1.1-2.2c0.7-0.6,1.6-0.8,2.9-0.8s2.2,0.3,3,1c0.7,0.5,1,1.3,1,2.3l0,0h-1c0-0.5-0.3-1-0.8-1.6
				c-0.5-0.4-1.3-0.7-2-0.7s-1.5,0.1-2,0.5c-0.5,0.5-0.7,0.8-0.7,1.4s0.2,1,0.6,1.3c0.5,0.3,1,0.7,2.3,0.8c1.4,0.3,2.3,0.7,2.9,1.3
				c0.5,0.6,1,1.3,1,2.1c0,0.9-0.5,1.6-1,2.2c-0.7,0.6-1.8,0.8-3,0.8c-1.4,0-2.3-0.3-3.1-1s-1.1-1.4-1.1-2.3l0,0h1.1
				c0,0.8,0.4,1.3,0.9,1.8c0.6,0.4,1.4,0.5,2.1,0.5c0.8,0,1.6-0.1,2-0.5C385.6,49.7,385.9,49.2,385.9,48.7z"/>
		</g>
	</g>
	<g>
		<path fill="#FFFFFF" d="M354.9,27.3h0.6c0.4,0,0.8-0.1,0.9-0.3c0.3-0.3,0.3-0.5,0.3-0.8c0-0.5-0.1-0.7-0.3-0.8
			c-0.3-0.3-0.6-0.3-0.9-0.3c-0.5,0-0.7,0.1-1,0.3c-0.3,0.3-0.5,0.5-0.5,0.8h-0.4l0,0c0-0.5,0.1-0.8,0.6-1c0.4-0.3,0.8-0.5,1.3-0.5
			c0.5,0,0.9,0.1,1.3,0.5c0.3,0.3,0.4,0.7,0.4,1.3c0,0.3-0.1,0.5-0.3,0.8c-0.1,0.3-0.4,0.5-0.7,0.5c0.4,0.1,0.7,0.3,0.8,0.5
			c0.1,0.3,0.3,0.5,0.3,1c0,0.5-0.1,1-0.5,1.3c-0.3,0.3-0.8,0.5-1.4,0.5c-0.5,0-0.9-0.1-1.3-0.5c-0.5-0.3-0.6-0.7-0.6-1.3l0,0h0.4
			c0,0.5,0.1,0.7,0.5,1c0.3,0.3,0.5,0.5,1,0.5c0.4,0,0.7-0.1,0.9-0.3c0.3-0.1,0.4-0.5,0.4-1c0-0.5-0.1-0.7-0.4-1
			c-0.3-0.1-0.6-0.3-1.1-0.3H355L354.9,27.3L354.9,27.3z"/>
		<path fill="#FFFFFF" d="M359.2,26.5l-1.4-0.5l0.2-0.5l1.3,0.6v-1.5h0.5v1.5l1.4-0.5l0.1,0.5l-1.4,0.5l0.9,1.3l-0.4,0.3l-0.8-1.3
			l-0.8,1.3l-0.5-0.3L359.2,26.5z"/>
		<path fill="#FFFFFF" d="M362,28.3c0-1,0.1-1.8,0.5-2.5c0.5-0.8,0.8-1.3,1.3-1.6l0,0l0.1,0.3c-0.4,0.3-0.7,0.8-1.1,1.5
			c-0.3,0.7-0.4,1.5-0.4,2.5v0.1c0,1,0.1,1.6,0.4,2.5c0.3,0.7,0.7,1.3,1.1,1.5l-0.1,0.3l0,0c-0.5-0.3-1-0.8-1.3-1.5
			C362,30.1,362,29.2,362,28.3L362,28.3z"/>
		<path fill="#FFFFFF" d="M365.6,27.3h0.6c0.4,0,0.8-0.1,0.9-0.3c0.3-0.3,0.3-0.5,0.3-0.8c0-0.5-0.1-0.7-0.3-0.8
			c-0.3-0.3-0.6-0.3-0.9-0.3c-0.5,0-0.7,0.1-1,0.3c-0.3,0.3-0.5,0.5-0.5,0.8h-0.4l0,0c0-0.5,0.1-0.8,0.6-1c0.4-0.3,0.8-0.5,1.3-0.5
			c0.5,0,0.9,0.1,1.3,0.5c0.3,0.3,0.4,0.7,0.4,1.3c0,0.3-0.1,0.5-0.3,0.8s-0.4,0.5-0.7,0.5c0.4,0.1,0.7,0.3,0.8,0.5
			c0.1,0.3,0.3,0.5,0.3,1c0,0.5-0.1,1-0.5,1.3c-0.3,0.3-0.8,0.5-1.4,0.5c-0.5,0-0.9-0.1-1.3-0.5c-0.5-0.3-0.6-0.7-0.6-1.3l0,0h0.4
			c0,0.5,0.2,0.7,0.5,1c0.3,0.3,0.5,0.5,1,0.5c0.4,0,0.7-0.1,0.9-0.3c0.3-0.1,0.4-0.5,0.4-1c0-0.5-0.1-0.7-0.4-1
			c-0.3-0.1-0.6-0.3-1.1-0.3h-0.5v-0.8h0.4L365.6,27.3L365.6,27.3z"/>
		<path fill="#FFFFFF" d="M372,28.6h1v0.5h-1v1.5h-0.5v-1.5h-2.8v-0.3l2.8-4.1h0.5V28.6z M369.5,28.6h2.2v-3.4l0,0l-0.3,0.5
			L369.5,28.6z"/>
		<path fill="#FFFFFF" d="M374.7,27.3h0.5c0.5,0,0.8-0.1,1-0.3c0.1-0.1,0.3-0.5,0.3-0.8c0-0.5-0.2-0.7-0.3-0.8
			c-0.3-0.3-0.6-0.3-1-0.3c-0.5,0-0.7,0.1-1,0.3c-0.3,0.3-0.4,0.5-0.4,0.8h-0.4l0,0c0-0.5,0.1-0.8,0.5-1c0.3-0.3,0.8-0.5,1.3-0.5
			c0.6,0,1,0.1,1.3,0.5c0.3,0.3,0.5,0.7,0.5,1.3c0,0.3-0.1,0.5-0.3,0.8c-0.1,0.3-0.5,0.5-0.7,0.5c0.5,0.1,0.7,0.3,0.8,0.5
			c0.1,0.3,0.3,0.5,0.3,1c0,0.5-0.1,1-0.6,1.3c-0.4,0.3-0.8,0.5-1.3,0.5c-0.6,0-1-0.1-1.4-0.5c-0.4-0.3-0.5-0.7-0.5-1.3l0,0h0.5
			c0,0.5,0.1,0.7,0.4,1c0.3,0.3,0.6,0.5,0.9,0.5c0.4,0,0.7-0.1,1-0.3s0.5-0.5,0.5-1c0-0.5-0.1-0.7-0.5-1c-0.3-0.1-0.5-0.3-1-0.3
			h-0.6v-0.8h0.3L374.7,27.3L374.7,27.3z"/>
		<path fill="#FFFFFF" d="M379.8,28.3c0,1-0.1,1.9-0.5,2.5c-0.5,0.8-0.8,1.3-1.3,1.5l0,0l-0.2-0.3c0.5-0.3,0.7-0.8,1.1-1.5
			c0.3-0.7,0.4-1.5,0.4-2.5V28c0-0.9-0.1-1.6-0.4-2.4c-0.3-0.8-0.7-1.3-0.9-1.5l0.1-0.3l0,0c0.5,0.3,0.8,0.8,1.3,1.6
			C379.6,26.3,379.8,27.1,379.8,28.3L379.8,28.3z"/>
		<path fill="#FFFFFF" d="M382.9,27.6h1.8V28h-1.8v1.9h-0.6V28h-1.6v-0.5h1.8v-1.8h0.5L382.9,27.6L382.9,27.6L382.9,27.6z"/>
		<path fill="#FFFFFF" d="M388.5,28.6h1v0.5h-1v1.5H388v-1.5h-2.8v-0.3l2.8-4.1h0.5V28.6z M385.9,28.6h2.2v-3.4l0,0l-0.3,0.5
			L385.9,28.6z"/>
		<path fill="#FFFFFF" d="M393.3,28.6h1v0.5h-1v1.5h-0.5v-1.5H390v-0.3l2.8-4.1h0.5V28.6z M390.5,28.6h2.2v-3.4l0,0l-0.3,0.5
			L390.5,28.6z"/>
	</g>
	<g>
		<g>
			<path fill="#FFFFFF" d="M446.7,40.1l1-9.4h8.5v1.4h-7.2l-0.7,6.1c0.5-0.4,1-0.7,1.5-0.9s1.3-0.3,2.2-0.5c1.5,0,2.8,0.5,3.5,1.5
				c1,1,1.4,2.3,1.4,4.1s-0.5,3.1-1.4,4.2c-0.8,1-2.2,1.5-4,1.5c-1.4,0-2.5-0.5-3.5-1.3c-1-0.8-1.4-1.9-1.4-3.5v-0.1h1.3
				c0,1.3,0.3,2,1,2.8s1.5,1,2.5,1c1.3,0,2.2-0.5,2.9-1.3c0.7-0.8,1-1.9,1-3.3c0-1.3-0.3-2.3-1-3.1s-1.5-1.3-2.8-1.3
				c-1,0-1.9,0.1-2.5,0.5c-0.7,0.5-1,0.8-1.3,1.6L446.7,40.1L446.7,40.1z"/>
			<path fill="#FFFFFF" d="M468.2,42.4h2.8v1h-2.8v4.3h-1.4v-4.4h-8v-0.8l7.9-12.2h1.5V42.4z M460.4,42.4h6.4v-9.8h-0.1l-0.5,1.3
				L460.4,42.4z"/>
			<path fill="#FFFFFF" d="M474.5,47.7l-1.3,3.3h-1l0.8-3.3v-2h1.4L474.5,47.7L474.5,47.7z"/>
			<path fill="#FFFFFF" d="M486.3,42.4h2.8v1h-2.8v4.3h-1.4v-4.4h-8v-0.8l7.9-12.1h1.5V42.4z M478.4,42.4h6.4v-9.8h-0.1l-0.5,1.3
				L478.4,42.4z"/>
		</g>
	</g>
	<rect x="347" y="57.2" fill="#2B2B2B" width="147.4" height="37"/>
	<g>
		<path fill="#ED1A46" d="M355.1,88.3V73.6h4.2c1.8,0,3.3,0.5,4.5,1.8c1.3,1.3,1.8,2.8,1.8,4.6v1.8c0,1.8-0.5,3.3-1.8,4.6
			c-1.3,1.3-2.8,1.8-4.5,1.8h-4.2V88.3z M356.4,74.6v12.6h3.1c1.5,0,2.8-0.5,3.5-1.5c1-0.9,1.4-2.3,1.4-3.8v-1.8
			c0-1.5-0.5-2.9-1.4-3.8c-0.9-0.9-2.2-1.5-3.5-1.5h-3.1V74.6z"/>
		<path fill="#ED1A46" d="M377,81.4h-7.2v6.9h-1.3V73.6h9.4v1h-8.2v5.7h7.2L377,81.4L377,81.4z"/>
	</g>
	<g>
		<path fill="#FFFFFF" d="M354.9,64.3h0.6c0.4,0,0.8-0.1,0.9-0.3c0.3-0.3,0.3-0.6,0.3-0.8c0-0.5-0.1-0.7-0.3-0.8
			c-0.3-0.3-0.6-0.3-0.9-0.3c-0.5,0-0.7,0.1-1,0.3c-0.3,0.3-0.5,0.5-0.5,0.8h-0.4l0,0c0-0.5,0.1-0.8,0.6-1c0.4-0.3,0.8-0.5,1.3-0.5
			c0.5,0,0.9,0.1,1.3,0.5c0.3,0.3,0.4,0.7,0.4,1.2c0,0.3-0.1,0.6-0.3,0.8s-0.4,0.4-0.7,0.6c0.4,0.1,0.7,0.3,0.8,0.5
			c0.1,0.3,0.3,0.6,0.3,1c0,0.5-0.1,0.9-0.5,1.3c-0.3,0.3-0.8,0.4-1.4,0.4c-0.5,0-0.9-0.1-1.3-0.4c-0.5-0.3-0.6-0.7-0.6-1.3l0,0h0.4
			c0,0.4,0.1,0.7,0.5,0.9c0.3,0.3,0.5,0.4,1,0.4c0.4,0,0.7-0.1,0.9-0.3c0.3-0.1,0.4-0.5,0.4-0.9c0-0.4-0.1-0.7-0.4-0.9
			c-0.3-0.1-0.6-0.3-1.1-0.3H355L354.9,64.3L354.9,64.3z"/>
		<path fill="#FFFFFF" d="M359.2,63.5l-1.4-0.4l0.2-0.5l1.3,0.5v-1.5h0.5v1.5l1.4-0.5l0.1,0.5l-1.4,0.5l0.9,1.3l-0.4,0.3l-0.8-1.3
			l-0.8,1.3l-0.5-0.3L359.2,63.5z"/>
		<path fill="#FFFFFF" d="M362,65.1c0-0.9,0.1-1.8,0.5-2.5c0.5-0.8,0.8-1.3,1.3-1.6l0,0l0.1,0.3c-0.4,0.3-0.7,0.8-1.1,1.5
			c-0.3,0.7-0.4,1.5-0.4,2.5v0.1c0,0.9,0.1,1.6,0.4,2.4c0.3,0.7,0.7,1.3,1.1,1.5l-0.1,0.3l0,0c-0.5-0.3-1-0.8-1.3-1.5
			C362,67.1,362,66.2,362,65.1L362,65.1z"/>
		<path fill="#FFFFFF" d="M365.6,64.3h0.6c0.4,0,0.8-0.1,0.9-0.3c0.3-0.3,0.3-0.6,0.3-0.8c0-0.5-0.1-0.7-0.3-0.8
			c-0.3-0.3-0.6-0.3-0.9-0.3c-0.5,0-0.7,0.1-1,0.3c-0.3,0.3-0.5,0.5-0.5,0.8h-0.4l0,0c0-0.5,0.1-0.8,0.6-1c0.4-0.3,0.8-0.5,1.3-0.5
			c0.5,0,0.9,0.1,1.3,0.5c0.3,0.3,0.4,0.7,0.4,1.2c0,0.3-0.1,0.6-0.3,0.8s-0.4,0.4-0.7,0.6c0.4,0.1,0.7,0.3,0.8,0.5
			c0.1,0.3,0.3,0.6,0.3,1c0,0.5-0.1,0.9-0.5,1.3c-0.3,0.3-0.8,0.4-1.4,0.4c-0.5,0-0.9-0.1-1.3-0.4c-0.5-0.3-0.6-0.7-0.6-1.3l0,0h0.4
			c0,0.4,0.2,0.7,0.5,0.9c0.3,0.3,0.5,0.4,1,0.4c0.4,0,0.7-0.1,0.9-0.3c0.3-0.1,0.4-0.5,0.4-0.9c0-0.4-0.1-0.7-0.4-0.9
			c-0.3-0.1-0.6-0.3-1.1-0.3h-0.5v-0.8h0.4L365.6,64.3L365.6,64.3z"/>
		<path fill="#FFFFFF" d="M372,65.6h1v0.5h-1v1.5h-0.5v-1.5h-2.8v-0.3l2.8-4.1h0.5V65.6z M369.5,65.6h2.2v-3.4l0,0l-0.3,0.4
			L369.5,65.6z"/>
		<path fill="#FFFFFF" d="M374.7,64.3h0.5c0.5,0,0.8-0.1,1-0.3c0.1-0.1,0.3-0.6,0.3-0.8c0-0.5-0.2-0.7-0.3-0.8
			c-0.3-0.3-0.6-0.3-1-0.3c-0.5,0-0.7,0.1-1,0.3c-0.3,0.3-0.4,0.5-0.4,0.8h-0.4l0,0c0-0.5,0.1-0.8,0.5-1c0.3-0.3,0.8-0.5,1.3-0.5
			c0.6,0,1,0.1,1.3,0.5c0.3,0.3,0.5,0.7,0.5,1.2c0,0.3-0.1,0.6-0.3,0.8s-0.5,0.4-0.7,0.6c0.5,0.1,0.7,0.3,0.8,0.5
			c0.1,0.3,0.3,0.6,0.3,1c0,0.5-0.1,0.9-0.6,1.3c-0.4,0.3-0.8,0.4-1.3,0.4c-0.6,0-1-0.1-1.4-0.4c-0.4-0.3-0.5-0.7-0.5-1.3l0,0h0.5
			c0,0.4,0.1,0.7,0.4,0.9c0.3,0.3,0.6,0.4,0.9,0.4c0.4,0,0.7-0.1,1-0.3c0.3-0.1,0.5-0.5,0.5-0.9c0-0.4-0.1-0.7-0.5-0.9
			c-0.3-0.1-0.5-0.3-1-0.3h-0.6v-0.8h0.3L374.7,64.3L374.7,64.3z"/>
		<path fill="#FFFFFF" d="M379.8,65.2c0,1-0.1,1.9-0.5,2.6c-0.5,0.8-0.8,1.3-1.3,1.5l0,0l-0.1-0.3c0.4-0.3,0.7-0.8,1.1-1.5
			c0.3-0.7,0.4-1.5,0.4-2.4v-0.1c0-0.9-0.1-1.6-0.4-2.4c-0.3-0.8-0.7-1.3-1-1.5l0.1-0.3l0,0c0.4,0.3,0.8,0.8,1.3,1.6
			C379.6,63.1,379.8,64.1,379.8,65.2L379.8,65.2z"/>
		<path fill="#FFFFFF" d="M382.9,64.6h1.8V65h-1.8v1.8h-0.6V65h-1.6v-0.4h1.8v-1.9h0.5L382.9,64.6L382.9,64.6L382.9,64.6z"/>
		<path fill="#FFFFFF" d="M388.5,65.6h1v0.5h-1v1.5H388v-1.5h-2.8v-0.3l2.8-4.1h0.5V65.6z M385.9,65.6h2.2v-3.4l0,0l-0.3,0.4
			L385.9,65.6z"/>
		<path fill="#FFFFFF" d="M393.3,65.6h1v0.5h-1v1.5h-0.5v-1.5H390v-0.3l2.8-4.1h0.5V65.6z M390.5,65.6h2.2v-3.4l0,0l-0.3,0.4
			L390.5,65.6z"/>
	</g>
	<g>
		<g>
			<path fill="#FFFFFF" d="M446.7,77.1l1-9.4h8.5v1.4h-7.2l-0.7,6.1c0.5-0.5,1-0.7,1.5-1s1.3-0.3,2.2-0.4c1.5,0,2.8,0.4,3.5,1.5
				c1,0.9,1.4,2.3,1.4,4.1s-0.5,3.1-1.4,4.2c-0.8,1.1-2.2,1.5-4,1.5c-1.4,0-2.5-0.4-3.5-1.3c-1-0.8-1.4-1.8-1.4-3.6v-0.1h1.3
				c0,1.3,0.3,2.1,1,2.8c0.7,0.7,1.5,1,2.5,1c1.3,0,2.2-0.5,2.9-1.3c0.7-0.8,1-1.9,1-3.4c0-1.3-0.3-2.3-1-3.1
				c-0.7-0.8-1.5-1.3-2.8-1.3c-1,0-1.9,0.1-2.5,0.6c-0.7,0.4-1,0.8-1.3,1.6L446.7,77.1z"/>
			<path fill="#FFFFFF" d="M468.2,79.2h2.8v1.3h-2.8v4.4h-1.4v-4.4h-8v-0.8l7.9-12.1h1.5V79.2z M460.4,79.2h6.4v-9.8h-0.1l-0.5,1.3
				L460.4,79.2z"/>
			<path fill="#FFFFFF" d="M474.5,84.6l-1.3,3.3h-1l0.8-3.3v-2.1h1.4L474.5,84.6L474.5,84.6z"/>
			<path fill="#FFFFFF" d="M486.3,79.2h2.8v1.3h-2.8v4.4h-1.4v-4.4h-8v-0.8l7.9-12.1h1.5V79.2z M478.4,79.2h6.4v-9.8h-0.1l-0.5,1.3
				L478.4,79.2z"/>
		</g>
	</g>
	<rect x="346.8" y="93.2" fill="#2B2B2B" width="147.4" height="37"/>
	<g>
		<path fill="#ED1A46" d="M359.5,115.9l4.2-6.3h1.5l-4.9,7.2l5.1,7.5h-1.5l-4.4-6.5l-4.4,6.5h-1.5l5.1-7.5l-4.9-7.2h1.5L359.5,115.9
			z"/>
		<path fill="#ED1A46" d="M372.1,117.8l4.6-8.2h1.4l-5.3,9.3v5.4h-1.3v-5.4l-5.3-9.3h1.4L372.1,117.8z"/>
	</g>
	<g>
		<path fill="#FFFFFF" d="M354.9,100.2h0.6c0.4,0,0.8-0.1,0.9-0.3c0.3-0.3,0.3-0.5,0.3-0.8c0-0.5-0.1-0.7-0.3-0.8
			c-0.3-0.3-0.6-0.3-0.9-0.3c-0.5,0-0.7,0.1-1,0.3c-0.3,0.3-0.5,0.5-0.5,0.8h-0.4l0,0c0-0.5,0.1-0.8,0.6-1c0.4-0.3,0.8-0.5,1.3-0.5
			c0.5,0,0.9,0.2,1.3,0.5c0.3,0.3,0.4,0.7,0.4,1.3c0,0.3-0.1,0.5-0.3,0.8c-0.1,0.3-0.4,0.5-0.7,0.5c0.4,0.1,0.7,0.3,0.8,0.6
			c0.1,0.3,0.3,0.6,0.3,0.9c0,0.6-0.1,1-0.5,1.3c-0.3,0.3-0.8,0.5-1.4,0.5c-0.5,0-0.9-0.1-1.3-0.5c-0.5-0.3-0.6-0.7-0.6-1.3l0,0h0.4
			c0,0.5,0.1,0.7,0.5,1c0.3,0.3,0.5,0.5,1,0.5c0.4,0,0.7-0.2,0.9-0.3c0.3-0.2,0.4-0.6,0.4-1c0-0.5-0.1-0.7-0.4-1
			c-0.3-0.1-0.6-0.3-1.1-0.3H355L354.9,100.2L354.9,100.2z"/>
		<path fill="#FFFFFF" d="M359.2,99.4l-1.4-0.4l0.2-0.4l1.3,0.5v-1.5h0.5V99l1.4-0.5l0.1,0.4l-1.4,0.4l0.9,1.3l-0.4,0.3l-0.8-1.3
			l-0.8,1.3l-0.5-0.3L359.2,99.4z"/>
		<path fill="#FFFFFF" d="M362,101.1c0-1,0.1-1.8,0.5-2.5c0.5-0.8,0.8-1.4,1.3-1.6l0,0l0.1,0.3c-0.4,0.3-0.7,0.8-1.1,1.5
			c-0.3,0.7-0.4,1.5-0.4,2.5v0.1c0,0.9,0.1,1.6,0.4,2.4c0.3,0.7,0.7,1.3,1.1,1.5l-0.1,0.3l0,0c-0.5-0.3-1-0.8-1.3-1.5
			C362,103.1,362,102.1,362,101.1L362,101.1z"/>
		<path fill="#FFFFFF" d="M365.5,100.2h0.5c0.5,0,0.8-0.1,1-0.3c0.3-0.3,0.3-0.5,0.3-0.8c0-0.5-0.2-0.7-0.3-0.8
			c-0.3-0.3-0.6-0.3-1-0.3s-0.7,0.1-1,0.3c-0.3,0.3-0.4,0.5-0.4,0.8h-0.3l0,0c0-0.5,0.1-0.8,0.6-1c0.4-0.3,0.8-0.5,1.3-0.5
			c0.5,0,0.9,0.2,1.3,0.5c0.3,0.3,0.4,0.7,0.4,1.3c0,0.3-0.1,0.5-0.3,0.8c-0.1,0.3-0.4,0.5-0.7,0.5c0.4,0.1,0.7,0.3,0.8,0.6
			c0.1,0.3,0.3,0.6,0.3,0.9c0,0.6-0.1,1-0.5,1.3c-0.3,0.3-0.8,0.5-1.4,0.5c-0.5,0-0.9-0.1-1.3-0.5c-0.5-0.3-0.6-0.7-0.6-1.3l0,0h0.4
			c0,0.5,0.2,0.7,0.5,1c0.3,0.3,0.5,0.5,1,0.5c0.4,0,0.7-0.2,0.9-0.3c0.3-0.2,0.4-0.6,0.4-1c0-0.5-0.1-0.7-0.4-1
			c-0.3-0.1-0.6-0.3-1.1-0.3h-0.5v-1H365.5z"/>
		<path fill="#FFFFFF" d="M372,101.6h1v0.5h-1v1.5h-0.5v-1.5h-2.8v-0.3l2.8-4.1h0.5V101.6z M369.5,101.6h2.2v-3.3l0,0l-0.3,0.4
			L369.5,101.6z"/>
		<path fill="#FFFFFF" d="M374.7,100.2h0.5c0.5,0,0.8-0.1,1-0.3c0.1-0.1,0.3-0.5,0.3-0.8c0-0.5-0.2-0.7-0.3-0.8
			c-0.3-0.3-0.6-0.3-1-0.3c-0.5,0-0.7,0.1-1,0.3c-0.3,0.3-0.4,0.5-0.4,0.8h-0.4l0,0c0-0.5,0.1-0.8,0.5-1c0.3-0.3,0.8-0.5,1.3-0.5
			c0.6,0,1,0.2,1.3,0.5c0.3,0.3,0.5,0.7,0.5,1.3c0,0.3-0.1,0.5-0.3,0.8c-0.1,0.3-0.5,0.5-0.7,0.5c0.5,0.1,0.7,0.3,0.8,0.6
			c0.1,0.3,0.3,0.6,0.3,0.9c0,0.6-0.1,1-0.6,1.3c-0.4,0.3-0.8,0.5-1.3,0.5c-0.6,0-1-0.1-1.4-0.5c-0.4-0.3-0.5-0.7-0.5-1.3l0,0h0.5
			c0,0.5,0.1,0.7,0.4,1c0.3,0.3,0.6,0.5,0.9,0.5c0.4,0,0.7-0.2,1-0.3c0.3-0.2,0.5-0.6,0.5-1c0-0.5-0.1-0.7-0.5-1
			c-0.3-0.1-0.5-0.3-1-0.3h-0.6v-1H374.7z"/>
		<path fill="#FFFFFF" d="M379.8,101.2c0,1-0.1,1.9-0.5,2.6c-0.5,0.8-0.8,1.3-1.3,1.5l0,0l-0.2-0.2c0.5-0.3,0.7-0.8,1.1-1.5
			c0.3-0.7,0.4-1.5,0.4-2.5v-0.2c0-0.9-0.1-1.6-0.4-2.4c-0.3-0.8-0.7-1.3-0.9-1.5l0.1-0.3l0,0c0.5,0.3,0.8,0.8,1.3,1.6
			C379.5,99.1,379.8,100.1,379.8,101.2L379.8,101.2z"/>
		<path fill="#FFFFFF" d="M382.9,100.6h1.8v0.4h-1.8v1.8h-0.6V101h-1.6v-0.4h1.8v-1.9h0.5L382.9,100.6L382.9,100.6z"/>
		<path fill="#FFFFFF" d="M388.5,101.6h1v0.5h-1v1.5H388v-1.5h-2.8v-0.3l2.8-4.1h0.5V101.6z M385.9,101.6h2.2v-3.3l0,0l-0.3,0.4
			L385.9,101.6z"/>
		<path fill="#FFFFFF" d="M393.3,101.6h1v0.5h-1v1.5h-0.5v-1.5H390v-0.3l2.8-4.1h0.5V101.6z M390.5,101.6h2.2v-3.3l0,0l-0.3,0.4
			L390.5,101.6z"/>
	</g>
	<g>
		<g>
			<path fill="#FFFFFF" d="M419.5,113.1l1-9.4h8.5v1.4h-7.3l-0.7,6.1c0.5-0.4,1-0.7,1.5-0.9s1.3-0.3,2.2-0.4c1.5,0,2.8,0.4,3.5,1.5
				c1,0.9,1.4,2.3,1.4,4s-0.5,3.1-1.4,4.2c-0.8,1-2.2,1.5-4,1.5c-1.4,0-2.5-0.5-3.5-1.3c-1-0.8-1.4-1.9-1.4-3.6v-0.1h1.3
				c0,1.3,0.3,2,1,2.8c0.7,0.7,1.5,0.9,2.5,0.9c1.3,0,2.2-0.4,2.9-1.3c0.7-0.8,1-1.8,1-3.3c0-1.3-0.3-2.3-1-3.1s-1.5-1.3-2.8-1.3
				c-1,0-1.9,0.1-2.5,0.6c-0.7,0.4-1,0.8-1.3,1.6L419.5,113.1z"/>
			<path fill="#FFFFFF" d="M441,115.2h2.8v1.3H441v4.4h-1.4v-4.4h-8v-0.8l7.9-12.1h1.5V115.2z M433.2,115.2h6.3v-9.8h-0.1l-0.5,1.3
				L433.2,115.2z"/>
			<path fill="#FFFFFF" d="M446.4,113.1l1-9.4h8.4v1.4h-7.2l-0.7,6.1c0.5-0.4,1-0.7,1.5-0.9s1.3-0.3,2.2-0.4c1.5,0,2.8,0.4,3.5,1.5
				c1,0.9,1.4,2.3,1.4,4s-0.5,3.1-1.4,4.2c-0.8,1-2.2,1.5-4,1.5c-1.4,0-2.5-0.5-3.5-1.3c-1-0.8-1.4-1.9-1.4-3.6v-0.1h1.3
				c0,1.3,0.3,2,1,2.8c0.7,0.7,1.5,0.9,2.5,0.9c1.3,0,2.2-0.4,2.9-1.3c0.7-0.8,1-1.8,1-3.3c0-1.3-0.3-2.3-1-3.1s-1.5-1.3-2.8-1.3
				c-1,0-1.9,0.1-2.5,0.6c-0.7,0.4-1,0.8-1.3,1.6L446.4,113.1z"/>
			<path fill="#FFFFFF" d="M467.9,115.2h2.8v1.3h-2.8v4.4h-1.4v-4.4h-8v-0.8l7.8-12.1h1.5L467.9,115.2L467.9,115.2z M460.1,115.2
				h6.4v-9.8h-0.1l-0.5,1.3L460.1,115.2z"/>
			<path fill="#FFFFFF" d="M474.2,120.6l-1.3,3.3h-1l0.8-3.3v-2.1h1.4L474.2,120.6L474.2,120.6z"/>
			<path fill="#FFFFFF" d="M485.9,115.2h2.8v1.3h-2.8v4.4h-1.4v-4.4h-8v-0.8l7.9-12.1h1.5V115.2z M478.1,115.2h6.4v-9.8h-0.1
				l-0.5,1.3L478.1,115.2z"/>
		</g>
	</g>
	<rect x="494.3" y="57.2" fill="#3D3D3D" width="5.5" height="37"/>
	<circle fill="#2D2D2D" cx="497" cy="72.4" r="0.7"/>
	<circle fill="#2D2D2D" cx="497" cy="75.6" r="0.7"/>
	<circle fill="#2D2D2D" cx="497" cy="79" r="0.7"/>
	<rect x="346.8" y="131.1" fill="#2B2B2B" width="147.4" height="37"/>
	<g>
		<path fill="#ED1A46" d="M363.5,155.1h-7.2v6.9H355v-14.7h9.4v1.1h-8.2v5.7h7.2L363.5,155.1L363.5,155.1z"/>
		<path fill="#ED1A46" d="M377.7,156c0,1.8-0.6,3.3-1.5,4.6c-1.1,1.3-2.5,1.8-4.2,1.8s-3.1-0.6-4-1.8c-1.1-1.3-1.5-2.8-1.5-4.6v-2.4
			c0-1.9,0.5-3.4,1.5-4.6c1-1.3,2.4-1.8,4-1.8c1.8,0,3.1,0.6,4.2,1.8c1,1.3,1.6,2.8,1.6,4.6L377.7,156L377.7,156z M376.5,153.6
			c0-1.6-0.5-2.9-1.3-3.8s-1.9-1.5-3.4-1.5c-1.4,0-2.4,0.6-3.3,1.5s-1.3,2.3-1.3,3.8v2.4c0,1.6,0.4,2.8,1.3,3.8
			c0.8,0.9,1.9,1.5,3.3,1.5c1.5,0,2.6-0.6,3.4-1.5s1.3-2.3,1.3-3.8V153.6z"/>
		<path fill="#ED1A46" d="M391.8,156c0,1.8-0.5,3.3-1.5,4.6c-1,1.3-2.5,1.8-4.2,1.8s-3.1-0.6-4-1.8c-1-1.3-1.5-2.8-1.5-4.6v-2.4
			c0-1.9,0.5-3.4,1.5-4.6s2.5-1.8,4-1.8c1.8,0,3.1,0.6,4.2,1.8c1,1.3,1.6,2.8,1.6,4.6v2.4H391.8z M390.5,153.6
			c0-1.6-0.5-2.9-1.3-3.8s-1.9-1.5-3.4-1.5c-1.4,0-2.5,0.6-3.3,1.5s-1.3,2.3-1.3,3.8v2.4c0,1.6,0.5,2.8,1.3,3.8
			c0.8,0.9,1.9,1.5,3.3,1.5c1.5,0,2.5-0.6,3.4-1.5c0.8-0.9,1.3-2.3,1.3-3.8V153.6z"/>
	</g>
	<g>
		<path fill="#FFFFFF" d="M354.7,138.1h0.5c0.5,0,0.8-0.2,1-0.3c0.3-0.3,0.3-0.6,0.3-0.8c0-0.4-0.2-0.7-0.3-0.8
			c-0.3-0.3-0.6-0.3-1-0.3s-0.7,0.1-1,0.3c-0.3,0.3-0.4,0.6-0.4,0.8h-0.4l0,0c0-0.4,0.1-0.8,0.5-1.1c0.5-0.3,0.8-0.4,1.3-0.4
			c0.6,0,1,0.1,1.3,0.4c0.3,0.3,0.5,0.7,0.5,1.3c0,0.3-0.1,0.6-0.3,0.8c-0.1,0.3-0.5,0.4-0.7,0.6c0.5,0.1,0.7,0.3,0.8,0.6
			c0.1,0.3,0.3,0.6,0.3,0.9c0,0.6-0.1,0.9-0.6,1.3c-0.3,0.3-0.8,0.4-1.3,0.4c-0.6,0-1-0.2-1.4-0.4c-0.4-0.3-0.5-0.7-0.5-1.3l0,0h0.5
			c0,0.4,0.1,0.7,0.4,0.9c0.3,0.3,0.6,0.4,0.9,0.4c0.5,0,0.7-0.2,1-0.3c0.3-0.2,0.5-0.6,0.5-0.9c0-0.4-0.2-0.7-0.5-0.9
			c-0.3-0.2-0.5-0.3-1-0.3h-0.6v-0.8h0.3L354.7,138.1L354.7,138.1z"/>
		<path fill="#FFFFFF" d="M359.2,137.3l-1.4-0.4l0.2-0.4l1.3,0.6v-1.5h0.5v1.5l1.4-0.6l0.1,0.4l-1.4,0.4l0.9,1.3l-0.4,0.3l-0.8-1.3
			l-0.8,1.3l-0.5-0.3L359.2,137.3z"/>
		<path fill="#FFFFFF" d="M361.8,139.1c0-0.9,0.2-1.9,0.6-2.6c0.4-0.8,0.8-1.4,1.3-1.6l0,0l0.1,0.3c-0.5,0.3-0.7,0.8-1,1.5
			c-0.3,0.7-0.5,1.5-0.5,2.4v0.2c0,0.9,0.1,1.6,0.5,2.4c0.3,0.7,0.7,1.3,1,1.5l-0.1,0.3l0,0c-0.4-0.3-0.9-0.8-1.3-1.5
			C362,140.9,361.8,139.9,361.8,139.1L361.8,139.1z"/>
		<path fill="#FFFFFF" d="M365.5,138.1h0.5c0.5,0,0.8-0.2,1-0.3c0.3-0.3,0.3-0.6,0.3-0.8c0-0.4-0.2-0.7-0.3-0.8
			c-0.3-0.3-0.6-0.3-1-0.3s-0.7,0.1-1,0.3c-0.3,0.3-0.4,0.6-0.4,0.8h-0.3l0,0c0-0.4,0.1-0.8,0.6-1.1c0.4-0.3,0.8-0.4,1.3-0.4
			c0.5,0,0.9,0.1,1.3,0.4c0.3,0.3,0.4,0.7,0.4,1.3c0,0.3-0.1,0.6-0.3,0.8c-0.1,0.3-0.4,0.4-0.7,0.6c0.4,0.1,0.7,0.3,0.8,0.6
			c0.1,0.3,0.3,0.6,0.3,0.9c0,0.6-0.1,0.9-0.5,1.3c-0.3,0.3-0.8,0.4-1.4,0.4c-0.5,0-0.9-0.2-1.3-0.4c-0.5-0.3-0.6-0.7-0.6-1.3l0,0
			h0.4c0,0.4,0.2,0.7,0.5,0.9c0.3,0.3,0.5,0.4,1,0.4c0.4,0,0.7-0.2,0.9-0.3c0.3-0.2,0.4-0.6,0.4-0.9c0-0.4-0.1-0.7-0.4-0.9
			c-0.3-0.2-0.6-0.3-1.1-0.3h-0.5v-0.8h0.2L365.5,138.1L365.5,138.1z"/>
		<path fill="#FFFFFF" d="M372,139.4h1v0.4h-1v1.5h-0.5v-1.5h-2.8v-0.3l2.8-4.1h0.5V139.4z M369.3,139.4h2.2v-3.3l0,0l-0.3,0.4
			L369.3,139.4z"/>
		<path fill="#FFFFFF" d="M374.7,138.1h0.5c0.5,0,0.8-0.2,1-0.3c0.1-0.1,0.3-0.6,0.3-0.8c0-0.4-0.2-0.7-0.3-0.8
			c-0.3-0.3-0.6-0.3-1-0.3c-0.5,0-0.7,0.1-1,0.3c-0.3,0.3-0.4,0.6-0.4,0.8h-0.4l0,0c0-0.4,0.1-0.8,0.5-1.1c0.3-0.3,0.8-0.4,1.3-0.4
			c0.6,0,1,0.1,1.3,0.4c0.3,0.3,0.5,0.7,0.5,1.3c0,0.3-0.1,0.6-0.3,0.8c-0.1,0.3-0.5,0.4-0.7,0.6c0.5,0.1,0.7,0.3,0.8,0.6
			c0.1,0.3,0.3,0.6,0.3,0.9c0,0.6-0.1,0.9-0.6,1.3c-0.4,0.3-0.8,0.4-1.3,0.4c-0.6,0-1-0.2-1.4-0.4c-0.4-0.3-0.5-0.7-0.5-1.3l0,0h0.5
			c0,0.4,0.1,0.7,0.4,0.9c0.3,0.3,0.6,0.4,0.9,0.4c0.4,0,0.7-0.2,1-0.3c0.3-0.2,0.5-0.6,0.5-0.9c0-0.4-0.1-0.7-0.5-0.9
			c-0.3-0.2-0.5-0.3-1-0.3h-0.6v-0.8h0.3L374.7,138.1L374.7,138.1z"/>
		<path fill="#FFFFFF" d="M379.6,139.1c0,0.9-0.1,1.8-0.6,2.6c-0.4,0.8-0.8,1.3-1.3,1.5l0,0l-0.1-0.3c0.4-0.3,0.7-0.8,1-1.5
			c0.3-0.7,0.5-1.5,0.5-2.4v-0.1c0-0.9-0.2-1.6-0.5-2.4c-0.3-0.8-0.7-1.3-1-1.5l0.2-0.3l0,0c0.4,0.3,0.8,0.8,1.3,1.6
			C379.5,137.1,379.6,137.9,379.6,139.1L379.6,139.1z"/>
		<path fill="#FFFFFF" d="M382.9,138.4h1.8v0.4h-1.8v1.8h-0.6v-1.8h-1.8v-0.4h1.8v-1.9h0.5L382.9,138.4L382.9,138.4z"/>
		<path fill="#FFFFFF" d="M388.5,139.4h1v0.4h-1v1.5h-0.5v-1.5h-2.8v-0.3l2.8-4.1h0.5V139.4z M385.9,139.4h2.2v-3.3l0,0l-0.3,0.4
			L385.9,139.4z"/>
		<path fill="#FFFFFF" d="M393,139.4h1v0.4h-1v1.5h-0.5v-1.5h-2.8v-0.3l2.8-4.1h0.5V139.4L393,139.4z M390.4,139.4h2.2v-3.3l0,0
			l-0.3,0.4L390.4,139.4z"/>
	</g>
	<g>
		<g>
			<path fill="#FFFFFF" d="M446.6,150.8l1-9.4h8.4v1.4h-7.2l-0.7,6.1c0.5-0.4,1-0.7,1.5-0.9s1.3-0.3,2.2-0.4c1.5,0,2.8,0.4,3.5,1.5
				c1,0.9,1.4,2.3,1.4,4.1s-0.5,3.1-1.4,4.2c-0.8,1.1-2.2,1.5-4,1.5c-1.4,0-2.5-0.4-3.5-1.3c-1-0.8-1.4-1.8-1.4-3.6v-0.1h1.3
				c0,1.3,0.3,2.1,1,2.8s1.5,0.9,2.5,0.9c1.3,0,2.2-0.4,2.9-1.3c0.7-0.8,1-1.8,1-3.3c0-1.3-0.3-2.3-1-3.1s-1.5-1.3-2.8-1.3
				c-1,0-1.9,0.1-2.5,0.6c-0.7,0.4-1,0.8-1.3,1.6H446.6L446.6,150.8z"/>
			<path fill="#FFFFFF" d="M468.1,153.1h2.8v1.3h-2.8v4.3h-1.4v-4.3h-8v-0.8l7.9-12.1h1.5L468.1,153.1L468.1,153.1z M460.4,153.1
				h6.4v-9.8h-0.1l-0.6,1.3L460.4,153.1z"/>
			<path fill="#FFFFFF" d="M474.5,158.4l-1.3,3.3h-1l0.8-3.3v-2h1.4L474.5,158.4L474.5,158.4z"/>
			<path fill="#FFFFFF" d="M486.1,153.1h2.8v1.3h-2.8v4.3h-1.4v-4.3h-8v-0.8l7.9-12.1h1.5V153.1z M478.4,153.1h6.4v-9.8h-0.1
				l-0.6,1.3L478.4,153.1z"/>
		</g>
	</g>
	<g>
		<rect x="494.4" y="131.1" fill="#3D3D3D" width="5.5" height="37"/>
		<circle fill="#FFFFFF" cx="497.1" cy="146.1" r="0.7"/>
		<circle fill="#FFFFFF" cx="497.1" cy="149.6" r="0.7"/>
		<circle fill="#FFFFFF" cx="497.1" cy="152.9" r="0.7"/>
	</g>
	<rect x="346.9" y="67.1" fill="#B7B7B7" width="1.4" height="108.8"/>
	<rect x="488.7" y="94.2" fill="#D81F27" width="11.3" height="37"/>
	<g>
		<path fill="#FFFFFF" d="M492.6,116.6c-0.3,0-0.3,0-0.3-0.1c0-0.2,0-4.8,0-4.8h-0.5c0,0,0,4.6,0,4.8s0.3,0.7,0.7,0.7s2.2,0,2.2,0
			v-0.6C494.5,116.6,492.8,116.6,492.6,116.6z"/>
		<path fill="#FFFFFF" d="M497.3,111.6c0,0,0,4.6,0,4.9s-0.3,0.7-0.7,0.7s-2.2,0-2.2,0v-0.6c0,0,1.6,0,1.9,0s0.3,0,0.3-0.1
			c0-0.1,0-4.8,0-4.8h0.7L497.3,111.6L497.3,111.6z"/>
		<path fill="#FFFFFF" d="M497.5,111.1c0,0,0-0.3,0-0.4c0-0.1,0-0.3-0.3-0.3s-2.9,0-2.9,0s-2.5,0-2.9,0c-0.1,0-0.3,0.3-0.3,0.3v0.4
			h-0.3v0.7h3.4h3.4v-0.7H497.5z"/>
		<path fill="#FFFFFF" d="M495.2,109.2c-0.5,0-0.7,0-0.7,0s-0.3,0-0.7,0s-0.8,0.6-0.8,1c0,0.1,0,0.1,0,0.1h0.7c0,0,0,0,0-0.3
			c0-0.1,0.1-0.3,0.3-0.3c0.3,0,0.5,0,0.5,0s0.3,0,0.5,0c0.1,0,0.3,0.3,0.3,0.3c0,0.3,0,0.3,0,0.3h0.7c0,0,0,0,0-0.1
			C496,109.8,495.6,109.2,495.2,109.2z"/>
		<rect x="494.1" y="112.4" fill="#FFFFFF" width="0.7" height="3.7"/>
		<rect x="495.5" y="112.4" fill="#FFFFFF" width="0.7" height="3.7"/>
		<rect x="492.9" y="112.4" fill="#FFFFFF" width="0.7" height="3.7"/>
	</g>
	<rect x="462.2" y="94.2" fill="#3D3D3D" width="26.5" height="37"/>
	<rect x="463.3" y="94.2" fill="#2D2D2D" width="25.4" height="18.3"/>
	<g>
		<path fill="#FFFFFF" d="M475.9,120.9h-5.5v-0.7h5.5V120.9z M475.9,123.6h-5.5v-0.7h5.5V123.6z"/>
		<path fill="#FFFFFF" d="M481.4,126.6h-0.8v-8.8l-2.5,0.3v-0.6l3.3-0.5V126.6z"/>
	</g>
	<g>
		<path fill="#FFFFFF" d="M475.6,102.1h-5.5v-0.7h5.5V102.1z M475.6,104.8h-5.5v-0.7h5.5V104.8z"/>
		<path fill="#FFFFFF" d="M483.6,103.9c0,1.3-0.3,2.2-0.8,2.9c-0.5,0.7-1.3,0.9-2.3,0.9c-1,0-1.8-0.3-2.3-0.9
			c-0.5-0.7-0.8-1.6-0.8-2.9v-2.2c0-1.3,0.3-2.2,0.8-2.8s1.3-1,2.3-1s1.8,0.3,2.3,1s0.8,1.6,0.8,2.8V103.9z M482.9,101.6
			c0-1-0.1-1.8-0.5-2.3c-0.5-0.6-1-0.8-1.6-0.8s-1.4,0.3-1.6,0.8c-0.3,0.5-0.5,1.3-0.5,2.3v2.5c0,0.9,0.1,1.8,0.5,2.3
			c0.5,0.5,1,0.8,1.6,0.8s1.4-0.3,1.6-0.8s0.5-1.3,0.5-2.3V101.6z"/>
	</g>
	<g>
		<rect x="456.8" y="94.2" fill="#3D3D3D" width="5.5" height="37"/>
		<circle fill="#FFFFFF" cx="459.5" cy="109.4" r="0.7"/>
		<circle fill="#FFFFFF" cx="459.5" cy="112.6" r="0.7"/>
		<circle fill="#FFFFFF" cx="459.5" cy="115.9" r="0.7"/>
	</g>
	<g id="completer">
		<rect x="54.3" y="162.1" fill="#2B2B2B" width="64.8" height="38.9"/>
		<rect x="54.3" y="191.2" opacity="0.8" fill="#ED1A46" enable-background="new    " width="64.8" height="9.8"/>
		<g>
			<path fill="#C9C9C9" d="M69.4,170.6c0-0.1,0-0.3,0-0.4s0-0.1,0-0.3c-0.1,0.3-0.5,0.4-0.5,0.6c-0.3,0.2-0.6,0.3-0.8,0.3
				c-0.4,0-0.7-0.1-0.9-0.3c-0.3-0.3-0.3-0.6-0.3-0.8c0-0.4,0.1-0.7,0.5-0.9c0.3-0.3,0.8-0.3,1.3-0.3h0.9V168c0-0.3-0.1-0.6-0.3-0.7
				c-0.1-0.1-0.4-0.3-0.8-0.3c-0.3,0-0.5,0.2-0.8,0.3c-0.3,0.1-0.3,0.4-0.3,0.6h-0.5l0,0c0-0.3,0.1-0.6,0.5-0.8
				c0.3-0.3,0.7-0.4,1-0.4c0.5,0,0.8,0.1,1,0.4c0.3,0.3,0.5,0.6,0.5,0.9v2.1c0,0.1,0,0.3,0,0.4c0,0.2,0,0.3,0.1,0.4h-0.8L69.4,170.6
				L69.4,170.6z M67.9,170.4c0.3,0,0.5-0.1,0.8-0.3c0.3-0.1,0.5-0.4,0.6-0.6v-0.8h-0.9c-0.5,0-0.7,0.2-1,0.3
				c-0.3,0.2-0.5,0.4-0.5,0.7s0.1,0.4,0.3,0.6C67.3,170.3,67.7,170.4,67.9,170.4z"/>
			<path fill="#C9C9C9" d="M74.2,168.8c0,0.6-0.1,1.1-0.5,1.5c-0.3,0.4-0.7,0.6-1,0.6c-0.3,0-0.5,0-0.8-0.1
				c-0.3-0.1-0.5-0.3-0.6-0.6v0.7h-0.4V165h0.4v2.4c0.1-0.3,0.3-0.4,0.6-0.6c0.3-0.2,0.4-0.2,0.8-0.2c0.5,0,0.8,0.2,1,0.6
				C74,167.6,74.2,168,74.2,168.8L74.2,168.8z M73.8,168.6c0-0.6-0.1-0.9-0.3-1.3c-0.1-0.3-0.6-0.6-0.9-0.6c-0.3,0-0.6,0.1-0.8,0.3
				c-0.1,0.1-0.3,0.4-0.4,0.6v1.8c0.1,0.3,0.3,0.4,0.4,0.6s0.4,0.3,0.7,0.3c0.5,0,0.7-0.1,1-0.4C73.7,169.6,73.8,169.1,73.8,168.6
				L73.8,168.6z"/>
			<path fill="#C9C9C9" d="M77.7,169.6c0-0.2-0.1-0.4-0.3-0.6c-0.1-0.1-0.4-0.3-0.8-0.4c-0.5-0.1-0.8-0.3-1-0.4
				c-0.3-0.2-0.5-0.4-0.5-0.7s0.1-0.6,0.5-0.8c0.3-0.3,0.5-0.3,1-0.3c0.5,0,0.8,0.1,1,0.4c0.3,0.3,0.5,0.6,0.5,0.8l0,0h-0.5
				c0-0.3-0.1-0.4-0.3-0.6c-0.1-0.2-0.4-0.3-0.8-0.3c-0.3,0-0.5,0.1-0.7,0.3c-0.1,0.1-0.3,0.3-0.3,0.6c0,0.1,0.1,0.4,0.3,0.4
				c0.1,0.1,0.5,0.3,0.8,0.3c0.6,0.1,0.8,0.3,1.1,0.4c0.3,0.1,0.4,0.4,0.4,0.8s-0.1,0.7-0.4,0.8c-0.3,0.3-0.7,0.3-1.1,0.3
				c-0.6,0-0.8-0.2-1.3-0.4c-0.4-0.3-0.6-0.4-0.6-0.7l0,0h0.5c0,0.3,0.1,0.6,0.5,0.7c0.3,0.1,0.5,0.1,0.8,0.1s0.5-0.1,0.8-0.3
				C77.6,170,77.7,169.9,77.7,169.6z"/>
		</g>
		<g>
			<path fill="#C9C9C9" d="M69.3,178.9c0-0.1-0.1-0.4-0.3-0.6c-0.1-0.1-0.4-0.3-0.8-0.4c-0.5-0.2-0.8-0.3-1-0.4
				c-0.3-0.2-0.5-0.4-0.5-0.7s0.1-0.6,0.5-0.8c0.3-0.3,0.5-0.3,1-0.3c0.5,0,0.8,0.1,1.1,0.4c0.3,0.3,0.4,0.6,0.4,0.8l0,0h-0.4
				c0-0.3-0.1-0.4-0.3-0.6c-0.1-0.2-0.4-0.3-0.8-0.3c-0.3,0-0.5,0.1-0.7,0.3c-0.2,0.1-0.3,0.3-0.3,0.6c0,0.1,0.1,0.4,0.3,0.4
				c0.1,0.1,0.4,0.3,0.8,0.3c0.5,0.1,0.8,0.3,1,0.4c0.3,0.1,0.5,0.4,0.5,0.8c0,0.4-0.1,0.7-0.5,0.8c-0.3,0.3-0.7,0.3-1,0.3
				c-0.6,0-0.8-0.2-1.3-0.4c-0.5-0.3-0.5-0.6-0.5-0.8l0,0h0.5c0,0.3,0.1,0.6,0.4,0.7c0.3,0.1,0.6,0.1,0.8,0.1s0.5-0.1,0.8-0.3
				C69.2,179.3,69.3,179,69.3,178.9z"/>
			<path fill="#C9C9C9" d="M71.2,174.6h-0.3v-0.7h0.4L71.2,174.6L71.2,174.6z M71.2,179.8h-0.3v-4.1h0.4L71.2,179.8L71.2,179.8z"/>
			<path fill="#C9C9C9" d="M72.8,175.9v0.7c0.1-0.3,0.3-0.4,0.6-0.6c0.3-0.2,0.5-0.3,0.8-0.3c0.5,0,0.8,0.1,1,0.4
				c0.3,0.3,0.4,0.7,0.4,1.3v2.4h-0.4v-2.4c0-0.4-0.1-0.8-0.3-0.9c-0.1-0.2-0.5-0.3-0.7-0.3s-0.5,0.1-0.8,0.3
				c-0.1,0.1-0.5,0.4-0.5,0.7v2.8h-0.5V176L72.8,175.9L72.8,175.9z"/>
		</g>
		<g>
			<path fill="#C9C9C9" d="M69.4,189.4c0-0.1,0-0.3,0-0.4s0-0.1,0-0.3c-0.1,0.3-0.5,0.4-0.5,0.6c-0.3,0.1-0.6,0.3-0.8,0.3
				c-0.4,0-0.7-0.1-0.9-0.3c-0.3-0.3-0.3-0.6-0.3-0.8c0-0.4,0.1-0.7,0.5-0.9c0.3-0.3,0.8-0.3,1.3-0.3h0.9v-0.6
				c0-0.3-0.1-0.6-0.3-0.7c-0.1-0.1-0.4-0.3-0.8-0.3c-0.3,0-0.5,0.1-0.8,0.3c-0.3,0.1-0.3,0.4-0.3,0.6h-0.5l0,0
				c0-0.3,0.1-0.6,0.5-0.8c0.3-0.3,0.7-0.4,1-0.4c0.5,0,0.8,0.1,1,0.4c0.3,0.3,0.5,0.6,0.5,0.9v2.1c0,0.1,0,0.3,0,0.4
				c0,0.1,0,0.3,0.1,0.4h-0.8L69.4,189.4L69.4,189.4z M67.9,189.1c0.3,0,0.5-0.1,0.8-0.3s0.5-0.4,0.6-0.6v-0.8h-0.9
				c-0.5,0-0.7,0.1-1,0.3s-0.5,0.4-0.5,0.7s0.1,0.4,0.3,0.6C67.3,189,67.7,189.1,67.9,189.1z"/>
			<path fill="#C9C9C9" d="M71.4,186c0.1-0.3,0.3-0.4,0.6-0.6c0.3-0.2,0.6-0.2,0.8-0.2c0.4,0,0.8,0.2,0.9,0.4
				c0.3,0.3,0.4,0.7,0.4,1.3v2.5h-0.5v-2.6c0-0.4-0.1-0.8-0.3-0.9c-0.1-0.2-0.5-0.3-0.7-0.3s-0.5,0.1-0.8,0.3
				c-0.3,0.1-0.5,0.4-0.5,0.7v2.9h-0.5v-5.9h0.5L71.4,186L71.4,186L71.4,186z"/>
			<path fill="#C9C9C9" d="M74.9,187.4c0-0.6,0.1-1.1,0.6-1.5s0.8-0.6,1.3-0.6s1,0.1,1.3,0.6c0.4,0.4,0.6,0.8,0.6,1.5v0.1
				c0,0.6-0.1,1.1-0.6,1.5s-0.8,0.6-1.3,0.6s-1-0.1-1.3-0.6C75.1,188.6,74.9,188.1,74.9,187.4L74.9,187.4z M75.4,187.5
				c0,0.4,0.1,0.8,0.5,1.3c0.3,0.4,0.5,0.6,0.9,0.6c0.4,0,0.8-0.1,0.9-0.6c0.3-0.3,0.5-0.7,0.5-1.3v-0.1c0-0.4-0.1-0.8-0.5-1.3
				c-0.3-0.3-0.5-0.6-0.9-0.6c-0.4,0-0.8,0.1-0.9,0.6C75.7,186.6,75.4,186.8,75.4,187.5L75.4,187.5z"/>
			<path fill="#C9C9C9" d="M80,185.3v4.4c0,0.4-0.1,0.7-0.3,0.9c-0.1,0.3-0.6,0.4-0.8,0.4c-0.1,0-0.1,0-0.3,0c-0.1,0-0.1,0-0.3,0
				v-0.4h0.1c0.1,0,0.1,0,0.1,0c0.3,0,0.5-0.1,0.6-0.3c0.1-0.1,0.1-0.4,0.1-0.7v-4.4C79.3,185.3,80,185.3,80,185.3z M80,184.3h-0.4
				v-0.7H80V184.3z"/>
			<path fill="#C9C9C9" d="M81.1,187.5c0-0.7,0.1-1.3,0.4-1.5c0.3-0.4,0.7-0.6,1.1-0.6c0.3,0,0.5,0,0.7,0.1c0.3,0.2,0.4,0.3,0.6,0.6
				v-2.4h0.4v5.9h-0.4v-0.6c-0.1,0.3-0.3,0.4-0.6,0.6c-0.3,0.1-0.4,0.1-0.8,0.1c-0.5,0-0.8-0.1-1-0.6
				C81.2,188.6,81.1,188.2,81.1,187.5L81.1,187.5z M81.7,187.5c0,0.6,0.1,0.9,0.3,1.3s0.5,0.4,1,0.4c0.3,0,0.5,0,0.7-0.1
				c0.1-0.1,0.4-0.3,0.4-0.6v-1.9c-0.1-0.3-0.3-0.4-0.4-0.6c-0.1-0.1-0.4-0.3-0.7-0.3c-0.5,0-0.7,0.2-1,0.6
				C81.7,186.6,81.7,186.9,81.7,187.5L81.7,187.5z"/>
		</g>
		<g>
			<path fill="#C9C9C9" d="M68.6,195.5l1.5-2.3h0.5l-1.8,2.8l1.8,2.8h-0.6l-1.6-2.4l-1.6,2.4h-0.5l1.8-2.8l-1.8-2.8h0.6L68.6,195.5z
				"/>
			<path fill="#C9C9C9" d="M73.2,196.2l1.6-3h0.5l-2,3.6v2.1h-0.5v-2.1l-2-3.4h0.5L73.2,196.2z"/>
		</g>
		<rect x="118.2" y="162.1" fill="#969696" width="0.9" height="21.2"/>
		<rect x="57.8" y="166.6" fill="#EF4323" width="3.7" height="3.7"/>
		<rect x="57.8" y="175.9" fill="#EF4323" width="3.7" height="3.7"/>
		<rect x="57.8" y="185.4" fill="#C9C9C9" width="3.7" height="3.7"/>
		<rect x="57.8" y="194.7" fill="#C9C9C9" width="3.7" height="3.7"/>
	</g>
	<g id="new">
		<rect x="282.6" y="124.7" display="none" fill="#E0E0E0" width="64.3" height="18.6"/>
		<polygon display="none" fill="#E0E0E0" points="282.6,124.7 258.4,143.4 282.6,143.4 		"/>
		<polygon fill="#303030" points="14.3,20.2 14.3,36.7 2,47.8 2,143.1 0.3,143.1 0.3,20.2 		"/>
		
			<text transform="matrix(1 0 0 1 306.6104 138.0625)" display="none" fill="#2B2B2B" enable-background="new    " font-family="'Roboto-Light'" font-size="12.4561">Graph</text>
		<g id="grapicon">
			<path fill="#FFFFFF" d="M12.1,29.3v0.5h-0.6v-0.5H12.1z M10.6,29.3v0.5h-0.4v-0.5H10.6z M9.3,29.3v0.5H8.7v-0.5H9.3z M7.8,29.3
				v0.5H7.2v-0.5H7.8z M6.3,29.3v0.5H5.8v-0.5H6.3z M4.8,29.3v0.5H4.3v-0.5H4.8z M3.3,29.3v0.5H2.8v-0.5H3.3z M1.8,29.3v0.5H1.5
				v-0.5H1.8z"/>
			<path fill="#FFFFFF" d="M7.2,21.5L7.2,21.5H6.6l0,0H7.2z M7.2,22.5V23H6.6v-0.5H7.2z M7.2,24v0.5H6.6v-0.5L7.2,24L7.2,24z
				 M7.2,25.4v0.5H6.6v-0.5H7.2z M7.2,26.9v0.5H6.6v-0.5H7.2z M7.2,28.4v0.5H6.6v-0.5H7.2z M7.2,29.8v0.5H6.6v-0.5H7.2z M7.2,31.3
				v0.5H6.6v-0.5H7.2z M7.2,32.8v0.5H6.6v-0.5H7.2z M7.2,34.3v0.5H6.6v-0.5H7.2z M7.2,35.6v0.5H6.6v-0.5H7.2z M7.2,37.1v0.5H6.6
				v-0.5H7.2z"/>
			<path display="none" fill="#FFFFFF" d="M11.9,22.1v14.1H2.1V22.1H11.9z M11.6,35.9V22.6h-9v13.3C2.6,35.9,11.6,35.9,11.6,35.9z"
				/>
			<polygon fill="#ED1A46" points="4.8,34.7 3.6,27.3 2.4,30.9 2.1,30.9 3.8,26.1 5,33.3 6.1,28.6 7.3,31.6 9.8,26.6 11.1,30.1 
				12.5,27.6 12.8,27.7 11,30.8 9.8,27.3 7.3,32.3 6.1,29.4 			"/>
		</g>
	</g>
	<g>
		<path fill="#A09F9F" d="M59.2,153.8c-0.4-0.3-0.8-0.3-1.3-0.3c-1.1,0-2.1,0.8-2.1,2.3c0,1.3,0.8,2.3,1.8,2.3
			c0.6,0,0.9-0.1,1.5-0.4l0.3,0.9c-0.6,0.3-1.1,0.4-1.8,0.4c-1.8,0-3-1.4-3-3.3c0-1.8,1.3-3.3,3-3.3c0.7,0,1.3,0.1,1.8,0.4
			L59.2,153.8z"/>
		<path fill="#A09F9F" d="M63.3,152.4c1.8,0,3.1,1.3,3.1,3.3s-1.3,3.3-3.1,3.3s-3.1-1.4-3.1-3.3C60.2,153.6,61.6,152.4,63.3,152.4z
			 M63.3,153.3c-1.3,0-2,0.9-2,2.3c0,1.3,0.8,2.3,2,2.3s2-0.9,2-2.3C65.4,154.4,64.4,153.3,63.3,153.3z"/>
		<path fill="#A09F9F" d="M73.6,158.9c-0.8,0-1.3-0.3-1.4-0.9c-0.5,0.6-1.3,0.9-2.2,0.9c-1.1,0-2.2-0.7-2.2-2.3v-4h1v3.9
			c0,0.9,0.5,1.5,1.3,1.5c0.7,0,1.3-0.3,1.8-0.7v-4.8h1v4.6c0,0.7,0.5,0.8,0.7,0.8L73.6,158.9z"/>
		<path fill="#A09F9F" d="M76.3,153.6c0.4-0.7,1.1-1.3,2.2-1.3c1.4,0,2.2,0.9,2.2,2.3v4.1h-1v-3.9c0-0.9-0.5-1.5-1.3-1.5
			c-0.7,0-1.5,0.6-1.9,1.3v4.1h-1v-6.3h1L76.3,153.6L76.3,153.6z"/>
		<path fill="#A09F9F" d="M82.8,150.8h0.8v2.1h1.8v0.9h-1.8v3c0,0.9,0.5,1.3,1,1.3c0.4,0,0.8-0.1,1-0.3l0.3,0.8
			c-0.3,0.1-1,0.4-1.5,0.4c-1.3,0-1.8-0.8-1.8-2.3v-2.9h-1.1v-0.9h1.1L82.8,150.8z"/>
		<path fill="#A09F9F" d="M86.4,155.8c0-1.9,1.3-3.3,2.8-3.3c0.8,0,1.5,0.4,1.8,0.8v-3.3H92v7.3c0,0.7,0.4,0.7,0.7,0.7l-0.3,0.8
			c-0.8,0-1.3-0.3-1.3-0.9c-0.5,0.6-1,0.9-1.9,0.9C87.7,158.9,86.4,157.6,86.4,155.8z M91.1,157.3v-3.1c-0.3-0.4-0.8-0.8-1.5-0.8
			c-1.3,0-1.9,1.1-1.9,2.3c0,1.4,0.8,2.3,1.9,2.3C90.1,157.9,90.7,157.6,91.1,157.3z"/>
		<path fill="#A09F9F" d="M96.8,152.4c1.8,0,3.1,1.3,3.1,3.3s-1.3,3.3-3.1,3.3s-3.1-1.4-3.1-3.3C93.7,153.6,95,152.4,96.8,152.4z
			 M96.8,153.3c-1.3,0-2.1,0.9-2.1,2.3c0,1.3,0.8,2.3,2.1,2.3s2-0.9,2-2.3C98.8,154.4,97.8,153.3,96.8,153.3z"/>
		<path fill="#A09F9F" d="M108.8,152.5l1,0.4l-2.1,6h-1.3l-1.5-4.6l-1.5,4.6h-1.3l-2.1-6l1-0.4l1.6,5.2l1.5-4.6h1.3l1.5,4.6
			L108.8,152.5z"/>
		<path fill="#A09F9F" d="M112.2,153.6c0.4-0.7,1-1.3,2.2-1.3c1.3,0,2.2,0.9,2.2,2.3v4.1h-1.1v-3.9c0-0.9-0.4-1.5-1.3-1.5
			c-0.7,0-1.5,0.6-1.8,1.3v4.1h-1.1v-6.3h1.1v1.1L112.2,153.6L112.2,153.6z"/>
		<path fill="#A09F9F" d="M120.2,160l-0.7,0.4c-0.9-1.8-1.6-3.6-1.6-5.3c0-2.1,0.6-3.7,1.6-5.3l0.7,0.4c-0.6,1.3-1.1,3-1.1,5.1
			C119.1,157.3,119.6,158.5,120.2,160z"/>
		<path fill="#A09F9F" d="M123.8,154.6l-2.8-3.6l1-0.7l2.4,3.3l2.4-3.3l1,0.7l-2.7,3.6l2.9,3.8l-0.9,0.7l-2.8-3.7l-2.5,3.6l-1-0.7
			L123.8,154.6z"/>
		<path fill="#A09F9F" d="M131.8,154.6l2.6-4.2l0.9,0.6l-2.9,4.8v3.3h-1.1v-3.3l-3-4.8l1-0.6L131.8,154.6z"/>
		<path fill="#A09F9F" d="M136.1,149.9l0.7-0.4c0.9,1.6,1.6,3.4,1.6,5.3c0,1.9-0.6,3.6-1.6,5.3l-0.7-0.4c0.6-1.3,1.1-3,1.1-5.1
			C137.1,152.6,136.8,151.3,136.1,149.9z"/>
	</g>
</g>
<g id="new_1_">
	<rect y="20.3" opacity="0.8" enable-background="new    " width="499.4" height="216.5"/>
	<path fill="#ED1A46" d="M249.5,178c-33.6,0-60.9-27.4-60.9-60.9c0-4.3,0.6-8.8,1.5-13l2.1,0.5c-1,4.2-1.4,8.4-1.4,12.6
		c0,32.4,26.4,58.9,58.9,58.9s58.8-26.4,58.8-58.9s-26.4-58.7-58.9-58.7h-0.3v-2.1h0.3c33.6,0,60.9,27.4,60.9,60.9
		C310.5,150.8,283,178,249.5,178z"/>
	<g>
		<path fill="#BCBCBC" d="M229.6,116.7h3.3c3.6,0,6.3-0.8,8.3-2.5s3-4,3-6.5c0-2.8-0.8-5.2-2.6-7c-1.8-1.9-4.3-2.8-7.8-2.8
			c-3.1,0-5.7,0.9-7.8,2.8c-2.1,1.8-3.1,4.2-3.1,7.3h-1.4v-0.3c-0.1-3.3,1.1-6.3,3.4-8.3c2.4-2.2,5.3-3.1,8.8-3.1
			c3.7,0,6.5,1.1,8.7,3.1c2.2,2,3.3,4.8,3.3,8.5c0,2.2-0.7,4.2-2.1,6c-1.3,1.8-3.3,3-5.7,3.8c2.8,0.7,4.8,1.8,6.3,3.7
			c1.5,1.8,2.3,4.1,2.3,6.7c0,3.7-1.3,6.5-3.6,8.7s-5.3,3.1-9.1,3.1c-3.6,0-6.8-1.1-9.5-3.1c-2.8-2.2-4.1-5.2-4-9v-0.2h1.4
			c0,3.1,1.1,5.7,3.4,7.8c2.3,2.1,5.2,3,8.5,3c3.6,0,6.1-0.9,8.2-2.8c1.8-1.8,2.8-4.2,2.8-7.5s-1.1-5.7-3.3-7.4
			c-2.2-1.6-5.2-2.3-9-2.3h-3.3v-1.8L229.6,116.7L229.6,116.7z"/>
		<path fill="#BCBCBC" d="M274.4,125.9h7.4v1.6h-7.4v11.6h-1.6v-11.6h-20.6v-0.8l20.1-29.8h1.9v28.9L274.4,125.9L274.4,125.9z
			 M254.6,125.9h18.1V99.1h-0.1l-2.3,3.8L254.6,125.9z"/>
	</g>
</g>
<path fill="#EF0000" d="M83.6,168.4c-2.1,0-3.8-1.8-3.8-3.9c0-2.1,1.8-3.8,3.8-3.8s3.8,1.8,3.8,3.8
	C87.4,166.6,85.7,168.4,83.6,168.4z M83.6,161.1c-1.8,0-3.3,1.5-3.3,3.4c0,1.8,1.5,3.3,3.3,3.3s3.3-1.5,3.3-3.3
	C86.9,162.6,85.4,161.1,83.6,161.1z"/>
<polygon fill="#EF0000" points="184.2,180.9 98.6,180.9 85.3,167.8 85.7,167.4 98.8,180.4 184.2,180.4 "/>
<g>
	<g>
		<path fill="#FFFFFF" d="M97.2,193.5l3.6-5.3h-3.5v-0.8h4.5v0.7l-3.6,5.3h3.8v0.8h-4.8V193.5z"/>
		<path fill="#FFFFFF" d="M105.2,189.1c0.6,0,1,0.3,1.4,0.5v-0.4h0.8v3.8c0,0.5,0.3,0.6,0.5,0.6l-0.2,0.7c-0.7,0-1-0.3-1.1-0.8
			c-0.3,0.4-0.8,0.8-1.6,0.8c-1.3,0-2.3-1-2.3-2.6C102.8,190.3,103.8,189.1,105.2,189.1z M106.4,192.9v-2.7
			c-0.3-0.3-0.8-0.4-1.3-0.4c-0.9,0-1.5,0.8-1.5,1.9s0.7,1.9,1.5,1.9C105.7,193.6,106.2,193.3,106.4,192.9z"/>
		<path fill="#FFFFFF" d="M108.2,189.4l0.8-0.4l1.7,4.1l1.7-4.1l0.8,0.4l-2.1,4.8h-0.9L108.2,189.4z"/>
		<path fill="#FFFFFF" d="M115.9,189.1c1.4,0,2.5,1,2.5,2.6s-1,2.6-2.5,2.6c-1.4,0-2.5-1.1-2.5-2.6
			C113.4,190.1,114.5,189.1,115.9,189.1z M115.9,189.9c-1,0-1.6,0.8-1.6,1.9c0,1,0.7,1.9,1.6,1.9c1,0,1.6-0.8,1.6-1.9
			C117.6,190.7,116.8,189.9,115.9,189.9z"/>
		<path fill="#FFFFFF" d="M120.4,192.6c0,0.7,0.3,1,0.8,1c0.3,0,0.5-0.1,0.7-0.1l0.2,0.7c-0.3,0.1-0.6,0.2-1,0.2
			c-0.9,0-1.6-0.5-1.6-1.7v-5.6h0.8L120.4,192.6L120.4,192.6z"/>
		<path fill="#FFFFFF" d="M124.8,189.1c0.6,0,1,0.3,1.4,0.5v-0.4h0.8v3.8c0,0.5,0.3,0.6,0.6,0.6l-0.2,0.7c-0.7,0-1-0.3-1.1-0.8
			c-0.3,0.4-0.8,0.8-1.6,0.8c-1.3,0-2.3-1-2.3-2.6C122.4,190.3,123.4,189.1,124.8,189.1z M126.2,192.9v-2.7
			c-0.3-0.3-0.8-0.4-1.3-0.4c-1,0-1.6,0.8-1.6,1.9s0.7,1.9,1.6,1.9C125.4,193.6,125.8,193.3,126.2,192.9z M123.9,188.1l1.8-1.2
			l0.4,0.8l-2,1L123.9,188.1z"/>
		<path fill="#FFFFFF" d="M129.6,190.1c0.3-0.6,0.9-0.9,1.6-0.9c0.8,0,1.3,0.4,1.5,1.1c0.4-0.6,0.9-1.1,1.8-1.1
			c1.1,0,1.6,0.8,1.6,1.9v3.3h-0.9v-3.2c0-0.7-0.4-1.1-0.9-1.1c-0.6,0-1.1,0.5-1.5,1.1v3.3h-0.8v-3.3c0-0.7-0.4-1.1-0.9-1.1
			c-0.5,0-1.1,0.5-1.4,1.1v3.3h-0.9v-5h0.9V190.1z"/>
		<path fill="#FFFFFF" d="M138.1,192.1c0.1,0.9,0.7,1.5,1.5,1.5c0.6,0,1-0.1,1.5-0.4l0.2,0.8c-0.4,0.2-1.1,0.4-1.8,0.4
			c-1.4,0-2.4-0.9-2.4-2.6c0-1.5,0.9-2.6,2.3-2.6c1.4,0,2.2,1.1,2.2,2.4c0,0.3,0,0.4-0.1,0.6L138.1,192.1L138.1,192.1z M138.1,191.4
			h2.8c0-0.9-0.5-1.5-1.4-1.5C138.7,189.9,138.2,190.4,138.1,191.4z"/>
		<path fill="#FFFFFF" d="M148.5,188.1c-0.3-0.1-0.6-0.3-0.9-0.3c-0.6,0-0.9,0.4-0.9,1v0.6h1.5v0.8h-1.5v4.1h-0.8v-4.1h-0.8v-0.8
			h0.8v-0.6c0-1.1,0.7-1.9,1.7-1.9c0.6,0,0.9,0.2,1.3,0.3L148.5,188.1z"/>
		<path fill="#FFFFFF" d="M153.6,194.3c-0.6,0-0.9-0.3-1.1-0.7c-0.4,0.4-1.1,0.8-1.8,0.8c-0.8,0-1.7-0.5-1.7-1.9v-3.3h0.9v3.1
			c0,0.8,0.3,1.2,1,1.2c0.5,0,1-0.3,1.4-0.6v-3.8h0.8v3.7c0,0.6,0.3,0.7,0.6,0.7L153.6,194.3z"/>
		<path fill="#FFFFFF" d="M155.8,190.1c0.4-0.6,0.9-0.9,1.7-0.9c1.2,0,1.7,0.8,1.7,1.9v3.3h-0.8v-3.2c0-0.7-0.3-1.2-0.9-1.2
			s-1.2,0.5-1.5,1.1v3.3H155v-5h0.9v0.8H155.8z"/>
		<path fill="#FFFFFF" d="M160.6,187.1h0.8v4.1l2.3-2.1l0.5,0.6l-1.9,1.7l2.3,2.4l-0.6,0.6l-2.6-2.6v2.6h-0.8L160.6,187.1
			L160.6,187.1z"/>
		<path fill="#FFFFFF" d="M168.6,190.2c-0.4-0.2-0.7-0.3-1.1-0.3c-0.9,0-1.6,0.7-1.6,1.9c0,1.1,0.6,1.9,1.6,1.9
			c0.5,0,0.8-0.1,1.2-0.3l0.3,0.8c-0.4,0.2-0.9,0.4-1.5,0.4c-1.4,0-2.3-1.1-2.3-2.6c0-1.4,0.9-2.6,2.4-2.6c0.6,0,0.9,0.1,1.3,0.3
			L168.6,190.2z"/>
		<path fill="#FFFFFF" d="M169.8,187.8c0-0.4,0.3-0.6,0.6-0.6c0.3,0,0.6,0.3,0.6,0.6c0,0.4-0.3,0.6-0.6,0.6
			C170.1,188.4,169.8,188.1,169.8,187.8z M170.8,194.3h-0.9v-5h0.9V194.3z"/>
		<path fill="#FFFFFF" d="M100.8,201.7c-0.3-0.2-0.7-0.3-1.1-0.3c-0.9,0-1.6,0.7-1.6,1.9c0,1.1,0.6,1.9,1.6,1.9
			c0.5,0,0.8-0.1,1.2-0.3l0.3,0.8c-0.4,0.2-0.9,0.4-1.5,0.4c-1.4,0-2.3-1.1-2.3-2.6c0-1.4,0.9-2.6,2.4-2.6c0.6,0,1,0.1,1.4,0.3
			L100.8,201.7z"/>
		<path fill="#FFFFFF" d="M104.2,200.7c1.4,0,2.5,1,2.5,2.6s-1.1,2.6-2.5,2.6c-1.5,0-2.5-1.1-2.5-2.6
			C101.7,201.7,102.7,200.7,104.2,200.7z M104.2,201.4c-1,0-1.6,0.8-1.6,1.9c0,1,0.7,1.9,1.6,1.9c1,0,1.6-0.8,1.6-1.9
			C105.8,202.3,105.1,201.4,104.2,201.4z"/>
		<path fill="#FFFFFF" d="M112.3,205.9c-0.6,0-1-0.3-1.1-0.7c-0.4,0.4-1,0.8-1.8,0.8c-0.8,0-1.7-0.5-1.7-1.9v-3.3h0.8v3.1
			c0,0.8,0.3,1.2,1,1.2c0.6,0,1.1-0.3,1.5-0.6v-3.8h0.8v3.7c0,0.6,0.3,0.7,0.5,0.7L112.3,205.9z"/>
		<path fill="#FFFFFF" d="M114.4,201.7c0.4-0.6,0.9-0.9,1.7-0.9c1.2,0,1.7,0.8,1.7,1.9v3.3H117v-3.2c0-0.7-0.3-1.2-0.9-1.2
			c-0.6,0-1.2,0.5-1.5,1.1v3.3h-0.9v-5h0.9v0.9H114.4z"/>
		<path fill="#FFFFFF" d="M119,203.4c0-1.5,1-2.6,2.3-2.6c0.7,0,1.2,0.4,1.4,0.6v-2.6h0.8v5.9c0,0.5,0.3,0.6,0.6,0.6l-0.2,0.7
			c-0.6,0-1-0.3-1.1-0.8c-0.3,0.4-0.8,0.8-1.6,0.8C120,205.9,119,204.9,119,203.4z M122.7,204.6v-2.5c-0.3-0.3-0.7-0.6-1.3-0.6
			c-1,0-1.6,0.8-1.6,1.9s0.7,1.9,1.6,1.9C121.9,205.2,122.3,204.9,122.7,204.6z"/>
		<path fill="#FFFFFF" d="M127.3,200.7c1.4,0,2.5,1,2.5,2.6s-1.1,2.6-2.5,2.6s-2.5-1.1-2.5-2.6C124.8,201.7,125.8,200.7,127.3,200.7
			z M127.3,201.4c-1,0-1.6,0.8-1.6,1.9c0,1,0.7,1.9,1.6,1.9c1,0,1.6-0.8,1.6-1.9C128.9,202.3,128.2,201.4,127.3,201.4z"/>
		<path fill="#FFFFFF" d="M136.9,200.8l0.8,0.3l-1.6,4.8h-1l-1.1-3.8l-1.1,3.8h-1l-1.6-4.8l0.8-0.3l1.3,4.1l1.2-3.7h0.9l1.1,3.7
			L136.9,200.8z"/>
		<path fill="#FFFFFF" d="M139.6,201.7c0.3-0.6,0.9-0.9,1.7-0.9c1.1,0,1.7,0.8,1.7,1.9v3.3h-0.8v-3.2c0-0.7-0.4-1.2-1-1.2
			c-0.6,0-1.1,0.5-1.5,1.1v3.3h-0.8v-5h0.8L139.6,201.7L139.6,201.7z"/>
		<path fill="#FFFFFF" d="M146,206.7l-0.5,0.3c-0.8-1.4-1.3-2.8-1.3-4.3c0-1.6,0.5-2.9,1.3-4.3l0.5,0.3c-0.5,1.1-0.9,2.4-0.9,4
			S145.5,205.6,146,206.7z"/>
		<path fill="#FFFFFF" d="M147.3,204.7c0.4,0.3,0.9,0.5,1.4,0.5c0.7,0,1.1-0.3,1.1-0.6s-0.3-0.6-1.3-1c-0.9-0.3-1.4-0.7-1.4-1.5
			c0-0.8,0.7-1.4,1.9-1.4c0.6,0,1.1,0.1,1.6,0.4l-0.3,0.7c-0.4-0.2-0.8-0.4-1.4-0.4c-0.6,0-1,0.4-1,0.6c0,0.3,0.2,0.5,1,0.8
			c1.3,0.4,1.7,0.9,1.7,1.6c0,0.9-0.8,1.4-2,1.4c-0.8,0-1.4-0.2-1.8-0.5L147.3,204.7z"/>
		<path fill="#FFFFFF" d="M152.4,203.7c0.1,0.9,0.7,1.5,1.6,1.5c0.6,0,1-0.1,1.4-0.4l0.2,0.8c-0.5,0.2-1.1,0.4-1.8,0.4
			c-1.5,0-2.4-0.9-2.4-2.6c0-1.5,0.9-2.6,2.3-2.6c1.4,0,2.1,1.1,2.1,2.4c0,0.3,0,0.4,0,0.6L152.4,203.7L152.4,203.7z M152.4,202.9
			h2.8c0-0.9-0.5-1.5-1.4-1.5C153,201.4,152.4,201.9,152.4,202.9z"/>
		<path fill="#FFFFFF" d="M160.3,201.7c-0.4-0.2-0.7-0.3-1.1-0.3c-0.9,0-1.6,0.7-1.6,1.9c0,1.1,0.6,1.9,1.6,1.9
			c0.5,0,0.8-0.1,1.2-0.3l0.3,0.8c-0.4,0.2-0.9,0.4-1.5,0.4c-1.4,0-2.3-1.1-2.3-2.6c0-1.4,0.9-2.6,2.4-2.6c0.6,0,0.9,0.1,1.4,0.3
			L160.3,201.7z"/>
		<path fill="#FFFFFF" d="M163.6,200.7c1.4,0,2.5,1,2.5,2.6s-1,2.6-2.5,2.6c-1.4,0-2.5-1.1-2.5-2.6
			C161.1,201.7,162.3,200.7,163.6,200.7z M163.6,201.4c-1,0-1.6,0.8-1.6,1.9c0,1,0.7,1.9,1.6,1.9c1,0,1.6-0.8,1.6-1.9
			C165.3,202.3,164.6,201.4,163.6,201.4z"/>
		<path fill="#FFFFFF" d="M168.1,201.7c0.4-0.6,0.9-0.9,1.7-0.9c1.1,0,1.7,0.8,1.7,1.9v3.3h-0.8v-3.2c0-0.7-0.4-1.2-1-1.2
			c-0.6,0-1.1,0.5-1.5,1.1v3.3h-0.8v-5h0.8v0.9H168.1z"/>
		<path fill="#FFFFFF" d="M172.7,203.4c0-1.5,1-2.6,2.3-2.6c0.7,0,1.2,0.4,1.4,0.6v-2.6h0.9v5.9c0,0.5,0.3,0.6,0.6,0.6l-0.2,0.7
			c-0.6,0-1-0.3-1.1-0.8c-0.3,0.4-0.8,0.8-1.6,0.8C173.7,205.9,172.7,204.9,172.7,203.4z M176.4,204.6v-2.5
			c-0.3-0.3-0.7-0.6-1.3-0.6c-1,0-1.6,0.8-1.6,1.9s0.6,1.9,1.6,1.9C175.6,205.2,176.1,204.9,176.4,204.6z"/>
		<path fill="#FFFFFF" d="M178.9,204.7c0.3,0.3,0.8,0.5,1.4,0.5c0.7,0,1.1-0.3,1.1-0.6s-0.3-0.6-1.3-1c-0.9-0.3-1.4-0.7-1.4-1.5
			c0-0.8,0.7-1.4,1.9-1.4c0.7,0,1.2,0.1,1.6,0.4l-0.3,0.7c-0.3-0.2-0.8-0.4-1.3-0.4c-0.7,0-1,0.4-1,0.6c0,0.3,0.2,0.5,1,0.8
			c1.3,0.4,1.7,0.9,1.7,1.6c0,0.9-0.8,1.4-2,1.4c-0.8,0-1.4-0.2-1.8-0.5L178.9,204.7z"/>
		<path fill="#FFFFFF" d="M183.3,198.8l0.5-0.3c0.8,1.4,1.3,2.6,1.3,4.3c0,1.5-0.4,2.9-1.3,4.3l-0.5-0.3c0.5-1.1,0.9-2.4,0.9-4
			S183.7,199.8,183.3,198.8z"/>
	</g>
</g>
</svg>
