<?xml version="1.0" encoding="utf-8"?>
<!-- Generator: Adobe Illustrator 18.0.0, SVG Export Plug-In . SVG Version: 6.00 Build 0)  -->
<!DOCTYPE svg PUBLIC "-//W3C//DTD SVG 1.1//EN" "http://www.w3.org/Graphics/SVG/1.1/DTD/svg11.dtd">
<svg version="1.1" id="Vrstva_1" xmlns="http://www.w3.org/2000/svg" xmlns:xlink="http://www.w3.org/1999/xlink" x="0px" y="0px"
	 viewBox="-250 -118.1 1000 473.6" enable-background="new -250 -118.1 1000 473.6" xml:space="preserve">
<g id="error" display="none">
	<rect x="125.3" y="345.7" display="inline" opacity="0.9" enable-background="new    " width="250" height="108.4"/>
	<rect x="125.1" y="370.7" display="inline" fill="#ED1D2B" width="250.2" height="47"/>
	
		<text transform="matrix(1 0 0 1 142.5582 387.3636)" display="inline" fill="#FFFFFF" font-family="'Roboto-Light'" font-size="14.2857">Error</text>
	
		<text transform="matrix(1 0 0 1 143.692 403.3871)" display="inline" fill="#FFFFFF" font-family="'Roboto-Light'" font-size="6.8027">Naskytla se nějaká chyba.</text>
	<rect x="328.3" y="404.7" display="inline" fill="none" stroke="#FFFFFF" stroke-miterlimit="10" width="39.1" height="8.4"/>
	
		<text transform="matrix(1 0 0 1 344.6656 411.6029)" display="inline" fill="#FFFFFF" font-family="'Roboto-Light'" font-size="6.4778">Ok</text>
</g>
<g>
	<rect x="-197.4" y="165.9" fill="#F2F2F2" width="570.6" height="187"/>
	<rect x="376.2" y="168" fill="#ED1A46" width="67.4" height="186.8"/>
	<rect x="397.2" y="255.3" fill="#FFFFFF" width="25.9" height="4.1"/>
	<rect x="397.2" y="268.3" fill="#FFFFFF" width="25.9" height="4.1"/>
	<g id="frame">
		<rect x="-249.5" y="-118.1" fill="#303030" width="997.8" height="40.9"/>
		<g id="close_button">
			<rect x="708.7" y="-118.1" fill="#C82027" width="40.9" height="40.9"/>
			<g>
				<path fill="#FFFFFF" d="M-231.5-96.8l-6.5,8.4h10.6v1.4h-12.5v-1.1l6.7-9l-6.7-7.9v-1.4h12.5v1.4h-10.4l0,0l6.2,7.6
					C-231.5-97.5-231.5-96.8-231.5-96.8z"/>
			</g>
			<polygon fill="#FFFFFF" points="-227.5,-105.1 -228.3,-105.1 -227.5,-104 			"/>
			<polygon fill="#FFFFFF" points="-227.5,-88.6 -228.3,-88.6 -227.5,-89.3 			"/>
			<rect x="-238.7" y="-100.1" fill="#C82027" width="9.7" height="1.6"/>
			<rect x="-238.7" y="-95.2" fill="#C82027" width="9.7" height="1.6"/>
			
				<rect x="728.5" y="-113.9" transform="matrix(0.7071 -0.7071 0.7071 0.7071 282.8318 486.8047)" fill="#E1E1E1" width="1.1" height="31.9"/>
			
				<rect x="728.3" y="-113.8" transform="matrix(-0.7071 -0.7071 0.7071 -0.7071 1313.524 348.2549)" fill="#E1E1E1" width="1.1" height="31.9"/>
		</g>
		<g>
			<path fill="#F7F7F7" d="M-214.4-87.2v-19.6h5.7c1.9,0,3.5,0.5,4.9,1.4c1.1,0.9,1.6,2.1,1.6,3.7c0,1.1-0.2,1.9-0.9,2.7
				c-0.5,0.9-1.4,1.4-2.5,1.6c1.1,0.2,2.1,0.9,3,1.6c0.9,0.9,1.1,1.9,1.1,3.2c0,1.6-0.5,3-1.6,4.1c-1.1,0.9-2.7,1.4-4.6,1.4
				L-214.4-87.2C-214.4-86.9-214.4-87.2-214.4-87.2z M-212.8-98h4.6c1.4,0,2.5-0.2,3.2-0.9c0.9-0.5,1.1-1.6,1.1-2.7
				c0-1.4-0.5-2.1-1.4-2.7c-0.9-0.5-1.9-0.9-3.5-0.9h-4.1C-212.8-105.1-212.8-98-212.8-98z M-212.8-96.6v8.1h5.1
				c1.4,0,2.5-0.2,3.5-1.1c0.9-0.9,1.4-1.6,1.4-3c0-1.1-0.2-2.1-1.1-3c-0.9-0.9-1.9-1.1-3.2-1.1C-207.1-96.6-212.8-96.6-212.8-96.6z
				"/>
			<path fill="#F7F7F7" d="M-188.4-87.2c0-0.5-0.2-0.9-0.2-1.4c0-0.2,0-0.9,0-1.1c-0.5,0.9-1.4,1.4-2.1,1.9c-0.9,0.5-1.9,0.9-3,0.9
				c-1.4,0-2.5-0.3-3.2-1.1s-1.1-1.6-1.1-3s0.5-2.5,1.6-3.2c1.1-0.9,2.7-1.1,4.6-1.1h3.2v-1.9c0-1.1-0.2-1.9-1.1-2.5
				c-0.9-0.5-1.6-0.9-2.7-0.9c-1.1,0-2.1,0.3-2.7,0.9c-0.5,0.5-1.1,1.4-1.1,2.1h-1.4l0,0c0-1.1,0.5-2.1,1.4-3
				c0.9-0.9,2.5-1.4,4.1-1.4c1.6,0,3,0.5,3.7,1.4c1.1,0.9,1.4,1.9,1.4,3.5v7.1c0,0.5,0,1.1,0,1.4s0.2,1.1,0.2,1.4L-188.4-87.2
				L-188.4-87.2z M-193.9-88.3c1.1,0,2.1-0.3,3-0.9c0.9-0.5,1.6-1.4,1.9-2.1v-3h-3.2c-1.4,0-2.7,0.2-3.5,0.9
				c-0.9,0.5-1.4,1.4-1.4,2.5c0,0.9,0.2,1.4,0.9,1.9C-195.5-88.6-194.6-88.3-193.9-88.3z"/>
			<path fill="#F7F7F7" d="M-176.1-100.1h-1.1c-1.1,0-1.9,0.2-2.5,0.9c-0.5,0.5-1.1,1.4-1.4,2.5v10.1h-1.6v-15h1.1l0.2,2.5v0.2
				c0.5-0.9,1.1-1.6,1.6-2.1c0.5-0.5,1.6-0.9,2.5-0.9c0.2,0,0.2,0,0.5,0c0.5,0.2,0.5,0.2,0.9,0.2L-176.1-100.1z"/>
			<path fill="#F7F7F7" d="M-161.8-93.8c0,2.1-0.5,3.7-1.4,5.1c-1.1,1.4-2.5,1.9-4.1,1.9c-1.1,0-1.9-0.3-2.7-0.5
				c-0.9-0.3-1.4-1.1-1.9-1.9l-0.2,2.1h-1.2v-21h1.6v8.7c0.5-0.9,1.1-1.4,1.9-1.9c0.9-0.5,1.6-0.5,2.7-0.5c1.6,0,3,0.9,4.1,2.1
				C-162-98.2-161.8-96.3-161.8-93.8L-161.8-93.8z M-163.4-94.1c0-1.9-0.2-3.2-1.1-4.6c-0.9-1.1-1.9-1.6-3.2-1.6
				c-1.1,0-1.9,0.2-2.7,0.9c-0.9,0.5-1.1,1.4-1.6,2.1v6.5c0.2,0.9,0.9,1.6,1.6,1.9c0.9,0.5,1.6,0.9,2.7,0.9c1.4,0,2.5-0.5,3.2-1.6
				C-163.6-90.8-163.4-92.2-163.4-94.1L-163.4-94.1z"/>
			<path fill="#F7F7F7" d="M-156.3-105.8h-1.6v-2.1h1.6V-105.8z M-156.3-87.2h-1.6v-14.7h1.6V-87.2z"/>
			<path fill="#F7F7F7" d="M-146.5-86.9c-1.9,0-3.2-0.5-4.6-1.9c-1.1-1.4-1.9-3-1.9-5.1v-0.9c0-2.1,0.5-3.7,1.9-5.1
				c1.1-1.4,2.7-2.1,4.4-2.1c1.9,0,3.2,0.5,4.4,1.6c1.1,1.4,1.6,2.7,1.6,4.6v1.4h-10.4v0.3c0,1.6,0.5,3,1.4,4.1s1.9,1.6,3.5,1.6
				c1.1,0,1.9-0.3,2.5-0.5c0.5-0.2,1.4-0.5,1.9-1.1l0.9,1.1c-0.5,0.5-1.4,1.1-2.1,1.4C-144.4-87.2-145.1-86.9-146.5-86.9z
				 M-146.5-100.5c-1.1,0-2.1,0.5-3,1.4c-0.9,0.9-1.4,2.1-1.4,3.5l0,0h8.4v-0.5c0-1.4-0.2-2.5-1.1-3.2
				C-144.4-100.1-145.4-100.5-146.5-100.5z"/>
			<path fill="#F7F7F7" d="M-117.2-93.1L-117.2-93.1c-0.2,2.1-0.9,3.5-2.1,4.6c-1.4,1.1-3,1.6-4.9,1.6c-2.1,0-3.7-0.9-5.1-2.5
				c-1.4-1.6-1.9-3.5-1.9-6.2v-3c0-2.5,0.5-4.6,1.9-6.2c1.4-1.6,3-2.5,5.1-2.5c2.1,0,3.7,0.5,4.9,1.6c1.1,1.1,1.9,2.7,2.1,4.6l0,0
				h-1.6c-0.2-1.6-0.9-3-1.6-3.7c-0.7-0.7-2.1-1.4-3.7-1.4c-1.6,0-3,0.5-4.1,1.9c-1.1,1.4-1.6,3-1.6,5.1v3.2c0,2.1,0.5,3.7,1.6,5.1
				c1.1,1.4,2.5,1.9,4.1,1.9c1.6,0,3-0.5,3.7-1.4c0.9-0.9,1.4-2.1,1.6-3.7h1.6C-117.2-94.1-117.2-93.1-117.2-93.1z"/>
			<path fill="#F7F7F7" d="M-104.1-87.2c0-0.5-0.2-0.9-0.2-1.4c0-0.2,0-0.9,0-1.1c-0.5,0.9-1.4,1.4-2.1,1.9c-0.7,0.5-1.9,0.9-3,0.9
				c-1.4,0-2.5-0.3-3.2-1.1c-0.9-0.9-1.1-1.6-1.1-3s0.5-2.5,1.6-3.2c1.1-0.9,2.7-1.1,4.6-1.1h3.2v-1.9c0-1.1-0.2-1.9-1.1-2.5
				c-0.9-0.6-1.6-0.9-2.7-0.9s-2.1,0.3-2.7,0.9c-0.5,0.5-1.1,1.4-1.1,2.1h-1.4l0,0c0-1.1,0.5-2.1,1.4-3c0.9-0.9,2.5-1.4,4.1-1.4
				c1.6,0,3,0.5,3.7,1.4c0.9,0.5,1.4,1.6,1.4,3.2v7.1c0,0.5,0,1.1,0,1.4s0.2,1.1,0.2,1.4h-1.6L-104.1-87.2L-104.1-87.2z
				 M-109.4-88.3c1.1,0,2.1-0.3,3-0.9c0.9-0.5,1.6-1.4,1.9-2.1v-3h-3.2c-1.4,0-2.7,0.2-3.5,0.9c-0.8,0.7-1.4,1.4-1.4,2.5
				c0,0.9,0.2,1.4,0.9,1.9C-111.2-88.6-110.4-88.3-109.4-88.3z"/>
			<path fill="#F7F7F7" d="M-96.9-87.2h-1.6v-21h1.6V-87.2z"/>
			<path fill="#F7F7F7" d="M-86.7-88.3c1.1,0,1.9-0.3,2.7-0.9c0.9-0.5,1.4-1.4,1.4-2.5h1.4l0,0c0,1.4-0.5,2.5-1.6,3.2
				c-1.1,0.9-2.5,1.4-3.7,1.4c-1.9,0-3.5-0.9-4.6-2.1c-1.1-1.4-1.6-3-1.6-5.1v-0.5c0-2.1,0.5-3.7,1.6-5.1s2.7-2.1,4.6-2.1
				c1.6,0,3,0.5,4.1,1.4c1.1,0.9,1.6,2.1,1.6,3.7l0,0h-1.4c0-1.1-0.2-2.1-1.1-2.7c-0.9-0.9-1.6-1.1-3-1.1c-1.6,0-2.7,0.5-3.5,1.6
				c-0.9,1.1-1.4,2.7-1.4,4.4v0.5c0,1.6,0.2,3.2,1.1,4.4C-89.5-88.8-88.4-88.3-86.7-88.3z"/>
			<path fill="#F7F7F7" d="M-68.5-89.6c-0.5,0.9-1.1,1.6-1.9,1.9c-0.9,0.5-1.6,0.9-2.7,0.9c-1.6,0-2.7-0.5-3.5-1.6
				c-0.9-1.1-1.4-2.7-1.4-4.9v-8.4h1.6v8.4c0,1.9,0.2,3,0.9,3.7c0.5,0.9,1.4,1.1,2.5,1.1c1.1,0,2.1-0.3,3-0.9s1.4-1.4,1.6-2.1v-10.3
				h1.6v14.7h-1.4L-68.5-89.6z"/>
			<path fill="#F7F7F7" d="M-60.9-87.2h-1.6v-21h1.6V-87.2z"/>
			<path fill="#F7F7F7" d="M-47-87.2c0-0.5-0.2-0.9-0.2-1.4c0-0.2,0-0.9,0-1.1c-0.5,0.9-1.4,1.4-2.1,1.9c-0.9,0.5-1.9,0.9-3,0.9
				c-1.4,0-2.5-0.3-3.2-1.1c-0.7-0.9-1.1-1.6-1.1-3s0.5-2.5,1.6-3.2c1.1-0.9,2.7-1.1,4.6-1.1h3.2v-1.9c0-1.1-0.2-1.9-1.1-2.5
				s-1.6-0.9-2.7-0.9c-1.1,0-2.1,0.3-2.7,0.9c-0.6,0.6-1.1,1.4-1.1,2.1h-1.4l0,0c0-1.1,0.5-2.1,1.4-3c0.9-0.9,2.5-1.4,4.1-1.4
				c1.6,0,3,0.5,3.7,1.4c1.1,0.9,1.4,1.9,1.4,3.5v7.1c0,0.5,0,1.1,0,1.4s0.2,1.1,0.2,1.4L-47-87.2L-47-87.2z M-52.5-88.3
				c1.1,0,2.1-0.3,3-0.9c0.9-0.5,1.6-1.4,1.9-2.1v-3h-3.2c-1.4,0-2.7,0.2-3.5,0.9c-0.9,0.5-1.4,1.4-1.4,2.5c0,0.9,0.2,1.4,0.9,1.9
				C-54.1-88.6-53.3-88.3-52.5-88.3z"/>
			<path fill="#F7F7F7" d="M-39-105.3v3.5h3.2v1.4H-39v9.5c0,1.1,0.2,1.6,0.5,1.9c0.2,0.2,0.9,0.5,1.4,0.5c0.2,0,0.5,0,0.9,0
				c0.2,0,0.5,0,0.9,0l0.2,1.1c-0.2,0-0.5,0.2-1.1,0.2c-0.5,0-0.9,0-1.1,0c-1.1,0-1.9-0.2-2.5-1.1c-0.5-0.5-0.9-1.6-0.9-3v-9.2h-2.5
				v-1.4h2.5v-3.5L-39-105.3C-39-105.4-39-105.3-39-105.3z"/>
			<path fill="#F7F7F7" d="M-33.5-94.7c0-2.1,0.5-3.7,1.6-5.1s2.7-2.1,4.6-2.1s3.5,0.9,4.6,2.1c1.1,1.4,1.6,3.2,1.6,5.1v0.5
				c0,2.1-0.5,3.7-1.6,5.1s-2.7,2.1-4.6,2.1s-3.5-0.9-4.6-2.1c-1.1-1.4-1.6-3.2-1.6-5.1V-94.7z M-31.9-94.1c0,1.6,0.5,3,1.4,4.4
				c0.9,1.1,2.1,1.6,3.5,1.6c1.6,0,2.7-0.5,3.5-1.6c0.9-1.1,1.4-2.5,1.4-4.4v-0.5c0-1.6-0.5-3-1.4-4.4c-0.9-1.1-2.1-1.6-3.5-1.6
				c-1.6,0-2.7,0.5-3.5,1.6c-0.9,1.1-1.4,2.5-1.4,4.4V-94.1z"/>
			<path fill="#F7F7F7" d="M-10.7-100.1h-1.1c-1.1,0-1.9,0.2-2.5,0.9c-0.5,0.5-1.1,1.4-1.4,2.5v10.1h-1.6v-15h1.4v2.5v0.2
				c0.5-0.9,1.1-1.6,1.6-2.1c0.5-0.5,1.6-0.9,2.5-0.9c0.2,0,0.2,0,0.5,0s0.2,0,0.5,0L-10.7-100.1z"/>
		</g>
	</g>
	<g id="display">
		<rect x="-249.5" y="-77.4" fill="#F7F7F7" width="691.4" height="246.2"/>
		<g>
			<path fill="#303030" d="M271.7,39.8c0,6.2-1.4,11.1-4.4,14.4c-2.7,3.2-6.7,4.9-11.7,4.9c-5,0-8.7-1.6-11.7-4.9
				c-3-3.2-4.4-8.1-4.4-14.4V28.7c0-6.2,1.4-11.1,4.4-14.4c3-3.2,6.7-4.9,11.7-4.9c5,0,8.7,1.6,11.7,4.9c3,3.3,4.4,8.1,4.4,14.4
				V39.8z M263.6,27.6c0-4.1-0.5-6.7-1.9-8.7c-1.4-1.9-3.2-3-5.7-3c-2.5,0-4.4,1.1-5.7,3c-1.4,1.9-1.9,4.9-1.9,8.7V41
				c0,4.1,0.5,7.1,1.9,9s3.2,3,5.7,3s4.4-1.1,5.7-3c1.3-1.9,1.9-4.9,1.9-9V27.6z"/>
			<path fill="#303030" d="M288.3,58.6h-8.1v-7.9h8.1V58.6z"/>
			<path fill="#303030" d="M325,41.2h6.2v6.5H325v10.9h-8.2V47.7h-20.6l-0.3-4.9l20.6-32.6h8.4L325,41.2L325,41.2z M304,41.2h13
				V21.6h-0.3l-0.5,1.4L304,41.2z"/>
			<path fill="#303030" d="M363.6,41.2h6.2v6.5h-6.2v10.9h-8.1V47.7h-20.7l-0.3-4.9l20.6-32.6h8.4L363.6,41.2L363.6,41.2z
				 M342.6,41.2h13V21.6h-0.3l-0.5,1.4L342.6,41.2z"/>
			<path fill="#303030" d="M402.4,41.2h6.2v6.5h-6.2v10.9h-8.1V47.7h-20.6l-0.3-4.9L394,10.2h8.4V41.2z M381.2,41.2h13V21.6H394
				l-0.5,1.4L381.2,41.2z"/>
		</g>
	</g>
	<g id="extension">
		<rect x="-249.5" y="168" fill="#2B2B2B" width="54.3" height="27"/>
		<g>
			<path fill="#FFFFFF" d="M-228.9,181.9c0,1.1-0.2,2.1-0.9,3c-0.6,0.9-1.4,1.1-2.1,1.1c-0.5,0-1.1,0-1.6-0.3
				c-0.5-0.3-0.9-0.5-1.1-0.9v4.4h-1.1v-11.1h0.9v1.4c0.2-0.5,0.5-0.9,1.1-1.1c0.5-0.3,0.9-0.3,1.6-0.3c1.1,0,1.6,0.3,2.1,1.1
				C-229.2,179.5-228.9,180.5-228.9,181.9L-228.9,181.9z M-229.9,181.6c0-1.1-0.2-1.9-0.5-2.5c-0.5-0.5-1.1-1.1-1.9-1.1
				c-0.5,0-1.1,0.3-1.4,0.5c-0.2,0.3-0.5,0.5-0.9,1.1v3.7c0.2,0.5,0.5,0.9,0.9,1.1c0.2,0.3,0.9,0.3,1.4,0.3c0.9,0,1.4-0.3,1.9-0.9
				C-229.9,183.5-229.9,182.7-229.9,181.6L-229.9,181.6z"/>
			<path fill="#FFFFFF" d="M-227.5,181.6c0-1.1,0.2-2.1,1.1-3s1.6-1.1,2.7-1.1c1.1,0,1.9,0.3,2.7,1.1c0.9,0.9,1.1,1.6,1.1,3v0.3
				c0,1.1-0.2,2.1-1.1,3c-0.9,0.9-1.6,1.1-2.7,1.1s-1.9-0.3-2.7-1.1S-227.5,183-227.5,181.6L-227.5,181.6z M-226.4,181.6
				c0,0.9,0.2,1.6,0.9,2.5c0.5,0.9,1.1,1.1,1.9,1.1c0.9,0,1.6-0.2,1.9-1.1c0.5-0.5,0.9-1.4,0.9-2.5v-0.3c0-0.9-0.2-1.6-0.9-2.5
				c-0.5-0.5-1.1-1.1-1.9-1.1c-0.9,0-1.6,0.2-1.9,1.1C-225.9,179.7-226.4,180.5-226.4,181.6L-226.4,181.6z"/>
			<path fill="#FFFFFF" d="M-216.7,183l0.2,1.4l0,0l0.2-1.4l1.6-5.5h0.9l1.6,5.5l0.2,1.4l0,0l0.2-1.4l1.4-5.5h0.9l-2.5,8.1h0.2
				l-1.9-5.5l-0.2-1.4l0,0l-0.2,1.4l-1.9,5.5h-0.9l-2.5-8.1h0.9L-216.7,183z"/>
		</g>
		<rect x="-249.5" y="194.7" fill="#2B2B2B" width="54.3" height="27"/>
		<g>
			<path fill="#EE1D3E" d="M-231,205h-0.5c-0.5,0-1.1,0.3-1.4,0.5c-0.3,0.2-0.5,0.9-0.9,1.4v5.7h-1.1v-8.1h0.9v1.4l0,0
				c0.2-0.5,0.5-0.9,0.9-1.1c0.2-0.3,0.9-0.5,1.4-0.5h0.2h0.2L-231,205z"/>
			<path fill="#EE1D3E" d="M-230.2,208.2c0-1.1,0.2-2.1,1.1-3c0.9-0.9,1.6-1.1,2.7-1.1c1.1,0,1.9,0.3,2.7,1.1c0.9,0.9,1.1,1.6,1.1,3
				v0.3c0,1.1-0.2,2.1-1.1,3c-0.9,0.9-1.6,1.1-2.7,1.1c-1.1,0-1.9-0.2-2.7-1.1C-229.9,210.7-230.2,209.6-230.2,208.2L-230.2,208.2z
				 M-229.4,208.2c0,0.9,0.2,1.6,0.9,2.5c0.6,0.9,1.1,1.1,1.9,1.1c0.9,0,1.6-0.2,1.9-1.1c0.5-0.5,0.9-1.4,0.9-2.5v-0.3
				c0-0.9-0.2-1.6-0.9-2.5c-0.5-0.5-1.1-1.1-1.9-1.1c-0.9,0-1.6,0.2-1.9,1.1C-228.9,206.4-229.4,207.2-229.4,208.2L-229.4,208.2z"/>
			<path fill="#EE1D3E" d="M-221.5,208.2c0-1.1,0.2-2.1,1.1-3c0.9-0.9,1.6-1.1,2.7-1.1c1.1,0,1.9,0.3,2.7,1.1c0.9,0.9,1.1,1.6,1.1,3
				v0.3c0,1.1-0.2,2.1-1.1,3c-0.9,0.9-1.6,1.1-2.7,1.1s-1.9-0.2-2.7-1.1C-221.3,210.7-221.5,209.6-221.5,208.2L-221.5,208.2z
				 M-220.7,208.2c0,0.9,0.2,1.6,0.9,2.5c0.5,0.9,1.1,1.1,1.9,1.1c0.9,0,1.6-0.2,1.9-1.1c0.5-0.5,0.9-1.4,0.9-2.5v-0.3
				c0-0.9-0.2-1.6-0.9-2.5c-0.5-0.5-1.1-1.1-1.9-1.1c-0.9,0-1.6,0.2-1.9,1.1C-220.2,206.4-220.7,207.2-220.7,208.2L-220.7,208.2z"/>
			<path fill="#EE1D3E" d="M-211.2,202v2.1h1.9v0.9h-1.9v5.5c0,0.5,0,0.9,0.2,1.1c0.2,0.2,0.5,0.2,0.9,0.2s0.2,0,0.5,0
				c0.2,0,0.2,0,0.5,0v0.5c-0.2,0-0.2,0-0.5,0.2c-0.2,0-0.5,0-0.5,0c-0.5,0-1.1-0.2-1.4-0.5c-0.3-0.3-0.5-0.9-0.5-1.6v-5.5h-1.4V204
				h1.2v-2.1L-211.2,202L-211.2,202z"/>
		</g>
		<rect x="-249.5" y="221.6" fill="#2B2B2B" width="54.3" height="27"/>
		<g>
			<path fill="#FFFFFF" d="M-233.8,239.4V232h-1.4v-0.9h1.4v-1.4c0-0.9,0.2-1.4,0.5-1.9c0.5-0.5,1.1-0.5,1.6-0.5c0.2,0,0.2,0,0.5,0
				c0.2,0,0.2,0,0.5,0v0.9h-0.1c0,0-0.2,0-0.5,0c-0.5,0-0.9,0.2-1.1,0.5c-0.2,0.3-0.2,0.9-0.2,1.4v1.1h1.9v0.9h-1.9v7.4
				L-233.8,239.4L-233.8,239.4L-233.8,239.4z"/>
			<path fill="#FFFFFF" d="M-224.3,239.4c0-0.3,0-0.5,0-0.9c0-0.2,0-0.2,0-0.5c-0.2,0.5-0.9,0.9-1.1,1.1c-0.5,0.3-1.1,0.5-1.6,0.5
				c-0.9,0-1.4-0.2-1.9-0.5c-0.5-0.5-0.5-1.1-0.5-1.6c0-0.9,0.2-1.4,1.1-1.9c0.5-0.5,1.6-0.5,2.7-0.5h1.9V234c0-0.5-0.2-1.1-0.5-1.4
				c-0.2-0.2-0.9-0.5-1.6-0.5c-0.5,0-1.1,0.3-1.6,0.5c-0.5,0.3-0.5,0.9-0.5,1.1h-0.9l0,0c0-0.5,0.2-1.1,0.9-1.6
				c0.5-0.5,1.4-0.9,2.1-0.9s1.6,0.3,2.1,0.9c0.5,0.5,0.9,1.1,0.9,1.9v4.1c0,0.3,0,0.5,0,0.9c0,0.2,0,0.5,0.2,0.9h-1.6L-224.3,239.4
				L-224.3,239.4z M-226.9,238.5c0.5,0,1.1-0.2,1.6-0.5c0.5-0.3,0.9-0.9,1.1-1.1v-1.6h-1.9c-0.9,0-1.4,0.3-1.9,0.5
				c-0.5,0.3-0.9,0.9-0.9,1.4c0,0.5,0.2,0.9,0.5,1.1C-228,238.5-227.5,238.5-226.9,238.5z"/>
			<path fill="#FFFFFF" d="M-217.9,238.5c0.5,0,1.1-0.2,1.6-0.5c0.5-0.3,0.9-0.9,0.9-1.4h0.9l0,0c0,0.9-0.2,1.4-0.9,1.9
				c-0.5,0.5-1.4,0.9-2.1,0.9c-1.1,0-1.9-0.3-2.5-1.1c-0.5-0.9-0.9-1.6-0.9-3V235c0-1.1,0.2-2.1,0.9-3c0.5-0.9,1.4-1.1,2.5-1.1
				c0.9,0,1.6,0.3,2.1,0.9c0.5,0.5,0.9,1.1,0.9,2.1l0,0h-0.9c0-0.5-0.2-1.1-0.5-1.6c-0.5-0.3-1.1-0.5-1.6-0.5
				c-0.9,0-1.6,0.2-1.9,0.9c-0.5,0.5-0.5,1.4-0.5,2.5v0.3c0,1.1,0.2,1.6,0.5,2.5C-219.7,238.2-218.8,238.5-217.9,238.5z"/>
			<path fill="#FFFFFF" d="M-211.4,229v2.1h1.9v0.9h-1.9v5.5c0,0.5,0,0.9,0.2,1.1c0.2,0.2,0.5,0.2,0.9,0.2c0.4,0,0.2,0,0.5,0
				c0.2,0,0.2,0,0.5,0v0.5c-0.2,0-0.2,0-0.5,0.2c-0.2,0-0.5,0-0.5,0c-0.5,0-1.1-0.2-1.4-0.5c-0.3-0.3-0.5-0.9-0.5-1.6v-5.5h-1.4V231
				h1.4v-2.1L-211.4,229L-211.4,229z"/>
		</g>
		<rect x="-249.5" y="248.1" fill="#2B2B2B" width="54.3" height="27"/>
		<g>
			<path fill="#FFFFFF" d="M-232.7,258.5h-0.5c-0.5,0-1.1,0.3-1.4,0.5c-0.2,0.3-0.5,0.9-0.9,1.4v5.7h-1.1V258h0.9v1.4l0,0
				c0.2-0.5,0.5-0.9,0.9-1.1c0.2-0.3,0.9-0.5,1.4-0.5h0.2h0.2L-232.7,258.5z"/>
			<path fill="#FFFFFF" d="M-226.2,265.9c0-0.3,0-0.5,0-0.9c0-0.3,0-0.3,0-0.5c-0.2,0.5-0.9,0.9-1.1,1.1c-0.5,0.3-1.1,0.5-1.6,0.5
				c-0.9,0-1.4-0.3-1.9-0.5c-0.5-0.5-0.5-1.1-0.5-1.6c0-0.9,0.2-1.4,1.1-1.9c0.5-0.5,1.6-0.5,2.7-0.5h1.9v-1.1
				c0-0.5-0.2-1.1-0.5-1.4c-0.2-0.3-0.9-0.5-1.6-0.5c-0.5,0-1.1,0.3-1.6,0.5c-0.5,0.3-1.1,0.3-1.1,0.9h-0.9l0,0
				c0-0.5,0.2-1.1,0.9-1.6c0.5-0.5,1.4-0.9,2.1-0.9c0.9,0,1.6,0.3,2.1,0.9c0.5,0.6,0.9,1.1,0.9,1.9v4.1c0,0.3,0,0.5,0,0.9
				c0,0.3,0,0.5,0.2,0.9h-1.1C-226.2,266.1-226.2,265.9-226.2,265.9z M-229.2,265c0.5,0,1.1-0.3,1.6-0.5c0.5-0.3,0.9-0.9,1.1-1.1
				v-1.6h-1.6c-0.9,0-1.4,0.3-1.9,0.5c-0.5,0.3-0.9,0.9-0.9,1.4s0.2,0.9,0.5,1.1C-229.9,265-229.7,265-229.2,265z"/>
			<path fill="#FFFFFF" d="M-222,257.8v1.4c0.2-0.5,0.5-0.9,1.1-1.1c0.6-0.3,1.1-0.5,1.6-0.5c0.9,0,1.6,0.3,1.9,0.9
				c0.5,0.5,0.9,1.4,0.9,2.5v4.9h-0.9V261c0-0.9-0.2-1.6-0.5-1.9c-0.3-0.3-0.9-0.5-1.4-0.5c-0.5,0-1.1,0.3-1.6,0.5
				c-0.2,0.3-0.9,0.9-0.9,1.4v5.7h-1.1v-8.1L-222,257.8L-222,257.8z"/>
			<path fill="#FFFFFF" d="M-214.7,261.8c0-1.4,0.2-2.5,0.9-3c0.5-0.9,1.4-1.1,2.1-1.1c0.5,0,1.1,0,1.4,0.3c0.5,0.3,0.9,0.5,1.1,1.1
				v-4.9h0.9v11.7h-0.9v-1.1c-0.2,0.5-0.5,0.9-1.1,1.1c-0.5,0.3-0.9,0.3-1.6,0.3c-1.1,0-1.6-0.3-2.1-1.1
				C-214.4,264.3-214.7,263.1-214.7,261.8L-214.7,261.8z M-213.9,262c0,1.1,0.2,1.9,0.5,2.5c0.2,0.6,1.1,0.9,1.9,0.9
				c0.5,0,1.1,0,1.4-0.3c0.2-0.3,0.9-0.5,0.9-1.1v-3.7c-0.2-0.5-0.5-0.9-0.9-1.1c-0.2-0.3-0.9-0.5-1.4-0.5c-0.9,0-1.4,0.3-1.9,1.1
				C-213.7,259.9-213.9,260.8-213.9,262L-213.9,262z"/>
		</g>
		<rect x="-249.5" y="275.1" fill="#2B2B2B" width="54.3" height="27"/>
		<g>
			<path fill="#FFFFFF" d="M-230.5,292.5h-0.9v-11.6h0.9V292.5z"/>
			<path fill="#FFFFFF" d="M-228.3,288.5c0-1.1,0.2-2.1,1.1-3c0.9-0.9,1.6-1.1,2.7-1.1c1.1,0,1.9,0.2,2.7,1.1c0.9,0.9,1.1,1.6,1.1,3
				v0.3c0,1.1-0.2,2.1-1.1,3c-0.9,0.9-1.6,1.1-2.7,1.1c-1.1,0-1.9-0.3-2.7-1.1C-228,290.9-228.3,289.8-228.3,288.5L-228.3,288.5z
				 M-227.5,288.8c0,0.9,0.2,1.6,0.9,2.5c0.5,0.9,1.1,1.1,1.9,1.1c0.9,0,1.6-0.3,1.9-1.1c0.5-0.5,0.9-1.4,0.9-2.5v-0.3
				c0-0.9-0.2-1.6-0.9-2.5c-0.5-0.5-1.1-1.1-1.9-1.1c-0.9,0-1.6,0.3-1.9,1.1S-227.5,287.6-227.5,288.8L-227.5,288.8z"/>
			<path fill="#FFFFFF" d="M-219.7,288.8c0-1.4,0.2-2.5,0.9-3c0.5-0.9,1.4-1.1,2.5-1.1c0.5,0,1.1,0,1.6,0.3c0.5,0.3,0.9,0.5,1.1,1.1
				v-1.4h0.9v8.1c0,1.1-0.2,1.9-0.9,2.5c-0.5,0.5-1.4,0.9-2.5,0.9c-0.2,0-0.9,0-1.4-0.3c-0.5,0-0.9-0.3-1.1-0.3l0.2-0.9
				c0.2,0.3,0.5,0.3,1.1,0.3c0.2,0,0.9,0,1.1,0c0.9,0,1.4-0.3,1.9-0.9c0.2-0.5,0.5-1.1,0.5-1.9v-1.1c-0.2,0.5-0.5,0.9-1.1,1.1
				c-0.5,0.3-0.9,0.3-1.4,0.3c-1.1,0-1.6-0.3-2.1-1.1C-219.3,290.9-219.7,290.1-219.7,288.8L-219.7,288.8z M-218.8,288.8
				c0,1.1,0.2,1.6,0.5,2.5c0.2,0.5,1.1,0.9,1.9,0.9c0.5,0,1.1,0,1.4-0.3c0.2-0.3,0.9-0.5,0.9-1.1v-3.7c-0.2-0.5-0.5-0.9-0.9-1.1
				c-0.2-0.3-0.9-0.5-1.4-0.5c-0.9,0-1.4,0.3-1.9,1.1C-218.8,287.1-218.8,287.6-218.8,288.8L-218.8,288.8z"/>
		</g>
		<rect x="-249.5" y="301.8" fill="#2B2B2B" width="54.3" height="27"/>
		<g>
			<g>
				<path fill="#FFFFFF" d="M-222,319.5c-1.1,0-1.9-0.3-2.5-1.1c-0.5-0.9-1.1-1.6-1.1-3v-0.5c0-1.1,0.2-2.1,1.1-3s1.4-1.1,2.5-1.1
					c1.1,0,1.9,0.3,2.5,0.9c0.6,0.6,0.9,1.4,0.9,2.5v0.9h-6v0.3c0,0.9,0.2,1.6,0.9,2.1c0.6,0.5,1.1,0.9,1.9,0.9c0.5,0,1.1,0,1.4-0.3
					c0.2-0.3,0.9-0.3,1.1-0.5l0.2,0.5c-0.2,0.3-0.9,0.5-1.1,0.9C-220.7,318.9-221.3,319.5-222,319.5z M-222,311.9
					c-0.5,0-1.4,0.3-1.6,0.9c-0.5,0.5-0.9,1.1-0.9,1.9l0,0h4.9v-0.3c0-0.9-0.2-1.4-0.5-1.9C-220.9,312.1-221.5,311.9-222,311.9z"/>
			</g>
		</g>
		<rect x="-249.5" y="328.7" fill="#2B2B2B" width="54.3" height="27"/>
		<g>
			<path fill="#FFFFFF" d="M-220.7,342.3c0,1.1-0.2,2.1-0.9,3c-0.6,0.9-1.4,1.1-2.1,1.1c-0.5,0-1.1,0-1.6-0.3s-0.9-0.5-1.1-0.9v4.4
				h-0.9v-11.1h0.9v1.4c0.2-0.5,0.5-0.9,1.1-1.1c0.5-0.3,0.9-0.3,1.6-0.3c1.1,0,1.6,0.3,2.1,1.1
				C-220.9,339.8-220.7,340.9-220.7,342.3L-220.7,342.3z M-221.5,341.9c0-1.1-0.2-1.9-0.5-2.5c-0.5-0.5-1.1-1.1-1.9-1.1
				c-0.5,0-1.1,0.3-1.4,0.5c-0.2,0.3-0.5,0.5-0.9,1.1v3.7c0.2,0.5,0.5,0.9,0.9,1.1c0.2,0.3,0.9,0.3,1.4,0.3c0.9,0,1.4-0.3,1.9-0.9
				C-221.8,343.9-221.5,343.3-221.5,341.9L-221.5,341.9z"/>
			<path fill="#FFFFFF" d="M-217.4,335.7h-0.9v-1.4h0.9V335.7z M-217.4,346h-0.9v-8.1h0.9V346z"/>
		</g>
	</g>
	<g id="soustavy">
		<g>
			<path fill="#EF4323" d="M-232.9,125.7v-9.2h2.7c1.1,0,1.6,0.2,2.1,0.5c0.5,0.2,0.9,1.1,0.9,1.9c0,0.5,0,0.9-0.2,1.4
				c-0.2,0.5-0.5,0.5-1.1,0.9c0.5,0,1.1,0.2,1.4,0.9c0.2,0.6,0.5,0.9,0.5,1.4c0,0.9-0.2,1.4-0.9,1.9c-0.6,0.5-1.4,0.5-2.1,0.5h-3.3
				V125.7z M-232.2,120.5h2.1c0.5,0,1.1-0.2,1.6-0.5c0.2-0.2,0.5-0.9,0.5-1.4c0-0.5-0.2-1.1-0.5-1.4c-0.2-0.2-0.9-0.5-1.6-0.5h-2.1
				V120.5z M-232.2,121.3v3.7h2.5c0.5,0,1.1-0.3,1.6-0.5c0.2-0.3,0.5-0.9,0.5-1.4c0-0.5-0.2-1.1-0.5-1.4c-0.2-0.2-0.9-0.5-1.6-0.5
				L-232.2,121.3L-232.2,121.3z"/>
			<path fill="#EF4323" d="M-223.9,125.7h-0.9v-9.2h0.9V125.7z"/>
			<path fill="#EF4323" d="M-214.7,125.7h-0.9l-5.1-7.9l0,0v7.9h-0.9v-9.2h0.9l5.1,7.9l0,0v-7.9h0.9V125.7z"/>
			<path d="M-193.6,125.7h-0.9v-8.4l-2.5,0.2V117l3-0.5v9.2L-193.6,125.7L-193.6,125.7z"/>
			<path d="M-184,122.1c0,1.1-0.2,2.1-0.9,2.7c-0.6,0.6-1.4,1.1-2.1,1.1c-0.9,0-1.6-0.3-2.1-1.1c-0.5-0.5-0.9-1.6-0.9-2.7V120
				c0-1.1,0.2-2.1,0.9-2.7c0.5-0.5,1.4-1.1,2.1-1.1c0.9,0,1.6,0.2,2.1,1.1c0.5,0.9,0.9,1.6,0.9,2.7V122.1z M-184.6,120
				c0-0.9-0.2-1.6-0.5-2.1c-0.3-0.5-0.9-0.9-1.6-0.9c-0.9,0-1.4,0.2-1.6,0.9c-0.2,0.5-0.5,1.4-0.5,2.1v2.1c0,0.9,0.2,1.6,0.5,2.1
				c0.2,0.5,0.9,0.9,1.6,0.9s1.4-0.3,1.6-0.9c0.2-0.5,0.5-1.4,0.5-2.1V120z"/>
			<path d="M-178.9,125.7h-0.9v-8.4l-2.5,0.2V117l3-0.5v9.2L-178.9,125.7L-178.9,125.7z"/>
			<path d="M-169.1,122.1c0,1.1-0.2,2.1-0.9,2.7c-0.6,0.6-1.4,1.1-2.1,1.1c-0.9,0-1.6-0.3-2.1-1.1c-0.5-0.5-0.9-1.6-0.9-2.7V120
				c0-1.1,0.2-2.1,0.9-2.7c0.5-0.5,1.4-1.1,2.1-1.1c0.9,0,1.6,0.2,2.1,1.1c0.5,0.9,0.9,1.6,0.9,2.7V122.1z M-169.9,120
				c0-0.9-0.2-1.6-0.5-2.1c-0.2-0.5-0.9-0.9-1.6-0.9c-0.9,0-1.4,0.2-1.6,0.9c-0.2,0.5-0.5,1.4-0.5,2.1v2.1c0,0.9,0.2,1.6,0.5,2.1
				c0.3,0.5,0.9,0.9,1.6,0.9s1.4-0.3,1.6-0.9c0.2-0.5,0.5-1.4,0.5-2.1V120z"/>
			<path d="M-160.9,125.7h-0.9v-8.4l-2.5,0.2V117l3-0.5v9.2L-160.9,125.7L-160.9,125.7z"/>
			<path d="M-151.4,122.1c0,1.1-0.2,2.1-0.9,2.7c-0.5,0.5-1.4,1.1-2.1,1.1c-0.9,0-1.6-0.3-2.1-1.1c-0.5-0.5-0.9-1.6-0.9-2.7V120
				c0-1.1,0.2-2.1,0.9-2.7c0.5-0.5,1.4-1.1,2.1-1.1c0.9,0,1.6,0.2,2.1,1.1c0.5,0.9,0.9,1.6,0.9,2.7V122.1z M-152.3,120
				c0-0.9-0.2-1.6-0.5-2.1c-0.3-0.5-0.9-0.9-1.6-0.9c-0.9,0-1.4,0.2-1.6,0.9c-0.2,0.5-0.5,1.4-0.5,2.1v2.1c0,0.9,0.2,1.6,0.5,2.1
				c0.2,0.5,0.9,0.9,1.6,0.9c0.9,0,1.4-0.3,1.6-0.9c0.2-0.5,0.5-1.4,0.5-2.1V120z"/>
			<path d="M-146.3,125.7h-0.9v-8.4l-2.5,0.2V117l3-0.5v9.2L-146.3,125.7C-146.3,125.8-146.3,125.7-146.3,125.7z"/>
			<path d="M-136.8,122.1c0,1.1-0.2,2.1-0.9,2.7c-0.5,0.5-1.4,1.1-2.1,1.1c-0.9,0-1.6-0.3-2.1-1.1c-0.5-0.5-0.9-1.6-0.9-2.7V120
				c0-1.1,0.2-2.1,0.9-2.7c0.5-0.5,1.4-1.1,2.1-1.1c0.9,0,1.6,0.2,2.1,1.1c0.5,0.9,0.9,1.6,0.9,2.7V122.1z M-137.5,120
				c0-0.9-0.2-1.6-0.5-2.1c-0.3-0.5-0.9-0.9-1.6-0.9c-0.9,0-1.4,0.2-1.6,0.9c-0.2,0.5-0.5,1.4-0.5,2.1v2.1c0,0.9,0.2,1.6,0.5,2.1
				c0.2,0.5,0.9,0.9,1.6,0.9c0.9,0,1.4-0.3,1.6-0.9c0.2-0.5,0.5-1.4,0.5-2.1V120z"/>
			<path d="M-131.5,125.7h-0.9v-8.4l-2.5,0.2V117l3-0.5v9.2L-131.5,125.7C-131.5,125.8-131.5,125.7-131.5,125.7z"/>
			<path d="M-122.1,122.1c0,1.1-0.2,2.1-0.9,2.7c-0.5,0.5-1.4,1.1-2.1,1.1s-1.6-0.3-2.1-1.1c-0.5-0.5-0.9-1.6-0.9-2.7V120
				c0-1.1,0.2-2.1,0.9-2.7c0.5-0.5,1.4-1.1,2.1-1.1s1.6,0.2,2.1,1.1c0.5,0.9,0.9,1.6,0.9,2.7V122.1z M-122.6,120
				c0-0.9-0.2-1.6-0.5-2.1c-0.2-0.5-0.9-0.9-1.6-0.9s-1.4,0.2-1.6,0.9c-0.2,0.5-0.5,1.4-0.5,2.1v2.1c0,0.9,0.2,1.6,0.5,2.1
				c0.2,0.5,0.9,0.9,1.6,0.9s1.4-0.3,1.6-0.9c0.2-0.5,0.5-1.4,0.5-2.1C-122.6,122.1-122.6,120-122.6,120z"/>
		</g>
		<g>
			<path opacity="0.8" fill="#ED1A46" enable-background="new    " d="M-232.9,111.5v-9.2h2.7c1.1,0,2.1,0.2,2.7,1.1
				c0.9,0.9,1.1,1.6,1.1,3v1.1c0,1.1-0.2,2.1-1.1,3c-0.9,0.9-1.6,1.1-2.7,1.1L-232.9,111.5L-232.9,111.5z M-232.2,102.8v7.9h1.9
				c0.9,0,1.6-0.3,2.1-1.1c0.5-0.5,0.9-1.4,0.9-2.5v-1c0-1.1-0.2-1.6-0.9-2.5c-0.5-0.5-1.4-1.1-2.1-1.1h-1.9
				C-232.2,102.5-232.2,102.8-232.2,102.8z"/>
			<path opacity="0.8" fill="#ED1A46" enable-background="new    " d="M-219.3,106.8h-4.4v3.7h5.1v0.5h-6v-9.2h5.7v0.5h-4.9v3.5h4.4
				L-219.3,106.8L-219.3,106.8z"/>
			<path opacity="0.8" fill="#ED1A46" enable-background="new    " d="M-210.7,108.5L-210.7,108.5c0,1.1-0.2,1.6-1.1,2.1
				c-0.9,0.5-1.4,0.9-2.5,0.9s-1.9-0.2-2.5-1.1c-0.5-0.9-0.9-1.6-0.9-3v-1.2c0-1.1,0.2-2.1,0.9-3c0.6-0.9,1.4-1.1,2.5-1.1
				s1.6,0.3,2.5,0.9c0.5,0.5,0.9,1.4,1.1,2.1l0,0h-0.9c0-0.9-0.2-1.4-0.9-1.6c-0.6-0.2-1.1-0.5-1.9-0.5c-0.9,0-1.4,0.3-1.9,0.9
				c-0.5,0.5-0.9,1.4-0.9,2.5v1.6c0,1.1,0.2,1.9,0.9,2.5c0.5,0.5,1.1,0.9,1.9,0.9c0.9,0,1.4-0.3,1.9-0.5c0.5-0.3,0.9-1.1,0.9-1.9
				L-210.7,108.5L-210.7,108.5z"/>
			<path d="M-193,111.5h-0.9v-8.4l-2.5,0.2v-0.5l3-0.5v9.2L-193,111.5L-193,111.5z"/>
			<path d="M-183.5,108c0,1.1-0.2,2.1-0.9,2.7c-0.6,0.6-1.4,1.1-2.1,1.1c-0.9,0-1.6-0.2-2.1-1.1c-0.5-0.5-0.9-1.6-0.9-2.7v-2.1
				c0-1.1,0.2-2.1,0.9-2.7c0.6-0.6,1.4-1.1,2.1-1.1c0.9,0,1.6,0.3,2.1,1.1c0.5,0.9,0.9,1.6,0.9,2.7V108z M-184.4,105.8
				c0-0.9-0.2-1.6-0.5-2.1c-0.2-0.5-0.9-0.9-1.6-0.9c-0.9,0-1.4,0.3-1.6,0.9c-0.2,0.6-0.5,1.4-0.5,2.1v2.1c0,0.9,0.2,1.6,0.5,2.1
				c0.2,0.5,0.9,0.9,1.6,0.9c0.9,0,1.4-0.2,1.6-0.9c0.2-0.5,0.5-1.4,0.5-2.1V105.8z"/>
			<path d="M-180.3,106.3h0.9c0.5,0,1.1-0.2,1.6-0.5s0.5-0.9,0.5-1.4s-0.2-1.1-0.5-1.4c-0.2-0.3-0.9-0.5-1.4-0.5s-1.1,0.2-1.4,0.5
				c-0.2,0.2-0.5,0.9-0.5,1.4h-0.9l0,0c0-0.9,0.2-1.4,0.9-1.9c0.5-0.5,1.1-0.9,1.9-0.9c0.9,0,1.4,0.2,1.9,0.5
				c0.5,0.2,0.9,1.1,0.9,1.9c0,0.5,0,0.9-0.2,1.1s-0.5,0.5-1.1,0.9c0.5,0.2,1.1,0.5,1.4,0.9c0.2,0.2,0.5,0.9,0.5,1.4
				c0,0.9-0.2,1.4-0.9,1.9c-0.7,0.5-1.1,0.9-1.9,0.9c-0.9,0-1.4-0.3-2.1-0.9c-0.9-0.5-0.9-1.1-0.9-1.9l0,0h0.9
				c0,0.5,0.2,1.1,0.5,1.4c0.2,0.2,0.9,0.5,1.6,0.5c0.5,0,1.1-0.3,1.6-0.5c0.5-0.3,0.5-0.9,0.5-1.4c0-0.5-0.2-1.1-0.5-1.4
				c-0.2-0.2-0.9-0.5-1.6-0.5h-0.9l0,0L-180.3,106.3L-180.3,106.3L-180.3,106.3z"/>
		</g>
		<g>
			<path fill="#EF4323" d="M-226.2,149.1c0,1.1-0.2,2.1-1.1,3c-0.5,0.9-1.6,1.1-2.7,1.1s-1.9-0.3-2.5-1.1c-0.5-0.9-0.9-1.9-0.9-3
				v-1.4c0-1.1,0.2-2.1,1.1-3c0.5-0.9,1.6-1.1,2.5-1.1c1.1,0,1.9,0.3,2.7,1.1c0.5,0.9,1.1,1.6,1.1,3v1.4H-226.2z M-226.9,147.7
				c0-1.1-0.2-1.9-0.9-2.5c-0.5-0.5-1.1-0.9-2.1-0.9c-0.9,0-1.6,0.3-2.1,0.9c-0.5,0.5-0.9,1.4-0.9,2.5v1.6c0,1.1,0.2,1.9,0.9,2.5
				c0.5,0.5,1.1,0.9,2.1,0.9c0.9,0,1.6-0.3,2.1-0.9c0.5-0.5,0.9-1.4,0.9-2.5V147.7z"/>
			<path fill="#EF4323" d="M-217.9,150.2L-217.9,150.2c0,1.1-0.2,1.6-1.1,2.1c-0.9,0.5-1.4,0.9-2.5,0.9c-1.1,0-1.9-0.3-2.5-1.1
				c-0.5-0.9-0.9-1.6-0.9-3v-1.4c0-1.1,0.2-2.1,0.9-3c0.5-0.9,1.4-1.1,2.5-1.1c1.1,0,1.6,0.3,2.5,0.9c0.5,0.5,0.9,1.4,1.1,2.1l0,0
				h-0.9c0-0.9-0.2-1.4-0.9-1.6s-1.1-0.5-1.9-0.5c-0.9,0-1.4,0.3-1.9,0.9c-0.5,0.6-0.9,1.4-0.9,2.5v1.6c0,1.1,0.2,1.9,0.9,2.5
				c0.5,0.5,1.1,0.9,1.9,0.9c0.9,0,1.4-0.3,1.9-0.5c0.5-0.3,0.9-1.1,0.9-1.9L-217.9,150.2L-217.9,150.2z"/>
			<path fill="#EF4323" d="M-209.8,144.5h-3.2v8.4h-0.9v-8.4h-3V144h7.1C-209.8,144-209.8,144.5-209.8,144.5z"/>
			<path d="M-191.6,149.8h1.4v0.5h-1.4v2.5h-0.9v-2.5h-4.4v-0.5l4.4-6.5h0.9V149.8z M-195.8,149.8h3.2v-5.1l0,0l-0.2,0.9
				L-195.8,149.8z"/>
			<path d="M-183.3,149.3c0,1.1-0.2,2.1-0.9,2.7c-0.5,0.5-1.4,1.1-2.1,1.1c-0.7,0-1.6-0.3-2.1-1.1c-0.5-0.5-0.9-1.6-0.9-2.7v-2.1
				c0-1.1,0.2-2.1,0.9-2.7c0.5-0.5,1.4-1.1,2.1-1.1c0.7,0,1.6,0.3,2.1,1.1c0.5,0.9,0.9,1.6,0.9,2.7V149.3z M-184,147.2
				c0-0.9-0.2-1.6-0.5-2.1c-0.2-0.5-0.9-0.9-1.6-0.9c-0.9,0-1.4,0.2-1.6,0.9c-0.2,0.5-0.5,1.4-0.5,2.1v2.1c0,0.9,0.2,1.6,0.5,2.1
				c0.2,0.5,0.9,0.9,1.6,0.9s1.4-0.3,1.6-0.9c0.2-0.5,0.5-1.4,0.5-2.1V147.2z"/>
			<path d="M-180,148h1.1c0.5,0,1.1-0.2,1.6-0.5c0.5-0.3,0.5-0.9,0.5-1.4c0-0.5-0.2-1.1-0.5-1.4c-0.2-0.3-0.9-0.5-1.4-0.5
				s-1.1,0.2-1.4,0.5c-0.3,0.3-0.5,0.9-0.5,1.4h-1.1l0,0c0-0.9,0.2-1.4,0.9-1.9c0.6-0.5,1.1-0.9,1.9-0.9c0.8,0,1.4,0.3,1.9,0.5
				c0.5,0.2,0.9,1.1,0.9,1.9c0,0.5,0,0.9-0.2,1.1c-0.2,0.3-0.5,0.5-1.1,0.9c0.5,0.2,1.1,0.5,1.4,0.9c0.2,0.3,0.5,0.9,0.5,1.4
				c0,0.9-0.2,1.4-0.9,1.9c-0.6,0.5-1.1,0.9-1.9,0.9c-0.9,0-1.4-0.3-2.1-0.9c-0.9-0.5-0.9-1.1-0.9-1.9l0,0h0.9
				c0,0.5,0.2,1.1,0.5,1.4c0.3,0.3,0.9,0.5,1.6,0.5c0.5,0,1.1-0.3,1.6-0.5c0.5-0.2,0.5-0.9,0.5-1.4c0-0.5-0.2-1.1-0.5-1.4
				c-0.2-0.2-0.9-0.5-1.6-0.5h-0.9l0,0L-180,148L-180,148z"/>
		</g>
		<g>
			<path fill="#EF4323" d="M-226.2,139.2h-0.9v-4.4h-5.1v4.4h-0.9V130h0.9v4.4h5.1V130h0.9V139.2z"/>
			<path fill="#EF4323" d="M-218.5,135h-4.6v3.7h5.1v0.5h-5.7V130h5.7v0.5h-5.1v3.5h4.4v0.9L-218.5,135L-218.5,135z"/>
			<path fill="#EF4323" d="M-213.7,134.1l2.7-3.7h0.9l-3,4.4l3.2,4.6h-0.9l-2.7-4.1l-2.7,4.1h-0.9l3.2-4.6l-3-4.6h1L-213.7,134.1z"
				/>
			<path d="M-191.6,136.2h1.4v0.5h-1.4v2.5h-0.9v-2.5h-4.4v-0.5l4.4-6.5h0.9V136.2z M-195.8,136.2h3.5v-5.1l0,0l-0.2,0.9
				L-195.8,136.2z"/>
			<path d="M-183.5,135h-4.4v4.4h-0.9v-9.2h6v0.5h-5.1v3.5h4.4V135z"/>
			<path d="M-176.8,136.8h-4.1l-0.9,2.5h-0.9l3.5-9.2h0.9l3.5,9.2h-0.9L-176.8,136.8z M-180.5,136h3.7l-2.1-4.9l0,0L-180.5,136z"/>
		</g>
	</g>
	<rect x="446" y="-77.3" fill="#2B2B2B" width="303.5" height="432.6"/>
	<rect x="444" y="-77.4" fill="#C1C1C0" width="305.5" height="73.6"/>
	<g>
		<g>
			<path d="M476-23.6h-13.6l-3,8.1H457L468-44.8h2.1l11.1,29.4h-2.5L476-23.6z M463.5-25.7h12l-6-16l0,0L463.5-25.7z"/>
			<path d="M487.8-37.1l0.2,3.7c0.9-1.4,1.6-2.5,2.7-3c1.1-0.9,2.7-1.1,4.4-1.1c2.5,0,4.1,0.9,5.5,2.1c1.4,1.2,1.9,3.7,1.9,6.7v13.4
				H500v-13.4c0-2.5-0.5-4.4-1.4-5.5c-0.9-1.1-2.1-1.6-4.1-1.6c-1.6,0-3,0.5-4.1,1.4c-1.1,0.9-1.9,2.1-2.5,3.5v15.2h-2.5v-21.7h2.4
				V-37.1L487.8-37.1z"/>
			<path d="M521.8-20.8c0-1.1-0.5-1.9-1.4-2.7c-0.9-0.9-2.5-1.4-4.6-1.9c-2.7-0.5-4.6-1.4-5.7-2.1c-1.4-0.9-1.9-2.1-1.9-3.7
				c0-1.6,0.9-3,2.1-4.4c1.4-1.1,3.2-1.6,5.7-1.6s4.4,0.5,6,1.9c1.4,1.1,2.1,2.7,2.1,4.6l0,0H522c0-1.1-0.5-2.1-1.6-3.2
				c-1.1-0.9-2.5-1.4-4.1-1.4s-3,0.2-4.1,1.1c-0.9,0.9-1.4,1.6-1.4,2.7c0,1.1,0.3,1.9,1.1,2.5c0.9,0.5,2.1,1.4,4.6,1.6
				c2.7,0.5,4.6,1.4,5.7,2.5c1.1,1.1,1.9,2.5,1.9,4.1c0,1.9-0.9,3.2-2.1,4.4c-1.4,1.1-3.5,1.6-6,1.6c-2.7,0-4.6-0.5-6.2-1.9
				s-2.1-2.7-2.1-4.6l0,0h2.1c0,1.6,0.9,2.7,1.9,3.5c1.1,0.9,2.7,1.1,4.1,1.1c1.6,0,3.2-0.2,4.1-1.1
				C521.3-18.8,521.8-19.7,521.8-20.8z"/>
		</g>
	</g>
	<g>
		<path fill="#FFFFFF" d="M459.8-63.6h1.1c0.9,0,1.6-0.2,1.9-0.5c0.5-0.5,0.5-1.1,0.5-1.6c0-0.9-0.3-1.4-0.5-1.6
			c-0.5-0.5-1.1-0.5-1.9-0.5c-0.9,0-1.4,0.2-1.9,0.5c-0.5,0.5-0.9,1.1-0.9,1.6h-0.9l0,0c0-0.9,0.3-1.6,1.1-2.1
			c0.8-0.5,1.6-0.9,2.5-0.9c1.1,0,1.9,0.2,2.5,0.9c0.5,0.5,0.9,1.4,0.9,2.5c0,0.5-0.3,1.1-0.5,1.6c-0.3,0.5-0.9,0.9-1.4,1.1
			c0.9,0.2,1.4,0.5,1.6,1.1c0.3,0.6,0.5,1.1,0.5,1.9c0,1.1-0.3,1.9-1.1,2.5c-0.5,0.5-1.6,0.9-2.7,0.9c-1.1,0-1.9-0.2-2.7-0.9
			c-0.9-0.5-1.1-1.4-1.1-2.5l0,0h0.9c0,0.9,0.2,1.4,0.9,1.9c0.5,0.5,1.1,0.9,1.9,0.9c0.9,0,1.4-0.2,1.9-0.5c0.5-0.2,0.9-1.1,0.9-1.9
			c0-0.9-0.3-1.4-0.9-1.9c-0.5-0.2-1.1-0.5-2.1-0.5H460L459.8-63.6L459.8-63.6z"/>
		<path fill="#FFFFFF" d="M468.4-65.2l-2.7-0.9L466-67l2.6,1.2v-2.9h0.9v3l2.7-1.1l0.3,0.9l-2.7,0.9l1.9,2.5l-0.9,0.5l-1.6-2.5
			l-1.6,2.5l-0.9-0.5L468.4-65.2z"/>
		<path fill="#FFFFFF" d="M473.9-61.6c0-1.9,0.3-3.7,1.1-5.1c0.9-1.6,1.6-2.7,2.5-3.2l0,0l0.3,0.5c-0.9,0.5-1.4,1.6-2.1,3
			c-0.5,1.4-0.9,3-0.9,4.9v0.2c0,1.9,0.3,3.2,0.9,4.9c0.5,1.4,1.4,2.5,2.1,3l-0.3,0.5l0,0c-0.9-0.5-1.9-1.6-2.5-3
			C474.1-57.8,473.9-59.7,473.9-61.6L473.9-61.6z"/>
		<path fill="#FFFFFF" d="M481.3-63.6h1.1c0.9,0,1.6-0.2,1.9-0.5c0.5-0.5,0.5-1.1,0.5-1.6c0-0.9-0.3-1.4-0.5-1.6
			c-0.5-0.5-1.1-0.5-1.9-0.5c-0.9,0-1.4,0.2-1.9,0.5c-0.5,0.5-0.9,1.1-0.9,1.6h-0.9l0,0c0-0.9,0.2-1.6,1.1-2.1
			c0.9-0.5,1.6-0.9,2.5-0.9c1.1,0,1.9,0.2,2.5,0.9c0.5,0.5,0.9,1.4,0.9,2.5c0,0.5-0.3,1.1-0.5,1.6s-0.9,0.9-1.4,1.1
			c0.9,0.2,1.4,0.5,1.6,1.1c0.3,0.6,0.5,1.1,0.5,1.9c0,1.1-0.3,1.9-1.1,2.5c-0.5,0.5-1.6,0.9-2.7,0.9s-1.9-0.2-2.7-0.9
			c-0.9-0.5-1.1-1.4-1.1-2.5l0,0h0.9c0,0.9,0.3,1.4,0.9,1.9c0.5,0.5,1.1,0.9,1.9,0.9c0.9,0,1.4-0.2,1.9-0.5c0.5-0.2,0.9-1.1,0.9-1.9
			c0-0.9-0.3-1.4-0.9-1.9c-0.5-0.2-1.1-0.5-2.1-0.5h-1.1v-1.6h0.7L481.3-63.6L481.3-63.6z"/>
		<path fill="#FFFFFF" d="M494-60.8h1.9v0.9H494v3h-1.1v-3h-5.5v-0.5l5.5-8.1h1.1V-60.8z M488.9-60.8h4.4v-6.7l0,0l-0.5,0.9
			L488.9-60.8z"/>
		<path fill="#FFFFFF" d="M499.4-63.6h1.1c0.9,0,1.6-0.2,1.9-0.5c0.3-0.2,0.5-1.1,0.5-1.6c0-0.9-0.3-1.4-0.5-1.6
			c-0.5-0.5-1.1-0.5-1.9-0.5c-0.9,0-1.4,0.2-1.9,0.5c-0.5,0.5-0.9,1.1-0.9,1.6h-0.8l0,0c0-0.9,0.3-1.6,1.1-2.1
			c0.5-0.5,1.6-0.9,2.5-0.9c1.1,0,1.9,0.2,2.5,0.9c0.5,0.5,0.9,1.4,0.9,2.5c0,0.5-0.3,1.1-0.5,1.6c-0.3,0.5-0.9,0.9-1.4,1.1
			c0.9,0.2,1.4,0.5,1.6,1.1c0.3,0.5,0.5,1.1,0.5,1.9c0,1.1-0.2,1.9-1.1,2.5c-0.9,0.5-1.6,0.9-2.7,0.9s-1.9-0.2-2.7-0.9
			c-0.9-0.5-1.1-1.4-1.1-2.5l0,0h0.9c0,0.9,0.2,1.4,0.9,1.9c0.5,0.5,1.1,0.9,1.9,0.9c0.8,0,1.4-0.2,1.9-0.5c0.5-0.3,0.9-1.1,0.9-1.9
			c0-0.9-0.2-1.4-0.9-1.9c-0.5-0.2-1.1-0.5-2.1-0.5h-1.1v-1.6h0.6L499.4-63.6L499.4-63.6z"/>
		<path fill="#FFFFFF" d="M509.5-61.6c0,1.9-0.3,3.7-1.1,5.1c-0.9,1.6-1.6,2.5-2.5,3l0,0l-0.3-0.5c0.9-0.5,1.4-1.6,2.1-3
			c0.5-1.4,0.9-3,0.9-4.9v-0.2c0-1.9-0.3-3.2-0.9-4.9c-0.5-1.6-1.4-2.5-1.9-3l0.3-0.5l0,0c0.9,0.5,1.6,1.6,2.5,3.2
			C509.3-65.4,509.5-63.8,509.5-61.6L509.5-61.6z"/>
		<path fill="#FFFFFF" d="M515.8-62.9h3.5v0.9h-3.5v3.7h-1.2V-62h-3.2v-0.9h3.5v-3.7h1.1v3.7L515.8-62.9L515.8-62.9z"/>
		<path fill="#FFFFFF" d="M527.1-60.8h1.9v0.9h-1.9v3H526v-3h-5.5v-0.5l5.5-8.1h1.1V-60.8z M521.8-60.8h4.4v-6.7l0,0l-0.5,0.9
			L521.8-60.8z"/>
		<path fill="#FFFFFF" d="M536.5-60.8h1.9v0.9h-1.9v3h-1.1v-3h-5.5v-0.5l5.5-8.1h1.1V-60.8z M531-60.8h4.4v-6.7l0,0l-0.5,0.9
			L531-60.8z"/>
	</g>
	<g>
		<g>
			<path fill="#FFFFFF" d="M643.4-37.9l1.9-18.7h16.9v2.7h-14.4l-1.4,12.2c0.9-0.9,1.9-1.4,3-1.9c1.1-0.5,2.5-0.5,4.4-0.9
				c3,0,5.5,0.9,7.1,3c1.9,1.9,2.7,4.6,2.7,8.1s-0.9,6.2-2.7,8.4c-1.6,2.1-4.4,3-7.9,3c-2.7,0-5.1-0.9-7.1-2.5
				c-1.9-1.6-2.7-3.7-2.7-7.1v-0.2h2.5c0,2.5,0.5,4.1,1.9,5.5c1.4,1.4,3,1.9,5.1,1.9c2.5,0,4.4-0.9,5.7-2.5c1.4-1.6,1.9-3.7,1.9-6.7
				c0-2.5-0.5-4.6-1.9-6.2c-1.4-1.6-3-2.5-5.5-2.5c-2.1,0-3.7,0.2-5.1,1.1c-1.4,0.9-1.9,1.6-2.5,3.2L643.4-37.9L643.4-37.9z"/>
			<path fill="#FFFFFF" d="M686.4-33.3h5.5v2.1h-5.5v8.7h-2.7v-8.7h-16v-1.6l15.7-24.3h3V-33.3z M670.7-33.3h12.7v-19.6h-0.3
				l-1.1,2.5L670.7-33.3z"/>
			<path fill="#FFFFFF" d="M698.9-22.7l-2.5,6.5h-1.9l1.6-6.5v-4.1h2.7L698.9-22.7L698.9-22.7z"/>
			<path fill="#FFFFFF" d="M722.6-33.3h5.5v2.1h-5.5v8.7h-2.7v-8.7h-16v-1.6L719.6-57h3V-33.3z M706.8-33.3h12.7v-19.6h-0.3
				l-1.1,2.5L706.8-33.3z"/>
		</g>
	</g>
	<rect x="444" y="-3.8" fill="#2B2B2B" width="294.8" height="73.9"/>
	<g>
		<path fill="#ED1A46" d="M460.3,58.6V29h8.4c3.5,0,6.5,1.1,9,3.5c2.5,2.5,3.5,5.5,3.5,9.2v3.7c0,3.7-1.1,6.7-3.5,9.2
			c-2.5,2.5-5.5,3.5-9,3.5h-8.4V58.6z M462.8,31.1v25.2h6.2c3,0,5.5-1.1,7.1-3c1.9-1.9,2.7-4.6,2.7-7.6V42c0-3-0.9-5.7-2.7-7.6
			c-1.9-1.9-4.4-3-7.1-3h-6.2V31.1z"/>
		<path fill="#ED1A46" d="M504,44.7h-14.4v13.9h-2.5V29h18.7v2.1h-16.4v11.4h14.4L504,44.7L504,44.7z"/>
	</g>
	<g>
		<path fill="#FFFFFF" d="M459.8,10.5h1.1c0.9,0,1.6-0.2,1.9-0.5c0.5-0.5,0.5-1.1,0.5-1.6c0-0.9-0.3-1.4-0.5-1.6
			c-0.5-0.5-1.1-0.5-1.9-0.5c-0.9,0-1.4,0.2-1.9,0.5c-0.5,0.5-0.9,1.1-0.9,1.6h-0.9l0,0c0-0.9,0.3-1.6,1.1-2.1
			c0.8-0.5,1.6-0.9,2.5-0.9c1.1,0,1.9,0.2,2.5,0.9c0.5,0.5,0.9,1.4,0.9,2.5c0,0.5-0.3,1.1-0.5,1.6c-0.2,0.5-0.9,0.9-1.4,1.1
			c0.9,0.2,1.4,0.5,1.6,1.1s0.5,1.1,0.5,1.9c0,1.1-0.3,1.9-1.1,2.5c-0.5,0.5-1.6,0.9-2.7,0.9c-1.1,0-1.9-0.2-2.7-0.9
			c-0.9-0.5-1.1-1.4-1.1-2.5l0,0h0.9c0,0.9,0.2,1.4,0.9,1.9c0.5,0.5,1.1,0.9,1.9,0.9c0.9,0,1.4-0.2,1.9-0.5c0.5-0.2,0.9-1.1,0.9-1.9
			c0-0.9-0.3-1.4-0.9-1.9c-0.5-0.2-1.1-0.5-2.1-0.5H460L459.8,10.5L459.8,10.5z"/>
		<path fill="#FFFFFF" d="M468.4,8.8L465.6,8l0.3-0.9l2.7,1.1v-3h0.9v3l2.7-1.1l0.3,0.9l-2.7,0.9l1.9,2.5l-0.9,0.5l-1.6-2.5
			l-1.6,2.5l-0.9-0.5L468.4,8.8z"/>
		<path fill="#FFFFFF" d="M473.9,12.1c0-1.9,0.3-3.7,1.1-5.1c0.9-1.6,1.6-2.7,2.5-3.2l0,0l0.3,0.5c-0.9,0.5-1.4,1.6-2.1,3
			c-0.5,1.4-0.9,3-0.9,4.9v0.2c0,1.9,0.3,3.2,0.9,4.9c0.5,1.4,1.4,2.5,2.1,3l-0.3,0.5l0,0c-0.9-0.5-1.9-1.6-2.5-3
			C474.1,16.1,473.9,14.2,473.9,12.1L473.9,12.1z"/>
		<path fill="#FFFFFF" d="M481.3,10.5h1.1c0.9,0,1.6-0.2,1.9-0.5c0.5-0.5,0.5-1.1,0.5-1.6c0-0.9-0.3-1.4-0.5-1.6
			c-0.5-0.5-1.1-0.5-1.9-0.5c-0.9,0-1.4,0.2-1.9,0.5c-0.5,0.5-0.9,1.1-0.9,1.6h-0.9l0,0c0-0.9,0.2-1.6,1.1-2.1
			c0.9-0.5,1.6-0.9,2.5-0.9c1.1,0,1.9,0.2,2.5,0.9c0.5,0.5,0.9,1.4,0.9,2.5c0,0.5-0.3,1.1-0.5,1.6c-0.2,0.5-0.9,0.9-1.4,1.1
			c0.9,0.2,1.4,0.5,1.6,1.1c0.2,0.6,0.5,1.1,0.5,1.9c0,1.1-0.3,1.9-1.1,2.5c-0.5,0.5-1.6,0.9-2.7,0.9s-1.9-0.2-2.7-0.9
			c-0.9-0.5-1.1-1.4-1.1-2.5l0,0h0.9c0,0.9,0.3,1.4,0.9,1.9c0.5,0.5,1.1,0.9,1.9,0.9c0.9,0,1.4-0.2,1.9-0.5c0.5-0.2,0.9-1.1,0.9-1.9
			c0-0.9-0.3-1.4-0.9-1.9c-0.5-0.2-1.1-0.5-2.1-0.5h-1.1v-1.6h0.7L481.3,10.5L481.3,10.5z"/>
		<path fill="#FFFFFF" d="M494,13.1h1.9V14H494v3h-1.1v-3h-5.5v-0.5l5.5-8.1h1.1V13.1z M488.9,13.1h4.4V6.3l0,0l-0.5,0.9L488.9,13.1
			z"/>
		<path fill="#FFFFFF" d="M499.4,10.5h1.1c0.9,0,1.6-0.2,1.9-0.5c0.3-0.2,0.5-1.1,0.5-1.6c0-0.9-0.3-1.4-0.5-1.6
			c-0.5-0.5-1.1-0.5-1.9-0.5c-0.9,0-1.4,0.2-1.9,0.5c-0.5,0.5-0.9,1.1-0.9,1.6h-0.8l0,0c0-0.9,0.3-1.6,1.1-2.1
			c0.5-0.5,1.6-0.9,2.5-0.9c1.1,0,1.9,0.2,2.5,0.9c0.5,0.5,0.9,1.4,0.9,2.5c0,0.5-0.3,1.1-0.5,1.6c-0.2,0.5-0.9,0.9-1.4,1.1
			c0.9,0.2,1.4,0.5,1.6,1.1c0.3,0.5,0.5,1.1,0.5,1.9c0,1.1-0.2,1.9-1.1,2.5c-0.9,0.6-1.6,0.9-2.7,0.9s-1.9-0.2-2.7-0.9
			c-0.9-0.5-1.1-1.4-1.1-2.5l0,0h0.9c0,0.9,0.2,1.4,0.9,1.9c0.5,0.5,1.1,0.9,1.9,0.9c0.8,0,1.4-0.2,1.9-0.5c0.5-0.2,0.9-1.1,0.9-1.9
			c0-0.9-0.2-1.4-0.9-1.9c-0.5-0.2-1.1-0.5-2.1-0.5h-1.1v-1.6h0.6L499.4,10.5L499.4,10.5z"/>
		<path fill="#FFFFFF" d="M509.5,12.3c0,1.9-0.3,3.7-1.1,5.1c-0.9,1.6-1.6,2.5-2.5,3l0,0l-0.1-0.5c0.9-0.5,1.4-1.6,2.1-3
			c0.5-1.4,0.9-3,0.9-4.9v-0.2c0-1.9-0.3-3.2-0.9-4.9c-0.5-1.6-1.4-2.5-1.9-3l0.3-0.5l0,0c0.9,0.5,1.6,1.6,2.5,3.2
			C509.3,8.2,509.5,10.1,509.5,12.3L509.5,12.3z"/>
		<path fill="#FFFFFF" d="M515.8,11h3.5v0.9h-3.5v3.7h-1.2v-3.7h-3.2V11h3.5V7.2h1.1v3.7L515.8,11L515.8,11z"/>
		<path fill="#FFFFFF" d="M527.1,13.1h1.9V14h-1.9v3H526v-3h-5.5v-0.5l5.5-8.1h1.1V13.1z M521.8,13.1h4.4V6.3l0,0l-0.6,0.9
			L521.8,13.1z"/>
		<path fill="#FFFFFF" d="M536.5,13.1h1.9V14h-1.9v3h-1.1v-3h-5.5v-0.5l5.5-8.1h1.1V13.1z M531,13.1h4.4V6.3l0,0l-0.5,0.9L531,13.1z
			"/>
	</g>
	<g>
		<g>
			<path fill="#FFFFFF" d="M643.4,36l1.9-18.7h16.9V20h-14.4l-1.4,12.2c0.9-0.9,1.9-1.4,3-1.9c1.1-0.5,2.5-0.5,4.4-0.9
				c3,0,5.5,0.9,7.1,3c1.9,1.9,2.7,4.6,2.7,8.1c0,3.5-0.9,6.2-2.7,8.4c-1.6,2.1-4.4,3-7.9,3c-2.7,0-5.1-0.9-7.1-2.5
				c-1.9-1.6-2.7-3.7-2.7-7.1v-0.2h2.5c0,2.5,0.5,4.1,1.9,5.5c1.4,1.4,3,1.9,5.1,1.9c2.5,0,4.4-0.9,5.7-2.5c1.4-1.6,1.9-3.7,1.9-6.7
				c0-2.5-0.5-4.6-1.9-6.2c-1.4-1.6-3-2.5-5.5-2.5c-2.1,0-3.7,0.2-5.1,1.1c-1.4,0.9-1.9,1.6-2.5,3.2L643.4,36z"/>
			<path fill="#FFFFFF" d="M686.4,40.3h5.5v2.5h-5.5v8.7h-2.7v-8.7h-16v-1.6L683.4,17h3V40.3z M670.7,40.3h12.7V20.7h-0.3l-1.1,2.5
				L670.7,40.3z"/>
			<path fill="#FFFFFF" d="M698.9,51l-2.5,6.5h-1.9l1.6-6.5v-4.1h2.7L698.9,51L698.9,51z"/>
			<path fill="#FFFFFF" d="M722.6,40.3h5.5v2.5h-5.5v8.7h-2.7v-8.7h-16v-1.6L719.6,17h3V40.3z M706.8,40.3h12.7V20.7h-0.3l-1.1,2.5
				L706.8,40.3z"/>
		</g>
	</g>
	<rect x="443.7" y="68.3" fill="#2B2B2B" width="294.8" height="73.9"/>
	<g>
		<path fill="#ED1A46" d="M469,113.7l8.4-12.5h3l-9.7,14.4l10.1,15h-3l-8.7-13l-8.7,13h-3l10.1-15l-9.7-14.4h3L469,113.7z"/>
		<path fill="#ED1A46" d="M494.3,117.5l9.2-16.4h2.7l-10.6,18.7v10.9h-2.5v-10.9l-10.6-18.5h2.7L494.3,117.5z"/>
	</g>
	<g>
		<path fill="#FFFFFF" d="M459.8,82.3h1.1c0.9,0,1.6-0.3,1.9-0.5c0.5-0.5,0.5-1.1,0.5-1.6c0-0.9-0.3-1.4-0.5-1.6
			c-0.5-0.5-1.1-0.5-1.9-0.5c-0.9,0-1.4,0.3-1.9,0.5c-0.5,0.5-0.9,1.1-0.9,1.6h-0.9l0,0c0-0.9,0.3-1.6,1.1-2.1
			c0.8-0.5,1.6-0.9,2.5-0.9c1.1,0,1.9,0.3,2.5,0.9c0.5,0.5,0.9,1.4,0.9,2.5c0,0.5-0.3,1.1-0.5,1.6c-0.3,0.5-0.9,0.9-1.4,1.1
			c0.9,0.2,1.4,0.5,1.6,1.1c0.3,0.5,0.5,1.1,0.5,1.9c0,1.1-0.3,1.9-1.1,2.5c-0.5,0.5-1.6,0.9-2.7,0.9c-1.1,0-1.9-0.2-2.7-0.9
			c-0.9-0.5-1.1-1.4-1.1-2.5l0,0h0.9c0,0.9,0.2,1.4,0.9,1.9c0.5,0.5,1.1,0.9,1.9,0.9c0.9,0,1.4-0.3,1.9-0.5c0.5-0.3,0.9-1.1,0.9-1.9
			c0-0.9-0.3-1.4-0.9-1.9c-0.5-0.2-1.1-0.5-2.1-0.5H460L459.8,82.3L459.8,82.3z"/>
		<path fill="#FFFFFF" d="M468.4,80.7l-2.7-0.9l0.3-0.9l2.7,1.1v-3h0.9v3l2.7-1.1l0.3,0.9l-2.7,0.9l1.9,2.5l-0.9,0.5l-1.6-2.5
			l-1.6,2.5l-0.9-0.5L468.4,80.7z"/>
		<path fill="#FFFFFF" d="M473.9,84.1c0-1.9,0.3-3.7,1.1-5.1c0.9-1.6,1.6-2.7,2.5-3.2l0,0l0.3,0.5c-0.9,0.5-1.4,1.6-2.1,3
			c-0.5,1.4-0.9,3-0.9,4.9v0.2c0,1.9,0.3,3.2,0.9,4.9c0.5,1.4,1.4,2.5,2.1,3l-0.3,0.5l0,0c-0.9-0.5-1.9-1.6-2.5-3
			C474.1,88.1,473.9,86.2,473.9,84.1L473.9,84.1z"/>
		<path fill="#FFFFFF" d="M480.9,82.3h1.1c0.9,0,1.6-0.3,1.9-0.5c0.5-0.5,0.5-1.1,0.5-1.6c0-0.9-0.3-1.4-0.5-1.6
			c-0.5-0.5-1.1-0.5-1.9-0.5c-0.8,0-1.4,0.3-1.9,0.5c-0.5,0.5-0.9,1.1-0.9,1.6h-0.5l0,0c0-0.9,0.3-1.6,1.1-2.1
			c0.8-0.5,1.6-0.9,2.5-0.9c1.1,0,1.9,0.3,2.5,0.9c0.5,0.5,0.9,1.4,0.9,2.5c0,0.5-0.3,1.1-0.5,1.6c-0.3,0.5-0.9,0.9-1.4,1.1
			c0.9,0.2,1.4,0.5,1.6,1.1c0.3,0.5,0.5,1.1,0.5,1.9c0,1.1-0.3,1.9-1.1,2.5c-0.5,0.5-1.6,0.9-2.7,0.9s-1.9-0.2-2.7-0.9
			c-0.9-0.5-1.1-1.4-1.1-2.5l0,0h0.9c0,0.9,0.3,1.4,0.9,1.9c0.5,0.5,1.1,0.9,1.9,0.9c0.9,0,1.4-0.3,1.9-0.5c0.5-0.3,0.9-1.1,0.9-1.9
			c0-0.9-0.3-1.4-0.9-1.9c-0.5-0.2-1.1-0.5-2.1-0.5h-1.1v-2H480.9z"/>
		<path fill="#FFFFFF" d="M494,85.1h1.9V86H494v3h-1.1v-3h-5.5v-0.5l5.5-8.1h1.1V85.1z M488.9,85.1h4.4v-6.7l0,0l-0.5,0.9
			L488.9,85.1z"/>
		<path fill="#FFFFFF" d="M499.4,82.3h1.1c0.9,0,1.6-0.3,1.9-0.5c0.3-0.3,0.5-1.1,0.5-1.6c0-0.9-0.3-1.4-0.5-1.6
			c-0.5-0.5-1.1-0.5-1.9-0.5c-0.9,0-1.4,0.3-1.9,0.5c-0.5,0.5-0.9,1.1-0.9,1.6h-0.8l0,0c0-0.9,0.3-1.6,1.1-2.1
			c0.5-0.5,1.6-0.9,2.5-0.9c1.1,0,1.9,0.3,2.5,0.9c0.5,0.5,0.9,1.4,0.9,2.5c0,0.5-0.3,1.1-0.5,1.6c-0.3,0.5-0.9,0.9-1.4,1.1
			c0.9,0.2,1.4,0.5,1.6,1.1c0.3,0.5,0.5,1.1,0.5,1.9c0,1.1-0.2,1.9-1.1,2.5c-0.9,0.5-1.6,0.9-2.7,0.9s-1.9-0.2-2.7-0.9
			c-0.9-0.5-1.1-1.4-1.1-2.5l0,0h0.9c0,0.9,0.2,1.4,0.9,1.9c0.6,0.5,1.1,0.9,1.9,0.9c0.8,0,1.4-0.3,1.9-0.5c0.5-0.3,0.9-1.1,0.9-1.9
			c0-0.9-0.2-1.4-0.9-1.9c-0.5-0.2-1.1-0.5-2.1-0.5h-1.1v-2H499.4z"/>
		<path fill="#FFFFFF" d="M509.5,84.3c0,1.9-0.3,3.7-1.1,5.1c-0.9,1.6-1.6,2.5-2.5,3l0,0l-0.3-0.4c0.9-0.5,1.4-1.6,2.1-3
			c0.5-1.4,0.9-3,0.9-4.9v-0.3c0-1.9-0.3-3.2-0.9-4.9c-0.5-1.6-1.4-2.5-1.9-3l0.3-0.5l0,0c0.9,0.5,1.6,1.6,2.5,3.2
			C509,80.2,509.5,82.1,509.5,84.3L509.5,84.3z"/>
		<path fill="#FFFFFF" d="M515.8,83h3.5v0.9h-3.5v3.7h-1.2v-3.7h-3.2V83h3.5v-3.7h1.1V83H515.8z"/>
		<path fill="#FFFFFF" d="M527.1,85.1h1.9V86h-1.9v3H526v-3h-5.5v-0.5l5.5-8.1h1.1V85.1z M521.8,85.1h4.4v-6.7l0,0l-0.5,0.9
			L521.8,85.1z"/>
		<path fill="#FFFFFF" d="M536.5,85.1h1.9V86h-1.9v3h-1.1v-3h-5.5v-0.5l5.5-8.1h1.1V85.1z M531,85.1h4.4v-6.7l0,0l-0.5,0.9L531,85.1
			z"/>
	</g>
	<g>
		<g>
			<path fill="#FFFFFF" d="M588.9,108l1.9-18.7h16.9V92h-14.5l-1.4,12.2c0.9-0.9,1.9-1.4,3-1.9c1.1-0.5,2.5-0.5,4.4-0.9
				c3,0,5.5,0.9,7.1,3c1.9,1.9,2.7,4.6,2.7,8.1c0,3.5-0.9,6.2-2.7,8.4c-1.6,2.1-4.4,3-7.9,3c-2.7,0-5.1-0.9-7.1-2.5
				c-1.9-1.6-2.7-3.7-2.7-7.1V114h2.5c0,2.5,0.5,4.1,1.9,5.5c1.4,1.4,3,1.9,5.1,1.9c2.5,0,4.4-0.9,5.7-2.5c1.4-1.6,1.9-3.7,1.9-6.7
				c0-2.5-0.5-4.6-1.9-6.2c-1.4-1.6-3-2.5-5.5-2.5c-2.1,0-3.7,0.2-5.1,1.1c-1.4,0.9-1.9,1.6-2.5,3.2L588.9,108z"/>
			<path fill="#FFFFFF" d="M632,112.3h5.5v2.5H632v8.7h-2.7v-8.7h-16v-1.6L629,89h3V112.3z M616.4,112.3H629V92.7h-0.3l-1.1,2.5
				L616.4,112.3z"/>
			<path fill="#FFFFFF" d="M642.7,108l1.9-18.7h16.8V92H647l-1.4,12.2c0.9-0.9,1.9-1.4,3-1.9c1.1-0.5,2.5-0.5,4.4-0.9
				c3,0,5.5,0.9,7.1,3c1.9,1.9,2.7,4.6,2.7,8.1c0,3.5-0.9,6.2-2.7,8.4c-1.6,2.1-4.4,3-7.9,3c-2.7,0-5.1-0.9-7.1-2.5
				c-1.9-1.6-2.7-3.7-2.7-7.1V114h2.5c0,2.5,0.5,4.1,1.9,5.5c1.4,1.4,3,1.9,5.1,1.9c2.5,0,4.4-0.9,5.7-2.5c1.4-1.6,1.9-3.7,1.9-6.7
				c0-2.5-0.5-4.6-1.9-6.2c-1.4-1.6-3-2.5-5.5-2.5c-2.1,0-3.7,0.2-5.1,1.1c-1.4,0.9-1.9,1.6-2.5,3.2L642.7,108z"/>
			<path fill="#FFFFFF" d="M685.7,112.3h5.5v2.5h-5.5v8.7H683v-8.7h-16.1v-1.6L682.5,89h3L685.7,112.3L685.7,112.3z M670.2,112.3
				h12.7V92.7h-0.3l-1.1,2.5L670.2,112.3z"/>
			<path fill="#FFFFFF" d="M698.4,123l-2.5,6.5H694l1.6-6.5v-4.1h2.7L698.4,123L698.4,123z"/>
			<path fill="#FFFFFF" d="M721.7,112.3h5.5v2.5h-5.5v8.7H719v-8.7h-16v-1.6L718.7,89h3V112.3z M706.3,112.3h12.7V92.7h-0.3
				l-1.1,2.5L706.3,112.3z"/>
		</g>
	</g>
	<rect x="738.6" y="-3.8" fill="#3D3D3D" width="10.9" height="73.9"/>
	<circle fill="#2D2D2D" cx="744.1" cy="26.7" r="1.4"/>
	<circle fill="#2D2D2D" cx="744.1" cy="33.2" r="1.4"/>
	<circle fill="#2D2D2D" cx="744.1" cy="39.8" r="1.4"/>
	<rect x="443.7" y="144.2" fill="#2B2B2B" width="294.8" height="73.9"/>
	<g>
		<path fill="#ED1A46" d="M476.9,192.2h-14.4v13.9H460v-29.4h18.7v2.1h-16.4v11.4h14.4L476.9,192.2L476.9,192.2z"/>
		<path fill="#ED1A46" d="M505.4,193.9c0,3.7-1.1,6.7-3,9.2c-2.1,2.5-4.9,3.5-8.4,3.5c-3.5,0-6.2-1.1-8.1-3.5c-2.1-2.5-3-5.5-3-9.2
			V189c0-3.7,1.1-6.7,3-9.2c2.1-2.5,4.9-3.5,8.1-3.5c3.5,0,6.2,1.1,8.4,3.5c2.1,2.5,3.2,5.5,3.2,9.2v4.9H505.4z M503,189
			c0-3.2-0.9-5.7-2.5-7.6c-1.6-1.9-3.7-3-6.7-3c-2.7,0-4.9,1.1-6.5,3s-2.5,4.6-2.5,7.6v4.9c0,3.2,0.9,5.7,2.5,7.6s3.7,3,6.5,3
			c3,0,5.1-1.1,6.7-3c1.6-1.9,2.5-4.6,2.5-7.6V189z"/>
		<path fill="#ED1A46" d="M533.5,193.9c0,3.7-1.1,6.7-3,9.2c-2.1,2.5-4.9,3.5-8.4,3.5s-6.2-1.1-8.1-3.5c-2.1-2.5-3-5.5-3-9.2V189
			c0-3.7,1.1-6.7,3-9.2c1.9-2.5,4.9-3.5,8.1-3.5c3.5,0,6.2,1.1,8.4,3.5c2.1,2.5,3.2,5.5,3.2,9.2v4.9H533.5z M531,189
			c0-3.2-0.9-5.7-2.5-7.6c-1.6-1.9-3.7-3-6.7-3c-2.7,0-4.9,1.1-6.5,3c-1.6,1.9-2.5,4.6-2.5,7.6v4.9c0,3.2,0.9,5.7,2.5,7.6
			c1.6,1.9,3.7,3,6.5,3c3,0,5.1-1.1,6.7-3c1.6-1.9,2.5-4.6,2.5-7.6V189z"/>
	</g>
	<g>
		<path fill="#FFFFFF" d="M459.4,158.1h1.1c0.9,0,1.6-0.3,1.9-0.5c0.5-0.5,0.5-1.1,0.5-1.6c0-0.9-0.3-1.4-0.5-1.6
			c-0.5-0.5-1.1-0.5-1.9-0.5c-0.8,0-1.4,0.3-1.9,0.5c-0.5,0.5-0.9,1.1-0.9,1.6H457l0,0c0-0.9,0.3-1.6,1.1-2.1
			c0.9-0.5,1.6-0.9,2.5-0.9c1.1,0,1.9,0.3,2.5,0.9c0.6,0.6,0.9,1.4,0.9,2.5c0,0.5-0.3,1.1-0.5,1.6c-0.3,0.5-0.9,0.9-1.4,1.1
			c0.9,0.2,1.4,0.5,1.6,1.1c0.3,0.5,0.5,1.1,0.5,1.9c0,1.1-0.3,1.9-1.1,2.5c-0.5,0.5-1.6,0.9-2.7,0.9s-1.9-0.3-2.7-0.9
			c-0.9-0.5-1.1-1.4-1.1-2.5l0,0h0.9c0,0.9,0.3,1.4,0.9,1.9c0.5,0.5,1.1,0.9,1.9,0.9c0.9,0,1.4-0.3,1.9-0.5c0.5-0.3,0.9-1.1,0.9-1.9
			c0-0.9-0.3-1.4-0.9-1.9c-0.5-0.3-1.1-0.5-2.1-0.5h-1.1v-1.6h0.6L459.4,158.1L459.4,158.1z"/>
		<path fill="#FFFFFF" d="M468.4,156.5l-2.7-0.9l0.3-0.9l2.7,1.1v-3h0.9v3l2.7-1.1l0.3,0.9l-2.7,0.9l1.9,2.5l-0.9,0.5l-1.6-2.5
			l-1.6,2.5l-1.1-0.5L468.4,156.5z"/>
		<path fill="#FFFFFF" d="M473.6,160c0-1.9,0.3-3.7,1.1-5.1c0.9-1.6,1.6-2.7,2.5-3.2l0,0l0.3,0.5c-0.9,0.5-1.4,1.6-2.1,3
			c-0.5,1.4-0.9,3-0.9,4.9v0.3c0,1.9,0.3,3.2,0.9,4.9c0.5,1.4,1.4,2.5,2.1,3l-0.3,0.5l0,0c-0.9-0.5-1.9-1.6-2.5-3
			C473.9,163.6,473.6,161.7,473.6,160L473.6,160z"/>
		<path fill="#FFFFFF" d="M480.9,158.1h1.1c0.9,0,1.6-0.3,1.9-0.5c0.5-0.5,0.5-1.1,0.5-1.6c0-0.9-0.3-1.4-0.5-1.6
			c-0.5-0.5-1.1-0.5-1.9-0.5c-0.8,0-1.4,0.3-1.9,0.5c-0.5,0.5-0.9,1.1-0.9,1.6h-0.5l0,0c0-0.9,0.3-1.6,1.1-2.1
			c0.9-0.5,1.6-0.9,2.5-0.9c1.1,0,1.9,0.3,2.5,0.9c0.5,0.5,0.9,1.4,0.9,2.5c0,0.5-0.3,1.1-0.5,1.6c-0.3,0.5-0.9,0.9-1.4,1.1
			c0.9,0.2,1.4,0.5,1.6,1.1c0.3,0.5,0.5,1.1,0.5,1.9c0,1.1-0.3,1.9-1.1,2.5c-0.5,0.5-1.6,0.9-2.7,0.9s-1.9-0.3-2.7-0.9
			c-0.9-0.5-1.1-1.4-1.1-2.5l0,0h0.9c0,0.9,0.3,1.4,0.9,1.9c0.5,0.5,1.1,0.9,1.9,0.9c0.9,0,1.4-0.3,1.9-0.5c0.5-0.3,0.9-1.1,0.9-1.9
			c0-0.9-0.3-1.4-0.9-1.9c-0.5-0.3-1.1-0.5-2.1-0.5h-1.1v-1.6h0.4L480.9,158.1L480.9,158.1z"/>
		<path fill="#FFFFFF" d="M494,160.6h1.9v0.9H494v3h-1.1v-3h-5.5V161l5.5-8.1h1.1V160.6z M488.5,160.6h4.4V154l0,0l-0.5,0.9
			L488.5,160.6z"/>
		<path fill="#FFFFFF" d="M499.4,158.1h1.1c0.9,0,1.6-0.3,1.9-0.5c0.3-0.2,0.5-1.1,0.5-1.6c0-0.9-0.3-1.4-0.5-1.6
			c-0.5-0.5-1.1-0.5-1.9-0.5c-0.9,0-1.4,0.3-1.9,0.5c-0.5,0.5-0.9,1.1-0.9,1.6h-0.8l0,0c0-0.9,0.3-1.6,1.1-2.1
			c0.5-0.5,1.6-0.9,2.5-0.9c1.1,0,1.9,0.3,2.5,0.9c0.5,0.5,0.9,1.4,0.9,2.5c0,0.5-0.3,1.1-0.5,1.6c-0.3,0.5-0.9,0.9-1.4,1.1
			c0.9,0.2,1.4,0.5,1.6,1.1c0.3,0.5,0.5,1.1,0.5,1.9c0,1.1-0.2,1.9-1.1,2.5c-0.9,0.5-1.6,0.9-2.7,0.9s-1.9-0.3-2.7-0.9
			c-0.9-0.5-1.1-1.4-1.1-2.5l0,0h0.9c0,0.9,0.2,1.4,0.9,1.9c0.5,0.5,1.1,0.9,1.9,0.9c0.8,0,1.4-0.3,1.9-0.5c0.5-0.3,0.9-1.1,0.9-1.9
			c0-0.9-0.2-1.4-0.9-1.9c-0.5-0.3-1.1-0.5-2.1-0.5h-1.1v-1.6h0.6L499.4,158.1L499.4,158.1z"/>
		<path fill="#FFFFFF" d="M509.3,160c0,1.9-0.3,3.7-1.1,5.1c-0.9,1.6-1.6,2.5-2.5,3l0,0l-0.2-0.5c0.9-0.5,1.4-1.6,2.1-3
			c0.5-1.4,0.9-3,0.9-4.9v-0.2c0-1.9-0.3-3.2-0.9-4.9c-0.5-1.6-1.4-2.5-1.9-3l0.3-0.5l0,0c0.9,0.5,1.6,1.6,2.5,3.2
			C509,156.1,509.3,157.7,509.3,160L509.3,160z"/>
		<path fill="#FFFFFF" d="M515.8,158.6h3.5v0.9h-3.5v3.7h-1.2v-3.7h-3.5v-0.9h3.5v-3.7h1.1L515.8,158.6L515.8,158.6z"/>
		<path fill="#FFFFFF" d="M526.9,160.6h1.9v0.9h-1.9v3h-1.1v-3h-5.5V161l5.5-8.1h1.1V160.6z M521.8,160.6h4.4V154l0,0l-0.5,0.9
			L521.8,160.6z"/>
		<path fill="#FFFFFF" d="M536.1,160.6h1.9v0.9h-1.9v3H535v-3h-5.5V161l5.5-8.1h1.1V160.6L536.1,160.6z M530.8,160.6h4.4V154l0,0
			l-0.6,0.9L530.8,160.6z"/>
	</g>
	<g>
		<g>
			<path fill="#FFFFFF" d="M643.2,183.5l1.9-18.7H662v2.7h-14.4l-1.4,12.2c0.9-0.9,1.9-1.4,3-1.9c1.1-0.5,2.5-0.5,4.4-0.9
				c3,0,5.5,0.9,7.1,3c1.9,1.9,2.7,4.6,2.7,8.1s-0.9,6.2-2.7,8.4c-1.6,2.1-4.4,3-7.9,3c-2.7,0-5.1-0.9-7.1-2.5
				c-1.9-1.6-2.7-3.7-2.7-7.1v-0.1h2.5c0,2.5,0.5,4.1,1.9,5.5c1.4,1.4,3,1.9,5.1,1.9c2.5,0,4.4-0.9,5.7-2.5c1.4-1.6,1.9-3.7,1.9-6.7
				c0-2.5-0.5-4.6-1.9-6.2c-1.4-1.6-3-2.5-5.5-2.5c-2.1,0-3.7,0.2-5.1,1.1c-1.4,0.9-1.9,1.6-2.5,3.2H643.2L643.2,183.5z"/>
			<path fill="#FFFFFF" d="M686.2,188.1h5.5v2.5h-5.5v8.7h-2.8v-8.7h-16V189l15.7-24.2h3L686.2,188.1L686.2,188.1z M670.7,188.1
				h12.7v-19.6h-0.3L682,171L670.7,188.1z"/>
			<path fill="#FFFFFF" d="M698.9,198.7l-2.5,6.5h-1.9l1.6-6.5v-4h2.7L698.9,198.7L698.9,198.7z"/>
			<path fill="#FFFFFF" d="M722.2,188.1h5.5v2.5h-5.5v8.7h-2.7v-8.7h-16V189l15.7-24.2h3V188.1z M706.8,188.1h12.7v-19.6h-0.3
				L718,171L706.8,188.1z"/>
		</g>
	</g>
	<g>
		<rect x="738.8" y="144.2" fill="#3D3D3D" width="10.9" height="73.9"/>
		<circle fill="#FFFFFF" cx="744.3" cy="174.2" r="1.4"/>
		<circle fill="#FFFFFF" cx="744.3" cy="181.1" r="1.4"/>
		<circle fill="#FFFFFF" cx="744.3" cy="187.6" r="1.4"/>
	</g>
	<rect x="443.7" y="16.1" fill="#B7B7B7" width="2.7" height="217.7"/>
	<rect x="727.4" y="70.3" fill="#D81F27" width="22.6" height="73.9"/>
	<g>
		<path fill="#FFFFFF" d="M735.3,115.1c-0.5,0-0.5,0-0.5-0.2c0-0.3,0-9.5,0-9.5h-1.1c0,0,0,9.2,0,9.7c0,0.5,0.5,1.4,1.4,1.4
			c0.9,0,4.4,0,4.4,0v-1.1C739.1,115.1,735.6,115.1,735.3,115.1z"/>
		<path fill="#FFFFFF" d="M744.6,105.2c0,0,0,9.2,0,9.7c0,0.5-0.5,1.4-1.4,1.4c-0.9,0-4.4,0-4.4,0v-1.1c0,0,3.2,0,3.7,0
			s0.5,0,0.5-0.3c0-0.2,0-9.5,0-9.5h1.4L744.6,105.2L744.6,105.2z"/>
		<path fill="#FFFFFF" d="M745.1,104.2c0,0,0-0.5,0-0.9c0-0.2,0-0.5-0.5-0.5s-5.7,0-5.7,0s-5.1,0-5.7,0c-0.3,0-0.5,0.5-0.5,0.5v0.9
			h-0.5v1.4h6.7h6.7v-1.4H745.1z"/>
		<path fill="#FFFFFF" d="M740.4,100.3c-0.9,0-1.4,0-1.4,0s-0.5,0-1.4,0c-0.9,0-1.6,1.1-1.6,1.9c0,0.2,0,0.2,0,0.2h1.4
			c0,0,0,0,0-0.5c0-0.2,0.3-0.5,0.5-0.5c0.5,0,1.1,0,1.1,0s0.5,0,1.1,0c0.3,0,0.5,0.5,0.5,0.5c0,0.5,0,0.5,0,0.5h1.4c0,0,0,0,0-0.2
			C742.1,101.5,741.3,100.3,740.4,100.3z"/>
		<rect x="738.3" y="106.6" fill="#FFFFFF" width="1.4" height="7.4"/>
		<rect x="741.1" y="106.6" fill="#FFFFFF" width="1.4" height="7.4"/>
		<rect x="735.8" y="106.6" fill="#FFFFFF" width="1.4" height="7.4"/>
	</g>
	<rect x="674.4" y="70.3" fill="#3D3D3D" width="52.9" height="73.9"/>
	<rect x="676.7" y="70.3" fill="#2D2D2D" width="50.8" height="36.5"/>
	<g>
		<path fill="#FFFFFF" d="M701.7,123.7h-11.1v-1.4h11.1V123.7z M701.7,129.2h-11.1v-1.4h11.1V129.2z"/>
		<path fill="#FFFFFF" d="M712.7,135h-1.6v-17.6l-4.9,0.5v-1.1l6.5-1.1V135z"/>
	</g>
	<g>
		<path fill="#FFFFFF" d="M701.2,86h-11.1v-1.4h11.1V86z M701.2,91.6h-11.1v-1.4h11.1V91.6z"/>
		<path fill="#FFFFFF" d="M717.3,89.7c0,2.5-0.5,4.4-1.6,5.7c-1.1,1.4-2.5,1.9-4.6,1.9c-1.9,0-3.5-0.5-4.6-1.9
			c-1.1-1.4-1.6-3.2-1.6-5.7v-4.4c0-2.5,0.5-4.4,1.6-5.7c1.1-1.3,2.5-1.9,4.6-1.9s3.5,0.5,4.6,1.9c1.1,1.4,1.6,3.2,1.6,5.7V89.7z
			 M715.7,85.1c0-1.9-0.3-3.5-1.1-4.6c-0.9-1.1-1.9-1.6-3.2-1.6c-1.3,0-2.7,0.5-3.2,1.6c-0.5,1.1-1.1,2.7-1.1,4.6V90
			c0,1.9,0.2,3.5,1.1,4.6c0.9,1.1,1.9,1.6,3.2,1.6c1.3,0,2.7-0.5,3.2-1.6c0.5-1.1,1.1-2.7,1.1-4.6V85.1z"/>
	</g>
	<g>
		<rect x="663.5" y="70.3" fill="#3D3D3D" width="10.9" height="73.9"/>
		<circle fill="#FFFFFF" cx="669" cy="100.6" r="1.4"/>
		<circle fill="#FFFFFF" cx="669" cy="107.2" r="1.4"/>
		<circle fill="#FFFFFF" cx="669" cy="113.7" r="1.4"/>
	</g>
	<g id="completer">
		<rect x="-141.4" y="206.1" fill="#2B2B2B" width="129.5" height="77.8"/>
		<rect x="-141.4" y="264.3" opacity="0.8" fill="#ED1A46" enable-background="new    " width="129.5" height="19.6"/>
		<g>
			<path fill="#C9C9C9" d="M-111.2,223.2c0-0.3,0-0.5,0-0.9c0-0.4,0-0.3,0-0.5c-0.2,0.5-0.9,0.9-1.1,1.1c-0.5,0.3-1.1,0.5-1.6,0.5
				c-0.9,0-1.4-0.3-1.9-0.5c-0.5-0.5-0.5-1.1-0.5-1.6c0-0.9,0.2-1.4,1.1-1.9c0.5-0.5,1.6-0.5,2.7-0.5h1.9v-1c0-0.5-0.2-1.1-0.5-1.4
				c-0.2-0.3-0.9-0.5-1.6-0.5c-0.5,0-1.1,0.3-1.6,0.5c-0.5,0.2-0.5,0.9-0.5,1.1h-0.9l0,0c0-0.5,0.2-1.1,0.9-1.6
				c0.5-0.5,1.4-0.9,2.1-0.9c0.9,0,1.6,0.2,2.1,0.9c0.5,0.5,0.9,1.1,0.9,1.9v4.1c0,0.2,0,0.5,0,0.9c0,0.3,0,0.5,0.2,0.9h-1.6
				L-111.2,223.2L-111.2,223.2z M-114.2,222.7c0.5,0,1.1-0.3,1.6-0.5c0.5-0.2,0.9-0.9,1.1-1.1v-1.6h-1.9c-0.9,0-1.4,0.3-1.9,0.5
				c-0.5,0.3-0.9,0.9-0.9,1.4c0,0.5,0.2,0.9,0.5,1.1C-115.4,222.5-114.7,222.7-114.2,222.7z"/>
			<path fill="#C9C9C9" d="M-101.7,219.5c0,1.1-0.2,2.1-0.9,3c-0.5,0.9-1.4,1.1-2.1,1.1c-0.5,0-1.1,0-1.6-0.2
				c-0.5-0.3-0.9-0.5-1.1-1.1v1.4h-0.9v-11.8h0.9v4.9c0.2-0.5,0.5-0.9,1.1-1.1c0.5-0.3,0.9-0.3,1.6-0.3c1.1,0,1.6,0.3,2.1,1.1
				C-102,217-101.7,217.9-101.7,219.5L-101.7,219.5z M-102.5,219.1c0-1.1-0.2-1.9-0.5-2.5c-0.2-0.5-1.1-1.1-1.9-1.1
				c-0.5,0-1.1,0.3-1.6,0.5c-0.2,0.3-0.5,0.9-0.9,1.1v3.7c0.2,0.5,0.5,0.9,0.9,1.1c0.4,0.2,0.9,0.5,1.4,0.5c0.9,0,1.4-0.3,1.9-0.9
				C-102.7,221.1-102.5,220.2-102.5,219.1L-102.5,219.1z"/>
			<path fill="#C9C9C9" d="M-94.6,221.1c0-0.3-0.2-0.9-0.5-1.1c-0.3-0.2-0.9-0.5-1.6-0.9c-1.1-0.2-1.6-0.5-2.1-0.9
				c-0.5-0.3-0.9-0.9-0.9-1.4c0-0.5,0.2-1.1,0.9-1.6c0.5-0.5,1.1-0.5,2.1-0.5c0.9,0,1.6,0.2,2.1,0.9c0.5,0.5,0.9,1.1,0.9,1.6l0,0
				h-0.9c0-0.5-0.2-0.9-0.5-1.1c-0.2-0.3-0.9-0.5-1.6-0.5c-0.5,0-1.1,0.3-1.4,0.5c-0.2,0.2-0.5,0.5-0.5,1.1c0,0.3,0.2,0.9,0.5,0.9
				c0.2,0.3,0.9,0.5,1.6,0.5c1.1,0.3,1.6,0.5,2.1,0.9c0.5,0.3,0.9,0.9,0.9,1.6s-0.2,1.4-0.9,1.6c-0.5,0.5-1.4,0.5-2.1,0.5
				c-1.1,0-1.6-0.3-2.5-0.9c-0.9-0.6-1.1-0.9-1.1-1.4l0,0h0.9c0,0.5,0.2,1.1,0.9,1.4c0.5,0.2,1.1,0.2,1.6,0.2c0.5,0,1.1-0.2,1.6-0.5
				C-94.9,221.9-94.6,221.6-94.6,221.1z"/>
		</g>
		<g>
			<path fill="#C9C9C9" d="M-111.5,239.6c0-0.2-0.2-0.9-0.5-1.1c-0.2-0.2-0.9-0.5-1.6-0.9c-1.1-0.3-1.6-0.5-2.1-0.9
				c-0.5-0.3-0.9-0.9-0.9-1.4c0-0.5,0.2-1.1,0.9-1.6c0.5-0.5,1.1-0.5,2.1-0.5c0.9,0,1.6,0.3,2.1,0.9c0.5,0.5,0.9,1.1,0.9,1.6l0,0
				h-0.9c0-0.5-0.2-0.9-0.5-1.1c-0.2-0.3-0.9-0.5-1.6-0.5c-0.5,0-1.1,0.2-1.4,0.5c-0.3,0.3-0.5,0.5-0.5,1.1c0,0.3,0.2,0.9,0.5,0.9
				c0.2,0.3,0.9,0.5,1.6,0.5c1.1,0.3,1.6,0.5,2.1,0.9c0.5,0.3,0.9,0.9,0.9,1.6c0,0.9-0.2,1.4-0.9,1.6c-0.5,0.5-1.4,0.5-2.1,0.5
				c-1.1,0-1.6-0.3-2.5-0.9c-0.9-0.5-0.9-1.1-0.9-1.6l0,0h0.9c0,0.5,0.2,1.1,0.9,1.4c0.5,0.3,1.1,0.3,1.6,0.3c0.5,0,1.1-0.3,1.6-0.5
				C-111.7,240.4-111.5,239.9-111.5,239.6z"/>
			<path fill="#C9C9C9" d="M-107.7,231.1h-0.7v-1.4h0.9L-107.7,231.1L-107.7,231.1z M-107.7,241.5h-0.7v-8.1h0.9L-107.7,241.5
				L-107.7,241.5z"/>
			<path fill="#C9C9C9" d="M-104.5,233.6v1.4c0.2-0.5,0.5-0.9,1.1-1.1c0.5-0.3,1.1-0.5,1.6-0.5c0.9,0,1.6,0.3,1.9,0.9
				c0.5,0.5,0.9,1.4,0.9,2.5v4.9h-0.9v-4.9c0-0.9-0.2-1.6-0.5-1.9c-0.2-0.3-0.9-0.5-1.4-0.5c-0.5,0-1.1,0.3-1.6,0.5
				c-0.2,0.2-0.9,0.9-0.9,1.4v5.7h-0.9v-8.1L-104.5,233.6L-104.5,233.6z"/>
		</g>
		<g>
			<path fill="#C9C9C9" d="M-111.2,260.8c0-0.2,0-0.5,0-0.9c0-0.4,0-0.3,0-0.5c-0.2,0.5-0.9,0.9-1.1,1.1c-0.5,0.2-1.1,0.5-1.6,0.5
				c-0.9,0-1.4-0.3-1.9-0.5c-0.5-0.5-0.5-1.1-0.5-1.6c0-0.9,0.2-1.4,1.1-1.9c0.5-0.5,1.6-0.5,2.7-0.5h1.9v-1.1
				c0-0.5-0.2-1.1-0.5-1.4c-0.2-0.2-0.9-0.5-1.6-0.5c-0.5,0-1.1,0.3-1.6,0.5c-0.5,0.3-0.5,0.9-0.5,1.1h-0.9l0,0
				c0-0.5,0.2-1.1,0.9-1.6c0.5-0.5,1.4-0.9,2.1-0.9c0.9,0,1.6,0.3,2.1,0.9c0.5,0.5,0.9,1.1,0.9,1.9v4.1c0,0.3,0,0.5,0,0.9
				c0,0.3,0,0.5,0.2,0.9h-1.6L-111.2,260.8L-111.2,260.8z M-114.2,260.1c0.5,0,1.1-0.3,1.6-0.5c0.5-0.2,0.9-0.9,1.1-1.1v-1.6h-1.9
				c-0.9,0-1.4,0.3-1.9,0.5c-0.5,0.2-0.9,0.9-0.9,1.4c0,0.5,0.2,0.9,0.5,1.1C-115.4,259.9-114.7,260.1-114.2,260.1z"/>
			<path fill="#C9C9C9" d="M-107.1,253.9c0.2-0.5,0.5-0.9,1.1-1.1c0.5-0.3,1.1-0.3,1.6-0.3c0.9,0,1.6,0.3,1.9,0.9
				c0.5,0.5,0.9,1.4,0.9,2.5v4.9h-1.1v-5.1c0-0.9-0.2-1.6-0.5-1.9c-0.2-0.3-0.9-0.5-1.4-0.5c-0.5,0-1.1,0.3-1.6,0.5
				c-0.5,0.2-0.9,0.9-0.9,1.4v5.7h-1.1v-11.7h0.9v4.9L-107.1,253.9L-107.1,253.9z"/>
			<path fill="#C9C9C9" d="M-100.1,256.6c0-1.1,0.2-2.1,1.1-3c0.9-0.9,1.6-1.1,2.7-1.1c1.1,0,1.9,0.3,2.7,1.1c0.9,0.9,1.1,1.6,1.1,3
				v0.3c0,1.1-0.2,2.1-1.1,3c-0.9,0.9-1.6,1.1-2.7,1.1c-1.1,0-1.9-0.3-2.7-1.1C-99.9,259-100.1,258-100.1,256.6L-100.1,256.6z
				 M-99.2,256.9c0,0.9,0.2,1.6,0.9,2.5c0.5,0.9,1.1,1.1,1.9,1.1c0.9,0,1.6-0.3,1.9-1.1c0.5-0.5,0.9-1.4,0.9-2.5v-0.3
				c0-0.9-0.2-1.6-0.9-2.5c-0.5-0.5-1.1-1.1-1.9-1.1c-0.9,0-1.6,0.3-1.9,1.1C-98.7,255-99.2,255.5-99.2,256.9L-99.2,256.9z"/>
			<path fill="#C9C9C9" d="M-90,252.5v8.7c0,0.9-0.2,1.4-0.5,1.9c-0.2,0.5-1.1,0.9-1.6,0.9c-0.2,0-0.2,0-0.5,0c-0.2,0-0.2,0-0.5,0
				v-0.9h0.2c0.2,0,0.2,0,0.2,0c0.5,0,0.9-0.3,1.1-0.5c0.2-0.3,0.2-0.9,0.2-1.4v-8.7H-90z M-90,250.4h-0.9V249h0.9V250.4z"/>
			<path fill="#C9C9C9" d="M-87.9,256.9c0-1.4,0.2-2.5,0.9-3c0.5-0.9,1.4-1.1,2.1-1.1c0.5,0,1.1,0,1.4,0.2c0.5,0.3,0.9,0.5,1.1,1.1
				v-4.9h0.9v11.7h-0.9v-1.1c-0.2,0.5-0.5,0.9-1.1,1.1c-0.5,0.3-0.9,0.3-1.6,0.3c-1.1,0-1.6-0.3-2.1-1.1
				C-87.6,259-87.9,258.3-87.9,256.9L-87.9,256.9z M-86.7,256.9c0,1.1,0.2,1.9,0.5,2.5c0.3,0.6,1.1,0.9,1.9,0.9c0.5,0,1.1,0,1.4-0.3
				c0.2-0.3,0.9-0.5,0.9-1.1v-3.7c-0.2-0.5-0.5-0.9-0.9-1.1c-0.2-0.2-0.9-0.5-1.4-0.5c-0.9,0-1.4,0.3-1.9,1.1
				C-86.7,255-86.7,255.8-86.7,256.9L-86.7,256.9z"/>
		</g>
		<g>
			<path fill="#C9C9C9" d="M-112.9,272.9l3-4.6h1.1l-3.5,5.5l3.7,5.5h-1.1l-3.2-4.9l-3.2,4.9h-1.1l3.7-5.5l-3.5-5.5h1.1
				L-112.9,272.9z"/>
			<path fill="#C9C9C9" d="M-103.6,274.3l3.2-6h1.1l-4.1,7.1v4.1h-0.9v-4.1l-4.1-6.7h1.1L-103.6,274.3z"/>
		</g>
		<rect x="-13.6" y="206.1" fill="#969696" width="1.9" height="42.4"/>
		<rect x="-134.3" y="215.1" fill="#EF4323" width="7.4" height="7.4"/>
		<rect x="-134.3" y="233.6" fill="#EF4323" width="7.4" height="7.4"/>
		<rect x="-134.3" y="252.8" fill="#C9C9C9" width="7.4" height="7.4"/>
		<rect x="-134.3" y="271.3" fill="#C9C9C9" width="7.4" height="7.4"/>
	</g>
	<g id="new">
		<rect x="315.2" y="131.3" display="none" fill="#E0E0E0" width="128.5" height="37.2"/>
		<polygon display="none" fill="#E0E0E0" points="315.2,131.3 266.8,168.6 315.2,168.6 		"/>
		<polygon fill="#303030" points="-221.5,-77.7 -221.5,-44.7 -246,-22.4 -246,168 -249.5,168 -249.5,-77.7 		"/>
		
			<text transform="matrix(1 0 0 1 363.2209 158.0246)" display="none" fill="#2B2B2B" enable-background="new    " font-family="'Roboto-Light'" font-size="24.9122">Graph</text>
		<g id="grapicon">
			<path fill="#FFFFFF" d="M-225.9-59.4v1.1h-1.1v-1.1H-225.9z M-228.9-59.4v1.1h-0.9v-1.1H-228.9z M-231.5-59.4v1.1h-1.1v-1.1
				H-231.5z M-234.5-59.4v1.1h-1.1v-1.1H-234.5z M-237.5-59.4v1.1h-0.9v-1.1H-237.5z M-240.3-59.4v1.1h-1.1v-1.1H-240.3z
				 M-243.3-59.4v1.1h-1.1v-1.1H-243.3z M-246.3-59.4v1.1h-0.7v-1.1H-246.3z"/>
			<path fill="#FFFFFF" d="M-235.7-75.2L-235.7-75.2h-1.1l0,0H-235.7z M-235.7-73.1v1.1h-1.1v-1.1H-235.7z M-235.7-70.1v0.9h-1.1
				v-1.1h1.1V-70.1z M-235.7-67.3v1.1h-1.1v-1.1H-235.7z M-235.7-64.3v1.1h-1.1v-1.1H-235.7z M-235.7-61.3v1.1h-1.1v-1.1H-235.7z
				 M-235.7-58.6v1.1h-1.1v-1.1H-235.7z M-235.7-55.6v1.1h-1.1v-1.1H-235.7z M-235.7-52.6v1.1h-1.1v-1.1H-235.7z M-235.7-49.6v1.1
				h-1.1v-1.1H-235.7z M-235.7-46.9v1.1h-1.1v-1.1H-235.7z M-235.7-43.9v1.1h-1.1v-1.1H-235.7z"/>
			<path display="none" fill="#FFFFFF" d="M-226.2-73.8v28.2h-19.6v-28.2H-226.2z M-226.9-46.3v-26.6h-18v26.6H-226.9z"/>
			<polygon fill="#ED1A46" points="-240.3,-48.8 -242.8,-63.6 -245.2,-56.2 -245.8,-56.2 -242.4,-65.9 -240,-51.6 -237.8,-60.8 
				-235.4,-54.8 -230.5,-64.8 -227.8,-57.8 -225,-62.9 -224.5,-62.7 -228,-56.4 -230.5,-63.6 -235.4,-53.4 -237.8,-59.2 			"/>
		</g>
	</g>
	<g>
		<path fill="#A09F9F" d="M-131.7,189.4c-0.9-0.5-1.6-0.5-2.7-0.5c-2.1,0-4.1,1.6-4.1,4.6c0,2.7,1.6,4.6,3.7,4.6
			c1.1,0,1.9-0.2,3-0.9l0.5,1.9c-1.1,0.5-2.1,0.9-3.7,0.9c-3.5,0-6-2.7-6-6.5c0-3.5,2.5-6.5,6-6.5c1.4,0,2.5,0.2,3.5,0.9
			L-131.7,189.4z"/>
		<path fill="#A09F9F" d="M-123.3,186.6c3.5,0,6.2,2.5,6.2,6.5s-2.7,6.5-6.2,6.5c-3.5,0-6.2-2.7-6.2-6.5
			C-129.6,189.1-126.8,186.6-123.3,186.6z M-123.3,188.5c-2.5,0-4.1,1.9-4.1,4.6c0,2.5,1.6,4.6,4.1,4.6c2.5,0,4.1-1.9,4.1-4.6
			C-119.2,190.8-121.1,188.5-123.3,188.5z"/>
		<path fill="#A09F9F" d="M-102.9,199.7c-1.6,0-2.5-0.5-2.7-1.9c-1.1,1.1-2.7,1.9-4.4,1.9c-2.1,0-4.4-1.4-4.4-4.6V187h2.1v7.9
			c0,1.9,0.9,3,2.5,3c1.4,0,2.7-0.5,3.5-1.4V187h2.1v9.2c0,1.4,0.9,1.6,1.4,1.6L-102.9,199.7z"/>
		<path fill="#A09F9F" d="M-97.5,189.1c0.9-1.4,2.1-2.5,4.4-2.5c2.7,0,4.4,1.9,4.4,4.6v8.1h-2.1v-7.9c0-1.9-0.9-3-2.5-3
			c-1.4,0-3,1.1-3.7,2.7v8.1h-2.1v-12.5h1.9L-97.5,189.1L-97.5,189.1z"/>
		<path fill="#A09F9F" d="M-84.4,183.4h1.6v4.1h3.5v1.9h-3.5v6c0,1.9,0.9,2.5,1.9,2.5c0.9,0,1.6-0.2,2.1-0.5l0.5,1.6
			c-0.5,0.2-1.9,0.9-3,0.9c-2.5,0-3.7-1.6-3.7-4.6v-5.7h-2.1v-1.9h2.1L-84.4,183.4z"/>
		<path fill="#A09F9F" d="M-77.1,193.4c0-3.7,2.5-6.5,5.5-6.5c1.6,0,3,0.9,3.5,1.6V182h2.1v14.7c0,1.4,0.9,1.4,1.4,1.4l-0.5,1.6
			c-1.6,0-2.5-0.5-2.7-1.9c-0.9,1.1-1.9,1.9-3.7,1.9C-74.6,199.7-77.1,197.2-77.1,193.4z M-67.9,196.4v-6.2c-0.5-0.9-1.6-1.6-3-1.6
			c-2.5,0-3.7,2.1-3.7,4.6c0,2.7,1.6,4.6,3.7,4.6C-69.8,197.7-68.6,197.2-67.9,196.4z"/>
		<path fill="#A09F9F" d="M-56.4,186.6c3.5,0,6.2,2.5,6.2,6.5s-2.7,6.5-6.2,6.5c-3.5,0-6.2-2.7-6.2-6.5
			C-62.6,189.1-60,186.6-56.4,186.6z M-56.4,188.5c-2.5,0-4.1,1.9-4.1,4.6c0,2.5,1.6,4.6,4.1,4.6c2.5,0,4.1-1.9,4.1-4.6
			C-52.4,190.8-54.3,188.5-56.4,188.5z"/>
		<path fill="#A09F9F" d="M-32.3,186.9l1.9,0.9l-4.1,12h-2.5l-3-9.2l-3,9.2h-2.5l-4.1-12l1.9-0.9l3.2,10.4l3-9.2h2.5l3,9.2
			L-32.3,186.9z"/>
		<path fill="#A09F9F" d="M-25.7,189.1c0.9-1.4,2.1-2.5,4.4-2.5c2.7,0,4.4,1.9,4.4,4.6v8.1h-2.1v-7.9c0-1.9-0.9-3-2.5-3
			c-1.4,0-3,1.1-3.7,2.7v8.1h-2.1v-12.5h2.1v2.1L-25.7,189.1L-25.7,189.1z"/>
		<path fill="#A09F9F" d="M-9.7,201.9l-1.4,0.9c-1.9-3.5-3.2-7.1-3.2-10.6c0-4.1,1.1-7.4,3.2-10.6l1.4,0.9c-1.1,2.7-2.1,6-2.1,10.1
			C-11.8,196.4-10.8,198.9-9.7,201.9z"/>
		<path fill="#A09F9F" d="M-2.3,191l-5.5-7.1l1.9-1.4l4.9,6.7l4.9-6.7l1.9,1.4L0.5,191l5.7,7.6L4.4,200l-5.5-7.4l-5.1,7.1l-1.9-1.4
			L-2.3,191z"/>
		<path fill="#A09F9F" d="M13.6,191l5.1-8.4l1.9,1.1l-5.7,9.5v6.5h-2.1v-6.5l-6-9.5l1.9-1.1L13.6,191z"/>
		<path fill="#A09F9F" d="M22.1,181.8l1.4-0.9c1.9,3.2,3.2,6.7,3.2,10.6c0,3.7-1.1,7.1-3.2,10.6l-1.4-0.9c1.1-2.7,2.1-6,2.1-10.1
			C24.2,187.1,23.5,184.5,22.1,181.8z"/>
	</g>
</g>
<g id="new_1_">
	<rect x="-250" y="-77.5" opacity="0.8" enable-background="new    " width="998.8" height="433"/>
	<path fill="#ED1A46" d="M249,237.9c-67.2,0-121.7-54.7-121.7-121.7c0-8.7,1.1-17.6,3-26.1l4.1,0.9c-1.9,8.4-2.7,16.9-2.7,25.2
		c0,64.7,52.7,117.7,117.7,117.7s117.7-52.7,117.7-117.7S314.2-1.2,249.2-1.2h-0.5v-4.1h0.5c67.2,0,121.7,54.7,121.7,121.7
		C370.9,183.5,316.1,237.9,249,237.9z"/>
	<g>
		<path fill="#BCBCBC" d="M209.1,115.3h6.5c7.1,0,12.5-1.6,16.6-5.1s6-7.9,6-13c0-5.7-1.6-10.4-5.1-14.1c-3.5-3.7-8.7-5.5-15.5-5.5
			c-6.2,0-11.4,1.9-15.5,5.5c-4.1,3.7-6.2,8.4-6.2,14.7h-2.7v-0.5c-0.2-6.7,2.1-12.5,6.7-16.6c4.9-4.4,10.6-6.2,17.6-6.2
			c7.4,0,13,2.1,17.4,6.2c4.4,4.1,6.5,9.7,6.5,16.9c0,4.4-1.4,8.4-4.1,12c-2.7,3.5-6.5,6-11.4,7.6c5.5,1.4,9.7,3.7,12.7,7.4
			c3,3.5,4.6,8.1,4.6,13.4c0,7.4-2.5,13-7.1,17.4c-4.6,4.4-10.6,6.2-18.2,6.2c-7.1,0-13.6-2.1-19-6.2c-5.5-4.4-8.1-10.4-7.9-18V137
			h2.7c0,6.2,2.1,11.4,6.7,15.5c4.6,4.1,10.4,6,17.1,6c7.1,0,12.2-1.9,16.4-5.5c3.7-3.5,5.7-8.4,5.7-15c0-6.6-2.1-11.4-6.5-14.7
			c-4.4-3.2-10.4-4.6-18-4.6h-6.5v-3.5L209.1,115.3L209.1,115.3z"/>
		<path fill="#BCBCBC" d="M298.7,133.8h14.7v3.2h-14.7v23.1h-3.2V137h-41.1v-1.6l40.2-59.6h3.7v57.9H298.7z M259.3,133.8h36.2V80
			h-0.2l-4.6,7.6L259.3,133.8z"/>
	</g>
</g>
<path fill="#EF0000" d="M-82.8,218.6c-4.2,0-7.7-3.5-7.7-7.7s3.5-7.7,7.7-7.7s7.7,3.5,7.7,7.7S-78.6,218.6-82.8,218.6z M-82.8,204.2
	c-3.7,0-6.7,3-6.7,6.7s3,6.7,6.7,6.7s6.7-3,6.7-6.7S-79.1,204.2-82.8,204.2z"/>
<polygon fill="#EF0000" points="118.4,243.7 -52.9,243.7 -79.4,217.4 -78.7,216.7 -52.5,242.7 118.4,242.7 "/>
<g>
	<g>
		<path fill="#FFFFFF" d="M-55.6,268.9l7.2-10.5h-6.9v-1.6h9v1.4l-7.2,10.5h7.5v1.6h-9.6V268.9z"/>
		<path fill="#FFFFFF" d="M-39.7,260.1c1.2,0,2.1,0.5,2.8,1v-0.8h1.6v7.6c0,1,0.6,1.2,1.1,1.2l-0.4,1.4c-1.3,0-2-0.5-2.2-1.5
			c-0.6,0.8-1.6,1.6-3.1,1.6c-2.5,0-4.5-2-4.5-5.2C-44.4,262.4-42.5,260.1-39.7,260.1z M-37.1,267.8v-5.4c-0.7-0.5-1.5-0.8-2.5-0.8
			c-1.9,0-3.1,1.5-3.1,3.7c0,2.2,1.3,3.7,3.1,3.7C-38.6,269.1-37.6,268.5-37.1,267.8z"/>
		<path fill="#FFFFFF" d="M-33.6,260.8l1.6-0.7l3.4,8.3l3.4-8.3l1.5,0.7l-4.1,9.6h-1.8L-33.6,260.8z"/>
		<path fill="#FFFFFF" d="M-18.1,260.1c2.8,0,5,2,5,5.2c0,3.2-2.1,5.3-5,5.3c-2.9,0-5-2.1-5-5.3C-23.1,262.1-21,260.1-18.1,260.1z
			 M-18.1,261.6c-2,0-3.2,1.5-3.2,3.7c0,2,1.4,3.7,3.2,3.7c2,0,3.2-1.5,3.2-3.7C-14.9,263.3-16.3,261.6-18.1,261.6z"/>
		<path fill="#FFFFFF" d="M-9.2,267c0,1.4,0.6,2,1.6,2c0.5,0,1-0.1,1.3-0.3l0.4,1.4c-0.5,0.2-1.2,0.4-2,0.4c-1.8,0-3.1-1-3.1-3.4
			v-11.1h1.7V267z"/>
		<path fill="#FFFFFF" d="M-0.4,260.1c1.2,0,2.1,0.5,2.8,1v-0.8H4v7.6c0,1,0.6,1.2,1.1,1.2l-0.4,1.4c-1.3,0-2-0.5-2.2-1.5
			c-0.6,0.8-1.6,1.6-3.1,1.6c-2.5,0-4.5-2-4.5-5.2C-5.1,262.4-3.2,260.1-0.4,260.1z M2.3,267.8v-5.4c-0.7-0.5-1.5-0.8-2.5-0.8
			c-1.9,0-3.1,1.5-3.1,3.7c0,2.2,1.3,3.7,3.1,3.7C0.8,269.1,1.7,268.5,2.3,267.8z M-2.1,258.1l3.6-2.4l0.8,1.6l-3.9,2L-2.1,258.1z"
			/>
		<path fill="#FFFFFF" d="M9.2,262c0.7-1.1,1.8-1.9,3.3-1.9c1.6,0,2.6,0.8,3,2.1c0.8-1.2,1.8-2.1,3.5-2.1c2.2,0,3.2,1.5,3.2,3.7v6.5
			h-1.7V264c0-1.4-0.7-2.3-1.8-2.3c-1.2,0-2.2,1-2.9,2.2v6.6h-1.7V264c0-1.4-0.7-2.3-1.8-2.3c-1.1,0-2.2,1-2.9,2.1v6.6H7.5v-10h1.7
			V262z"/>
		<path fill="#FFFFFF" d="M26.2,266.1c0.2,1.9,1.4,3,3.1,3c1.2,0,2-0.3,2.9-0.7l0.4,1.5c-0.9,0.4-2.1,0.7-3.5,0.7
			c-2.9,0-4.7-1.9-4.7-5.3c0-3,1.8-5.3,4.5-5.3c2.9,0,4.3,2.1,4.3,4.7c0,0.5,0,0.9-0.1,1.3H26.2z M26.2,264.7h5.5c0-1.9-1-3-2.8-3
			C27.4,261.6,26.4,262.7,26.2,264.7z"/>
		<path fill="#FFFFFF" d="M47,258c-0.5-0.3-1.1-0.6-1.9-0.6c-1.1,0-1.8,0.7-1.8,2v1.3h3v1.5h-3v8.2h-1.7v-8.2h-1.5v-1.5h1.5v-1.2
			c0-2.3,1.4-3.7,3.4-3.7c1.1,0,1.8,0.3,2.5,0.6L47,258z"/>
		<path fill="#FFFFFF" d="M57.1,270.5c-1.2,0-1.9-0.5-2.2-1.4c-0.9,0.9-2.1,1.6-3.5,1.6c-1.7,0-3.4-1-3.4-3.7v-6.5h1.7v6.3
			c0,1.6,0.7,2.4,2,2.4c1.1,0,2.1-0.5,2.9-1.2v-7.5h1.7v7.4c0,1.1,0.6,1.4,1.1,1.4L57.1,270.5z"/>
		<path fill="#FFFFFF" d="M61.5,262c0.7-1.1,1.8-1.9,3.4-1.9c2.3,0,3.4,1.5,3.4,3.7v6.5h-1.7V264c0-1.4-0.7-2.4-1.9-2.4
			c-1.2,0-2.3,1-3,2.1v6.6h-1.7v-10h1.7V262z"/>
		<path fill="#FFFFFF" d="M71.2,256.1h1.7v8.2l4.5-4.1l1,1.1l-3.9,3.4l4.7,4.7l-1.2,1.2l-5.2-5.3v5.2h-1.7V256.1z"/>
		<path fill="#FFFFFF" d="M87.2,262.2c-0.7-0.4-1.3-0.5-2.1-0.5c-1.8,0-3.2,1.4-3.2,3.7c0,2.1,1.2,3.7,3.1,3.7c1,0,1.6-0.2,2.4-0.6
			l0.5,1.5c-0.8,0.4-1.8,0.7-3,0.7c-2.9,0-4.7-2.2-4.7-5.3c0-2.9,1.9-5.3,4.9-5.3c1.1,0,1.9,0.2,2.7,0.6L87.2,262.2z"/>
		<path fill="#FFFFFF" d="M89.5,257.4c0-0.7,0.5-1.2,1.2-1.2c0.7,0,1.2,0.6,1.2,1.2c0,0.7-0.5,1.2-1.2,1.2
			C90.1,258.6,89.5,258.1,89.5,257.4z M91.6,270.4h-1.7v-10h1.7V270.4z"/>
		<path fill="#FFFFFF" d="M-48.5,285.3c-0.7-0.4-1.3-0.5-2.1-0.5c-1.8,0-3.2,1.4-3.2,3.7c0,2.1,1.2,3.7,3.1,3.7c1,0,1.6-0.2,2.4-0.6
			l0.5,1.5c-0.8,0.4-1.8,0.7-3,0.7c-2.9,0-4.7-2.2-4.7-5.3c0-2.9,1.9-5.3,4.9-5.3c1.1,0,1.9,0.2,2.7,0.6L-48.5,285.3z"/>
		<path fill="#FFFFFF" d="M-41.7,283.3c2.8,0,5,2,5,5.2c0,3.2-2.1,5.3-5,5.3c-2.9,0-5-2.1-5-5.3C-46.7,285.3-44.6,283.3-41.7,283.3z
			 M-41.7,284.8c-2,0-3.2,1.5-3.2,3.7c0,2,1.4,3.7,3.2,3.7c2,0,3.2-1.5,3.2-3.7C-38.5,286.5-39.9,284.8-41.7,284.8z"/>
		<path fill="#FFFFFF" d="M-25.4,293.6c-1.2,0-1.9-0.5-2.2-1.4c-0.9,0.9-2.1,1.6-3.5,1.6c-1.7,0-3.4-1-3.4-3.7v-6.5h1.7v6.3
			c0,1.6,0.7,2.4,2,2.4c1.1,0,2.1-0.5,2.9-1.2v-7.5h1.7v7.4c0,1.1,0.6,1.4,1.1,1.4L-25.4,293.6z"/>
		<path fill="#FFFFFF" d="M-21.1,285.2c0.7-1.1,1.8-1.9,3.4-1.9c2.3,0,3.4,1.5,3.4,3.7v6.5h-1.7v-6.4c0-1.4-0.7-2.4-1.9-2.4
			c-1.2,0-2.3,1-3,2.1v6.6h-1.7v-10h1.7V285.2z"/>
		<path fill="#FFFFFF" d="M-12,288.6c0-3,2-5.3,4.5-5.3c1.3,0,2.3,0.7,2.9,1.2v-5.3H-3v11.9c0,1,0.6,1.2,1.1,1.2l-0.4,1.4
			c-1.2,0-2-0.5-2.2-1.5c-0.6,0.8-1.6,1.6-3.1,1.6C-10,293.8-12,291.7-12,288.6z M-4.7,291v-5c-0.5-0.6-1.4-1.3-2.5-1.3
			c-1.9,0-3.1,1.6-3.1,3.7c0,2.1,1.3,3.7,3.1,3.7C-6.2,292.2-5.3,291.7-4.7,291z"/>
		<path fill="#FFFFFF" d="M4.5,283.3c2.8,0,5,2,5,5.2c0,3.2-2.1,5.3-5,5.3c-2.9,0-5-2.1-5-5.3C-0.5,285.3,1.7,283.3,4.5,283.3z
			 M4.5,284.8c-2,0-3.2,1.5-3.2,3.7c0,2,1.4,3.7,3.2,3.7c2,0,3.2-1.5,3.2-3.7C7.8,286.5,6.4,284.8,4.5,284.8z"/>
		<path fill="#FFFFFF" d="M23.9,283.4l1.5,0.6l-3.2,9.6h-1.9l-2.3-7.5l-2.3,7.5h-1.9l-3.2-9.6l1.6-0.6l2.6,8.2l2.4-7.4H19l2.3,7.4
			L23.9,283.4z"/>
		<path fill="#FFFFFF" d="M29.1,285.2c0.7-1.1,1.8-1.9,3.4-1.9c2.3,0,3.4,1.5,3.4,3.7v6.5h-1.7v-6.4c0-1.4-0.7-2.4-1.9-2.4
			c-1.2,0-2.3,1-3,2.1v6.6h-1.7v-10h1.7V285.2z"/>
		<path fill="#FFFFFF" d="M42,295.3l-1,0.6c-1.6-2.8-2.5-5.6-2.5-8.6c0-3.2,1-5.8,2.5-8.6l1,0.6c-1,2.2-1.7,4.8-1.7,8
			S41,293.1,42,295.3z"/>
		<path fill="#FFFFFF" d="M44.5,291.3c0.7,0.6,1.7,1,2.9,1c1.4,0,2.2-0.5,2.2-1.3c0-0.8-0.5-1.3-2.5-2c-1.9-0.6-2.8-1.4-2.8-3
			c0-1.5,1.4-2.8,3.8-2.8c1.3,0,2.3,0.3,3.1,0.7l-0.5,1.4c-0.7-0.4-1.6-0.7-2.7-0.7c-1.3,0-2,0.7-2,1.3c0,0.6,0.4,1,2,1.5
			c2.5,0.8,3.4,1.8,3.4,3.3c0,1.8-1.6,2.9-4,2.9c-1.5,0-2.8-0.4-3.6-1L44.5,291.3z"/>
		<path fill="#FFFFFF" d="M54.8,289.2c0.2,1.9,1.4,3,3.1,3c1.2,0,2-0.3,2.9-0.7l0.4,1.5c-0.9,0.4-2.1,0.7-3.5,0.7
			c-2.9,0-4.7-1.9-4.7-5.3c0-3,1.8-5.3,4.5-5.3c2.9,0,4.3,2.1,4.3,4.7c0,0.5,0,0.9-0.1,1.3H54.8z M54.8,287.8h5.5c0-1.9-1-3-2.8-3
			C56,284.8,54.9,285.8,54.8,287.8z"/>
		<path fill="#FFFFFF" d="M70.6,285.3c-0.7-0.4-1.3-0.5-2.1-0.5c-1.8,0-3.2,1.4-3.2,3.7c0,2.1,1.2,3.7,3.1,3.7c1,0,1.6-0.2,2.4-0.6
			l0.5,1.5c-0.8,0.4-1.8,0.7-3,0.7c-2.9,0-4.7-2.2-4.7-5.3c0-2.9,1.9-5.3,4.9-5.3c1.1,0,1.9,0.2,2.7,0.6L70.6,285.3z"/>
		<path fill="#FFFFFF" d="M77.3,283.3c2.8,0,5,2,5,5.2c0,3.2-2.1,5.3-5,5.3c-2.9,0-5-2.1-5-5.3C72.3,285.3,74.5,283.3,77.3,283.3z
			 M77.3,284.8c-2,0-3.2,1.5-3.2,3.7c0,2,1.4,3.7,3.2,3.7c2,0,3.2-1.5,3.2-3.7C80.5,286.5,79.1,284.8,77.3,284.8z"/>
		<path fill="#FFFFFF" d="M86.3,285.2c0.7-1.1,1.8-1.9,3.4-1.9c2.3,0,3.4,1.5,3.4,3.7v6.5h-1.7v-6.4c0-1.4-0.7-2.4-1.9-2.4
			c-1.2,0-2.3,1-3,2.1v6.6h-1.7v-10h1.7V285.2z"/>
		<path fill="#FFFFFF" d="M95.4,288.6c0-3,2-5.3,4.5-5.3c1.3,0,2.3,0.7,2.9,1.2v-5.3h1.7v11.9c0,1,0.6,1.2,1.1,1.2l-0.4,1.4
			c-1.2,0-2-0.5-2.2-1.5c-0.6,0.8-1.6,1.6-3.1,1.6C97.4,293.8,95.4,291.7,95.4,288.6z M102.7,291v-5c-0.5-0.6-1.4-1.3-2.5-1.3
			c-1.9,0-3.1,1.6-3.1,3.7c0,2.1,1.3,3.7,3.1,3.7C101.2,292.2,102.1,291.7,102.7,291z"/>
		<path fill="#FFFFFF" d="M107.7,291.3c0.7,0.6,1.7,1,2.9,1c1.4,0,2.2-0.5,2.2-1.3c0-0.8-0.5-1.3-2.5-2c-1.9-0.6-2.8-1.4-2.8-3
			c0-1.5,1.4-2.8,3.8-2.8c1.3,0,2.3,0.3,3.1,0.7l-0.5,1.4c-0.7-0.4-1.6-0.7-2.7-0.7c-1.3,0-2,0.7-2,1.3c0,0.6,0.4,1,2,1.5
			c2.5,0.8,3.4,1.8,3.4,3.3c0,1.8-1.6,2.9-4,2.9c-1.5,0-2.8-0.4-3.6-1L107.7,291.3z"/>
		<path fill="#FFFFFF" d="M116.5,279.4l1-0.6c1.6,2.7,2.5,5.3,2.5,8.6c0,3-0.9,5.7-2.5,8.6l-1-0.6c1-2.2,1.7-4.8,1.7-8
			S117.4,281.5,116.5,279.4z"/>
	</g>
</g>
</svg>
