<?xml version="1.0" encoding="utf-8"?>
<!-- Generator: Adobe Illustrator 18.0.0, SVG Export Plug-In . SVG Version: 6.00 Build 0)  -->
<!DOCTYPE svg PUBLIC "-//W3C//DTD SVG 1.1//EN" "http://www.w3.org/Graphics/SVG/1.1/DTD/svg11.dtd">
<svg version="1.1" id="Vrstva_1" xmlns="http://www.w3.org/2000/svg" xmlns:xlink="http://www.w3.org/1999/xlink" x="0px" y="0px"
	 viewBox="0 420.8 800 379.2" enable-background="new 0 420.8 800 379.2" xml:space="preserve">
<g id="input">
	<rect x="41.8" y="648.3" fill="#F2F2F2" width="457.1" height="149.8"/>
	<g>
		<path fill="#A09F9F" d="M87.9,672.7c0.7,0.7,1.7,1.1,2.8,1.1c1.5,0,2.2-0.4,2.2-1.3c0-0.9-0.4-1.3-2.6-2c-2-0.7-2.8-1.5-2.8-3
			s1.5-2.8,3.9-2.8c1.3,0,2.2,0.2,3,0.7l-0.4,1.5c-0.7-0.4-1.5-0.7-2.6-0.7c-1.3,0-2,0.7-2,1.3c0,0.7,0.4,1.1,2,1.5
			c2.6,0.9,3.5,1.7,3.5,3.3c0,1.7-1.5,2.8-3.9,2.8c-1.5,0-2.8-0.4-3.5-1.1L87.9,672.7z"/>
		<path fill="#A09F9F" d="M96.9,662c0-0.7,0.4-1.3,1.3-1.3c0.7,0,1.3,0.7,1.3,1.3c0,0.7-0.4,1.3-1.3,1.3
			C97.3,663.1,96.9,662.6,96.9,662z M98.8,674.8h-1.7v-10h1.7V674.8z"/>
		<path fill="#A09F9F" d="M103.6,666.6c0.7-1.1,1.7-2,3.5-2c2.2,0,3.5,1.5,3.5,3.7v6.5h-1.7v-6.3c0-1.5-0.7-2.4-2-2.4
			c-1.1,0-2.4,0.9-3,2.2v6.5h-1.7v-10h1.7v1.7L103.6,666.6L103.6,666.6z"/>
		<path fill="#A09F9F" d="M116.5,676.8l-1.1,0.7c-1.5-2.8-2.6-5.7-2.6-8.5c0-3.3,0.9-5.9,2.6-8.5l1.1,0.7c-0.9,2.2-1.7,4.8-1.7,8.1
			C114.7,672.4,115.6,674.4,116.5,676.8z"/>
		<path fill="#A09F9F" d="M122.3,668.1l-4.3-5.7l1.5-1.1l3.9,5.4l3.9-5.4l1.5,1.1l-4.1,5.7l4.6,6.1l-1.5,1.1l-4.4-5.9l-4.1,5.7
			l-1.5-1.1L122.3,668.1z"/>
		<path fill="#A09F9F" d="M135.2,668.1l4.1-6.7l1.5,0.9l-4.6,7.6v5.2h-1.7v-5.2l-4.8-7.6l1.5-0.9L135.2,668.1z"/>
		<path fill="#A09F9F" d="M141.9,660.7l1.1-0.7c1.5,2.6,2.6,5.4,2.6,8.5c0,3-0.9,5.7-2.6,8.5l-1.1-0.7c0.9-2.2,1.7-4.8,1.7-8.1
			C143.7,665,143,662.9,141.9,660.7z"/>
	</g>
	<rect x="501.3" y="650" fill="#ED1A46" width="54" height="149.6"/>
	<rect x="518.1" y="719.9" fill="#FFFFFF" width="20.7" height="3.3"/>
	<rect x="518.1" y="730.3" fill="#FFFFFF" width="20.7" height="3.3"/>
</g>
<g id="frame">
	<rect y="420.8" fill="#303030" width="799.3" height="32.7"/>
	<g id="close_button">
		<rect x="767.6" y="420.8" fill="#C82027" width="32.7" height="32.7"/>
		<g>
			<path fill="#FFFFFF" d="M14.4,437.8l-5.2,6.7h8.5v1.1h-10v-0.9l5.4-7.2l-5.4-6.3v-1.1h10v1.1H9.4l0,0l5,6.1
				C14.4,437.3,14.4,437.8,14.4,437.8z"/>
		</g>
		<polygon fill="#FFFFFF" points="17.6,431.2 17,431.2 17.6,432.1 		"/>
		<polygon fill="#FFFFFF" points="17.6,444.5 17,444.5 17.6,443.9 		"/>
		<rect x="8.7" y="435.2" fill="#C82027" width="7.8" height="1.3"/>
		<rect x="8.7" y="439.1" fill="#C82027" width="7.8" height="1.3"/>
		
			<rect x="783.4" y="424.2" transform="matrix(0.7071 -0.7071 0.7071 0.7071 -79.3913 682.2095)" fill="#E1E1E1" width="0.9" height="25.5"/>
		
			<rect x="783.3" y="424.3" transform="matrix(-0.7071 -0.7071 0.7071 -0.7071 1028.9061 1300.2284)" fill="#E1E1E1" width="0.9" height="25.5"/>
	</g>
	<g>
		<path fill="#F7F7F7" d="M28.1,445.6v-15.7h4.6c1.5,0,2.8,0.4,3.9,1.1c0.9,0.7,1.3,1.7,1.3,3c0,0.9-0.2,1.5-0.7,2.2
			c-0.4,0.7-1.1,1.1-2,1.3c0.9,0.2,1.7,0.7,2.4,1.3c0.7,0.7,0.9,1.5,0.9,2.6c0,1.3-0.4,2.4-1.3,3.3c-0.9,0.7-2.2,1.1-3.7,1.1h-5.4
			C28.1,445.8,28.1,445.6,28.1,445.6z M29.4,436.9h3.7c1.1,0,2-0.2,2.6-0.7c0.7-0.4,0.9-1.3,0.9-2.2c0-1.1-0.4-1.7-1.1-2.2
			c-0.7-0.4-1.5-0.7-2.8-0.7h-3.3C29.4,431.2,29.4,436.9,29.4,436.9z M29.4,438v6.5h4.1c1.1,0,2-0.2,2.8-0.9
			c0.7-0.7,1.1-1.3,1.1-2.4c0-0.9-0.2-1.7-0.9-2.4s-1.5-0.9-2.6-0.9C34,438,29.4,438,29.4,438z"/>
		<path fill="#F7F7F7" d="M49,445.6c0-0.4-0.2-0.7-0.2-1.1c0-0.2,0-0.7,0-0.9c-0.4,0.7-1.1,1.1-1.7,1.5c-0.7,0.4-1.5,0.7-2.4,0.7
			c-1.1,0-2-0.2-2.6-0.9s-0.9-1.3-0.9-2.4s0.4-2,1.3-2.6c0.9-0.7,2.2-0.9,3.7-0.9h2.6v-1.5c0-0.9-0.2-1.5-0.9-2
			c-0.7-0.4-1.3-0.7-2.2-0.7s-1.7,0.2-2.2,0.7c-0.4,0.4-0.9,1.1-0.9,1.7h-1.1l0,0c0-0.9,0.4-1.7,1.1-2.4c0.7-0.7,2-1.1,3.3-1.1
			s2.4,0.4,3,1.1c0.9,0.7,1.1,1.5,1.1,2.8v5.7c0,0.4,0,0.9,0,1.1s0.2,0.9,0.2,1.1L49,445.6L49,445.6z M44.6,444.7
			c0.9,0,1.7-0.2,2.4-0.7c0.7-0.4,1.3-1.1,1.5-1.7v-2.4h-2.6c-1.1,0-2.2,0.2-2.8,0.7c-0.7,0.4-1.1,1.1-1.1,2c0,0.7,0.2,1.1,0.7,1.5
			C43.3,444.5,44,444.7,44.6,444.7z"/>
		<path fill="#F7F7F7" d="M58.8,435.2h-0.9c-0.9,0-1.5,0.2-2,0.7c-0.4,0.4-0.9,1.1-1.1,2v8.1h-1.3v-12h0.9l0.2,2v0.2
			c0.4-0.7,0.9-1.3,1.3-1.7c0.4-0.4,1.3-0.7,2-0.7c0.2,0,0.2,0,0.4,0c0.4,0.2,0.4,0.2,0.7,0.2L58.8,435.2z"/>
		<path fill="#F7F7F7" d="M70.3,440.2c0,1.7-0.4,3-1.1,4.1c-0.9,1.1-2,1.5-3.3,1.5c-0.9,0-1.5-0.2-2.2-0.4c-0.7-0.2-1.1-0.9-1.5-1.5
			l-0.2,1.7h-1v-16.8h1.3v7c0.4-0.7,0.9-1.1,1.5-1.5c0.7-0.4,1.3-0.4,2.2-0.4c1.3,0,2.4,0.7,3.3,1.7
			C70.1,436.7,70.3,438.2,70.3,440.2L70.3,440.2z M69,440c0-1.5-0.2-2.6-0.9-3.7c-0.7-0.9-1.5-1.3-2.6-1.3c-0.9,0-1.5,0.2-2.2,0.7
			c-0.7,0.4-0.9,1.1-1.3,1.7v5.2c0.2,0.7,0.7,1.3,1.3,1.5c0.7,0.4,1.3,0.7,2.2,0.7c1.1,0,2-0.4,2.6-1.3C68.8,442.6,69,441.5,69,440
			L69,440z"/>
		<path fill="#F7F7F7" d="M74.7,430.6h-1.3v-1.7h1.3V430.6z M74.7,445.6h-1.3v-11.8h1.3V445.6z"/>
		<path fill="#F7F7F7" d="M82.5,445.8c-1.5,0-2.6-0.4-3.7-1.5c-0.9-1.1-1.5-2.4-1.5-4.1v-0.7c0-1.7,0.4-3,1.5-4.1
			c0.9-1.1,2.2-1.7,3.5-1.7c1.5,0,2.6,0.4,3.5,1.3c0.9,1.1,1.3,2.2,1.3,3.7v1.1h-8.3v0.2c0,1.3,0.4,2.4,1.1,3.3s1.5,1.3,2.8,1.3
			c0.9,0,1.5-0.2,2-0.4c0.4-0.2,1.1-0.4,1.5-0.9l0.7,0.9c-0.4,0.4-1.1,0.9-1.7,1.1C84.2,445.6,83.6,445.8,82.5,445.8z M82.5,434.9
			c-0.9,0-1.7,0.4-2.4,1.1c-0.7,0.7-1.1,1.7-1.1,2.8l0,0h6.7v-0.4c0-1.1-0.2-2-0.9-2.6C84.2,435.2,83.4,434.9,82.5,434.9z"/>
		<path fill="#F7F7F7" d="M106,440.8L106,440.8c-0.2,1.7-0.7,2.8-1.7,3.7c-1.1,0.9-2.4,1.3-3.9,1.3c-1.7,0-3-0.7-4.1-2
			s-1.5-2.8-1.5-5v-2.4c0-2,0.4-3.7,1.5-5s2.4-2,4.1-2s3,0.4,3.9,1.3c0.9,0.9,1.5,2.2,1.7,3.7l0,0h-1.3c-0.2-1.3-0.7-2.4-1.3-3
			s-1.7-1.1-3-1.1s-2.4,0.4-3.3,1.5s-1.3,2.4-1.3,4.1v2.6c0,1.7,0.4,3,1.3,4.1s2,1.5,3.3,1.5s2.4-0.4,3-1.1c0.7-0.7,1.1-1.7,1.3-3
			h1.3V440.8z"/>
		<path fill="#F7F7F7" d="M116.5,445.6c0-0.4-0.2-0.7-0.2-1.1c0-0.2,0-0.7,0-0.9c-0.4,0.7-1.1,1.1-1.7,1.5c-0.6,0.4-1.5,0.7-2.4,0.7
			c-1.1,0-2-0.2-2.6-0.9c-0.7-0.7-0.9-1.3-0.9-2.4s0.4-2,1.3-2.6c0.9-0.7,2.2-0.9,3.7-0.9h2.6v-1.5c0-0.9-0.2-1.5-0.9-2
			s-1.3-0.7-2.2-0.7s-1.7,0.2-2.2,0.7c-0.4,0.4-0.9,1.1-0.9,1.7H109l0,0c0-0.9,0.4-1.7,1.1-2.4c0.7-0.7,2-1.1,3.3-1.1s2.4,0.4,3,1.1
			c0.7,0.4,1.1,1.3,1.1,2.6v5.7c0,0.4,0,0.9,0,1.1c0,0.2,0.2,0.9,0.2,1.1h-1.3L116.5,445.6L116.5,445.6z M112.3,444.7
			c0.9,0,1.7-0.2,2.4-0.7c0.7-0.4,1.3-1.1,1.5-1.7v-2.4h-2.6c-1.1,0-2.2,0.2-2.8,0.7s-1.1,1.1-1.1,2c0,0.7,0.2,1.1,0.7,1.5
			C110.8,444.5,111.5,444.7,112.3,444.7z"/>
		<path fill="#F7F7F7" d="M122.3,445.6H121v-16.8h1.3V445.6z"/>
		<path fill="#F7F7F7" d="M130.4,444.7c0.9,0,1.5-0.2,2.2-0.7c0.7-0.4,1.1-1.1,1.1-2h1.1l0,0c0,1.1-0.4,2-1.3,2.6
			c-0.9,0.7-2,1.1-3,1.1c-1.5,0-2.8-0.7-3.7-1.7c-0.9-1.1-1.3-2.4-1.3-4.1v-0.4c0-1.7,0.4-3,1.3-4.1c0.9-1.1,2.2-1.7,3.7-1.7
			c1.3,0,2.4,0.4,3.3,1.1c0.9,0.7,1.3,1.7,1.3,3l0,0H134c0-0.9-0.2-1.7-0.9-2.2c-0.7-0.7-1.3-0.9-2.4-0.9c-1.3,0-2.2,0.4-2.8,1.3
			c-0.7,0.9-1.1,2.2-1.1,3.5v0.4c0,1.3,0.2,2.6,0.9,3.5C128.2,444.3,129.1,444.7,130.4,444.7z"/>
		<path fill="#F7F7F7" d="M145,443.7c-0.4,0.7-0.9,1.3-1.5,1.5c-0.7,0.4-1.3,0.7-2.2,0.7c-1.3,0-2.2-0.4-2.8-1.3
			c-0.7-0.9-1.1-2.2-1.1-3.9V434h1.3v6.7c0,1.5,0.2,2.4,0.7,3c0.4,0.7,1.1,0.9,2,0.9s1.7-0.2,2.4-0.7s1.1-1.1,1.3-1.7v-8.3h1.3v11.8
			h-1.1L145,443.7z"/>
		<path fill="#F7F7F7" d="M151.1,445.6h-1.3v-16.8h1.3V445.6z"/>
		<path fill="#F7F7F7" d="M162.2,445.6c0-0.4-0.2-0.7-0.2-1.1c0-0.2,0-0.7,0-0.9c-0.4,0.7-1.1,1.1-1.7,1.5c-0.7,0.4-1.5,0.7-2.4,0.7
			c-1.1,0-2-0.2-2.6-0.9s-0.9-1.3-0.9-2.4s0.4-2,1.3-2.6c0.9-0.7,2.2-0.9,3.7-0.9h2.6v-1.5c0-0.9-0.2-1.5-0.9-2s-1.3-0.7-2.2-0.7
			s-1.7,0.2-2.2,0.7s-0.9,1.1-0.9,1.7h-1.1l0,0c0-0.9,0.4-1.7,1.1-2.4c0.7-0.7,2-1.1,3.3-1.1s2.4,0.4,3,1.1c0.9,0.7,1.1,1.5,1.1,2.8
			v5.7c0,0.4,0,0.9,0,1.1s0.2,0.9,0.2,1.1L162.2,445.6L162.2,445.6z M157.8,444.7c0.9,0,1.7-0.2,2.4-0.7c0.7-0.4,1.3-1.1,1.5-1.7
			v-2.4h-2.6c-1.1,0-2.2,0.2-2.8,0.7c-0.7,0.4-1.1,1.1-1.1,2c0,0.7,0.2,1.1,0.7,1.5C156.5,444.5,157.2,444.7,157.8,444.7z"/>
		<path fill="#F7F7F7" d="M168.7,431v2.8h2.6v1.1h-2.6v7.6c0,0.9,0.2,1.3,0.4,1.5c0.2,0.2,0.7,0.4,1.1,0.4c0.2,0,0.4,0,0.7,0
			c0.2,0,0.4,0,0.7,0l0.2,0.9c-0.2,0-0.4,0.2-0.9,0.2c-0.4,0-0.7,0-0.9,0c-0.9,0-1.5-0.2-2-0.9c-0.4-0.4-0.7-1.3-0.7-2.4v-7.4h-2
			v-1.1h2v-2.8h1.4V431z"/>
		<path fill="#F7F7F7" d="M173.1,439.5c0-1.7,0.4-3,1.3-4.1c0.9-1.1,2.2-1.7,3.7-1.7s2.8,0.7,3.7,1.7c0.9,1.1,1.3,2.6,1.3,4.1v0.4
			c0,1.7-0.4,3-1.3,4.1c-0.9,1.1-2.2,1.7-3.7,1.7s-2.8-0.7-3.7-1.7c-0.9-1.1-1.3-2.6-1.3-4.1V439.5z M174.4,440
			c0,1.3,0.4,2.4,1.1,3.5c0.7,0.9,1.7,1.3,2.8,1.3c1.3,0,2.2-0.4,2.8-1.3c0.7-0.9,1.1-2,1.1-3.5v-0.4c0-1.3-0.4-2.4-1.1-3.5
			c-0.7-0.9-1.7-1.3-2.8-1.3c-1.3,0-2.2,0.4-2.8,1.3c-0.7,0.9-1.1,2-1.1,3.5V440z"/>
		<path fill="#F7F7F7" d="M191.3,435.2h-0.9c-0.9,0-1.5,0.2-2,0.7c-0.4,0.4-0.9,1.1-1.1,2v8.1H186v-12h1.1v2v0.2
			c0.4-0.7,0.9-1.3,1.3-1.7s1.3-0.7,2-0.7c0.2,0,0.2,0,0.4,0s0.2,0,0.4,0L191.3,435.2z"/>
	</g>
</g>
<g id="display">
	<rect y="453.4" fill="#F7F7F7" width="553.8" height="197.2"/>
	<g>
		<path fill="#303030" d="M417.5,547.3c0,5-1.1,8.9-3.5,11.5c-2.2,2.6-5.4,3.9-9.4,3.9s-7-1.3-9.4-3.9c-2.4-2.6-3.5-6.5-3.5-11.5
			v-8.9c0-5,1.1-8.9,3.5-11.5s5.4-3.9,9.4-3.9s7,1.3,9.4,3.9s3.5,6.5,3.5,11.5V547.3z M411,537.5c0-3.3-0.4-5.4-1.5-7
			c-1.1-1.5-2.6-2.4-4.6-2.4s-3.5,0.9-4.6,2.4s-1.5,3.9-1.5,7v10.7c0,3.3,0.4,5.7,1.5,7.2s2.6,2.4,4.6,2.4s3.5-0.9,4.6-2.4
			s1.5-3.9,1.5-7.2V537.5z"/>
		<path fill="#303030" d="M430.8,562.3h-6.5V556h6.5V562.3z"/>
		<path fill="#303030" d="M460.2,548.4h5v5.2h-5v8.7h-6.5v-8.7h-16.5l-0.2-3.9l16.5-26.1h6.7V548.4z M443.4,548.4h10.4v-15.7h-0.2
			l-0.4,1.1L443.4,548.4z"/>
		<path fill="#303030" d="M491.1,548.4h5v5.2h-5v8.7h-6.5v-8.7H468l-0.2-3.9l16.5-26.1h6.7v24.8H491.1z M474.3,548.4h10.4v-15.7
			h-0.2l-0.4,1.1L474.3,548.4z"/>
		<path fill="#303030" d="M522.2,548.4h5v5.2h-5v8.7h-6.5v-8.7h-16.5l-0.2-3.9l16.5-26.1h6.7V548.4z M505.3,548.4h10.4v-15.7h-0.2
			l-0.4,1.1L505.3,548.4z"/>
	</g>
</g>
<g id="extension">
	<rect x="232.5" y="615.6" display="none" fill="#303030" width="47" height="348.1"/>
	<rect y="650" fill="#2B2B2B" width="43.5" height="21.6"/>
	<g>
		<path fill="#FFFFFF" d="M16.5,661.1c0,0.9-0.2,1.7-0.7,2.4c-0.5,0.7-1.1,0.9-1.7,0.9c-0.4,0-0.9,0-1.3-0.2
			c-0.4-0.2-0.7-0.4-0.9-0.7v3.5H11v-8.9h0.7v1.1c0.2-0.4,0.4-0.7,0.9-0.9c0.4-0.2,0.7-0.2,1.3-0.2c0.9,0,1.3,0.2,1.7,0.9
			C16.3,659.2,16.5,660,16.5,661.1L16.5,661.1z M15.7,660.9c0-0.9-0.2-1.5-0.4-2c-0.4-0.4-0.9-0.9-1.5-0.9c-0.4,0-0.9,0.2-1.1,0.4
			c-0.2,0.2-0.4,0.4-0.7,0.9v3c0.2,0.4,0.4,0.7,0.7,0.9c0.2,0.2,0.7,0.2,1.1,0.2c0.7,0,1.1-0.2,1.5-0.7
			C15.7,662.4,15.7,661.8,15.7,660.9L15.7,660.9z"/>
		<path fill="#FFFFFF" d="M17.6,660.9c0-0.9,0.2-1.7,0.9-2.4c0.7-0.7,1.3-0.9,2.2-0.9c0.9,0,1.5,0.2,2.2,0.9
			c0.7,0.7,0.9,1.3,0.9,2.4v0.2c0,0.9-0.2,1.7-0.9,2.4c-0.7,0.7-1.3,0.9-2.2,0.9c-0.9,0-1.5-0.2-2.2-0.9
			C17.9,662.9,17.6,662,17.6,660.9L17.6,660.9z M18.5,660.9c0,0.7,0.2,1.3,0.7,2c0.4,0.7,0.9,0.9,1.5,0.9c0.7,0,1.3-0.2,1.5-0.9
			c0.4-0.4,0.7-1.1,0.7-2v-0.2c0-0.7-0.2-1.3-0.7-2c-0.4-0.4-0.9-0.9-1.5-0.9c-0.7,0-1.3,0.2-1.5,0.9
			C18.9,659.4,18.5,660,18.5,660.9L18.5,660.9z"/>
		<path fill="#FFFFFF" d="M26.3,662l0.2,1.1l0,0l0.2-1.1l1.3-4.4h0.7L30,662l0.2,1.1l0,0l0.2-1.1l1.1-4.4h0.7l-2,6.5h0.2l-1.5-4.4
			l-0.2-1.1l0,0l-0.2,1.1l-1.5,4.4h-0.7l-2-6.5H25L26.3,662z"/>
	</g>
	<rect y="671.4" fill="#2B2B2B" width="43.5" height="21.6"/>
	<g>
		<path fill="#EE1D3E" d="M14.8,679.6h-0.4c-0.4,0-0.9,0.2-1.1,0.4c-0.2,0.2-0.4,0.7-0.7,1.1v4.6h-0.9v-6.5h0.7v1.1l0,0
			c0.2-0.4,0.4-0.7,0.7-0.9c0.2-0.2,0.7-0.4,1.1-0.4h0.2h0.2L14.8,679.6z"/>
		<path fill="#EE1D3E" d="M15.5,682.2c0-0.9,0.2-1.7,0.9-2.4c0.7-0.7,1.3-0.9,2.2-0.9c0.9,0,1.5,0.2,2.2,0.9
			c0.7,0.7,0.9,1.3,0.9,2.4v0.2c0,0.9-0.2,1.7-0.9,2.4c-0.7,0.7-1.3,0.9-2.2,0.9c-0.9,0-1.5-0.2-2.2-0.9
			C15.7,684.2,15.5,683.3,15.5,682.2L15.5,682.2z M16.1,682.2c0,0.7,0.2,1.3,0.7,2s0.9,0.9,1.5,0.9c0.7,0,1.3-0.2,1.5-0.9
			c0.4-0.4,0.7-1.1,0.7-2V682c0-0.7-0.2-1.3-0.7-2c-0.4-0.4-0.9-0.9-1.5-0.9c-0.7,0-1.3,0.2-1.5,0.9
			C16.5,680.7,16.1,681.4,16.1,682.2L16.1,682.2z"/>
		<path fill="#EE1D3E" d="M22.4,682.2c0-0.9,0.2-1.7,0.9-2.4c0.7-0.7,1.3-0.9,2.2-0.9c0.9,0,1.5,0.2,2.2,0.9
			c0.7,0.7,0.9,1.3,0.9,2.4v0.2c0,0.9-0.2,1.7-0.9,2.4c-0.7,0.7-1.3,0.9-2.2,0.9c-0.9,0-1.5-0.2-2.2-0.9
			C22.6,684.2,22.4,683.3,22.4,682.2L22.4,682.2z M23.1,682.2c0,0.7,0.2,1.3,0.7,2c0.4,0.7,0.9,0.9,1.5,0.9c0.7,0,1.3-0.2,1.5-0.9
			c0.4-0.4,0.7-1.1,0.7-2V682c0-0.7-0.2-1.3-0.7-2c-0.4-0.4-0.9-0.9-1.5-0.9c-0.7,0-1.3,0.2-1.5,0.9
			C23.5,680.7,23.1,681.4,23.1,682.2L23.1,682.2z"/>
		<path fill="#EE1D3E" d="M30.7,677.2v1.7h1.5v0.7h-1.5v4.4c0,0.4,0,0.7,0.2,0.9s0.4,0.2,0.7,0.2s0.2,0,0.4,0s0.2,0,0.4,0v0.4
			c-0.2,0-0.2,0-0.4,0.2c-0.2,0-0.4,0-0.4,0c-0.4,0-0.9-0.2-1.1-0.4c-0.2-0.2-0.4-0.7-0.4-1.3v-4.4H29v-0.7h1v-1.7L30.7,677.2
			L30.7,677.2z"/>
	</g>
	<rect y="692.9" fill="#2B2B2B" width="43.5" height="21.6"/>
	<g>
		<path fill="#FFFFFF" d="M12.6,707.1v-5.9h-1.1v-0.7h1.1v-1.1c0-0.7,0.2-1.1,0.4-1.5c0.4-0.4,0.9-0.4,1.3-0.4c0.2,0,0.2,0,0.4,0
			s0.2,0,0.4,0v0.7H15c0,0-0.2,0-0.4,0c-0.4,0-0.7,0.2-0.9,0.4s-0.2,0.7-0.2,1.1v0.9H15v0.7h-1.5v5.9h-0.9V707.1z"/>
		<path fill="#FFFFFF" d="M20.2,707.1c0-0.2,0-0.4,0-0.7c0-0.2,0-0.2,0-0.4c-0.2,0.4-0.7,0.7-0.9,0.9c-0.4,0.2-0.9,0.4-1.3,0.4
			c-0.7,0-1.1-0.2-1.5-0.4c-0.4-0.4-0.4-0.9-0.4-1.3c0-0.7,0.2-1.1,0.9-1.5c0.4-0.4,1.3-0.4,2.2-0.4h1.5v-0.9c0-0.4-0.2-0.9-0.4-1.1
			c-0.2-0.2-0.7-0.4-1.3-0.4c-0.4,0-0.9,0.2-1.3,0.4c-0.4,0.2-0.4,0.7-0.4,0.9h-0.7l0,0c0-0.4,0.2-0.9,0.7-1.3
			c0.4-0.4,1.1-0.7,1.7-0.7s1.3,0.2,1.7,0.7c0.4,0.4,0.7,0.9,0.7,1.5v3.3c0,0.2,0,0.4,0,0.7c0,0.2,0,0.4,0.2,0.7h-1.3v-0.4H20.2z
			 M18.1,706.4c0.4,0,0.9-0.2,1.3-0.4c0.4-0.2,0.7-0.7,0.9-0.9v-1.3h-1.5c-0.7,0-1.1,0.2-1.5,0.4c-0.4,0.2-0.7,0.7-0.7,1.1
			s0.2,0.7,0.4,0.9C17.2,706.4,17.6,706.4,18.1,706.4z"/>
		<path fill="#FFFFFF" d="M25.3,706.4c0.4,0,0.9-0.2,1.3-0.4c0.4-0.2,0.7-0.7,0.7-1.1H28l0,0c0,0.7-0.2,1.1-0.7,1.5
			c-0.4,0.4-1.1,0.7-1.7,0.7c-0.9,0-1.5-0.2-2-0.9c-0.4-0.7-0.7-1.3-0.7-2.4v-0.2c0-0.9,0.2-1.7,0.7-2.4c0.4-0.7,1.1-0.9,2-0.9
			c0.7,0,1.3,0.2,1.7,0.7c0.4,0.4,0.7,0.9,0.7,1.7l0,0h-0.7c0-0.4-0.2-0.9-0.4-1.3c-0.4-0.2-0.9-0.4-1.3-0.4c-0.7,0-1.3,0.2-1.5,0.7
			c-0.4,0.4-0.4,1.1-0.4,2v0.2c0,0.9,0.2,1.3,0.4,2C23.9,706.2,24.6,706.4,25.3,706.4z"/>
		<path fill="#FFFFFF" d="M30.5,698.8v1.7H32v0.7h-1.5v4.4c0,0.4,0,0.7,0.2,0.9c0.2,0.2,0.4,0.2,0.7,0.2s0.2,0,0.4,0s0.2,0,0.4,0
			v0.4c-0.2,0-0.2,0-0.4,0.2c-0.2,0-0.4,0-0.4,0c-0.4,0-0.9-0.2-1.1-0.4c-0.2-0.2-0.4-0.7-0.4-1.3v-4.4h-1.1v-0.7h1.1v-1.7H30.5
			L30.5,698.8z"/>
	</g>
	<rect y="714.2" fill="#2B2B2B" width="43.5" height="21.6"/>
	<g>
		<path fill="#FFFFFF" d="M13.5,722.5h-0.4c-0.4,0-0.9,0.2-1.1,0.4s-0.4,0.7-0.7,1.1v4.6h-0.9v-6.5h0.7v1.1l0,0
			c0.2-0.4,0.4-0.7,0.7-0.9c0.2-0.2,0.7-0.4,1.1-0.4h0.2h0.2L13.5,722.5z"/>
		<path fill="#FFFFFF" d="M18.7,728.4c0-0.2,0-0.4,0-0.7c0-0.2,0-0.2,0-0.4c-0.2,0.4-0.7,0.7-0.9,0.9c-0.4,0.2-0.9,0.4-1.3,0.4
			c-0.7,0-1.1-0.2-1.5-0.4c-0.4-0.4-0.4-0.9-0.4-1.3c0-0.7,0.2-1.1,0.9-1.5c0.4-0.4,1.3-0.4,2.2-0.4h1.5v-0.9c0-0.4-0.2-0.9-0.4-1.1
			c-0.2-0.2-0.7-0.4-1.3-0.4c-0.4,0-0.9,0.2-1.3,0.4s-0.9,0.2-0.9,0.7h-0.7l0,0c0-0.4,0.2-0.9,0.7-1.3c0.4-0.4,1.1-0.7,1.7-0.7
			c0.7,0,1.3,0.2,1.7,0.7s0.7,0.9,0.7,1.5v3.3c0,0.2,0,0.4,0,0.7c0,0.2,0,0.4,0.2,0.7h-0.9V728.4z M16.3,727.7
			c0.4,0,0.9-0.2,1.3-0.4s0.7-0.7,0.9-0.9v-1.3h-1.3c-0.7,0-1.1,0.2-1.5,0.4s-0.7,0.7-0.7,1.1s0.2,0.7,0.4,0.9
			C15.7,727.7,15.9,727.7,16.3,727.7z"/>
		<path fill="#FFFFFF" d="M22,721.9v1.1c0.2-0.4,0.4-0.7,0.9-0.9c0.5-0.2,0.9-0.4,1.3-0.4c0.7,0,1.3,0.2,1.5,0.7
			c0.4,0.4,0.7,1.1,0.7,2v3.9h-0.7v-3.9c0-0.7-0.2-1.3-0.4-1.5c-0.2-0.2-0.7-0.4-1.1-0.4s-0.9,0.2-1.3,0.4c-0.2,0.2-0.7,0.7-0.7,1.1
			v4.6h-0.9v-6.5L22,721.9L22,721.9z"/>
		<path fill="#FFFFFF" d="M27.9,725.1c0-1.1,0.2-2,0.7-2.4c0.4-0.7,1.1-0.9,1.7-0.9c0.4,0,0.9,0,1.1,0.2c0.4,0.2,0.7,0.4,0.9,0.9
			V719H33v9.4h-0.7v-0.9c-0.2,0.4-0.4,0.7-0.9,0.9c-0.4,0.2-0.7,0.2-1.3,0.2c-0.9,0-1.3-0.2-1.7-0.9
			C28.1,727.1,27.9,726.2,27.9,725.1L27.9,725.1z M28.5,725.3c0,0.9,0.2,1.5,0.4,2s0.9,0.7,1.5,0.7c0.4,0,0.9,0,1.1-0.2
			s0.7-0.4,0.7-0.9v-3c-0.2-0.4-0.4-0.7-0.7-0.9c-0.2-0.2-0.7-0.4-1.1-0.4c-0.7,0-1.1,0.2-1.5,0.9C28.7,723.6,28.5,724.3,28.5,725.3
			L28.5,725.3z"/>
	</g>
	<rect y="735.8" fill="#2B2B2B" width="43.5" height="21.6"/>
	<g>
		<path fill="#FFFFFF" d="M15.2,749.7h-0.7v-9.3h0.7V749.7z"/>
		<path fill="#FFFFFF" d="M17,746.5c0-0.9,0.2-1.7,0.9-2.4c0.7-0.7,1.3-0.9,2.2-0.9c0.9,0,1.5,0.2,2.2,0.9s0.9,1.3,0.9,2.4v0.2
			c0,0.9-0.2,1.7-0.9,2.4c-0.7,0.7-1.3,0.9-2.2,0.9c-0.9,0-1.5-0.2-2.2-0.9C17.2,748.4,17,747.5,17,746.5L17,746.5z M17.6,746.7
			c0,0.7,0.2,1.3,0.7,2c0.4,0.7,0.9,0.9,1.5,0.9c0.7,0,1.3-0.2,1.5-0.9c0.4-0.4,0.7-1.1,0.7-2v-0.2c0-0.7-0.2-1.3-0.7-2
			c-0.4-0.4-0.9-0.9-1.5-0.9c-0.7,0-1.3,0.2-1.5,0.9C18.1,745.1,17.6,745.8,17.6,746.7L17.6,746.7z"/>
		<path fill="#FFFFFF" d="M23.9,746.7c0-1.1,0.2-2,0.7-2.4c0.4-0.7,1.1-0.9,2-0.9c0.4,0,0.9,0,1.3,0.2s0.7,0.4,0.9,0.9v-1.1h0.7v6.5
			c0,0.9-0.2,1.5-0.7,2c-0.4,0.4-1.1,0.7-2,0.7c-0.2,0-0.7,0-1.1-0.2c-0.4,0-0.7-0.2-0.9-0.2l0.2-0.7c0.2,0.2,0.4,0.2,0.9,0.2
			c0.2,0,0.7,0,0.9,0c0.7,0,1.1-0.2,1.5-0.7c0.2-0.4,0.4-0.9,0.4-1.5v-0.9c-0.2,0.4-0.4,0.7-0.9,0.9c-0.4,0.2-0.7,0.2-1.1,0.2
			c-0.9,0-1.3-0.2-1.7-0.9C24.2,748.4,23.9,747.8,23.9,746.7L23.9,746.7z M24.6,746.7c0,0.9,0.2,1.3,0.4,2c0.2,0.4,0.9,0.7,1.5,0.7
			c0.4,0,0.9,0,1.1-0.2s0.7-0.4,0.7-0.9v-3c-0.2-0.4-0.4-0.7-0.7-0.9c-0.2-0.2-0.7-0.4-1.1-0.4c-0.7,0-1.1,0.2-1.5,0.9
			C24.6,745.4,24.6,745.8,24.6,746.7L24.6,746.7z"/>
	</g>
	<rect y="757.1" fill="#2B2B2B" width="43.5" height="21.6"/>
	<g>
		<g>
			<path fill="#FFFFFF" d="M22,771.3c-0.9,0-1.5-0.2-2-0.9c-0.4-0.7-0.9-1.3-0.9-2.4v-0.4c0-0.9,0.2-1.7,0.9-2.4
				c0.7-0.7,1.1-0.9,2-0.9s1.5,0.2,2,0.7s0.7,1.1,0.7,2v0.7h-4.8v0.2c0,0.7,0.2,1.3,0.7,1.7s0.9,0.7,1.5,0.7c0.4,0,0.9,0,1.1-0.2
				s0.7-0.2,0.9-0.4l0.2,0.4c-0.2,0.2-0.7,0.4-0.9,0.7C23.1,770.8,22.6,771.3,22,771.3z M22,765.2c-0.4,0-1.1,0.2-1.3,0.7
				c-0.4,0.4-0.7,0.9-0.7,1.5l0,0h3.9v-0.2c0-0.7-0.2-1.1-0.4-1.5C22.9,765.4,22.4,765.2,22,765.2z"/>
		</g>
	</g>
	<rect y="778.7" fill="#2B2B2B" width="43.5" height="21.6"/>
	<g>
		<path fill="#FFFFFF" d="M23.1,789.6c0,0.9-0.2,1.7-0.7,2.4s-1.1,0.9-1.7,0.9c-0.4,0-0.9,0-1.3-0.2s-0.7-0.4-0.9-0.7v3.5h-0.7v-8.9
			h0.7v1.1c0.2-0.4,0.4-0.7,0.9-0.9c0.4-0.2,0.7-0.2,1.3-0.2c0.9,0,1.3,0.2,1.7,0.9C22.9,787.6,23.1,788.5,23.1,789.6L23.1,789.6z
			 M22.4,789.3c0-0.9-0.2-1.5-0.4-2c-0.4-0.4-0.9-0.9-1.5-0.9c-0.4,0-0.9,0.2-1.1,0.4s-0.4,0.4-0.7,0.9v3c0.2,0.4,0.4,0.7,0.7,0.9
			c0.2,0.2,0.7,0.2,1.1,0.2c0.7,0,1.1-0.2,1.5-0.7C22.2,790.9,22.4,790.4,22.4,789.3L22.4,789.3z"/>
		<path fill="#FFFFFF" d="M25.7,784.3H25v-1.1h0.7V784.3z M25.7,792.6H25v-6.5h0.7V792.6z"/>
	</g>
</g>
<g id="soustavy">
	<g>
		<path fill="#EF4323" d="M13.3,616.1v-7.4h2.2c0.9,0,1.3,0.2,1.7,0.4c0.4,0.2,0.7,0.9,0.7,1.5c0,0.4,0,0.7-0.2,1.1
			c-0.2,0.4-0.4,0.4-0.9,0.7c0.4,0,0.9,0.2,1.1,0.7s0.4,0.7,0.4,1.1c0,0.7-0.2,1.1-0.7,1.5s-1.1,0.4-1.7,0.4L13.3,616.1L13.3,616.1z
			 M13.9,611.9h1.7c0.4,0,0.9-0.2,1.3-0.4c0.2-0.2,0.4-0.7,0.4-1.1s-0.2-0.9-0.4-1.1c-0.2-0.2-0.7-0.4-1.3-0.4h-1.7V611.9z
			 M13.9,612.6v3h2c0.4,0,0.9-0.2,1.3-0.4c0.2-0.2,0.4-0.7,0.4-1.1s-0.2-0.9-0.4-1.1c-0.2-0.2-0.7-0.4-1.3-0.4H13.9L13.9,612.6z"/>
		<path fill="#EF4323" d="M20.5,616.1h-0.7v-7.4h0.7C20.5,608.7,20.5,616.1,20.5,616.1z"/>
		<path fill="#EF4323" d="M27.9,616.1h-0.7l-4.1-6.3l0,0v6.3h-0.7v-7.4h0.7l4.1,6.3l0,0v-6.3h0.7V616.1z"/>
		<path d="M44.8,616.1h-0.7v-6.7l-2,0.2v-0.4l2.4-0.4v7.4h0.3V616.1z"/>
		<path d="M52.5,613.2c0,0.9-0.2,1.7-0.7,2.2s-1.1,0.9-1.7,0.9c-0.7,0-1.3-0.2-1.7-0.9c-0.4-0.4-0.7-1.3-0.7-2.2v-1.7
			c0-0.9,0.2-1.7,0.7-2.2c0.4-0.4,1.1-0.9,1.7-0.9c0.7,0,1.3,0.2,1.7,0.9s0.7,1.3,0.7,2.2V613.2z M52,611.5c0-0.7-0.2-1.3-0.4-1.7
			s-0.7-0.7-1.3-0.7c-0.7,0-1.1,0.2-1.3,0.7c-0.2,0.4-0.4,1.1-0.4,1.7v1.7c0,0.7,0.2,1.3,0.4,1.7s0.7,0.7,1.3,0.7s1.1-0.2,1.3-0.7
			c0.2-0.4,0.4-1.1,0.4-1.7V611.5z"/>
		<path d="M56.6,616.1h-0.7v-6.7l-2,0.2v-0.4l2.4-0.4v7.4h0.3V616.1z"/>
		<path d="M64.4,613.2c0,0.9-0.2,1.7-0.7,2.2s-1.1,0.9-1.7,0.9c-0.7,0-1.3-0.2-1.7-0.9c-0.4-0.4-0.7-1.3-0.7-2.2v-1.7
			c0-0.9,0.2-1.7,0.7-2.2c0.4-0.4,1.1-0.9,1.7-0.9c0.7,0,1.3,0.2,1.7,0.9c0.4,0.7,0.7,1.3,0.7,2.2V613.2z M63.8,611.5
			c0-0.7-0.2-1.3-0.4-1.7s-0.7-0.7-1.3-0.7c-0.7,0-1.1,0.2-1.3,0.7c-0.2,0.4-0.4,1.1-0.4,1.7v1.7c0,0.7,0.2,1.3,0.4,1.7
			s0.7,0.7,1.3,0.7s1.1-0.2,1.3-0.7c0.2-0.4,0.4-1.1,0.4-1.7V611.5z"/>
		<path d="M71,616.1h-0.7v-6.7l-2,0.2v-0.4l2.4-0.4v7.4H71V616.1z"/>
		<path d="M78.6,613.2c0,0.9-0.2,1.7-0.7,2.2c-0.4,0.4-1.1,0.9-1.7,0.9c-0.7,0-1.3-0.2-1.7-0.9c-0.4-0.4-0.7-1.3-0.7-2.2v-1.7
			c0-0.9,0.2-1.7,0.7-2.2c0.4-0.4,1.1-0.9,1.7-0.9c0.7,0,1.3,0.2,1.7,0.9c0.4,0.7,0.7,1.3,0.7,2.2V613.2z M77.9,611.5
			c0-0.7-0.2-1.3-0.4-1.7c-0.2-0.4-0.7-0.7-1.3-0.7c-0.7,0-1.1,0.2-1.3,0.7c-0.2,0.4-0.4,1.1-0.4,1.7v1.7c0,0.7,0.2,1.3,0.4,1.7
			c0.2,0.4,0.7,0.7,1.3,0.7c0.7,0,1.1-0.2,1.3-0.7c0.2-0.4,0.4-1.1,0.4-1.7V611.5z"/>
		<path d="M82.7,616.1H82v-6.7l-2,0.2v-0.4l2.4-0.4v7.4h0.3V616.1z"/>
		<path d="M90.3,613.2c0,0.9-0.2,1.7-0.7,2.2c-0.4,0.4-1.1,0.9-1.7,0.9c-0.7,0-1.3-0.2-1.7-0.9c-0.4-0.4-0.7-1.3-0.7-2.2v-1.7
			c0-0.9,0.2-1.7,0.7-2.2c0.4-0.4,1.1-0.9,1.7-0.9c0.7,0,1.3,0.2,1.7,0.9c0.4,0.7,0.7,1.3,0.7,2.2V613.2z M89.7,611.5
			c0-0.7-0.2-1.3-0.4-1.7c-0.2-0.4-0.7-0.7-1.3-0.7c-0.7,0-1.1,0.2-1.3,0.7c-0.2,0.4-0.4,1.1-0.4,1.7v1.7c0,0.7,0.2,1.3,0.4,1.7
			c0.2,0.4,0.7,0.7,1.3,0.7c0.7,0,1.1-0.2,1.3-0.7c0.2-0.4,0.4-1.1,0.4-1.7V611.5z"/>
		<path d="M94.5,616.1h-0.7v-6.7l-2,0.2v-0.4l2.4-0.4v7.4h0.3V616.1z"/>
		<path d="M102.1,613.2c0,0.9-0.2,1.7-0.7,2.2c-0.4,0.4-1.1,0.9-1.7,0.9s-1.3-0.2-1.7-0.9c-0.4-0.4-0.7-1.3-0.7-2.2v-1.7
			c0-0.9,0.2-1.7,0.7-2.2c0.4-0.4,1.1-0.9,1.7-0.9s1.3,0.2,1.7,0.9c0.4,0.7,0.7,1.3,0.7,2.2V613.2z M101.7,611.5
			c0-0.7-0.2-1.3-0.4-1.7c-0.2-0.4-0.7-0.7-1.3-0.7s-1.1,0.2-1.3,0.7c-0.2,0.4-0.4,1.1-0.4,1.7v1.7c0,0.7,0.2,1.3,0.4,1.7
			s0.7,0.7,1.3,0.7s1.1-0.2,1.3-0.7c0.2-0.4,0.4-1.1,0.4-1.7V611.5z"/>
	</g>
	<g>
		<path opacity="0.8" fill="#ED1A46" enable-background="new    " d="M13.3,604.7v-7.4h2.2c0.9,0,1.7,0.2,2.2,0.9
			c0.7,0.7,0.9,1.3,0.9,2.4v0.9c0,0.9-0.2,1.7-0.9,2.4c-0.7,0.7-1.3,0.9-2.2,0.9L13.3,604.7L13.3,604.7z M13.9,597.8v6.3h1.5
			c0.7,0,1.3-0.2,1.7-0.9c0.4-0.4,0.7-1.1,0.7-2v-0.8c0-0.9-0.2-1.3-0.7-2c-0.4-0.4-1.1-0.9-1.7-0.9h-1.5
			C13.9,597.5,13.9,597.8,13.9,597.8z"/>
		<path opacity="0.8" fill="#ED1A46" enable-background="new    " d="M24.2,601h-3.5v3h4.1v0.4H20V597h4.6v0.4h-3.9v2.8h3.5V601z"/>
		<path opacity="0.8" fill="#ED1A46" enable-background="new    " d="M31.1,602.3L31.1,602.3c0,0.9-0.2,1.3-0.9,1.7
			c-0.7,0.4-1.1,0.7-2,0.7s-1.5-0.2-2-0.9c-0.4-0.7-0.7-1.3-0.7-2.4v-1c0-0.9,0.2-1.7,0.7-2.4c0.5-0.7,1.1-0.9,2-0.9s1.3,0.2,2,0.7
			c0.4,0.4,0.7,1.1,0.9,1.7l0,0h-0.7c0-0.7-0.2-1.1-0.7-1.3s-0.9-0.4-1.5-0.4c-0.7,0-1.1,0.2-1.5,0.7c-0.4,0.4-0.7,1.1-0.7,2v1.3
			c0,0.9,0.2,1.5,0.7,2c0.4,0.4,0.9,0.7,1.5,0.7c0.7,0,1.1-0.2,1.5-0.4s0.7-0.9,0.7-1.5L31.1,602.3L31.1,602.3z"/>
		<path d="M45.3,604.7h-0.7V598l-2,0.2v-0.4l2.4-0.4v7.4h0.3V604.7z"/>
		<path d="M52.9,601.9c0,0.9-0.2,1.7-0.7,2.2s-1.1,0.9-1.7,0.9c-0.7,0-1.3-0.2-1.7-0.9c-0.4-0.4-0.7-1.3-0.7-2.2v-1.7
			c0-0.9,0.2-1.7,0.7-2.2s1.1-0.9,1.7-0.9c0.7,0,1.3,0.2,1.7,0.9s0.7,1.3,0.7,2.2V601.9z M52.2,600.2c0-0.7-0.2-1.3-0.4-1.7
			s-0.7-0.7-1.3-0.7c-0.7,0-1.1,0.2-1.3,0.7s-0.4,1.1-0.4,1.7v1.7c0,0.7,0.2,1.3,0.4,1.7c0.2,0.4,0.7,0.7,1.3,0.7
			c0.7,0,1.1-0.2,1.3-0.7c0.2-0.4,0.4-1.1,0.4-1.7V600.2z"/>
		<path d="M55.5,600.6h0.7c0.4,0,0.9-0.2,1.3-0.4c0.4-0.2,0.4-0.7,0.4-1.1s-0.2-0.9-0.4-1.1c-0.2-0.2-0.7-0.4-1.1-0.4
			s-0.9,0.2-1.1,0.4c-0.2,0.2-0.4,0.7-0.4,1.1h-0.7l0,0c0-0.7,0.2-1.1,0.7-1.5c0.4-0.4,0.9-0.7,1.5-0.7c0.7,0,1.1,0.2,1.5,0.4
			c0.4,0.2,0.7,0.9,0.7,1.5c0,0.4,0,0.7-0.2,0.9s-0.4,0.4-0.9,0.7c0.4,0.2,0.9,0.4,1.1,0.7c0.2,0.2,0.4,0.7,0.4,1.1
			c0,0.7-0.2,1.1-0.7,1.5c-0.5,0.4-0.9,0.7-1.5,0.7c-0.7,0-1.1-0.2-1.7-0.7c-0.7-0.4-0.7-0.9-0.7-1.5l0,0h0.7c0,0.4,0.2,0.9,0.4,1.1
			s0.7,0.4,1.3,0.4c0.4,0,0.9-0.2,1.3-0.4s0.4-0.7,0.4-1.1c0-0.4-0.2-0.9-0.4-1.1s-0.7-0.4-1.3-0.4h-0.7l0,0h-0.6V600.6z"/>
	</g>
	<g>
		<path fill="#EF4323" d="M18.7,634.8c0,0.9-0.2,1.7-0.9,2.4c-0.4,0.7-1.3,0.9-2.2,0.9s-1.5-0.2-2-0.9c-0.4-0.7-0.7-1.5-0.7-2.4
			v-1.1c0-0.9,0.2-1.7,0.9-2.4c0.4-0.7,1.3-0.9,2-0.9c0.9,0,1.5,0.2,2.2,0.9c0.4,0.7,0.9,1.3,0.9,2.4v1.1H18.7z M18.1,633.7
			c0-0.9-0.2-1.5-0.7-2c-0.4-0.4-0.9-0.7-1.7-0.7c-0.7,0-1.3,0.2-1.7,0.7c-0.4,0.4-0.7,1.1-0.7,2v1.3c0,0.9,0.2,1.5,0.7,2
			c0.4,0.4,0.9,0.7,1.7,0.7c0.7,0,1.3-0.2,1.7-0.7c0.4-0.4,0.7-1.1,0.7-2V633.7z"/>
		<path fill="#EF4323" d="M25.3,635.7L25.3,635.7c0,0.9-0.2,1.3-0.9,1.7c-0.7,0.4-1.1,0.7-2,0.7s-1.5-0.2-2-0.9
			c-0.4-0.7-0.7-1.3-0.7-2.4v-1.1c0-0.9,0.2-1.7,0.7-2.4c0.4-0.7,1.1-0.9,2-0.9s1.3,0.2,2,0.7c0.4,0.4,0.7,1.1,0.9,1.7l0,0h-0.7
			c0-0.7-0.2-1.1-0.7-1.3c-0.5-0.2-0.9-0.4-1.5-0.4c-0.7,0-1.1,0.2-1.5,0.7s-0.7,1.1-0.7,2v1.3c0,0.9,0.2,1.5,0.7,2
			c0.4,0.4,0.9,0.7,1.5,0.7c0.7,0,1.1-0.2,1.5-0.4c0.4-0.2,0.7-0.9,0.7-1.5L25.3,635.7L25.3,635.7z"/>
		<path fill="#EF4323" d="M31.8,631.1h-2.6v6.7h-0.7v-6.7h-2.4v-0.4h5.7V631.1z"/>
		<path d="M46.4,635.4h1.1v0.4h-1.1v2h-0.7v-2h-3.5v-0.4l3.5-5.2h0.7V635.4z M43.1,635.4h2.6v-4.1l0,0l-0.2,0.7L43.1,635.4z"/>
		<path d="M53.1,635c0,0.9-0.2,1.7-0.7,2.2c-0.4,0.4-1.1,0.9-1.7,0.9s-1.3-0.2-1.7-0.9c-0.4-0.4-0.7-1.3-0.7-2.2v-1.7
			c0-0.9,0.2-1.7,0.7-2.2c0.4-0.4,1.1-0.9,1.7-0.9s1.3,0.2,1.7,0.9c0.4,0.7,0.7,1.3,0.7,2.2V635z M52.5,633.3c0-0.7-0.2-1.3-0.4-1.7
			c-0.2-0.4-0.7-0.7-1.3-0.7c-0.7,0-1.1,0.2-1.3,0.7c-0.2,0.4-0.4,1.1-0.4,1.7v1.7c0,0.7,0.2,1.3,0.4,1.7c0.2,0.4,0.7,0.7,1.3,0.7
			s1.1-0.2,1.3-0.7c0.2-0.4,0.4-1.1,0.4-1.7V633.3z"/>
		<path d="M55.7,633.9h0.9c0.4,0,0.9-0.2,1.3-0.4c0.4-0.2,0.4-0.7,0.4-1.1s-0.2-0.9-0.4-1.1c-0.2-0.2-0.7-0.4-1.1-0.4
			s-0.9,0.2-1.1,0.4c-0.2,0.2-0.4,0.7-0.4,1.1h-0.9l0,0c0-0.7,0.2-1.1,0.7-1.5s0.9-0.7,1.5-0.7s1.1,0.2,1.5,0.4
			c0.4,0.2,0.7,0.9,0.7,1.5c0,0.4,0,0.7-0.2,0.9c-0.2,0.2-0.4,0.4-0.9,0.7c0.4,0.2,0.9,0.4,1.1,0.7c0.2,0.2,0.4,0.7,0.4,1.1
			c0,0.7-0.2,1.1-0.7,1.5c-0.5,0.4-0.9,0.7-1.5,0.7c-0.7,0-1.1-0.2-1.7-0.7c-0.7-0.4-0.7-0.9-0.7-1.5l0,0h0.7c0,0.4,0.2,0.9,0.4,1.1
			s0.7,0.4,1.3,0.4c0.4,0,0.9-0.2,1.3-0.4s0.4-0.7,0.4-1.1c0-0.4-0.2-0.9-0.4-1.1S57.6,634,57,634h-0.7l0,0L55.7,633.9L55.7,633.9z"
			/>
	</g>
	<g>
		<path fill="#EF4323" d="M18.7,626.9H18v-3.5h-4.1v3.5h-0.7v-7.4h0.7v3.5H18v-3.5h0.7V626.9z"/>
		<path fill="#EF4323" d="M24.8,623.5h-3.7v3h4.1v0.4h-4.6v-7.4h4.6v0.4h-4.1v2.8h3.5v0.7L24.8,623.5L24.8,623.5z"/>
		<path fill="#EF4323" d="M28.7,622.8l2.2-3h0.7l-2.4,3.5l2.6,3.7h-0.7l-2.2-3.3l-2.2,3.3H26l2.6-3.7l-2.4-3.7H27L28.7,622.8z"/>
		<path d="M46.4,624.5h1.1v0.4h-1.1v2h-0.7v-2h-3.5v-0.4l3.5-5.2h0.7V624.5z M43.1,624.5h2.8v-4.1l0,0l-0.2,0.7L43.1,624.5z"/>
		<path d="M52.9,623.5h-3.5v3.5h-0.7v-7.4h4.8v0.4h-4.1v2.8h3.5V623.5z"/>
		<path d="M58.3,625H55l-0.7,2h-0.7l2.8-7.4h0.7l2.8,7.4h-0.7L58.3,625z M55.3,624.3h3l-1.7-3.9l0,0L55.3,624.3z"/>
	</g>
</g>
<g id="history">
	<rect x="555.5" y="453.2" fill="#2B2B2B" width="244.7" height="346.8"/>
	<rect x="555.5" y="453.4" fill="#C1C1C0" width="244.7" height="59"/>
	<g>
		<g>
			<path d="M581.2,496.5h-10.9l-2.4,6.5h-2l8.9-23.5h1.7l8.9,23.5h-2L581.2,496.5z M571.2,494.8h9.6L576,482l0,0L571.2,494.8z"/>
			<path d="M590.6,485.7l0.2,3c0.7-1.1,1.3-2,2.2-2.4c0.9-0.7,2.2-0.9,3.5-0.9c2,0,3.3,0.7,4.4,1.7s1.5,3,1.5,5.4v10.7h-2v-10.7
				c0-2-0.4-3.5-1.1-4.4c-0.7-0.9-1.7-1.3-3.3-1.3c-1.3,0-2.4,0.4-3.3,1.1c-0.9,0.7-1.5,1.7-2,2.8v12.2h-2v-17.4h1.9V485.7z"/>
			<path d="M617.8,498.7c0-0.9-0.4-1.5-1.1-2.2c-0.7-0.7-2-1.1-3.7-1.5c-2.2-0.4-3.7-1.1-4.6-1.7c-1.1-0.7-1.5-1.7-1.5-3
				s0.7-2.4,1.7-3.5c1.1-0.9,2.6-1.3,4.6-1.3s3.5,0.4,4.8,1.5c1.1,0.9,1.7,2.2,1.7,3.7l0,0H618c0-0.9-0.4-1.7-1.3-2.6
				c-0.9-0.7-2-1.1-3.3-1.1s-2.4,0.2-3.3,0.9c-0.7,0.7-1.1,1.3-1.1,2.2s0.2,1.5,0.9,2c0.7,0.4,1.7,1.1,3.7,1.3
				c2.2,0.4,3.7,1.1,4.6,2s1.5,2,1.5,3.3c0,1.5-0.7,2.6-1.7,3.5c-1.1,0.9-2.8,1.3-4.8,1.3c-2.2,0-3.7-0.4-5-1.5s-1.7-2.2-1.7-3.7
				l0,0h1.7c0,1.3,0.7,2.2,1.5,2.8c0.9,0.7,2.2,0.9,3.3,0.9c1.3,0,2.6-0.2,3.3-0.9C617.4,500.3,617.8,499.6,617.8,498.7z"/>
		</g>
	</g>
	<g>
		<path fill="#FFFFFF" d="M568.2,464.5h0.9c0.7,0,1.3-0.2,1.5-0.4c0.4-0.4,0.4-0.9,0.4-1.3c0-0.7-0.2-1.1-0.4-1.3
			c-0.4-0.4-0.9-0.4-1.5-0.4c-0.7,0-1.1,0.2-1.5,0.4c-0.4,0.4-0.7,0.9-0.7,1.3h-0.7l0,0c0-0.7,0.2-1.3,0.9-1.7s1.3-0.7,2-0.7
			c0.9,0,1.5,0.2,2,0.7c0.4,0.4,0.7,1.1,0.7,2c0,0.4-0.2,0.9-0.4,1.3c-0.2,0.4-0.7,0.7-1.1,0.9c0.7,0.2,1.1,0.4,1.3,0.9
			s0.4,0.9,0.4,1.5c0,0.9-0.2,1.5-0.9,2c-0.4,0.4-1.3,0.7-2.2,0.7s-1.5-0.2-2.2-0.7c-0.7-0.4-0.9-1.1-0.9-2l0,0h0.7
			c0,0.7,0.2,1.1,0.7,1.5c0.4,0.4,0.9,0.7,1.5,0.7c0.7,0,1.1-0.2,1.5-0.4c0.4-0.2,0.7-0.9,0.7-1.5c0-0.7-0.2-1.1-0.7-1.5
			c-0.4-0.2-0.9-0.4-1.7-0.4h-0.2L568.2,464.5L568.2,464.5z"/>
		<path fill="#FFFFFF" d="M575.1,463.2l-2.2-0.7l0.2-0.7l2.2,0.9v-2.3h0.7v2.4l2.2-0.9l0.2,0.7l-2.2,0.7l1.5,2l-0.7,0.4l-1.3-2
			l-1.3,2l-0.7-0.4L575.1,463.2z"/>
		<path fill="#FFFFFF" d="M579.5,466.1c0-1.5,0.2-3,0.9-4.1c0.7-1.3,1.3-2.2,2-2.6l0,0l0.2,0.4c-0.7,0.4-1.1,1.3-1.7,2.4
			c-0.4,1.1-0.7,2.4-0.7,3.9v0.2c0,1.5,0.2,2.6,0.7,3.9c0.4,1.1,1.1,2,1.7,2.4l-0.2,0.4l0,0c-0.7-0.4-1.5-1.3-2-2.4
			C579.7,469.1,579.5,467.6,579.5,466.1L579.5,466.1z"/>
		<path fill="#FFFFFF" d="M585.4,464.5h0.9c0.7,0,1.3-0.2,1.5-0.4c0.4-0.4,0.4-0.9,0.4-1.3c0-0.7-0.2-1.1-0.4-1.3
			c-0.4-0.4-0.9-0.4-1.5-0.4c-0.7,0-1.1,0.2-1.5,0.4c-0.4,0.4-0.7,0.9-0.7,1.3h-0.7l0,0c0-0.7,0.2-1.3,0.9-1.7s1.3-0.7,2-0.7
			c0.9,0,1.5,0.2,2,0.7c0.4,0.4,0.7,1.1,0.7,2c0,0.4-0.2,0.9-0.4,1.3c-0.2,0.4-0.7,0.7-1.1,0.9c0.7,0.2,1.1,0.4,1.3,0.9
			s0.4,0.9,0.4,1.5c0,0.9-0.2,1.5-0.9,2c-0.4,0.4-1.3,0.7-2.2,0.7s-1.5-0.2-2.2-0.7c-0.7-0.4-0.9-1.1-0.9-2l0,0h0.7
			c0,0.7,0.2,1.1,0.7,1.5c0.4,0.4,0.9,0.7,1.5,0.7c0.7,0,1.1-0.2,1.5-0.4c0.4-0.2,0.7-0.9,0.7-1.5c0-0.7-0.2-1.1-0.7-1.5
			c-0.4-0.2-0.9-0.4-1.7-0.4h-0.9v-1.3h0.6V464.5z"/>
		<path fill="#FFFFFF" d="M595.6,466.7h1.5v0.7h-1.5v2.4h-0.9v-2.4h-4.4V467l4.4-6.5h0.9V466.7z M591.5,466.7h3.5v-5.4l0,0l-0.4,0.7
			L591.5,466.7z"/>
		<path fill="#FFFFFF" d="M599.9,464.5h0.9c0.7,0,1.3-0.2,1.5-0.4s0.4-0.9,0.4-1.3c0-0.7-0.2-1.1-0.4-1.3c-0.4-0.4-0.9-0.4-1.5-0.4
			c-0.7,0-1.1,0.2-1.5,0.4c-0.4,0.4-0.7,0.9-0.7,1.3H598l0,0c0-0.7,0.2-1.3,0.9-1.7c0.4-0.4,1.3-0.7,2-0.7c0.9,0,1.5,0.2,2,0.7
			c0.4,0.4,0.7,1.1,0.7,2c0,0.4-0.2,0.9-0.4,1.3c-0.2,0.4-0.7,0.7-1.1,0.9c0.7,0.2,1.1,0.4,1.3,0.9c0.2,0.4,0.4,0.9,0.4,1.5
			c0,0.9-0.2,1.5-0.9,2c-0.7,0.4-1.3,0.7-2.2,0.7s-1.5-0.2-2.2-0.7c-0.7-0.4-0.9-1.1-0.9-2l0,0h0.7c0,0.7,0.2,1.1,0.7,1.5
			c0.4,0.4,0.9,0.7,1.5,0.7s1.1-0.2,1.5-0.4s0.7-0.9,0.7-1.5c0-0.7-0.2-1.1-0.7-1.5c-0.4-0.2-0.9-0.4-1.7-0.4h-0.9v-1.3h0.5V464.5z"
			/>
		<path fill="#FFFFFF" d="M608,466.1c0,1.5-0.2,3-0.9,4.1c-0.7,1.3-1.3,2-2,2.4l0,0l-0.2-0.4c0.7-0.4,1.1-1.3,1.7-2.4
			c0.4-1.1,0.7-2.4,0.7-3.9v-0.2c0-1.5-0.2-2.6-0.7-3.9c-0.4-1.3-1.1-2-1.5-2.4l0.2-0.4l0,0c0.7,0.4,1.3,1.3,2,2.6
			C607.8,463,608,464.3,608,466.1L608,466.1z"/>
		<path fill="#FFFFFF" d="M613,465h2.8v0.7H613v3h-0.9v-3h-2.6V465h2.8v-3h0.9v3L613,465L613,465z"/>
		<path fill="#FFFFFF" d="M622.1,466.7h1.5v0.7h-1.5v2.4h-0.9v-2.4h-4.4V467l4.4-6.5h0.9V466.7z M617.8,466.7h3.5v-5.4l0,0l-0.4,0.7
			L617.8,466.7z"/>
		<path fill="#FFFFFF" d="M629.6,466.7h1.5v0.7h-1.5v2.4h-0.9v-2.4h-4.4V467l4.4-6.5h0.9V466.7z M625.2,466.7h3.5v-5.4l0,0l-0.4,0.7
			L625.2,466.7z"/>
	</g>
	<g>
		<g>
			<path fill="#FFFFFF" d="M715.3,485l1.5-15h13.5v2.2h-11.5l-1.1,9.8c0.7-0.7,1.5-1.1,2.4-1.5s2-0.4,3.5-0.7c2.4,0,4.4,0.7,5.7,2.4
				c1.5,1.5,2.2,3.7,2.2,6.5s-0.7,5-2.2,6.7c-1.3,1.7-3.5,2.4-6.3,2.4c-2.2,0-4.1-0.7-5.7-2c-1.5-1.3-2.2-3-2.2-5.7v-0.2h2
				c0,2,0.4,3.3,1.5,4.4s2.4,1.5,4.1,1.5c2,0,3.5-0.7,4.6-2s1.5-3,1.5-5.4c0-2-0.4-3.7-1.5-5s-2.4-2-4.4-2c-1.7,0-3,0.2-4.1,0.9
				c-1.1,0.7-1.5,1.3-2,2.6h-1.5V485z"/>
			<path fill="#FFFFFF" d="M749.7,488.7h4.4v1.7h-4.4v7h-2.2v-7h-12.8v-1.3l12.6-19.4h2.4V488.7z M737.1,488.7h10.2V473h-0.2l-0.9,2
				L737.1,488.7z"/>
			<path fill="#FFFFFF" d="M759.7,497.2l-2,5.2h-1.5l1.3-5.2v-3.3h2.2V497.2z"/>
			<path fill="#FFFFFF" d="M778.7,488.7h4.4v1.7h-4.4v7h-2.2v-7h-12.8v-1.3l12.6-19.4h2.4V488.7z M766,488.7h10.2V473H776l-0.9,2
				L766,488.7z"/>
		</g>
	</g>
	<rect x="555.5" y="512.4" fill="#2B2B2B" width="236.2" height="59.2"/>
	<g>
		<path fill="#ED1A46" d="M568.6,562.3v-23.7h6.7c2.8,0,5.2,0.9,7.2,2.8c2,2,2.8,4.4,2.8,7.4v3c0,3-0.9,5.4-2.8,7.4
			c-2,2-4.4,2.8-7.2,2.8h-6.7V562.3z M570.6,540.3v20.2h5c2.4,0,4.4-0.9,5.7-2.4c1.5-1.5,2.2-3.7,2.2-6.1v-3c0-2.4-0.7-4.6-2.2-6.1
			s-3.5-2.4-5.7-2.4h-5V540.3z"/>
		<path fill="#ED1A46" d="M603.6,551.2h-11.5v11.1h-2v-23.7h15v1.7H592v9.1h11.5L603.6,551.2L603.6,551.2z"/>
	</g>
	<g>
		<path fill="#FFFFFF" d="M568.2,523.8h0.9c0.7,0,1.3-0.2,1.5-0.4c0.4-0.4,0.4-0.9,0.4-1.3c0-0.7-0.2-1.1-0.4-1.3
			c-0.4-0.4-0.9-0.4-1.5-0.4c-0.7,0-1.1,0.2-1.5,0.4c-0.4,0.4-0.7,0.9-0.7,1.3h-0.7l0,0c0-0.7,0.2-1.3,0.9-1.7s1.3-0.7,2-0.7
			c0.9,0,1.5,0.2,2,0.7c0.4,0.4,0.7,1.1,0.7,2c0,0.4-0.2,0.9-0.4,1.3s-0.7,0.7-1.1,0.9c0.7,0.2,1.1,0.4,1.3,0.9s0.4,0.9,0.4,1.5
			c0,0.9-0.2,1.5-0.9,2c-0.4,0.4-1.3,0.7-2.2,0.7s-1.5-0.2-2.2-0.7c-0.7-0.4-0.9-1.1-0.9-2l0,0h0.7c0,0.7,0.2,1.1,0.7,1.5
			c0.4,0.4,0.9,0.7,1.5,0.7c0.7,0,1.1-0.2,1.5-0.4c0.4-0.2,0.7-0.9,0.7-1.5c0-0.7-0.2-1.1-0.7-1.5c-0.4-0.2-0.9-0.4-1.7-0.4h-0.2
			L568.2,523.8L568.2,523.8z"/>
		<path fill="#FFFFFF" d="M575.1,522.5l-2.2-0.7l0.2-0.7l2.2,0.9v-2.4h0.7v2.4l2.2-0.9l0.2,0.7l-2.2,0.7l1.5,2l-0.7,0.4l-1.3-2
			l-1.3,2l-0.7-0.4L575.1,522.5z"/>
		<path fill="#FFFFFF" d="M579.5,525.1c0-1.5,0.2-3,0.9-4.1c0.7-1.3,1.3-2.2,2-2.6l0,0l0.2,0.4c-0.7,0.4-1.1,1.3-1.7,2.4
			c-0.4,1.1-0.7,2.4-0.7,3.9v0.2c0,1.5,0.2,2.6,0.7,3.9c0.4,1.1,1.1,2,1.7,2.4l-0.2,0.4l0,0c-0.7-0.4-1.5-1.3-2-2.4
			C579.7,528.3,579.5,526.8,579.5,525.1L579.5,525.1z"/>
		<path fill="#FFFFFF" d="M585.4,523.8h0.9c0.7,0,1.3-0.2,1.5-0.4c0.4-0.4,0.4-0.9,0.4-1.3c0-0.7-0.2-1.1-0.4-1.3
			c-0.4-0.4-0.9-0.4-1.5-0.4c-0.7,0-1.1,0.2-1.5,0.4c-0.4,0.4-0.7,0.9-0.7,1.3h-0.7l0,0c0-0.7,0.2-1.3,0.9-1.7s1.3-0.7,2-0.7
			c0.9,0,1.5,0.2,2,0.7c0.4,0.4,0.7,1.1,0.7,2c0,0.4-0.2,0.9-0.4,1.3s-0.7,0.7-1.1,0.9c0.7,0.2,1.1,0.4,1.3,0.9s0.4,0.9,0.4,1.5
			c0,0.9-0.2,1.5-0.9,2c-0.4,0.4-1.3,0.7-2.2,0.7s-1.5-0.2-2.2-0.7c-0.7-0.4-0.9-1.1-0.9-2l0,0h0.7c0,0.7,0.2,1.1,0.7,1.5
			c0.4,0.4,0.9,0.7,1.5,0.7c0.7,0,1.1-0.2,1.5-0.4c0.4-0.2,0.7-0.9,0.7-1.5c0-0.7-0.2-1.1-0.7-1.5c-0.4-0.2-0.9-0.4-1.7-0.4h-0.9
			v-1.3h0.6V523.8z"/>
		<path fill="#FFFFFF" d="M595.6,525.9h1.5v0.7h-1.5v2.4h-0.9v-2.4h-4.4v-0.4l4.4-6.5h0.9V525.9z M591.5,525.9h3.5v-5.4l0,0
			l-0.4,0.7L591.5,525.9z"/>
		<path fill="#FFFFFF" d="M599.9,523.8h0.9c0.7,0,1.3-0.2,1.5-0.4c0.2-0.2,0.4-0.9,0.4-1.3c0-0.7-0.2-1.1-0.4-1.3
			c-0.4-0.4-0.9-0.4-1.5-0.4c-0.7,0-1.1,0.2-1.5,0.4c-0.4,0.4-0.7,0.9-0.7,1.3H598l0,0c0-0.7,0.2-1.3,0.9-1.7c0.4-0.4,1.3-0.7,2-0.7
			c0.9,0,1.5,0.2,2,0.7c0.4,0.4,0.7,1.1,0.7,2c0,0.4-0.2,0.9-0.4,1.3s-0.7,0.7-1.1,0.9c0.7,0.2,1.1,0.4,1.3,0.9
			c0.2,0.4,0.4,0.9,0.4,1.5c0,0.9-0.2,1.5-0.9,2s-1.3,0.7-2.2,0.7s-1.5-0.2-2.2-0.7c-0.7-0.4-0.9-1.1-0.9-2l0,0h0.7
			c0,0.7,0.2,1.1,0.7,1.5c0.4,0.4,0.9,0.7,1.5,0.7s1.1-0.2,1.5-0.4c0.4-0.2,0.7-0.9,0.7-1.5c0-0.7-0.2-1.1-0.7-1.5
			c-0.4-0.2-0.9-0.4-1.7-0.4h-0.9v-1.3h0.5V523.8z"/>
		<path fill="#FFFFFF" d="M608,525.3c0,1.5-0.2,3-0.9,4.1c-0.7,1.3-1.3,2-2,2.4l0,0l-0.1-0.4c0.7-0.4,1.1-1.3,1.7-2.4
			c0.4-1.1,0.7-2.4,0.7-3.9v-0.2c0-1.5-0.2-2.6-0.7-3.9c-0.4-1.3-1.1-2-1.5-2.4l0.2-0.4l0,0c0.7,0.4,1.3,1.3,2,2.6
			C607.8,522,608,523.5,608,525.3L608,525.3z"/>
		<path fill="#FFFFFF" d="M613,524.2h2.8v0.7H613v3h-0.9v-3h-2.6v-0.7h2.8v-3h0.9v3H613z"/>
		<path fill="#FFFFFF" d="M622.1,525.9h1.5v0.7h-1.5v2.4h-0.9v-2.4h-4.4v-0.4l4.4-6.5h0.9V525.9z M617.8,525.9h3.5v-5.4l0,0
			l-0.4,0.7L617.8,525.9z"/>
		<path fill="#FFFFFF" d="M629.6,525.9h1.5v0.7h-1.5v2.4h-0.9v-2.4h-4.4v-0.4l4.4-6.5h0.9V525.9z M625.2,525.9h3.5v-5.4l0,0
			l-0.4,0.7L625.2,525.9z"/>
	</g>
	<g>
		<g>
			<path fill="#FFFFFF" d="M715.3,544.2l1.5-15h13.5v2.2h-11.5l-1.1,9.8c0.7-0.7,1.5-1.1,2.4-1.5s2-0.4,3.5-0.7
				c2.4,0,4.4,0.7,5.7,2.4c1.5,1.5,2.2,3.7,2.2,6.5c0,2.8-0.7,5-2.2,6.7c-1.3,1.7-3.5,2.4-6.3,2.4c-2.2,0-4.1-0.7-5.7-2
				c-1.5-1.3-2.2-3-2.2-5.7v-0.2h2c0,2,0.4,3.3,1.5,4.4c1.1,1.1,2.4,1.5,4.1,1.5c2,0,3.5-0.7,4.6-2c1.1-1.3,1.5-3,1.5-5.4
				c0-2-0.4-3.7-1.5-5s-2.4-2-4.4-2c-1.7,0-3,0.2-4.1,0.9c-1.1,0.7-1.5,1.3-2,2.6L715.3,544.2z"/>
			<path fill="#FFFFFF" d="M749.7,547.7h4.4v2h-4.4v7h-2.2v-7h-12.8v-1.3l12.6-19.4h2.4V547.7z M737.1,547.7h10.2V532h-0.2l-0.9,2
				L737.1,547.7z"/>
			<path fill="#FFFFFF" d="M759.7,556.2l-2,5.2h-1.5l1.3-5.2v-3.3h2.2V556.2z"/>
			<path fill="#FFFFFF" d="M778.7,547.7h4.4v2h-4.4v7h-2.2v-7h-12.8v-1.3l12.6-19.4h2.4V547.7z M766,547.7h10.2V532H776l-0.9,2
				L766,547.7z"/>
		</g>
	</g>
	<rect x="555.3" y="570.1" fill="#2B2B2B" width="236.2" height="59.2"/>
	<g>
		<path fill="#ED1A46" d="M575.6,606.5l6.7-10h2.4l-7.8,11.5l8.1,12h-2.4l-7-10.4l-7,10.4h-2.4l8.1-12l-7.8-11.5h2.4L575.6,606.5z"
			/>
		<path fill="#ED1A46" d="M595.8,609.5l7.4-13.1h2.2l-8.5,15v8.7h-2v-8.7l-8.5-14.8h2.2L595.8,609.5z"/>
	</g>
	<g>
		<path fill="#FFFFFF" d="M568.2,581.4h0.9c0.7,0,1.3-0.2,1.5-0.4c0.4-0.4,0.4-0.9,0.4-1.3c0-0.7-0.2-1.1-0.4-1.3
			c-0.4-0.4-0.9-0.4-1.5-0.4c-0.7,0-1.1,0.2-1.5,0.4c-0.4,0.4-0.7,0.9-0.7,1.3h-0.7l0,0c0-0.7,0.2-1.3,0.9-1.7
			c0.7-0.4,1.3-0.7,2-0.7c0.9,0,1.5,0.2,2,0.7c0.4,0.4,0.7,1.1,0.7,2c0,0.4-0.2,0.9-0.4,1.3c-0.2,0.4-0.7,0.7-1.1,0.9
			c0.7,0.2,1.1,0.4,1.3,0.9c0.2,0.4,0.4,0.9,0.4,1.5c0,0.9-0.2,1.5-0.9,2c-0.4,0.4-1.3,0.7-2.2,0.7s-1.5-0.2-2.2-0.7
			c-0.7-0.4-0.9-1.1-0.9-2l0,0h0.7c0,0.7,0.2,1.1,0.7,1.5c0.4,0.4,0.9,0.7,1.5,0.7c0.7,0,1.1-0.2,1.5-0.4c0.4-0.2,0.7-0.9,0.7-1.5
			c0-0.7-0.2-1.1-0.7-1.5c-0.4-0.2-0.9-0.4-1.7-0.4h-0.2L568.2,581.4L568.2,581.4z"/>
		<path fill="#FFFFFF" d="M575.1,580.1l-2.2-0.7l0.2-0.7l2.2,0.9v-2.4h0.7v2.4l2.2-0.9l0.2,0.7l-2.2,0.7l1.5,2l-0.7,0.4l-1.3-2
			l-1.3,2l-0.7-0.4L575.1,580.1z"/>
		<path fill="#FFFFFF" d="M579.5,582.8c0-1.5,0.2-3,0.9-4.1c0.7-1.3,1.3-2.2,2-2.6l0,0l0.2,0.4c-0.7,0.4-1.1,1.3-1.7,2.4
			c-0.4,1.1-0.7,2.4-0.7,3.9v0.2c0,1.5,0.2,2.6,0.7,3.9c0.4,1.1,1.1,2,1.7,2.4l-0.2,0.4l0,0c-0.7-0.4-1.5-1.3-2-2.4
			C579.7,586,579.5,584.5,579.5,582.8L579.5,582.8z"/>
		<path fill="#FFFFFF" d="M585.1,581.4h0.9c0.7,0,1.3-0.2,1.5-0.4c0.4-0.4,0.4-0.9,0.4-1.3c0-0.7-0.2-1.1-0.4-1.3
			c-0.4-0.4-0.9-0.4-1.5-0.4s-1.1,0.2-1.5,0.4c-0.4,0.4-0.7,0.9-0.7,1.3h-0.4l0,0c0-0.7,0.2-1.3,0.9-1.7c0.7-0.4,1.3-0.7,2-0.7
			c0.9,0,1.5,0.2,2,0.7c0.4,0.4,0.7,1.1,0.7,2c0,0.4-0.2,0.9-0.4,1.3c-0.2,0.4-0.7,0.7-1.1,0.9c0.7,0.2,1.1,0.4,1.3,0.9
			c0.2,0.4,0.4,0.9,0.4,1.5c0,0.9-0.2,1.5-0.9,2c-0.4,0.4-1.3,0.7-2.2,0.7s-1.5-0.2-2.2-0.7c-0.7-0.4-0.9-1.1-0.9-2l0,0h0.7
			c0,0.7,0.2,1.1,0.7,1.5c0.4,0.4,0.9,0.7,1.5,0.7c0.7,0,1.1-0.2,1.5-0.4c0.4-0.2,0.7-0.9,0.7-1.5c0-0.7-0.2-1.1-0.7-1.5
			c-0.4-0.2-0.9-0.4-1.7-0.4h-0.9v-1.6H585.1z"/>
		<path fill="#FFFFFF" d="M595.6,583.6h1.5v0.7h-1.5v2.4h-0.9v-2.4h-4.4v-0.4l4.4-6.5h0.9V583.6z M591.5,583.6h3.5v-5.4l0,0
			l-0.4,0.7L591.5,583.6z"/>
		<path fill="#FFFFFF" d="M599.9,581.4h0.9c0.7,0,1.3-0.2,1.5-0.4c0.2-0.2,0.4-0.9,0.4-1.3c0-0.7-0.2-1.1-0.4-1.3
			c-0.4-0.4-0.9-0.4-1.5-0.4c-0.7,0-1.1,0.2-1.5,0.4c-0.4,0.4-0.7,0.9-0.7,1.3H598l0,0c0-0.7,0.2-1.3,0.9-1.7c0.4-0.4,1.3-0.7,2-0.7
			c0.9,0,1.5,0.2,2,0.7c0.4,0.4,0.7,1.1,0.7,2c0,0.4-0.2,0.9-0.4,1.3c-0.2,0.4-0.7,0.7-1.1,0.9c0.7,0.2,1.1,0.4,1.3,0.9
			c0.2,0.4,0.4,0.9,0.4,1.5c0,0.9-0.2,1.5-0.9,2c-0.7,0.4-1.3,0.7-2.2,0.7s-1.5-0.2-2.2-0.7c-0.7-0.4-0.9-1.1-0.9-2l0,0h0.7
			c0,0.7,0.2,1.1,0.7,1.5c0.5,0.4,0.9,0.7,1.5,0.7s1.1-0.2,1.5-0.4s0.7-0.9,0.7-1.5c0-0.7-0.2-1.1-0.7-1.5c-0.4-0.2-0.9-0.4-1.7-0.4
			h-0.9v-1.6H599.9z"/>
		<path fill="#FFFFFF" d="M608,583c0,1.5-0.2,3-0.9,4.1c-0.7,1.3-1.3,2-2,2.4l0,0l-0.2-0.4c0.7-0.4,1.1-1.3,1.7-2.4
			c0.4-1.1,0.7-2.4,0.7-3.9v-0.2c0-1.5-0.2-2.6-0.7-3.9c-0.4-1.3-1.1-2-1.5-2.4l0.2-0.4l0,0c0.7,0.4,1.3,1.3,2,2.6
			C607.6,579.7,608,581.2,608,583L608,583z"/>
		<path fill="#FFFFFF" d="M613,581.9h2.8v0.7H613v3h-0.9v-3h-2.6v-0.7h2.8v-3h0.9v3H613z"/>
		<path fill="#FFFFFF" d="M622.1,583.6h1.5v0.7h-1.5v2.4h-0.9v-2.4h-4.4v-0.4l4.4-6.5h0.9V583.6z M617.8,583.6h3.5v-5.4l0,0
			l-0.4,0.7L617.8,583.6z"/>
		<path fill="#FFFFFF" d="M629.6,583.6h1.5v0.7h-1.5v2.4h-0.9v-2.4h-4.4v-0.4l4.4-6.5h0.9V583.6z M625.2,583.6h3.5v-5.4l0,0
			l-0.4,0.7L625.2,583.6z"/>
	</g>
	<g>
		<g>
			<path fill="#FFFFFF" d="M671.6,601.9l1.5-15h13.5v2.2H675l-1.1,9.8c0.7-0.7,1.5-1.1,2.4-1.5s2-0.4,3.5-0.7c2.4,0,4.4,0.7,5.7,2.4
				c1.5,1.5,2.2,3.7,2.2,6.5c0,2.8-0.7,5-2.2,6.7c-1.3,1.7-3.5,2.4-6.3,2.4c-2.2,0-4.1-0.7-5.7-2c-1.5-1.3-2.2-3-2.2-5.7v-0.2h2
				c0,2,0.4,3.3,1.5,4.4c1.1,1.1,2.4,1.5,4.1,1.5c2,0,3.5-0.7,4.6-2c1.1-1.3,1.5-3,1.5-5.4c0-2-0.4-3.7-1.5-5s-2.4-2-4.4-2
				c-1.7,0-3,0.2-4.1,0.9c-1.1,0.7-1.5,1.3-2,2.6L671.6,601.9z"/>
			<path fill="#FFFFFF" d="M706.2,605.4h4.4v2h-4.4v7H704v-7h-12.8v-1.3l12.6-19.4h2.4V605.4z M693.6,605.4h10.2v-15.7h-0.2l-0.9,2
				L693.6,605.4z"/>
			<path fill="#FFFFFF" d="M714.7,601.9l1.5-15h13.5v2.2h-11.5l-1.1,9.8c0.7-0.7,1.5-1.1,2.4-1.5s2-0.4,3.5-0.7
				c2.4,0,4.4,0.7,5.7,2.4c1.5,1.5,2.2,3.7,2.2,6.5c0,2.8-0.7,5-2.2,6.7c-1.3,1.7-3.5,2.4-6.3,2.4c-2.2,0-4.1-0.7-5.7-2
				c-1.5-1.3-2.2-3-2.2-5.7v-0.2h2c0,2,0.4,3.3,1.5,4.4c1.1,1.1,2.4,1.5,4.1,1.5c2,0,3.5-0.7,4.6-2c1.1-1.3,1.5-3,1.5-5.4
				c0-2-0.4-3.7-1.5-5s-2.4-2-4.4-2c-1.7,0-3,0.2-4.1,0.9c-1.1,0.7-1.5,1.3-2,2.6L714.7,601.9z"/>
			<path fill="#FFFFFF" d="M749.1,605.4h4.4v2h-4.4v7h-2.2v-7H734v-1.3l12.6-19.4h2.4L749.1,605.4L749.1,605.4z M736.7,605.4h10.2
				v-15.7h-0.2l-0.9,2L736.7,605.4z"/>
			<path fill="#FFFFFF" d="M759.3,613.9l-2,5.2h-1.5l1.3-5.2v-3.3h2.2V613.9z"/>
			<path fill="#FFFFFF" d="M778,605.4h4.4v2H778v7h-2.2v-7H763v-1.3l12.6-19.4h2.4V605.4z M765.6,605.4h10.2v-15.7h-0.2l-0.9,2
				L765.6,605.4z"/>
		</g>
	</g>
	<rect x="791.5" y="512.4" fill="#3D3D3D" width="8.7" height="59.2"/>
	<circle fill="#2D2D2D" cx="795.9" cy="536.8" r="1.1"/>
	<circle fill="#2D2D2D" cx="795.9" cy="542" r="1.1"/>
	<circle fill="#2D2D2D" cx="795.9" cy="547.3" r="1.1"/>
	<rect x="555.3" y="630.9" fill="#2B2B2B" width="236.2" height="59.2"/>
	<g>
		<path fill="#ED1A46" d="M581.9,669.4h-11.5v11.1h-2V657h15v1.7h-13.1v9.1h11.5L581.9,669.4L581.9,669.4z"/>
		<path fill="#ED1A46" d="M604.7,670.7c0,3-0.9,5.4-2.4,7.4c-1.7,2-3.9,2.8-6.7,2.8s-5-0.9-6.5-2.8c-1.7-2-2.4-4.4-2.4-7.4v-3.9
			c0-3,0.9-5.4,2.4-7.4c1.7-2,3.9-2.8,6.5-2.8c2.8,0,5,0.9,6.7,2.8c1.7,2,2.6,4.4,2.6,7.4v3.9H604.7z M602.8,666.8
			c0-2.6-0.7-4.6-2-6.1s-3-2.4-5.4-2.4c-2.2,0-3.9,0.9-5.2,2.4s-2,3.7-2,6.1v3.9c0,2.6,0.7,4.6,2,6.1s3,2.4,5.2,2.4
			c2.4,0,4.1-0.9,5.4-2.4s2-3.7,2-6.1V666.8z"/>
		<path fill="#ED1A46" d="M627.2,670.7c0,3-0.9,5.4-2.4,7.4c-1.7,2-3.9,2.8-6.7,2.8s-5-0.9-6.5-2.8c-1.7-2-2.4-4.4-2.4-7.4v-3.9
			c0-3,0.9-5.4,2.4-7.4s3.9-2.8,6.5-2.8c2.8,0,5,0.9,6.7,2.8c1.7,2,2.6,4.4,2.6,7.4v3.9H627.2z M625.2,666.8c0-2.6-0.7-4.6-2-6.1
			s-3-2.4-5.4-2.4c-2.2,0-3.9,0.9-5.2,2.4s-2,3.7-2,6.1v3.9c0,2.6,0.7,4.6,2,6.1s3,2.4,5.2,2.4c2.4,0,4.1-0.9,5.4-2.4s2-3.7,2-6.1
			V666.8z"/>
	</g>
	<g>
		<path fill="#FFFFFF" d="M567.9,642h0.9c0.7,0,1.3-0.2,1.5-0.4c0.4-0.4,0.4-0.9,0.4-1.3c0-0.7-0.2-1.1-0.4-1.3
			c-0.4-0.4-0.9-0.4-1.5-0.4s-1.1,0.2-1.5,0.4c-0.4,0.4-0.7,0.9-0.7,1.3H566l0,0c0-0.7,0.2-1.3,0.9-1.7c0.7-0.4,1.3-0.7,2-0.7
			c0.9,0,1.5,0.2,2,0.7s0.7,1.1,0.7,2c0,0.4-0.2,0.9-0.4,1.3s-0.7,0.7-1.1,0.9c0.7,0.2,1.1,0.4,1.3,0.9c0.2,0.4,0.4,0.9,0.4,1.5
			c0,0.9-0.2,1.5-0.9,2c-0.4,0.4-1.3,0.7-2.2,0.7s-1.5-0.2-2.2-0.7c-0.7-0.4-0.9-1.1-0.9-2l0,0h0.7c0,0.7,0.2,1.1,0.7,1.5
			c0.4,0.4,0.9,0.7,1.5,0.7c0.7,0,1.1-0.2,1.5-0.4c0.4-0.2,0.7-0.9,0.7-1.5c0-0.7-0.2-1.1-0.7-1.5c-0.4-0.2-0.9-0.4-1.7-0.4h-0.9
			v-1.3h0.5V642z"/>
		<path fill="#FFFFFF" d="M575.1,640.7l-2.2-0.7l0.2-0.7l2.2,0.9v-2.4h0.7v2.4l2.2-0.9l0.2,0.7l-2.2,0.7l1.5,2l-0.7,0.4l-1.3-2
			l-1.3,2l-0.7-0.4L575.1,640.7z"/>
		<path fill="#FFFFFF" d="M579.3,643.5c0-1.5,0.2-3,0.9-4.1c0.7-1.3,1.3-2.2,2-2.6l0,0l0.2,0.4c-0.7,0.4-1.1,1.3-1.7,2.4
			c-0.4,1.1-0.7,2.4-0.7,3.9v0.2c0,1.5,0.2,2.6,0.7,3.9c0.4,1.1,1.1,2,1.7,2.4l-0.2,0.4l0,0c-0.7-0.4-1.5-1.3-2-2.4
			C579.5,646.5,579.3,645,579.3,643.5L579.3,643.5z"/>
		<path fill="#FFFFFF" d="M585.1,642h0.9c0.7,0,1.3-0.2,1.5-0.4c0.4-0.4,0.4-0.9,0.4-1.3c0-0.7-0.2-1.1-0.4-1.3
			c-0.4-0.4-0.9-0.4-1.5-0.4s-1.1,0.2-1.5,0.4c-0.4,0.4-0.7,0.9-0.7,1.3h-0.4l0,0c0-0.7,0.2-1.3,0.9-1.7c0.7-0.4,1.3-0.7,2-0.7
			c0.9,0,1.5,0.2,2,0.7c0.4,0.4,0.7,1.1,0.7,2c0,0.4-0.2,0.9-0.4,1.3s-0.7,0.7-1.1,0.9c0.7,0.2,1.1,0.4,1.3,0.9
			c0.2,0.4,0.4,0.9,0.4,1.5c0,0.9-0.2,1.5-0.9,2c-0.4,0.4-1.3,0.7-2.2,0.7s-1.5-0.2-2.2-0.7c-0.7-0.4-0.9-1.1-0.9-2l0,0h0.7
			c0,0.7,0.2,1.1,0.7,1.5c0.4,0.4,0.9,0.7,1.5,0.7c0.7,0,1.1-0.2,1.5-0.4c0.4-0.2,0.7-0.9,0.7-1.5c0-0.7-0.2-1.1-0.7-1.5
			c-0.4-0.2-0.9-0.4-1.7-0.4h-0.9v-1.3h0.3V642z"/>
		<path fill="#FFFFFF" d="M595.6,644.1h1.5v0.7h-1.5v2.4h-0.9v-2.4h-4.4v-0.4l4.4-6.5h0.9V644.1z M591.2,644.1h3.5v-5.4l0,0
			l-0.4,0.7L591.2,644.1z"/>
		<path fill="#FFFFFF" d="M599.9,642h0.9c0.7,0,1.3-0.2,1.5-0.4s0.4-0.9,0.4-1.3c0-0.7-0.2-1.1-0.4-1.3c-0.4-0.4-0.9-0.4-1.5-0.4
			c-0.7,0-1.1,0.2-1.5,0.4c-0.4,0.4-0.7,0.9-0.7,1.3H598l0,0c0-0.7,0.2-1.3,0.9-1.7c0.4-0.4,1.3-0.7,2-0.7c0.9,0,1.5,0.2,2,0.7
			c0.4,0.4,0.7,1.1,0.7,2c0,0.4-0.2,0.9-0.4,1.3s-0.7,0.7-1.1,0.9c0.7,0.2,1.1,0.4,1.3,0.9c0.2,0.4,0.4,0.9,0.4,1.5
			c0,0.9-0.2,1.5-0.9,2c-0.7,0.4-1.3,0.7-2.2,0.7s-1.5-0.2-2.2-0.7c-0.7-0.4-0.9-1.1-0.9-2l0,0h0.7c0,0.7,0.2,1.1,0.7,1.5
			c0.4,0.4,0.9,0.7,1.5,0.7s1.1-0.2,1.5-0.4c0.4-0.2,0.7-0.9,0.7-1.5c0-0.7-0.2-1.1-0.7-1.5c-0.4-0.2-0.9-0.4-1.7-0.4h-0.9v-1.3h0.5
			V642z"/>
		<path fill="#FFFFFF" d="M607.8,643.5c0,1.5-0.2,3-0.9,4.1c-0.7,1.3-1.3,2-2,2.4l0,0l-0.2-0.4c0.7-0.4,1.1-1.3,1.7-2.4
			c0.4-1.1,0.7-2.4,0.7-3.9v-0.2c0-1.5-0.2-2.6-0.7-3.9c-0.4-1.3-1.1-2-1.5-2.4l0.2-0.4l0,0c0.7,0.4,1.3,1.3,2,2.6
			C607.6,640.4,607.8,641.7,607.8,643.5L607.8,643.5z"/>
		<path fill="#FFFFFF" d="M613,642.4h2.8v0.7H613v3h-0.9v-3h-2.8v-0.7h2.8v-3h0.9V642.4z"/>
		<path fill="#FFFFFF" d="M621.9,644.1h1.5v0.7h-1.5v2.4H621v-2.4h-4.4v-0.4l4.4-6.5h0.9V644.1z M617.8,644.1h3.5v-5.4l0,0l-0.4,0.7
			L617.8,644.1z"/>
		<path fill="#FFFFFF" d="M629.3,644.1h1.5v0.7h-1.5v2.4h-0.9v-2.4H624v-0.4l4.4-6.5h0.9V644.1z M625,644.1h3.5v-5.4l0,0l-0.5,0.7
			L625,644.1z"/>
	</g>
	<g>
		<g>
			<path fill="#FFFFFF" d="M715.1,662.4l1.5-15h13.5v2.2h-11.5l-1.1,9.8c0.7-0.7,1.5-1.1,2.4-1.5s2-0.4,3.5-0.7
				c2.4,0,4.4,0.7,5.7,2.4c1.5,1.5,2.2,3.7,2.2,6.5c0,2.8-0.7,5-2.2,6.7c-1.3,1.7-3.5,2.4-6.3,2.4c-2.2,0-4.1-0.7-5.7-2
				c-1.5-1.3-2.2-3-2.2-5.7v-0.1h2c0,2,0.4,3.3,1.5,4.4c1.1,1.1,2.4,1.5,4.1,1.5c2,0,3.5-0.7,4.6-2c1.1-1.3,1.5-3,1.5-5.4
				c0-2-0.4-3.7-1.5-5s-2.4-2-4.4-2c-1.7,0-3,0.2-4.1,0.9c-1.1,0.7-1.5,1.3-2,2.6H715.1z"/>
			<path fill="#FFFFFF" d="M749.5,666.1h4.4v2h-4.4v7h-2.2v-7h-12.8v-1.3l12.6-19.4h2.4V666.1z M737.1,666.1h10.2v-15.7h-0.2l-0.9,2
				L737.1,666.1z"/>
			<path fill="#FFFFFF" d="M759.7,674.6l-2,5.2h-1.5l1.3-5.2v-3.2h2.2V674.6z"/>
			<path fill="#FFFFFF" d="M778.4,666.1h4.4v2h-4.4v7h-2.2v-7h-12.8v-1.3l12.6-19.4h2.4V666.1z M766,666.1h10.2v-15.7H776l-0.9,2
				L766,666.1z"/>
		</g>
	</g>
	<g>
		<rect x="791.7" y="630.9" fill="#3D3D3D" width="8.7" height="59.2"/>
		<circle fill="#FFFFFF" cx="796.1" cy="655" r="1.1"/>
		<circle fill="#FFFFFF" cx="796.1" cy="660.5" r="1.1"/>
		<circle fill="#FFFFFF" cx="796.1" cy="665.7" r="1.1"/>
	</g>
	<rect x="555.3" y="528.3" fill="#B7B7B7" width="2.2" height="174.4"/>
	<rect x="782.6" y="571.7" fill="#D81F27" width="18.1" height="59.2"/>
	<path fill="#3D3D3D" d="M864.7,559.7"/>
	<g>
		<path fill="#FFFFFF" d="M788.9,607.6c-0.4,0-0.4,0-0.4-0.2s0-7.6,0-7.6h-0.9c0,0,0,7.4,0,7.8c0,0.4,0.4,1.1,1.1,1.1
			c0.7,0,3.5,0,3.5,0v-0.9C791.9,607.6,789.1,607.6,788.9,607.6z"/>
		<path fill="#FFFFFF" d="M796.3,599.7c0,0,0,7.4,0,7.8s-0.4,1.1-1.1,1.1s-3.5,0-3.5,0v-0.9c0,0,2.6,0,3,0s0.4,0,0.4-0.2
			s0-7.6,0-7.6h1.1L796.3,599.7L796.3,599.7z"/>
		<path fill="#FFFFFF" d="M796.7,598.9c0,0,0-0.4,0-0.7c0-0.2,0-0.4-0.4-0.4s-4.6,0-4.6,0s-4.1,0-4.6,0c-0.2,0-0.4,0.4-0.4,0.4v0.7
			h-0.4v1.1h5.4h5.4v-1.1H796.7z"/>
		<path fill="#FFFFFF" d="M793,595.8c-0.7,0-1.1,0-1.1,0s-0.4,0-1.1,0c-0.7,0-1.3,0.9-1.3,1.5c0,0.2,0,0.2,0,0.2h1.1c0,0,0,0,0-0.4
			c0-0.2,0.2-0.4,0.4-0.4c0.4,0,0.9,0,0.9,0s0.4,0,0.9,0c0.2,0,0.4,0.4,0.4,0.4c0,0.4,0,0.4,0,0.4h1.1c0,0,0,0,0-0.2
			C794.3,596.7,793.7,595.8,793,595.8z"/>
		<rect x="791.3" y="600.8" fill="#FFFFFF" width="1.1" height="5.9"/>
		<rect x="793.5" y="600.8" fill="#FFFFFF" width="1.1" height="5.9"/>
		<rect x="789.3" y="600.8" fill="#FFFFFF" width="1.1" height="5.9"/>
	</g>
	<rect x="740.1" y="571.7" fill="#3D3D3D" width="42.4" height="59.2"/>
	<rect x="741.9" y="571.7" fill="#2D2D2D" width="40.7" height="29.2"/>
	<g>
		<path fill="#FFFFFF" d="M761.9,614.5H753v-1.1h8.9V614.5z M761.9,618.9H753v-1.1h8.9V618.9z"/>
		<path fill="#FFFFFF" d="M770.8,623.5h-1.3v-14.1l-3.9,0.4v-0.9l5.2-0.9V623.5z"/>
	</g>
	<g>
		<path fill="#FFFFFF" d="M761.5,584.3h-8.9v-1.1h8.9V584.3z M761.5,588.8h-8.9v-1.1h8.9V588.8z"/>
		<path fill="#FFFFFF" d="M774.5,587.3c0,2-0.4,3.5-1.3,4.6s-2,1.5-3.7,1.5c-1.5,0-2.8-0.4-3.7-1.5s-1.3-2.6-1.3-4.6v-3.5
			c0-2,0.4-3.5,1.3-4.6s2-1.5,3.7-1.5s2.8,0.4,3.7,1.5s1.3,2.6,1.3,4.6V587.3z M773.2,583.6c0-1.5-0.2-2.8-0.9-3.7s-1.5-1.3-2.6-1.3
			s-2.2,0.4-2.6,1.3c-0.4,0.9-0.9,2.2-0.9,3.7v3.9c0,1.5,0.2,2.8,0.9,3.7c0.7,0.9,1.5,1.3,2.6,1.3s2.2-0.4,2.6-1.3
			c0.4-0.9,0.9-2.2,0.9-3.7V583.6z"/>
	</g>
	<g>
		<rect x="731.4" y="571.7" fill="#3D3D3D" width="8.7" height="59.2"/>
		<circle fill="#FFFFFF" cx="735.8" cy="596" r="1.1"/>
		<circle fill="#FFFFFF" cx="735.8" cy="601.3" r="1.1"/>
		<circle fill="#FFFFFF" cx="735.8" cy="606.5" r="1.1"/>
	</g>
</g>
<g id="error" display="none">
	<rect y="453.4" display="inline" opacity="0.9" enable-background="new    " width="800" height="346.8"/>
	<rect x="-0.7" y="533.3" display="inline" fill="#ED1D2B" width="800.7" height="150.6"/>
	
		<text transform="matrix(1 0 0 1 55.1473 586.6055)" display="inline" fill="#FFFFFF" font-family="'Roboto-Light'" font-size="45.7143">Error</text>
	
		<text transform="matrix(1 0 0 1 58.7754 637.8789)" display="inline" fill="#FFFFFF" font-family="'Roboto-Light'" font-size="21.7687">Naskytla se nějaká chyba.</text>
	<rect x="649.4" y="642.2" display="inline" fill="none" stroke="#FFFFFF" stroke-miterlimit="10" width="125" height="26.8"/>
	
		<text transform="matrix(1 0 0 1 701.8912 664.1704)" display="inline" fill="#FFFFFF" font-family="'Roboto-Light'" font-size="20.729">Ok</text>
</g>
<g id="completer">
	<rect x="86.6" y="680.5" fill="#2B2B2B" width="103.8" height="62.3"/>
	<rect x="86.6" y="727.1" opacity="0.8" fill="#ED1A46" enable-background="new    " width="103.8" height="15.7"/>
	<g>
		<path fill="#C9C9C9" d="M110.8,694.2c0-0.2,0-0.4,0-0.7s0-0.2,0-0.4c-0.2,0.4-0.7,0.7-0.9,0.9c-0.4,0.2-0.9,0.4-1.3,0.4
			c-0.7,0-1.1-0.2-1.5-0.4c-0.4-0.4-0.4-0.9-0.4-1.3c0-0.7,0.2-1.1,0.9-1.5c0.4-0.4,1.3-0.4,2.2-0.4h1.5v-0.9c0-0.4-0.2-0.9-0.4-1.1
			c-0.2-0.2-0.7-0.4-1.3-0.4c-0.4,0-0.9,0.2-1.3,0.4c-0.4,0.2-0.4,0.7-0.4,0.9h-0.7l0,0c0-0.4,0.2-0.9,0.7-1.3
			c0.4-0.4,1.1-0.7,1.7-0.7c0.7,0,1.3,0.2,1.7,0.7c0.4,0.4,0.7,0.9,0.7,1.5v3.3c0,0.2,0,0.4,0,0.7c0,0.2,0,0.4,0.2,0.7h-1.3
			L110.8,694.2L110.8,694.2z M108.4,693.8c0.4,0,0.9-0.2,1.3-0.4c0.4-0.2,0.7-0.7,0.9-0.9v-1.3h-1.5c-0.7,0-1.1,0.2-1.5,0.4
			s-0.7,0.7-0.7,1.1c0,0.4,0.2,0.7,0.4,0.9C107.5,693.6,108,693.8,108.4,693.8z"/>
		<path fill="#C9C9C9" d="M118.4,691.2c0,0.9-0.2,1.7-0.7,2.4c-0.4,0.7-1.1,0.9-1.7,0.9c-0.4,0-0.9,0-1.3-0.2s-0.7-0.4-0.9-0.9v1.1
			h-0.7v-9.4h0.7v3.9c0.2-0.4,0.4-0.7,0.9-0.9c0.4-0.2,0.7-0.2,1.3-0.2c0.9,0,1.3,0.2,1.7,0.9C118.2,689.2,118.4,689.9,118.4,691.2
			L118.4,691.2z M117.8,690.9c0-0.9-0.2-1.5-0.4-2c-0.2-0.4-0.9-0.9-1.5-0.9c-0.4,0-0.9,0.2-1.3,0.4c-0.2,0.2-0.4,0.7-0.7,0.9v3
			c0.2,0.4,0.4,0.7,0.7,0.9s0.7,0.4,1.1,0.4c0.7,0,1.1-0.2,1.5-0.7C117.6,692.5,117.8,691.8,117.8,690.9L117.8,690.9z"/>
		<path fill="#C9C9C9" d="M124.1,692.5c0-0.2-0.2-0.7-0.4-0.9s-0.7-0.4-1.3-0.7c-0.9-0.2-1.3-0.4-1.7-0.7c-0.4-0.2-0.7-0.7-0.7-1.1
			c0-0.4,0.2-0.9,0.7-1.3c0.4-0.4,0.9-0.4,1.7-0.4c0.7,0,1.3,0.2,1.7,0.7c0.4,0.4,0.7,0.9,0.7,1.3l0,0h-0.7c0-0.4-0.2-0.7-0.4-0.9
			c-0.2-0.2-0.7-0.4-1.3-0.4c-0.4,0-0.9,0.2-1.1,0.4c-0.2,0.2-0.4,0.4-0.4,0.9c0,0.2,0.2,0.7,0.4,0.7c0.2,0.2,0.7,0.4,1.3,0.4
			c0.9,0.2,1.3,0.4,1.7,0.7c0.4,0.2,0.7,0.7,0.7,1.3s-0.2,1.1-0.7,1.3c-0.4,0.4-1.1,0.4-1.7,0.4c-0.9,0-1.3-0.2-2-0.7
			s-0.9-0.7-0.9-1.1l0,0h0.7c0,0.4,0.2,0.9,0.7,1.1c0.4,0.2,0.9,0.2,1.3,0.2s0.9-0.2,1.3-0.4C123.9,693.1,124.1,692.9,124.1,692.5z"
			/>
	</g>
	<g>
		<path fill="#C9C9C9" d="M110.6,707.3c0-0.2-0.2-0.7-0.4-0.9c-0.2-0.2-0.7-0.4-1.3-0.7c-0.9-0.2-1.3-0.4-1.7-0.7
			c-0.4-0.2-0.7-0.7-0.7-1.1c0-0.4,0.2-0.9,0.7-1.3c0.4-0.4,0.9-0.4,1.7-0.4c0.7,0,1.3,0.2,1.7,0.7c0.4,0.4,0.7,0.9,0.7,1.3l0,0
			h-0.7c0-0.4-0.2-0.7-0.4-0.9c-0.2-0.2-0.7-0.4-1.3-0.4c-0.4,0-0.9,0.2-1.1,0.4c-0.2,0.2-0.4,0.4-0.4,0.9c0,0.2,0.2,0.7,0.4,0.7
			c0.2,0.2,0.7,0.4,1.3,0.4c0.9,0.2,1.3,0.4,1.7,0.7c0.4,0.2,0.7,0.7,0.7,1.3c0,0.7-0.2,1.1-0.7,1.3c-0.4,0.4-1.1,0.4-1.7,0.4
			c-0.9,0-1.3-0.2-2-0.7c-0.7-0.4-0.7-0.9-0.7-1.3l0,0h0.7c0,0.4,0.2,0.9,0.7,1.1c0.4,0.2,0.9,0.2,1.3,0.2s0.9-0.2,1.3-0.4
			C110.4,707.9,110.6,707.5,110.6,707.3z"/>
		<path fill="#C9C9C9" d="M113.6,700.5H113v-1.1h0.7L113.6,700.5L113.6,700.5z M113.6,708.8H113v-6.5h0.7L113.6,708.8L113.6,708.8z"
			/>
		<path fill="#C9C9C9" d="M116.2,702.5v1.1c0.2-0.4,0.4-0.7,0.9-0.9c0.4-0.2,0.9-0.4,1.3-0.4c0.7,0,1.3,0.2,1.5,0.7
			c0.4,0.4,0.7,1.1,0.7,2v3.9h-0.7V705c0-0.7-0.2-1.3-0.4-1.5c-0.2-0.2-0.7-0.4-1.1-0.4s-0.9,0.2-1.3,0.4c-0.2,0.2-0.7,0.7-0.7,1.1
			v4.6h-0.7v-6.5L116.2,702.5L116.2,702.5z"/>
	</g>
	<g>
		<path fill="#C9C9C9" d="M110.8,724.3c0-0.2,0-0.4,0-0.7s0-0.2,0-0.4c-0.2,0.4-0.7,0.7-0.9,0.9c-0.4,0.2-0.9,0.4-1.3,0.4
			c-0.7,0-1.1-0.2-1.5-0.4c-0.4-0.4-0.4-0.9-0.4-1.3c0-0.7,0.2-1.1,0.9-1.5c0.4-0.4,1.3-0.4,2.2-0.4h1.5V720c0-0.4-0.2-0.9-0.4-1.1
			c-0.2-0.2-0.7-0.4-1.3-0.4c-0.4,0-0.9,0.2-1.3,0.4c-0.4,0.2-0.4,0.7-0.4,0.9h-0.7l0,0c0-0.4,0.2-0.9,0.7-1.3
			c0.4-0.4,1.1-0.7,1.7-0.7c0.7,0,1.3,0.2,1.7,0.7c0.4,0.4,0.7,0.9,0.7,1.5v3.3c0,0.2,0,0.4,0,0.7c0,0.2,0,0.4,0.2,0.7h-1.3
			L110.8,724.3L110.8,724.3z M108.4,723.8c0.4,0,0.9-0.2,1.3-0.4s0.7-0.7,0.9-0.9v-1.3h-1.5c-0.7,0-1.1,0.2-1.5,0.4
			c-0.4,0.2-0.7,0.7-0.7,1.1s0.2,0.7,0.4,0.9C107.5,723.6,108,723.8,108.4,723.8z"/>
		<path fill="#C9C9C9" d="M114.1,718.8c0.2-0.4,0.4-0.7,0.9-0.9c0.4-0.2,0.9-0.2,1.3-0.2c0.7,0,1.3,0.2,1.5,0.7
			c0.4,0.4,0.7,1.1,0.7,2v3.9h-0.9v-4.1c0-0.7-0.2-1.3-0.4-1.5c-0.2-0.2-0.7-0.4-1.1-0.4s-0.9,0.2-1.3,0.4c-0.4,0.2-0.7,0.7-0.7,1.1
			v4.6h-0.9V715h0.7v3.9L114.1,718.8L114.1,718.8z"/>
		<path fill="#C9C9C9" d="M119.7,721c0-0.9,0.2-1.7,0.9-2.4s1.3-0.9,2.2-0.9s1.5,0.2,2.2,0.9s0.9,1.3,0.9,2.4v0.2
			c0,0.9-0.2,1.7-0.9,2.4c-0.7,0.7-1.3,0.9-2.2,0.9s-1.5-0.2-2.2-0.9S119.7,722.1,119.7,721L119.7,721z M120.4,721.2
			c0,0.7,0.2,1.3,0.7,2c0.4,0.7,0.9,0.9,1.5,0.9c0.7,0,1.3-0.2,1.5-0.9c0.4-0.4,0.7-1.1,0.7-2V721c0-0.7-0.2-1.3-0.7-2
			c-0.4-0.4-0.9-0.9-1.5-0.9c-0.7,0-1.3,0.2-1.5,0.9C120.8,719.7,120.4,720.1,120.4,721.2L120.4,721.2z"/>
		<path fill="#C9C9C9" d="M127.8,717.7v7c0,0.7-0.2,1.1-0.4,1.5c-0.2,0.4-0.9,0.7-1.3,0.7c-0.2,0-0.2,0-0.4,0c-0.2,0-0.2,0-0.4,0
			v-0.7h0.2c0.2,0,0.2,0,0.2,0c0.4,0,0.7-0.2,0.9-0.4c0.2-0.2,0.2-0.7,0.2-1.1v-7H127.8z M127.8,716h-0.7v-1.1h0.7V716z"/>
		<path fill="#C9C9C9" d="M129.5,721.2c0-1.1,0.2-2,0.7-2.4c0.4-0.7,1.1-0.9,1.7-0.9c0.4,0,0.9,0,1.1,0.2c0.4,0.2,0.7,0.4,0.9,0.9
			v-3.9h0.7v9.4h-0.7v-0.9c-0.2,0.4-0.4,0.7-0.9,0.9c-0.4,0.2-0.7,0.2-1.3,0.2c-0.9,0-1.3-0.2-1.7-0.9
			C129.7,722.9,129.5,722.3,129.5,721.2L129.5,721.2z M130.4,721.2c0,0.9,0.2,1.5,0.4,2s0.9,0.7,1.5,0.7c0.4,0,0.9,0,1.1-0.2
			s0.7-0.4,0.7-0.9v-3c-0.2-0.4-0.4-0.7-0.7-0.9c-0.2-0.2-0.7-0.4-1.1-0.4c-0.7,0-1.1,0.2-1.5,0.9
			C130.4,719.7,130.4,720.3,130.4,721.2L130.4,721.2z"/>
	</g>
	<g>
		<path fill="#C9C9C9" d="M109.5,734l2.4-3.7h0.9l-2.8,4.4l3,4.4h-0.9l-2.6-3.9l-2.6,3.9H106l3-4.4l-2.8-4.4h0.9L109.5,734z"/>
		<path fill="#C9C9C9" d="M116.9,735.1l2.6-4.8h0.9l-3.3,5.7v3.3h-0.7V736l-3.3-5.4h0.9L116.9,735.1z"/>
	</g>
	<rect x="189" y="680.5" fill="#969696" width="1.5" height="34"/>
	<rect x="92.3" y="687.7" fill="#EF4323" width="5.9" height="5.9"/>
	<rect x="92.3" y="702.5" fill="#EF4323" width="5.9" height="5.9"/>
	<rect x="92.3" y="717.9" fill="#C9C9C9" width="5.9" height="5.9"/>
	<rect x="92.3" y="732.7" fill="#C9C9C9" width="5.9" height="5.9"/>
</g>
<g id="new">
	<rect x="452.4" y="620.6" display="none" fill="#E0E0E0" width="103" height="29.8"/>
	<polygon display="none" fill="#E0E0E0" points="452.4,620.6 413.6,650.5 452.4,650.5 	"/>
	<polygon fill="#303030" points="22.4,453.2 22.4,479.6 2.8,497.4 2.8,650 0,650 0,453.2 	"/>
	
		<text transform="matrix(1 0 0 1 490.8319 641.9838)" display="none" fill="#2B2B2B" enable-background="new    " font-family="'Roboto-Light'" font-size="19.9552">Graph</text>
	<g id="grapicon">
		<path fill="#FFFFFF" d="M18.9,467.8v0.9H18v-0.9H18.9z M16.5,467.8v0.9h-0.7v-0.9H16.5z M14.4,467.8v0.9h-0.9v-0.9H14.4z
			 M12,467.8v0.9h-0.9v-0.9H12z M9.6,467.8v0.9H8.9v-0.9H9.6z M7.4,467.8v0.9H6.5v-0.9H7.4z M5,467.8v0.9H4.1v-0.9H5z M2.6,467.8
			v0.9H2v-0.9H2.6z"/>
		<path fill="#FFFFFF" d="M11.1,455.2L11.1,455.2h-0.9l0,0H11.1z M11.1,456.9v0.9h-0.9v-0.9H11.1z M11.1,459.3v0.7h-0.9v-0.9h0.9
			V459.3z M11.1,461.5v0.9h-0.9v-0.9H11.1z M11.1,463.9v0.9h-0.9v-0.9H11.1z M11.1,466.3v0.9h-0.9v-0.9H11.1z M11.1,468.5v0.9h-0.9
			v-0.9H11.1z M11.1,470.9v0.9h-0.9v-0.9H11.1z M11.1,473.3v0.9h-0.9v-0.9H11.1z M11.1,475.7v0.9h-0.9v-0.9H11.1z M11.1,477.8v0.9
			h-0.9v-0.9H11.1z M11.1,480.2v0.9h-0.9v-0.9H11.1z"/>
		<path display="none" fill="#FFFFFF" d="M18.7,456.3v22.6H3v-22.6H18.7z M18.1,478.3V457H3.7v21.3H18.1z"/>
		<polygon fill="#ED1A46" points="7.4,476.3 5.4,464.5 3.5,470.4 3,470.4 5.7,462.6 7.6,474.1 9.4,466.7 11.3,471.5 15.2,463.5 
			17.4,469.1 19.6,465 20,465.2 17.2,470.2 15.2,464.5 11.3,472.6 9.4,468 		"/>
	</g>
</g>
</svg>
