<?xml version="1.0" encoding="utf-8"?>
<!-- Generator: Adobe Illustrator 18.0.0, SVG Export Plug-In . SVG Version: 6.00 Build 0)  -->
<!DOCTYPE svg PUBLIC "-//W3C//DTD SVG 1.1//EN" "http://www.w3.org/Graphics/SVG/1.1/DTD/svg11.dtd">
<svg version="1.1" id="Vrstva_1" xmlns="http://www.w3.org/2000/svg" xmlns:xlink="http://www.w3.org/1999/xlink" x="0px" y="0px"
	 viewBox="0 0 499.8 236.9" enable-background="new 0 0 499.8 236.9" xml:space="preserve">
<g id="Vrstva_1_1_">
	<g id="error" display="none">
		<rect x="125.4" y="345.4" display="inline" opacity="0.9" enable-background="new    " width="249.9" height="108.3"/>
		<rect x="125.2" y="370.3" display="inline" fill="#ED1D2B" width="250" height="47"/>
		
			<text transform="matrix(1 0 0 1 142.6338 386.9106)" display="inline" fill="#FFFFFF" font-family="'Roboto-Light'" font-size="14.2757">Error</text>
		
			<text transform="matrix(1 0 0 1 143.7666 402.9223)" display="inline" fill="#FFFFFF" font-family="'Roboto-Light'" font-size="6.7979">Naskytla se nějaká chyba.</text>
		<rect x="328.2" y="404.3" display="inline" fill="none" stroke="#FFFFFF" stroke-miterlimit="10" width="39" height="8.4"/>
		
			<text transform="matrix(1 0 0 1 344.5996 411.1332)" display="inline" fill="#FFFFFF" font-family="'Roboto-Light'" font-size="6.4732">Ok</text>
	</g>
	<g>
		<g id="input">
			<rect x="26.1" y="142.1" fill="#F2F2F2" width="285.5" height="93.6"/>
			<g>
				<path fill="#A09F9F" d="M54.8,157.4c0.4,0.4,1.1,0.7,1.8,0.7c0.9,0,1.3-0.3,1.3-0.8c0-0.5-0.3-0.8-1.6-1.3
					c-1.3-0.4-1.8-0.9-1.8-1.8c0-1,0.9-1.8,2.4-1.8c0.8,0,1.3,0.1,1.8,0.4l-0.3,0.9c-0.4-0.3-0.9-0.4-1.6-0.4
					c-0.8,0-1.3,0.4-1.3,0.8c0,0.4,0.3,0.7,1.3,0.9c1.6,0.6,2.2,1.1,2.2,2.1c0,1.1-0.9,1.8-2.4,1.8c-0.9,0-1.8-0.3-2.2-0.7
					L54.8,157.4z"/>
				<path fill="#A09F9F" d="M60.5,150.6c0-0.4,0.3-0.8,0.8-0.8c0.5,0,0.8,0.4,0.8,0.8c0,0.5-0.3,0.8-0.8,0.8
					C60.8,151.4,60.5,151,60.5,150.6z M61.7,158.6h-1v-6.3h1V158.6z"/>
				<path fill="#A09F9F" d="M64.7,153.5c0.5-0.7,1.1-1.3,2.2-1.3c1.3,0,2.2,0.9,2.2,2.3v4.1h-1.1v-4c0-0.9-0.4-1.5-1.3-1.5
					c-0.7,0-1.5,0.6-1.8,1.4v4.1h-1v-6.3h1v1.1L64.7,153.5L64.7,153.5z"/>
				<path fill="#A09F9F" d="M72.8,159.9l-0.7,0.5c-1-1.8-1.6-3.6-1.6-5.3c0-2.1,0.6-3.7,1.6-5.3l0.7,0.5c-0.6,1.3-1.1,3-1.1,5
					C71.6,157.1,72.2,158.4,72.8,159.9z"/>
				<path fill="#A09F9F" d="M76.3,154.4l-2.7-3.6l1-0.7l2.5,3.4l2.4-3.4l0.9,0.7l-2.5,3.6l2.8,3.8l-0.9,0.7l-2.8-3.7l-2.6,3.6
					l-0.9-0.7L76.3,154.4z"/>
				<path fill="#A09F9F" d="M84.4,154.4l2.6-4.2l0.9,0.6l-2.8,4.8v3.3h-1.1v-3.2l-3-4.8l0.9-0.6L84.4,154.4z"/>
				<path fill="#A09F9F" d="M88.6,149.9l0.7-0.5c0.9,1.6,1.6,3.4,1.6,5.3c0,1.9-0.5,3.6-1.6,5.3l-0.7-0.4c0.5-1.4,1-3,1-5.1
					C89.8,152.5,89.3,151.2,88.6,149.9z"/>
			</g>
			<rect x="313" y="143.1" fill="#ED1A46" width="33.8" height="93.4"/>
			<rect x="323.5" y="186.9" fill="#FFFFFF" width="12.9" height="2"/>
			<rect x="323.5" y="193.4" fill="#FFFFFF" width="12.9" height="2.1"/>
		</g>
		<g id="frame">
			<rect y="0" fill="#303030" width="499.1" height="20.5"/>
			<g id="close_button">
				<rect x="479.4" y="0" fill="#C82027" width="20.5" height="20.5"/>
				<g>
					<path fill="#FFFFFF" d="M9,10.7l-3.3,4.2h5.3v0.7H4.8V15l3.3-4.5L4.8,6.5V5.8h6.3v0.7H5.9l0,0L9,10.3C9,10.3,9,10.7,9,10.7z"/>
				</g>
				<polygon fill="#FFFFFF" points="11,6.5 10.6,6.5 11,7.1 				"/>
				<polygon fill="#FFFFFF" points="11,14.8 10.6,14.8 11,14.5 				"/>
				<rect x="5.4" y="9" fill="#C82027" width="4.8" height="0.8"/>
				<rect x="5.4" y="11.5" fill="#C82027" width="4.8" height="0.8"/>
				
					<rect x="489.2" y="2.1" transform="matrix(-0.7071 0.7071 -0.7071 -0.7071 842.7831 -328.948)" fill="#E1E1E1" width="0.5" height="15.9"/>
				
					<rect x="489.2" y="2.2" transform="matrix(0.7071 0.7071 -0.7071 0.7071 150.5236 -343.1266)" fill="#E1E1E1" width="0.5" height="15.9"/>
			</g>
			<g>
				<path fill="#F7F7F7" d="M17.6,15.5V5.7h2.8c0.9,0,1.8,0.3,2.4,0.7c0.6,0.4,0.8,1.1,0.8,1.8c0,0.6-0.1,0.9-0.4,1.3
					C23,10,22.5,10.3,22,10.4c0.6,0.1,1.1,0.4,1.5,0.8c0.4,0.4,0.6,0.9,0.6,1.6c0,0.8-0.3,1.5-0.8,2.1c-0.6,0.4-1.3,0.7-2.3,0.7
					L17.6,15.5C17.6,15.7,17.6,15.5,17.6,15.5z M18.3,10.1h2.3c0.7,0,1.3-0.1,1.6-0.4c0.4-0.3,0.6-0.8,0.6-1.3
					c0-0.7-0.3-1.1-0.7-1.3c-0.4-0.3-0.9-0.4-1.8-0.4h-2.1C18.3,6.5,18.3,10.1,18.3,10.1z M18.3,10.8v4.1h2.6c0.7,0,1.3-0.1,1.8-0.6
					c0.4-0.4,0.7-0.8,0.7-1.5c0-0.6-0.1-1.1-0.6-1.5c-0.4-0.4-0.9-0.6-1.6-0.6C21.3,10.8,18.3,10.8,18.3,10.8z"/>
				<path fill="#F7F7F7" d="M30.6,15.5c0-0.3-0.1-0.4-0.1-0.7c0-0.1,0-0.4,0-0.6c-0.3,0.4-0.7,0.7-1.1,0.9c-0.4,0.3-0.9,0.4-1.5,0.4
					c-0.7,0-1.3-0.2-1.6-0.6s-0.6-0.8-0.6-1.5s0.3-1.3,0.8-1.6c0.6-0.4,1.3-0.6,2.3-0.6h1.6v-0.9c0-0.6-0.1-0.9-0.6-1.3
					c-0.4-0.3-0.8-0.4-1.3-0.4c-0.6,0-1.1,0.2-1.3,0.4c-0.3,0.3-0.6,0.7-0.6,1.1H26l0,0c0-0.6,0.3-1.1,0.7-1.5s1.3-0.7,2.1-0.7
					s1.5,0.3,1.8,0.7c0.6,0.4,0.7,0.9,0.7,1.8v3.6c0,0.3,0,0.6,0,0.7s0.1,0.6,0.1,0.7L30.6,15.5L30.6,15.5z M27.8,15
					c0.6,0,1.1-0.2,1.5-0.4c0.4-0.3,0.8-0.7,0.9-1.1V12h-1.6c-0.7,0-1.3,0.1-1.8,0.4c-0.4,0.3-0.7,0.7-0.7,1.3
					c0,0.4,0.1,0.7,0.4,0.9C27.1,14.8,27.5,15,27.8,15z"/>
				<path fill="#F7F7F7" d="M36.7,9h-0.6c-0.6,0-0.9,0.1-1.3,0.4c-0.3,0.3-0.6,0.7-0.7,1.3v5.1h-0.8V8.3h0.6L34,9.5v0.1
					c0.3-0.4,0.6-0.8,0.8-1.1s0.8-0.4,1.3-0.4c0.1,0,0.1,0,0.3,0c0.3,0.1,0.3,0.1,0.4,0.1L36.7,9z"/>
				<path fill="#F7F7F7" d="M43.8,12.2c0,1.1-0.3,1.8-0.7,2.6c-0.6,0.7-1.3,0.9-2.1,0.9c-0.6,0-0.9-0.2-1.3-0.3
					c-0.4-0.2-0.7-0.6-0.9-0.9l-0.1,1.1h-0.6V5h0.8v4.3c0.3-0.4,0.6-0.7,0.9-0.9c0.4-0.3,0.8-0.3,1.3-0.3c0.8,0,1.5,0.4,2.1,1.1
					C43.8,10,43.8,10.9,43.8,12.2L43.8,12.2z M43.1,12c0-0.9-0.1-1.6-0.6-2.3c-0.4-0.6-0.9-0.8-1.6-0.8c-0.6,0-0.9,0.1-1.3,0.4
					c-0.4,0.3-0.6,0.7-0.8,1.1v3.3c0.1,0.4,0.4,0.8,0.8,0.9c0.4,0.3,0.8,0.4,1.3,0.4c0.7,0,1.3-0.3,1.6-0.8
					C42.9,13.7,43.1,13,43.1,12L43.1,12z"/>
				<path fill="#F7F7F7" d="M46.6,6.2h-0.8V5.1h0.8V6.2z M46.6,15.5h-0.8V8.2h0.8V15.5z"/>
				<path fill="#F7F7F7" d="M51.5,15.7c-0.9,0-1.6-0.3-2.3-0.9c-0.6-0.7-0.9-1.5-0.9-2.6v-0.4c0-1.1,0.3-1.8,0.9-2.6
					c0.6-0.7,1.3-1.1,2.2-1.1c0.9,0,1.6,0.3,2.2,0.8c0.6,0.7,0.8,1.3,0.8,2.3v0.7h-5.2v0.2c0,0.8,0.3,1.5,0.7,2.1s0.9,0.8,1.8,0.8
					c0.6,0,0.9-0.2,1.3-0.3c0.3-0.1,0.7-0.3,0.9-0.6l0.4,0.6c-0.3,0.3-0.7,0.6-1.1,0.7C52.6,15.5,52.2,15.7,51.5,15.7z M51.5,8.8
					c-0.6,0-1.1,0.3-1.5,0.7s-0.7,1.1-0.7,1.8l0,0h4.2V11c0-0.7-0.1-1.3-0.6-1.6C52.6,9,52.1,8.8,51.5,8.8z"/>
				<path fill="#F7F7F7" d="M66.2,12.5L66.2,12.5c-0.1,1.1-0.4,1.8-1,2.3c-0.7,0.6-1.5,0.8-2.5,0.8c-1,0-1.9-0.4-2.5-1.3
					s-0.9-1.8-0.9-3.1V9.8c0-1.3,0.3-2.3,0.9-3.1s1.5-1.3,2.5-1.3s1.9,0.3,2.5,0.8c0.5,0.6,1,1.3,1,2.3l0,0h-0.8
					c-0.1-0.8-0.5-1.5-0.8-1.8C64.3,6.3,63.6,6,62.8,6s-1.5,0.3-2,0.9c-0.6,0.7-0.8,1.5-0.8,2.6v1.6c0,1.1,0.3,1.8,0.8,2.6
					c0.5,0.7,1.3,0.9,2,0.9s1.5-0.3,1.9-0.7c0.4-0.4,0.7-1.1,0.8-1.8h0.8C66.2,12,66.2,12.5,66.2,12.5z"/>
				<path fill="#F7F7F7" d="M72.8,15.5c0-0.3-0.1-0.4-0.1-0.7c0-0.1,0-0.4,0-0.6c-0.3,0.4-0.7,0.7-1,0.9c-0.4,0.3-1,0.4-1.5,0.4
					c-0.7,0-1.3-0.2-1.6-0.6c-0.4-0.4-0.5-0.8-0.5-1.5s0.3-1.3,0.8-1.6c0.6-0.4,1.4-0.6,2.3-0.6h1.6v-0.9c0-0.6-0.1-0.9-0.5-1.3
					c-0.5-0.3-0.8-0.4-1.4-0.4c-0.5,0-1,0.2-1.3,0.4c-0.3,0.3-0.6,0.7-0.6,1.1h-0.7l0,0c0-0.6,0.3-1.1,0.7-1.5s1.3-0.7,2.1-0.7
					c0.8,0,1.5,0.3,1.8,0.7c0.5,0.3,0.7,0.8,0.7,1.6v3.6c0,0.3,0,0.6,0,0.7s0.1,0.6,0.1,0.7h-0.8V15.5L72.8,15.5z M70.1,15
					c0.5,0,1-0.2,1.5-0.4c0.5-0.3,0.8-0.7,1-1.1V12h-1.6c-0.7,0-1.3,0.1-1.8,0.4c-0.4,0.3-0.7,0.7-0.7,1.3c0,0.4,0.1,0.7,0.4,0.9
					C69.2,14.8,69.6,15,70.1,15z"/>
				<path fill="#F7F7F7" d="M76.3,15.5h-0.8V5h0.8V15.5z"/>
				<path fill="#F7F7F7" d="M81.4,15c0.6,0,1-0.2,1.4-0.4c0.4-0.3,0.7-0.7,0.7-1.3h0.7l0,0c0,0.7-0.3,1.3-0.8,1.6
					c-0.5,0.4-1.3,0.7-1.8,0.7c-0.9,0-1.8-0.4-2.3-1.1c-0.5-0.7-0.8-1.5-0.8-2.6v-0.3c0-1.1,0.3-1.8,0.8-2.6
					c0.6-0.7,1.4-1.1,2.3-1.1c0.8,0,1.5,0.3,2.1,0.7c0.5,0.4,0.8,1.1,0.8,1.8l0,0h-0.7c0-0.6-0.1-1.1-0.5-1.3
					c-0.5-0.4-0.8-0.6-1.5-0.6c-0.8,0-1.3,0.3-1.8,0.8c-0.5,0.6-0.7,1.3-0.7,2.2V12c0,0.8,0.1,1.6,0.6,2.2
					C80.1,14.7,80.6,15,81.4,15z"/>
				<path fill="#F7F7F7" d="M90.6,14.3c-0.3,0.4-0.6,0.8-1,0.9c-0.5,0.3-0.8,0.4-1.3,0.4c-0.8,0-1.3-0.3-1.8-0.8
					c-0.4-0.6-0.7-1.3-0.7-2.4V8.3h0.8v4.2c0,0.9,0.1,1.5,0.5,1.8c0.3,0.4,0.7,0.6,1.3,0.6c0.5,0,1-0.2,1.5-0.4
					c0.4-0.3,0.7-0.7,0.8-1.1V8.2h0.8v7.3h-0.7L90.6,14.3z"/>
				<path fill="#F7F7F7" d="M94.3,15.5h-0.8V5h0.8V15.5z"/>
				<path fill="#F7F7F7" d="M101.3,15.5c0-0.3-0.1-0.4-0.1-0.7c0-0.1,0-0.4,0-0.6c-0.3,0.4-0.7,0.7-1,0.9c-0.5,0.3-1,0.4-1.5,0.4
					c-0.7,0-1.3-0.2-1.6-0.6c-0.4-0.4-0.6-0.8-0.6-1.5s0.3-1.3,0.8-1.6c0.5-0.4,1.3-0.6,2.3-0.6h1.6v-0.9c0-0.6-0.1-0.9-0.5-1.3
					c-0.5-0.3-0.8-0.4-1.3-0.4c-0.6,0-1.1,0.2-1.4,0.4s-0.5,0.7-0.5,1.1h-0.7l0,0c0-0.6,0.3-1.1,0.7-1.5c0.4-0.4,1.3-0.7,2-0.7
					c0.8,0,1.5,0.3,1.9,0.7c0.5,0.4,0.7,0.9,0.7,1.8v3.6c0,0.3,0,0.6,0,0.7s0.1,0.6,0.1,0.7L101.3,15.5L101.3,15.5z M98.6,15
					c0.5,0,1-0.2,1.5-0.4c0.4-0.3,0.8-0.7,0.9-1.1V12h-1.6c-0.7,0-1.3,0.1-1.8,0.4c-0.5,0.3-0.7,0.7-0.7,1.3c0,0.4,0.1,0.7,0.5,0.9
					C97.8,14.8,98.2,15,98.6,15z"/>
				<path fill="#F7F7F7" d="M105.3,6.4v1.8h1.6v0.7h-1.6v4.8c0,0.6,0.1,0.8,0.3,0.9c0.1,0.1,0.5,0.3,0.7,0.3c0.1,0,0.3,0,0.4,0
					c0.1,0,0.3,0,0.5,0l0.1,0.6c-0.1,0-0.3,0.1-0.6,0.1c-0.3,0-0.4,0-0.5,0c-0.5,0-1-0.1-1.3-0.6c-0.3-0.3-0.5-0.8-0.5-1.5V8.8h-1.3
					V8.1h1.3V6.3L105.3,6.4C105.3,6.3,105.3,6.4,105.3,6.4z"/>
				<path fill="#F7F7F7" d="M108.1,11.7c0-1.1,0.3-1.8,0.8-2.6s1.3-1.1,2.3-1.1c0.9,0,1.8,0.4,2.3,1.1c0.6,0.7,0.8,1.6,0.8,2.6V12
					c0,1.1-0.3,1.8-0.8,2.6c-0.5,0.7-1.3,1.1-2.3,1.1c-1,0-1.8-0.4-2.3-1.1c-0.5-0.7-0.8-1.6-0.8-2.6V11.7z M108.8,12
					c0,0.8,0.3,1.5,0.7,2.2c0.4,0.6,1,0.8,1.8,0.8c0.8,0,1.3-0.3,1.8-0.8c0.4-0.6,0.7-1.3,0.7-2.2v-0.3c0-0.8-0.3-1.5-0.7-2.2
					c-0.5-0.6-1.1-0.8-1.8-0.8c-0.8,0-1.4,0.3-1.8,0.8c-0.5,0.6-0.7,1.3-0.7,2.2V12z"/>
				<path fill="#F7F7F7" d="M119.4,9h-0.5c-0.6,0-1,0.1-1.3,0.4c-0.3,0.3-0.6,0.7-0.7,1.3v5.1h-0.8V8.3h0.7v1.3v0.1
					c0.3-0.4,0.6-0.8,0.8-1.1s0.8-0.4,1.3-0.4c0.1,0,0.1,0,0.3,0s0.1,0,0.3,0L119.4,9z"/>
			</g>
		</g>
		<g id="display">
			<rect y="20.4" fill="#F7F7F7" width="345.9" height="123.2"/>
			<g>
				<path fill="#303030" d="M260.7,79c0,3.1-0.7,5.6-2.2,7.2c-1.4,1.6-3.4,2.5-5.9,2.5c-2.5,0-4.3-0.8-5.8-2.5
					c-1.5-1.6-2.2-4-2.2-7.2v-5.6c0-3.1,0.7-5.5,2.2-7.2c1.5-1.6,3.3-2.5,5.8-2.5s4.4,0.8,5.9,2.5s2.2,4.1,2.2,7.2V79z M256.6,72.9
					c0-2-0.3-3.3-0.9-4.3c-0.7-0.9-1.6-1.5-2.8-1.5c-1.3,0-2.2,0.6-2.9,1.5c-0.7,0.9-0.9,2.4-0.9,4.3v6.7c0,2,0.3,3.5,0.9,4.5
					c0.7,0.9,1.6,1.5,2.9,1.5s2.2-0.6,2.8-1.5c0.6-1,0.9-2.5,0.9-4.5V72.9z"/>
				<path fill="#303030" d="M269,88.4h-4v-4h4V88.4z"/>
				<path fill="#303030" d="M287.4,79.7h3.1v3.3h-3.1v5.5h-4.1v-5.5H273l-0.1-2.4l10.3-16.3h4.2L287.4,79.7L287.4,79.7z M276.9,79.7
					h6.5v-9.8h-0.1l-0.3,0.7L276.9,79.7z"/>
				<path fill="#303030" d="M306.7,79.7h3.1v3.3h-3.1v5.5h-4.1v-5.5h-10.4l-0.1-2.4l10.3-16.3h4.2L306.7,79.7L306.7,79.7z
					 M296.2,79.7h6.5v-9.8h-0.2l-0.3,0.7L296.2,79.7z"/>
				<path fill="#303030" d="M326.1,79.7h3.1v3.3h-3.1v5.5H322v-5.5h-10.3l-0.1-2.4l10.3-16.3h4.2V79.7z M315.5,79.7h6.5v-9.8H322
					l-0.3,0.7L315.5,79.7z"/>
			</g>
		</g>
		<g id="extension">
			<rect y="143.1" fill="#2B2B2B" width="27.2" height="13.5"/>
			<g>
				<path fill="#FFFFFF" d="M10.3,150.1c0,0.5-0.1,1-0.4,1.5c-0.3,0.4-0.7,0.5-1.1,0.5c-0.3,0-0.6,0-0.8-0.1s-0.4-0.3-0.6-0.4v2.2
					H6.9v-5.6h0.4v0.7c0.1-0.3,0.3-0.4,0.6-0.5c0.3-0.2,0.4-0.2,0.8-0.2c0.6,0,0.8,0.2,1.1,0.6C10.2,148.9,10.3,149.4,10.3,150.1
					L10.3,150.1z M9.8,149.9c0-0.6-0.1-0.9-0.3-1.3c-0.3-0.3-0.6-0.6-0.9-0.6c-0.3,0-0.6,0.2-0.7,0.3c-0.1,0.2-0.3,0.3-0.4,0.6v1.9
					c0.1,0.3,0.3,0.4,0.4,0.6c0.1,0.1,0.4,0.1,0.7,0.1c0.4,0,0.7-0.1,0.9-0.4C9.8,150.9,9.8,150.5,9.8,149.9L9.8,149.9z"/>
				<path fill="#FFFFFF" d="M11,149.9c0-0.6,0.1-1.1,0.6-1.5c0.4-0.4,0.8-0.6,1.3-0.6c0.6,0,0.9,0.2,1.3,0.6
					c0.4,0.4,0.6,0.8,0.6,1.5v0.2c0,0.5-0.1,1-0.6,1.5c-0.5,0.4-0.8,0.5-1.3,0.5s-0.9-0.1-1.3-0.5C11.2,151.2,11,150.6,11,149.9
					L11,149.9z M11.6,149.9c0,0.4,0.1,0.8,0.4,1.3c0.3,0.4,0.6,0.6,0.9,0.6c0.4,0,0.8-0.1,0.9-0.6c0.3-0.3,0.4-0.7,0.4-1.3v-0.1
					c0-0.4-0.1-0.8-0.4-1.3c-0.3-0.3-0.6-0.6-0.9-0.6c-0.4,0-0.8,0.1-0.9,0.6C11.8,149,11.6,149.4,11.6,149.9L11.6,149.9z"/>
				<path fill="#FFFFFF" d="M16.4,150.6l0.1,0.7l0,0l0.1-0.7l0.8-2.8h0.4l0.8,2.8l0.1,0.7l0,0l0.1-0.7l0.7-2.8H20l-1.3,4.1h0.1
					l-0.9-2.8l-0.1-0.7l0,0l-0.1,0.7l-0.9,2.8h-0.4l-1.3-4.1h0.4L16.4,150.6z"/>
			</g>
			<rect y="156.5" fill="#2B2B2B" width="27.2" height="13.5"/>
			<g>
				<path fill="#EE1D3E" d="M9.3,161.6H9c-0.3,0-0.6,0.2-0.7,0.3c-0.2,0.1-0.3,0.5-0.4,0.7v2.8H7.3v-4.1h0.4v0.7l0,0
					c0.1-0.3,0.3-0.5,0.4-0.6c0.1-0.2,0.4-0.3,0.7-0.3H9h0.1L9.3,161.6z"/>
				<path fill="#EE1D3E" d="M9.7,163.3c0-0.6,0.1-1.1,0.6-1.5c0.4-0.4,0.8-0.6,1.3-0.6c0.6,0,0.9,0.2,1.3,0.6
					c0.4,0.4,0.6,0.8,0.6,1.5v0.1c0,0.6-0.1,1.1-0.6,1.5c-0.4,0.5-0.8,0.6-1.3,0.6c-0.6,0-0.9-0.1-1.3-0.6
					C9.8,164.5,9.7,163.9,9.7,163.3L9.7,163.3z M10.1,163.3c0,0.4,0.1,0.8,0.4,1.3c0.3,0.4,0.6,0.6,0.9,0.6c0.4,0,0.8-0.1,0.9-0.6
					c0.3-0.3,0.4-0.7,0.4-1.3v-0.1c0-0.5-0.1-0.8-0.4-1.3c-0.3-0.3-0.6-0.6-0.9-0.6c-0.4,0-0.8,0.1-0.9,0.6
					C10.3,162.4,10.1,162.8,10.1,163.3L10.1,163.3z"/>
				<path fill="#EE1D3E" d="M14,163.3c0-0.6,0.1-1.1,0.6-1.5c0.4-0.4,0.8-0.6,1.3-0.6c0.6,0,0.9,0.2,1.3,0.6
					c0.4,0.4,0.6,0.8,0.6,1.5v0.1c0,0.6-0.1,1.1-0.6,1.5c-0.4,0.5-0.8,0.6-1.3,0.6c-0.6,0-0.9-0.1-1.3-0.6
					C14.1,164.5,14,163.9,14,163.3L14,163.3z M14.4,163.3c0,0.4,0.1,0.8,0.4,1.3c0.3,0.4,0.6,0.6,0.9,0.6c0.4,0,0.8-0.1,0.9-0.6
					c0.3-0.3,0.4-0.7,0.4-1.3v-0.1c0-0.5-0.1-0.8-0.4-1.3c-0.3-0.3-0.6-0.6-0.9-0.6c-0.4,0-0.8,0.1-0.9,0.6
					C14.7,162.4,14.4,162.8,14.4,163.3L14.4,163.3z"/>
				<path fill="#EE1D3E" d="M19.2,160.1v1.1h0.9v0.4h-0.9v2.8c0,0.3,0,0.5,0.1,0.6c0.1,0.1,0.3,0.1,0.4,0.1s0.1,0,0.3,0
					c0.1,0,0.1,0,0.3,0v0.3c-0.1,0-0.1,0-0.3,0.1c-0.1,0-0.3,0-0.3,0c-0.3,0-0.6-0.1-0.7-0.3c-0.2-0.1-0.3-0.4-0.3-0.8v-2.8h-0.7
					v-0.5h0.6v-1L19.2,160.1L19.2,160.1z"/>
			</g>
			<rect y="170" fill="#2B2B2B" width="27.2" height="13.5"/>
			<g>
				<path fill="#FFFFFF" d="M7.8,178.9v-3.7H7.2v-0.4h0.7V174c0-0.4,0.1-0.7,0.3-0.9c0.3-0.3,0.6-0.3,0.8-0.3c0.1,0,0.1,0,0.3,0
					c0.1,0,0.1,0,0.3,0v0.4H9.3c0,0-0.1,0-0.3,0c-0.3,0-0.4,0.1-0.6,0.3c-0.1,0.1-0.1,0.4-0.1,0.7v0.6h0.9v0.4H8.4v3.7L7.8,178.9
					L7.8,178.9L7.8,178.9z"/>
				<path fill="#FFFFFF" d="M12.6,178.9c0-0.2,0-0.3,0-0.5c0-0.1,0-0.1,0-0.3c-0.1,0.3-0.4,0.5-0.6,0.6c-0.3,0.2-0.6,0.3-0.8,0.3
					c-0.4,0-0.7-0.1-0.9-0.3c-0.3-0.3-0.3-0.6-0.3-0.8c0-0.4,0.1-0.7,0.6-0.9c0.3-0.3,0.8-0.3,1.3-0.3h0.9v-0.6
					c0-0.3-0.1-0.5-0.3-0.7c-0.1-0.1-0.4-0.3-0.8-0.3c-0.3,0-0.6,0.2-0.8,0.3c-0.3,0.2-0.3,0.4-0.3,0.6h-0.4l0,0
					c0-0.3,0.1-0.6,0.4-0.8c0.3-0.3,0.7-0.4,1.1-0.4s0.8,0.1,1.1,0.4c0.3,0.3,0.4,0.6,0.4,0.9v2.1c0,0.2,0,0.3,0,0.4
					c0,0.1,0,0.3,0.1,0.5h-0.8L12.6,178.9L12.6,178.9z M11.3,178.4c0.3,0,0.6-0.1,0.8-0.3c0.3-0.1,0.4-0.4,0.6-0.5v-0.8h-0.9
					c-0.4,0-0.7,0.2-0.9,0.3c-0.3,0.2-0.4,0.4-0.4,0.7s0.1,0.5,0.3,0.6C10.8,178.4,11,178.4,11.3,178.4z"/>
				<path fill="#FFFFFF" d="M15.8,178.4c0.3,0,0.6-0.1,0.8-0.3c0.3-0.1,0.4-0.4,0.4-0.7h0.4l0,0c0,0.4-0.1,0.7-0.4,0.9
					c-0.3,0.3-0.7,0.5-1.1,0.5c-0.6,0-0.9-0.2-1.3-0.6c-0.3-0.4-0.4-0.8-0.4-1.5v-0.2c0-0.5,0.1-1,0.4-1.5c0.3-0.4,0.7-0.5,1.3-0.5
					c0.4,0,0.8,0.1,1.1,0.4c0.3,0.3,0.4,0.6,0.4,1.1l0,0h-0.4c0-0.3-0.1-0.6-0.3-0.8c-0.3-0.2-0.6-0.3-0.8-0.3
					c-0.4,0-0.8,0.1-0.9,0.4c-0.3,0.3-0.3,0.7-0.3,1.3v0.2c0,0.6,0.1,0.8,0.3,1.3C14.9,178.3,15.3,178.4,15.8,178.4z"/>
				<path fill="#FFFFFF" d="M19.1,173.6v1.1H20v0.4h-0.9v2.8c0,0.3,0,0.5,0.1,0.6c0.1,0.1,0.3,0.1,0.4,0.1s0.1,0,0.3,0
					c0.1,0,0.1,0,0.3,0v0.3c-0.1,0-0.1,0-0.3,0.1c-0.1,0-0.3,0-0.3,0c-0.3,0-0.6-0.1-0.7-0.3c-0.2-0.1-0.3-0.4-0.3-0.8v-2.8H18v-0.5
					h0.7v-1L19.1,173.6L19.1,173.6z"/>
			</g>
			<rect y="183.3" fill="#2B2B2B" width="27.2" height="13.5"/>
			<g>
				<path fill="#FFFFFF" d="M8.4,188.4H8.2c-0.3,0-0.6,0.2-0.7,0.3c-0.1,0.2-0.3,0.4-0.4,0.7v2.9H6.5v-4.1h0.4v0.7l0,0
					c0.1-0.3,0.3-0.4,0.4-0.5c0.1-0.2,0.4-0.3,0.7-0.3h0.1h0.1L8.4,188.4z"/>
				<path fill="#FFFFFF" d="M11.7,192.1c0-0.1,0-0.3,0-0.4c0-0.2,0-0.2,0-0.3c-0.1,0.3-0.4,0.4-0.6,0.5c-0.3,0.2-0.6,0.3-0.8,0.3
					c-0.4,0-0.7-0.1-0.9-0.3c-0.3-0.3-0.3-0.5-0.3-0.8c0-0.5,0.1-0.7,0.6-1c0.3-0.3,0.8-0.3,1.3-0.3h0.9v-0.5c0-0.3-0.1-0.6-0.3-0.7
					c-0.1-0.1-0.4-0.3-0.8-0.3c-0.3,0-0.6,0.2-0.8,0.3c-0.3,0.2-0.6,0.2-0.6,0.5H9.1l0,0c0-0.3,0.1-0.6,0.4-0.8
					c0.3-0.3,0.7-0.4,1.1-0.4c0.4,0,0.8,0.1,1.1,0.4s0.4,0.6,0.4,0.9v2.1c0,0.2,0,0.3,0,0.4c0,0.1,0,0.3,0.1,0.4h-0.6
					C11.7,192.3,11.7,192.1,11.7,192.1z M10.2,191.7c0.3,0,0.6-0.2,0.8-0.3c0.3-0.2,0.4-0.5,0.6-0.6v-0.8h-0.8
					c-0.4,0-0.7,0.1-0.9,0.3c-0.3,0.1-0.4,0.4-0.4,0.7s0.1,0.5,0.3,0.6C9.8,191.7,9.9,191.7,10.2,191.7z"/>
				<path fill="#FFFFFF" d="M13.8,188.1v0.7c0.1-0.3,0.3-0.4,0.6-0.6c0.3-0.1,0.6-0.3,0.8-0.3c0.4,0,0.8,0.2,0.9,0.5
					c0.3,0.3,0.4,0.7,0.4,1.3v2.4h-0.4v-2.4c0-0.5-0.1-0.8-0.3-1c-0.2-0.1-0.4-0.3-0.7-0.3s-0.6,0.2-0.8,0.3
					c-0.1,0.2-0.4,0.5-0.4,0.7v2.8h-0.6v-4.1L13.8,188.1L13.8,188.1z"/>
				<path fill="#FFFFFF" d="M17.4,190.1c0-0.7,0.1-1.3,0.4-1.5c0.3-0.5,0.7-0.6,1.1-0.6c0.3,0,0.6,0,0.7,0.1
					c0.3,0.2,0.4,0.3,0.6,0.6v-2.4h0.4v5.8h-0.4v-0.5c-0.1,0.3-0.3,0.4-0.6,0.5c-0.3,0.2-0.4,0.2-0.8,0.2c-0.6,0-0.8-0.2-1.1-0.6
					C17.6,191.4,17.4,190.8,17.4,190.1L17.4,190.1z M17.8,190.2c0,0.5,0.1,0.9,0.3,1.3c0.1,0.3,0.6,0.4,0.9,0.4c0.3,0,0.6,0,0.7-0.1
					c0.1-0.1,0.4-0.3,0.4-0.6v-1.8c-0.1-0.3-0.3-0.5-0.4-0.6c-0.1-0.2-0.4-0.3-0.7-0.3c-0.4,0-0.7,0.1-0.9,0.6
					C17.9,189.1,17.8,189.6,17.8,190.2L17.8,190.2z"/>
			</g>
			<rect y="196.8" fill="#2B2B2B" width="27.2" height="13.5"/>
			<g>
				<path fill="#FFFFFF" d="M9.5,205.4H9.1v-5.8h0.4V205.4z"/>
				<path fill="#FFFFFF" d="M10.6,203.4c0-0.5,0.1-1,0.6-1.5c0.4-0.4,0.8-0.5,1.3-0.5c0.6,0,0.9,0.1,1.3,0.5
					c0.4,0.5,0.6,0.8,0.6,1.5v0.2c0,0.6-0.1,1.1-0.6,1.5c-0.4,0.4-0.8,0.6-1.3,0.6c-0.6,0-0.9-0.1-1.3-0.6
					C10.8,204.6,10.6,204.1,10.6,203.4L10.6,203.4z M11,203.6c0,0.4,0.1,0.8,0.4,1.3c0.3,0.4,0.6,0.6,0.9,0.6c0.4,0,0.8-0.1,0.9-0.6
					c0.3-0.3,0.4-0.7,0.4-1.3v-0.2c0-0.4-0.1-0.8-0.4-1.3c-0.3-0.3-0.6-0.5-0.9-0.5c-0.4,0-0.8,0.1-0.9,0.5
					C11.3,202.6,11,203,11,203.6L11,203.6z"/>
				<path fill="#FFFFFF" d="M14.9,203.6c0-0.7,0.1-1.3,0.4-1.5c0.3-0.4,0.7-0.6,1.3-0.6c0.3,0,0.6,0,0.8,0.1
					c0.3,0.2,0.4,0.3,0.6,0.6v-0.7h0.4v4.1c0,0.5-0.1,0.9-0.4,1.3c-0.3,0.3-0.7,0.4-1.3,0.4c-0.1,0-0.4,0-0.7-0.1
					c-0.3,0-0.4-0.1-0.6-0.1l0.1-0.5c0.1,0.2,0.3,0.2,0.6,0.2c0.1,0,0.4,0,0.6,0c0.4,0,0.7-0.2,0.9-0.4c0.1-0.3,0.3-0.6,0.3-0.9
					v-0.6c-0.1,0.3-0.3,0.4-0.6,0.6c-0.3,0.2-0.4,0.2-0.7,0.2c-0.6,0-0.8-0.2-1.1-0.6C15.1,204.6,14.9,204.2,14.9,203.6L14.9,203.6z
					 M15.3,203.6c0,0.6,0.1,0.8,0.3,1.3c0.1,0.3,0.6,0.4,0.9,0.4c0.3,0,0.6,0,0.7-0.1c0.1-0.2,0.4-0.3,0.4-0.6v-1.8
					c-0.1-0.3-0.3-0.4-0.4-0.6c-0.1-0.1-0.4-0.3-0.7-0.3c-0.4,0-0.7,0.1-0.9,0.6C15.3,202.8,15.3,203,15.3,203.6L15.3,203.6z"/>
			</g>
			<rect y="210" fill="#2B2B2B" width="27.2" height="13.5"/>
			<g>
				<g>
					<path fill="#FFFFFF" d="M13.8,218.9c-0.6,0-0.9-0.1-1.3-0.5c-0.3-0.5-0.6-0.8-0.6-1.5v-0.3c0-0.6,0.1-1.1,0.6-1.5
						c0.4-0.5,0.7-0.6,1.3-0.6s0.9,0.2,1.3,0.5c0.3,0.3,0.4,0.7,0.4,1.3v0.4h-3v0.2c0,0.4,0.1,0.8,0.4,1.1c0.3,0.3,0.6,0.4,0.9,0.4
						c0.3,0,0.6,0,0.7-0.2c0.1-0.1,0.4-0.1,0.6-0.3l0.1,0.3c-0.1,0.2-0.4,0.3-0.6,0.5C14.4,218.6,14.1,218.9,13.8,218.9z
						 M13.8,215.1c-0.3,0-0.7,0.1-0.8,0.4c-0.3,0.3-0.4,0.6-0.4,1l0,0h2.4v-0.2c0-0.4-0.1-0.7-0.3-0.9
						C14.3,215.2,14,215.1,13.8,215.1z"/>
				</g>
			</g>
			<rect y="223.5" fill="#2B2B2B" width="27.2" height="13.5"/>
			<g>
				<path fill="#FFFFFF" d="M14.4,230.4c0,0.5-0.1,1-0.4,1.5c-0.3,0.4-0.7,0.5-1.1,0.5c-0.3,0-0.6,0-0.8-0.1s-0.4-0.3-0.6-0.4v2.2
					h-0.4v-5.6h0.4v0.7c0.1-0.3,0.3-0.4,0.6-0.6c0.3-0.2,0.4-0.2,0.8-0.2c0.6,0,0.8,0.2,1.1,0.6C14.3,229.1,14.4,229.6,14.4,230.4
					L14.4,230.4z M14,230.1c0-0.5-0.1-0.9-0.3-1.3c-0.3-0.3-0.6-0.5-0.9-0.5c-0.3,0-0.6,0.1-0.7,0.3c-0.1,0.1-0.3,0.3-0.4,0.5v1.9
					c0.1,0.3,0.3,0.4,0.4,0.6c0.1,0.2,0.4,0.2,0.7,0.2c0.4,0,0.7-0.2,0.9-0.5C13.8,231.1,14,230.9,14,230.1L14,230.1z"/>
				<path fill="#FFFFFF" d="M16.1,227.1h-0.4v-0.7h0.4V227.1z M16.1,232.2h-0.4v-4.1h0.4V232.2z"/>
			</g>
		</g>
		<g id="soustavy">
			<g>
				<path fill="#EF4323" d="M8.3,122v-4.6h1.3c0.6,0,0.8,0.1,1.1,0.3c0.3,0.1,0.4,0.6,0.4,0.9c0,0.3,0,0.5-0.1,0.7s-0.3,0.3-0.6,0.4
					c0.3,0,0.6,0.1,0.7,0.4c0.1,0.3,0.3,0.5,0.3,0.7c0,0.4-0.1,0.7-0.4,0.9c-0.3,0.3-0.7,0.3-1.1,0.3L8.3,122
					C8.3,122.1,8.3,122,8.3,122z M8.7,119.4h1.1c0.3,0,0.6-0.1,0.8-0.3c0.1-0.1,0.3-0.4,0.3-0.7s-0.1-0.6-0.3-0.7
					c-0.1-0.1-0.4-0.3-0.8-0.3H8.7V119.4z M8.7,119.8v1.8h1.3c0.3,0,0.6-0.2,0.8-0.3c0.1-0.2,0.3-0.4,0.3-0.7s-0.1-0.6-0.3-0.7
					c-0.1-0.1-0.4-0.3-0.8-0.3L8.7,119.8L8.7,119.8z"/>
				<path fill="#EF4323" d="M12.8,122h-0.4v-4.6h0.4V122z"/>
				<path fill="#EF4323" d="M17.4,122H17l-2.6-3.9l0,0v3.9H14v-4.6h0.4l2.6,3.9l0,0v-3.9h0.4V122z"/>
				<path d="M28,122h-0.4v-4.2l-1.3,0.1v-0.3l1.5-0.3v4.6H28L28,122z"/>
				<path d="M32.8,120.2c0,0.5-0.1,1-0.4,1.3c-0.3,0.3-0.7,0.5-1.1,0.5c-0.4,0-0.8-0.1-1.1-0.5c-0.3-0.3-0.4-0.8-0.4-1.3v-1.1
					c0-0.6,0.1-1.1,0.4-1.3c0.3-0.3,0.7-0.6,1.1-0.6c0.4,0,0.8,0.1,1.1,0.6c0.3,0.4,0.4,0.8,0.4,1.3V120.2z M32.5,119.2
					c0-0.4-0.1-0.8-0.3-1.1s-0.4-0.4-0.8-0.4c-0.4,0-0.7,0.1-0.8,0.4c-0.1,0.3-0.3,0.7-0.3,1.1v1.1c0,0.4,0.1,0.8,0.3,1
					c0.1,0.3,0.4,0.5,0.8,0.5s0.7-0.2,0.8-0.5c0.1-0.3,0.3-0.7,0.3-1V119.2z"/>
				<path d="M35.3,122h-0.4v-4.2l-1.3,0.1v-0.3l1.5-0.3v4.6H35.3L35.3,122z"/>
				<path d="M40.2,120.2c0,0.5-0.1,1-0.4,1.3c-0.3,0.3-0.7,0.5-1.1,0.5c-0.4,0-0.8-0.1-1.1-0.5c-0.3-0.3-0.4-0.8-0.4-1.3v-1.1
					c0-0.6,0.1-1.1,0.4-1.3c0.3-0.3,0.7-0.6,1.1-0.6c0.4,0,0.8,0.1,1.1,0.6c0.3,0.4,0.4,0.8,0.4,1.3V120.2z M39.8,119.2
					c0-0.4-0.1-0.8-0.3-1.1c-0.1-0.3-0.4-0.4-0.8-0.4c-0.4,0-0.7,0.1-0.8,0.4c-0.1,0.3-0.3,0.7-0.3,1.1v1.1c0,0.4,0.1,0.8,0.3,1
					s0.4,0.5,0.8,0.5s0.7-0.2,0.8-0.5c0.1-0.3,0.3-0.7,0.3-1V119.2z"/>
				<path d="M44.3,122h-0.4v-4.2l-1.3,0.1v-0.3l1.5-0.3v4.6H44.3L44.3,122z"/>
				<path d="M49.1,120.2c0,0.5-0.1,1-0.4,1.3c-0.3,0.3-0.7,0.5-1.1,0.5c-0.4,0-0.8-0.1-1.1-0.5c-0.3-0.3-0.4-0.8-0.4-1.3v-1.1
					c0-0.6,0.1-1.1,0.4-1.3c0.3-0.3,0.7-0.6,1.1-0.6c0.4,0,0.8,0.1,1.1,0.6c0.3,0.4,0.4,0.8,0.4,1.3V120.2z M48.6,119.2
					c0-0.4-0.1-0.8-0.3-1.1s-0.4-0.4-0.8-0.4c-0.4,0-0.7,0.1-0.8,0.4c-0.1,0.3-0.3,0.7-0.3,1.1v1.1c0,0.4,0.1,0.8,0.3,1
					c0.1,0.3,0.4,0.5,0.8,0.5c0.4,0,0.7-0.2,0.8-0.5c0.1-0.3,0.3-0.7,0.3-1V119.2z"/>
				<path d="M51.6,122h-0.4v-4.2l-1.3,0.1v-0.3l1.5-0.3v4.6H51.6C51.6,122.1,51.6,122,51.6,122z"/>
				<path d="M56.3,120.2c0,0.5-0.1,1-0.4,1.3c-0.3,0.3-0.7,0.5-1.1,0.5c-0.4,0-0.8-0.1-1.1-0.5c-0.3-0.3-0.4-0.8-0.4-1.3v-1.1
					c0-0.6,0.1-1.1,0.4-1.3c0.3-0.3,0.7-0.6,1.1-0.6c0.4,0,0.8,0.1,1.1,0.6c0.3,0.4,0.4,0.8,0.4,1.3V120.2z M56,119.2
					c0-0.4-0.1-0.8-0.3-1.1s-0.4-0.4-0.8-0.4c-0.4,0-0.7,0.1-0.8,0.4c-0.1,0.3-0.3,0.7-0.3,1.1v1.1c0,0.4,0.1,0.8,0.3,1
					c0.1,0.3,0.4,0.5,0.8,0.5c0.4,0,0.7-0.2,0.8-0.5c0.1-0.3,0.3-0.7,0.3-1V119.2z"/>
				<path d="M59,122h-0.4v-4.2l-1.3,0.1v-0.3l1.5-0.3v4.6H59C59,122.1,59,122,59,122z"/>
				<path d="M63.8,120.2c0,0.5-0.1,1-0.5,1.3c-0.3,0.3-0.7,0.5-1,0.5s-0.8-0.1-1-0.5c-0.3-0.3-0.5-0.8-0.5-1.3v-1.1
					c0-0.6,0.1-1.1,0.5-1.3c0.3-0.3,0.7-0.6,1-0.6s0.8,0.1,1,0.6c0.3,0.4,0.5,0.8,0.5,1.3V120.2z M63.5,119.2c0-0.4-0.1-0.8-0.3-1.1
					c-0.1-0.3-0.5-0.4-0.8-0.4s-0.7,0.1-0.8,0.4c-0.1,0.3-0.3,0.7-0.3,1.1v1.1c0,0.4,0.1,0.8,0.3,1c0.1,0.3,0.5,0.5,0.8,0.5
					s0.7-0.2,0.8-0.5c0.1-0.3,0.3-0.7,0.3-1V119.2z"/>
			</g>
			<g>
				<path opacity="0.8" fill="#ED1A46" enable-background="new    " d="M8.3,114.9v-4.6h1.3c0.6,0,1.1,0.1,1.3,0.5
					c0.4,0.5,0.6,0.8,0.6,1.5v0.6c0,0.6-0.1,1.1-0.6,1.5s-0.8,0.6-1.3,0.6L8.3,114.9L8.3,114.9z M8.7,110.6v3.9h0.9
					c0.4,0,0.8-0.2,1.1-0.6c0.3-0.3,0.4-0.7,0.4-1.3v-0.5c0-0.5-0.1-0.8-0.4-1.3c-0.3-0.3-0.7-0.5-1.1-0.5H8.7
					C8.7,110.4,8.7,110.6,8.7,110.6z"/>
				<path opacity="0.8" fill="#ED1A46" enable-background="new    " d="M15.1,112.6h-2.2v1.8h2.6v0.3h-3v-4.6h2.8v0.3h-2.4v1.8h2.2
					L15.1,112.6L15.1,112.6z"/>
				<path opacity="0.8" fill="#ED1A46" enable-background="new    " d="M19.4,113.4L19.4,113.4c0,0.6-0.1,0.8-0.6,1.1
					c-0.4,0.3-0.7,0.4-1.3,0.4s-0.9-0.1-1.3-0.6c-0.3-0.4-0.4-0.8-0.4-1.5v-0.6c0-0.6,0.1-1.1,0.4-1.5c0.3-0.4,0.7-0.6,1.3-0.6
					s0.8,0.2,1.3,0.5c0.3,0.3,0.4,0.7,0.6,1l0,0H19c0-0.4-0.1-0.7-0.4-0.8c-0.3-0.1-0.6-0.3-0.9-0.3c-0.4,0-0.7,0.2-0.9,0.4
					c-0.3,0.3-0.4,0.7-0.4,1.3v0.8c0,0.5,0.1,0.9,0.4,1.3c0.3,0.3,0.6,0.4,0.9,0.4c0.4,0,0.7-0.2,0.9-0.3c0.3-0.2,0.4-0.5,0.4-0.9
					L19.4,113.4L19.4,113.4z"/>
				<path d="M28.3,114.9h-0.4v-4.2l-1.3,0.1v-0.3l1.5-0.3v4.6H28.3L28.3,114.9z"/>
				<path d="M33.1,113.2c0,0.6-0.1,1.1-0.4,1.3c-0.3,0.3-0.7,0.6-1.1,0.6c-0.4,0-0.8-0.1-1.1-0.6c-0.3-0.3-0.4-0.8-0.4-1.3v-1.1
					c0-0.5,0.1-1,0.4-1.3c0.3-0.3,0.7-0.6,1.1-0.6c0.4,0,0.8,0.2,1.1,0.6c0.3,0.4,0.4,0.8,0.4,1.3V113.2z M32.6,112.1
					c0-0.5-0.1-0.8-0.3-1.1c-0.1-0.3-0.4-0.4-0.8-0.4c-0.4,0-0.7,0.1-0.8,0.4c-0.1,0.3-0.3,0.7-0.3,1.1v1c0,0.5,0.1,0.8,0.3,1.1
					c0.1,0.3,0.4,0.4,0.8,0.4c0.4,0,0.7-0.1,0.8-0.4c0.1-0.3,0.3-0.7,0.3-1.1V112.1z"/>
				<path d="M34.7,112.3h0.4c0.3,0,0.6-0.1,0.8-0.3c0.3-0.2,0.3-0.5,0.3-0.7s-0.1-0.5-0.3-0.7c-0.1-0.2-0.4-0.3-0.7-0.3
					s-0.6,0.1-0.7,0.3c-0.1,0.1-0.3,0.4-0.3,0.7h-0.4l0,0c0-0.4,0.1-0.7,0.4-0.9c0.3-0.3,0.6-0.4,0.9-0.4c0.4,0,0.7,0.1,0.9,0.3
					c0.3,0.1,0.4,0.5,0.4,0.9c0,0.3,0,0.4-0.1,0.6c-0.1,0.1-0.3,0.3-0.6,0.4c0.3,0.1,0.6,0.3,0.7,0.4c0.1,0.1,0.3,0.5,0.3,0.7
					c0,0.4-0.1,0.7-0.4,0.9s-0.6,0.4-0.9,0.4c-0.4,0-0.7-0.1-1.1-0.4c-0.4-0.3-0.4-0.6-0.4-0.9l0,0h0.4c0,0.3,0.1,0.5,0.3,0.7
					c0.1,0.1,0.4,0.3,0.8,0.3c0.3,0,0.6-0.2,0.8-0.3c0.3-0.2,0.3-0.4,0.3-0.7s-0.1-0.6-0.3-0.7c-0.1-0.1-0.4-0.3-0.8-0.3h-0.4l0,0
					L34.7,112.3L34.7,112.3L34.7,112.3z"/>
			</g>
			<g>
				<path fill="#EF4323" d="M11.7,133.6c0,0.6-0.1,1.1-0.6,1.5c-0.3,0.5-0.8,0.6-1.3,0.6c-0.6,0-0.9-0.1-1.3-0.6
					c-0.3-0.4-0.4-0.9-0.4-1.5v-0.7c0-0.6,0.1-1.1,0.6-1.5c0.3-0.4,0.8-0.6,1.3-0.6c0.6,0,0.9,0.2,1.3,0.6c0.3,0.4,0.6,0.8,0.6,1.5
					v0.7H11.7z M11.3,132.9c0-0.6-0.1-0.9-0.4-1.3c-0.3-0.3-0.6-0.4-1.1-0.4c-0.4,0-0.8,0.2-1.1,0.4c-0.3,0.3-0.4,0.7-0.4,1.3v0.8
					c0,0.6,0.1,0.9,0.4,1.3c0.3,0.3,0.6,0.4,1.1,0.4c0.4,0,0.8-0.1,1.1-0.4c0.3-0.3,0.4-0.7,0.4-1.3V132.9z"/>
				<path fill="#EF4323" d="M15.8,134.2L15.8,134.2c0,0.6-0.1,0.8-0.6,1.1c-0.4,0.3-0.7,0.4-1.3,0.4s-0.9-0.1-1.3-0.6
					c-0.3-0.4-0.4-0.8-0.4-1.5v-0.7c0-0.6,0.1-1.1,0.4-1.5c0.3-0.4,0.7-0.6,1.3-0.6s0.8,0.2,1.3,0.5c0.3,0.3,0.4,0.7,0.6,1l0,0h-0.4
					c0-0.4-0.1-0.7-0.4-0.8c-0.3-0.1-0.6-0.3-0.9-0.3c-0.4,0-0.7,0.1-0.9,0.4s-0.4,0.7-0.4,1.3v0.8c0,0.5,0.1,0.9,0.4,1.3
					c0.3,0.3,0.6,0.4,0.9,0.4c0.4,0,0.7-0.2,0.9-0.3c0.3-0.2,0.4-0.6,0.4-0.9L15.8,134.2L15.8,134.2z"/>
				<path fill="#EF4323" d="M19.8,131.4h-1.6v4.2h-0.4v-4.2h-1.5v-0.3h3.6C19.8,131.1,19.8,131.4,19.8,131.4z"/>
				<path d="M29,134h0.7v0.3H29v1.3h-0.4v-1.3h-2.2V134l2.2-3.3H29V134z M26.9,134h1.6v-2.6l0,0l-0.1,0.4L26.9,134z"/>
				<path d="M33.2,133.8c0,0.6-0.1,1.1-0.4,1.4c-0.3,0.3-0.7,0.6-1.1,0.6c-0.3,0-0.8-0.2-1.1-0.6c-0.3-0.3-0.4-0.8-0.4-1.4v-1.1
					c0-0.6,0.1-1.1,0.4-1.3c0.3-0.3,0.7-0.6,1.1-0.6c0.3,0,0.8,0.1,1.1,0.6c0.3,0.4,0.4,0.8,0.4,1.3V133.8z M32.8,132.7
					c0-0.4-0.1-0.8-0.3-1.1c-0.1-0.3-0.4-0.4-0.8-0.4c-0.4,0-0.7,0.1-0.8,0.4c-0.1,0.3-0.3,0.7-0.3,1.1v1.1c0,0.4,0.1,0.8,0.3,1.1
					c0.1,0.3,0.4,0.4,0.8,0.4s0.7-0.1,0.8-0.4c0.1-0.3,0.3-0.7,0.3-1.1V132.7z"/>
				<path d="M34.8,133.1h0.6c0.3,0,0.6-0.1,0.8-0.3c0.3-0.2,0.3-0.5,0.3-0.7s-0.1-0.5-0.3-0.7c-0.1-0.1-0.4-0.3-0.7-0.3
					s-0.6,0.1-0.7,0.3c-0.1,0.2-0.3,0.4-0.3,0.7H34l0,0c0-0.4,0.1-0.7,0.4-0.9c0.3-0.3,0.6-0.4,0.9-0.4s0.7,0.2,0.9,0.3
					c0.3,0.1,0.4,0.6,0.4,0.9c0,0.3,0,0.4-0.1,0.6c-0.1,0.2-0.3,0.3-0.6,0.4c0.3,0.1,0.6,0.3,0.7,0.4c0.1,0.2,0.3,0.5,0.3,0.7
					c0,0.4-0.1,0.7-0.4,0.9c-0.3,0.3-0.6,0.4-0.9,0.4c-0.4,0-0.7-0.1-1.1-0.4c-0.4-0.3-0.4-0.6-0.4-0.9l0,0h0.4
					c0,0.3,0.1,0.5,0.3,0.7c0.2,0.1,0.4,0.3,0.8,0.3c0.3,0,0.6-0.2,0.8-0.3c0.3-0.1,0.3-0.4,0.3-0.7s-0.1-0.6-0.3-0.7
					c-0.1-0.1-0.4-0.3-0.8-0.3h-0.4l0,0L34.8,133.1L34.8,133.1z"/>
			</g>
			<g>
				<path fill="#EF4323" d="M11.7,128.8h-0.4v-2.2H8.7v2.2H8.2v-4.6h0.4v2.2h2.6v-2.2h0.4V128.8z"/>
				<path fill="#EF4323" d="M15.5,126.7h-2.3v1.8h2.6v0.3h-2.8v-4.6h2.8v0.3h-2.6v1.8h2.2v0.4L15.5,126.7L15.5,126.7z"/>
				<path fill="#EF4323" d="M17.9,126.2l1.3-1.9h0.4l-1.5,2.2l1.6,2.3h-0.4l-1.3-2.1l-1.3,2.1h-0.4l1.6-2.3l-1.5-2.3h0.5L17.9,126.2
					z"/>
				<path d="M29,127.3h0.7v0.3H29v1.3h-0.4v-1.3h-2.2v-0.3l2.2-3.3H29V127.3z M26.9,127.3h1.8v-2.5l0,0l-0.1,0.4L26.9,127.3z"/>
				<path d="M33.1,126.7h-2.2v2.2h-0.4v-4.6h3v0.3h-2.6v1.8h2.2V126.7z"/>
				<path d="M36.3,127.6h-2.1l-0.4,1.3h-0.4l1.8-4.6h0.4l1.8,4.6h-0.4L36.3,127.6z M34.6,127.2h1.8l-1.1-2.4l0,0L34.6,127.2z"/>
			</g>
		</g>
		<rect x="347.9" y="20.4" fill="#2B2B2B" width="151.9" height="216.4"/>
		<rect x="346.9" y="20.4" fill="#C1C1C0" width="152.9" height="36.8"/>
		<g>
			<g>
				<path d="M363,47.3h-6.8l-1.5,4.1h-1.3l5.6-14.7h1l5.5,14.7h-1.3L363,47.3z M356.7,46.3h6l-3-8l0,0L356.7,46.3z"/>
				<path d="M368.9,40.6l0.1,1.8c0.5-0.7,0.8-1.3,1.4-1.5c0.6-0.4,1.4-0.6,2.2-0.6c1.3,0,2.1,0.4,2.8,1.1c0.7,0.6,1,1.8,1,3.3v6.7
					H375v-6.7c0-1.3-0.3-2.2-0.7-2.8c-0.4-0.6-1-0.8-2-0.8c-0.8,0-1.5,0.3-2,0.7c-0.6,0.4-1,1.1-1.3,1.8v7.6h-1.3V40.4h1.2V40.6
					L368.9,40.6z"/>
				<path d="M385.9,48.7c0-0.6-0.3-0.9-0.7-1.3c-0.5-0.4-1.3-0.7-2.3-0.9c-1.4-0.3-2.3-0.7-2.9-1.1c-0.7-0.4-1-1.1-1-1.8
					s0.5-1.5,1.1-2.2c0.7-0.6,1.6-0.8,2.9-0.8s2.2,0.3,3,0.9c0.7,0.6,1,1.3,1,2.3l0,0h-1c0-0.6-0.3-1.1-0.8-1.6
					c-0.5-0.4-1.3-0.7-2-0.7s-1.5,0.1-2,0.6c-0.5,0.4-0.7,0.8-0.7,1.3c0,0.6,0.2,0.9,0.6,1.3c0.5,0.3,1,0.7,2.3,0.8
					c1.4,0.3,2.3,0.7,2.9,1.3s1,1.3,1,2.1c0,0.9-0.5,1.6-1,2.2c-0.7,0.6-1.8,0.8-3,0.8c-1.4,0-2.3-0.3-3.1-0.9s-1.1-1.3-1.1-2.3l0,0
					h1.1c0,0.8,0.4,1.3,0.9,1.8c0.6,0.4,1.4,0.6,2.1,0.6c0.8,0,1.6-0.1,2-0.6C385.6,49.7,385.9,49.3,385.9,48.7z"/>
			</g>
		</g>
		<g>
			<path fill="#FFFFFF" d="M354.9,27.3h0.6c0.4,0,0.8-0.1,0.9-0.3c0.3-0.3,0.3-0.6,0.3-0.8c0-0.4-0.1-0.7-0.3-0.8
				c-0.3-0.3-0.6-0.3-0.9-0.3c-0.5,0-0.7,0.1-1,0.3c-0.3,0.3-0.5,0.6-0.5,0.8h-0.4l0,0c0-0.4,0.1-0.8,0.6-1.1
				c0.4-0.3,0.8-0.4,1.3-0.4c0.5,0,0.9,0.1,1.3,0.4c0.3,0.3,0.4,0.7,0.4,1.3c0,0.3-0.1,0.6-0.3,0.8c-0.1,0.3-0.4,0.4-0.7,0.6
				c0.4,0.1,0.7,0.3,0.8,0.6c0.1,0.3,0.3,0.6,0.3,0.9c0,0.6-0.1,0.9-0.5,1.3c-0.3,0.3-0.8,0.4-1.4,0.4c-0.5,0-0.9-0.1-1.3-0.4
				c-0.5-0.3-0.6-0.7-0.6-1.3l0,0h0.4c0,0.4,0.1,0.7,0.5,0.9c0.3,0.3,0.5,0.4,1,0.4c0.4,0,0.7-0.1,0.9-0.3c0.3-0.1,0.4-0.6,0.4-0.9
				c0-0.4-0.1-0.7-0.4-0.9c-0.3-0.1-0.6-0.3-1.1-0.3H355L354.9,27.3L354.9,27.3z"/>
			<path fill="#FFFFFF" d="M359.1,26.5l-1.4-0.4l0.1-0.4l1.3,0.6v-1.4h0.4v1.5l1.4-0.6l0.1,0.4l-1.4,0.4l1,1.3l-0.5,0.3l-0.8-1.3
				l-0.8,1.3l-0.4-0.3L359.1,26.5z"/>
			<path fill="#FFFFFF" d="M361.9,28.3c0-0.9,0.1-1.8,0.6-2.6c0.4-0.8,0.8-1.3,1.3-1.6l0,0l0.1,0.3c-0.4,0.3-0.7,0.8-1,1.5
				c-0.3,0.7-0.5,1.5-0.5,2.4v0.1c0,0.9,0.2,1.6,0.5,2.4c0.3,0.7,0.7,1.3,1,1.5l-0.1,0.3l0,0c-0.5-0.3-1-0.8-1.3-1.5
				C362,30.2,361.9,29.3,361.9,28.3L361.9,28.3z"/>
			<path fill="#FFFFFF" d="M365.6,27.3h0.6c0.4,0,0.8-0.1,0.9-0.3c0.3-0.3,0.3-0.6,0.3-0.8c0-0.4-0.1-0.7-0.3-0.8
				c-0.3-0.3-0.6-0.3-0.9-0.3c-0.5,0-0.7,0.1-1,0.3c-0.3,0.3-0.5,0.6-0.5,0.8h-0.4l0,0c0-0.4,0.1-0.8,0.6-1.1
				c0.4-0.3,0.8-0.4,1.3-0.4c0.5,0,0.9,0.1,1.3,0.4c0.3,0.3,0.4,0.7,0.4,1.3c0,0.3-0.1,0.6-0.3,0.8s-0.4,0.4-0.7,0.6
				c0.4,0.1,0.7,0.3,0.8,0.6c0.1,0.3,0.3,0.6,0.3,0.9c0,0.6-0.1,0.9-0.5,1.3c-0.3,0.3-0.8,0.4-1.4,0.4c-0.5,0-0.9-0.1-1.3-0.4
				c-0.5-0.3-0.6-0.7-0.6-1.3l0,0h0.4c0,0.4,0.2,0.7,0.5,0.9c0.3,0.3,0.5,0.4,1,0.4c0.4,0,0.7-0.1,0.9-0.3c0.3-0.1,0.4-0.6,0.4-0.9
				c0-0.4-0.1-0.7-0.4-0.9c-0.3-0.1-0.6-0.3-1.1-0.3h-0.5v-0.8h0.4L365.6,27.3L365.6,27.3z"/>
			<path fill="#FFFFFF" d="M372,28.7h0.9v0.4H372v1.5h-0.6v-1.5h-2.8v-0.3l2.8-4.1h0.6V28.7z M369.4,28.7h2.2v-3.3l0,0l-0.3,0.4
				L369.4,28.7z"/>
			<path fill="#FFFFFF" d="M374.6,27.3h0.6c0.4,0,0.8-0.1,0.9-0.3c0.1-0.1,0.3-0.6,0.3-0.8c0-0.4-0.1-0.7-0.3-0.8
				c-0.3-0.3-0.6-0.3-0.9-0.3c-0.5,0-0.7,0.1-1,0.3c-0.3,0.3-0.5,0.6-0.5,0.8h-0.4l0,0c0-0.4,0.1-0.8,0.5-1.1
				c0.3-0.3,0.8-0.4,1.3-0.4c0.5,0,1,0.1,1.3,0.4c0.3,0.3,0.5,0.7,0.5,1.3c0,0.3-0.2,0.6-0.3,0.8c-0.2,0.3-0.5,0.4-0.7,0.6
				c0.5,0.1,0.7,0.3,0.8,0.6c0.2,0.3,0.3,0.6,0.3,0.9c0,0.6-0.1,0.9-0.5,1.3c-0.5,0.3-0.8,0.4-1.4,0.4s-0.9-0.1-1.4-0.4
				c-0.5-0.3-0.5-0.7-0.5-1.3l0,0h0.4c0,0.4,0.1,0.7,0.4,0.9c0.3,0.3,0.6,0.4,1,0.4s0.7-0.1,1-0.3s0.4-0.6,0.4-0.9
				c0-0.4-0.1-0.7-0.4-0.9c-0.3-0.1-0.6-0.3-1.1-0.3h-0.6v-0.8h0.3L374.6,27.3L374.6,27.3z"/>
			<path fill="#FFFFFF" d="M379.7,28.3c0,0.9-0.2,1.8-0.6,2.6c-0.4,0.8-0.8,1.3-1.3,1.5l0,0l-0.1-0.3c0.5-0.3,0.7-0.8,1-1.5
				c0.3-0.7,0.5-1.5,0.5-2.4v-0.1c0-0.9-0.1-1.6-0.5-2.4c-0.3-0.8-0.7-1.3-0.9-1.5l0.1-0.3l0,0c0.5,0.3,0.8,0.8,1.3,1.6
				C379.6,26.4,379.7,27.2,379.7,28.3L379.7,28.3z"/>
			<path fill="#FFFFFF" d="M382.9,27.7h1.8v0.4h-1.8v1.8h-0.6v-1.8h-1.6v-0.4h1.8v-1.8h0.5L382.9,27.7L382.9,27.7L382.9,27.7z"/>
			<path fill="#FFFFFF" d="M388.5,28.7h1v0.4h-1v1.5H388v-1.5h-2.8v-0.3l2.8-4.1h0.5V28.7z M385.9,28.7h2.2v-3.3l0,0l-0.3,0.4
				L385.9,28.7z"/>
			<path fill="#FFFFFF" d="M393.1,28.7h1v0.4h-1v1.5h-0.5v-1.5h-2.8v-0.3l2.8-4.1h0.5V28.7z M390.5,28.7h2.2v-3.3l0,0l-0.3,0.4
				L390.5,28.7z"/>
		</g>
		<g>
			<g>
				<path fill="#FFFFFF" d="M446.7,40.2l1-9.3h8.5v1.3h-7.2l-0.7,6.1c0.5-0.4,1-0.7,1.5-0.9s1.3-0.3,2.2-0.4c1.5,0,2.8,0.4,3.5,1.5
					c1,0.9,1.4,2.3,1.4,4.1s-0.5,3.1-1.4,4.2c-0.8,1.1-2.2,1.5-4,1.5c-1.4,0-2.5-0.4-3.5-1.3c-1-0.8-1.4-1.8-1.4-3.6v-0.1h1.3
					c0,1.3,0.3,2.1,1,2.8s1.5,0.9,2.5,0.9c1.3,0,2.2-0.4,2.9-1.3c0.7-0.8,1-1.8,1-3.3c0-1.3-0.3-2.3-1-3.1c-0.7-0.8-1.5-1.3-2.8-1.3
					c-1,0-1.9,0.1-2.5,0.6c-0.7,0.4-1,0.8-1.3,1.6L446.7,40.2L446.7,40.2z"/>
				<path fill="#FFFFFF" d="M468.1,42.5h2.8v1.1h-2.8v4.3h-1.4v-4.3h-8v-0.8l7.9-12.2h1.5V42.5z M460.4,42.5h6.4v-9.8h-0.2l-0.5,1.3
					L460.4,42.5z"/>
				<path fill="#FFFFFF" d="M474.4,47.8l-1.3,3.3h-1l0.8-3.3v-2.1h1.4L474.4,47.8L474.4,47.8z"/>
				<path fill="#FFFFFF" d="M486.3,42.5h2.8v1.1h-2.8v4.3h-1.4v-4.3h-8v-0.8l7.9-12.1h1.5V42.5z M478.4,42.5h6.4v-9.8h-0.1l-0.5,1.3
					L478.4,42.5z"/>
			</g>
		</g>
		<rect x="346.9" y="57.3" fill="#2B2B2B" width="147.5" height="37"/>
		<g>
			<path fill="#ED1A46" d="M355.1,88.4V73.6h4.2c1.8,0,3.3,0.5,4.5,1.8c1.3,1.3,1.8,2.8,1.8,4.6v1.9c0,1.8-0.5,3.3-1.8,4.6
				c-1.3,1.3-2.8,1.8-4.5,1.8h-4.2V88.4z M356.4,74.7v12.6h3.1c1.5,0,2.8-0.6,3.5-1.5c1-0.9,1.4-2.3,1.4-3.8v-1.8
				c0-1.5-0.5-2.9-1.4-3.8c-0.9-0.9-2.2-1.5-3.5-1.5h-3.1V74.7z"/>
			<path fill="#ED1A46" d="M377,81.4h-7.2v7h-1.3V73.6h9.4v1h-8.2v5.7h7.2L377,81.4L377,81.4z"/>
		</g>
		<g>
			<path fill="#FFFFFF" d="M354.9,64.4h0.6c0.4,0,0.8-0.1,0.9-0.3c0.3-0.3,0.3-0.6,0.3-0.8c0-0.5-0.1-0.7-0.3-0.8
				c-0.3-0.3-0.6-0.3-0.9-0.3c-0.5,0-0.7,0.1-1,0.3c-0.3,0.3-0.5,0.5-0.5,0.8h-0.4l0,0c0-0.5,0.1-0.8,0.6-1c0.4-0.3,0.8-0.5,1.3-0.5
				c0.5,0,0.9,0.1,1.3,0.5c0.3,0.3,0.4,0.7,0.4,1.3c0,0.3-0.1,0.5-0.3,0.8s-0.4,0.4-0.7,0.6c0.4,0.1,0.7,0.3,0.8,0.5s0.3,0.5,0.3,1
				c0,0.5-0.1,0.9-0.5,1.3c-0.3,0.3-0.8,0.4-1.4,0.4c-0.5,0-0.9-0.1-1.3-0.4c-0.5-0.3-0.6-0.7-0.6-1.3l0,0h0.4
				c0,0.4,0.1,0.7,0.5,0.9c0.3,0.3,0.5,0.4,1,0.4c0.4,0,0.7-0.1,0.9-0.3c0.3-0.1,0.4-0.5,0.4-0.9c0-0.4-0.1-0.7-0.4-0.9
				c-0.3-0.1-0.6-0.3-1.1-0.3H355L354.9,64.4L354.9,64.4z"/>
			<path fill="#FFFFFF" d="M359.1,63.5l-1.4-0.4l0.1-0.5l1.4,0.5v-1.5h0.5v1.5l1.3-0.5l0.2,0.5l-1.4,0.5l1,1.3l-0.5,0.3l-0.8-1.3
				l-0.8,1.3l-0.5-0.3L359.1,63.5z"/>
			<path fill="#FFFFFF" d="M361.9,65.2c0-1,0.1-1.8,0.6-2.5c0.4-0.8,0.8-1.3,1.3-1.6l0,0l0.1,0.3c-0.4,0.3-0.7,0.8-1,1.5
				c-0.3,0.7-0.5,1.5-0.5,2.4v0.1c0,0.9,0.2,1.6,0.5,2.4c0.3,0.7,0.7,1.3,1,1.5l-0.1,0.3l0,0c-0.5-0.3-1-0.8-1.3-1.5
				C362,67.2,361.9,66.2,361.9,65.2L361.9,65.2z"/>
			<path fill="#FFFFFF" d="M365.6,64.4h0.6c0.4,0,0.8-0.1,0.9-0.3c0.3-0.3,0.3-0.6,0.3-0.8c0-0.5-0.1-0.7-0.3-0.8
				c-0.3-0.3-0.6-0.3-0.9-0.3c-0.5,0-0.7,0.1-1,0.3c-0.3,0.3-0.5,0.5-0.5,0.8h-0.4l0,0c0-0.5,0.1-0.8,0.6-1c0.4-0.3,0.8-0.5,1.3-0.5
				c0.5,0,0.9,0.1,1.3,0.5c0.3,0.3,0.4,0.7,0.4,1.3c0,0.3-0.1,0.5-0.3,0.8s-0.4,0.4-0.7,0.6c0.4,0.1,0.7,0.3,0.8,0.5s0.3,0.5,0.3,1
				c0,0.5-0.1,0.9-0.5,1.3c-0.3,0.3-0.8,0.4-1.4,0.4c-0.5,0-0.9-0.1-1.3-0.4c-0.5-0.3-0.6-0.7-0.6-1.3l0,0h0.4
				c0,0.4,0.2,0.7,0.5,0.9c0.3,0.3,0.5,0.4,1,0.4c0.4,0,0.7-0.1,0.9-0.3c0.3-0.1,0.4-0.5,0.4-0.9c0-0.4-0.1-0.7-0.4-0.9
				c-0.3-0.1-0.6-0.3-1.1-0.3h-0.5v-0.8h0.4L365.6,64.4L365.6,64.4z"/>
			<path fill="#FFFFFF" d="M372,65.7h0.9v0.5H372v1.5h-0.6v-1.5h-2.8v-0.3l2.8-4.1h0.6V65.7z M369.4,65.7h2.2v-3.4l0,0l-0.3,0.5
				L369.4,65.7z"/>
			<path fill="#FFFFFF" d="M374.6,64.4h0.6c0.4,0,0.8-0.1,0.9-0.3c0.1-0.1,0.3-0.6,0.3-0.8c0-0.5-0.1-0.7-0.3-0.8
				c-0.3-0.3-0.6-0.3-0.9-0.3c-0.5,0-0.7,0.1-1,0.3c-0.3,0.3-0.5,0.5-0.5,0.8h-0.4l0,0c0-0.5,0.1-0.8,0.5-1c0.3-0.3,0.8-0.5,1.3-0.5
				c0.5,0,1,0.1,1.3,0.5c0.3,0.3,0.5,0.7,0.5,1.3c0,0.3-0.2,0.5-0.3,0.8c-0.1,0.3-0.5,0.4-0.7,0.6c0.5,0.1,0.7,0.3,0.8,0.5
				c0.2,0.3,0.3,0.5,0.3,1c0,0.5-0.1,0.9-0.5,1.3c-0.5,0.3-0.8,0.4-1.4,0.4s-0.9-0.1-1.4-0.4c-0.5-0.3-0.5-0.7-0.5-1.3l0,0h0.4
				c0,0.4,0.1,0.7,0.4,0.9c0.3,0.3,0.6,0.4,1,0.4s0.7-0.1,1-0.3c0.3-0.1,0.4-0.5,0.4-0.9c0-0.4-0.1-0.7-0.4-0.9
				c-0.3-0.1-0.6-0.3-1.1-0.3h-0.6v-0.8h0.3L374.6,64.4L374.6,64.4z"/>
			<path fill="#FFFFFF" d="M379.7,65.3c0,0.9-0.2,1.8-0.6,2.6c-0.4,0.8-0.8,1.3-1.3,1.5l0,0l-0.1-0.3c0.5-0.3,0.7-0.8,1.1-1.5
				c0.3-0.7,0.4-1.5,0.4-2.5V65c0-0.9-0.1-1.6-0.4-2.5c-0.3-0.8-0.7-1.3-0.9-1.5l0.1-0.3l0,0c0.5,0.3,0.8,0.8,1.3,1.6
				C379.6,63.2,379.7,64.2,379.7,65.3L379.7,65.3z"/>
			<path fill="#FFFFFF" d="M382.9,64.6h1.8v0.4h-1.8v1.8h-0.6v-1.8h-1.6v-0.4h1.8v-1.9h0.5L382.9,64.6L382.9,64.6L382.9,64.6z"/>
			<path fill="#FFFFFF" d="M388.5,65.7h1v0.5h-1v1.5H388v-1.5h-2.8v-0.3l2.8-4.1h0.5V65.7z M385.9,65.7h2.2v-3.4l0,0l-0.3,0.5
				L385.9,65.7z"/>
			<path fill="#FFFFFF" d="M393.1,65.7h1v0.5h-1v1.5h-0.5v-1.5h-2.8v-0.3l2.8-4.1h0.5V65.7z M390.5,65.7h2.2v-3.4l0,0l-0.3,0.5
				L390.5,65.7z"/>
		</g>
		<g>
			<g>
				<path fill="#FFFFFF" d="M446.7,77.1l1-9.4h8.5v1.3h-7.2l-0.7,6.1c0.5-0.4,1-0.7,1.5-0.9s1.3-0.3,2.2-0.5c1.5,0,2.8,0.5,3.5,1.5
					c1,1,1.4,2.3,1.4,4s-0.5,3.1-1.4,4.2c-0.8,1-2.2,1.5-4,1.5c-1.4,0-2.5-0.5-3.5-1.3c-1-0.8-1.4-1.8-1.4-3.5v-0.1h1.3
					c0,1.3,0.3,2,1,2.8s1.5,1,2.5,1c1.3,0,2.2-0.5,2.9-1.3c0.7-0.8,1-1.9,1-3.4c0-1.3-0.3-2.3-1-3.1c-0.7-0.8-1.5-1.3-2.8-1.3
					c-1,0-1.9,0.1-2.5,0.5s-1,0.8-1.3,1.6L446.7,77.1z"/>
				<path fill="#FFFFFF" d="M468.1,79.3h2.8v1.3h-2.8v4.3h-1.4v-4.3h-8v-0.8l7.9-12.1h1.5V79.3z M460.4,79.3h6.4v-9.8h-0.2l-0.5,1.3
					L460.4,79.3z"/>
				<path fill="#FFFFFF" d="M474.4,84.6l-1.3,3.3h-1l0.8-3.3v-2.1h1.4L474.4,84.6L474.4,84.6z"/>
				<path fill="#FFFFFF" d="M486.3,79.3h2.8v1.3h-2.8v4.3h-1.4v-4.3h-8v-0.8l7.9-12.1h1.5V79.3z M478.4,79.3h6.4v-9.8h-0.1l-0.5,1.3
					L478.4,79.3z"/>
			</g>
		</g>
		<rect x="346.8" y="93.3" fill="#2B2B2B" width="147.5" height="37"/>
		<g>
			<path fill="#ED1A46" d="M359.5,116l4.2-6.3h1.5l-4.9,7.2l5,7.5h-1.5l-4.3-6.5l-4.4,6.5h-1.5l5.1-7.5l-4.9-7.2h1.5L359.5,116z"/>
			<path fill="#ED1A46" d="M372.1,117.9l4.6-8.2h1.4l-5.3,9.3v5.4h-1.3v-5.4l-5.3-9.3h1.3L372.1,117.9z"/>
		</g>
		<g>
			<path fill="#FFFFFF" d="M354.9,100.3h0.6c0.4,0,0.8-0.2,0.9-0.3c0.3-0.3,0.3-0.6,0.3-0.8c0-0.4-0.1-0.7-0.3-0.8
				c-0.3-0.3-0.6-0.3-0.9-0.3c-0.5,0-0.7,0.2-1,0.3c-0.3,0.3-0.5,0.5-0.5,0.8h-0.4l0,0c0-0.4,0.1-0.8,0.6-1c0.4-0.3,0.8-0.5,1.3-0.5
				c0.5,0,0.9,0.2,1.3,0.5c0.3,0.3,0.4,0.7,0.4,1.3c0,0.3-0.1,0.5-0.3,0.8c-0.1,0.3-0.4,0.5-0.7,0.6c0.4,0.1,0.7,0.3,0.8,0.5
				c0.1,0.3,0.3,0.6,0.3,1c0,0.5-0.1,0.9-0.5,1.3c-0.3,0.3-0.8,0.4-1.4,0.4c-0.5,0-0.9-0.1-1.3-0.4c-0.5-0.3-0.6-0.7-0.6-1.3l0,0
				h0.4c0,0.4,0.1,0.7,0.5,0.9c0.3,0.3,0.5,0.5,1,0.5c0.4,0,0.7-0.2,0.9-0.3c0.3-0.2,0.4-0.6,0.4-1c0-0.4-0.1-0.7-0.4-0.9
				c-0.3-0.1-0.6-0.3-1.1-0.3H355L354.9,100.3L354.9,100.3z"/>
			<path fill="#FFFFFF" d="M359.1,99.5l-1.4-0.4l0.1-0.5l1.4,0.6v-1.5h0.5v1.5l1.3-0.6l0.2,0.5l-1.4,0.4l1,1.3l-0.5,0.3l-0.8-1.3
				l-0.8,1.3l-0.5-0.3L359.1,99.5z"/>
			<path fill="#FFFFFF" d="M361.9,101.2c0-0.9,0.1-1.8,0.6-2.5c0.4-0.8,0.8-1.3,1.3-1.6l0,0l0.1,0.3c-0.4,0.3-0.7,0.8-1,1.5
				c-0.3,0.7-0.5,1.5-0.5,2.4v0.1c0,0.9,0.2,1.6,0.5,2.4c0.3,0.7,0.7,1.3,1,1.5l-0.1,0.3l0,0c-0.5-0.3-1-0.8-1.3-1.5
				C362,103.2,361.9,102.3,361.9,101.2L361.9,101.2z"/>
			<path fill="#FFFFFF" d="M365.4,100.3h0.6c0.4,0,0.8-0.2,0.9-0.3c0.3-0.3,0.3-0.6,0.3-0.8c0-0.4-0.1-0.7-0.3-0.8
				c-0.3-0.3-0.6-0.3-0.9-0.3c-0.4,0-0.7,0.2-1,0.3c-0.3,0.3-0.5,0.5-0.5,0.8h-0.3l0,0c0-0.4,0.2-0.8,0.6-1s0.8-0.5,1.3-0.5
				c0.6,0,0.9,0.2,1.3,0.5c0.3,0.3,0.4,0.7,0.4,1.3c0,0.3-0.1,0.5-0.3,0.8c-0.1,0.3-0.4,0.5-0.7,0.6c0.4,0.1,0.7,0.3,0.8,0.5
				c0.1,0.3,0.3,0.6,0.3,1c0,0.5-0.2,0.9-0.6,1.3c-0.3,0.3-0.8,0.4-1.4,0.4s-1-0.1-1.4-0.4c-0.4-0.3-0.6-0.7-0.6-1.3l0,0h0.5
				c0,0.4,0.1,0.7,0.5,0.9c0.3,0.3,0.5,0.5,0.9,0.5c0.4,0,0.7-0.2,0.9-0.3c0.3-0.2,0.5-0.6,0.5-1c0-0.4-0.1-0.7-0.5-0.9
				c-0.3-0.1-0.5-0.3-1-0.3h-0.5v-1H365.4z"/>
			<path fill="#FFFFFF" d="M372,101.7h0.9v0.5H372v1.5h-0.6v-1.5h-2.8v-0.3l2.8-4h0.6V101.7z M369.4,101.7h2.2v-3.3l0,0l-0.3,0.5
				L369.4,101.7z"/>
			<path fill="#FFFFFF" d="M374.6,100.3h0.6c0.4,0,0.8-0.2,0.9-0.3c0.1-0.2,0.3-0.6,0.3-0.8c0-0.4-0.1-0.7-0.3-0.8
				c-0.3-0.3-0.6-0.3-0.9-0.3c-0.5,0-0.7,0.2-1,0.3c-0.3,0.3-0.5,0.5-0.5,0.8h-0.4l0,0c0-0.4,0.1-0.8,0.5-1c0.3-0.3,0.8-0.5,1.3-0.5
				c0.5,0,1,0.2,1.3,0.5c0.3,0.3,0.5,0.7,0.5,1.3c0,0.3-0.2,0.5-0.3,0.8c-0.2,0.3-0.5,0.5-0.7,0.6c0.5,0.1,0.7,0.3,0.8,0.5
				c0.2,0.3,0.3,0.6,0.3,1c0,0.5-0.1,0.9-0.5,1.3c-0.5,0.3-0.8,0.4-1.4,0.4s-0.9-0.1-1.4-0.4c-0.5-0.3-0.5-0.7-0.5-1.3l0,0h0.4
				c0,0.4,0.1,0.7,0.4,0.9c0.3,0.3,0.6,0.5,1,0.5s0.7-0.2,1-0.3c0.3-0.2,0.4-0.6,0.4-1c0-0.4-0.1-0.7-0.4-0.9
				c-0.3-0.1-0.6-0.3-1.1-0.3h-0.6v-1H374.6z"/>
			<path fill="#FFFFFF" d="M379.7,101.3c0,0.9-0.2,1.8-0.6,2.5c-0.4,0.8-0.8,1.3-1.3,1.5l0,0l-0.1-0.2c0.5-0.3,0.7-0.8,1-1.5
				c0.3-0.7,0.5-1.5,0.5-2.5v-0.1c0-1-0.1-1.6-0.5-2.5c-0.3-0.8-0.7-1.3-0.9-1.5l0.1-0.3l0,0c0.5,0.3,0.8,0.8,1.3,1.6
				C379.5,99.3,379.7,100.2,379.7,101.3L379.7,101.3z"/>
			<path fill="#FFFFFF" d="M382.9,100.7h1.8v0.5h-1.8v1.8h-0.6v-1.8h-1.6v-0.5h1.8v-1.8h0.5L382.9,100.7L382.9,100.7z"/>
			<path fill="#FFFFFF" d="M388.5,101.7h1v0.5h-1v1.5H388v-1.5h-2.8v-0.3l2.8-4h0.5V101.7z M385.9,101.7h2.2v-3.3l0,0l-0.3,0.5
				L385.9,101.7z"/>
			<path fill="#FFFFFF" d="M393.1,101.7h1v0.5h-1v1.5h-0.5v-1.5h-2.8v-0.3l2.8-4h0.5V101.7z M390.5,101.7h2.2v-3.3l0,0l-0.3,0.5
				L390.5,101.7z"/>
		</g>
		<g>
			<g>
				<path fill="#FFFFFF" d="M419.4,113.2l1-9.3h8.5v1.3h-7.3l-0.7,6.1c0.5-0.4,1-0.7,1.5-0.9s1.3-0.3,2.2-0.4c1.5,0,2.8,0.4,3.5,1.5
					c1,0.9,1.4,2.3,1.4,4s-0.5,3.1-1.4,4.2c-0.8,1-2.2,1.5-4,1.5c-1.4,0-2.5-0.5-3.5-1.3c-1-0.8-1.4-1.9-1.4-3.6v-0.2h1.3
					c0,1.3,0.3,2.1,1,2.8s1.5,0.9,2.5,0.9c1.3,0,2.2-0.4,2.9-1.3c0.7-0.8,1-1.8,1-3.3c0-1.3-0.3-2.3-1-3.1s-1.5-1.3-2.8-1.3
					c-1,0-1.9,0.1-2.5,0.6c-0.7,0.4-1,0.8-1.3,1.6L419.4,113.2z"/>
				<path fill="#FFFFFF" d="M441,115.3h2.8v1.3H441v4.3h-1.4v-4.3h-8v-0.8l7.9-12.1h1.5V115.3z M433.1,115.3h6.4v-9.8h-0.1l-0.5,1.3
					L433.1,115.3z"/>
				<path fill="#FFFFFF" d="M446.4,113.2l1-9.3h8.4v1.3h-7.2l-0.7,6.1c0.5-0.4,1-0.7,1.5-0.9s1.3-0.3,2.2-0.4c1.5,0,2.8,0.4,3.5,1.5
					c1,0.9,1.4,2.3,1.4,4s-0.5,3.1-1.4,4.2c-0.8,1-2.2,1.5-4,1.5c-1.4,0-2.5-0.5-3.5-1.3c-1-0.8-1.4-1.9-1.4-3.6v-0.2h1.3
					c0,1.3,0.3,2.1,1,2.8s1.5,0.9,2.5,0.9c1.3,0,2.2-0.4,2.9-1.3c0.7-0.8,1-1.8,1-3.3c0-1.3-0.3-2.3-1-3.1s-1.5-1.3-2.8-1.3
					c-1,0-1.9,0.1-2.5,0.6c-0.7,0.4-1,0.8-1.3,1.6L446.4,113.2z"/>
				<path fill="#FFFFFF" d="M467.8,115.3h2.8v1.3h-2.8v4.3h-1.4v-4.3h-8v-0.8l7.8-12.1h1.5L467.8,115.3L467.8,115.3z M460.1,115.3
					h6.4v-9.8h-0.1l-0.5,1.3L460.1,115.3z"/>
				<path fill="#FFFFFF" d="M474.1,120.7l-1.3,3.3h-1l0.8-3.3v-2.1h1.4L474.1,120.7L474.1,120.7z"/>
				<path fill="#FFFFFF" d="M485.9,115.3h2.8v1.3h-2.8v4.3h-1.4v-4.3h-8v-0.8l7.9-12.1h1.5V115.3z M478.1,115.3h6.4v-9.8h-0.1
					l-0.5,1.3L478.1,115.3z"/>
			</g>
		</g>
		<rect x="494.3" y="57.3" fill="#3D3D3D" width="5.5" height="37"/>
		<circle fill="#2D2D2D" cx="497" cy="72.5" r="0.7"/>
		<circle fill="#2D2D2D" cx="497" cy="75.7" r="0.7"/>
		<circle fill="#2D2D2D" cx="497" cy="79" r="0.7"/>
		<rect x="346.8" y="131.3" fill="#2B2B2B" width="147.5" height="37"/>
		<g>
			<path fill="#ED1A46" d="M363.4,155.3h-7.2v6.9H355v-14.7h9.3v1.1h-8.2v5.7h7.2L363.4,155.3L363.4,155.3z"/>
			<path fill="#ED1A46" d="M377.6,156.1c0,1.8-0.6,3.3-1.5,4.6c-1.1,1.3-2.4,1.8-4.2,1.8s-3.1-0.6-4.1-1.8c-1.1-1.3-1.5-2.8-1.5-4.6
				v-2.5c0-1.8,0.6-3.3,1.5-4.6c1.1-1.3,2.4-1.8,4.1-1.8c1.8,0,3.1,0.6,4.2,1.8c1.1,1.3,1.6,2.8,1.6,4.6v2.5H377.6z M376.5,153.6
				c0-1.6-0.5-2.8-1.3-3.8c-0.8-1-1.9-1.5-3.4-1.5c-1.3,0-2.4,0.5-3.3,1.5c-0.8,0.9-1.3,2.3-1.3,3.8v2.5c0,1.6,0.5,2.8,1.3,3.8
				c0.8,1,1.9,1.5,3.3,1.5c1.5,0,2.6-0.5,3.4-1.5c0.8-0.9,1.3-2.3,1.3-3.8V153.6z"/>
			<path fill="#ED1A46" d="M391.7,156.1c0,1.8-0.5,3.3-1.5,4.6c-1,1.3-2.5,1.8-4.2,1.8s-3.1-0.6-4-1.8c-1-1.3-1.5-2.8-1.5-4.6v-2.5
				c0-1.8,0.5-3.3,1.5-4.6s2.5-1.8,4-1.8c1.8,0,3.1,0.6,4.2,1.8c1,1.3,1.6,2.8,1.6,4.6v2.5H391.7z M390.5,153.6
				c0-1.6-0.5-2.8-1.3-3.8c-0.8-1-1.9-1.5-3.4-1.5c-1.4,0-2.5,0.5-3.3,1.5c-0.8,0.9-1.3,2.3-1.3,3.8v2.5c0,1.6,0.5,2.8,1.3,3.8
				c0.8,1,1.9,1.5,3.3,1.5c1.5,0,2.5-0.5,3.4-1.5c0.8-0.9,1.3-2.3,1.3-3.8V153.6z"/>
		</g>
		<g>
			<path fill="#FFFFFF" d="M354.6,138.1h0.6c0.4,0,0.8-0.1,0.9-0.3c0.3-0.3,0.3-0.5,0.3-0.8c0-0.5-0.1-0.7-0.3-0.8
				c-0.3-0.3-0.6-0.3-0.9-0.3c-0.4,0-0.7,0.1-1,0.3c-0.3,0.3-0.5,0.6-0.5,0.8h-0.4l0,0c0-0.5,0.1-0.8,0.5-1.1
				c0.5-0.3,0.8-0.4,1.3-0.4c0.5,0,1,0.1,1.3,0.4s0.5,0.7,0.5,1.3c0,0.3-0.2,0.6-0.3,0.8c-0.2,0.3-0.5,0.4-0.7,0.5
				c0.5,0.1,0.7,0.3,0.8,0.6c0.2,0.3,0.3,0.6,0.3,0.9c0,0.6-0.1,1-0.5,1.3c-0.3,0.3-0.8,0.5-1.4,0.5s-0.9-0.2-1.4-0.5
				c-0.5-0.3-0.5-0.7-0.5-1.3l0,0h0.4c0,0.5,0.1,0.7,0.4,1c0.3,0.3,0.6,0.4,1,0.4c0.5,0,0.7-0.2,1-0.3c0.3-0.2,0.4-0.6,0.4-0.9
				c0-0.5-0.1-0.7-0.4-1c-0.3-0.1-0.6-0.3-1.1-0.3h-0.6v-0.8h0.3L354.6,138.1L354.6,138.1z"/>
			<path fill="#FFFFFF" d="M359.1,137.4l-1.4-0.5l0.1-0.4l1.4,0.6v-1.5h0.5v1.5l1.3-0.6l0.2,0.4l-1.4,0.5l1,1.3l-0.5,0.3l-0.8-1.3
				l-0.8,1.3l-0.6-0.3L359.1,137.4z"/>
			<path fill="#FFFFFF" d="M361.8,139.1c0-1,0.1-1.9,0.5-2.6c0.5-0.8,0.8-1.4,1.3-1.6l0,0l0.2,0.3c-0.5,0.3-0.7,0.8-1.1,1.5
				c-0.3,0.7-0.4,1.5-0.4,2.4v0.2c0,0.9,0.1,1.6,0.4,2.4c0.3,0.7,0.7,1.3,1.1,1.5l-0.2,0.3l0,0c-0.4-0.3-0.9-0.8-1.3-1.5
				C361.9,140.9,361.8,140,361.8,139.1L361.8,139.1z"/>
			<path fill="#FFFFFF" d="M365.4,138.1h0.6c0.4,0,0.8-0.1,0.9-0.3c0.3-0.3,0.3-0.5,0.3-0.8c0-0.5-0.1-0.7-0.3-0.8
				c-0.3-0.3-0.6-0.3-0.9-0.3c-0.4,0-0.7,0.1-1,0.3c-0.3,0.3-0.5,0.6-0.5,0.8h-0.3l0,0c0-0.5,0.2-0.8,0.6-1.1
				c0.4-0.3,0.8-0.4,1.3-0.4c0.6,0,0.9,0.1,1.3,0.4c0.3,0.3,0.4,0.7,0.4,1.3c0,0.3-0.1,0.6-0.3,0.8c-0.1,0.3-0.4,0.4-0.7,0.5
				c0.4,0.1,0.7,0.3,0.8,0.6c0.1,0.3,0.3,0.6,0.3,0.9c0,0.6-0.2,1-0.6,1.3c-0.3,0.3-0.8,0.5-1.4,0.5s-1-0.2-1.4-0.5
				c-0.4-0.3-0.6-0.7-0.6-1.3l0,0h0.5c0,0.5,0.1,0.7,0.5,1c0.3,0.3,0.5,0.4,0.9,0.4c0.4,0,0.7-0.2,0.9-0.3c0.3-0.2,0.5-0.6,0.5-0.9
				c0-0.5-0.1-0.7-0.5-1c-0.3-0.1-0.5-0.3-1-0.3h-0.5v-0.8h0.2L365.4,138.1L365.4,138.1z"/>
			<path fill="#FFFFFF" d="M372,139.4h0.9v0.4H372v1.5h-0.6v-1.5h-2.8v-0.3l2.8-4h0.6V139.4z M369.2,139.4h2.2v-3.3l0,0l-0.3,0.4
				L369.2,139.4z"/>
			<path fill="#FFFFFF" d="M374.6,138.1h0.6c0.4,0,0.8-0.1,0.9-0.3c0.1-0.1,0.3-0.5,0.3-0.8c0-0.5-0.1-0.7-0.3-0.8
				c-0.3-0.3-0.6-0.3-0.9-0.3c-0.5,0-0.7,0.1-1,0.3c-0.3,0.3-0.5,0.6-0.5,0.8h-0.4l0,0c0-0.5,0.1-0.8,0.5-1.1
				c0.3-0.3,0.8-0.4,1.3-0.4c0.5,0,1,0.1,1.3,0.4c0.3,0.3,0.5,0.7,0.5,1.3c0,0.3-0.2,0.6-0.3,0.8c-0.2,0.3-0.5,0.4-0.7,0.5
				c0.5,0.1,0.7,0.3,0.8,0.6c0.2,0.3,0.3,0.6,0.3,0.9c0,0.6-0.1,1-0.5,1.3c-0.5,0.3-0.8,0.5-1.4,0.5s-0.9-0.2-1.4-0.5
				c-0.5-0.3-0.5-0.7-0.5-1.3l0,0h0.4c0,0.5,0.1,0.7,0.4,1c0.3,0.3,0.6,0.4,1,0.4s0.7-0.2,1-0.3c0.3-0.2,0.4-0.6,0.4-0.9
				c0-0.5-0.1-0.7-0.4-1c-0.3-0.1-0.6-0.3-1.1-0.3h-0.6v-0.8h0.3L374.6,138.1L374.6,138.1z"/>
			<path fill="#FFFFFF" d="M379.6,139.1c0,0.9-0.1,1.8-0.6,2.5c-0.4,0.8-0.8,1.3-1.3,1.5l0,0l-0.1-0.3c0.4-0.3,0.7-0.8,1-1.5
				c0.3-0.7,0.5-1.5,0.5-2.4v-0.1c0-1-0.2-1.6-0.5-2.5c-0.3-0.8-0.7-1.3-1-1.5l0.2-0.3l0,0c0.4,0.3,0.8,0.8,1.3,1.6
				C379.5,137.1,379.6,137.9,379.6,139.1L379.6,139.1z"/>
			<path fill="#FFFFFF" d="M382.9,138.4h1.8v0.5h-1.8v1.8h-0.6v-1.8h-1.8v-0.5h1.8v-1.8h0.5L382.9,138.4L382.9,138.4z"/>
			<path fill="#FFFFFF" d="M388.4,139.4h1v0.4h-1v1.5h-0.5v-1.5h-2.8v-0.3l2.8-4h0.5V139.4z M385.9,139.4h2.2v-3.3l0,0l-0.3,0.4
				L385.9,139.4z"/>
			<path fill="#FFFFFF" d="M393,139.4h1v0.4h-1v1.5h-0.5v-1.5h-2.8v-0.3l2.8-4h0.5V139.4L393,139.4z M390.4,139.4h2.2v-3.3l0,0
				l-0.3,0.4L390.4,139.4z"/>
		</g>
		<g>
			<g>
				<path fill="#FFFFFF" d="M446.6,150.9l1-9.3h8.4v1.3h-7.2l-0.7,6.1c0.5-0.4,1-0.7,1.5-0.9s1.3-0.3,2.2-0.4c1.5,0,2.8,0.4,3.5,1.5
					c1,0.9,1.4,2.3,1.4,4s-0.5,3.1-1.4,4.2c-0.8,1-2.2,1.5-4,1.5c-1.4,0-2.5-0.5-3.5-1.3c-1-0.8-1.4-1.9-1.4-3.6V154h1.3
					c0,1.3,0.3,2.1,1,2.8c0.7,0.7,1.5,1,2.5,1c1.3,0,2.2-0.5,2.9-1.3c0.7-0.8,1-1.9,1-3.4c0-1.3-0.3-2.3-1-3.1
					c-0.7-0.8-1.5-1.3-2.8-1.3c-1,0-1.9,0.1-2.5,0.6c-0.7,0.4-1,0.8-1.3,1.6L446.6,150.9L446.6,150.9z"/>
				<path fill="#FFFFFF" d="M468,153.2h2.8v1.3H468v4.4h-1.4v-4.4h-8v-0.8l7.9-12.1h1.5L468,153.2L468,153.2z M460.4,153.2h6.4v-9.8
					h-0.2l-0.5,1.3L460.4,153.2z"/>
				<path fill="#FFFFFF" d="M474.4,158.5l-1.3,3.3h-1l0.8-3.3v-2h1.4L474.4,158.5L474.4,158.5z"/>
				<path fill="#FFFFFF" d="M486.1,153.2h2.8v1.3h-2.8v4.4h-1.4v-4.4h-8v-0.8l7.9-12.1h1.5V153.2z M478.4,153.2h6.4v-9.8h-0.1
					l-0.6,1.3L478.4,153.2z"/>
			</g>
		</g>
		<g>
			<rect x="494.4" y="131.3" fill="#3D3D3D" width="5.5" height="37"/>
			<circle fill="#FFFFFF" cx="497.1" cy="146.3" r="0.7"/>
			<circle fill="#FFFFFF" cx="497.1" cy="149.7" r="0.7"/>
			<circle fill="#FFFFFF" cx="497.1" cy="153" r="0.7"/>
		</g>
		<rect x="346.8" y="67.2" fill="#B7B7B7" width="1.4" height="108.9"/>
		<rect x="488.7" y="94.3" fill="#D81F27" width="11.3" height="37"/>
		<g>
			<path fill="#FFFFFF" d="M492.6,116.7c-0.3,0-0.3,0-0.3-0.1c0-0.1,0-4.8,0-4.8h-0.5c0,0,0,4.6,0,4.8s0.3,0.7,0.7,0.7s2.2,0,2.2,0
				v-0.6C494.5,116.7,492.8,116.7,492.6,116.7z"/>
			<path fill="#FFFFFF" d="M497.3,111.8c0,0,0,4.6,0,4.9s-0.3,0.7-0.7,0.7s-2.2,0-2.2,0v-0.6c0,0,1.6,0,1.9,0s0.3,0,0.3-0.1
				c0-0.1,0-4.8,0-4.8h0.7L497.3,111.8L497.3,111.8z"/>
			<path fill="#FFFFFF" d="M497.5,111.3c0,0,0-0.3,0-0.4c0-0.1,0-0.3-0.3-0.3s-2.9,0-2.9,0s-2.5,0-2.9,0c-0.1,0-0.3,0.3-0.3,0.3v0.4
				h-0.3v0.7h3.4h3.4v-0.7H497.5z"/>
			<path fill="#FFFFFF" d="M495.2,109.3c-0.5,0-0.7,0-0.7,0s-0.3,0-0.7,0s-0.8,0.5-0.8,0.9c0,0.1,0,0.1,0,0.1h0.7c0,0,0,0,0-0.3
				c0-0.1,0.1-0.3,0.3-0.3c0.3,0,0.5,0,0.5,0s0.3,0,0.5,0c0.1,0,0.3,0.3,0.3,0.3c0,0.3,0,0.3,0,0.3h0.7c0,0,0,0,0-0.1
				C496,109.9,495.6,109.3,495.2,109.3z"/>
			<rect x="494.1" y="112.4" fill="#FFFFFF" width="0.7" height="3.7"/>
			<rect x="495.5" y="112.4" fill="#FFFFFF" width="0.7" height="3.7"/>
			<rect x="492.9" y="112.4" fill="#FFFFFF" width="0.7" height="3.7"/>
		</g>
		<rect x="462.2" y="94.3" fill="#3D3D3D" width="26.5" height="37"/>
		<rect x="463.4" y="94.3" fill="#2D2D2D" width="25.5" height="18.3"/>
		<g>
			<path fill="#FFFFFF" d="M475.8,121h-5.5v-0.7h5.5V121z M475.8,123.8h-5.5v-0.7h5.5V123.8z"/>
			<path fill="#FFFFFF" d="M481.4,126.7h-0.8v-8.8l-2.5,0.3v-0.5l3.3-0.6V126.7z"/>
		</g>
		<g>
			<path fill="#FFFFFF" d="M475.5,102.2H470v-0.7h5.5V102.2z M475.5,104.9H470v-0.7h5.5V104.9z"/>
			<path fill="#FFFFFF" d="M483.6,104c0,1.3-0.3,2.2-0.8,2.9c-0.5,0.7-1.3,0.9-2.3,0.9c-1,0-1.8-0.3-2.3-0.9
				c-0.5-0.7-0.8-1.6-0.8-2.9v-2.2c0-1.3,0.3-2.2,0.8-2.9c0.5-0.6,1.3-0.9,2.3-0.9s1.8,0.3,2.3,0.9c0.5,0.7,0.8,1.6,0.8,2.9V104z
				 M482.9,101.7c0-0.9-0.1-1.8-0.5-2.3c-0.5-0.5-1-0.8-1.6-0.8s-1.4,0.3-1.6,0.8s-0.5,1.3-0.5,2.3v2.5c0,1,0.1,1.8,0.5,2.3
				c0.5,0.6,1,0.8,1.6,0.8s1.4-0.3,1.6-0.8c0.3-0.5,0.5-1.3,0.5-2.3V101.7z"/>
		</g>
		<g>
			<rect x="456.8" y="94.3" fill="#3D3D3D" width="5.5" height="37"/>
			<circle fill="#FFFFFF" cx="459.5" cy="109.5" r="0.7"/>
			<circle fill="#FFFFFF" cx="459.5" cy="112.8" r="0.7"/>
			<circle fill="#FFFFFF" cx="459.5" cy="116" r="0.7"/>
		</g>
		<g id="completer">
			<rect x="54.1" y="162.2" fill="#2B2B2B" width="64.8" height="38.9"/>
			<rect x="54.1" y="191.4" opacity="0.8" fill="#ED1A46" enable-background="new    " width="64.8" height="9.8"/>
			<g>
				<path fill="#C9C9C9" d="M69.2,170.8c0-0.1,0-0.3,0-0.4s0-0.2,0-0.3c-0.1,0.3-0.4,0.4-0.5,0.6c-0.3,0.1-0.5,0.3-0.8,0.3
					c-0.5,0-0.7-0.2-1-0.3c-0.3-0.3-0.3-0.6-0.3-0.8c0-0.4,0.1-0.7,0.5-0.9c0.3-0.3,0.8-0.3,1.4-0.3h0.9v-0.5c0-0.3-0.1-0.6-0.3-0.7
					c-0.1-0.1-0.4-0.3-0.8-0.3c-0.3,0-0.5,0.2-0.8,0.3c-0.3,0.1-0.3,0.5-0.3,0.6h-0.5l0,0c0-0.3,0.1-0.6,0.5-0.8
					c0.3-0.3,0.7-0.4,1-0.4c0.5,0,0.8,0.1,1.1,0.4c0.3,0.3,0.4,0.6,0.4,1v2c0,0.1,0,0.3,0,0.5c0,0.1,0,0.3,0.1,0.4h-0.8L69.2,170.8
					L69.2,170.8z M67.7,170.5c0.3,0,0.6-0.1,0.8-0.3s0.4-0.4,0.6-0.6v-0.8h-1c-0.5,0-0.7,0.2-1,0.3c-0.3,0.2-0.4,0.5-0.4,0.7
					s0.1,0.4,0.3,0.5C67.1,170.4,67.4,170.5,67.7,170.5z"/>
				<path fill="#C9C9C9" d="M73.9,168.9c0,0.6-0.1,1.1-0.4,1.5c-0.3,0.5-0.7,0.6-1.1,0.6c-0.3,0-0.5,0-0.8-0.1
					c-0.3-0.2-0.5-0.3-0.5-0.6v0.7h-0.5v-5.9h0.5v2.4c0.1-0.3,0.3-0.4,0.5-0.6c0.3-0.1,0.5-0.1,0.8-0.1c0.6,0,0.8,0.1,1.1,0.5
					C73.8,167.6,73.9,168.1,73.9,168.9L73.9,168.9z M73.6,168.7c0-0.6-0.1-0.9-0.3-1.3c-0.1-0.3-0.6-0.6-1-0.6
					c-0.3,0-0.5,0.2-0.8,0.3c-0.1,0.2-0.3,0.5-0.5,0.6v1.9c0.1,0.3,0.3,0.4,0.5,0.6c0.2,0.1,0.4,0.3,0.7,0.3c0.4,0,0.7-0.2,0.9-0.5
					C73.4,169.7,73.6,169.3,73.6,168.7L73.6,168.7z"/>
				<path fill="#C9C9C9" d="M77.5,169.7c0-0.1-0.1-0.4-0.3-0.6c-0.2-0.1-0.4-0.3-0.8-0.4c-0.5-0.1-0.8-0.3-1-0.4
					c-0.3-0.1-0.5-0.4-0.5-0.7s0.1-0.6,0.5-0.8c0.3-0.3,0.5-0.3,1-0.3c0.5,0,0.8,0.1,1.1,0.4c0.3,0.3,0.4,0.6,0.4,0.8l0,0h-0.4
					c0-0.3-0.1-0.4-0.3-0.6c-0.1-0.1-0.4-0.3-0.8-0.3c-0.3,0-0.5,0.2-0.7,0.3c-0.1,0.1-0.3,0.3-0.3,0.6c0,0.1,0.1,0.4,0.3,0.4
					c0.1,0.2,0.4,0.3,0.8,0.3c0.5,0.2,0.8,0.3,1,0.4c0.3,0.2,0.5,0.5,0.5,0.8c0,0.4-0.1,0.7-0.5,0.8c-0.3,0.3-0.7,0.3-1,0.3
					c-0.6,0-0.8-0.1-1.3-0.4c-0.5-0.3-0.6-0.4-0.6-0.7l0,0h0.4c0,0.3,0.1,0.5,0.5,0.7c0.3,0.1,0.5,0.1,0.8,0.1s0.6-0.1,0.8-0.3
					C77.3,170.1,77.5,169.9,77.5,169.7z"/>
			</g>
			<g>
				<path fill="#C9C9C9" d="M69.1,178.9c0-0.1-0.1-0.4-0.3-0.6c-0.1-0.1-0.5-0.3-0.8-0.4c-0.6-0.1-0.8-0.3-1.1-0.4
					c-0.3-0.1-0.4-0.4-0.4-0.7s0.1-0.6,0.4-0.8c0.3-0.3,0.6-0.3,1.1-0.3c0.4,0,0.8,0.1,1.1,0.4c0.3,0.3,0.4,0.6,0.4,0.8l0,0h-0.4
					c0-0.3-0.1-0.4-0.3-0.6c-0.1-0.1-0.5-0.3-0.8-0.3c-0.3,0-0.6,0.1-0.7,0.3c-0.2,0.2-0.3,0.3-0.3,0.6c0,0.1,0.1,0.4,0.3,0.4
					c0.1,0.2,0.4,0.3,0.8,0.3c0.5,0.2,0.8,0.3,1,0.4c0.3,0.2,0.5,0.5,0.5,0.8c0,0.4-0.1,0.7-0.5,0.8c-0.3,0.3-0.7,0.3-1,0.3
					c-0.5,0-0.8-0.1-1.3-0.4c-0.5-0.3-0.5-0.6-0.5-0.8l0,0h0.5c0,0.3,0.1,0.6,0.5,0.7c0.3,0.2,0.5,0.2,0.8,0.2s0.5-0.2,0.8-0.3
					C68.9,179.4,69.1,179.1,69.1,178.9z"/>
				<path fill="#C9C9C9" d="M70.9,174.7h-0.3V174h0.4L70.9,174.7L70.9,174.7z M70.9,179.9h-0.3v-4h0.4L70.9,179.9L70.9,179.9z"/>
				<path fill="#C9C9C9" d="M72.6,175.9v0.7c0.1-0.3,0.3-0.4,0.5-0.5c0.3-0.2,0.5-0.3,0.8-0.3c0.5,0,0.8,0.1,1,0.4
					c0.3,0.3,0.5,0.7,0.5,1.3v2.4h-0.5v-2.4c0-0.4-0.1-0.8-0.3-0.9c-0.1-0.2-0.5-0.3-0.7-0.3s-0.5,0.1-0.8,0.3
					c-0.1,0.1-0.5,0.4-0.5,0.7v2.8h-0.4v-4L72.6,175.9L72.6,175.9z"/>
			</g>
			<g>
				<path fill="#C9C9C9" d="M69.2,189.6c0-0.1,0-0.3,0-0.5c0-0.2,0-0.1,0-0.3c-0.1,0.3-0.4,0.5-0.5,0.6c-0.3,0.1-0.5,0.3-0.8,0.3
					c-0.5,0-0.7-0.2-1-0.3c-0.3-0.3-0.3-0.6-0.3-0.8c0-0.4,0.1-0.7,0.5-0.9c0.3-0.3,0.8-0.3,1.4-0.3h0.9v-0.6c0-0.3-0.1-0.5-0.3-0.7
					c-0.1-0.1-0.4-0.3-0.8-0.3c-0.3,0-0.5,0.2-0.8,0.3c-0.3,0.2-0.3,0.4-0.3,0.6h-0.5l0,0c0-0.3,0.1-0.6,0.5-0.8
					c0.3-0.3,0.7-0.4,1-0.4c0.5,0,0.8,0.1,1.1,0.4c0.3,0.3,0.4,0.6,0.4,0.9v2.1c0,0.2,0,0.3,0,0.4c0,0.1,0,0.3,0.1,0.4h-0.8
					L69.2,189.6L69.2,189.6z M67.7,189.3c0.3,0,0.6-0.1,0.8-0.3s0.4-0.4,0.6-0.6v-0.8h-1c-0.5,0-0.7,0.2-1,0.3
					c-0.3,0.1-0.4,0.5-0.4,0.7s0.1,0.4,0.3,0.5C67.1,189.1,67.4,189.3,67.7,189.3z"/>
				<path fill="#C9C9C9" d="M71.3,186.1c0.1-0.3,0.3-0.4,0.6-0.5c0.3-0.2,0.5-0.2,0.8-0.2c0.5,0,0.8,0.2,1,0.4
					c0.3,0.3,0.4,0.7,0.4,1.3v2.5h-0.6v-2.6c0-0.4-0.1-0.8-0.3-0.9c-0.1-0.2-0.4-0.3-0.7-0.3s-0.6,0.1-0.8,0.3
					c-0.3,0.1-0.4,0.4-0.4,0.7v2.8h-0.6v-5.8h0.5v2.4L71.3,186.1L71.3,186.1z"/>
				<path fill="#C9C9C9" d="M74.8,187.5c0-0.6,0.1-1.1,0.6-1.5c0.4-0.4,0.8-0.6,1.3-0.6c0.6,0,1,0.2,1.4,0.6
					c0.4,0.4,0.5,0.8,0.5,1.5v0.1c0,0.6-0.1,1.1-0.5,1.5c-0.5,0.5-0.8,0.6-1.4,0.6c-0.5,0-0.9-0.2-1.3-0.6
					C74.8,188.7,74.8,188.2,74.8,187.5L74.8,187.5z M75.2,187.6c0,0.5,0.1,0.8,0.5,1.3c0.3,0.5,0.5,0.6,1,0.6c0.4,0,0.8-0.2,0.9-0.6
					c0.3-0.3,0.4-0.7,0.4-1.3v-0.2c0-0.4-0.1-0.8-0.4-1.3c-0.3-0.3-0.6-0.5-0.9-0.5c-0.5,0-0.8,0.1-1,0.5
					C75.4,186.7,75.2,186.9,75.2,187.6L75.2,187.6z"/>
				<path fill="#C9C9C9" d="M79.8,185.4v4.4c0,0.4-0.1,0.7-0.3,0.9c-0.1,0.3-0.6,0.4-0.8,0.4c-0.1,0-0.1,0-0.3,0c-0.1,0-0.1,0-0.3,0
					v-0.4h0.1c0.1,0,0.1,0,0.1,0c0.3,0,0.4-0.1,0.6-0.3c0.1-0.1,0.1-0.4,0.1-0.7v-4.3C79.1,185.5,79.8,185.5,79.8,185.4z
					 M79.8,184.4h-0.5v-0.7h0.5V184.4z"/>
				<path fill="#C9C9C9" d="M80.8,187.6c0-0.7,0.1-1.3,0.5-1.5c0.3-0.4,0.7-0.5,1-0.5c0.3,0,0.5,0,0.7,0.1c0.3,0.2,0.4,0.3,0.5,0.6
					v-2.4h0.5v5.8h-0.5v-0.5c-0.1,0.3-0.3,0.4-0.5,0.5c-0.3,0.2-0.5,0.2-0.8,0.2c-0.6,0-0.8-0.2-1.1-0.6
					C81,188.7,80.8,188.4,80.8,187.6L80.8,187.6z M81.4,187.6c0,0.6,0.1,1,0.3,1.3c0.2,0.3,0.6,0.5,1,0.5c0.3,0,0.5,0,0.7-0.2
					c0.1-0.2,0.4-0.3,0.4-0.6v-1.8c-0.1-0.3-0.3-0.4-0.4-0.6c-0.1-0.1-0.5-0.3-0.7-0.3c-0.5,0-0.7,0.1-1,0.6
					C81.4,186.7,81.4,187.1,81.4,187.6L81.4,187.6z"/>
			</g>
			<g>
				<path fill="#C9C9C9" d="M68.3,195.6l1.5-2.3h0.5l-1.8,2.8l1.9,2.8h-0.6l-1.6-2.5l-1.6,2.5h-0.6l1.9-2.8l-1.8-2.8h0.5L68.3,195.6
					z"/>
				<path fill="#C9C9C9" d="M73,196.4l1.6-3h0.5l-2,3.5v2.1h-0.5v-2.1l-2-3.3h0.5L73,196.4z"/>
			</g>
			<rect x="118" y="162.2" fill="#969696" width="0.9" height="21.3"/>
			<rect x="57.6" y="166.7" fill="#EF4323" width="3.7" height="3.7"/>
			<rect x="57.6" y="175.9" fill="#EF4323" width="3.7" height="3.7"/>
			<rect x="57.6" y="185.6" fill="#C9C9C9" width="3.7" height="3.7"/>
			<rect x="57.6" y="194.9" fill="#C9C9C9" width="3.7" height="3.7"/>
		</g>
		<g id="new">
			<rect x="282.5" y="124.8" display="none" fill="#E0E0E0" width="64.3" height="18.6"/>
			<polygon display="none" fill="#E0E0E0" points="282.5,124.8 258.3,143.4 282.5,143.4 			"/>
			<polygon fill="#303030" points="14,20.3 14,36.8 1.8,47.9 1.8,143.1 0,143.1 0,20.3 			"/>
			
				<text transform="matrix(1 0 0 1 306.5137 138.1566)" display="none" fill="#2B2B2B" enable-background="new    " font-family="'Roboto-Light'" font-size="12.4623">Graph</text>
			<g id="grapicon">
				<path fill="#FFFFFF" d="M11.8,29.4V30h-0.6v-0.6H11.8z M10.3,29.4V30H9.9v-0.6H10.3z M9,29.4V30H8.4v-0.6H9z M7.5,29.4V30H6.9
					v-0.6H7.5z M6,29.4V30H5.6v-0.6H6z M4.6,29.4V30H4v-0.6H4.6z M3.1,29.4V30H2.5v-0.6H3.1z M1.6,29.4V30H1.3v-0.6H1.6z"/>
				<path fill="#FFFFFF" d="M6.9,21.5L6.9,21.5H6.3l0,0H6.9z M6.9,22.6v0.6H6.3v-0.6H6.9z M6.9,24.1v0.4H6.3v-0.6h0.6V24.1z
					 M6.9,25.5V26H6.3v-0.6H6.9z M6.9,27v0.6H6.3V27H6.9z M6.9,28.5V29H6.3v-0.6H6.9z M6.9,29.8v0.6H6.3v-0.6H6.9z M6.9,31.3v0.6
					H6.3v-0.6H6.9z M6.9,32.8v0.6H6.3v-0.6H6.9z M6.9,34.3v0.6H6.3v-0.6H6.9z M6.9,35.7v0.6H6.3v-0.6H6.9z M6.9,37.2v0.6H6.3v-0.6
					H6.9z"/>
				<path display="none" fill="#FFFFFF" d="M11.7,22.2v14.1H1.8V22.2H11.7z M11.3,36V22.7h-9V36H11.3z"/>
				<polygon fill="#ED1A46" points="4.6,34.7 3.3,27.3 2.2,31 1.8,31 3.6,26.2 4.8,33.3 5.8,28.7 7.1,31.7 9.5,26.7 10.8,30.2 
					12.3,27.7 12.5,27.8 10.8,30.9 9.5,27.3 7.1,32.4 5.8,29.5 				"/>
			</g>
		</g>
	</g>
</g>
<g id="description">
	<path fill="#EF0000" d="M96.2,158.3c-2.1,0-3.8-1.8-3.8-3.9c0-2.1,1.8-3.8,3.8-3.8s3.8,1.8,3.8,3.8
		C100.1,156.6,98.3,158.3,96.2,158.3z M96.2,151.1c-1.8,0-3.3,1.5-3.3,3.3c0,1.9,1.5,3.4,3.3,3.4s3.3-1.5,3.3-3.4
		C99.6,152.6,98.1,151.1,96.2,151.1z"/>
	<polygon fill="#EF0000" points="98.8,152.1 98.5,151.7 117.6,132.6 235,132.6 235,133.1 117.8,133.1 	"/>
	<g enable-background="new    ">
		<path fill="#191919" d="M122.5,122.6v6h1.2v0.8h-3.4v-0.8h1.4v-4.9l-1.3,1l-0.4-0.7l2-1.5H122.5z"/>
		<path fill="#191919" d="M126.1,128.1c0.3,0,0.7,0.3,0.7,0.7c0,0.4-0.3,0.6-0.7,0.6c-0.3,0-0.7-0.3-0.7-0.6
			C125.4,128.4,125.7,128.1,126.1,128.1z"/>
		<path fill="#191919" d="M130.9,128.6l3.6-5.2H131v-0.8h4.5v0.7l-3.6,5.3h3.8v0.8h-4.8C130.9,129.4,130.9,128.6,130.9,128.6z"/>
		<path fill="#191919" d="M138.8,124.2c0.6,0,1.1,0.3,1.4,0.5v-0.4h0.8v3.8c0,0.5,0.3,0.6,0.6,0.6l-0.2,0.7c-0.7,0-1-0.3-1.1-0.8
			c-0.3,0.4-0.8,0.8-1.6,0.8c-1.3,0-2.3-1-2.3-2.6C136.4,125.3,137.4,124.2,138.8,124.2z M140.1,128.1v-2.7
			c-0.4-0.3-0.8-0.4-1.3-0.4c-1,0-1.6,0.8-1.6,1.8s0.6,1.8,1.6,1.8C139.4,128.7,139.8,128.4,140.1,128.1z"/>
		<path fill="#191919" d="M142.3,126.8c0-1.5,1-2.6,2.3-2.6c0.6,0,1.1,0.3,1.4,0.6v-2.7h0.9v6c0,0.5,0.3,0.6,0.5,0.6l-0.2,0.7
			c-0.6,0-1-0.3-1.1-0.8c-0.3,0.4-0.8,0.8-1.6,0.8C143.3,129.4,142.3,128.4,142.3,126.8z M145.9,128.1v-2.5
			c-0.3-0.3-0.7-0.6-1.3-0.6c-0.9,0-1.6,0.8-1.6,1.8c0,1,0.7,1.8,1.6,1.8C145.2,128.7,145.6,128.4,145.9,128.1z"/>
		<path fill="#191919" d="M150.5,124.2c0.6,0,1.1,0.3,1.4,0.5v-0.4h0.8v3.8c0,0.5,0.3,0.6,0.6,0.6l-0.2,0.7c-0.7,0-1-0.3-1.1-0.8
			c-0.3,0.4-0.8,0.8-1.6,0.8c-1.3,0-2.3-1-2.3-2.6C148.1,125.3,149.1,124.2,150.5,124.2z M151.8,128.1v-2.7
			c-0.4-0.3-0.8-0.4-1.3-0.4c-0.9,0-1.6,0.8-1.6,1.8s0.6,1.8,1.6,1.8C151.1,128.7,151.5,128.4,151.8,128.1z"/>
		<path fill="#191919" d="M155.3,125.2c0.4-0.6,0.9-0.9,1.7-0.9c1.2,0,1.7,0.8,1.7,1.8v3.3h-0.8v-3.1c0-0.7-0.3-1.2-0.9-1.2
			s-1.2,0.5-1.5,1.1v3.3h-0.9v-5h0.9v0.8H155.3z"/>
		<path fill="#191919" d="M159.4,131.4l0.2-0.7c0.1,0.1,0.4,0.2,0.7,0.2c0.6,0,0.9-0.3,1.3-1.3l0.2-0.6h-0.5l-1.9-4.4l0.8-0.3
			l1.9,4.2l1.4-4.2l0.8,0.3l-1.9,5.1c-0.6,1.5-1.3,2-2.2,2C159.9,131.6,159.6,131.5,159.4,131.4z M161,123.2l1.8-1.2l0.4,0.8l-1.9,1
			L161,123.2z"/>
		<path fill="#191919" d="M167.4,124.6l0.8-0.3l1.7,4.2l1.7-4.2l0.8,0.3l-2.1,4.8h-0.9L167.4,124.6z"/>
		<path fill="#191919" d="M172.5,131.4l0.2-0.7c0.2,0.1,0.4,0.2,0.7,0.2c0.6,0,1-0.3,1.4-1.3l0.2-0.6h-0.4l-2-4.4l0.8-0.3l1.9,4.2
			l1.4-4.1l0.8,0.3l-1.9,5.1c-0.6,1.5-1.3,2-2.2,2C172.9,131.6,172.6,131.5,172.5,131.4z M174.1,123.2l1.8-1.2l0.4,0.8l-1.9,1
			L174.1,123.2z"/>
		<path fill="#191919" d="M180.9,125.2c-0.1-0.1-0.3-0.1-0.4-0.1c-0.7,0-1.4,0.6-1.4,1.9v2.3h-0.9v-5h0.9v1.1
			c0.3-0.7,0.8-1.2,1.6-1.2c0.2,0,0.4,0,0.6,0L180.9,125.2z"/>
		<path fill="#191919" d="M183.9,124.2c0.6,0,1,0.3,1.4,0.5v-0.4h0.8v3.8c0,0.5,0.3,0.6,0.6,0.6l-0.2,0.7c-0.6,0-1-0.3-1.1-0.8
			c-0.3,0.4-0.8,0.8-1.6,0.8c-1.3,0-2.3-1-2.3-2.6C181.4,125.3,182.4,124.2,183.9,124.2z M185.1,128.1v-2.7
			c-0.3-0.3-0.8-0.4-1.3-0.4c-0.9,0-1.5,0.8-1.5,1.8s0.6,1.8,1.5,1.8C184.4,128.7,184.9,128.4,185.1,128.1z"/>
		<path fill="#191919" d="M187.4,124.3h3.8v0.7l-2.8,3.6h2.8v0.8h-3.9v-0.7l2.8-3.6h-2.7L187.4,124.3L187.4,124.3z"/>
		<path fill="#191919" d="M195.3,124.3h0.8v5.5c0,1.2-0.7,1.7-1.6,1.7c-0.4,0-0.7-0.1-1-0.2l0.2-0.7c0.1,0.1,0.4,0.2,0.6,0.2
			c0.6,0,0.8-0.3,0.8-1L195.3,124.3L195.3,124.3z M195.1,122.8c0-0.3,0.3-0.6,0.6-0.6s0.6,0.3,0.6,0.6c0,0.4-0.3,0.6-0.6,0.6
			S195.1,123.2,195.1,122.8z"/>
		<path fill="#191919" d="M198.3,127.2c0.1,0.9,0.7,1.5,1.6,1.5c0.6,0,1-0.1,1.4-0.3l0.2,0.8c-0.4,0.2-1.1,0.3-1.8,0.3
			c-1.4,0-2.3-0.9-2.3-2.6c0-1.5,0.9-2.7,2.3-2.7c1.4,0,2.1,1.1,2.1,2.3c0,0.3,0,0.5-0.1,0.7L198.3,127.2L198.3,127.2z M198.3,126.5
			h2.8c0-0.9-0.5-1.5-1.4-1.5C198.9,125,198.4,125.5,198.3,126.5z"/>
		<path fill="#191919" d="M208.6,123.2c-0.3-0.2-0.5-0.3-0.9-0.3c-0.6,0-0.9,0.4-0.9,1v0.7h1.5v0.8h-1.5v4.1H206v-4.1h-0.8v-0.8h0.8
			v-0.6c0-1.2,0.7-1.8,1.7-1.8c0.6,0,0.9,0.2,1.3,0.3L208.6,123.2z"/>
		<path fill="#191919" d="M213.7,129.4c-0.6,0-0.9-0.3-1.1-0.7c-0.5,0.4-1.1,0.8-1.8,0.8c-0.9,0-1.7-0.5-1.7-1.8v-3.3h0.9v3.2
			c0,0.8,0.4,1.2,1,1.2c0.6,0,1.1-0.3,1.4-0.6v-3.7h0.8v3.7c0,0.5,0.3,0.7,0.6,0.7L213.7,129.4z"/>
		<path fill="#191919" d="M215.9,125.2c0.4-0.6,0.9-0.9,1.7-0.9c1.1,0,1.7,0.8,1.7,1.8v3.3h-0.8v-3.1c0-0.7-0.3-1.2-0.9-1.2
			s-1.1,0.5-1.5,1.1v3.3h-0.9v-5h0.9v0.8H215.9z"/>
		<path fill="#191919" d="M220.8,122.2h0.9v4.1l2.3-2.1l0.5,0.6l-2,1.7l2.4,2.4l-0.6,0.6l-2.6-2.6v2.6h-0.8L220.8,122.2L220.8,122.2
			z"/>
		<path fill="#191919" d="M228.8,125.3c-0.4-0.2-0.6-0.3-1.1-0.3c-0.9,0-1.6,0.7-1.6,1.8c0,1.1,0.6,1.8,1.5,1.8
			c0.5,0,0.8-0.1,1.2-0.3l0.3,0.7c-0.4,0.2-0.9,0.4-1.5,0.4c-1.5,0-2.4-1.1-2.4-2.7c0-1.4,0.9-2.6,2.4-2.6c0.6,0,0.9,0.1,1.3,0.3
			L228.8,125.3z"/>
		<path fill="#191919" d="M230.6,127.2c0.1,0.9,0.7,1.5,1.6,1.5c0.6,0,1-0.1,1.4-0.3l0.2,0.8c-0.4,0.2-1.1,0.3-1.8,0.3
			c-1.4,0-2.4-0.9-2.4-2.6c0-1.5,0.9-2.7,2.3-2.7c1.5,0,2.2,1.1,2.2,2.3c0,0.3,0,0.5-0.1,0.7L230.6,127.2L230.6,127.2z M230.6,126.5
			h2.8c0-0.9-0.5-1.5-1.4-1.5C231.1,125,230.6,125.5,230.6,126.5z"/>
	</g>
	<path fill="#EF0000" d="M13.6,41.5c-2.1,0-3.8-1.8-3.8-3.8s1.8-3.8,3.8-3.8s3.8,1.8,3.8,3.8S15.7,41.5,13.6,41.5z M13.6,34.3
		c-1.8,0-3.3,1.5-3.3,3.3s1.5,3.3,3.3,3.3s3.3-1.5,3.3-3.3S15.4,34.3,13.6,34.3z"/>
	<g enable-background="new    ">
		<path fill="#191919" d="M32.7,63.8c0-0.1-0.1-0.3-0.1-0.3c0-2.5,3.1-3.3,3.1-4.8c0-0.6-0.4-0.9-1.1-0.9c-0.6,0-0.9,0.3-1.3,0.6
			l-0.5-0.6c0.5-0.4,1.1-0.8,1.9-0.8c1.2,0,1.9,0.7,1.9,1.7c0,1.8-2.8,2.7-3,4.5h2.9v0.8L32.7,63.8L32.7,63.8z"/>
		<path fill="#191919" d="M39.1,62.6c0.3,0,0.7,0.3,0.7,0.7c0,0.4-0.3,0.7-0.7,0.7c-0.3,0-0.7-0.3-0.7-0.7
			C38.4,62.9,38.7,62.6,39.1,62.6z"/>
		<path fill="#191919" d="M43.8,63.1l3.6-5.3H44V57h4.5v0.7L44.9,63h3.8v0.8h-4.8V63.1z"/>
		<path fill="#191919" d="M51.9,58.7c1.4,0,2.5,1,2.5,2.6s-1.1,2.7-2.5,2.7s-2.5-1-2.5-2.7C49.4,59.7,50.4,58.7,51.9,58.7z
			 M51.9,59.5c-1,0-1.6,0.8-1.6,1.8c0,1,0.7,1.8,1.6,1.8c1,0,1.6-0.8,1.6-1.8C53.5,60.3,52.8,59.5,51.9,59.5z"/>
		<path fill="#191919" d="M55.6,56.7h0.8v2.7c0.3-0.3,0.8-0.7,1.4-0.7c1.2,0,2.2,0.9,2.2,2.6c0,1.6-1.2,2.7-2.3,2.7
			c-0.6,0-1.1-0.3-1.4-0.5v0.4h-0.8C55.5,63.8,55.5,56.7,55.6,56.7z M57.7,59.4c-0.6,0-1,0.3-1.3,0.7v2.7c0.3,0.3,0.7,0.4,1.2,0.4
			c0.9,0,1.6-0.8,1.6-1.8C59.2,60.1,58.5,59.4,57.7,59.4z"/>
		<path fill="#191919" d="M64,59.6c-0.1-0.1-0.3-0.1-0.5-0.1c-0.7,0-1.4,0.6-1.4,1.9v2.3h-0.8v-5h0.8v1.1c0.3-0.7,0.8-1.2,1.6-1.2
			c0.2,0,0.4,0,0.5,0.1L64,59.6z"/>
		<path fill="#191919" d="M66.9,58.7c0.6,0,1,0.3,1.4,0.5v-0.4h0.8v3.8c0,0.5,0.3,0.6,0.5,0.6l-0.2,0.7c-0.6,0-1-0.3-1.1-0.8
			c-0.3,0.4-0.8,0.8-1.6,0.8c-1.3,0-2.3-1-2.3-2.6C64.5,59.8,65.5,58.7,66.9,58.7z M68.2,62.5v-2.7c-0.3-0.3-0.8-0.4-1.3-0.4
			c-0.9,0-1.5,0.8-1.5,1.8s0.7,1.8,1.5,1.8C67.4,63.2,67.9,62.9,68.2,62.5z"/>
		<path fill="#191919" d="M70.4,58.8h3.8v0.7l-2.8,3.6h2.8v0.8h-3.9v-0.7l2.8-3.6h-2.7L70.4,58.8L70.4,58.8z"/>
		<path fill="#191919" d="M74.7,57.7l1.8-1.2l0.4,0.8l-2,1L74.7,57.7z M76.2,63.8h-0.8v-5h0.8V63.8z"/>
		<path fill="#191919" d="M80.6,62.7c0.3,0.3,0.8,0.5,1.5,0.5c0.7,0,1.1-0.3,1.1-0.7s-0.3-0.7-1.3-1c-0.9-0.3-1.4-0.7-1.4-1.5
			c0-0.8,0.7-1.4,1.9-1.4c0.7,0,1.2,0.2,1.6,0.3l-0.3,0.7c-0.3-0.2-0.8-0.3-1.3-0.3c-0.7,0-1,0.3-1,0.7s0.2,0.5,1,0.8
			c1.3,0.4,1.7,0.9,1.7,1.7c0,0.9-0.8,1.5-2,1.5c-0.8,0-1.4-0.2-1.8-0.5L80.6,62.7z"/>
		<path fill="#191919" d="M85.8,61.7c0.1,1,0.7,1.5,1.6,1.5c0.6,0,1-0.2,1.4-0.3l0.2,0.8c-0.4,0.2-1,0.3-1.8,0.3
			c-1.4,0-2.3-1-2.3-2.7c0-1.5,0.9-2.7,2.3-2.7c1.4,0,2.1,1.1,2.1,2.3c0,0.3,0,0.5,0,0.7L85.8,61.7L85.8,61.7z M85.7,61h2.8
			c0-0.9-0.5-1.5-1.4-1.5C86.3,59.4,85.8,60,85.7,61z"/>
		<path fill="#191919" d="M93.7,57.4h0.7V59h1.4v0.8h-1.4v2.4c0,0.8,0.3,1,0.8,1c0.3,0,0.6-0.1,0.8-0.3l0.3,0.7
			C96,63.8,95.5,64,95.1,64c-1,0-1.6-0.7-1.6-1.8v-2.4h-0.8V59h0.9L93.7,57.4z"/>
		<path fill="#191919" d="M97.9,62.2c0,0.7,0.3,1,0.8,1c0.3,0,0.5,0,0.7-0.2l0.2,0.7c-0.3,0.1-0.6,0.2-1,0.2c-0.9,0-1.5-0.5-1.5-1.7
			v-5.5h0.8L97.9,62.2L97.9,62.2z"/>
		<path fill="#191919" d="M102.3,58.7c0.6,0,1.1,0.3,1.4,0.5v-0.4h0.8v3.8c0,0.5,0.3,0.6,0.5,0.6l-0.2,0.7c-0.6,0-1-0.3-1.1-0.8
			c-0.3,0.4-0.8,0.8-1.5,0.8c-1.3,0-2.3-1-2.3-2.6C99.9,59.8,100.9,58.7,102.3,58.7z M103.7,62.5v-2.7c-0.3-0.3-0.8-0.4-1.3-0.4
			c-1,0-1.6,0.8-1.6,1.8s0.7,1.8,1.6,1.8C102.9,63.2,103.3,62.9,103.7,62.5z"/>
	</g>
	<g enable-background="new    ">
		<path fill="#191919" d="M110,63.6c-0.2,0.1-0.7,0.3-1.3,0.3c-1.4,0-2.3-1-2.3-2.4s1-2.5,2.5-2.5c0.5,0,0.9,0.2,1.2,0.3l-0.2,0.7
			c-0.2-0.1-0.5-0.2-1-0.2c-1.1,0-1.7,0.8-1.7,1.8c0,1.1,0.7,1.8,1.6,1.8c0.5,0,0.8-0.2,1.1-0.3L110,63.6z M108.2,58.5l-0.9-1.4h0.6
			l0.6,0.9l0,0l0.6-0.9h0.6l-0.9,1.4H108.2z"/>
		<path fill="#191919" d="M112.7,57.1l-1.2,1.4h-0.6l0.8-1.4H112.7z M111,63.8v-4.7h0.8v4.7H111z"/>
		<path fill="#191919" d="M114.3,57.8v1.3h1.2v0.7h-1.2v2.5c0,0.6,0.1,0.9,0.6,0.9c0.2,0,0.4,0,0.5,0l0.1,0.7
			c-0.2,0-0.4,0.1-0.8,0.1c-0.4,0-0.7-0.2-0.9-0.3c-0.3-0.3-0.3-0.7-0.3-1.2v-2.6h-0.7v-0.7h0.7v-1.1L114.3,57.8z"/>
		<path fill="#191919" d="M117.3,61.3L117.3,61.3c0.1-0.2,0.3-0.3,0.4-0.6l1.3-1.6h1l-1.8,1.9l2,2.8h-1l-1.6-2.3l-0.4,0.5v1.8h-0.8
			v-6.8h0.8L117.3,61.3L117.3,61.3z"/>
		<path fill="#191919" d="M125.2,61.4c0,1.8-1.2,2.5-2.3,2.5c-1.3,0-2.3-1-2.3-2.4c0-1.6,1-2.5,2.3-2.5
			C124.3,59,125.2,60,125.2,61.4z M121.5,61.5c0,1,0.6,1.8,1.4,1.8c0.8,0,1.4-0.8,1.4-1.8c0-0.8-0.4-1.8-1.4-1.8
			C121.9,59.7,121.5,60.6,121.5,61.5z"/>
		<path fill="#191919" d="M128.3,60.4c0-0.5,0-0.9-0.1-1.3h0.8l0.1,0.8l0,0c0.3-0.4,0.8-0.9,1.6-0.9c0.6,0,1.6,0.4,1.6,2v2.8h-0.9
			v-2.7c0-0.8-0.3-1.4-1.1-1.4c-0.6,0-1,0.4-1.2,0.8c0,0.1,0,0.3,0,0.4v2.8h-0.8V60.4z"/>
		<path fill="#191919" d="M136.3,63.8l-0.1-0.6h-0.1c-0.3,0.3-0.8,0.7-1.4,0.7c-0.9,0-1.4-0.7-1.4-1.3c0-1.2,1-1.7,2.8-1.7v-0.1
			c0-0.4-0.1-1.1-1.1-1.1c-0.4,0-0.9,0.2-1.2,0.3l-0.2-0.6c0.4-0.3,0.9-0.4,1.5-0.4c1.5,0,1.8,0.9,1.8,1.9v1.8c0,0.4,0,0.8,0.1,1.1
			L136.3,63.8L136.3,63.8z M136.1,61.4c-0.9,0-2,0.2-2,1c0,0.5,0.4,0.8,0.8,0.8c0.6,0,1-0.4,1.2-0.8c0-0.1,0-0.2,0-0.3V61.4z"/>
	</g>
	<g enable-background="new    ">
		<path fill="#191919" d="M32.1,74.9l2.1-2.8c0.2-0.3,0.4-0.5,0.6-0.7l0,0h-2.6v-0.7h3.6v0.6L33.7,74c-0.2,0.3-0.4,0.5-0.6,0.8l0,0
			h2.8v0.7H32L32.1,74.9L32.1,74.9z"/>
		<path fill="#191919" d="M40.8,73c0,1.8-1.2,2.5-2.3,2.5c-1.3,0-2.3-0.9-2.3-2.4c0-1.5,1-2.5,2.3-2.5C39.9,70.6,40.8,71.6,40.8,73z
			 M37.2,73.1c0,1,0.6,1.8,1.4,1.8s1.4-0.8,1.4-1.8c0-0.8-0.4-1.8-1.4-1.8C37.6,71.3,37.2,72.2,37.2,73.1z"/>
		<path fill="#191919" d="M41.9,75.4c0-0.3,0.1-0.8,0.1-1.2v-5.6h0.8v2.9l0,0c0.3-0.5,0.8-0.8,1.6-0.8c1.2,0,2,1,1.9,2.4
			c0,1.7-1.1,2.5-2.1,2.5c-0.7,0-1.2-0.3-1.6-0.9h-0.1l-0.1,0.8H41.9z M42.8,73.5c0,0.1,0,0.2,0.1,0.3c0.2,0.6,0.7,1,1.3,1
			c0.9,0,1.4-0.7,1.4-1.8c0-0.9-0.5-1.8-1.4-1.8c-0.6,0-1.1,0.4-1.3,1.1c0,0.1-0.1,0.2-0.1,0.3L42.8,73.5L42.8,73.5z"/>
		<path fill="#191919" d="M47.4,72.2c0-0.5,0-1-0.1-1.4h0.8l0.1,0.9h0.1c0.2-0.7,0.7-1,1.3-1c0.1,0,0.2,0,0.3,0v0.8
			c-0.1,0-0.2-0.1-0.3-0.1c-0.6,0-1,0.5-1.2,1.1c0,0.1-0.1,0.3-0.1,0.4v2.5h-0.8V72.2z"/>
		<path fill="#191919" d="M53.1,75.4L53,74.8H53c-0.3,0.3-0.8,0.7-1.4,0.7c-0.9,0-1.4-0.6-1.4-1.3c0-1.2,1-1.8,2.8-1.8v-0.1
			c0-0.4-0.1-1.1-1.1-1.1c-0.4,0-0.9,0.1-1.2,0.3L50.5,71c0.4-0.3,0.9-0.4,1.6-0.4c1.4,0,1.8,0.9,1.8,1.9v1.8c0,0.4,0,0.8,0.1,1.1
			L53.1,75.4L53.1,75.4z M53,73c-0.9,0-2,0.2-2,1.1c0,0.5,0.3,0.8,0.8,0.8c0.6,0,1-0.4,1.2-0.8c0.1-0.1,0.1-0.2,0.1-0.3
			C53,73.8,53,73,53,73z"/>
		<path fill="#191919" d="M54.7,74.9l2.1-2.8c0.2-0.3,0.4-0.5,0.6-0.7l0,0h-2.6v-0.7h3.6v0.6L56.3,74c-0.2,0.3-0.4,0.5-0.6,0.8l0,0
			h2.8v0.7h-3.8L54.7,74.9L54.7,74.9z"/>
		<path fill="#191919" d="M59.8,73.2c0,1.2,0.8,1.6,1.6,1.6c0.6,0,1-0.1,1.3-0.3l0.2,0.6c-0.3,0.2-0.8,0.3-1.5,0.3
			c-1.4,0-2.3-0.9-2.3-2.3s0.8-2.5,2.2-2.5c1.5,0,2,1.3,2,2.2c0,0.1,0,0.3,0,0.4H59.8z M62.2,72.6c0-0.6-0.2-1.4-1.2-1.4
			c-0.8,0-1.3,0.8-1.3,1.4H62.2z"/>
		<path fill="#191919" d="M64.1,72c0-0.5,0-0.9,0-1.3h0.8l0,0.8l0,0c0.3-0.4,0.8-0.9,1.5-0.9c0.7,0,1.7,0.4,1.7,2v2.8h-0.9v-2.7
			c0-0.8-0.3-1.4-1.1-1.4c-0.6,0-1,0.4-1.2,0.8c0,0.1,0,0.3,0,0.4v2.8h-0.8L64.1,72L64.1,72z"/>
		<path fill="#191919" d="M71.2,68.7l-1.2,1.4h-0.6l0.8-1.4H71.2z M69.4,75.4v-4.7h0.9v4.7H69.4z"/>
		<path fill="#191919" d="M77.8,70.7c0,0.4-0.1,0.7-0.1,1.3v2.7c0,1.1-0.2,1.8-0.7,2.2c-0.5,0.4-1.1,0.5-1.7,0.5
			c-0.5,0-1.2-0.2-1.5-0.4l0.2-0.7c0.3,0.2,0.8,0.3,1.3,0.3c0.9,0,1.5-0.4,1.5-1.7v-0.5l0,0c-0.3,0.5-0.8,0.8-1.5,0.8
			c-1.1,0-2-1-2-2.3c0-1.6,1.1-2.5,2.1-2.5c0.8,0,1.3,0.4,1.4,0.8l0,0l0.1-0.7L77.8,70.7L77.8,70.7z M76.9,72.6c0-0.2,0-0.3,0-0.4
			c-0.2-0.5-0.6-0.9-1.2-0.9c-0.8,0-1.4,0.7-1.4,1.8c0,0.9,0.4,1.7,1.4,1.7c0.5,0,1-0.3,1.2-0.8c0-0.2,0-0.3,0-0.5V72.6z"/>
		<path fill="#191919" d="M79.1,72.2c0-0.5,0-1,0-1.4h0.8l0,0.9h0c0.2-0.7,0.7-1,1.3-1c0.1,0,0.2,0,0.3,0v0.8
			c-0.1,0-0.2-0.1-0.3-0.1c-0.6,0-1,0.5-1.1,1.1c0,0.1-0.1,0.3-0.1,0.4v2.5h-0.8V72.2z"/>
		<path fill="#191919" d="M84.8,75.4l-0.1-0.6h-0.1c-0.3,0.3-0.8,0.7-1.4,0.7c-0.9,0-1.4-0.6-1.4-1.3c0-1.2,1-1.8,2.8-1.8v-0.1
			c0-0.4-0.1-1.1-1-1.1c-0.5,0-0.9,0.1-1.2,0.3L82.1,71c0.4-0.3,1-0.4,1.6-0.4c1.4,0,1.8,0.9,1.8,1.9v1.8c0,0.4,0,0.8,0.1,1.1
			L84.8,75.4L84.8,75.4z M84.7,73c-1,0-2,0.2-2,1.1c0,0.5,0.3,0.8,0.8,0.8c0.6,0,1-0.4,1.2-0.8c0-0.1,0-0.2,0-0.3V73z"/>
		<path fill="#191919" d="M86.9,75.4v-4h-0.6v-0.7h0.6v-0.2c0-0.7,0.2-1.3,0.6-1.7c0.3-0.3,0.8-0.4,1.2-0.4c0.3,0,0.5,0.1,0.7,0.2
			l-0.1,0.7c-0.1-0.1-0.3-0.1-0.5-0.1c-0.7,0-0.9,0.7-0.9,1.3v0.3H89v0.7h-1.2v4H86.9z"/>
		<path fill="#191919" d="M93.6,74.1c0,0.5,0,0.9,0.1,1.3h-0.8l0-0.8l0,0c-0.2,0.4-0.7,0.8-1.6,0.8c-0.8,0-1.6-0.4-1.6-2v-2.8h0.8
			v2.6c0,0.9,0.3,1.5,1.1,1.5c0.5,0,0.9-0.4,1.1-0.8c0.1-0.2,0.1-0.3,0.1-0.4v-2.9h0.8L93.6,74.1L93.6,74.1z"/>
	</g>
	<polygon fill="#EF0000" points="136.9,54.1 28.5,54.1 15.3,40.9 15.6,40.6 28.7,53.6 136.9,53.6 	"/>
</g>
</svg>
