<?xml version="1.0" encoding="utf-8"?>
<!-- Generator: Adobe Illustrator 18.0.0, SVG Export Plug-In . SVG Version: 6.00 Build 0)  -->
<!DOCTYPE svg PUBLIC "-//W3C//DTD SVG 1.1//EN" "http://www.w3.org/Graphics/SVG/1.1/DTD/svg11.dtd">
<svg version="1.1" id="Vrstva_1" xmlns="http://www.w3.org/2000/svg" xmlns:xlink="http://www.w3.org/1999/xlink" x="0px" y="0px"
	 viewBox="-250 -250 1000 473.8" enable-background="new -250 -250 1000 473.8" xml:space="preserve">
<g id="Vrstva_1_1_">
	<g id="error" display="none">
		<rect x="0.8" y="440.4" display="inline" opacity="0.9" enable-background="new    " width="499.7" height="216.5"/>
		<rect x="0.4" y="490.2" display="inline" fill="#ED1D2B" width="500" height="94"/>
		
			<text transform="matrix(1 0 0 1 35.2671 523.521)" display="inline" fill="#FFFFFF" font-family="'Roboto-Light'" font-size="28.5514">Error</text>
		
			<text transform="matrix(1 0 0 1 37.5327 555.5444)" display="inline" fill="#FFFFFF" font-family="'Roboto-Light'" font-size="13.5959">Naskytla se nějaká chyba.</text>
		<rect x="406.4" y="558.3" display="inline" fill="none" stroke="#FFFFFF" stroke-miterlimit="10" width="78" height="16.7"/>
		
			<text transform="matrix(1 0 0 1 439.1992 571.9663)" display="inline" fill="#FFFFFF" font-family="'Roboto-Light'" font-size="12.9465">Ok</text>
	</g>
	<g>
		<g id="input">
			<rect x="-197.8" y="33.9" fill="#F2F2F2" width="570.9" height="187.1"/>
			<g>
				<path fill="#A09F9F" d="M-140.3,64.4c0.9,0.9,2.1,1.4,3.5,1.4c1.9,0,2.7-0.5,2.7-1.6s-0.5-1.6-3.2-2.5c-2.5-0.9-3.5-1.9-3.5-3.7
					c0-1.9,1.9-3.5,4.9-3.5c1.6,0,2.7,0.2,3.7,0.9l-0.5,1.9c-0.9-0.5-1.9-0.9-3.2-0.9c-1.6,0-2.5,0.9-2.5,1.6c0,0.9,0.5,1.4,2.5,1.9
					c3.2,1.1,4.4,2.1,4.4,4.1c0,2.1-1.9,3.5-4.9,3.5c-1.9,0-3.5-0.5-4.4-1.4L-140.3,64.4z"/>
				<path fill="#A09F9F" d="M-129,51c0-0.9,0.5-1.6,1.6-1.6c0.9,0,1.6,0.9,1.6,1.6c0,0.9-0.5,1.6-1.6,1.6
					C-128.5,52.4-129,51.7-129,51z M-126.6,67h-2.1V54.5h2.1C-126.6,54.5-126.6,67-126.6,67z"/>
				<path fill="#A09F9F" d="M-120.6,56.7c0.9-1.4,2.1-2.5,4.4-2.5c2.7,0,4.4,1.9,4.4,4.6v8.1h-2.1V59c0-1.9-0.9-3-2.5-3
					c-1.4,0-3,1.1-3.7,2.7v8.1h-2.1V54.3h2.1v2.1L-120.6,56.7L-120.6,56.7z"/>
				<path fill="#A09F9F" d="M-104.5,69.5l-1.4,0.9c-1.9-3.5-3.2-7.1-3.2-10.6c0-4.1,1.1-7.4,3.2-10.6l1.4,0.9
					c-1.1,2.7-2.1,6-2.1,10.1C-106.8,64-105.6,66.5-104.5,69.5z"/>
				<path fill="#A09F9F" d="M-97.3,58.6l-5.4-7.1l1.9-1.4l4.9,6.7l4.9-6.7l1.9,1.4l-5.1,7.1l5.7,7.6l-1.9,1.4l-5.5-7.4l-5.1,7.1
					l-1.9-1.4L-97.3,58.6z"/>
				<path fill="#A09F9F" d="M-81.1,58.6l5.1-8.4l1.9,1.1l-5.7,9.5v6.5h-2.1v-6.4l-6-9.5l1.9-1.1L-81.1,58.6z"/>
				<path fill="#A09F9F" d="M-72.8,49.4l1.4-0.9c1.9,3.2,3.2,6.7,3.2,10.6c0,3.7-1.1,7.1-3.2,10.6l-1.4-0.9c1.1-2.7,2.1-6,2.1-10.1
					C-70.5,54.7-71.4,52.1-72.8,49.4z"/>
			</g>
			<rect x="376.1" y="36" fill="#ED1A46" width="67.5" height="186.9"/>
			<rect x="397" y="123.4" fill="#FFFFFF" width="25.9" height="4.1"/>
			<rect x="397" y="136.4" fill="#FFFFFF" width="25.9" height="4.1"/>
		</g>
		<g id="frame">
			<rect x="-250" y="-250.3" fill="#303030" width="998.3" height="40.9"/>
			<g id="close_button">
				<rect x="708.7" y="-250.3" fill="#C82027" width="40.9" height="40.9"/>
				<g>
					<path fill="#FFFFFF" d="M-232-229l-6.5,8.4h10.6v1.4h-12.5v-1.1l6.7-9l-6.7-7.9v-1.4h12.5v1.4h-10.4l0,0l6.2,7.6
						C-232-229.7-232-229-232-229z"/>
				</g>
				<polygon fill="#FFFFFF" points="-228,-237.3 -228.8,-237.3 -228,-236.2 				"/>
				<polygon fill="#FFFFFF" points="-228,-220.7 -228.8,-220.7 -228,-221.4 				"/>
				<rect x="-239.2" y="-232.3" fill="#C82027" width="9.7" height="1.6"/>
				<rect x="-239.2" y="-227.4" fill="#C82027" width="9.7" height="1.6"/>
				
					<rect x="728.5" y="-246.1" transform="matrix(0.7071 -0.7071 0.7071 0.7071 376.2656 448.0945)" fill="#E1E1E1" width="1.1" height="31.9"/>
				
					<rect x="728.3" y="-246" transform="matrix(-0.7071 -0.7071 0.7071 -0.7071 1406.9427 122.671)" fill="#E1E1E1" width="1.1" height="31.9"/>
			</g>
			<g>
				<path fill="#F7F7F7" d="M-214.9-219.3v-19.6h5.7c1.9,0,3.5,0.5,4.9,1.4c1.1,0.9,1.6,2.1,1.6,3.7c0,1.1-0.2,1.9-0.9,2.7
					c-0.5,0.9-1.4,1.4-2.5,1.6c1.1,0.2,2.1,0.9,3,1.6c0.9,0.9,1.1,1.9,1.1,3.2c0,1.6-0.5,3-1.6,4.1c-1.1,0.9-2.7,1.4-4.6,1.4
					L-214.9-219.3C-214.9-219-214.9-219.3-214.9-219.3z M-213.3-230.2h4.6c1.4,0,2.5-0.2,3.2-0.9c0.9-0.5,1.1-1.6,1.1-2.7
					c0-1.4-0.5-2.1-1.4-2.7c-0.9-0.5-1.9-0.9-3.5-0.9h-4.1C-213.3-237.3-213.3-230.2-213.3-230.2z M-213.3-228.8v8.1h5.1
					c1.4,0,2.5-0.2,3.5-1.1c0.9-0.9,1.4-1.6,1.4-3c0-1.1-0.2-2.1-1.1-3c-0.9-0.9-1.9-1.1-3.2-1.1
					C-207.5-228.8-213.3-228.8-213.3-228.8z"/>
				<path fill="#F7F7F7" d="M-188.8-219.3c0-0.5-0.2-0.9-0.2-1.4c0-0.2,0-0.9,0-1.1c-0.5,0.9-1.4,1.4-2.1,1.9
					c-0.9,0.5-1.9,0.9-3,0.9c-1.4,0-2.5-0.3-3.2-1.1s-1.1-1.6-1.1-3c0-1.4,0.5-2.5,1.6-3.2c1.1-0.9,2.7-1.1,4.6-1.1h3.2v-1.9
					c0-1.1-0.2-1.9-1.1-2.5c-0.9-0.5-1.6-0.9-2.7-0.9c-1.1,0-2.1,0.3-2.7,0.9c-0.5,0.5-1.1,1.4-1.1,2.1h-1.4l0,0
					c0-1.1,0.5-2.1,1.4-3s2.5-1.4,4.1-1.4c1.6,0,3,0.5,3.7,1.4c1.1,0.9,1.4,1.9,1.4,3.5v7.1c0,0.5,0,1.1,0,1.4s0.2,1.1,0.2,1.4
					H-188.8L-188.8-219.3z M-194.3-220.4c1.1,0,2.1-0.3,3-0.9c0.9-0.5,1.6-1.4,1.9-2.1v-3h-3.2c-1.4,0-2.7,0.2-3.5,0.9
					c-0.9,0.5-1.4,1.4-1.4,2.5c0,0.9,0.2,1.4,0.9,1.9C-195.9-220.7-195-220.4-194.3-220.4z"/>
				<path fill="#F7F7F7" d="M-176.6-232.3h-1.1c-1.1,0-1.9,0.2-2.5,0.9c-0.5,0.5-1.1,1.4-1.4,2.5v10.1h-1.6v-15h1.1l0.2,2.5v0.2
					c0.5-0.9,1.1-1.6,1.6-2.1c0.5-0.5,1.6-0.9,2.5-0.9c0.2,0,0.2,0,0.5,0c0.5,0.2,0.5,0.2,0.9,0.2L-176.6-232.3z"/>
				<path fill="#F7F7F7" d="M-162.3-226c0,2.1-0.5,3.7-1.4,5.1c-1.1,1.4-2.5,1.9-4.1,1.9c-1.1,0-1.9-0.3-2.7-0.5
					c-0.9-0.3-1.4-1.1-1.9-1.9l-0.2,2.1h-1.2v-21h1.6v8.7c0.5-0.9,1.1-1.4,1.9-1.9c0.9-0.5,1.6-0.5,2.7-0.5c1.6,0,3,0.9,4.1,2.1
					C-162.5-230.4-162.3-228.5-162.3-226L-162.3-226z M-163.9-226.3c0-1.9-0.2-3.2-1.1-4.6c-0.9-1.1-1.9-1.6-3.2-1.6
					c-1.1,0-1.9,0.2-2.7,0.9c-0.9,0.5-1.1,1.4-1.6,2.1v6.5c0.2,0.9,0.9,1.6,1.6,1.9c0.9,0.5,1.6,0.9,2.7,0.9c1.4,0,2.5-0.5,3.2-1.6
					C-164.1-223-163.9-224.4-163.9-226.3L-163.9-226.3z"/>
				<path fill="#F7F7F7" d="M-156.8-238h-1.6v-2.1h1.6V-238z M-156.8-219.3h-1.6V-234h1.6V-219.3z"/>
				<path fill="#F7F7F7" d="M-147-219c-1.9,0-3.2-0.5-4.6-1.9c-1.1-1.4-1.9-3-1.9-5.1v-0.9c0-2.1,0.5-3.7,1.9-5.1
					c1.1-1.4,2.7-2.1,4.4-2.1c1.9,0,3.2,0.5,4.4,1.6c1.1,1.4,1.6,2.7,1.6,4.6v1.4h-10.4v0.3c0,1.6,0.5,3,1.4,4.1
					c0.9,1.1,1.9,1.6,3.5,1.6c1.1,0,1.9-0.3,2.5-0.5c0.5-0.2,1.4-0.5,1.9-1.1l0.9,1.1c-0.5,0.5-1.4,1.1-2.1,1.4
					C-144.9-219.3-145.6-219-147-219z M-147-232.7c-1.1,0-2.1,0.5-3,1.4c-0.9,0.9-1.4,2.1-1.4,3.5l0,0h8.4v-0.5
					c0-1.4-0.2-2.5-1.1-3.2C-144.9-232.3-145.9-232.7-147-232.7z"/>
				<path fill="#F7F7F7" d="M-117.6-225.3L-117.6-225.3c-0.2,2.1-0.9,3.5-2.1,4.6c-1.4,1.1-3,1.6-4.9,1.6c-2.1,0-3.7-0.9-5.1-2.5
					s-1.9-3.5-1.9-6.2v-3c0-2.5,0.5-4.6,1.9-6.2s3-2.5,5.1-2.5c2.1,0,3.7,0.5,4.9,1.6c1.1,1.1,1.9,2.7,2.1,4.6l0,0h-1.6
					c-0.2-1.6-0.9-3-1.6-3.7s-2.1-1.4-3.7-1.4s-3,0.5-4.1,1.9c-1.1,1.4-1.6,3-1.6,5.1v3.2c0,2.1,0.5,3.7,1.6,5.1
					c1.1,1.4,2.5,1.9,4.1,1.9s3-0.5,3.7-1.4c0.9-0.9,1.4-2.1,1.6-3.7h1.6C-117.6-226.3-117.6-225.3-117.6-225.3z"/>
				<path fill="#F7F7F7" d="M-104.5-219.3c0-0.5-0.2-0.9-0.2-1.4c0-0.2,0-0.9,0-1.1c-0.5,0.9-1.4,1.4-2.1,1.9s-1.9,0.9-3,0.9
					c-1.4,0-2.5-0.3-3.2-1.1c-0.9-0.9-1.1-1.6-1.1-3c0-1.4,0.5-2.5,1.6-3.2c1.1-0.9,2.7-1.1,4.6-1.1h3.2v-1.9c0-1.1-0.2-1.9-1.1-2.5
					c-0.9-0.6-1.6-0.9-2.7-0.9s-2.1,0.3-2.7,0.9c-0.5,0.5-1.1,1.4-1.1,2.1h-1.4l0,0c0-1.1,0.5-2.1,1.4-3c0.9-0.9,2.5-1.4,4.1-1.4
					c1.6,0,3,0.5,3.7,1.4c0.9,0.5,1.4,1.6,1.4,3.2v7.1c0,0.5,0,1.1,0,1.4s0.2,1.1,0.2,1.4h-1.6L-104.5-219.3L-104.5-219.3z
					 M-109.8-220.4c1.1,0,2.1-0.3,3-0.9c0.9-0.5,1.6-1.4,1.9-2.1v-3h-3.2c-1.4,0-2.7,0.2-3.5,0.9c-0.8,0.7-1.4,1.4-1.4,2.5
					c0,0.9,0.2,1.4,0.9,1.9C-111.6-220.7-110.8-220.4-109.8-220.4z"/>
				<path fill="#F7F7F7" d="M-97.3-219.3h-1.6v-21h1.6V-219.3z"/>
				<path fill="#F7F7F7" d="M-87.1-220.4c1.1,0,1.9-0.3,2.7-0.9c0.9-0.5,1.4-1.4,1.4-2.5h1.4l0,0c0,1.4-0.5,2.5-1.6,3.2
					c-1.1,0.9-2.5,1.4-3.7,1.4c-1.9,0-3.5-0.9-4.6-2.1c-1.1-1.4-1.6-3-1.6-5.1v-0.5c0-2.1,0.5-3.7,1.6-5.1c1.1-1.4,2.7-2.1,4.6-2.1
					c1.6,0,3,0.5,4.1,1.4s1.6,2.1,1.6,3.7l0,0h-1.4c0-1.1-0.2-2.1-1.1-2.7c-0.9-0.9-1.6-1.1-3-1.1c-1.6,0-2.7,0.5-3.5,1.6
					c-0.9,1.1-1.4,2.7-1.4,4.4v0.5c0,1.6,0.2,3.2,1.1,4.4C-89.9-220.9-88.8-220.4-87.1-220.4z"/>
				<path fill="#F7F7F7" d="M-68.9-221.7c-0.5,0.9-1.1,1.6-1.9,1.9c-0.9,0.5-1.6,0.9-2.7,0.9c-1.6,0-2.7-0.5-3.5-1.6
					c-0.9-1.1-1.4-2.7-1.4-4.9v-8.4h1.6v8.4c0,1.9,0.2,3,0.9,3.7c0.5,0.9,1.4,1.1,2.5,1.1s2.1-0.3,3-0.9c0.9-0.6,1.4-1.4,1.6-2.1
					v-10.3h1.6v14.7h-1.4L-68.9-221.7z"/>
				<path fill="#F7F7F7" d="M-61.3-219.3h-1.6v-21h1.6V-219.3z"/>
				<path fill="#F7F7F7" d="M-47.4-219.3c0-0.5-0.2-0.9-0.2-1.4c0-0.2,0-0.9,0-1.1c-0.5,0.9-1.4,1.4-2.1,1.9c-0.9,0.5-1.9,0.9-3,0.9
					c-1.4,0-2.5-0.3-3.2-1.1c-0.7-0.9-1.1-1.6-1.1-3c0-1.4,0.5-2.5,1.6-3.2c1.1-0.9,2.7-1.1,4.6-1.1h3.2v-1.9c0-1.1-0.2-1.9-1.1-2.5
					c-0.9-0.6-1.6-0.9-2.7-0.9c-1.1,0-2.1,0.3-2.7,0.9s-1.1,1.4-1.1,2.1h-1.4l0,0c0-1.1,0.5-2.1,1.4-3s2.5-1.4,4.1-1.4
					c1.6,0,3,0.5,3.7,1.4c1.1,0.9,1.4,1.9,1.4,3.5v7.1c0,0.5,0,1.1,0,1.4s0.2,1.1,0.2,1.4H-47.4L-47.4-219.3z M-52.9-220.4
					c1.1,0,2.1-0.3,3-0.9c0.9-0.5,1.6-1.4,1.9-2.1v-3h-3.2c-1.4,0-2.7,0.2-3.5,0.9c-0.9,0.5-1.4,1.4-1.4,2.5c0,0.9,0.2,1.4,0.9,1.9
					C-54.5-220.7-53.7-220.4-52.9-220.4z"/>
				<path fill="#F7F7F7" d="M-39.3-237.5v3.5h3.2v1.4h-3.2v9.5c0,1.1,0.2,1.6,0.5,1.9c0.2,0.2,0.9,0.5,1.4,0.5c0.2,0,0.5,0,0.9,0
					c0.2,0,0.5,0,0.9,0l0.2,1.1c-0.2,0-0.5,0.2-1.1,0.2c-0.5,0-0.9,0-1.1,0c-1.1,0-1.9-0.2-2.5-1.1c-0.5-0.5-0.9-1.6-0.9-3v-9.2
					h-2.5v-1.4h2.5v-3.5L-39.3-237.5C-39.3-237.6-39.3-237.5-39.3-237.5z"/>
				<path fill="#F7F7F7" d="M-33.9-226.9c0-2.1,0.5-3.7,1.6-5.1s2.7-2.1,4.6-2.1s3.5,0.9,4.6,2.1c1.1,1.4,1.6,3.2,1.6,5.1v0.5
					c0,2.1-0.5,3.7-1.6,5.1c-1.1,1.4-2.7,2.1-4.6,2.1s-3.5-0.9-4.6-2.1c-1.1-1.4-1.6-3.2-1.6-5.1V-226.9z M-32.3-226.3
					c0,1.6,0.5,3,1.4,4.4c0.9,1.1,2.1,1.6,3.5,1.6c1.6,0,2.7-0.5,3.5-1.6c0.9-1.1,1.4-2.5,1.4-4.4v-0.5c0-1.6-0.5-3-1.4-4.4
					c-0.9-1.1-2.1-1.6-3.5-1.6c-1.6,0-2.7,0.5-3.5,1.6c-0.9,1.1-1.4,2.5-1.4,4.4V-226.3z"/>
				<path fill="#F7F7F7" d="M-11.1-232.3h-1.1c-1.1,0-1.9,0.2-2.5,0.9c-0.5,0.5-1.1,1.4-1.4,2.5v10.1h-1.6v-15h1.4v2.5v0.2
					c0.5-0.9,1.1-1.6,1.6-2.1c0.5-0.5,1.6-0.9,2.5-0.9c0.2,0,0.2,0,0.5,0s0.2,0,0.5,0L-11.1-232.3z"/>
			</g>
		</g>
		<g id="display">
			<rect x="-250" y="-209.5" fill="#F7F7F7" width="691.7" height="246.3"/>
			<g>
				<path fill="#303030" d="M271.4-92.3c0,6.2-1.4,11.1-4.4,14.4c-2.7,3.2-6.7,4.9-11.7,4.9s-8.7-1.6-11.7-4.9
					c-3-3.2-4.4-8.1-4.4-14.4v-11.1c0-6.2,1.4-11.1,4.4-14.4c3-3.2,6.7-4.9,11.7-4.9c5,0,8.7,1.6,11.7,4.9c3,3.3,4.4,8.1,4.4,14.4
					V-92.3z M263.3-104.5c0-4.1-0.5-6.7-1.9-8.7c-1.4-1.9-3.2-3-5.7-3c-2.5,0-4.4,1.1-5.7,3c-1.4,1.9-1.9,4.9-1.9,8.7v13.4
					c0,4.1,0.5,7.1,1.9,9s3.2,3,5.7,3c2.5,0,4.4-1.1,5.7-3c1.3-1.9,1.9-4.9,1.9-9V-104.5z"/>
				<path fill="#303030" d="M288-73.5h-8.1v-7.9h8.1V-73.5z"/>
				<path fill="#303030" d="M324.8-90.9h6.2v6.5h-6.2v10.9h-8.2v-10.9H296l-0.3-4.9l20.6-32.6h8.4L324.8-90.9L324.8-90.9z
					 M303.8-90.9h13v-19.6h-0.3l-0.5,1.4L303.8-90.9z"/>
				<path fill="#303030" d="M363.4-90.9h6.2v6.5h-6.2v10.9h-8.1v-10.9h-20.7l-0.3-4.9l20.6-32.6h8.4L363.4-90.9L363.4-90.9z
					 M342.4-90.9h13v-19.6h-0.3l-0.5,1.4L342.4-90.9z"/>
				<path fill="#303030" d="M402.2-90.9h6.2v6.5h-6.2v10.9h-8.1v-10.9h-20.6l-0.3-4.9l20.6-32.6h8.4V-90.9z M381.1-90.9h13v-19.6
					h-0.2l-0.5,1.4L381.1-90.9z"/>
			</g>
		</g>
		<g id="extension">
			<rect x="-250" y="36" fill="#2B2B2B" width="54.4" height="27"/>
			<g>
				<path fill="#FFFFFF" d="M-229.4,49.9c0,1.1-0.2,2.1-0.9,3c-0.6,0.9-1.4,1.1-2.1,1.1c-0.5,0-1.1,0-1.6-0.3
					c-0.5-0.3-0.9-0.5-1.1-0.9v4.4h-1.1V46.1h0.9v1.4c0.2-0.5,0.5-0.9,1.1-1.1c0.5-0.3,0.9-0.3,1.6-0.3c1.1,0,1.6,0.3,2.1,1.1
					C-229.7,47.5-229.4,48.5-229.4,49.9L-229.4,49.9z M-230.4,49.6c0-1.1-0.2-1.9-0.5-2.5c-0.5-0.5-1.1-1.1-1.9-1.1
					c-0.5,0-1.1,0.3-1.4,0.5c-0.2,0.3-0.5,0.5-0.9,1.1v3.7c0.2,0.5,0.5,0.9,0.9,1.1c0.2,0.3,0.9,0.3,1.4,0.3c0.9,0,1.4-0.3,1.9-0.9
					C-230.4,51.5-230.4,50.7-230.4,49.6L-230.4,49.6z"/>
				<path fill="#FFFFFF" d="M-228,49.6c0-1.1,0.2-2.1,1.1-3c0.9-0.9,1.6-1.1,2.7-1.1c1.1,0,1.9,0.3,2.7,1.1c0.9,0.9,1.1,1.6,1.1,3
					v0.3c0,1.1-0.2,2.1-1.1,3s-1.6,1.1-2.7,1.1s-1.9-0.3-2.7-1.1S-228,51-228,49.6L-228,49.6z M-226.9,49.6c0,0.9,0.2,1.6,0.9,2.5
					c0.5,0.9,1.1,1.1,1.9,1.1c0.9,0,1.6-0.2,1.9-1.1c0.5-0.5,0.9-1.4,0.9-2.5v-0.3c0-0.9-0.2-1.6-0.9-2.5c-0.5-0.5-1.1-1.1-1.9-1.1
					c-0.9,0-1.6,0.2-1.9,1.1C-226.4,47.7-226.9,48.5-226.9,49.6L-226.9,49.6z"/>
				<path fill="#FFFFFF" d="M-217.2,51l0.2,1.4l0,0l0.2-1.4l1.6-5.5h0.9l1.6,5.5l0.2,1.4l0,0l0.2-1.4l1.4-5.5h0.9l-2.5,8.1h0.2
					l-1.9-5.5l-0.2-1.4l0,0l-0.2,1.4l-1.9,5.5h-0.9l-2.5-8.1h0.9L-217.2,51z"/>
			</g>
			<rect x="-250" y="62.7" fill="#2B2B2B" width="54.4" height="27"/>
			<g>
				<path fill="#EE1D3E" d="M-231.5,73h-0.5c-0.5,0-1.1,0.3-1.4,0.5c-0.3,0.2-0.5,0.9-0.9,1.4v5.7h-1.1v-8.1h0.9v1.4l0,0
					c0.2-0.5,0.5-0.9,0.9-1.1c0.2-0.3,0.9-0.5,1.4-0.5h0.2h0.2L-231.5,73z"/>
				<path fill="#EE1D3E" d="M-230.7,76.2c0-1.1,0.2-2.1,1.1-3c0.9-0.9,1.6-1.1,2.7-1.1c1.1,0,1.9,0.3,2.7,1.1c0.9,0.9,1.1,1.6,1.1,3
					v0.3c0,1.1-0.2,2.1-1.1,3c-0.9,0.9-1.6,1.1-2.7,1.1c-1.1,0-1.9-0.2-2.7-1.1C-230.4,78.7-230.7,77.6-230.7,76.2L-230.7,76.2z
					 M-229.9,76.2c0,0.9,0.2,1.6,0.9,2.5c0.6,0.9,1.1,1.1,1.9,1.1c0.9,0,1.6-0.2,1.9-1.1c0.5-0.5,0.9-1.4,0.9-2.5v-0.3
					c0-0.9-0.2-1.6-0.9-2.5c-0.5-0.5-1.1-1.1-1.9-1.1c-0.9,0-1.6,0.2-1.9,1.1C-229.4,74.4-229.9,75.2-229.9,76.2L-229.9,76.2z"/>
				<path fill="#EE1D3E" d="M-222,76.2c0-1.1,0.2-2.1,1.1-3c0.9-0.9,1.6-1.1,2.7-1.1c1.1,0,1.9,0.3,2.7,1.1c0.9,0.9,1.1,1.6,1.1,3
					v0.3c0,1.1-0.2,2.1-1.1,3c-0.9,0.9-1.6,1.1-2.7,1.1c-1.1,0-1.9-0.2-2.7-1.1C-221.8,78.7-222,77.6-222,76.2L-222,76.2z
					 M-221.2,76.2c0,0.9,0.2,1.6,0.9,2.5c0.5,0.9,1.1,1.1,1.9,1.1c0.9,0,1.6-0.2,1.9-1.1c0.5-0.5,0.9-1.4,0.9-2.5v-0.3
					c0-0.9-0.2-1.6-0.9-2.5c-0.5-0.5-1.1-1.1-1.9-1.1c-0.9,0-1.6,0.2-1.9,1.1C-220.7,74.4-221.2,75.2-221.2,76.2L-221.2,76.2z"/>
				<path fill="#EE1D3E" d="M-211.7,70v2.1h1.9V73h-1.9v5.5c0,0.5,0,0.9,0.2,1.1c0.2,0.2,0.5,0.2,0.9,0.2s0.2,0,0.5,0
					c0.2,0,0.2,0,0.5,0v0.5c-0.2,0-0.2,0-0.5,0.2c-0.2,0-0.5,0-0.5,0c-0.5,0-1.1-0.2-1.4-0.5c-0.3-0.3-0.5-0.9-0.5-1.6v-5.5h-1.4V72
					h1.2v-2.1L-211.7,70L-211.7,70z"/>
			</g>
			<rect x="-250" y="89.6" fill="#2B2B2B" width="54.4" height="27"/>
			<g>
				<path fill="#FFFFFF" d="M-234.3,107.4V100h-1.4v-0.9h1.4v-1.4c0-0.9,0.2-1.4,0.5-1.9c0.5-0.5,1.1-0.5,1.6-0.5c0.2,0,0.2,0,0.5,0
					c0.2,0,0.2,0,0.5,0v0.9h-0.1c0,0-0.2,0-0.5,0c-0.5,0-0.9,0.2-1.1,0.5c-0.2,0.3-0.2,0.9-0.2,1.4v1.1h1.9v0.9h-1.9v7.4
					L-234.3,107.4L-234.3,107.4L-234.3,107.4z"/>
				<path fill="#FFFFFF" d="M-224.8,107.4c0-0.3,0-0.5,0-0.9c0-0.2,0-0.2,0-0.5c-0.2,0.5-0.9,0.9-1.1,1.1c-0.5,0.3-1.1,0.5-1.6,0.5
					c-0.9,0-1.4-0.2-1.9-0.5c-0.5-0.5-0.5-1.1-0.5-1.6c0-0.9,0.2-1.4,1.1-1.9c0.5-0.5,1.6-0.5,2.7-0.5h1.9V102
					c0-0.5-0.2-1.1-0.5-1.4c-0.2-0.2-0.9-0.5-1.6-0.5c-0.5,0-1.1,0.3-1.6,0.5c-0.5,0.3-0.5,0.9-0.5,1.1h-0.9l0,0
					c0-0.5,0.2-1.1,0.9-1.6c0.5-0.5,1.4-0.9,2.1-0.9s1.6,0.3,2.1,0.9c0.5,0.5,0.9,1.1,0.9,1.9v4.1c0,0.3,0,0.5,0,0.9
					c0,0.2,0,0.5,0.2,0.9h-1.6L-224.8,107.4L-224.8,107.4z M-227.4,106.5c0.5,0,1.1-0.2,1.6-0.5c0.5-0.3,0.9-0.9,1.1-1.1v-1.6h-1.9
					c-0.9,0-1.4,0.3-1.9,0.5c-0.5,0.3-0.9,0.9-0.9,1.4s0.2,0.9,0.5,1.1C-228.5,106.5-228,106.5-227.4,106.5z"/>
				<path fill="#FFFFFF" d="M-218.4,106.5c0.5,0,1.1-0.2,1.6-0.5c0.5-0.3,0.9-0.9,0.9-1.4h0.9l0,0c0,0.9-0.2,1.4-0.9,1.9
					c-0.5,0.5-1.4,0.9-2.1,0.9c-1.1,0-1.9-0.3-2.5-1.1c-0.5-0.9-0.9-1.6-0.9-3V103c0-1.1,0.2-2.1,0.9-3c0.5-0.9,1.4-1.1,2.5-1.1
					c0.9,0,1.6,0.3,2.1,0.9c0.5,0.5,0.9,1.1,0.9,2.1l0,0h-0.9c0-0.5-0.2-1.1-0.5-1.6c-0.5-0.3-1.1-0.5-1.6-0.5
					c-0.9,0-1.6,0.2-1.9,0.9c-0.5,0.5-0.5,1.4-0.5,2.5v0.3c0,1.1,0.2,1.6,0.5,2.5C-220.2,106.2-219.3,106.5-218.4,106.5z"/>
				<path fill="#FFFFFF" d="M-211.9,97v2.1h1.9v0.9h-1.9v5.5c0,0.5,0,0.9,0.2,1.1c0.2,0.2,0.5,0.2,0.9,0.2s0.2,0,0.5,0
					c0.2,0,0.2,0,0.5,0v0.5c-0.2,0-0.2,0-0.5,0.2c-0.2,0-0.5,0-0.5,0c-0.5,0-1.1-0.2-1.4-0.5c-0.3-0.3-0.5-0.9-0.5-1.6v-5.5h-1.4V99
					h1.4v-2.1L-211.9,97L-211.9,97z"/>
			</g>
			<rect x="-250" y="116.2" fill="#2B2B2B" width="54.4" height="27"/>
			<g>
				<path fill="#FFFFFF" d="M-233.2,126.6h-0.5c-0.5,0-1.1,0.3-1.4,0.5c-0.2,0.3-0.5,0.9-0.9,1.4v5.7h-1.1v-8.1h0.9v1.4l0,0
					c0.2-0.5,0.5-0.9,0.9-1.1c0.2-0.3,0.9-0.5,1.4-0.5h0.2h0.2L-233.2,126.6z"/>
				<path fill="#FFFFFF" d="M-226.7,134c0-0.3,0-0.5,0-0.9c0-0.3,0-0.3,0-0.5c-0.2,0.5-0.9,0.9-1.1,1.1c-0.5,0.3-1.1,0.5-1.6,0.5
					c-0.9,0-1.4-0.3-1.9-0.5c-0.5-0.5-0.5-1.1-0.5-1.6c0-0.9,0.2-1.4,1.1-1.9c0.5-0.5,1.6-0.5,2.7-0.5h1.9v-1.1
					c0-0.5-0.2-1.1-0.5-1.4c-0.2-0.3-0.9-0.5-1.6-0.5c-0.5,0-1.1,0.3-1.6,0.5c-0.5,0.3-1.1,0.3-1.1,0.9h-0.9l0,0
					c0-0.5,0.2-1.1,0.9-1.6c0.5-0.5,1.4-0.9,2.1-0.9c0.9,0,1.6,0.3,2.1,0.9s0.9,1.1,0.9,1.9v4.1c0,0.3,0,0.5,0,0.9
					c0,0.3,0,0.5,0.2,0.9h-1.1C-226.7,134.2-226.7,134-226.7,134z M-229.7,133.1c0.5,0,1.1-0.3,1.6-0.5c0.5-0.3,0.9-0.9,1.1-1.1
					v-1.6h-1.6c-0.9,0-1.4,0.3-1.9,0.5c-0.5,0.3-0.9,0.9-0.9,1.4s0.2,0.9,0.5,1.1C-230.4,133.1-230.2,133.1-229.7,133.1z"/>
				<path fill="#FFFFFF" d="M-222.5,125.9v1.4c0.2-0.5,0.5-0.9,1.1-1.1c0.6-0.3,1.1-0.5,1.6-0.5c0.9,0,1.6,0.3,1.9,0.9
					c0.5,0.5,0.9,1.4,0.9,2.5v4.9h-0.9v-4.9c0-0.9-0.2-1.6-0.5-1.9c-0.3-0.3-0.9-0.5-1.4-0.5s-1.1,0.3-1.6,0.5
					c-0.2,0.3-0.9,0.9-0.9,1.4v5.7h-1.1v-8.1L-222.5,125.9L-222.5,125.9z"/>
				<path fill="#FFFFFF" d="M-215.2,129.9c0-1.4,0.2-2.5,0.9-3c0.5-0.9,1.4-1.1,2.1-1.1c0.5,0,1.1,0,1.4,0.3
					c0.5,0.3,0.9,0.5,1.1,1.1v-4.9h0.9V134h-0.9v-1.1c-0.2,0.5-0.5,0.9-1.1,1.1c-0.5,0.3-0.9,0.3-1.6,0.3c-1.1,0-1.6-0.3-2.1-1.1
					C-214.9,132.4-215.2,131.2-215.2,129.9L-215.2,129.9z M-214.4,130.1c0,1.1,0.2,1.9,0.5,2.5c0.2,0.6,1.1,0.9,1.9,0.9
					c0.5,0,1.1,0,1.4-0.3c0.2-0.3,0.9-0.5,0.9-1.1v-3.7c-0.2-0.5-0.5-0.9-0.9-1.1c-0.2-0.3-0.9-0.5-1.4-0.5c-0.9,0-1.4,0.3-1.9,1.1
					C-214.2,128-214.4,128.9-214.4,130.1L-214.4,130.1z"/>
			</g>
			<rect x="-250" y="143.2" fill="#2B2B2B" width="54.4" height="27"/>
			<g>
				<path fill="#FFFFFF" d="M-231,160.5h-0.9V149h0.9V160.5z"/>
				<path fill="#FFFFFF" d="M-228.8,156.5c0-1.1,0.2-2.1,1.1-3c0.9-0.9,1.6-1.1,2.7-1.1c1.1,0,1.9,0.2,2.7,1.1
					c0.9,0.9,1.1,1.6,1.1,3v0.3c0,1.1-0.2,2.1-1.1,3c-0.9,0.9-1.6,1.1-2.7,1.1c-1.1,0-1.9-0.3-2.7-1.1
					C-228.5,158.9-228.8,157.8-228.8,156.5L-228.8,156.5z M-228,156.8c0,0.9,0.2,1.6,0.9,2.5c0.5,0.9,1.1,1.1,1.9,1.1
					c0.9,0,1.6-0.3,1.9-1.1c0.5-0.5,0.9-1.4,0.9-2.5v-0.3c0-0.9-0.2-1.6-0.9-2.5c-0.5-0.5-1.1-1.1-1.9-1.1c-0.9,0-1.6,0.3-1.9,1.1
					C-227.4,154.9-228,155.7-228,156.8L-228,156.8z"/>
				<path fill="#FFFFFF" d="M-220.2,156.8c0-1.4,0.2-2.5,0.9-3c0.5-0.9,1.4-1.1,2.5-1.1c0.5,0,1.1,0,1.6,0.3
					c0.5,0.3,0.9,0.5,1.1,1.1v-1.4h0.9v8.1c0,1.1-0.2,1.9-0.9,2.5c-0.5,0.5-1.4,0.9-2.5,0.9c-0.2,0-0.9,0-1.4-0.3
					c-0.5,0-0.9-0.3-1.1-0.3l0.2-0.9c0.2,0.3,0.5,0.3,1.1,0.3c0.2,0,0.9,0,1.1,0c0.9,0,1.4-0.3,1.9-0.9c0.2-0.5,0.5-1.1,0.5-1.9
					v-1.1c-0.2,0.5-0.5,0.9-1.1,1.1c-0.5,0.3-0.9,0.3-1.4,0.3c-1.1,0-1.6-0.3-2.1-1.1C-219.8,158.9-220.2,158.1-220.2,156.8
					L-220.2,156.8z M-219.3,156.8c0,1.1,0.2,1.6,0.5,2.5c0.2,0.5,1.1,0.9,1.9,0.9c0.5,0,1.1,0,1.4-0.3c0.2-0.3,0.9-0.5,0.9-1.1v-3.7
					c-0.2-0.5-0.5-0.9-0.9-1.1c-0.2-0.3-0.9-0.5-1.4-0.5c-0.9,0-1.4,0.3-1.9,1.1C-219.3,155.2-219.3,155.7-219.3,156.8L-219.3,156.8
					z"/>
			</g>
			<rect x="-250" y="169.8" fill="#2B2B2B" width="54.4" height="27"/>
			<g>
				<g>
					<path fill="#FFFFFF" d="M-222.5,187.5c-1.1,0-1.9-0.3-2.5-1.1c-0.5-0.9-1.1-1.6-1.1-3v-0.5c0-1.1,0.2-2.1,1.1-3
						c0.9-0.9,1.4-1.1,2.5-1.1c1.1,0,1.9,0.3,2.5,0.9c0.6,0.6,0.9,1.4,0.9,2.5v0.9h-6v0.3c0,0.9,0.2,1.6,0.9,2.1
						c0.6,0.5,1.1,0.9,1.9,0.9c0.5,0,1.1,0,1.4-0.3c0.2-0.3,0.9-0.3,1.1-0.5l0.2,0.5c-0.2,0.3-0.9,0.5-1.1,0.9
						C-221.2,186.9-221.8,187.5-222.5,187.5z M-222.5,179.9c-0.5,0-1.4,0.3-1.6,0.9c-0.5,0.5-0.9,1.1-0.9,1.9l0,0h4.9v-0.3
						c0-0.9-0.2-1.4-0.5-1.9C-221.4,180.1-222,179.9-222.5,179.9z"/>
				</g>
			</g>
			<rect x="-250" y="196.8" fill="#2B2B2B" width="54.4" height="27"/>
			<g>
				<path fill="#FFFFFF" d="M-221.2,210.4c0,1.1-0.2,2.1-0.9,3c-0.6,0.9-1.4,1.1-2.1,1.1c-0.5,0-1.1,0-1.6-0.3s-0.9-0.5-1.1-0.9v4.4
					h-0.9v-11.1h0.9v1.4c0.2-0.5,0.5-0.9,1.1-1.1c0.5-0.3,0.9-0.3,1.6-0.3c1.1,0,1.6,0.3,2.1,1.1
					C-221.4,207.9-221.2,209-221.2,210.4L-221.2,210.4z M-222,210c0-1.1-0.2-1.9-0.5-2.5c-0.5-0.5-1.1-1.1-1.9-1.1
					c-0.5,0-1.1,0.3-1.4,0.5c-0.2,0.3-0.5,0.5-0.9,1.1v3.7c0.2,0.5,0.5,0.9,0.9,1.1c0.2,0.3,0.9,0.3,1.4,0.3c0.9,0,1.4-0.3,1.9-0.9
					C-222.3,212-222,211.4-222,210L-222,210z"/>
				<path fill="#FFFFFF" d="M-217.9,203.8h-0.9v-1.4h0.9V203.8z M-217.9,214.1h-0.9V206h0.9V214.1z"/>
			</g>
		</g>
		<g id="soustavy">
			<g>
				<path fill="#EF4323" d="M-233.4-6.3v-9.2h2.7c1.1,0,1.6,0.2,2.1,0.5c0.5,0.2,0.9,1.1,0.9,1.9c0,0.5,0,0.9-0.2,1.4
					s-0.5,0.5-1.1,0.9c0.5,0,1.1,0.2,1.4,0.9c0.2,0.6,0.5,0.9,0.5,1.4c0,0.9-0.2,1.4-0.9,1.9c-0.6,0.5-1.4,0.5-2.1,0.5h-3.3V-6.3z
					 M-232.7-11.5h2.1c0.5,0,1.1-0.2,1.6-0.5c0.2-0.2,0.5-0.9,0.5-1.4s-0.2-1.1-0.5-1.4c-0.2-0.2-0.9-0.5-1.6-0.5h-2.1V-11.5z
					 M-232.7-10.7V-7h2.5c0.5,0,1.1-0.3,1.6-0.5c0.2-0.3,0.5-0.9,0.5-1.4c0-0.5-0.2-1.1-0.5-1.4c-0.2-0.2-0.9-0.5-1.6-0.5
					L-232.7-10.7L-232.7-10.7z"/>
				<path fill="#EF4323" d="M-224.4-6.3h-0.9v-9.2h0.9V-6.3z"/>
				<path fill="#EF4323" d="M-215.2-6.3h-0.9l-5.1-7.9l0,0v7.9h-0.9v-9.2h0.9l5.1,7.9l0,0v-7.9h0.9V-6.3z"/>
				<path d="M-194-6.3h-0.9v-8.4l-2.5,0.2V-15l3-0.5v9.2L-194-6.3L-194-6.3z"/>
				<path d="M-184.4-9.9c0,1.1-0.2,2.1-0.9,2.7c-0.6,0.6-1.4,1.1-2.1,1.1c-0.9,0-1.6-0.3-2.1-1.1c-0.5-0.5-0.9-1.6-0.9-2.7V-12
					c0-1.1,0.2-2.1,0.9-2.7c0.5-0.5,1.4-1.1,2.1-1.1c0.9,0,1.6,0.2,2.1,1.1s0.9,1.6,0.9,2.7V-9.9z M-185-12c0-0.9-0.2-1.6-0.5-2.1
					c-0.3-0.5-0.9-0.9-1.6-0.9c-0.9,0-1.4,0.2-1.6,0.9c-0.2,0.5-0.5,1.4-0.5,2.1v2.1c0,0.9,0.2,1.6,0.5,2.1c0.2,0.5,0.9,0.9,1.6,0.9
					s1.4-0.3,1.6-0.9c0.2-0.5,0.5-1.4,0.5-2.1V-12z"/>
				<path d="M-179.3-6.3h-0.9v-8.4l-2.5,0.2V-15l3-0.5v9.2L-179.3-6.3L-179.3-6.3z"/>
				<path d="M-169.6-9.9c0,1.1-0.2,2.1-0.9,2.7c-0.6,0.6-1.4,1.1-2.1,1.1c-0.9,0-1.6-0.3-2.1-1.1c-0.5-0.5-0.9-1.6-0.9-2.7V-12
					c0-1.1,0.2-2.1,0.9-2.7c0.5-0.5,1.4-1.1,2.1-1.1c0.9,0,1.6,0.2,2.1,1.1s0.9,1.6,0.9,2.7V-9.9z M-170.4-12c0-0.9-0.2-1.6-0.5-2.1
					c-0.2-0.5-0.9-0.9-1.6-0.9c-0.9,0-1.4,0.2-1.6,0.9c-0.2,0.5-0.5,1.4-0.5,2.1v2.1c0,0.9,0.2,1.6,0.5,2.1s0.9,0.9,1.6,0.9
					s1.4-0.3,1.6-0.9c0.2-0.5,0.5-1.4,0.5-2.1V-12z"/>
				<path d="M-161.4-6.3h-0.9v-8.4l-2.5,0.2V-15l3-0.5v9.2L-161.4-6.3L-161.4-6.3z"/>
				<path d="M-151.9-9.9c0,1.1-0.2,2.1-0.9,2.7c-0.5,0.5-1.4,1.1-2.1,1.1c-0.9,0-1.6-0.3-2.1-1.1c-0.5-0.5-0.9-1.6-0.9-2.7V-12
					c0-1.1,0.2-2.1,0.9-2.7c0.5-0.5,1.4-1.1,2.1-1.1c0.9,0,1.6,0.2,2.1,1.1s0.9,1.6,0.9,2.7V-9.9z M-152.8-12c0-0.9-0.2-1.6-0.5-2.1
					c-0.3-0.5-0.9-0.9-1.6-0.9c-0.9,0-1.4,0.2-1.6,0.9c-0.2,0.5-0.5,1.4-0.5,2.1v2.1c0,0.9,0.2,1.6,0.5,2.1c0.2,0.5,0.9,0.9,1.6,0.9
					c0.9,0,1.4-0.3,1.6-0.9c0.2-0.5,0.5-1.4,0.5-2.1V-12z"/>
				<path d="M-146.8-6.3h-0.9v-8.4l-2.5,0.2V-15l3-0.5v9.2L-146.8-6.3C-146.8-6.2-146.8-6.3-146.8-6.3z"/>
				<path d="M-137.3-9.9c0,1.1-0.2,2.1-0.9,2.7c-0.5,0.5-1.4,1.1-2.1,1.1c-0.9,0-1.6-0.3-2.1-1.1c-0.5-0.5-0.9-1.6-0.9-2.7V-12
					c0-1.1,0.2-2.1,0.9-2.7c0.5-0.5,1.4-1.1,2.1-1.1c0.9,0,1.6,0.2,2.1,1.1c0.5,0.9,0.9,1.6,0.9,2.7V-9.9z M-138-12
					c0-0.9-0.2-1.6-0.5-2.1c-0.3-0.5-0.9-0.9-1.6-0.9c-0.9,0-1.4,0.2-1.6,0.9c-0.2,0.5-0.5,1.4-0.5,2.1v2.1c0,0.9,0.2,1.6,0.5,2.1
					c0.2,0.5,0.9,0.9,1.6,0.9c0.9,0,1.4-0.3,1.6-0.9c0.2-0.5,0.5-1.4,0.5-2.1V-12z"/>
				<path d="M-132-6.3h-0.9v-8.4l-2.5,0.2V-15l3-0.5v9.2L-132-6.3C-132-6.2-132-6.3-132-6.3z"/>
				<path d="M-122.5-9.9c0,1.1-0.2,2.1-0.9,2.7c-0.5,0.5-1.4,1.1-2.1,1.1s-1.6-0.3-2.1-1.1c-0.5-0.5-0.9-1.6-0.9-2.7V-12
					c0-1.1,0.2-2.1,0.9-2.7c0.5-0.5,1.4-1.1,2.1-1.1s1.6,0.2,2.1,1.1s0.9,1.6,0.9,2.7V-9.9z M-123-12c0-0.9-0.2-1.6-0.5-2.1
					c-0.2-0.5-0.9-0.9-1.6-0.9s-1.4,0.2-1.6,0.9c-0.2,0.5-0.5,1.4-0.5,2.1v2.1c0,0.9,0.2,1.6,0.5,2.1c0.2,0.5,0.9,0.9,1.6,0.9
					s1.4-0.3,1.6-0.9c0.2-0.5,0.5-1.4,0.5-2.1C-123-9.9-123-12-123-12z"/>
			</g>
			<g>
				<path opacity="0.8" fill="#ED1A46" enable-background="new    " d="M-233.4-20.5v-9.2h2.7c1.1,0,2.1,0.2,2.7,1.1
					c0.9,0.9,1.1,1.6,1.1,3v1.1c0,1.1-0.2,2.1-1.1,3s-1.6,1.1-2.7,1.1L-233.4-20.5L-233.4-20.5z M-232.7-29.2v7.9h1.9
					c0.9,0,1.6-0.3,2.1-1.1c0.5-0.5,0.9-1.4,0.9-2.5v-1c0-1.1-0.2-1.6-0.9-2.5c-0.5-0.5-1.4-1.1-2.1-1.1h-1.9
					C-232.7-29.5-232.7-29.2-232.7-29.2z"/>
				<path opacity="0.8" fill="#ED1A46" enable-background="new    " d="M-219.8-25.2h-4.4v3.7h5.1v0.5h-6v-9.2h5.7v0.5h-4.9v3.5h4.4
					L-219.8-25.2L-219.8-25.2z"/>
				<path opacity="0.8" fill="#ED1A46" enable-background="new    " d="M-211.2-23.5L-211.2-23.5c0,1.1-0.2,1.6-1.1,2.1
					c-0.9,0.5-1.4,0.9-2.5,0.9c-1.1,0-1.9-0.2-2.5-1.1c-0.5-0.9-0.9-1.6-0.9-3v-1.2c0-1.1,0.2-2.1,0.9-3c0.6-0.9,1.4-1.1,2.5-1.1
					c1.1,0,1.6,0.3,2.5,0.9c0.5,0.5,0.9,1.4,1.1,2.1l0,0h-0.9c0-0.9-0.2-1.4-0.9-1.6c-0.6-0.2-1.1-0.5-1.9-0.5
					c-0.9,0-1.4,0.3-1.9,0.9c-0.5,0.5-0.9,1.4-0.9,2.5v1.6c0,1.1,0.2,1.9,0.9,2.5c0.5,0.5,1.1,0.9,1.9,0.9c0.9,0,1.4-0.3,1.9-0.5
					c0.5-0.3,0.9-1.1,0.9-1.9L-211.2-23.5L-211.2-23.5z"/>
				<path d="M-193.4-20.5h-0.9v-8.4l-2.5,0.2v-0.5l3-0.5v9.2L-193.4-20.5L-193.4-20.5z"/>
				<path d="M-183.9-24c0,1.1-0.2,2.1-0.9,2.7c-0.6,0.6-1.4,1.1-2.1,1.1c-0.9,0-1.6-0.2-2.1-1.1c-0.5-0.5-0.9-1.6-0.9-2.7v-2.1
					c0-1.1,0.2-2.1,0.9-2.7c0.6-0.6,1.4-1.1,2.1-1.1c0.9,0,1.6,0.3,2.1,1.1c0.5,0.9,0.9,1.6,0.9,2.7V-24z M-184.8-26.2
					c0-0.9-0.2-1.6-0.5-2.1c-0.2-0.5-0.9-0.9-1.6-0.9c-0.9,0-1.4,0.3-1.6,0.9c-0.2,0.6-0.5,1.4-0.5,2.1v2.1c0,0.9,0.2,1.6,0.5,2.1
					c0.2,0.5,0.9,0.9,1.6,0.9c0.9,0,1.4-0.2,1.6-0.9c0.2-0.5,0.5-1.4,0.5-2.1V-26.2z"/>
				<path d="M-180.7-25.7h0.9c0.5,0,1.1-0.2,1.6-0.5s0.5-0.9,0.5-1.4c0-0.5-0.2-1.1-0.5-1.4c-0.2-0.3-0.9-0.5-1.4-0.5
					s-1.1,0.2-1.4,0.5c-0.2,0.2-0.5,0.9-0.5,1.4h-0.9l0,0c0-0.9,0.2-1.4,0.9-1.9c0.5-0.5,1.1-0.9,1.9-0.9c0.9,0,1.4,0.2,1.9,0.5
					c0.5,0.2,0.9,1.1,0.9,1.9c0,0.5,0,0.9-0.2,1.1s-0.5,0.5-1.1,0.9c0.5,0.2,1.1,0.5,1.4,0.9c0.2,0.2,0.5,0.9,0.5,1.4
					c0,0.9-0.2,1.4-0.9,1.9s-1.1,0.9-1.9,0.9c-0.9,0-1.4-0.3-2.1-0.9c-0.9-0.5-0.9-1.1-0.9-1.9l0,0h0.9c0,0.5,0.2,1.1,0.5,1.4
					c0.2,0.2,0.9,0.5,1.6,0.5c0.5,0,1.1-0.3,1.6-0.5c0.5-0.3,0.5-0.9,0.5-1.4c0-0.5-0.2-1.1-0.5-1.4c-0.2-0.2-0.9-0.5-1.6-0.5h-0.9
					l0,0L-180.7-25.7L-180.7-25.7L-180.7-25.7z"/>
			</g>
			<g>
				<path fill="#EF4323" d="M-226.7,17c0,1.1-0.2,2.1-1.1,3c-0.5,0.9-1.6,1.1-2.7,1.1c-1.1,0-1.9-0.3-2.5-1.1
					c-0.5-0.9-0.9-1.9-0.9-3v-1.4c0-1.1,0.2-2.1,1.1-3c0.5-0.9,1.6-1.1,2.5-1.1c1.1,0,1.9,0.3,2.7,1.1c0.5,0.9,1.1,1.6,1.1,3V17
					H-226.7z M-227.4,15.6c0-1.1-0.2-1.9-0.9-2.5c-0.5-0.5-1.1-0.9-2.1-0.9c-0.9,0-1.6,0.3-2.1,0.9c-0.5,0.5-0.9,1.4-0.9,2.5v1.6
					c0,1.1,0.2,1.9,0.9,2.5c0.5,0.5,1.1,0.9,2.1,0.9c0.9,0,1.6-0.3,2.1-0.9c0.5-0.5,0.9-1.4,0.9-2.5V15.6z"/>
				<path fill="#EF4323" d="M-218.4,18.1L-218.4,18.1c0,1.1-0.2,1.6-1.1,2.1c-0.9,0.5-1.4,0.9-2.5,0.9c-1.1,0-1.9-0.3-2.5-1.1
					c-0.5-0.9-0.9-1.6-0.9-3v-1.4c0-1.1,0.2-2.1,0.9-3c0.5-0.9,1.4-1.1,2.5-1.1c1.1,0,1.6,0.3,2.5,0.9c0.5,0.5,0.9,1.4,1.1,2.1l0,0
					h-0.9c0-0.9-0.2-1.4-0.9-1.6s-1.1-0.5-1.9-0.5c-0.9,0-1.4,0.3-1.9,0.9s-0.9,1.4-0.9,2.5v1.6c0,1.1,0.2,1.9,0.9,2.5
					c0.5,0.5,1.1,0.9,1.9,0.9c0.9,0,1.4-0.3,1.9-0.5c0.5-0.3,0.9-1.1,0.9-1.9L-218.4,18.1L-218.4,18.1z"/>
				<path fill="#EF4323" d="M-210.3,12.5h-3.2v8.4h-0.9v-8.4h-3V12h7.1C-210.3,12-210.3,12.5-210.3,12.5z"/>
				<path d="M-192,17.7h1.4v0.5h-1.4v2.5h-0.9v-2.5h-4.4v-0.5l4.4-6.5h0.9V17.7z M-196.2,17.7h3.2v-5.1l0,0l-0.2,0.9L-196.2,17.7z"
					/>
				<path d="M-183.7,17.2c0,1.1-0.2,2.1-0.9,2.7c-0.5,0.5-1.4,1.1-2.1,1.1c-0.7,0-1.6-0.3-2.1-1.1c-0.5-0.5-0.9-1.6-0.9-2.7v-2.1
					c0-1.1,0.2-2.1,0.9-2.7c0.5-0.5,1.4-1.1,2.1-1.1c0.7,0,1.6,0.3,2.1,1.1c0.5,0.9,0.9,1.6,0.9,2.7V17.2z M-184.4,15.1
					c0-0.9-0.2-1.6-0.5-2.1c-0.2-0.5-0.9-0.9-1.6-0.9c-0.9,0-1.4,0.2-1.6,0.9c-0.2,0.5-0.5,1.4-0.5,2.1v2.1c0,0.9,0.2,1.6,0.5,2.1
					c0.2,0.5,0.9,0.9,1.6,0.9s1.4-0.3,1.6-0.9c0.2-0.5,0.5-1.4,0.5-2.1V15.1z"/>
				<path d="M-180.4,15.9h1.1c0.5,0,1.1-0.2,1.6-0.5c0.5-0.3,0.5-0.9,0.5-1.4c0-0.5-0.2-1.1-0.5-1.4c-0.2-0.3-0.9-0.5-1.4-0.5
					s-1.1,0.2-1.4,0.5s-0.5,0.9-0.5,1.4h-1.1l0,0c0-0.9,0.2-1.4,0.9-1.9c0.6-0.5,1.1-0.9,1.9-0.9s1.4,0.3,1.9,0.5s0.9,1.1,0.9,1.9
					c0,0.5,0,0.9-0.2,1.1c-0.2,0.3-0.5,0.5-1.1,0.9c0.5,0.2,1.1,0.5,1.4,0.9c0.2,0.3,0.5,0.9,0.5,1.4c0,0.9-0.2,1.4-0.9,1.9
					c-0.6,0.5-1.1,0.9-1.9,0.9c-0.9,0-1.4-0.3-2.1-0.9c-0.9-0.5-0.9-1.1-0.9-1.9l0,0h0.9c0,0.5,0.2,1.1,0.5,1.4s0.9,0.5,1.6,0.5
					c0.5,0,1.1-0.3,1.6-0.5s0.5-0.9,0.5-1.4c0-0.5-0.2-1.1-0.5-1.4c-0.2-0.2-0.9-0.5-1.6-0.5h-0.9l0,0L-180.4,15.9L-180.4,15.9z"/>
			</g>
			<g>
				<path fill="#EF4323" d="M-226.7,7.2h-0.9V2.8h-5.1v4.4h-0.9V-2h0.9v4.4h5.1V-2h0.9V7.2z"/>
				<path fill="#EF4323" d="M-219,3h-4.6v3.7h5.1v0.5h-5.7V-2h5.7v0.5h-5.1V2h4.4v0.9L-219,3L-219,3z"/>
				<path fill="#EF4323" d="M-214.2,2.1l2.7-3.7h0.9l-3,4.4l3.2,4.6h-0.9l-2.7-4.1l-2.7,4.1h-0.9l3.2-4.6l-3-4.6h1L-214.2,2.1z"/>
				<path d="M-192,4.2h1.4v0.5h-1.4v2.5h-0.9V4.7h-4.4V4.2l4.4-6.5h0.9V4.2z M-196.2,4.2h3.5v-5.1l0,0l-0.2,0.9L-196.2,4.2z"/>
				<path d="M-183.9,3h-4.4v4.4h-0.9v-9.2h6v0.5h-5.1v3.5h4.4V3z"/>
				<path d="M-177.3,4.8h-4.1l-0.9,2.5h-0.9l3.5-9.2h0.9l3.5,9.2h-0.9L-177.3,4.8z M-180.9,4h3.7l-2.1-4.9l0,0L-180.9,4z"/>
			</g>
		</g>
		<rect x="445.8" y="-209.4" fill="#2B2B2B" width="303.7" height="432.8"/>
		<rect x="443.8" y="-209.5" fill="#C1C1C0" width="305.7" height="73.6"/>
		<g>
			<g>
				<path d="M475.9-155.7h-13.6l-3,8.1h-2.5l11.1-29.3h2.1l11.1,29.4h-2.5L475.9-155.7z M463.4-157.8h12l-6-16l0,0L463.4-157.8z"/>
				<path d="M487.7-169.2l0.2,3.7c0.9-1.4,1.6-2.5,2.7-3c1.1-0.9,2.7-1.1,4.4-1.1c2.5,0,4.1,0.9,5.5,2.1c1.4,1.2,1.9,3.7,1.9,6.7
					v13.4h-2.5v-13.4c0-2.5-0.5-4.4-1.4-5.5c-0.9-1.1-2.1-1.6-4.1-1.6c-1.6,0-3,0.5-4.1,1.4c-1.1,0.9-1.9,2.1-2.5,3.5v15.2h-2.5
					v-21.7h2.4V-169.2L487.7-169.2z"/>
				<path d="M521.7-152.9c0-1.1-0.5-1.9-1.4-2.7c-0.9-0.9-2.5-1.4-4.6-1.9c-2.7-0.5-4.6-1.4-5.7-2.1c-1.4-0.9-1.9-2.1-1.9-3.7
					s0.9-3,2.1-4.4c1.4-1.1,3.2-1.6,5.7-1.6s4.4,0.5,6,1.9c1.4,1.1,2.1,2.7,2.1,4.6l0,0h-2.1c0-1.1-0.5-2.1-1.6-3.2
					c-1.1-0.9-2.5-1.4-4.1-1.4c-1.6,0-3,0.2-4.1,1.1c-0.9,0.9-1.4,1.6-1.4,2.7c0,1.1,0.3,1.9,1.1,2.5c0.9,0.5,2.1,1.4,4.6,1.6
					c2.7,0.5,4.6,1.4,5.7,2.5s1.9,2.5,1.9,4.1c0,1.9-0.9,3.2-2.1,4.4c-1.4,1.1-3.5,1.6-6,1.6c-2.7,0-4.6-0.5-6.2-1.9
					c-1.6-1.4-2.1-2.7-2.1-4.6l0,0h2.1c0,1.6,0.9,2.7,1.9,3.5c1.1,0.9,2.7,1.1,4.1,1.1c1.6,0,3.2-0.2,4.1-1.1
					C521.2-150.9,521.7-151.8,521.7-152.9z"/>
			</g>
		</g>
		<g>
			<path fill="#FFFFFF" d="M459.7-195.7h1.1c0.9,0,1.6-0.2,1.9-0.5c0.5-0.5,0.5-1.1,0.5-1.6c0-0.9-0.3-1.4-0.5-1.6
				c-0.5-0.5-1.1-0.5-1.9-0.5c-0.9,0-1.4,0.2-1.9,0.5c-0.5,0.5-0.9,1.1-0.9,1.6h-0.9l0,0c0-0.9,0.3-1.6,1.1-2.1
				c0.8-0.5,1.6-0.9,2.5-0.9c1.1,0,1.9,0.2,2.5,0.9c0.5,0.5,0.9,1.4,0.9,2.5c0,0.5-0.3,1.1-0.5,1.6c-0.3,0.5-0.9,0.9-1.4,1.1
				c0.9,0.2,1.4,0.5,1.6,1.1c0.3,0.6,0.5,1.1,0.5,1.9c0,1.1-0.3,1.9-1.1,2.5c-0.5,0.5-1.6,0.9-2.7,0.9s-1.9-0.2-2.7-0.9
				c-0.9-0.5-1.1-1.4-1.1-2.5l0,0h0.9c0,0.9,0.2,1.4,0.9,1.9c0.5,0.5,1.1,0.9,1.9,0.9c0.9,0,1.4-0.2,1.9-0.5
				c0.5-0.2,0.9-1.1,0.9-1.9c0-0.9-0.3-1.4-0.9-1.9c-0.5-0.2-1.1-0.5-2.1-0.5h-0.3L459.7-195.7L459.7-195.7z"/>
			<path fill="#FFFFFF" d="M468.3-197.3l-2.7-0.9l0.3-0.9l2.6,1.2v-2.9h0.9v3l2.7-1.1l0.3,0.9l-2.7,0.9l1.9,2.5l-0.9,0.5l-1.6-2.5
				l-1.6,2.5l-0.9-0.5L468.3-197.3z"/>
			<path fill="#FFFFFF" d="M473.8-193.7c0-1.9,0.3-3.7,1.1-5.1c0.9-1.6,1.6-2.7,2.5-3.2l0,0l0.3,0.5c-0.9,0.5-1.4,1.6-2.1,3
				c-0.5,1.4-0.9,3-0.9,4.9v0.2c0,1.9,0.3,3.2,0.9,4.9c0.5,1.4,1.4,2.5,2.1,3l-0.3,0.5l0,0c-0.9-0.5-1.9-1.6-2.5-3
				C474-189.9,473.8-191.8,473.8-193.7L473.8-193.7z"/>
			<path fill="#FFFFFF" d="M481.2-195.7h1.1c0.9,0,1.6-0.2,1.9-0.5c0.5-0.5,0.5-1.1,0.5-1.6c0-0.9-0.3-1.4-0.5-1.6
				c-0.5-0.5-1.1-0.5-1.9-0.5c-0.9,0-1.4,0.2-1.9,0.5c-0.5,0.5-0.9,1.1-0.9,1.6h-0.9l0,0c0-0.9,0.2-1.6,1.1-2.1
				c0.9-0.5,1.6-0.9,2.5-0.9c1.1,0,1.9,0.2,2.5,0.9c0.5,0.5,0.9,1.4,0.9,2.5c0,0.5-0.3,1.1-0.5,1.6s-0.9,0.9-1.4,1.1
				c0.9,0.2,1.4,0.5,1.6,1.1c0.3,0.6,0.5,1.1,0.5,1.9c0,1.1-0.3,1.9-1.1,2.5c-0.5,0.5-1.6,0.9-2.7,0.9s-1.9-0.2-2.7-0.9
				c-0.9-0.5-1.1-1.4-1.1-2.5l0,0h0.9c0,0.9,0.3,1.4,0.9,1.9c0.5,0.5,1.1,0.9,1.9,0.9c0.9,0,1.4-0.2,1.9-0.5
				c0.5-0.2,0.9-1.1,0.9-1.9c0-0.9-0.3-1.4-0.9-1.9c-0.5-0.2-1.1-0.5-2.1-0.5h-1.1v-1.6h0.7L481.2-195.7L481.2-195.7z"/>
			<path fill="#FFFFFF" d="M493.9-192.9h1.9v0.9h-1.9v3h-1.1v-3h-5.5v-0.5l5.5-8.1h1.1V-192.9z M488.8-192.9h4.4v-6.7l0,0l-0.5,0.9
				L488.8-192.9z"/>
			<path fill="#FFFFFF" d="M499.3-195.7h1.1c0.9,0,1.6-0.2,1.9-0.5c0.3-0.2,0.5-1.1,0.5-1.6c0-0.9-0.3-1.4-0.5-1.6
				c-0.5-0.5-1.1-0.5-1.9-0.5c-0.9,0-1.4,0.2-1.9,0.5c-0.5,0.5-0.9,1.1-0.9,1.6h-0.8l0,0c0-0.9,0.3-1.6,1.1-2.1
				c0.5-0.5,1.6-0.9,2.5-0.9c1.1,0,1.9,0.2,2.5,0.9c0.5,0.5,0.9,1.4,0.9,2.5c0,0.5-0.3,1.1-0.5,1.6c-0.3,0.5-0.9,0.9-1.4,1.1
				c0.9,0.2,1.4,0.5,1.6,1.1c0.3,0.5,0.5,1.1,0.5,1.9c0,1.1-0.2,1.9-1.1,2.5c-0.9,0.5-1.6,0.9-2.7,0.9s-1.9-0.2-2.7-0.9
				c-0.9-0.5-1.1-1.4-1.1-2.5l0,0h0.9c0,0.9,0.2,1.4,0.9,1.9c0.5,0.5,1.1,0.9,1.9,0.9c0.8,0,1.4-0.2,1.9-0.5
				c0.5-0.3,0.9-1.1,0.9-1.9c0-0.9-0.2-1.4-0.9-1.9c-0.5-0.2-1.1-0.5-2.1-0.5h-1.1v-1.6h0.6L499.3-195.7L499.3-195.7z"/>
			<path fill="#FFFFFF" d="M509.4-193.7c0,1.9-0.3,3.7-1.1,5.1c-0.9,1.6-1.6,2.5-2.5,3l0,0l-0.3-0.5c0.9-0.5,1.4-1.6,2.1-3
				c0.5-1.4,0.9-3,0.9-4.9v-0.2c0-1.9-0.3-3.2-0.9-4.9c-0.5-1.6-1.4-2.5-1.9-3l0.3-0.5l0,0c0.9,0.5,1.6,1.6,2.5,3.2
				C509.2-197.5,509.4-195.9,509.4-193.7L509.4-193.7z"/>
			<path fill="#FFFFFF" d="M515.7-195h3.5v0.9h-3.5v3.7h-1.2v-3.7h-3.2v-0.9h3.5v-3.7h1.1v3.7H515.7L515.7-195z"/>
			<path fill="#FFFFFF" d="M527-192.9h1.9v0.9H527v3h-1.1v-3h-5.5v-0.5l5.5-8.1h1.1V-192.9z M521.7-192.9h4.4v-6.7l0,0l-0.5,0.9
				L521.7-192.9z"/>
			<path fill="#FFFFFF" d="M536.3-192.9h1.9v0.9h-1.9v3h-1.1v-3h-5.5v-0.5l5.5-8.1h1.1V-192.9z M530.9-192.9h4.4v-6.7l0,0l-0.5,0.9
				L530.9-192.9z"/>
		</g>
		<g>
			<g>
				<path fill="#FFFFFF" d="M643.4-170l1.9-18.7h16.9v2.7h-14.4l-1.4,12.2c0.9-0.9,1.9-1.4,3-1.9s2.5-0.5,4.4-0.9c3,0,5.5,0.9,7.1,3
					c1.9,1.9,2.7,4.6,2.7,8.1c0,3.5-0.9,6.2-2.7,8.4c-1.6,2.1-4.4,3-7.9,3c-2.7,0-5.1-0.9-7.1-2.5c-1.9-1.6-2.7-3.7-2.7-7.1v-0.2
					h2.5c0,2.5,0.5,4.1,1.9,5.5c1.4,1.4,3,1.9,5.1,1.9c2.5,0,4.4-0.9,5.7-2.5c1.4-1.6,1.9-3.7,1.9-6.7c0-2.5-0.5-4.6-1.9-6.2
					c-1.4-1.6-3-2.5-5.5-2.5c-2.1,0-3.7,0.2-5.1,1.1c-1.4,0.9-1.9,1.6-2.5,3.2L643.4-170L643.4-170z"/>
				<path fill="#FFFFFF" d="M686.3-165.4h5.5v2.1h-5.5v8.7h-2.7v-8.7h-16v-1.6l15.7-24.3h3V-165.4z M670.7-165.4h12.7V-185H683
					l-1.1,2.5L670.7-165.4z"/>
				<path fill="#FFFFFF" d="M698.8-154.8l-2.5,6.5h-1.9l1.6-6.5v-4.1h2.7L698.8-154.8L698.8-154.8z"/>
				<path fill="#FFFFFF" d="M722.6-165.4h5.5v2.1h-5.5v8.7h-2.7v-8.7h-16v-1.6l15.7-24.2h3V-165.4z M706.7-165.4h12.7V-185h-0.3
					l-1.1,2.5L706.7-165.4z"/>
			</g>
		</g>
		<rect x="443.8" y="-135.8" fill="#2B2B2B" width="295" height="73.9"/>
		<g>
			<path fill="#ED1A46" d="M460.2-73.5v-29.6h8.4c3.5,0,6.5,1.1,9,3.5c2.5,2.5,3.5,5.5,3.5,9.2v3.7c0,3.7-1.1,6.7-3.5,9.2
				c-2.5,2.5-5.5,3.5-9,3.5h-8.4V-73.5z M462.7-101v25.2h6.2c3,0,5.5-1.1,7.1-3c1.9-1.9,2.7-4.6,2.7-7.6v-3.7c0-3-0.9-5.7-2.7-7.6
				c-1.9-1.9-4.4-3-7.1-3h-6.2V-101z"/>
			<path fill="#ED1A46" d="M503.9-87.4h-14.4v13.9H487v-29.6h18.7v2.1h-16.4v11.4h14.4L503.9-87.4L503.9-87.4z"/>
		</g>
		<g>
			<path fill="#FFFFFF" d="M459.7-121.6h1.1c0.9,0,1.6-0.2,1.9-0.5c0.5-0.5,0.5-1.1,0.5-1.6c0-0.9-0.3-1.4-0.5-1.6
				c-0.5-0.5-1.1-0.5-1.9-0.5c-0.9,0-1.4,0.2-1.9,0.5c-0.5,0.5-0.9,1.1-0.9,1.6h-0.9l0,0c0-0.9,0.3-1.6,1.1-2.1
				c0.8-0.5,1.6-0.9,2.5-0.9c1.1,0,1.9,0.2,2.5,0.9c0.5,0.5,0.9,1.4,0.9,2.5c0,0.5-0.3,1.1-0.5,1.6c-0.2,0.5-0.9,0.9-1.4,1.1
				c0.9,0.2,1.4,0.5,1.6,1.1c0.2,0.6,0.5,1.1,0.5,1.9c0,1.1-0.3,1.9-1.1,2.5c-0.5,0.5-1.6,0.9-2.7,0.9s-1.9-0.2-2.7-0.9
				c-0.9-0.5-1.1-1.4-1.1-2.5l0,0h0.9c0,0.9,0.2,1.4,0.9,1.9c0.5,0.5,1.1,0.9,1.9,0.9c0.9,0,1.4-0.2,1.9-0.5
				c0.5-0.2,0.9-1.1,0.9-1.9c0-0.9-0.3-1.4-0.9-1.9c-0.5-0.2-1.1-0.5-2.1-0.5h-0.3L459.7-121.6L459.7-121.6z"/>
			<path fill="#FFFFFF" d="M468.3-123.3l-2.8-0.8l0.3-0.9l2.7,1.1v-3h0.9v3l2.7-1.1l0.3,0.9l-2.7,0.9l1.9,2.5l-0.9,0.5l-1.6-2.5
				l-1.6,2.5l-0.9-0.5L468.3-123.3z"/>
			<path fill="#FFFFFF" d="M473.8-120c0-1.9,0.3-3.7,1.1-5.1c0.9-1.6,1.6-2.7,2.5-3.2l0,0l0.3,0.5c-0.9,0.5-1.4,1.6-2.1,3
				c-0.5,1.4-0.9,3-0.9,4.9v0.2c0,1.9,0.3,3.2,0.9,4.9c0.5,1.4,1.4,2.5,2.1,3l-0.3,0.5l0,0c-0.9-0.5-1.9-1.6-2.5-3
				C474-116,473.8-117.9,473.8-120L473.8-120z"/>
			<path fill="#FFFFFF" d="M481.2-121.6h1.1c0.9,0,1.6-0.2,1.9-0.5c0.5-0.5,0.5-1.1,0.5-1.6c0-0.9-0.3-1.4-0.5-1.6
				c-0.5-0.5-1.1-0.5-1.9-0.5c-0.9,0-1.4,0.2-1.9,0.5c-0.5,0.5-0.9,1.1-0.9,1.6h-0.9l0,0c0-0.9,0.2-1.6,1.1-2.1
				c0.9-0.5,1.6-0.9,2.5-0.9c1.1,0,1.9,0.2,2.5,0.9c0.5,0.5,0.9,1.4,0.9,2.5c0,0.5-0.3,1.1-0.5,1.6s-0.9,0.9-1.4,1.1
				c0.9,0.2,1.4,0.5,1.6,1.1c0.2,0.6,0.5,1.1,0.5,1.9c0,1.1-0.3,1.9-1.1,2.5c-0.5,0.5-1.6,0.9-2.7,0.9s-1.9-0.2-2.7-0.9
				c-0.9-0.5-1.1-1.4-1.1-2.5l0,0h0.9c0,0.9,0.3,1.4,0.9,1.9c0.5,0.5,1.1,0.9,1.9,0.9c0.9,0,1.4-0.2,1.9-0.5
				c0.5-0.2,0.9-1.1,0.9-1.9c0-0.9-0.3-1.4-0.9-1.9c-0.5-0.2-1.1-0.5-2.1-0.5h-1.1v-1.6h0.7L481.2-121.6L481.2-121.6z"/>
			<path fill="#FFFFFF" d="M493.9-119h1.9v0.9h-1.9v3h-1.1v-3h-5.5v-0.5l5.5-8.1h1.1V-119z M488.8-119h4.4v-6.8l0,0l-0.5,0.9
				L488.8-119z"/>
			<path fill="#FFFFFF" d="M499.3-121.6h1.1c0.9,0,1.6-0.2,1.9-0.5c0.3-0.2,0.5-1.1,0.5-1.6c0-0.9-0.3-1.4-0.5-1.6
				c-0.5-0.5-1.1-0.5-1.9-0.5c-0.9,0-1.4,0.2-1.9,0.5c-0.5,0.5-0.9,1.1-0.9,1.6h-0.8l0,0c0-0.9,0.3-1.6,1.1-2.1
				c0.5-0.5,1.6-0.9,2.5-0.9c1.1,0,1.9,0.2,2.5,0.9c0.5,0.5,0.9,1.4,0.9,2.5c0,0.5-0.3,1.1-0.5,1.6s-0.9,0.9-1.4,1.1
				c0.9,0.2,1.4,0.5,1.6,1.1c0.3,0.5,0.5,1.1,0.5,1.9c0,1.1-0.2,1.9-1.1,2.5s-1.6,0.9-2.7,0.9s-1.9-0.2-2.7-0.9
				c-0.9-0.5-1.1-1.4-1.1-2.5l0,0h0.9c0,0.9,0.2,1.4,0.9,1.9c0.5,0.5,1.1,0.9,1.9,0.9c0.8,0,1.4-0.2,1.9-0.5
				c0.5-0.2,0.9-1.1,0.9-1.9c0-0.9-0.2-1.4-0.9-1.9c-0.5-0.2-1.1-0.5-2.1-0.5h-1.1v-1.6h0.6L499.3-121.6L499.3-121.6z"/>
			<path fill="#FFFFFF" d="M509.4-119.8c0,1.9-0.3,3.7-1.1,5.1c-0.9,1.6-1.6,2.5-2.5,3l0,0l-0.1-0.5c0.9-0.5,1.4-1.6,2.1-3
				c0.5-1.4,0.9-3,0.9-4.9v-0.2c0-1.9-0.3-3.2-0.9-4.9c-0.5-1.6-1.4-2.5-1.9-3l0.3-0.5l0,0c0.9,0.5,1.6,1.6,2.5,3.2
				C509.2-123.9,509.4-122,509.4-119.8L509.4-119.8z"/>
			<path fill="#FFFFFF" d="M515.7-121.1h3.5v0.9h-3.5v3.7h-1.2v-3.7h-3.2v-0.9h3.5v-3.8h1.1v3.7L515.7-121.1L515.7-121.1z"/>
			<path fill="#FFFFFF" d="M527-119h1.9v0.9H527v3h-1.1v-3h-5.5v-0.5l5.5-8.1h1.1V-119z M521.7-119h4.4v-6.8l0,0l-0.6,0.9L521.7-119
				z"/>
			<path fill="#FFFFFF" d="M536.3-119h1.9v0.9h-1.9v3h-1.1v-3h-5.5v-0.5l5.5-8.1h1.1V-119z M530.9-119h4.4v-6.8l0,0l-0.5,0.9
				L530.9-119z"/>
		</g>
		<g>
			<g>
				<path fill="#FFFFFF" d="M643.4-96.1l1.9-18.7h16.9v2.7h-14.4l-1.4,12.2c0.9-0.9,1.9-1.4,3-1.9c1.1-0.5,2.5-0.5,4.4-0.9
					c3,0,5.5,0.9,7.1,3c1.9,1.9,2.7,4.6,2.7,8.1c0,3.5-0.9,6.2-2.7,8.4c-1.6,2.1-4.4,3-7.9,3c-2.7,0-5.1-0.9-7.1-2.5
					c-1.9-1.6-2.7-3.7-2.7-7.1V-90h2.5c0,2.5,0.5,4.1,1.9,5.5s3,1.9,5.1,1.9c2.5,0,4.4-0.9,5.7-2.5c1.4-1.6,1.9-3.7,1.9-6.7
					c0-2.5-0.5-4.6-1.9-6.2s-3-2.5-5.5-2.5c-2.1,0-3.7,0.2-5.1,1.1s-1.9,1.6-2.5,3.2L643.4-96.1z"/>
				<path fill="#FFFFFF" d="M686.3-91.8h5.5v2.5h-5.5v8.7h-2.7v-8.7h-16v-1.6l15.7-24.2h3V-91.8z M670.7-91.8h12.7v-19.6H683
					l-1.1,2.5L670.7-91.8z"/>
				<path fill="#FFFFFF" d="M698.8-81.1l-2.5,6.5h-1.9l1.6-6.5v-4.1h2.7L698.8-81.1L698.8-81.1z"/>
				<path fill="#FFFFFF" d="M722.6-91.8h5.5v2.5h-5.5v8.7h-2.7v-8.7h-16v-1.6l15.7-24.2h3V-91.8z M706.7-91.8h12.7v-19.6h-0.3
					l-1.1,2.5L706.7-91.8z"/>
			</g>
		</g>
		<rect x="443.5" y="-63.8" fill="#2B2B2B" width="295" height="73.9"/>
		<g>
			<path fill="#ED1A46" d="M468.9-18.3l8.4-12.5h3l-9.7,14.4l10.1,15h-3l-8.7-13l-8.7,13h-3l10.1-15l-9.7-14.4h3L468.9-18.3z"/>
			<path fill="#ED1A46" d="M494.2-14.5l9.2-16.4h2.7l-10.6,18.7v10.9H493v-10.9l-10.6-18.5h2.7L494.2-14.5z"/>
		</g>
		<g>
			<path fill="#FFFFFF" d="M459.7-49.7h1.1c0.9,0,1.6-0.3,1.9-0.5c0.5-0.5,0.5-1.1,0.5-1.6c0-0.9-0.3-1.4-0.5-1.6
				c-0.5-0.5-1.1-0.5-1.9-0.5c-0.9,0-1.4,0.3-1.9,0.5c-0.5,0.5-0.9,1.1-0.9,1.6h-0.9l0,0c0-0.9,0.3-1.6,1.1-2.1
				c0.8-0.5,1.6-0.9,2.5-0.9c1.1,0,1.9,0.3,2.5,0.9c0.5,0.5,0.9,1.4,0.9,2.5c0,0.5-0.3,1.1-0.5,1.6c-0.3,0.5-0.9,0.9-1.4,1.1
				c0.9,0.2,1.4,0.5,1.6,1.1c0.3,0.5,0.5,1.1,0.5,1.9c0,1.1-0.3,1.9-1.1,2.5c-0.5,0.5-1.6,0.9-2.7,0.9s-1.9-0.2-2.7-0.9
				c-0.9-0.5-1.1-1.4-1.1-2.5l0,0h0.9c0,0.9,0.2,1.4,0.9,1.9c0.5,0.5,1.1,0.9,1.9,0.9c0.9,0,1.4-0.3,1.9-0.5
				c0.5-0.3,0.9-1.1,0.9-1.9c0-0.9-0.3-1.4-0.9-1.9c-0.5-0.2-1.1-0.5-2.1-0.5h-0.3L459.7-49.7L459.7-49.7z"/>
			<path fill="#FFFFFF" d="M468.3-51.3l-2.7-0.9l0.3-0.9l2.7,1.1v-3h0.9v3l2.7-1.1l0.3,0.9l-2.7,0.9l1.9,2.5l-0.9,0.5l-1.6-2.5
				l-1.6,2.5l-0.9-0.5L468.3-51.3z"/>
			<path fill="#FFFFFF" d="M473.8-47.9c0-1.9,0.3-3.7,1.1-5.1c0.9-1.6,1.6-2.7,2.5-3.2l0,0l0.3,0.5c-0.9,0.5-1.4,1.6-2.1,3
				c-0.5,1.4-0.9,3-0.9,4.9v0.2c0,1.9,0.3,3.2,0.9,4.9c0.5,1.4,1.4,2.5,2.1,3l-0.3,0.5l0,0c-0.9-0.5-1.9-1.6-2.5-3
				C474-43.9,473.8-45.8,473.8-47.9L473.8-47.9z"/>
			<path fill="#FFFFFF" d="M480.8-49.7h1.1c0.9,0,1.6-0.3,1.9-0.5c0.5-0.5,0.5-1.1,0.5-1.6c0-0.9-0.3-1.4-0.5-1.6
				c-0.5-0.5-1.1-0.5-1.9-0.5c-0.8,0-1.4,0.3-1.9,0.5c-0.5,0.5-0.9,1.1-0.9,1.6h-0.5l0,0c0-0.9,0.3-1.6,1.1-2.1
				c0.8-0.5,1.6-0.9,2.5-0.9c1.1,0,1.9,0.3,2.5,0.9c0.5,0.5,0.9,1.4,0.9,2.5c0,0.5-0.3,1.1-0.5,1.6c-0.3,0.5-0.9,0.9-1.4,1.1
				c0.9,0.2,1.4,0.5,1.6,1.1c0.3,0.5,0.5,1.1,0.5,1.9c0,1.1-0.3,1.9-1.1,2.5c-0.5,0.5-1.6,0.9-2.7,0.9s-1.9-0.2-2.7-0.9
				c-0.9-0.5-1.1-1.4-1.1-2.5l0,0h0.9c0,0.9,0.3,1.4,0.9,1.9c0.5,0.5,1.1,0.9,1.9,0.9c0.9,0,1.4-0.3,1.9-0.5
				c0.5-0.3,0.9-1.1,0.9-1.9c0-0.9-0.3-1.4-0.9-1.9c-0.5-0.2-1.1-0.5-2.1-0.5h-1.1v-2H480.8z"/>
			<path fill="#FFFFFF" d="M493.9-46.9h1.9v0.9h-1.9v3h-1.1v-3h-5.5v-0.5l5.5-8.1h1.1V-46.9z M488.8-46.9h4.4v-6.7l0,0l-0.5,0.9
				L488.8-46.9z"/>
			<path fill="#FFFFFF" d="M499.3-49.7h1.1c0.9,0,1.6-0.3,1.9-0.5c0.3-0.3,0.5-1.1,0.5-1.6c0-0.9-0.3-1.4-0.5-1.6
				c-0.5-0.5-1.1-0.5-1.9-0.5c-0.9,0-1.4,0.3-1.9,0.5c-0.5,0.5-0.9,1.1-0.9,1.6h-0.8l0,0c0-0.9,0.3-1.6,1.1-2.1
				c0.5-0.5,1.6-0.9,2.5-0.9c1.1,0,1.9,0.3,2.5,0.9c0.5,0.5,0.9,1.4,0.9,2.5c0,0.5-0.3,1.1-0.5,1.6c-0.3,0.5-0.9,0.9-1.4,1.1
				c0.9,0.2,1.4,0.5,1.6,1.1c0.3,0.5,0.5,1.1,0.5,1.9c0,1.1-0.2,1.9-1.1,2.5c-0.9,0.5-1.6,0.9-2.7,0.9s-1.9-0.2-2.7-0.9
				c-0.9-0.5-1.1-1.4-1.1-2.5l0,0h0.9c0,0.9,0.2,1.4,0.9,1.9c0.6,0.5,1.1,0.9,1.9,0.9c0.8,0,1.4-0.3,1.9-0.5
				c0.5-0.3,0.9-1.1,0.9-1.9c0-0.9-0.2-1.4-0.9-1.9c-0.5-0.2-1.1-0.5-2.1-0.5h-1.1v-2H499.3z"/>
			<path fill="#FFFFFF" d="M509.4-47.7c0,1.9-0.3,3.7-1.1,5.1c-0.9,1.6-1.6,2.5-2.5,3l0,0l-0.3-0.4c0.9-0.5,1.4-1.6,2.1-3
				c0.5-1.4,0.9-3,0.9-4.9v-0.3c0-1.9-0.3-3.2-0.9-4.9c-0.5-1.6-1.4-2.5-1.9-3l0.3-0.5l0,0c0.9,0.5,1.6,1.6,2.5,3.2
				C508.9-51.8,509.4-49.9,509.4-47.7L509.4-47.7z"/>
			<path fill="#FFFFFF" d="M515.7-49h3.5v0.9h-3.5v3.7h-1.2v-3.7h-3.2V-49h3.5v-3.7h1.1v3.7H515.7z"/>
			<path fill="#FFFFFF" d="M527-46.9h1.9v0.9H527v3h-1.1v-3h-5.5v-0.5l5.5-8.1h1.1V-46.9z M521.7-46.9h4.4v-6.7l0,0l-0.5,0.9
				L521.7-46.9z"/>
			<path fill="#FFFFFF" d="M536.3-46.9h1.9v0.9h-1.9v3h-1.1v-3h-5.5v-0.5l5.5-8.1h1.1V-46.9z M530.9-46.9h4.4v-6.7l0,0l-0.5,0.9
				L530.9-46.9z"/>
		</g>
		<g>
			<g>
				<path fill="#FFFFFF" d="M588.8-24l1.9-18.7h16.9v2.7h-14.5l-1.4,12.2c0.9-0.9,1.9-1.4,3-1.9c1.1-0.5,2.5-0.5,4.4-0.9
					c3,0,5.5,0.9,7.1,3c1.9,1.9,2.7,4.6,2.7,8.1s-0.9,6.2-2.7,8.4c-1.6,2.1-4.4,3-7.9,3c-2.7,0-5.1-0.9-7.1-2.5
					c-1.9-1.6-2.7-3.7-2.7-7.1V-18h2.5c0,2.5,0.5,4.1,1.9,5.5c1.4,1.4,3,1.9,5.1,1.9c2.5,0,4.4-0.9,5.7-2.5c1.4-1.6,1.9-3.7,1.9-6.7
					c0-2.5-0.5-4.6-1.9-6.2s-3-2.5-5.5-2.5c-2.1,0-3.7,0.2-5.1,1.1c-1.4,0.9-1.9,1.6-2.5,3.2L588.8-24z"/>
				<path fill="#FFFFFF" d="M632-19.7h5.5v2.5H632v8.7h-2.7v-8.7h-16v-1.6L629-43h3V-19.7z M616.3-19.7H629v-19.6h-0.3l-1.1,2.5
					L616.3-19.7z"/>
				<path fill="#FFFFFF" d="M642.7-24l1.9-18.7h16.8v2.7H647l-1.4,12.2c0.9-0.9,1.9-1.4,3-1.9c1.1-0.5,2.5-0.5,4.4-0.9
					c3,0,5.5,0.9,7.1,3c1.9,1.9,2.7,4.6,2.7,8.1s-0.9,6.2-2.7,8.4c-1.6,2.1-4.4,3-7.9,3c-2.7,0-5.1-0.9-7.1-2.5
					c-1.9-1.6-2.7-3.7-2.7-7.1V-18h2.5c0,2.5,0.5,4.1,1.9,5.5s3,1.9,5.1,1.9c2.5,0,4.4-0.9,5.7-2.5c1.4-1.6,1.9-3.7,1.9-6.7
					c0-2.5-0.5-4.6-1.9-6.2s-3-2.5-5.5-2.5c-2.1,0-3.7,0.2-5.1,1.1c-1.4,0.9-1.9,1.6-2.5,3.2L642.7-24z"/>
				<path fill="#FFFFFF" d="M685.6-19.7h5.5v2.5h-5.5v8.7h-2.7v-8.7h-16.1v-1.6L682.4-43h3L685.6-19.7L685.6-19.7z M670.2-19.7h12.7
					v-19.6h-0.3l-1.1,2.5L670.2-19.7z"/>
				<path fill="#FFFFFF" d="M698.3-9l-2.5,6.5h-1.9l1.6-6.5v-4.1h2.7L698.3-9L698.3-9z"/>
				<path fill="#FFFFFF" d="M721.7-19.7h5.5v2.5h-5.5v8.7H719v-8.7h-16v-1.6L718.7-43h3V-19.7z M706.2-19.7h12.7v-19.6h-0.3
					l-1.1,2.5L706.2-19.7z"/>
			</g>
		</g>
		<rect x="738.6" y="-135.8" fill="#3D3D3D" width="10.9" height="73.9"/>
		<circle fill="#2D2D2D" cx="744.1" cy="-105.4" r="1.4"/>
		<circle fill="#2D2D2D" cx="744.1" cy="-98.9" r="1.4"/>
		<circle fill="#2D2D2D" cx="744.1" cy="-92.3" r="1.4"/>
		<rect x="443.5" y="12.2" fill="#2B2B2B" width="295" height="73.9"/>
		<g>
			<path fill="#ED1A46" d="M476.8,60.2h-14.4v13.9h-2.5V44.7h18.7v2.1h-16.4v11.4h14.4L476.8,60.2L476.8,60.2z"/>
			<path fill="#ED1A46" d="M505.3,61.9c0,3.7-1.1,6.7-3,9.2c-2.1,2.5-4.9,3.5-8.4,3.5c-3.5,0-6.2-1.1-8.1-3.5c-2.1-2.5-3-5.5-3-9.2
				V57c0-3.7,1.1-6.7,3-9.2c2.1-2.5,4.9-3.5,8.1-3.5c3.5,0,6.2,1.1,8.4,3.5c2.1,2.5,3.2,5.5,3.2,9.2v4.9H505.3z M502.9,57
				c0-3.2-0.9-5.7-2.5-7.6c-1.6-1.9-3.7-3-6.7-3c-2.7,0-4.9,1.1-6.5,3s-2.5,4.6-2.5,7.6v4.9c0,3.2,0.9,5.7,2.5,7.6
				c1.6,1.9,3.7,3,6.5,3c3,0,5.1-1.1,6.7-3c1.6-1.9,2.5-4.6,2.5-7.6V57z"/>
			<path fill="#ED1A46" d="M533.4,61.9c0,3.7-1.1,6.7-3,9.2c-2.1,2.5-4.9,3.5-8.4,3.5s-6.2-1.1-8.1-3.5c-2.1-2.5-3-5.5-3-9.2V57
				c0-3.7,1.1-6.7,3-9.2c1.9-2.5,4.9-3.5,8.1-3.5c3.5,0,6.2,1.1,8.4,3.5c2.1,2.5,3.2,5.5,3.2,9.2v4.9H533.4z M530.9,57
				c0-3.2-0.9-5.7-2.5-7.6c-1.6-1.9-3.7-3-6.7-3c-2.7,0-4.9,1.1-6.5,3s-2.5,4.6-2.5,7.6v4.9c0,3.2,0.9,5.7,2.5,7.6
				c1.6,1.9,3.7,3,6.5,3c3,0,5.1-1.1,6.7-3c1.6-1.9,2.5-4.6,2.5-7.6V57z"/>
		</g>
		<g>
			<path fill="#FFFFFF" d="M459.3,26h1.1c0.9,0,1.6-0.3,1.9-0.5c0.5-0.5,0.5-1.1,0.5-1.6c0-0.9-0.3-1.4-0.5-1.6
				c-0.5-0.5-1.1-0.5-1.9-0.5c-0.8,0-1.4,0.3-1.9,0.5c-0.5,0.5-0.9,1.1-0.9,1.6h-0.8l0,0c0-0.9,0.3-1.6,1.1-2.1
				c0.9-0.5,1.6-0.9,2.5-0.9c1.1,0,1.9,0.3,2.5,0.9c0.6,0.6,0.9,1.4,0.9,2.5c0,0.5-0.3,1.1-0.5,1.6c-0.3,0.5-0.9,0.9-1.4,1.1
				c0.9,0.2,1.4,0.5,1.6,1.1c0.3,0.5,0.5,1.1,0.5,1.9c0,1.1-0.3,1.9-1.1,2.5c-0.5,0.5-1.6,0.9-2.7,0.9s-1.9-0.3-2.7-0.9
				c-0.9-0.5-1.1-1.4-1.1-2.5l0,0h0.9c0,0.9,0.3,1.4,0.9,1.9c0.5,0.5,1.1,0.9,1.9,0.9c0.9,0,1.4-0.3,1.9-0.5
				c0.5-0.3,0.9-1.1,0.9-1.9c0-0.9-0.3-1.4-0.9-1.9c-0.5-0.3-1.1-0.5-2.1-0.5h-1.1v-1.6h0.6L459.3,26L459.3,26z"/>
			<path fill="#FFFFFF" d="M468.3,24.4l-2.7-0.9l0.3-0.9l2.7,1.1v-3h0.9v3l2.7-1.1l0.3,0.9l-2.7,0.9l1.9,2.5l-0.9,0.5l-1.6-2.5
				l-1.6,2.5l-1.1-0.5L468.3,24.4z"/>
			<path fill="#FFFFFF" d="M473.5,27.9c0-1.9,0.3-3.7,1.1-5.1c0.9-1.6,1.6-2.7,2.5-3.2l0,0l0.3,0.5c-0.9,0.5-1.4,1.6-2.1,3
				c-0.5,1.4-0.9,3-0.9,4.9v0.3c0,1.9,0.3,3.2,0.9,4.9c0.5,1.4,1.4,2.5,2.1,3l-0.3,0.5l0,0c-0.9-0.5-1.9-1.6-2.5-3
				C473.8,31.6,473.5,29.7,473.5,27.9L473.5,27.9z"/>
			<path fill="#FFFFFF" d="M480.8,26h1.1c0.9,0,1.6-0.3,1.9-0.5c0.5-0.5,0.5-1.1,0.5-1.6c0-0.9-0.3-1.4-0.5-1.6
				c-0.5-0.5-1.1-0.5-1.9-0.5c-0.8,0-1.4,0.3-1.9,0.5c-0.5,0.5-0.9,1.1-0.9,1.6h-0.5l0,0c0-0.9,0.3-1.6,1.1-2.1
				c0.9-0.5,1.6-0.9,2.5-0.9c1.1,0,1.9,0.3,2.5,0.9c0.5,0.5,0.9,1.4,0.9,2.5c0,0.5-0.3,1.1-0.5,1.6c-0.3,0.5-0.9,0.9-1.4,1.1
				c0.9,0.2,1.4,0.5,1.6,1.1c0.3,0.5,0.5,1.1,0.5,1.9c0,1.1-0.3,1.9-1.1,2.5c-0.5,0.5-1.6,0.9-2.7,0.9s-1.9-0.3-2.7-0.9
				c-0.9-0.5-1.1-1.4-1.1-2.5l0,0h0.9c0,0.9,0.3,1.4,0.9,1.9c0.5,0.5,1.1,0.9,1.9,0.9c0.9,0,1.4-0.3,1.9-0.5
				c0.5-0.3,0.9-1.1,0.9-1.9c0-0.9-0.3-1.4-0.9-1.9c-0.5-0.3-1.1-0.5-2.1-0.5h-1.1v-1.6h0.4L480.8,26L480.8,26z"/>
			<path fill="#FFFFFF" d="M493.9,28.6h1.9v0.9h-1.9v3h-1.1v-3h-5.5V29l5.5-8.1h1.1V28.6z M488.4,28.6h4.4v-6.7l0,0l-0.5,0.9
				L488.4,28.6z"/>
			<path fill="#FFFFFF" d="M499.3,26h1.1c0.9,0,1.6-0.3,1.9-0.5c0.3-0.2,0.5-1.1,0.5-1.6c0-0.9-0.3-1.4-0.5-1.6
				c-0.5-0.5-1.1-0.5-1.9-0.5c-0.9,0-1.4,0.3-1.9,0.5c-0.5,0.5-0.9,1.1-0.9,1.6h-0.8l0,0c0-0.9,0.3-1.6,1.1-2.1
				c0.5-0.5,1.6-0.9,2.5-0.9c1.1,0,1.9,0.3,2.5,0.9c0.5,0.5,0.9,1.4,0.9,2.5c0,0.5-0.3,1.1-0.5,1.6c-0.3,0.5-0.9,0.9-1.4,1.1
				c0.9,0.2,1.4,0.5,1.6,1.1c0.3,0.5,0.5,1.1,0.5,1.9c0,1.1-0.2,1.9-1.1,2.5c-0.9,0.5-1.6,0.9-2.7,0.9s-1.9-0.3-2.7-0.9
				c-0.9-0.5-1.1-1.4-1.1-2.5l0,0h0.9c0,0.9,0.2,1.4,0.9,1.9c0.5,0.5,1.1,0.9,1.9,0.9c0.8,0,1.4-0.3,1.9-0.5
				c0.5-0.3,0.9-1.1,0.9-1.9c0-0.9-0.2-1.4-0.9-1.9c-0.5-0.3-1.1-0.5-2.1-0.5h-1.1v-1.6h0.6L499.3,26L499.3,26z"/>
			<path fill="#FFFFFF" d="M509.2,27.9c0,1.9-0.3,3.7-1.1,5.1c-0.9,1.6-1.6,2.5-2.5,3l0,0l-0.2-0.5c0.9-0.5,1.4-1.6,2.1-3
				c0.5-1.4,0.9-3,0.9-4.9v-0.2c0-1.9-0.3-3.2-0.9-4.9c-0.5-1.6-1.4-2.5-1.9-3l0.3-0.5l0,0c0.9,0.5,1.6,1.6,2.5,3.2
				C508.9,24,509.2,25.6,509.2,27.9L509.2,27.9z"/>
			<path fill="#FFFFFF" d="M515.7,26.5h3.5v0.9h-3.5v3.7h-1.2v-3.7H511v-0.9h3.5v-3.7h1.1L515.7,26.5L515.7,26.5z"/>
			<path fill="#FFFFFF" d="M526.8,28.6h1.9v0.9h-1.9v3h-1.1v-3h-5.5V29l5.5-8.1h1.1V28.6z M521.7,28.6h4.4v-6.7l0,0l-0.5,0.9
				L521.7,28.6z"/>
			<path fill="#FFFFFF" d="M535.9,28.6h1.9v0.9h-1.9v3h-1.1v-3h-5.5V29l5.5-8.1h1.1V28.6L535.9,28.6z M530.7,28.6h4.4v-6.7l0,0
				l-0.6,0.9L530.7,28.6z"/>
		</g>
		<g>
			<g>
				<path fill="#FFFFFF" d="M643.2,51.5l1.9-18.7H662v2.7h-14.4l-1.4,12.2c0.9-0.9,1.9-1.4,3-1.9c1.1-0.5,2.5-0.5,4.4-0.9
					c3,0,5.5,0.9,7.1,3c1.9,1.9,2.7,4.6,2.7,8.1c0,3.5-0.9,6.2-2.7,8.4c-1.6,2.1-4.4,3-7.9,3c-2.7,0-5.1-0.9-7.1-2.5
					c-1.9-1.6-2.7-3.7-2.7-7.1v-0.1h2.5c0,2.5,0.5,4.1,1.9,5.5c1.4,1.4,3,1.9,5.1,1.9c2.5,0,4.4-0.9,5.7-2.5
					c1.4-1.6,1.9-3.7,1.9-6.7c0-2.5-0.5-4.6-1.9-6.2c-1.4-1.6-3-2.5-5.5-2.5c-2.1,0-3.7,0.2-5.1,1.1c-1.4,0.9-1.9,1.6-2.5,3.2H643.2
					L643.2,51.5z"/>
				<path fill="#FFFFFF" d="M686.1,56.1h5.5v2.5h-5.5v8.7h-2.8v-8.7h-16V57L683,32.8h3L686.1,56.1L686.1,56.1z M670.7,56.1h12.7
					V36.5H683l-1.1,2.5L670.7,56.1z"/>
				<path fill="#FFFFFF" d="M698.8,66.7l-2.5,6.5h-1.9l1.6-6.5v-4h2.7L698.8,66.7L698.8,66.7z"/>
				<path fill="#FFFFFF" d="M722.2,56.1h5.5v2.5h-5.5v8.7h-2.7v-8.7h-16V57l15.7-24.2h3V56.1z M706.7,56.1h12.7V36.5h-0.3L718,39
					L706.7,56.1z"/>
			</g>
		</g>
		<g>
			<rect x="738.8" y="12.2" fill="#3D3D3D" width="10.9" height="73.9"/>
			<circle fill="#FFFFFF" cx="744.3" cy="42.2" r="1.4"/>
			<circle fill="#FFFFFF" cx="744.3" cy="49.1" r="1.4"/>
			<circle fill="#FFFFFF" cx="744.3" cy="55.6" r="1.4"/>
		</g>
		<rect x="443.5" y="-116" fill="#B7B7B7" width="2.7" height="217.8"/>
		<rect x="727.4" y="-61.8" fill="#D81F27" width="22.6" height="73.9"/>
		<g>
			<path fill="#FFFFFF" d="M735.3-16.9c-0.5,0-0.5,0-0.5-0.2c0-0.3,0-9.5,0-9.5h-1.1c0,0,0,9.2,0,9.7s0.5,1.4,1.4,1.4
				c0.9,0,4.4,0,4.4,0v-1.1C739.1-16.9,735.6-16.9,735.3-16.9z"/>
			<path fill="#FFFFFF" d="M744.6-26.8c0,0,0,9.2,0,9.7c0,0.5-0.5,1.4-1.4,1.4s-4.4,0-4.4,0v-1.1c0,0,3.2,0,3.7,0s0.5,0,0.5-0.3
				c0-0.2,0-9.5,0-9.5h1.4L744.6-26.8L744.6-26.8z"/>
			<path fill="#FFFFFF" d="M745.1-27.8c0,0,0-0.5,0-0.9c0-0.2,0-0.5-0.5-0.5s-5.7,0-5.7,0s-5.1,0-5.7,0c-0.3,0-0.5,0.5-0.5,0.5v0.9
				h-0.5v1.4h6.7h6.7v-1.4H745.1z"/>
			<path fill="#FFFFFF" d="M740.4-31.7c-0.9,0-1.4,0-1.4,0s-0.5,0-1.4,0s-1.6,1.1-1.6,1.9c0,0.2,0,0.2,0,0.2h1.4c0,0,0,0,0-0.5
				c0-0.2,0.3-0.5,0.5-0.5c0.5,0,1.1,0,1.1,0s0.5,0,1.1,0c0.3,0,0.5,0.5,0.5,0.5c0,0.5,0,0.5,0,0.5h1.4c0,0,0,0,0-0.2
				C742.1-30.5,741.3-31.7,740.4-31.7z"/>
			<rect x="738.3" y="-25.4" fill="#FFFFFF" width="1.4" height="7.4"/>
			<rect x="741.1" y="-25.4" fill="#FFFFFF" width="1.4" height="7.4"/>
			<rect x="735.8" y="-25.4" fill="#FFFFFF" width="1.4" height="7.4"/>
		</g>
		<rect x="674.4" y="-61.8" fill="#3D3D3D" width="53" height="73.9"/>
		<rect x="676.7" y="-61.8" fill="#2D2D2D" width="50.9" height="36.5"/>
		<g>
			<path fill="#FFFFFF" d="M701.6-8.3h-11.1v-1.4h11.1V-8.3z M701.6-2.8h-11.1v-1.4h11.1V-2.8z"/>
			<path fill="#FFFFFF" d="M712.7,3h-1.6v-17.6l-4.9,0.5v-1.1l6.5-1.1V3z"/>
		</g>
		<g>
			<path fill="#FFFFFF" d="M701.1-46H690v-1.4h11.1V-46z M701.1-40.4H690v-1.4h11.1V-40.4z"/>
			<path fill="#FFFFFF" d="M717.3-42.3c0,2.5-0.5,4.4-1.6,5.7c-1.1,1.4-2.5,1.9-4.6,1.9c-1.9,0-3.5-0.5-4.6-1.9
				c-1.1-1.4-1.6-3.2-1.6-5.7v-4.4c0-2.5,0.5-4.4,1.6-5.7c1.1-1.3,2.5-1.9,4.6-1.9s3.5,0.5,4.6,1.9c1.1,1.4,1.6,3.2,1.6,5.7V-42.3z
				 M715.7-46.9c0-1.9-0.3-3.5-1.1-4.6c-0.9-1.1-1.9-1.6-3.2-1.6s-2.7,0.5-3.2,1.6c-0.5,1.1-1.1,2.7-1.1,4.6v4.9
				c0,1.9,0.2,3.5,1.1,4.6c0.9,1.1,1.9,1.6,3.2,1.6s2.7-0.5,3.2-1.6c0.5-1.1,1.1-2.7,1.1-4.6V-46.9z"/>
		</g>
		<g>
			<rect x="663.5" y="-61.8" fill="#3D3D3D" width="10.9" height="73.9"/>
			<circle fill="#FFFFFF" cx="669" cy="-31.4" r="1.4"/>
			<circle fill="#FFFFFF" cx="669" cy="-24.8" r="1.4"/>
			<circle fill="#FFFFFF" cx="669" cy="-18.3" r="1.4"/>
		</g>
		<g id="completer">
			<rect x="-141.9" y="74.1" fill="#2B2B2B" width="129.6" height="77.8"/>
			<rect x="-141.9" y="132.4" opacity="0.8" fill="#ED1A46" enable-background="new    " width="129.6" height="19.6"/>
			<g>
				<path fill="#C9C9C9" d="M-111.6,91.2c0-0.3,0-0.5,0-0.9c0-0.4,0-0.3,0-0.5c-0.2,0.5-0.9,0.9-1.1,1.1c-0.5,0.3-1.1,0.5-1.6,0.5
					c-0.9,0-1.4-0.3-1.9-0.5c-0.5-0.5-0.5-1.1-0.5-1.6c0-0.9,0.2-1.4,1.1-1.9c0.5-0.5,1.6-0.5,2.7-0.5h1.9v-1c0-0.5-0.2-1.1-0.5-1.4
					c-0.2-0.3-0.9-0.5-1.6-0.5c-0.5,0-1.1,0.3-1.6,0.5c-0.5,0.2-0.5,0.9-0.5,1.1h-0.9l0,0c0-0.5,0.2-1.1,0.9-1.6
					c0.5-0.5,1.4-0.9,2.1-0.9c0.9,0,1.6,0.2,2.1,0.9c0.5,0.5,0.9,1.1,0.9,1.9V90c0,0.2,0,0.5,0,0.9c0,0.3,0,0.5,0.2,0.9h-1.6
					L-111.6,91.2L-111.6,91.2z M-114.6,90.7c0.5,0,1.1-0.3,1.6-0.5c0.5-0.2,0.9-0.9,1.1-1.1v-1.6h-1.9c-0.9,0-1.4,0.3-1.9,0.5
					c-0.5,0.3-0.9,0.9-0.9,1.4s0.2,0.9,0.5,1.1C-115.8,90.5-115.1,90.7-114.6,90.7z"/>
				<path fill="#C9C9C9" d="M-102.1,87.5c0,1.1-0.2,2.1-0.9,3c-0.5,0.9-1.4,1.1-2.1,1.1c-0.5,0-1.1,0-1.6-0.2
					c-0.5-0.3-0.9-0.5-1.1-1.1v1.4h-0.9V79.9h0.9v4.9c0.2-0.5,0.5-0.9,1.1-1.1c0.5-0.3,0.9-0.3,1.6-0.3c1.1,0,1.6,0.3,2.1,1.1
					C-102.4,85-102.1,85.9-102.1,87.5L-102.1,87.5z M-102.9,87.1c0-1.1-0.2-1.9-0.5-2.5c-0.2-0.5-1.1-1.1-1.9-1.1
					c-0.5,0-1.1,0.3-1.6,0.5c-0.2,0.3-0.5,0.9-0.9,1.1v3.7c0.2,0.5,0.5,0.9,0.9,1.1c0.4,0.2,0.9,0.5,1.4,0.5c0.9,0,1.4-0.3,1.9-0.9
					C-103.1,89.1-102.9,88.2-102.9,87.1L-102.9,87.1z"/>
				<path fill="#C9C9C9" d="M-95,89.1c0-0.3-0.2-0.9-0.5-1.1c-0.3-0.2-0.9-0.5-1.6-0.9c-1.1-0.2-1.6-0.5-2.1-0.9
					c-0.5-0.3-0.9-0.9-0.9-1.4c0-0.5,0.2-1.1,0.9-1.6c0.5-0.5,1.1-0.5,2.1-0.5c0.9,0,1.6,0.2,2.1,0.9c0.5,0.5,0.9,1.1,0.9,1.6l0,0
					H-95c0-0.5-0.2-0.9-0.5-1.1c-0.2-0.3-0.9-0.5-1.6-0.5c-0.5,0-1.1,0.3-1.4,0.5c-0.2,0.2-0.5,0.5-0.5,1.1c0,0.3,0.2,0.9,0.5,0.9
					c0.2,0.3,0.9,0.5,1.6,0.5c1.1,0.3,1.6,0.5,2.1,0.9c0.5,0.3,0.9,0.9,0.9,1.6s-0.2,1.4-0.9,1.6c-0.5,0.5-1.4,0.5-2.1,0.5
					c-1.1,0-1.6-0.3-2.5-0.9c-0.9-0.6-1.1-0.9-1.1-1.4l0,0h0.9c0,0.5,0.2,1.1,0.9,1.4c0.5,0.2,1.1,0.2,1.6,0.2s1.1-0.2,1.6-0.5
					C-95.3,89.9-95,89.6-95,89.1z"/>
			</g>
			<g>
				<path fill="#C9C9C9" d="M-111.9,107.6c0-0.2-0.2-0.9-0.5-1.1c-0.2-0.2-0.9-0.5-1.6-0.9c-1.1-0.3-1.6-0.5-2.1-0.9
					c-0.5-0.3-0.9-0.9-0.9-1.4c0-0.5,0.2-1.1,0.9-1.6c0.5-0.5,1.1-0.5,2.1-0.5c0.9,0,1.6,0.3,2.1,0.9c0.5,0.5,0.9,1.1,0.9,1.6l0,0
					h-0.9c0-0.5-0.2-0.9-0.5-1.1c-0.2-0.3-0.9-0.5-1.6-0.5c-0.5,0-1.1,0.2-1.4,0.5c-0.3,0.3-0.5,0.5-0.5,1.1c0,0.3,0.2,0.9,0.5,0.9
					c0.2,0.3,0.9,0.5,1.6,0.5c1.1,0.3,1.6,0.5,2.1,0.9c0.5,0.3,0.9,0.9,0.9,1.6c0,0.9-0.2,1.4-0.9,1.6c-0.5,0.5-1.4,0.5-2.1,0.5
					c-1.1,0-1.6-0.3-2.5-0.9c-0.9-0.5-0.9-1.1-0.9-1.6l0,0h0.9c0,0.5,0.2,1.1,0.9,1.4c0.5,0.3,1.1,0.3,1.6,0.3s1.1-0.3,1.6-0.5
					C-112.1,108.4-111.9,107.9-111.9,107.6z"/>
				<path fill="#C9C9C9" d="M-108.1,99.1h-0.7v-1.4h0.9L-108.1,99.1L-108.1,99.1z M-108.1,109.5h-0.7v-8.1h0.9L-108.1,109.5
					L-108.1,109.5z"/>
				<path fill="#C9C9C9" d="M-104.9,101.6v1.4c0.2-0.5,0.5-0.9,1.1-1.1c0.5-0.3,1.1-0.5,1.6-0.5c0.9,0,1.6,0.3,1.9,0.9
					c0.5,0.5,0.9,1.4,0.9,2.5v4.9h-0.9v-4.9c0-0.9-0.2-1.6-0.5-1.9c-0.2-0.3-0.9-0.5-1.4-0.5c-0.5,0-1.1,0.3-1.6,0.5
					c-0.2,0.2-0.9,0.9-0.9,1.4v5.7h-0.9v-8.1L-104.9,101.6L-104.9,101.6z"/>
			</g>
			<g>
				<path fill="#C9C9C9" d="M-111.6,128.9c0-0.2,0-0.5,0-0.9c0-0.4,0-0.3,0-0.5c-0.2,0.5-0.9,0.9-1.1,1.1c-0.5,0.2-1.1,0.5-1.6,0.5
					c-0.9,0-1.4-0.3-1.9-0.5c-0.5-0.5-0.5-1.1-0.5-1.6c0-0.9,0.2-1.4,1.1-1.9c0.5-0.5,1.6-0.5,2.7-0.5h1.9v-1.1
					c0-0.5-0.2-1.1-0.5-1.4c-0.2-0.2-0.9-0.5-1.6-0.5c-0.5,0-1.1,0.3-1.6,0.5c-0.5,0.3-0.5,0.9-0.5,1.1h-0.9l0,0
					c0-0.5,0.2-1.1,0.9-1.6c0.5-0.5,1.4-0.9,2.1-0.9c0.9,0,1.6,0.3,2.1,0.9c0.5,0.5,0.9,1.1,0.9,1.9v4.1c0,0.3,0,0.5,0,0.9
					c0,0.3,0,0.5,0.2,0.9h-1.6L-111.6,128.9L-111.6,128.9z M-114.6,128.2c0.5,0,1.1-0.3,1.6-0.5c0.5-0.2,0.9-0.9,1.1-1.1V125h-1.9
					c-0.9,0-1.4,0.3-1.9,0.5s-0.9,0.9-0.9,1.4s0.2,0.9,0.5,1.1C-115.8,128-115.1,128.2-114.6,128.2z"/>
				<path fill="#C9C9C9" d="M-107.5,122c0.2-0.5,0.5-0.9,1.1-1.1c0.5-0.3,1.1-0.3,1.6-0.3c0.9,0,1.6,0.3,1.9,0.9
					c0.5,0.5,0.9,1.4,0.9,2.5v4.9h-1.1v-5.1c0-0.9-0.2-1.6-0.5-1.9c-0.2-0.3-0.9-0.5-1.4-0.5s-1.1,0.3-1.6,0.5s-0.9,0.9-0.9,1.4v5.7
					h-1.1v-11.7h0.9v4.9L-107.5,122L-107.5,122z"/>
				<path fill="#C9C9C9" d="M-100.5,124.7c0-1.1,0.2-2.1,1.1-3c0.9-0.9,1.6-1.1,2.7-1.1s1.9,0.3,2.7,1.1c0.9,0.9,1.1,1.6,1.1,3v0.3
					c0,1.1-0.2,2.1-1.1,3c-0.9,0.9-1.6,1.1-2.7,1.1s-1.9-0.3-2.7-1.1C-100.3,127.1-100.5,126.1-100.5,124.7L-100.5,124.7z
					 M-99.6,125c0,0.9,0.2,1.6,0.9,2.5c0.5,0.9,1.1,1.1,1.9,1.1c0.9,0,1.6-0.3,1.9-1.1c0.5-0.5,0.9-1.4,0.9-2.5v-0.3
					c0-0.9-0.2-1.6-0.9-2.5c-0.5-0.5-1.1-1.1-1.9-1.1c-0.9,0-1.6,0.3-1.9,1.1C-99.1,123.1-99.6,123.6-99.6,125L-99.6,125z"/>
				<path fill="#C9C9C9" d="M-90.4,120.6v8.7c0,0.9-0.2,1.4-0.5,1.9c-0.2,0.5-1.1,0.9-1.6,0.9c-0.2,0-0.2,0-0.5,0
					c-0.2,0-0.2,0-0.5,0v-0.9h0.2c0.2,0,0.2,0,0.2,0c0.5,0,0.9-0.3,1.1-0.5c0.2-0.3,0.2-0.9,0.2-1.4v-8.7H-90.4z M-90.4,118.5h-0.9
					v-1.4h0.9V118.5z"/>
				<path fill="#C9C9C9" d="M-88.3,125c0-1.4,0.2-2.5,0.9-3c0.5-0.9,1.4-1.1,2.1-1.1c0.5,0,1.1,0,1.4,0.2c0.5,0.3,0.9,0.5,1.1,1.1
					v-4.9h0.9V129h-0.9v-1.1c-0.2,0.5-0.5,0.9-1.1,1.1c-0.5,0.3-0.9,0.3-1.6,0.3c-1.1,0-1.6-0.3-2.1-1.1
					C-88,127.1-88.3,126.4-88.3,125L-88.3,125z M-87.1,125c0,1.1,0.2,1.9,0.5,2.5c0.3,0.6,1.1,0.9,1.9,0.9c0.5,0,1.1,0,1.4-0.3
					c0.2-0.3,0.9-0.5,0.9-1.1v-3.7c-0.2-0.5-0.5-0.9-0.9-1.1c-0.2-0.2-0.9-0.5-1.4-0.5c-0.9,0-1.4,0.3-1.9,1.1
					C-87.1,123.1-87.1,123.9-87.1,125L-87.1,125z"/>
			</g>
			<g>
				<path fill="#C9C9C9" d="M-113.3,141l3-4.6h1.1l-3.5,5.5l3.7,5.5h-1.1l-3.2-4.9l-3.2,4.9h-1.1l3.7-5.5l-3.5-5.5h1.1L-113.3,141z"
					/>
				<path fill="#C9C9C9" d="M-104,142.4l3.2-6h1.1l-4.1,7.1v4.1h-0.9v-4.1l-4.1-6.7h1.1L-104,142.4z"/>
			</g>
			<rect x="-14" y="74.1" fill="#969696" width="1.9" height="42.5"/>
			<rect x="-134.8" y="83.1" fill="#EF4323" width="7.4" height="7.4"/>
			<rect x="-134.8" y="101.6" fill="#EF4323" width="7.4" height="7.4"/>
			<rect x="-134.8" y="120.9" fill="#C9C9C9" width="7.4" height="7.4"/>
			<rect x="-134.8" y="139.4" fill="#C9C9C9" width="7.4" height="7.4"/>
		</g>
		<g id="new">
			<rect x="315" y="-0.7" display="none" fill="#E0E0E0" width="128.6" height="37.2"/>
			<polygon display="none" fill="#E0E0E0" points="315,-0.7 266.5,36.6 315,36.6 			"/>
			<polygon fill="#303030" points="-222,-209.8 -222,-176.8 -246.5,-154.5 -246.5,36 -250,36 -250,-209.8 			"/>
			
				<text transform="matrix(1 0 0 1 363.0273 26.0127)" display="none" fill="#2B2B2B" enable-background="new    " font-family="'Roboto-Light'" font-size="24.9247">Graph</text>
			<g id="grapicon">
				<path fill="#FFFFFF" d="M-226.4-191.5v1.1h-1.1v-1.1H-226.4z M-229.4-191.5v1.1h-0.9v-1.1H-229.4z M-232-191.5v1.1h-1.1v-1.1
					H-232z M-235-191.5v1.1h-1.1v-1.1H-235z M-238-191.5v1.1h-0.9v-1.1H-238z M-240.8-191.5v1.1h-1.1v-1.1H-240.8z M-243.8-191.5
					v1.1h-1.1v-1.1H-243.8z M-246.8-191.5v1.1h-0.7v-1.1H-246.8z"/>
				<path fill="#FFFFFF" d="M-236.2-207.3L-236.2-207.3h-1.1l0,0H-236.2z M-236.2-205.2v1.1h-1.1v-1.1H-236.2z M-236.2-202.2v0.9
					h-1.1v-1.1h1.1V-202.2z M-236.2-199.4v1.1h-1.1v-1.1H-236.2z M-236.2-196.4v1.1h-1.1v-1.1H-236.2z M-236.2-193.4v1.1h-1.1v-1.1
					H-236.2z M-236.2-190.7v1.1h-1.1v-1.1H-236.2z M-236.2-187.7v1.1h-1.1v-1.1H-236.2z M-236.2-184.7v1.1h-1.1v-1.1H-236.2z
					 M-236.2-181.7v1.1h-1.1v-1.1H-236.2z M-236.2-179v1.1h-1.1v-1.1H-236.2z M-236.2-176v1.1h-1.1v-1.1H-236.2z"/>
				<path display="none" fill="#FFFFFF" d="M-226.7-205.9v28.2h-19.6v-28.2H-226.7z M-227.4-178.4V-205h-18v26.6H-227.4z"/>
				<polygon fill="#ED1A46" points="-240.8,-180.9 -243.3,-195.7 -245.7,-188.3 -246.3,-188.3 -242.9,-198 -240.5,-183.7 
					-238.3,-192.9 -235.9,-186.9 -231,-196.9 -228.3,-189.9 -225.5,-195 -225,-194.8 -228.5,-188.5 -231,-195.7 -235.9,-185.5 
					-238.3,-191.3 				"/>
			</g>
		</g>
	</g>
</g>
<g id="description">
	<path fill="#EF0000" d="M-57.6,66.3c-4.2,0-7.7-3.5-7.7-7.7s3.5-7.7,7.7-7.7s7.7,3.5,7.7,7.7S-53.4,66.3-57.6,66.3z M-57.6,51.9
		c-3.7,0-6.7,3-6.7,6.7c0,3.7,3,6.7,6.7,6.7c3.7,0,6.7-3,6.7-6.7C-50.9,54.9-53.9,51.9-57.6,51.9z"/>
	<polygon fill="#EF0000" points="-52.3,53.8 -53,53.1 -14.8,14.8 220,14.8 220,15.8 -14.4,15.8 	"/>
	<g enable-background="new    ">
		<path fill="#191919" d="M-5-5.1v12h2.3v1.5h-6.8V6.9h2.8v-9.7l-2.6,1.9l-0.9-1.3l4-2.9H-5z"/>
		<path fill="#191919" d="M2.2,6c0.7,0,1.3,0.6,1.3,1.3c0,0.8-0.5,1.3-1.3,1.3C1.5,8.6,0.9,8,0.9,7.3C0.9,6.5,1.4,6,2.2,6z"/>
		<path fill="#191919" d="M11.7,7l7.2-10.5H12v-1.6h9v1.4L13.8,6.8h7.5v1.6h-9.6V7z"/>
		<path fill="#191919" d="M27.6-1.9c1.2,0,2.1,0.5,2.8,1v-0.8H32V6c0,1,0.6,1.2,1.1,1.2l-0.4,1.4c-1.3,0-2-0.5-2.2-1.5
			c-0.6,0.8-1.6,1.6-3.1,1.6c-2.5,0-4.5-2-4.5-5.2C22.8,0.4,24.8-1.9,27.6-1.9z M30.2,5.8V0.4c-0.7-0.5-1.5-0.8-2.5-0.8
			c-1.9,0-3.1,1.5-3.1,3.7c0,2.2,1.3,3.7,3.1,3.7C28.7,7.1,29.6,6.6,30.2,5.8z"/>
		<path fill="#191919" d="M34.6,3.4c0-3,2-5.3,4.5-5.3c1.3,0,2.3,0.7,2.9,1.2v-5.3h1.7V6c0,1,0.6,1.2,1.1,1.2l-0.4,1.4
			c-1.2,0-2-0.5-2.2-1.5c-0.6,0.8-1.6,1.6-3.1,1.6C36.6,8.6,34.6,6.6,34.6,3.4z M41.9,5.9v-5c-0.5-0.6-1.4-1.3-2.5-1.3
			c-1.9,0-3.1,1.6-3.1,3.7c0,2.1,1.3,3.7,3.1,3.7C40.4,7.1,41.3,6.6,41.9,5.9z"/>
		<path fill="#191919" d="M51-1.9c1.2,0,2.1,0.5,2.8,1v-0.8h1.6V6c0,1,0.6,1.2,1.1,1.2l-0.4,1.4c-1.3,0-2-0.5-2.2-1.5
			c-0.6,0.8-1.6,1.6-3.1,1.6c-2.5,0-4.5-2-4.5-5.2C46.2,0.4,48.2-1.9,51-1.9z M53.6,5.8V0.4c-0.7-0.5-1.5-0.8-2.5-0.8
			c-1.9,0-3.1,1.5-3.1,3.7c0,2.2,1.3,3.7,3.1,3.7C52.1,7.1,53,6.6,53.6,5.8z"/>
		<path fill="#191919" d="M60.5,0c0.7-1.1,1.8-1.9,3.4-1.9c2.3,0,3.4,1.5,3.4,3.7v6.5h-1.7V2.1c0-1.4-0.7-2.4-1.9-2.4
			c-1.2,0-2.3,1-3,2.1v6.6h-1.7v-10h1.7V0z"/>
		<path fill="#191919" d="M68.8,12.5l0.4-1.4c0.3,0.2,0.8,0.3,1.4,0.3c1.1,0,1.9-0.5,2.7-2.6l0.4-1.2h-0.9l-3.9-8.8l1.5-0.7l3.7,8.4
			L77-1.8l1.6,0.6L74.9,8.9c-1.1,3.1-2.5,4-4.4,4C69.7,12.9,69.1,12.7,68.8,12.5z M72-3.9l3.6-2.4l0.8,1.6l-3.9,2L72-3.9z"/>
		<path fill="#191919" d="M84.8-1.2l1.6-0.7l3.4,8.3l3.4-8.3l1.5,0.7l-4.1,9.6h-1.8L84.8-1.2z"/>
		<path fill="#191919" d="M95,12.5l0.4-1.4c0.3,0.2,0.8,0.3,1.4,0.3c1.1,0,1.9-0.5,2.7-2.6l0.4-1.2h-0.9L95-1.2l1.5-0.7l3.7,8.4
			l2.9-8.3l1.6,0.6l-3.7,10.1c-1.1,3.1-2.5,4-4.4,4C95.9,12.9,95.3,12.7,95,12.5z M98.1-3.9l3.6-2.4l0.8,1.6l-3.9,2L98.1-3.9z"/>
		<path fill="#191919" d="M111.9,0c-0.2-0.1-0.5-0.2-0.9-0.2c-1.4,0-2.8,1.2-2.8,3.8v4.7h-1.7v-10h1.7v2.2c0.5-1.3,1.5-2.4,3.2-2.4
			c0.4,0,0.8,0,1.1,0.1L111.9,0z"/>
		<path fill="#191919" d="M117.7-1.9c1.2,0,2.1,0.5,2.8,1v-0.8h1.6V6c0,1,0.6,1.2,1.1,1.2l-0.4,1.4c-1.3,0-2-0.5-2.2-1.5
			c-0.6,0.8-1.6,1.6-3.1,1.6c-2.5,0-4.5-2-4.5-5.2C112.9,0.4,114.9-1.9,117.7-1.9z M120.3,5.8V0.4c-0.7-0.5-1.5-0.8-2.5-0.8
			c-1.9,0-3.1,1.5-3.1,3.7c0,2.2,1.3,3.7,3.1,3.7C118.8,7.1,119.7,6.6,120.3,5.8z"/>
		<path fill="#191919" d="M124.8-1.6h7.5v1.3l-5.5,7.2h5.6v1.5h-7.8V7l5.5-7.2h-5.4V-1.6z"/>
		<path fill="#191919" d="M140.6-1.6h1.7V9.5c0,2.4-1.4,3.4-3.2,3.4c-0.8,0-1.4-0.2-2-0.4l0.4-1.4c0.3,0.2,0.8,0.4,1.3,0.4
			c1.1,0,1.6-0.7,1.6-2V-1.6z M140.3-4.6c0-0.7,0.5-1.2,1.2-1.2c0.7,0,1.2,0.6,1.2,1.2c0,0.7-0.5,1.2-1.2,1.2
			C140.8-3.4,140.3-3.9,140.3-4.6z"/>
		<path fill="#191919" d="M146.5,4.1c0.2,1.9,1.4,3,3.1,3c1.2,0,2-0.3,2.9-0.7l0.4,1.5c-0.9,0.4-2.1,0.7-3.5,0.7
			c-2.9,0-4.7-1.9-4.7-5.3c0-3,1.8-5.3,4.5-5.3c2.9,0,4.3,2.1,4.3,4.7c0,0.5,0,0.9-0.1,1.3H146.5z M146.5,2.7h5.5c0-1.9-1-3-2.8-3
			C147.7-0.4,146.7,0.7,146.5,2.7z"/>
		<path fill="#191919" d="M167.3-4c-0.5-0.3-1.1-0.6-1.9-0.6c-1.1,0-1.8,0.7-1.8,2v1.3h3v1.5h-3v8.2h-1.7V0.2h-1.5v-1.5h1.5v-1.2
			c0-2.3,1.4-3.7,3.4-3.7c1.1,0,1.8,0.3,2.5,0.6L167.3-4z"/>
		<path fill="#191919" d="M177.4,8.5c-1.2,0-1.9-0.5-2.2-1.4c-0.9,0.9-2.1,1.6-3.5,1.6c-1.7,0-3.4-1-3.4-3.7v-6.5h1.7v6.3
			c0,1.6,0.7,2.4,2,2.4c1.1,0,2.1-0.5,2.9-1.2v-7.5h1.7v7.4c0,1.1,0.6,1.4,1.1,1.4L177.4,8.5z"/>
		<path fill="#191919" d="M181.8,0c0.7-1.1,1.8-1.9,3.4-1.9c2.3,0,3.4,1.5,3.4,3.7v6.5h-1.7V2.1c0-1.4-0.7-2.4-1.9-2.4
			c-1.2,0-2.3,1-3,2.1v6.6h-1.7v-10h1.7V0z"/>
		<path fill="#191919" d="M191.5-5.9h1.7v8.2l4.5-4.1l1,1.1l-3.9,3.4l4.7,4.7l-1.2,1.2l-5.2-5.3v5.2h-1.7V-5.9z"/>
		<path fill="#191919" d="M207.5,0.2c-0.7-0.4-1.3-0.5-2.1-0.5c-1.8,0-3.2,1.4-3.2,3.7c0,2.1,1.2,3.7,3.1,3.7c1,0,1.6-0.2,2.4-0.6
			l0.5,1.5c-0.8,0.4-1.8,0.7-3,0.7c-2.9,0-4.7-2.2-4.7-5.3c0-2.9,1.9-5.3,4.9-5.3c1.1,0,1.9,0.2,2.7,0.6L207.5,0.2z"/>
		<path fill="#191919" d="M211.1,4.1c0.2,1.9,1.4,3,3.1,3c1.2,0,2-0.3,2.9-0.7l0.4,1.5c-0.9,0.4-2.1,0.7-3.5,0.7
			c-2.9,0-4.7-1.9-4.7-5.3c0-3,1.8-5.3,4.5-5.3c2.9,0,4.3,2.1,4.3,4.7c0,0.5,0,0.9-0.1,1.3H211.1z M211.1,2.7h5.5c0-1.9-1-3-2.8-3
			C212.3-0.4,211.3,0.7,211.1,2.7z"/>
	</g>
	<path fill="#EF0000" d="M-222.9-167.3c-4.2,0-7.7-3.5-7.7-7.7s3.5-7.7,7.7-7.7s7.7,3.5,7.7,7.7S-218.7-167.3-222.9-167.3z
		 M-222.9-181.7c-3.7,0-6.7,3-6.7,6.7s3,6.7,6.7,6.7s6.7-3,6.7-6.7S-219.2-181.7-222.9-181.7z"/>
	<g enable-background="new    ">
		<path fill="#191919" d="M-184.6-122.7c0-0.2-0.1-0.5-0.1-0.7c0-5,6.1-6.7,6.1-9.6c0-1.1-0.9-1.9-2.1-1.9c-1.1,0-1.9,0.5-2.7,1.2
			l-1-1.2c1-0.9,2.2-1.5,3.9-1.5c2.3,0,3.8,1.4,3.8,3.3c0,3.7-5.5,5.4-6,8.9h5.9v1.6H-184.6z"/>
		<path fill="#191919" d="M-171.8-125.1c0.7,0,1.3,0.6,1.3,1.3c0,0.8-0.5,1.3-1.3,1.3c-0.7,0-1.3-0.6-1.3-1.3
			C-173.1-124.6-172.6-125.1-171.8-125.1z"/>
		<path fill="#191919" d="M-162.3-124.1l7.2-10.5h-6.9v-1.6h9v1.4l-7.2,10.5h7.5v1.6h-9.6V-124.1z"/>
		<path fill="#191919" d="M-146.2-133c2.8,0,5,2,5,5.2c0,3.2-2.1,5.3-5,5.3c-2.9,0-5-2.1-5-5.3C-151.2-131-149.1-133-146.2-133z
			 M-146.2-131.4c-2,0-3.2,1.5-3.2,3.7c0,2,1.4,3.7,3.2,3.7c2,0,3.2-1.5,3.2-3.7C-143-129.7-144.4-131.4-146.2-131.4z"/>
		<path fill="#191919" d="M-138.9-137h1.7v5.3c0.5-0.6,1.5-1.3,2.9-1.3c2.3,0,4.4,1.9,4.4,5.2c0,3.2-2.3,5.3-4.5,5.3
			c-1.2,0-2.2-0.5-2.9-1.1v0.8h-1.6V-137z M-134.7-131.5c-1.1,0-2,0.7-2.5,1.3v5.4c0.6,0.5,1.4,0.8,2.3,0.8c1.9,0,3.2-1.5,3.2-3.7
			C-131.6-130.1-133-131.5-134.7-131.5z"/>
		<path fill="#191919" d="M-122-131.1c-0.2-0.1-0.5-0.2-0.9-0.2c-1.4,0-2.8,1.2-2.8,3.8v4.7h-1.7v-10h1.7v2.2
			c0.5-1.3,1.5-2.4,3.2-2.4c0.4,0,0.8,0,1.1,0.1L-122-131.1z"/>
		<path fill="#191919" d="M-116.2-133c1.2,0,2.1,0.5,2.8,1v-0.8h1.6v7.6c0,1,0.6,1.2,1.1,1.2l-0.4,1.4c-1.3,0-2-0.5-2.2-1.5
			c-0.6,0.8-1.6,1.6-3.1,1.6c-2.5,0-4.5-2-4.5-5.2C-121-130.7-119-133-116.2-133z M-113.6-125.3v-5.4c-0.7-0.5-1.5-0.8-2.5-0.8
			c-1.9,0-3.1,1.5-3.1,3.7c0,2.2,1.3,3.7,3.1,3.7C-115.1-124-114.2-124.5-113.6-125.3z"/>
		<path fill="#191919" d="M-109.2-132.7h7.5v1.3l-5.5,7.2h5.6v1.5h-7.8v-1.4l5.5-7.2h-5.4V-132.7z"/>
		<path fill="#191919" d="M-100.6-135l3.6-2.4l0.8,1.6l-3.9,2L-100.6-135z M-97.6-122.7h-1.7v-10h1.7V-122.7z"/>
		<path fill="#191919" d="M-88.8-125c0.7,0.6,1.7,1,2.9,1c1.4,0,2.2-0.5,2.2-1.3c0-0.8-0.5-1.3-2.5-2c-1.9-0.6-2.8-1.4-2.8-3
			c0-1.5,1.4-2.8,3.8-2.8c1.3,0,2.3,0.3,3.1,0.7l-0.5,1.4c-0.7-0.4-1.6-0.7-2.7-0.7c-1.3,0-2,0.7-2,1.3c0,0.6,0.4,1,2,1.5
			c2.5,0.8,3.4,1.8,3.4,3.3c0,1.8-1.6,2.9-4,2.9c-1.5,0-2.8-0.4-3.6-1L-88.8-125z"/>
		<path fill="#191919" d="M-78.5-127c0.2,1.9,1.4,3,3.1,3c1.2,0,2-0.3,2.9-0.7l0.4,1.5c-0.9,0.4-2.1,0.7-3.5,0.7
			c-2.9,0-4.7-1.9-4.7-5.3c0-3,1.8-5.3,4.5-5.3c2.9,0,4.3,2.1,4.3,4.7c0,0.5,0,0.9-0.1,1.3H-78.5z M-78.6-128.4h5.5c0-1.9-1-3-2.8-3
			C-77.3-131.5-78.4-130.4-78.6-128.4z"/>
		<path fill="#191919" d="M-62.6-135.5h1.3v3.2h2.8v1.5h-2.8v4.8c0,1.5,0.7,2,1.6,2c0.6,0,1.2-0.2,1.7-0.5l0.5,1.4
			c-0.5,0.3-1.5,0.7-2.4,0.7c-1.9,0-3.1-1.3-3.1-3.7v-4.7h-1.7v-1.5h1.8L-62.6-135.5z"/>
		<path fill="#191919" d="M-54.1-126c0,1.4,0.6,2,1.6,2c0.5,0,1-0.1,1.3-0.3l0.4,1.4c-0.5,0.2-1.2,0.4-2,0.4c-1.8,0-3.1-1-3.1-3.4
			V-137h1.7V-126z"/>
		<path fill="#191919" d="M-45.3-133c1.2,0,2.1,0.5,2.8,1v-0.8h1.6v7.6c0,1,0.6,1.2,1.1,1.2l-0.4,1.4c-1.3,0-2-0.5-2.2-1.5
			c-0.6,0.8-1.6,1.6-3.1,1.6c-2.5,0-4.5-2-4.5-5.2C-50.1-130.7-48.1-133-45.3-133z M-42.7-125.3v-5.4c-0.7-0.5-1.5-0.8-2.5-0.8
			c-1.9,0-3.1,1.5-3.1,3.7c0,2.2,1.3,3.7,3.1,3.7C-44.2-124-43.3-124.5-42.7-125.3z"/>
	</g>
	<g enable-background="new    ">
		<path fill="#191919" d="M-30-123.1c-0.4,0.2-1.4,0.5-2.7,0.5c-2.8,0-4.7-1.9-4.7-4.8c0-2.9,2-5,5-5c1,0,1.9,0.3,2.4,0.5l-0.4,1.3
			c-0.4-0.2-1-0.4-2-0.4c-2.1,0-3.3,1.6-3.3,3.5c0,2.2,1.4,3.5,3.2,3.5c1,0,1.6-0.3,2.1-0.5L-30-123.1z M-33.6-133.3l-1.8-2.8h1.3
			l1.1,1.8h0l1.1-1.8h1.3l-1.8,2.8H-33.6z"/>
		<path fill="#191919" d="M-24.6-136.1l-2.4,2.8h-1.2l1.7-2.8H-24.6z M-28-122.7v-9.3h1.7v9.3H-28z"/>
		<path fill="#191919" d="M-21.4-134.7v2.7h2.4v1.3h-2.4v5c0,1.2,0.3,1.8,1.3,1.8c0.4,0,0.8-0.1,1-0.1l0.1,1.3
			c-0.3,0.1-0.8,0.2-1.5,0.2c-0.8,0-1.4-0.3-1.8-0.7c-0.5-0.5-0.7-1.3-0.7-2.4v-5.1h-1.4v-1.3h1.4v-2.2L-21.4-134.7z"/>
		<path fill="#191919" d="M-15.4-127.8L-15.4-127.8c0.3-0.3,0.6-0.7,0.9-1.1l2.7-3.2h2l-3.6,3.8l4.1,5.5h-2.1l-3.2-4.5l-0.9,1v3.5
			h-1.7v-13.7h1.7V-127.8z"/>
		<path fill="#191919" d="M0.4-127.5c0,3.5-2.4,5-4.7,5c-2.5,0-4.5-1.9-4.5-4.8c0-3.1,2-5,4.6-5C-1.4-132.3,0.4-130.3,0.4-127.5z
			 M-7-127.4c0,2,1.2,3.6,2.8,3.6c1.6,0,2.8-1.5,2.8-3.6c0-1.6-0.8-3.6-2.8-3.6C-6.1-131-7-129.1-7-127.4z"/>
		<path fill="#191919" d="M6.6-129.5c0-1,0-1.8-0.1-2.5h1.5l0.1,1.5h0c0.5-0.9,1.5-1.8,3.1-1.8c1.3,0,3.3,0.8,3.3,4v5.6h-1.7v-5.4
			c0-1.5-0.6-2.8-2.2-2.8c-1.1,0-2,0.8-2.3,1.7c-0.1,0.2-0.1,0.5-0.1,0.8v5.6H6.6V-129.5z"/>
		<path fill="#191919" d="M22.5-122.7l-0.1-1.2h-0.1c-0.5,0.7-1.5,1.4-2.9,1.4c-1.9,0-2.9-1.3-2.9-2.7c0-2.3,2-3.5,5.6-3.5v-0.2
			c0-0.8-0.2-2.2-2.1-2.2c-0.9,0-1.8,0.3-2.4,0.7l-0.4-1.1c0.8-0.5,1.9-0.8,3.1-0.8c2.9,0,3.6,1.9,3.6,3.8v3.5c0,0.8,0,1.6,0.2,2.2
			H22.5z M22.3-127.5c-1.9,0-4,0.3-4,2.1c0,1.1,0.7,1.6,1.6,1.6c1.2,0,2-0.8,2.3-1.6c0.1-0.2,0.1-0.4,0.1-0.5V-127.5z"/>
	</g>
	<g enable-background="new    ">
		<path fill="#191919" d="M-185.9-100.5l4.2-5.5c0.4-0.5,0.8-0.9,1.2-1.4v0h-5.1v-1.4h7.1l0,1.1l-4.2,5.4c-0.4,0.5-0.8,1-1.2,1.5v0
			h5.5v1.4h-7.6V-100.5z"/>
		<path fill="#191919" d="M-168.3-104.3c0,3.5-2.4,5-4.7,5c-2.5,0-4.5-1.9-4.5-4.8c0-3.1,2-5,4.6-5
			C-170.1-109.1-168.3-107.1-168.3-104.3z M-175.7-104.2c0,2,1.2,3.6,2.8,3.6c1.6,0,2.8-1.5,2.8-3.6c0-1.6-0.8-3.6-2.8-3.6
			C-174.8-107.8-175.7-105.9-175.7-104.2z"/>
		<path fill="#191919" d="M-166.2-99.5c0-0.6,0.1-1.6,0.1-2.4v-11.3h1.7v5.9h0c0.6-1,1.7-1.7,3.2-1.7c2.3,0,4,1.9,3.9,4.8
			c0,3.3-2.1,5-4.2,5c-1.4,0-2.4-0.5-3.1-1.8h-0.1l-0.1,1.5H-166.2z M-164.4-103.3c0,0.2,0,0.4,0.1,0.6c0.3,1.2,1.3,2,2.5,2
			c1.8,0,2.8-1.4,2.8-3.6c0-1.9-1-3.5-2.8-3.5c-1.2,0-2.2,0.8-2.6,2.1c0,0.2-0.1,0.4-0.1,0.7V-103.3z"/>
		<path fill="#191919" d="M-155.1-105.9c0-1.1,0-2-0.1-2.9h1.5l0.1,1.8h0.1c0.4-1.3,1.4-2,2.6-2c0.2,0,0.3,0,0.5,0.1v1.6
			c-0.2,0-0.3-0.1-0.6-0.1c-1.2,0-2,0.9-2.3,2.2c0,0.2-0.1,0.5-0.1,0.8v5h-1.7V-105.9z"/>
		<path fill="#191919" d="M-143.8-99.5l-0.1-1.2h-0.1c-0.5,0.7-1.5,1.4-2.9,1.4c-1.9,0-2.9-1.3-2.9-2.7c0-2.3,2-3.5,5.6-3.5v-0.2
			c0-0.8-0.2-2.2-2.1-2.2c-0.9,0-1.8,0.3-2.4,0.7l-0.4-1.1c0.8-0.5,1.9-0.8,3.1-0.8c2.9,0,3.6,1.9,3.6,3.8v3.5c0,0.8,0,1.6,0.2,2.2
			H-143.8z M-144-104.3c-1.9,0-4,0.3-4,2.1c0,1.1,0.7,1.6,1.6,1.6c1.2,0,2-0.8,2.3-1.6c0.1-0.2,0.1-0.4,0.1-0.5V-104.3z"/>
		<path fill="#191919" d="M-140.7-100.5l4.2-5.5c0.4-0.5,0.8-0.9,1.2-1.4v0h-5.1v-1.4h7.1l0,1.1l-4.2,5.4c-0.4,0.5-0.8,1-1.2,1.5v0
			h5.5v1.4h-7.6V-100.5z"/>
		<path fill="#191919" d="M-130.5-103.9c0,2.3,1.5,3.2,3.2,3.2c1.2,0,1.9-0.2,2.6-0.5l0.3,1.2c-0.6,0.3-1.6,0.6-3.1,0.6
			c-2.9,0-4.6-1.9-4.6-4.7c0-2.8,1.7-5,4.4-5c3,0,3.9,2.7,3.9,4.4c0,0.3,0,0.6-0.1,0.8H-130.5z M-125.6-105.1c0-1.1-0.4-2.8-2.4-2.8
			c-1.7,0-2.5,1.6-2.6,2.8H-125.6z"/>
		<path fill="#191919" d="M-121.8-106.3c0-1,0-1.8-0.1-2.5h1.5l0.1,1.5h0c0.5-0.9,1.5-1.8,3.1-1.8c1.3,0,3.3,0.8,3.3,4v5.6h-1.7
			v-5.4c0-1.5-0.6-2.8-2.2-2.8c-1.1,0-2,0.8-2.3,1.7c-0.1,0.2-0.1,0.5-0.1,0.8v5.6h-1.7V-106.3z"/>
		<path fill="#191919" d="M-107.7-112.9l-2.4,2.8h-1.2l1.7-2.8H-107.7z M-111.1-99.5v-9.3h1.7v9.3H-111.1z"/>
		<path fill="#191919" d="M-94.4-108.9c0,0.7-0.1,1.4-0.1,2.6v5.4c0,2.1-0.4,3.5-1.3,4.3c-0.9,0.8-2.2,1.1-3.4,1.1
			c-1.1,0-2.4-0.3-3.1-0.8l0.4-1.3c0.6,0.4,1.6,0.7,2.7,0.7c1.7,0,3-0.9,3-3.3v-1h0c-0.5,0.9-1.5,1.6-3,1.6c-2.3,0-4-2-4-4.6
			c0-3.2,2.1-5,4.2-5c1.6,0,2.5,0.8,2.9,1.6h0l0.1-1.4H-94.4z M-96.2-105.2c0-0.3,0-0.5-0.1-0.8c-0.3-1-1.1-1.8-2.4-1.8
			c-1.6,0-2.8,1.4-2.8,3.5c0,1.8,0.9,3.4,2.8,3.4c1,0,2-0.7,2.4-1.7c0.1-0.3,0.1-0.6,0.1-0.9V-105.2z"/>
		<path fill="#191919" d="M-91.8-105.9c0-1.1,0-2-0.1-2.9h1.5l0.1,1.8h0.1c0.4-1.3,1.4-2,2.6-2c0.2,0,0.3,0,0.5,0.1v1.6
			c-0.2,0-0.3-0.1-0.6-0.1c-1.2,0-2,0.9-2.3,2.2c0,0.2-0.1,0.5-0.1,0.8v5h-1.7V-105.9z"/>
		<path fill="#191919" d="M-80.4-99.5l-0.1-1.2h-0.1c-0.5,0.7-1.5,1.4-2.9,1.4c-1.9,0-2.9-1.3-2.9-2.7c0-2.3,2-3.5,5.6-3.5v-0.2
			c0-0.8-0.2-2.2-2.1-2.2c-0.9,0-1.8,0.3-2.4,0.7l-0.4-1.1c0.8-0.5,1.9-0.8,3.1-0.8c2.9,0,3.6,1.9,3.6,3.8v3.5c0,0.8,0,1.6,0.2,2.2
			H-80.4z M-80.7-104.3c-1.9,0-4,0.3-4,2.1c0,1.1,0.7,1.6,1.6,1.6c1.2,0,2-0.8,2.3-1.6c0.1-0.2,0.1-0.4,0.1-0.5V-104.3z"/>
		<path fill="#191919" d="M-76.1-99.5v-8h-1.3v-1.3h1.3v-0.4c0-1.3,0.3-2.5,1.1-3.3c0.6-0.6,1.5-0.9,2.3-0.9c0.6,0,1.1,0.1,1.4,0.3
			l-0.2,1.3c-0.3-0.1-0.6-0.2-1.1-0.2c-1.4,0-1.8,1.3-1.8,2.7v0.5h2.3v1.3h-2.3v8H-76.1z"/>
		<path fill="#191919" d="M-62.8-102.1c0,1,0,1.8,0.1,2.5h-1.5l-0.1-1.5h0c-0.4,0.8-1.4,1.7-3.1,1.7c-1.5,0-3.2-0.8-3.2-4.1v-5.5
			h1.7v5.2c0,1.8,0.5,3,2.1,3c1.1,0,1.9-0.8,2.2-1.5c0.1-0.3,0.2-0.6,0.2-0.9v-5.7h1.7V-102.1z"/>
	</g>
	<polygon fill="#EF0000" points="23.9,-142.1 -193,-142.1 -219.5,-168.5 -218.8,-169.2 -192.6,-143.1 23.9,-143.1 	"/>
</g>
</svg>
