<?xml version="1.0" encoding="utf-8"?>
<!-- Generator: Adobe Illustrator 18.0.0, SVG Export Plug-In . SVG Version: 6.00 Build 0)  -->
<!DOCTYPE svg PUBLIC "-//W3C//DTD SVG 1.1//EN" "http://www.w3.org/Graphics/SVG/1.1/DTD/svg11.dtd">
<svg version="1.1" id="Vrstva_1" xmlns="http://www.w3.org/2000/svg" xmlns:xlink="http://www.w3.org/1999/xlink" x="0px" y="0px"
	 viewBox="0 145.2 800 654.8" enable-background="new 0 145.2 800 654.8" xml:space="preserve">
<g id="input">
	<rect x="41.8" y="372.6" fill="#F2F2F2" width="457.1" height="149.8"/>
	<g>
		<path fill="#A09F9F" d="M87.9,397c0.7,0.7,1.7,1.1,2.8,1.1c1.5,0,2.2-0.4,2.2-1.3s-0.4-1.3-2.6-2c-2-0.7-2.8-1.5-2.8-3
			s1.5-2.8,3.9-2.8c1.3,0,2.2,0.2,3,0.7l-0.4,1.4c-0.7-0.4-1.5-0.7-2.6-0.7c-1.3,0-2,0.7-2,1.3c0,0.7,0.4,1.1,2,1.5
			c2.6,0.9,3.5,1.7,3.5,3.3c0,1.7-1.5,2.8-3.9,2.8c-1.5,0-2.8-0.4-3.5-1.1L87.9,397z"/>
		<path fill="#A09F9F" d="M96.9,386.4c0-0.7,0.4-1.3,1.3-1.3c0.7,0,1.3,0.7,1.3,1.3c0,0.7-0.4,1.3-1.3,1.3
			C97.3,387.4,96.9,387,96.9,386.4z M98.8,399.2h-1.7v-10h1.7V399.2z"/>
		<path fill="#A09F9F" d="M103.6,390.9c0.7-1.1,1.7-2,3.5-2c2.2,0,3.5,1.5,3.5,3.7v6.5h-1.7v-6.3c0-1.5-0.7-2.4-2-2.4
			c-1.1,0-2.4,0.9-3,2.2v6.5h-1.7v-10h1.7v1.7L103.6,390.9L103.6,390.9z"/>
		<path fill="#A09F9F" d="M116.5,401.2l-1.1,0.7c-1.5-2.8-2.6-5.7-2.6-8.5c0-3.3,0.9-5.9,2.6-8.5l1.1,0.7c-0.9,2.2-1.7,4.8-1.7,8.1
			C114.7,396.8,115.6,398.8,116.5,401.2z"/>
		<path fill="#A09F9F" d="M122.3,392.4l-4.4-5.7l1.5-1.1l3.9,5.4l3.9-5.4l1.5,1.1l-4.1,5.7l4.6,6.1l-1.5,1.1l-4.4-5.9l-4.1,5.7
			l-1.5-1.1L122.3,392.4z"/>
		<path fill="#A09F9F" d="M135.2,392.4l4.1-6.7l1.5,0.9l-4.6,7.6v5.2h-1.7v-5.2l-4.8-7.6l1.5-0.9L135.2,392.4z"/>
		<path fill="#A09F9F" d="M141.9,385l1.1-0.7c1.5,2.6,2.6,5.4,2.6,8.5c0,3-0.9,5.7-2.6,8.5l-1.1-0.7c0.9-2.2,1.7-4.8,1.7-8.1
			C143.7,389.4,143,387.2,141.9,385z"/>
	</g>
	<rect x="501.3" y="374.8" fill="#ED1A46" width="54" height="149.6"/>
	<rect x="518.1" y="444.3" fill="#FFFFFF" width="20.7" height="3.3"/>
	<rect x="518.1" y="454.7" fill="#FFFFFF" width="20.7" height="3.3"/>
</g>
<g id="frame">
	<rect y="145.2" fill="#303030" width="799.3" height="32.7"/>
	<g id="close_button">
		<rect x="767.6" y="145.2" fill="#C82027" width="32.7" height="32.7"/>
		<g>
			<path fill="#FFFFFF" d="M14.4,162.1l-5.2,6.7h8.5v1.1h-10v-0.8l5.4-7.2l-5.4-6.3v-1.1h10v1.1H9.4l0,0l5,6.1V162.1z"/>
		</g>
		<polygon fill="#FFFFFF" points="17.6,155.6 17,155.6 17.6,156.5 		"/>
		<polygon fill="#FFFFFF" points="17.6,168.9 17,168.9 17.6,168.2 		"/>
		<rect x="8.7" y="159.5" fill="#C82027" width="7.8" height="1.3"/>
		<rect x="8.7" y="163.4" fill="#C82027" width="7.8" height="1.3"/>
		
			<rect x="783.4" y="148.6" transform="matrix(0.7071 -0.7071 0.7071 0.7071 115.4632 601.5324)" fill="#E1E1E1" width="0.9" height="25.5"/>
		
			<rect x="783.3" y="148.7" transform="matrix(-0.7071 -0.7071 0.7071 -0.7071 1223.7072 829.7959)" fill="#E1E1E1" width="0.9" height="25.5"/>
	</g>
	<g>
		<path fill="#F7F7F7" d="M28.1,170v-15.7h4.6c1.5,0,2.8,0.4,3.9,1.1c0.9,0.7,1.3,1.7,1.3,3c0,0.9-0.2,1.5-0.7,2.2
			c-0.4,0.7-1.1,1.1-2,1.3c0.9,0.2,1.7,0.7,2.4,1.3c0.7,0.7,0.9,1.5,0.9,2.6c0,1.3-0.4,2.4-1.3,3.3c-0.9,0.7-2.2,1.1-3.7,1.1h-5.4
			C28.1,170.2,28.1,170,28.1,170z M29.4,161.3h3.7c1.1,0,2-0.2,2.6-0.7c0.7-0.4,0.9-1.3,0.9-2.2c0-1.1-0.4-1.7-1.1-2.2
			c-0.7-0.4-1.5-0.7-2.8-0.7h-3.3C29.4,155.6,29.4,161.3,29.4,161.3z M29.4,162.4v6.5h4.1c1.1,0,2-0.2,2.8-0.9
			c0.7-0.7,1.1-1.3,1.1-2.4c0-0.9-0.2-1.7-0.9-2.4c-0.7-0.7-1.5-0.9-2.6-0.9C34,162.4,29.4,162.4,29.4,162.4z"/>
		<path fill="#F7F7F7" d="M49,170c0-0.4-0.2-0.7-0.2-1.1c0-0.2,0-0.7,0-0.9c-0.4,0.7-1.1,1.1-1.7,1.5c-0.7,0.4-1.5,0.7-2.4,0.7
			c-1.1,0-2-0.2-2.6-0.9c-0.6-0.7-0.9-1.3-0.9-2.4s0.4-2,1.3-2.6c0.9-0.7,2.2-0.9,3.7-0.9h2.6v-1.5c0-0.9-0.2-1.5-0.9-2
			c-0.7-0.4-1.3-0.7-2.2-0.7s-1.7,0.2-2.2,0.7c-0.4,0.4-0.9,1.1-0.9,1.7h-1.1l0,0c0-0.9,0.4-1.7,1.1-2.4c0.7-0.7,2-1.1,3.3-1.1
			s2.4,0.4,3,1.1c0.9,0.7,1.1,1.5,1.1,2.8v5.7c0,0.4,0,0.9,0,1.1s0.2,0.9,0.2,1.1H49V170z M44.6,169.1c0.9,0,1.7-0.2,2.4-0.7
			c0.7-0.4,1.3-1.1,1.5-1.7v-2.4h-2.6c-1.1,0-2.2,0.2-2.8,0.7c-0.7,0.4-1.1,1.1-1.1,2c0,0.7,0.2,1.1,0.7,1.5
			C43.3,168.9,44,169.1,44.6,169.1z"/>
		<path fill="#F7F7F7" d="M58.8,159.5h-0.9c-0.9,0-1.5,0.2-2,0.7c-0.4,0.4-0.9,1.1-1.1,2v8.1h-1.3v-12h0.9l0.2,2v0.2
			c0.4-0.7,0.9-1.3,1.3-1.7c0.4-0.4,1.3-0.7,2-0.7c0.2,0,0.2,0,0.4,0c0.4,0.2,0.4,0.2,0.7,0.2L58.8,159.5z"/>
		<path fill="#F7F7F7" d="M70.3,164.5c0,1.7-0.4,3-1.1,4.1c-0.9,1.1-2,1.5-3.3,1.5c-0.9,0-1.5-0.2-2.2-0.4c-0.7-0.2-1.1-0.9-1.5-1.5
			L62,170h-1v-16.8h1.3v7c0.4-0.7,0.9-1.1,1.5-1.5c0.7-0.4,1.3-0.4,2.2-0.4c1.3,0,2.4,0.7,3.3,1.7C70.1,161,70.3,162.6,70.3,164.5
			L70.3,164.5z M69,164.3c0-1.5-0.2-2.6-0.9-3.7c-0.7-0.9-1.5-1.3-2.6-1.3c-0.9,0-1.5,0.2-2.2,0.7c-0.7,0.4-0.9,1.1-1.3,1.7v5.2
			c0.2,0.7,0.7,1.3,1.3,1.5c0.7,0.4,1.3,0.7,2.2,0.7c1.1,0,2-0.4,2.6-1.3C68.8,166.9,69,165.8,69,164.3L69,164.3z"/>
		<path fill="#F7F7F7" d="M74.7,155h-1.3v-1.7h1.3V155z M74.7,170h-1.3v-11.8h1.3V170z"/>
		<path fill="#F7F7F7" d="M82.5,170.2c-1.5,0-2.6-0.4-3.7-1.5c-0.9-1.1-1.5-2.4-1.5-4.1v-0.7c0-1.7,0.4-3,1.5-4.1
			c0.9-1.1,2.2-1.7,3.5-1.7c1.5,0,2.6,0.4,3.5,1.3c0.9,1.1,1.3,2.2,1.3,3.7v1h-8.3v0.2c0,1.3,0.4,2.4,1.1,3.3
			c0.7,0.9,1.5,1.3,2.8,1.3c0.9,0,1.5-0.2,2-0.4c0.4-0.2,1.1-0.4,1.5-0.9l0.7,0.9c-0.4,0.4-1.1,0.9-1.7,1.1
			C84.2,170,83.6,170.2,82.5,170.2z M82.5,159.3c-0.9,0-1.7,0.4-2.4,1.1c-0.6,0.6-1.1,1.7-1.1,2.8l0,0h6.7v-0.4c0-1.1-0.2-2-0.9-2.6
			C84.2,159.5,83.4,159.3,82.5,159.3z"/>
		<path fill="#F7F7F7" d="M106,165.2L106,165.2c-0.2,1.7-0.7,2.8-1.7,3.7c-1.1,0.9-2.4,1.3-3.9,1.3c-1.7,0-3-0.7-4.1-2
			s-1.5-2.8-1.5-5v-2.4c0-2,0.4-3.7,1.5-5c1.1-1.3,2.4-2,4.1-2s3,0.4,3.9,1.3c0.9,0.9,1.5,2.2,1.7,3.7l0,0h-1.3
			c-0.2-1.3-0.7-2.4-1.3-3c-0.6-0.6-1.7-1.1-3-1.1s-2.4,0.4-3.3,1.5s-1.3,2.4-1.3,4.1v2.6c0,1.7,0.4,3,1.3,4.1
			c0.9,1.1,2,1.5,3.3,1.5s2.4-0.4,3-1.1c0.7-0.7,1.1-1.7,1.3-3h1.3V165.2z"/>
		<path fill="#F7F7F7" d="M116.5,170c0-0.4-0.2-0.7-0.2-1.1c0-0.2,0-0.7,0-0.9c-0.4,0.7-1.1,1.1-1.7,1.5c-0.7,0.4-1.5,0.7-2.4,0.7
			c-1.1,0-2-0.2-2.6-0.9c-0.7-0.7-0.9-1.3-0.9-2.4s0.4-2,1.3-2.6c0.9-0.7,2.2-0.9,3.7-0.9h2.6v-1.5c0-0.9-0.2-1.5-0.9-2
			c-0.7-0.4-1.3-0.7-2.2-0.7s-1.7,0.2-2.2,0.7c-0.4,0.4-0.9,1.1-0.9,1.7H109l0,0c0-0.9,0.4-1.7,1.1-2.4c0.7-0.7,2-1.1,3.3-1.1
			s2.4,0.4,3,1.1c0.7,0.4,1.1,1.3,1.1,2.6v5.7c0,0.4,0,0.9,0,1.1c0,0.2,0.2,0.9,0.2,1.1h-1.3L116.5,170L116.5,170z M112.3,169.1
			c0.9,0,1.7-0.2,2.4-0.7s1.3-1.1,1.5-1.7v-2.4h-2.6c-1.1,0-2.2,0.2-2.8,0.7s-1.1,1.1-1.1,2c0,0.7,0.2,1.1,0.7,1.5
			S111.5,169.1,112.3,169.1z"/>
		<path fill="#F7F7F7" d="M122.3,170H121v-16.8h1.3V170z"/>
		<path fill="#F7F7F7" d="M130.4,169.1c0.9,0,1.5-0.2,2.2-0.7s1.1-1.1,1.1-2h1.1l0,0c0,1.1-0.4,2-1.3,2.6s-2,1.1-3,1.1
			c-1.5,0-2.8-0.7-3.7-1.7c-0.9-1.1-1.3-2.4-1.3-4.1v-0.4c0-1.7,0.4-3,1.3-4.1s2.2-1.7,3.7-1.7c1.3,0,2.4,0.4,3.3,1.1
			c0.9,0.7,1.3,1.7,1.3,3l0,0H134c0-0.9-0.2-1.7-0.9-2.2c-0.7-0.7-1.3-0.9-2.4-0.9c-1.3,0-2.2,0.4-2.8,1.3c-0.7,0.9-1.1,2.2-1.1,3.5
			v0.4c0,1.3,0.2,2.6,0.9,3.5C128.2,168.7,129.1,169.1,130.4,169.1z"/>
		<path fill="#F7F7F7" d="M145,168c-0.4,0.7-0.9,1.3-1.5,1.5c-0.7,0.4-1.3,0.7-2.2,0.7c-1.3,0-2.2-0.4-2.8-1.3
			c-0.7-0.9-1.1-2.2-1.1-3.9v-6.7h1.3v6.7c0,1.5,0.2,2.4,0.7,3c0.4,0.7,1.1,0.9,2,0.9s1.7-0.2,2.4-0.7s1.1-1.1,1.3-1.7v-8.3h1.3V170
			h-1.1L145,168z"/>
		<path fill="#F7F7F7" d="M151.1,170h-1.3v-16.8h1.3V170z"/>
		<path fill="#F7F7F7" d="M162.2,170c0-0.4-0.2-0.7-0.2-1.1c0-0.2,0-0.7,0-0.9c-0.4,0.7-1.1,1.1-1.7,1.5c-0.7,0.4-1.5,0.7-2.4,0.7
			c-1.1,0-2-0.2-2.6-0.9c-0.6-0.7-0.9-1.3-0.9-2.4s0.4-2,1.3-2.6c0.9-0.7,2.2-0.9,3.7-0.9h2.6v-1.5c0-0.9-0.2-1.5-0.9-2
			c-0.7-0.4-1.3-0.7-2.2-0.7s-1.7,0.2-2.2,0.7c-0.4,0.4-0.9,1.1-0.9,1.7h-1.1l0,0c0-0.9,0.4-1.7,1.1-2.4c0.7-0.7,2-1.1,3.3-1.1
			s2.4,0.4,3,1.1c0.9,0.7,1.1,1.5,1.1,2.8v5.7c0,0.4,0,0.9,0,1.1s0.2,0.9,0.2,1.1h-1.2V170z M157.8,169.1c0.9,0,1.7-0.2,2.4-0.7
			c0.7-0.4,1.3-1.1,1.5-1.7v-2.4h-2.6c-1.1,0-2.2,0.2-2.8,0.7c-0.7,0.4-1.1,1.1-1.1,2c0,0.7,0.2,1.1,0.7,1.5
			C156.5,168.9,157.2,169.1,157.8,169.1z"/>
		<path fill="#F7F7F7" d="M168.7,155.4v2.8h2.6v1.1h-2.6v7.6c0,0.9,0.2,1.3,0.4,1.5c0.2,0.2,0.7,0.4,1.1,0.4c0.2,0,0.4,0,0.7,0
			c0.2,0,0.4,0,0.7,0l0.2,0.9c-0.2,0-0.4,0.2-0.9,0.2c-0.4,0-0.7,0-0.9,0c-0.9,0-1.5-0.2-2-0.9c-0.4-0.4-0.7-1.3-0.7-2.4v-7.4h-2
			v-1.1h2v-2.8h1.4V155.4z"/>
		<path fill="#F7F7F7" d="M173.1,163.9c0-1.7,0.4-3,1.3-4.1c0.9-1.1,2.2-1.7,3.7-1.7s2.8,0.7,3.7,1.7c0.9,1.1,1.3,2.6,1.3,4.1v0.4
			c0,1.7-0.4,3-1.3,4.1c-0.9,1.1-2.2,1.7-3.7,1.7s-2.8-0.7-3.7-1.7c-0.9-1.1-1.3-2.6-1.3-4.1V163.9z M174.4,164.3
			c0,1.3,0.4,2.4,1.1,3.5c0.7,0.9,1.7,1.3,2.8,1.3c1.3,0,2.2-0.4,2.8-1.3c0.7-0.9,1.1-2,1.1-3.5v-0.4c0-1.3-0.4-2.4-1.1-3.5
			c-0.7-0.9-1.7-1.3-2.8-1.3c-1.3,0-2.2,0.4-2.8,1.3c-0.7,0.9-1.1,2-1.1,3.5V164.3z"/>
		<path fill="#F7F7F7" d="M191.3,159.5h-0.9c-0.9,0-1.5,0.2-2,0.7c-0.4,0.4-0.9,1.1-1.1,2v8.1H186v-12h1.1v2v0.2
			c0.4-0.7,0.9-1.3,1.3-1.7c0.4-0.4,1.3-0.7,2-0.7c0.2,0,0.2,0,0.4,0s0.2,0,0.4,0L191.3,159.5z"/>
	</g>
</g>
<g id="display">
	<rect y="177.8" fill="#F7F7F7" width="553.8" height="197.2"/>
	<g>
		<path fill="#303030" d="M417.5,271.6c0,5-1.1,8.9-3.5,11.5c-2.2,2.6-5.4,3.9-9.4,3.9s-7-1.3-9.4-3.9s-3.5-6.5-3.5-11.5v-8.9
			c0-5,1.1-8.9,3.5-11.5s5.4-3.9,9.4-3.9s7,1.3,9.4,3.9c2.4,2.6,3.5,6.5,3.5,11.5V271.6z M411,261.8c0-3.3-0.4-5.4-1.5-7
			c-1.1-1.5-2.6-2.4-4.6-2.4s-3.5,0.9-4.6,2.4s-1.5,3.9-1.5,7v10.7c0,3.3,0.4,5.7,1.5,7.2s2.6,2.4,4.6,2.4s3.5-0.9,4.6-2.4
			s1.5-3.9,1.5-7.2V261.8z"/>
		<path fill="#303030" d="M430.8,286.7h-6.5v-6.3h6.5V286.7z"/>
		<path fill="#303030" d="M460.2,272.7h5v5.2h-5v8.7h-6.5v-8.7h-16.5L437,274l16.5-26.1h6.7V272.7z M443.4,272.7h10.4V257h-0.2
			l-0.4,1.1L443.4,272.7z"/>
		<path fill="#303030" d="M491.1,272.7h5v5.2h-5v8.7h-6.5v-8.7H468l-0.2-3.9l16.5-26.1h6.7v24.8H491.1z M474.3,272.7h10.4V257h-0.2
			l-0.4,1.1L474.3,272.7z"/>
		<path fill="#303030" d="M522.2,272.7h5v5.2h-5v8.7h-6.5v-8.7h-16.5L499,274l16.5-26.1h6.7V272.7z M505.3,272.7h10.4V257h-0.2
			l-0.5,1.1L505.3,272.7z"/>
	</g>
</g>
<g id="extension">
	<rect x="232.5" y="340" display="none" fill="#303030" width="47" height="348.1"/>
	<rect y="374.4" fill="#2B2B2B" width="43.5" height="21.6"/>
	<g>
		<path fill="#FFFFFF" d="M16.5,385.5c0,0.9-0.2,1.7-0.7,2.4s-1.1,0.9-1.7,0.9c-0.4,0-0.9,0-1.3-0.2c-0.4-0.2-0.7-0.4-0.9-0.7v3.5
			H11v-8.9h0.7v1.1c0.2-0.4,0.4-0.7,0.9-0.9c0.4-0.2,0.7-0.2,1.3-0.2c0.9,0,1.3,0.2,1.7,0.9C16.3,383.5,16.5,384.4,16.5,385.5
			L16.5,385.5z M15.7,385.3c0-0.9-0.2-1.5-0.4-2c-0.4-0.4-0.9-0.9-1.5-0.9c-0.4,0-0.9,0.2-1.1,0.4c-0.2,0.2-0.4,0.4-0.7,0.9v3
			c0.2,0.4,0.4,0.7,0.7,0.9c0.2,0.2,0.7,0.2,1.1,0.2c0.7,0,1.1-0.2,1.5-0.7C15.7,386.8,15.7,386.1,15.7,385.3L15.7,385.3z"/>
		<path fill="#FFFFFF" d="M17.6,385.3c0-0.9,0.2-1.7,0.9-2.4c0.7-0.7,1.3-0.9,2.2-0.9c0.9,0,1.5,0.2,2.2,0.9
			c0.7,0.7,0.9,1.3,0.9,2.4v0.2c0,0.9-0.2,1.7-0.9,2.4s-1.3,0.9-2.2,0.9c-0.9,0-1.5-0.2-2.2-0.9C17.9,387.2,17.6,386.4,17.6,385.3
			L17.6,385.3z M18.5,385.3c0,0.7,0.2,1.3,0.7,2c0.4,0.7,0.9,0.9,1.5,0.9c0.7,0,1.3-0.2,1.5-0.9c0.4-0.4,0.7-1.1,0.7-2v-0.2
			c0-0.7-0.2-1.3-0.7-2c-0.4-0.4-0.9-0.9-1.5-0.9c-0.7,0-1.3,0.2-1.5,0.9C18.9,383.7,18.5,384.4,18.5,385.3L18.5,385.3z"/>
		<path fill="#FFFFFF" d="M26.3,386.4l0.2,1.1l0,0l0.2-1.1L28,382h0.7l1.3,4.4l0.2,1.1l0,0l0.2-1.1l1.1-4.4h0.7l-2,6.5h0.2l-1.5-4.4
			l-0.2-1.1l0,0l-0.2,1.1l-1.5,4.4h-0.7l-2-6.5H25L26.3,386.4z"/>
	</g>
	<rect y="395.8" fill="#2B2B2B" width="43.5" height="21.6"/>
	<g>
		<path fill="#EE1D3E" d="M14.8,404h-0.4c-0.4,0-0.9,0.2-1.1,0.4c-0.2,0.2-0.4,0.7-0.7,1.1v4.6h-0.9v-6.5h0.7v1.1l0,0
			c0.2-0.4,0.4-0.7,0.7-0.9c0.2-0.2,0.7-0.4,1.1-0.4h0.2h0.2L14.8,404z"/>
		<path fill="#EE1D3E" d="M15.5,406.6c0-0.9,0.2-1.7,0.9-2.4c0.7-0.7,1.3-0.9,2.2-0.9c0.9,0,1.5,0.2,2.2,0.9
			c0.7,0.7,0.9,1.3,0.9,2.4v0.2c0,0.9-0.2,1.7-0.9,2.4s-1.3,0.9-2.2,0.9c-0.9,0-1.5-0.2-2.2-0.9C15.7,408.6,15.5,407.7,15.5,406.6
			L15.5,406.6z M16.1,406.6c0,0.7,0.2,1.3,0.7,2s0.9,0.9,1.5,0.9c0.7,0,1.3-0.2,1.5-0.9c0.4-0.4,0.7-1.1,0.7-2v-0.2
			c0-0.7-0.2-1.3-0.7-2c-0.4-0.4-0.9-0.9-1.5-0.9c-0.7,0-1.3,0.2-1.5,0.9C16.5,405.1,16.1,405.7,16.1,406.6L16.1,406.6z"/>
		<path fill="#EE1D3E" d="M22.4,406.6c0-0.9,0.2-1.7,0.9-2.4c0.7-0.7,1.3-0.9,2.2-0.9c0.9,0,1.5,0.2,2.2,0.9
			c0.7,0.7,0.9,1.3,0.9,2.4v0.2c0,0.9-0.2,1.7-0.9,2.4s-1.3,0.9-2.2,0.9c-0.9,0-1.5-0.2-2.2-0.9C22.6,408.6,22.4,407.7,22.4,406.6
			L22.4,406.6z M23.1,406.6c0,0.7,0.2,1.3,0.7,2c0.4,0.7,0.9,0.9,1.5,0.9c0.7,0,1.3-0.2,1.5-0.9c0.4-0.4,0.7-1.1,0.7-2v-0.2
			c0-0.7-0.2-1.3-0.7-2c-0.4-0.4-0.9-0.9-1.5-0.9c-0.7,0-1.3,0.2-1.5,0.9C23.5,405.1,23.1,405.7,23.1,406.6L23.1,406.6z"/>
		<path fill="#EE1D3E" d="M30.7,401.6v1.7h1.5v0.7h-1.5v4.4c0,0.4,0,0.7,0.2,0.9s0.4,0.2,0.7,0.2s0.2,0,0.4,0s0.2,0,0.4,0v0.4
			c-0.2,0-0.2,0-0.4,0.2c-0.2,0-0.4,0-0.4,0c-0.4,0-0.9-0.2-1.1-0.4c-0.2-0.2-0.4-0.7-0.4-1.3v-4.4H29v-0.7h1v-1.7L30.7,401.6
			L30.7,401.6z"/>
	</g>
	<rect y="417.3" fill="#2B2B2B" width="43.5" height="21.6"/>
	<g>
		<path fill="#FFFFFF" d="M12.6,431.4v-5.9h-1.1v-0.7h1.1v-1.1c0-0.7,0.2-1.1,0.4-1.5c0.4-0.4,0.9-0.4,1.3-0.4c0.2,0,0.2,0,0.4,0
			s0.2,0,0.4,0v0.7H15c0,0-0.2,0-0.4,0c-0.4,0-0.7,0.2-0.9,0.4c-0.2,0.2-0.2,0.7-0.2,1.1v0.9H15v0.7h-1.5v5.9h-0.9V431.4z"/>
		<path fill="#FFFFFF" d="M20.2,431.4c0-0.2,0-0.4,0-0.7c0-0.2,0-0.2,0-0.4c-0.2,0.4-0.7,0.7-0.9,0.9c-0.4,0.2-0.9,0.4-1.3,0.4
			c-0.7,0-1.1-0.2-1.5-0.4c-0.4-0.4-0.4-0.9-0.4-1.3c0-0.7,0.2-1.1,0.9-1.5c0.4-0.4,1.3-0.4,2.2-0.4h1.5v-0.9c0-0.4-0.2-0.9-0.4-1.1
			c-0.2-0.2-0.7-0.4-1.3-0.4c-0.4,0-0.9,0.2-1.3,0.4c-0.4,0.2-0.4,0.7-0.4,0.9h-0.7l0,0c0-0.4,0.2-0.9,0.7-1.3
			c0.4-0.4,1.1-0.7,1.7-0.7s1.3,0.2,1.7,0.7c0.4,0.4,0.7,0.9,0.7,1.5v3.3c0,0.2,0,0.4,0,0.7c0,0.2,0,0.4,0.2,0.7h-1.3v-0.4H20.2z
			 M18.1,430.8c0.4,0,0.9-0.2,1.3-0.4c0.4-0.2,0.7-0.7,0.9-0.9v-1.4h-1.5c-0.7,0-1.1,0.2-1.5,0.4s-0.7,0.7-0.7,1.1s0.2,0.7,0.4,0.9
			C17.2,430.8,17.6,430.8,18.1,430.8z"/>
		<path fill="#FFFFFF" d="M25.3,430.8c0.4,0,0.9-0.2,1.3-0.4c0.4-0.2,0.7-0.7,0.7-1.1H28l0,0c0,0.7-0.2,1.1-0.7,1.5
			c-0.4,0.4-1.1,0.7-1.7,0.7c-0.9,0-1.5-0.2-2-0.9c-0.4-0.7-0.7-1.3-0.7-2.4V428c0-0.9,0.2-1.7,0.7-2.4c0.4-0.7,1.1-0.9,2-0.9
			c0.7,0,1.3,0.2,1.7,0.7c0.4,0.4,0.7,0.9,0.7,1.7l0,0h-0.7c0-0.4-0.2-0.9-0.4-1.3c-0.4-0.2-0.9-0.4-1.3-0.4c-0.7,0-1.3,0.2-1.5,0.7
			c-0.4,0.4-0.4,1.1-0.4,2v0.2c0,0.9,0.2,1.3,0.4,2C23.9,430.5,24.6,430.8,25.3,430.8z"/>
		<path fill="#FFFFFF" d="M30.5,423.1v1.7H32v0.7h-1.5v4.4c0,0.4,0,0.7,0.2,0.9c0.2,0.2,0.4,0.2,0.7,0.2s0.2,0,0.4,0s0.2,0,0.4,0
			v0.4c-0.2,0-0.2,0-0.4,0.2c-0.2,0-0.4,0-0.4,0c-0.4,0-0.9-0.2-1.1-0.4c-0.2-0.2-0.4-0.7-0.4-1.3v-4.4h-1.1v-0.7h1.1v-1.7H30.5z"/>
	</g>
	<rect y="438.6" fill="#2B2B2B" width="43.5" height="21.6"/>
	<g>
		<path fill="#FFFFFF" d="M13.5,446.9h-0.4c-0.4,0-0.9,0.2-1.1,0.4c-0.2,0.2-0.4,0.7-0.7,1.1v4.6h-0.9v-6.5h0.7v1.1l0,0
			c0.2-0.4,0.4-0.7,0.7-0.9c0.2-0.2,0.7-0.4,1.1-0.4h0.2h0.2L13.5,446.9z"/>
		<path fill="#FFFFFF" d="M18.7,452.7c0-0.2,0-0.4,0-0.7c0-0.2,0-0.2,0-0.4c-0.2,0.4-0.7,0.7-0.9,0.9c-0.4,0.2-0.9,0.4-1.3,0.4
			c-0.7,0-1.1-0.2-1.5-0.4c-0.4-0.4-0.4-0.9-0.4-1.3c0-0.7,0.2-1.1,0.9-1.5c0.4-0.4,1.3-0.4,2.2-0.4h1.5v-0.9c0-0.4-0.2-0.9-0.4-1.1
			c-0.2-0.2-0.7-0.4-1.3-0.4c-0.4,0-0.9,0.2-1.3,0.4c-0.4,0.2-0.9,0.2-0.9,0.7h-0.7l0,0c0-0.4,0.2-0.9,0.7-1.3
			c0.4-0.4,1.1-0.7,1.7-0.7c0.7,0,1.3,0.2,1.7,0.7s0.7,0.9,0.7,1.5v3.3c0,0.2,0,0.4,0,0.7c0,0.2,0,0.4,0.2,0.7h-0.9V452.7z
			 M16.3,452.1c0.4,0,0.9-0.2,1.3-0.4c0.4-0.2,0.7-0.7,0.9-0.9v-1.3h-1.3c-0.7,0-1.1,0.2-1.5,0.4c-0.4,0.2-0.7,0.7-0.7,1.1
			s0.2,0.7,0.4,0.9S15.9,452.1,16.3,452.1z"/>
		<path fill="#FFFFFF" d="M22,446.2v1.1c0.2-0.4,0.4-0.7,0.9-0.9s0.9-0.4,1.3-0.4c0.7,0,1.3,0.2,1.5,0.7c0.4,0.4,0.7,1.1,0.7,2v3.9
			h-0.7v-3.9c0-0.7-0.2-1.3-0.4-1.5c-0.2-0.2-0.7-0.4-1.1-0.4s-0.9,0.2-1.3,0.4c-0.2,0.2-0.7,0.7-0.7,1.1v4.6h-0.9v-6.5L22,446.2
			L22,446.2z"/>
		<path fill="#FFFFFF" d="M27.9,449.5c0-1.1,0.2-2,0.7-2.4c0.4-0.7,1.1-0.9,1.7-0.9c0.4,0,0.9,0,1.1,0.2c0.4,0.2,0.7,0.4,0.9,0.9
			v-3.9H33v9.4h-0.7v-0.9c-0.2,0.4-0.4,0.7-0.9,0.9s-0.7,0.2-1.3,0.2c-0.9,0-1.3-0.2-1.7-0.9C28.1,451.4,27.9,450.6,27.9,449.5
			L27.9,449.5z M28.5,449.7c0,0.9,0.2,1.5,0.4,2s0.9,0.7,1.5,0.7c0.4,0,0.9,0,1.1-0.2s0.7-0.4,0.7-0.9v-3c-0.2-0.4-0.4-0.7-0.7-0.9
			c-0.2-0.2-0.7-0.4-1.1-0.4c-0.7,0-1.1,0.2-1.5,0.9C28.7,448,28.5,448.6,28.5,449.7L28.5,449.7z"/>
	</g>
	<rect y="460.1" fill="#2B2B2B" width="43.5" height="21.6"/>
	<g>
		<path fill="#FFFFFF" d="M15.2,474.1h-0.7v-9.4h0.7V474.1z"/>
		<path fill="#FFFFFF" d="M17,470.8c0-0.9,0.2-1.7,0.9-2.4c0.7-0.7,1.3-0.9,2.2-0.9c0.9,0,1.5,0.2,2.2,0.9c0.7,0.7,0.9,1.3,0.9,2.4
			v0.2c0,0.9-0.2,1.7-0.9,2.4c-0.7,0.7-1.3,0.9-2.2,0.9c-0.9,0-1.5-0.2-2.2-0.9C17.2,472.8,17,471.9,17,470.8L17,470.8z M17.6,471
			c0,0.7,0.2,1.3,0.7,2c0.4,0.7,0.9,0.9,1.5,0.9c0.7,0,1.3-0.2,1.5-0.9c0.4-0.4,0.7-1.1,0.7-2v-0.2c0-0.7-0.2-1.3-0.7-2
			c-0.4-0.4-0.9-0.9-1.5-0.9c-0.7,0-1.3,0.2-1.5,0.9C18.1,469.5,17.6,470.2,17.6,471L17.6,471z"/>
		<path fill="#FFFFFF" d="M23.9,471c0-1.1,0.2-2,0.7-2.4c0.4-0.7,1.1-0.9,2-0.9c0.4,0,0.9,0,1.3,0.2s0.7,0.4,0.9,0.9v-1.1h0.7v6.5
			c0,0.9-0.2,1.5-0.7,2c-0.4,0.4-1.1,0.7-2,0.7c-0.2,0-0.7,0-1.1-0.2c-0.4,0-0.7-0.2-0.9-0.2l0.2-0.7c0.2,0.2,0.4,0.2,0.9,0.2
			c0.2,0,0.7,0,0.9,0c0.7,0,1.1-0.2,1.5-0.7c0.2-0.4,0.4-0.9,0.4-1.5v-0.9c-0.2,0.4-0.4,0.7-0.9,0.9c-0.4,0.2-0.7,0.2-1.1,0.2
			c-0.9,0-1.3-0.2-1.7-0.9C24.2,472.8,23.9,472.1,23.9,471L23.9,471z M24.6,471c0,0.9,0.2,1.3,0.4,2c0.2,0.4,0.9,0.7,1.5,0.7
			c0.4,0,0.9,0,1.1-0.2s0.7-0.4,0.7-0.9v-3c-0.2-0.4-0.4-0.7-0.7-0.9c-0.2-0.2-0.7-0.4-1.1-0.4c-0.7,0-1.1,0.2-1.5,0.9
			C24.6,469.7,24.6,470.2,24.6,471L24.6,471z"/>
	</g>
	<rect y="481.5" fill="#2B2B2B" width="43.5" height="21.6"/>
	<g>
		<g>
			<path fill="#FFFFFF" d="M22,495.6c-0.9,0-1.5-0.2-2-0.9c-0.4-0.7-0.9-1.3-0.9-2.4v-0.4c0-0.9,0.2-1.7,0.9-2.4
				c0.7-0.7,1.1-0.9,2-0.9s1.5,0.2,2,0.7s0.7,1.1,0.7,2v0.7h-4.8v0.2c0,0.7,0.2,1.3,0.7,1.7s0.9,0.7,1.5,0.7c0.4,0,0.9,0,1.1-0.2
				s0.7-0.2,0.9-0.4l0.2,0.4c-0.2,0.2-0.7,0.4-0.9,0.7C23.1,495.2,22.6,495.6,22,495.6z M22,489.5c-0.4,0-1.1,0.2-1.3,0.7
				c-0.4,0.4-0.7,0.9-0.7,1.5l0,0h3.9v-0.2c0-0.7-0.2-1.1-0.4-1.5C22.9,489.8,22.4,489.5,22,489.5z"/>
		</g>
	</g>
	<rect y="503" fill="#2B2B2B" width="43.5" height="21.6"/>
	<g>
		<path fill="#FFFFFF" d="M23.1,513.9c0,0.9-0.2,1.7-0.7,2.4c-0.4,0.7-1.1,0.9-1.7,0.9c-0.4,0-0.9,0-1.3-0.2s-0.7-0.4-0.9-0.7v3.5
			h-0.7v-8.9h0.7v1.1c0.2-0.4,0.4-0.7,0.9-0.9c0.4-0.2,0.7-0.2,1.3-0.2c0.9,0,1.3,0.2,1.7,0.9C22.9,512,23.1,512.8,23.1,513.9
			L23.1,513.9z M22.4,513.8c0-0.9-0.2-1.5-0.4-2c-0.4-0.4-0.9-0.9-1.5-0.9c-0.4,0-0.9,0.2-1.1,0.4c-0.2,0.2-0.4,0.4-0.7,0.9v3
			c0.2,0.4,0.4,0.7,0.7,0.9c0.3,0.2,0.7,0.2,1.1,0.2c0.7,0,1.1-0.2,1.5-0.7C22.2,515.3,22.4,514.8,22.4,513.8L22.4,513.8z"/>
		<path fill="#FFFFFF" d="M25.7,508.7H25v-1.1h0.7V508.7z M25.7,517H25v-6.5h0.7V517z"/>
	</g>
</g>
<g id="soustavy">
	<g>
		<path fill="#EF4323" d="M13.3,340.4V333h2.2c0.9,0,1.3,0.2,1.7,0.4c0.4,0.2,0.7,0.9,0.7,1.5c0,0.4,0,0.7-0.2,1.1s-0.4,0.4-0.9,0.7
			c0.4,0,0.9,0.2,1.1,0.7s0.4,0.7,0.4,1.1c0,0.7-0.2,1.1-0.7,1.5s-1.1,0.4-1.7,0.4L13.3,340.4L13.3,340.4z M13.9,336.3h1.7
			c0.4,0,0.9-0.2,1.3-0.4c0.2-0.2,0.4-0.7,0.4-1.1s-0.2-0.9-0.4-1.1c-0.2-0.2-0.7-0.4-1.3-0.4h-1.7V336.3z M13.9,336.9v3h2
			c0.4,0,0.9-0.2,1.3-0.4c0.2-0.2,0.4-0.7,0.4-1.1s-0.2-0.9-0.4-1.1s-0.7-0.4-1.3-0.4H13.9L13.9,336.9z"/>
		<path fill="#EF4323" d="M20.5,340.4h-0.7V333h0.7V340.4z"/>
		<path fill="#EF4323" d="M27.9,340.4h-0.7l-4.1-6.3l0,0v6.3h-0.7V333h0.7l4.1,6.3l0,0V333h0.7V340.4z"/>
		<path d="M44.8,340.4h-0.7v-6.7l-2,0.2v-0.4l2.4-0.4v7.4h0.3V340.4z"/>
		<path d="M52.5,337.6c0,0.9-0.2,1.7-0.7,2.2s-1.1,0.9-1.7,0.9c-0.7,0-1.3-0.2-1.7-0.9c-0.4-0.4-0.7-1.3-0.7-2.2v-1.7
			c0-0.9,0.2-1.7,0.7-2.2c0.4-0.4,1.1-0.9,1.7-0.9c0.7,0,1.3,0.2,1.7,0.9c0.4,0.7,0.7,1.3,0.7,2.2V337.6z M52,335.8
			c0-0.7-0.2-1.3-0.4-1.7c-0.2-0.4-0.7-0.7-1.3-0.7c-0.7,0-1.1,0.2-1.3,0.7c-0.2,0.4-0.4,1.1-0.4,1.7v1.7c0,0.7,0.2,1.3,0.4,1.7
			c0.2,0.4,0.7,0.7,1.3,0.7s1.1-0.2,1.3-0.7c0.2-0.4,0.4-1.1,0.4-1.7V335.8z"/>
		<path d="M56.6,340.4h-0.7v-6.7l-2,0.2v-0.4l2.4-0.4v7.4h0.3V340.4z"/>
		<path d="M64.4,337.6c0,0.9-0.2,1.7-0.7,2.2s-1.1,0.9-1.7,0.9c-0.7,0-1.3-0.2-1.7-0.9c-0.4-0.4-0.7-1.3-0.7-2.2v-1.7
			c0-0.9,0.2-1.7,0.7-2.2c0.4-0.4,1.1-0.9,1.7-0.9c0.7,0,1.3,0.2,1.7,0.9c0.4,0.7,0.7,1.3,0.7,2.2V337.6z M63.8,335.8
			c0-0.7-0.2-1.3-0.4-1.7c-0.2-0.4-0.7-0.7-1.3-0.7c-0.7,0-1.1,0.2-1.3,0.7c-0.2,0.4-0.4,1.1-0.4,1.7v1.7c0,0.7,0.2,1.3,0.4,1.7
			c0.2,0.4,0.7,0.7,1.3,0.7s1.1-0.2,1.3-0.7c0.2-0.4,0.4-1.1,0.4-1.7V335.8z"/>
		<path d="M71,340.4h-0.7v-6.7l-2,0.2v-0.4l2.4-0.4v7.4H71V340.4z"/>
		<path d="M78.6,337.6c0,0.9-0.2,1.7-0.7,2.2c-0.4,0.4-1.1,0.9-1.7,0.9c-0.7,0-1.3-0.2-1.7-0.9c-0.4-0.4-0.7-1.3-0.7-2.2v-1.7
			c0-0.9,0.2-1.7,0.7-2.2c0.4-0.4,1.1-0.9,1.7-0.9c0.7,0,1.3,0.2,1.7,0.9c0.4,0.7,0.7,1.3,0.7,2.2V337.6z M77.9,335.8
			c0-0.7-0.2-1.3-0.4-1.7c-0.2-0.4-0.7-0.7-1.3-0.7c-0.7,0-1.1,0.2-1.3,0.7c-0.2,0.4-0.4,1.1-0.4,1.7v1.7c0,0.7,0.2,1.3,0.4,1.7
			c0.2,0.4,0.7,0.7,1.3,0.7c0.7,0,1.1-0.2,1.3-0.7c0.2-0.4,0.4-1.1,0.4-1.7V335.8z"/>
		<path d="M82.7,340.4H82v-6.7l-2,0.2v-0.4l2.4-0.4v7.4h0.3V340.4z"/>
		<path d="M90.3,337.6c0,0.9-0.2,1.7-0.7,2.2c-0.4,0.4-1.1,0.9-1.7,0.9c-0.7,0-1.3-0.2-1.7-0.9c-0.4-0.4-0.7-1.3-0.7-2.2v-1.7
			c0-0.9,0.2-1.7,0.7-2.2c0.4-0.4,1.1-0.9,1.7-0.9c0.7,0,1.3,0.2,1.7,0.9c0.4,0.7,0.7,1.3,0.7,2.2V337.6z M89.7,335.8
			c0-0.7-0.2-1.3-0.4-1.7c-0.2-0.4-0.7-0.7-1.3-0.7c-0.7,0-1.1,0.2-1.3,0.7c-0.2,0.4-0.4,1.1-0.4,1.7v1.7c0,0.7,0.2,1.3,0.4,1.7
			c0.2,0.4,0.7,0.7,1.3,0.7c0.7,0,1.1-0.2,1.3-0.7c0.2-0.4,0.4-1.1,0.4-1.7V335.8z"/>
		<path d="M94.5,340.4h-0.7v-6.7l-2,0.2v-0.4l2.4-0.4v7.4h0.3V340.4z"/>
		<path d="M102.1,337.6c0,0.9-0.2,1.7-0.7,2.2c-0.4,0.4-1.1,0.9-1.7,0.9s-1.3-0.2-1.7-0.9c-0.4-0.4-0.7-1.3-0.7-2.2v-1.7
			c0-0.9,0.2-1.7,0.7-2.2c0.4-0.4,1.1-0.9,1.7-0.9s1.3,0.2,1.7,0.9c0.4,0.7,0.7,1.3,0.7,2.2V337.6z M101.7,335.8
			c0-0.7-0.2-1.3-0.4-1.7c-0.2-0.4-0.7-0.7-1.3-0.7s-1.1,0.2-1.3,0.7c-0.2,0.4-0.4,1.1-0.4,1.7v1.7c0,0.7,0.2,1.3,0.4,1.7
			s0.7,0.7,1.3,0.7s1.1-0.2,1.3-0.7c0.2-0.4,0.4-1.1,0.4-1.7V335.8z"/>
	</g>
	<g>
		<path opacity="0.8" fill="#ED1A46" enable-background="new    " d="M13.3,329.1v-7.4h2.2c0.9,0,1.7,0.2,2.2,0.9
			c0.7,0.7,0.9,1.3,0.9,2.4v0.9c0,0.9-0.2,1.7-0.9,2.4c-0.7,0.7-1.3,0.9-2.2,0.9L13.3,329.1L13.3,329.1z M13.9,322.1v6.3h1.5
			c0.7,0,1.3-0.2,1.7-0.9c0.4-0.4,0.7-1.1,0.7-2v-0.9c0-0.9-0.2-1.3-0.7-2c-0.4-0.4-1.1-0.9-1.7-0.9h-1.5
			C13.9,321.8,13.9,322.1,13.9,322.1z"/>
		<path opacity="0.8" fill="#ED1A46" enable-background="new    " d="M24.2,325.4h-3.5v3h4.1v0.4H20v-7.4h4.6v0.4h-3.9v2.8h3.5
			V325.4z"/>
		<path opacity="0.8" fill="#ED1A46" enable-background="new    " d="M31.1,326.7L31.1,326.7c0,0.9-0.2,1.3-0.9,1.7
			c-0.7,0.4-1.1,0.7-2,0.7s-1.5-0.2-2-0.9c-0.4-0.7-0.7-1.3-0.7-2.4v-1.1c0-0.9,0.2-1.7,0.7-2.4c0.4-0.7,1.1-0.9,2-0.9
			s1.3,0.2,2,0.7c0.4,0.4,0.7,1.1,0.9,1.7l0,0h-0.7c0-0.7-0.2-1.1-0.7-1.3c-0.5-0.2-0.7-0.4-1.4-0.4s-1.1,0.2-1.5,0.7
			c-0.4,0.4-0.7,1.1-0.7,2v1.3c0,0.9,0.2,1.5,0.7,2c0.4,0.4,0.9,0.7,1.5,0.7c0.7,0,1.1-0.2,1.5-0.4c0.4-0.2,0.7-0.9,0.7-1.5
			L31.1,326.7L31.1,326.7z"/>
		<path d="M45.3,329.1h-0.7v-6.7l-2,0.2v-0.5l2.4-0.4v7.4H45.3z"/>
		<path d="M52.9,326.3c0,0.9-0.2,1.7-0.7,2.2c-0.4,0.4-1.1,0.9-1.7,0.9c-0.7,0-1.3-0.2-1.7-0.9c-0.4-0.4-0.7-1.3-0.7-2.2v-1.7
			c0-0.9,0.2-1.7,0.7-2.2c0.4-0.4,1.1-0.9,1.7-0.9c0.7,0,1.3,0.2,1.7,0.9c0.4,0.7,0.7,1.3,0.7,2.2V326.3z M52.2,324.5
			c0-0.7-0.2-1.3-0.4-1.7s-0.7-0.7-1.3-0.7c-0.7,0-1.1,0.2-1.3,0.7c-0.2,0.4-0.4,1.1-0.4,1.7v1.7c0,0.7,0.2,1.3,0.4,1.7
			s0.7,0.7,1.3,0.7c0.7,0,1.1-0.2,1.3-0.7c0.2-0.4,0.4-1.1,0.4-1.7V324.5z"/>
		<path d="M55.5,325h0.7c0.4,0,0.9-0.2,1.3-0.4c0.4-0.2,0.4-0.7,0.4-1.1c0-0.4-0.2-0.9-0.4-1.1c-0.2-0.2-0.7-0.4-1.1-0.4
			s-0.9,0.2-1.1,0.4c-0.2,0.2-0.4,0.7-0.4,1.1h-0.7l0,0c0-0.7,0.2-1.1,0.7-1.5s0.9-0.7,1.5-0.7c0.7,0,1.1,0.2,1.5,0.4
			c0.4,0.2,0.7,0.9,0.7,1.5c0,0.4,0,0.7-0.2,0.9c-0.2,0.2-0.4,0.4-0.9,0.7c0.4,0.2,0.9,0.4,1.1,0.7c0.2,0.2,0.4,0.7,0.4,1.1
			c0,0.7-0.2,1.1-0.7,1.5s-0.9,0.7-1.5,0.7c-0.7,0-1.1-0.2-1.7-0.7c-0.7-0.4-0.7-0.9-0.7-1.5l0,0h0.7c0,0.4,0.2,0.9,0.4,1.1
			c0.2,0.2,0.7,0.4,1.3,0.4c0.4,0,0.9-0.2,1.3-0.4c0.4-0.2,0.4-0.7,0.4-1.1c0-0.4-0.2-0.9-0.4-1.1s-0.7-0.4-1.3-0.4h-0.7l0,0h-0.6
			V325z"/>
	</g>
	<g>
		<path fill="#EF4323" d="M18.7,359.1c0,0.9-0.2,1.7-0.9,2.4c-0.4,0.7-1.3,0.9-2.2,0.9s-1.5-0.2-2-0.9c-0.4-0.7-0.7-1.5-0.7-2.4v-1
			c0-0.9,0.2-1.7,0.9-2.4c0.4-0.7,1.3-0.9,2-0.9c0.9,0,1.5,0.2,2.2,0.9c0.4,0.7,0.9,1.3,0.9,2.4v1.1h-0.2V359.1z M18.1,358.1
			c0-0.9-0.2-1.5-0.7-2c-0.4-0.4-0.9-0.7-1.7-0.7c-0.7,0-1.3,0.2-1.7,0.7c-0.4,0.4-0.7,1.1-0.7,2v1.3c0,0.9,0.2,1.5,0.7,2
			c0.4,0.4,0.9,0.7,1.7,0.7c0.7,0,1.3-0.2,1.7-0.7c0.4-0.4,0.7-1.1,0.7-2V358.1z"/>
		<path fill="#EF4323" d="M25.3,360L25.3,360c0,0.9-0.2,1.3-0.9,1.7c-0.7,0.4-1.1,0.7-2,0.7s-1.5-0.2-2-0.9
			c-0.4-0.7-0.7-1.3-0.7-2.4v-1c0-0.9,0.2-1.7,0.7-2.4c0.4-0.7,1.1-0.9,2-0.9s1.3,0.2,2,0.7c0.4,0.4,0.7,1.1,0.9,1.7l0,0h-0.7
			c0-0.7-0.2-1.1-0.7-1.3s-0.9-0.4-1.5-0.4c-0.7,0-1.1,0.2-1.5,0.7s-0.7,1.1-0.7,2v1.3c0,0.9,0.2,1.5,0.7,2c0.4,0.4,0.9,0.7,1.5,0.7
			c0.7,0,1.1-0.2,1.5-0.4s0.7-0.9,0.7-1.5L25.3,360L25.3,360z"/>
		<path fill="#EF4323" d="M31.8,355.4h-2.6v6.7h-0.7v-6.7h-2.4V355h5.7V355.4z"/>
		<path d="M46.4,359.8h1.1v0.4h-1.1v2h-0.7v-2h-3.5v-0.4l3.5-5.2h0.7V359.8z M43.1,359.8h2.6v-4.1l0,0l-0.2,0.7L43.1,359.8z"/>
		<path d="M53.1,359.4c0,0.9-0.2,1.7-0.7,2.2c-0.4,0.4-1.1,0.9-1.7,0.9s-1.3-0.2-1.7-0.9c-0.4-0.4-0.7-1.3-0.7-2.2v-1.7
			c0-0.9,0.2-1.7,0.7-2.2c0.4-0.4,1.1-0.9,1.7-0.9s1.3,0.2,1.7,0.9c0.4,0.7,0.7,1.3,0.7,2.2V359.4z M52.5,357.6
			c0-0.7-0.2-1.3-0.4-1.7c-0.2-0.4-0.7-0.7-1.3-0.7c-0.7,0-1.1,0.2-1.3,0.7c-0.2,0.4-0.4,1.1-0.4,1.7v1.7c0,0.7,0.2,1.3,0.4,1.7
			c0.2,0.4,0.7,0.7,1.3,0.7s1.1-0.2,1.3-0.7c0.2-0.4,0.4-1.1,0.4-1.7V357.6z"/>
		<path d="M55.7,358.3h0.9c0.4,0,0.9-0.2,1.3-0.4c0.4-0.2,0.4-0.7,0.4-1.1s-0.2-0.9-0.4-1.1s-0.7-0.4-1.1-0.4s-0.9,0.2-1.1,0.4
			s-0.4,0.7-0.4,1.1h-0.9l0,0c0-0.7,0.2-1.1,0.7-1.5s0.9-0.7,1.5-0.7s1.1,0.2,1.5,0.4s0.7,0.9,0.7,1.5c0,0.4,0,0.7-0.2,0.9
			c-0.2,0.2-0.4,0.4-0.9,0.7c0.4,0.2,0.9,0.4,1.1,0.7c0.2,0.2,0.4,0.7,0.4,1.1c0,0.7-0.2,1.1-0.7,1.5s-0.9,0.7-1.5,0.7
			c-0.7,0-1.1-0.2-1.7-0.7c-0.7-0.4-0.7-0.9-0.7-1.5l0,0h0.7c0,0.4,0.2,0.9,0.4,1.1s0.7,0.4,1.3,0.4c0.4,0,0.9-0.2,1.3-0.4
			s0.4-0.7,0.4-1.1s-0.2-0.9-0.4-1.1s-0.7-0.4-1.3-0.4h-0.7l0,0h-0.6V358.3z"/>
	</g>
	<g>
		<path fill="#EF4323" d="M18.7,351.3H18v-3.5h-4.1v3.5h-0.7v-7.4h0.7v3.5H18v-3.5h0.7V351.3z"/>
		<path fill="#EF4323" d="M24.8,347.8h-3.7v3h4.1v0.4h-4.6v-7.4h4.6v0.4h-4.1v2.8h3.5v0.7h0.2V347.8z"/>
		<path fill="#EF4323" d="M28.7,347.2l2.2-3h0.7l-2.4,3.5l2.6,3.7h-0.7l-2.2-3.3l-2.2,3.3H26l2.6-3.7l-2.4-3.7H27L28.7,347.2z"/>
		<path d="M46.4,348.9h1.1v0.4h-1.1v2h-0.7v-2h-3.5v-0.4l3.5-5.2h0.7V348.9z M43.1,348.9h2.8v-4.1l0,0l-0.2,0.7L43.1,348.9z"/>
		<path d="M52.9,347.8h-3.5v3.5h-0.7v-7.4h4.8v0.4h-4.1v2.8h3.5C52.9,347.2,52.9,347.8,52.9,347.8z"/>
		<path d="M58.3,349.3H55l-0.7,2h-0.7l2.8-7.4h0.7l2.8,7.4h-0.7L58.3,349.3z M55.3,348.7h3l-1.7-3.9l0,0L55.3,348.7z"/>
	</g>
</g>
<g id="history">
	<rect x="555.5" y="177.6" fill="#2B2B2B" width="244.7" height="346.8"/>
	<rect x="555.5" y="177.8" fill="#C1C1C0" width="244.7" height="59"/>
	<g>
		<g>
			<path d="M581.2,220.9h-10.9l-2.4,6.5h-2l8.9-23.5h1.7l8.9,23.5h-2L581.2,220.9z M571.2,219.2h9.6l-4.8-12.8l0,0L571.2,219.2z"/>
			<path d="M590.6,210l0.2,3c0.7-1.1,1.3-2,2.2-2.4c0.9-0.7,2.2-0.9,3.5-0.9c2,0,3.3,0.7,4.4,1.7c1.1,1.1,1.5,3,1.5,5.4v10.7h-2
				v-10.7c0-2-0.4-3.5-1.1-4.4c-0.7-0.9-1.7-1.3-3.3-1.3c-1.3,0-2.4,0.4-3.3,1.1s-1.5,1.7-2,2.8v12.2h-2v-17.4h1.9V210z"/>
			<path d="M617.8,223.1c0-0.9-0.4-1.5-1.1-2.2c-0.7-0.7-2-1.1-3.7-1.5c-2.2-0.4-3.7-1.1-4.6-1.7c-1.1-0.7-1.5-1.7-1.5-3
				c0-1.3,0.7-2.4,1.7-3.5c1.1-0.9,2.6-1.3,4.6-1.3s3.5,0.4,4.8,1.5c1.1,0.9,1.7,2.2,1.7,3.7l0,0H618c0-0.9-0.4-1.7-1.3-2.6
				c-0.9-0.7-2-1.1-3.3-1.1s-2.4,0.2-3.3,0.9c-0.7,0.7-1.1,1.3-1.1,2.2s0.2,1.5,0.9,2s1.7,1.1,3.7,1.3c2.2,0.4,3.7,1.1,4.6,2
				s1.5,2,1.5,3.3c0,1.5-0.7,2.6-1.7,3.5c-1.1,0.9-2.8,1.3-4.8,1.3c-2.2,0-3.7-0.4-5-1.5s-1.7-2.2-1.7-3.7l0,0h1.7
				c0,1.3,0.7,2.2,1.5,2.8c0.9,0.7,2.2,0.9,3.3,0.9c1.3,0,2.6-0.2,3.3-0.9C617.4,224.6,617.8,224,617.8,223.1z"/>
		</g>
	</g>
	<g>
		<path fill="#FFFFFF" d="M568.2,188.9h0.9c0.7,0,1.3-0.2,1.5-0.4c0.4-0.4,0.4-0.9,0.4-1.3c0-0.7-0.2-1.1-0.4-1.3
			c-0.4-0.4-0.9-0.4-1.5-0.4c-0.7,0-1.1,0.2-1.5,0.4c-0.4,0.4-0.7,0.9-0.7,1.3h-0.7l0,0c0-0.7,0.2-1.3,0.9-1.7
			c0.7-0.4,1.3-0.7,2-0.7c0.9,0,1.5,0.2,2,0.7c0.4,0.4,0.7,1.1,0.7,2c0,0.4-0.2,0.9-0.4,1.3s-0.7,0.7-1.1,0.9
			c0.7,0.2,1.1,0.4,1.3,0.9c0.2,0.4,0.4,0.9,0.4,1.5c0,0.9-0.2,1.5-0.9,2c-0.4,0.4-1.3,0.7-2.2,0.7s-1.5-0.2-2.2-0.7
			c-0.7-0.4-0.9-1.1-0.9-2l0,0h0.7c0,0.7,0.2,1.1,0.7,1.5c0.4,0.4,0.9,0.7,1.5,0.7c0.7,0,1.1-0.2,1.5-0.4c0.4-0.2,0.7-0.9,0.7-1.5
			c0-0.6-0.2-1.1-0.7-1.5c-0.4-0.2-0.9-0.4-1.7-0.4h-0.2L568.2,188.9L568.2,188.9z"/>
		<path fill="#FFFFFF" d="M575.1,187.6l-2.2-0.7l0.2-0.7l2.2,0.9v-2.4h0.7v2.4l2.2-0.9l0.2,0.7l-2.2,0.7l1.5,2L577,190l-1.3-2
			l-1.3,2l-0.7-0.4L575.1,187.6z"/>
		<path fill="#FFFFFF" d="M579.5,190.4c0-1.5,0.2-3,0.9-4.1c0.7-1.3,1.3-2.2,2-2.6l0,0l0.2,0.4c-0.7,0.4-1.1,1.3-1.7,2.4
			c-0.4,1.1-0.7,2.4-0.7,3.9v0.2c0,1.5,0.2,2.6,0.7,3.9c0.4,1.1,1.1,2,1.7,2.4l-0.2,0.4l0,0c-0.7-0.4-1.5-1.3-2-2.4
			C579.7,193.5,579.5,192,579.5,190.4L579.5,190.4z"/>
		<path fill="#FFFFFF" d="M585.4,188.9h0.9c0.7,0,1.3-0.2,1.5-0.4c0.4-0.4,0.4-0.9,0.4-1.3c0-0.7-0.2-1.1-0.4-1.3
			c-0.4-0.4-0.9-0.4-1.5-0.4c-0.7,0-1.1,0.2-1.5,0.4c-0.4,0.4-0.7,0.9-0.7,1.3h-0.7l0,0c0-0.7,0.2-1.3,0.9-1.7
			c0.7-0.4,1.3-0.7,2-0.7c0.9,0,1.5,0.2,2,0.7c0.4,0.4,0.7,1.1,0.7,2c0,0.4-0.2,0.9-0.4,1.3s-0.7,0.7-1.1,0.9
			c0.7,0.2,1.1,0.4,1.3,0.9c0.2,0.4,0.4,0.9,0.4,1.5c0,0.9-0.2,1.5-0.9,2c-0.4,0.4-1.3,0.7-2.2,0.7s-1.5-0.2-2.2-0.7
			c-0.7-0.4-0.9-1.1-0.9-2l0,0h0.7c0,0.7,0.2,1.1,0.7,1.5c0.4,0.4,0.9,0.7,1.5,0.7c0.7,0,1.1-0.2,1.5-0.4c0.4-0.2,0.7-0.9,0.7-1.5
			c0-0.6-0.2-1.1-0.7-1.5c-0.4-0.2-0.9-0.4-1.7-0.4h-0.9v-1.3h0.6V188.9z"/>
		<path fill="#FFFFFF" d="M595.6,191.1h1.5v0.7h-1.5v2.4h-0.9v-2.4h-4.4v-0.4l4.4-6.5h0.9V191.1z M591.5,191.1h3.5v-5.4l0,0
			l-0.4,0.7L591.5,191.1z"/>
		<path fill="#FFFFFF" d="M599.9,188.9h0.9c0.7,0,1.3-0.2,1.5-0.4s0.4-0.9,0.4-1.3c0-0.7-0.2-1.1-0.4-1.3c-0.4-0.4-0.9-0.4-1.5-0.4
			c-0.7,0-1.1,0.2-1.5,0.4c-0.4,0.4-0.7,0.9-0.7,1.3H598l0,0c0-0.7,0.2-1.3,0.9-1.7c0.4-0.4,1.3-0.7,2-0.7c0.9,0,1.5,0.2,2,0.7
			c0.4,0.4,0.7,1.1,0.7,2c0,0.4-0.2,0.9-0.4,1.3s-0.7,0.7-1.1,0.9c0.7,0.2,1.1,0.4,1.3,0.9c0.2,0.4,0.4,0.9,0.4,1.5
			c0,0.9-0.2,1.5-0.9,2c-0.7,0.4-1.3,0.7-2.2,0.7s-1.5-0.2-2.2-0.7c-0.7-0.4-0.9-1.1-0.9-2l0,0h0.7c0,0.7,0.2,1.1,0.7,1.5
			c0.4,0.4,0.9,0.7,1.5,0.7s1.1-0.2,1.5-0.4c0.4-0.2,0.7-0.9,0.7-1.5c0-0.6-0.2-1.1-0.7-1.5c-0.4-0.2-0.9-0.4-1.7-0.4h-0.9v-1.3h0.5
			V188.9z"/>
		<path fill="#FFFFFF" d="M608,190.4c0,1.5-0.2,3-0.9,4.1c-0.7,1.3-1.3,2-2,2.4l0,0l-0.2-0.4c0.7-0.4,1.1-1.3,1.7-2.4
			c0.4-1.1,0.7-2.4,0.7-3.9V190c0-1.5-0.2-2.6-0.7-3.9c-0.4-1.3-1.1-2-1.5-2.4l0.2-0.4l0,0c0.7,0.4,1.3,1.3,2,2.6
			C607.8,187.4,608,188.7,608,190.4L608,190.4z"/>
		<path fill="#FFFFFF" d="M613,189.3h2.8v0.7H613v3h-0.9v-3h-2.6v-0.7h2.8v-3h0.9v3H613z"/>
		<path fill="#FFFFFF" d="M622.1,191.1h1.5v0.7h-1.5v2.4h-0.9v-2.4h-4.4v-0.4l4.4-6.5h0.9V191.1z M617.8,191.1h3.5v-5.4l0,0
			l-0.4,0.7L617.8,191.1z"/>
		<path fill="#FFFFFF" d="M629.6,191.1h1.5v0.7h-1.5v2.4h-0.9v-2.4h-4.4v-0.4l4.4-6.5h0.9V191.1z M625.2,191.1h3.5v-5.4l0,0
			l-0.4,0.7L625.2,191.1z"/>
	</g>
	<g>
		<g>
			<path fill="#FFFFFF" d="M715.3,209.4l1.5-15h13.5v2.2h-11.5l-1.1,9.8c0.7-0.7,1.5-1.1,2.4-1.5s2-0.4,3.5-0.7
				c2.4,0,4.4,0.7,5.7,2.4c1.5,1.5,2.2,3.7,2.2,6.5c0,2.8-0.7,5-2.2,6.7c-1.3,1.7-3.5,2.4-6.3,2.4c-2.2,0-4.1-0.7-5.7-2
				c-1.5-1.3-2.2-3-2.2-5.7v-0.2h2c0,2,0.4,3.3,1.5,4.4s2.4,1.5,4.1,1.5c2,0,3.5-0.7,4.6-2c1.1-1.3,1.5-3,1.5-5.4c0-2-0.4-3.7-1.5-5
				c-1.1-1.3-2.4-2-4.4-2c-1.7,0-3,0.2-4.1,0.9c-1.1,0.7-1.5,1.3-2,2.6h-1.5V209.4z"/>
			<path fill="#FFFFFF" d="M749.7,213.1h4.4v1.7h-4.4v7h-2.2v-7h-12.8v-1.3l12.6-19.4h2.4V213.1z M737.1,213.1h10.2v-15.7h-0.2
				l-0.9,2L737.1,213.1z"/>
			<path fill="#FFFFFF" d="M759.7,221.6l-2,5.2h-1.5l1.3-5.2v-3.3h2.2V221.6z"/>
			<path fill="#FFFFFF" d="M778.7,213.1h4.4v1.7h-4.4v7h-2.2v-7h-12.8v-1.3l12.6-19.4h2.4V213.1z M766,213.1h10.2v-15.7H776l-0.9,2
				L766,213.1z"/>
		</g>
	</g>
	<rect x="555.5" y="236.8" fill="#2B2B2B" width="236.2" height="59.2"/>
	<g>
		<path fill="#ED1A46" d="M568.6,286.7V263h6.7c2.8,0,5.2,0.9,7.2,2.8c2,2,2.8,4.4,2.8,7.4v3c0,3-0.9,5.4-2.8,7.4s-4.4,2.8-7.2,2.8
			h-6.7V286.7z M570.6,264.7v20.2h5c2.4,0,4.4-0.9,5.7-2.4c1.5-1.5,2.2-3.7,2.2-6.1v-3c0-2.4-0.7-4.6-2.2-6.1s-3.5-2.4-5.7-2.4h-5
			V264.7z"/>
		<path fill="#ED1A46" d="M603.6,275.5h-11.5v11.1h-2v-23.7h15v1.7H592v9.1h11.5L603.6,275.5L603.6,275.5z"/>
	</g>
	<g>
		<path fill="#FFFFFF" d="M568.2,248.1h0.9c0.7,0,1.3-0.2,1.5-0.4c0.4-0.4,0.4-0.9,0.4-1.3c0-0.7-0.2-1.1-0.4-1.3
			c-0.4-0.4-0.9-0.4-1.5-0.4c-0.7,0-1.1,0.2-1.5,0.4c-0.4,0.4-0.7,0.9-0.7,1.3h-0.7l0,0c0-0.7,0.2-1.3,0.9-1.7s1.3-0.7,2-0.7
			c0.9,0,1.5,0.2,2,0.7c0.4,0.4,0.7,1.1,0.7,2c0,0.4-0.2,0.9-0.4,1.3c-0.2,0.4-0.7,0.7-1.1,0.9c0.7,0.2,1.1,0.4,1.3,0.9
			s0.4,0.9,0.4,1.5c0,0.9-0.2,1.5-0.9,2c-0.4,0.4-1.3,0.7-2.2,0.7s-1.5-0.2-2.2-0.7c-0.7-0.4-0.9-1.1-0.9-2l0,0h0.7
			c0,0.7,0.2,1.1,0.7,1.5c0.4,0.4,0.9,0.7,1.5,0.7c0.7,0,1.1-0.2,1.5-0.4c0.4-0.2,0.7-0.9,0.7-1.5s-0.2-1.1-0.7-1.5
			c-0.4-0.2-0.9-0.4-1.7-0.4h-0.2L568.2,248.1L568.2,248.1z"/>
		<path fill="#FFFFFF" d="M575.1,246.8l-2.2-0.7l0.2-0.7l2.2,0.9v-2.4h0.7v2.4l2.2-0.9l0.2,0.7l-2.2,0.7l1.5,2l-0.7,0.4l-1.3-2
			l-1.3,2l-0.7-0.4L575.1,246.8z"/>
		<path fill="#FFFFFF" d="M579.5,249.4c0-1.5,0.2-3,0.9-4.1c0.7-1.3,1.3-2.2,2-2.6l0,0l0.2,0.4c-0.7,0.4-1.1,1.3-1.7,2.4
			c-0.4,1.1-0.7,2.4-0.7,3.9v0.2c0,1.5,0.2,2.6,0.7,3.9c0.4,1.1,1.1,2,1.7,2.4l-0.2,0.4l0,0c-0.7-0.4-1.5-1.3-2-2.4
			C579.7,252.7,579.5,251.2,579.5,249.4L579.5,249.4z"/>
		<path fill="#FFFFFF" d="M585.4,248.1h0.9c0.7,0,1.3-0.2,1.5-0.4c0.4-0.4,0.4-0.9,0.4-1.3c0-0.7-0.2-1.1-0.4-1.3
			c-0.4-0.4-0.9-0.4-1.5-0.4c-0.7,0-1.1,0.2-1.5,0.4c-0.4,0.4-0.7,0.9-0.7,1.3h-0.7l0,0c0-0.7,0.2-1.3,0.9-1.7s1.3-0.7,2-0.7
			c0.9,0,1.5,0.2,2,0.7c0.4,0.4,0.7,1.1,0.7,2c0,0.4-0.2,0.9-0.4,1.3c-0.2,0.4-0.7,0.7-1.1,0.9c0.7,0.2,1.1,0.4,1.3,0.9
			s0.4,0.9,0.4,1.5c0,0.9-0.2,1.5-0.9,2c-0.4,0.4-1.3,0.7-2.2,0.7s-1.5-0.2-2.2-0.7c-0.7-0.4-0.9-1.1-0.9-2l0,0h0.7
			c0,0.7,0.2,1.1,0.7,1.5c0.4,0.4,0.9,0.7,1.5,0.7c0.7,0,1.1-0.2,1.5-0.4c0.4-0.2,0.7-0.9,0.7-1.5s-0.2-1.1-0.7-1.5
			c-0.4-0.2-0.9-0.4-1.7-0.4h-0.9v-1.6H585.4z"/>
		<path fill="#FFFFFF" d="M595.6,250.3h1.5v0.7h-1.5v2.4h-0.9V251h-4.4v-0.4l4.4-6.5h0.9V250.3z M591.5,250.3h3.5v-5.4l0,0l-0.4,0.7
			L591.5,250.3z"/>
		<path fill="#FFFFFF" d="M599.9,248.1h0.9c0.7,0,1.3-0.2,1.5-0.4c0.2-0.2,0.4-0.9,0.4-1.3c0-0.7-0.2-1.1-0.4-1.3
			c-0.4-0.4-0.9-0.4-1.5-0.4c-0.7,0-1.1,0.2-1.5,0.4c-0.4,0.4-0.7,0.9-0.7,1.3H598l0,0c0-0.7,0.2-1.3,0.9-1.7c0.4-0.4,1.3-0.7,2-0.7
			c0.9,0,1.5,0.2,2,0.7c0.4,0.4,0.7,1.1,0.7,2c0,0.4-0.2,0.9-0.4,1.3c-0.2,0.4-0.7,0.7-1.1,0.9c0.7,0.2,1.1,0.4,1.3,0.9
			c0.2,0.4,0.4,0.9,0.4,1.5c0,0.9-0.2,1.5-0.9,2s-1.3,0.7-2.2,0.7s-1.5-0.2-2.2-0.7c-0.7-0.4-0.9-1.1-0.9-2l0,0h0.7
			c0,0.7,0.2,1.1,0.7,1.5s0.9,0.7,1.5,0.7s1.1-0.2,1.5-0.4c0.4-0.2,0.7-0.9,0.7-1.5s-0.2-1.1-0.7-1.5c-0.4-0.2-0.9-0.4-1.7-0.4h-0.9
			v-1.6H599.9z"/>
		<path fill="#FFFFFF" d="M608,249.6c0,1.5-0.2,3-0.9,4.1c-0.7,1.3-1.3,2-2,2.4l0,0l-0.2-0.4c0.7-0.4,1.1-1.3,1.7-2.4
			c0.4-1.1,0.7-2.4,0.7-3.9v-0.2c0-1.5-0.2-2.6-0.7-3.9c-0.4-1.3-1.1-2-1.5-2.4l0.2-0.4l0,0c0.7,0.4,1.3,1.3,2,2.6
			C607.8,246.4,608,247.9,608,249.6L608,249.6z"/>
		<path fill="#FFFFFF" d="M613,248.6h2.8v0.7H613v3h-0.9v-3h-2.6v-0.7h2.8v-3h0.9v3H613z"/>
		<path fill="#FFFFFF" d="M622.1,250.3h1.5v0.7h-1.5v2.4h-0.9V251h-4.4v-0.4l4.4-6.5h0.9V250.3z M617.8,250.3h3.5v-5.4l0,0l-0.4,0.7
			L617.8,250.3z"/>
		<path fill="#FFFFFF" d="M629.6,250.3h1.5v0.7h-1.5v2.4h-0.9V251h-4.4v-0.4l4.4-6.5h0.9V250.3z M625.2,250.3h3.5v-5.4l0,0l-0.4,0.7
			L625.2,250.3z"/>
	</g>
	<g>
		<g>
			<path fill="#FFFFFF" d="M715.3,268.6l1.5-15h13.5v2.2h-11.5l-1.1,9.8c0.7-0.7,1.5-1.1,2.4-1.5s2-0.4,3.5-0.7
				c2.4,0,4.4,0.7,5.7,2.4c1.5,1.5,2.2,3.7,2.2,6.5c0,2.8-0.7,5-2.2,6.7c-1.3,1.7-3.5,2.4-6.3,2.4c-2.2,0-4.1-0.7-5.7-2
				c-1.5-1.3-2.2-3-2.2-5.7v-0.2h2c0,2,0.4,3.3,1.5,4.4c1.1,1.1,2.4,1.5,4.1,1.5c2,0,3.5-0.7,4.6-2c1.1-1.3,1.5-3,1.5-5.4
				c0-2-0.4-3.7-1.5-5c-1.1-1.3-2.4-2-4.4-2c-1.7,0-3,0.2-4.1,0.9c-1.1,0.7-1.5,1.3-2,2.6h-1.5V268.6z"/>
			<path fill="#FFFFFF" d="M749.7,272.1h4.4v2h-4.4v7h-2.2v-7h-12.8v-1.3l12.6-19.4h2.4V272.1z M737.1,272.1h10.2v-15.7h-0.2l-0.9,2
				L737.1,272.1z"/>
			<path fill="#FFFFFF" d="M759.7,280.6l-2,5.2h-1.5l1.3-5.2v-3.3h2.2V280.6z"/>
			<path fill="#FFFFFF" d="M778.7,272.1h4.4v2h-4.4v7h-2.2v-7h-12.8v-1.3l12.6-19.4h2.4V272.1z M766,272.1h10.2v-15.7H776l-0.9,2
				L766,272.1z"/>
		</g>
	</g>
	<rect x="555.3" y="294.5" fill="#2B2B2B" width="236.2" height="59.2"/>
	<g>
		<path fill="#ED1A46" d="M575.6,330.8l6.7-10h2.4l-7.8,11.5l8.1,12h-2.4l-7-10.4l-7,10.4h-2.4l8.1-12l-7.8-11.5h2.4L575.6,330.8z"
			/>
		<path fill="#ED1A46" d="M595.8,333.9l7.4-13.1h2.2l-8.5,15v8.7h-2v-8.7l-8.5-14.8h2.2L595.8,333.9z"/>
	</g>
	<g>
		<path fill="#FFFFFF" d="M568.2,305.8h0.9c0.7,0,1.3-0.2,1.5-0.4c0.4-0.4,0.4-0.9,0.4-1.3c0-0.7-0.2-1.1-0.4-1.3
			c-0.4-0.4-0.9-0.4-1.5-0.4c-0.7,0-1.1,0.2-1.5,0.4c-0.4,0.4-0.7,0.9-0.7,1.3h-0.7l0,0c0-0.7,0.2-1.3,0.9-1.7s1.3-0.7,2-0.7
			c0.9,0,1.5,0.2,2,0.7c0.4,0.4,0.7,1.1,0.7,2c0,0.4-0.2,0.9-0.4,1.3s-0.7,0.7-1.1,0.9c0.7,0.2,1.1,0.4,1.3,0.9
			c0.2,0.4,0.4,0.9,0.4,1.5c0,0.9-0.2,1.5-0.9,2c-0.4,0.4-1.3,0.7-2.2,0.7s-1.5-0.2-2.2-0.7c-0.7-0.4-0.9-1.1-0.9-2l0,0h0.7
			c0,0.7,0.2,1.1,0.7,1.5c0.4,0.4,0.9,0.7,1.5,0.7c0.7,0,1.1-0.2,1.5-0.4c0.4-0.2,0.7-0.9,0.7-1.5c0-0.7-0.2-1.1-0.7-1.5
			c-0.4-0.2-0.9-0.4-1.7-0.4h-0.2L568.2,305.8L568.2,305.8z"/>
		<path fill="#FFFFFF" d="M575.1,304.5l-2.2-0.7l0.2-0.7l2.2,0.9v-2.4h0.7v2.4l2.2-0.9l0.2,0.7l-2.2,0.7l1.5,2l-0.7,0.4l-1.3-2
			l-1.3,2l-0.7-0.4L575.1,304.5z"/>
		<path fill="#FFFFFF" d="M579.5,307.1c0-1.5,0.2-3,0.9-4.1c0.7-1.3,1.3-2.2,2-2.6l0,0l0.2,0.4c-0.7,0.4-1.1,1.3-1.7,2.4
			c-0.4,1.1-0.7,2.4-0.7,3.9v0.2c0,1.5,0.2,2.6,0.7,3.9c0.4,1.1,1.1,2,1.7,2.4l-0.2,0.4l0,0c-0.7-0.4-1.5-1.3-2-2.4
			C579.7,310.4,579.5,308.9,579.5,307.1L579.5,307.1z"/>
		<path fill="#FFFFFF" d="M585.1,305.8h0.9c0.7,0,1.3-0.2,1.5-0.4c0.4-0.4,0.4-0.9,0.4-1.3c0-0.7-0.2-1.1-0.4-1.3
			c-0.4-0.4-0.9-0.4-1.5-0.4s-1.1,0.2-1.5,0.4c-0.4,0.4-0.7,0.9-0.7,1.3h-0.4l0,0c0-0.7,0.2-1.3,0.9-1.7s1.3-0.7,2-0.7
			c0.9,0,1.5,0.2,2,0.7c0.4,0.4,0.7,1.1,0.7,2c0,0.4-0.2,0.9-0.4,1.3s-0.7,0.7-1.1,0.9c0.7,0.2,1.1,0.4,1.3,0.9
			c0.2,0.4,0.4,0.9,0.4,1.5c0,0.9-0.2,1.5-0.9,2c-0.4,0.4-1.3,0.7-2.2,0.7s-1.5-0.2-2.2-0.7c-0.7-0.4-0.9-1.1-0.9-2l0,0h0.7
			c0,0.7,0.2,1.1,0.7,1.5c0.4,0.4,0.9,0.7,1.5,0.7c0.7,0,1.1-0.2,1.5-0.4c0.4-0.2,0.7-0.9,0.7-1.5c0-0.7-0.2-1.1-0.7-1.5
			c-0.4-0.2-0.9-0.4-1.7-0.4h-0.9v-1.3h0.3V305.8z"/>
		<path fill="#FFFFFF" d="M595.6,308h1.5v0.7h-1.5v2.4h-0.9v-2.4h-4.4v-0.4l4.4-6.5h0.9V308z M591.5,308h3.5v-5.4l0,0l-0.4,0.7
			L591.5,308z"/>
		<path fill="#FFFFFF" d="M599.9,305.8h0.9c0.7,0,1.3-0.2,1.5-0.4c0.2-0.2,0.4-0.9,0.4-1.3c0-0.7-0.2-1.1-0.4-1.3
			c-0.4-0.4-0.9-0.4-1.5-0.4c-0.7,0-1.1,0.2-1.5,0.4c-0.4,0.4-0.7,0.9-0.7,1.3H598l0,0c0-0.7,0.2-1.3,0.9-1.7c0.4-0.4,1.3-0.7,2-0.7
			c0.9,0,1.5,0.2,2,0.7c0.4,0.4,0.7,1.1,0.7,2c0,0.4-0.2,0.9-0.4,1.3s-0.7,0.7-1.1,0.9c0.7,0.2,1.1,0.4,1.3,0.9
			c0.2,0.4,0.4,0.9,0.4,1.5c0,0.9-0.2,1.5-0.9,2c-0.7,0.4-1.3,0.7-2.2,0.7s-1.5-0.2-2.2-0.7c-0.7-0.4-0.9-1.1-0.9-2l0,0h0.7
			c0,0.7,0.2,1.1,0.7,1.5s0.9,0.7,1.5,0.7s1.1-0.2,1.5-0.4c0.4-0.2,0.7-0.9,0.7-1.5c0-0.7-0.2-1.1-0.7-1.5c-0.4-0.2-0.9-0.4-1.7-0.4
			h-0.9v-1.3h0.5V305.8z"/>
		<path fill="#FFFFFF" d="M608,307.3c0,1.5-0.2,3-0.9,4.1c-0.7,1.3-1.3,2-2,2.4l0,0l-0.2-0.4c0.7-0.4,1.1-1.3,1.7-2.4
			c0.4-1.1,0.7-2.4,0.7-3.9v-0.2c0-1.5-0.2-2.6-0.7-3.9c-0.4-1.3-1.1-2-1.5-2.4l0.2-0.4l0,0c0.7,0.4,1.3,1.3,2,2.6
			C607.6,304.1,608,305.6,608,307.3L608,307.3z"/>
		<path fill="#FFFFFF" d="M613,306.2h2.8v0.7H613v3h-0.9v-3h-2.6v-0.7h2.8v-3h0.9v3H613z"/>
		<path fill="#FFFFFF" d="M622.1,308h1.5v0.7h-1.5v2.4h-0.9v-2.4h-4.4v-0.4l4.4-6.5h0.9V308z M617.8,308h3.5v-5.4l0,0l-0.4,0.7
			L617.8,308z"/>
		<path fill="#FFFFFF" d="M629.6,308h1.5v0.7h-1.5v2.4h-0.9v-2.4h-4.4v-0.4l4.4-6.5h0.9V308z M625.2,308h3.5v-5.4l0,0l-0.4,0.7
			L625.2,308z"/>
	</g>
	<g>
		<g>
			<path fill="#FFFFFF" d="M671.6,326.3l1.5-15h13.5v2.2H675l-1.1,9.8c0.7-0.7,1.5-1.1,2.4-1.5s2-0.4,3.5-0.7c2.4,0,4.4,0.7,5.7,2.4
				c1.5,1.5,2.2,3.7,2.2,6.5s-0.7,5-2.2,6.7c-1.3,1.7-3.5,2.4-6.3,2.4c-2.2,0-4.1-0.7-5.7-2c-1.5-1.3-2.2-3-2.2-5.7v-0.2h2
				c0,2,0.4,3.3,1.5,4.4s2.4,1.5,4.1,1.5c2,0,3.5-0.7,4.6-2s1.5-3,1.5-5.4c0-2-0.4-3.7-1.5-5c-1.1-1.3-2.4-2-4.4-2
				c-1.7,0-3,0.2-4.1,0.9c-1.1,0.7-1.5,1.3-2,2.6L671.6,326.3z"/>
			<path fill="#FFFFFF" d="M706.2,329.8h4.4v2h-4.4v7H704v-7h-12.8v-1.3l12.6-19.4h2.4V329.8z M693.6,329.8h10.2v-15.7h-0.2l-0.9,2
				L693.6,329.8z"/>
			<path fill="#FFFFFF" d="M714.7,326.3l1.5-15h13.5v2.2h-11.5l-1.1,9.8c0.7-0.7,1.5-1.1,2.4-1.5s2-0.4,3.5-0.7
				c2.4,0,4.4,0.7,5.7,2.4c1.5,1.5,2.2,3.7,2.2,6.5s-0.7,5-2.2,6.7c-1.3,1.7-3.5,2.4-6.3,2.4c-2.2,0-4.1-0.7-5.7-2
				c-1.5-1.3-2.2-3-2.2-5.7v-0.2h2c0,2,0.4,3.3,1.5,4.4s2.4,1.5,4.1,1.5c2,0,3.5-0.7,4.6-2s1.5-3,1.5-5.4c0-2-0.4-3.7-1.5-5
				c-1.1-1.3-2.4-2-4.4-2c-1.7,0-3,0.2-4.1,0.9c-1.1,0.7-1.5,1.3-2,2.6L714.7,326.3z"/>
			<path fill="#FFFFFF" d="M749.1,329.8h4.4v2h-4.4v7h-2.2v-7H734v-1.3l12.6-19.4h2.4L749.1,329.8L749.1,329.8z M736.7,329.8h10.2
				v-15.7h-0.2l-0.9,2L736.7,329.8z"/>
			<path fill="#FFFFFF" d="M759.3,338.2l-2,5.2h-1.5l1.3-5.2v-3.3h2.2V338.2z"/>
			<path fill="#FFFFFF" d="M778,329.8h4.4v2H778v7h-2.2v-7H763v-1.3l12.6-19.4h2.4V329.8z M765.6,329.8h10.2v-15.7h-0.2l-0.9,2
				L765.6,329.8z"/>
		</g>
	</g>
	<rect x="791.5" y="236.8" fill="#3D3D3D" width="8.7" height="59.2"/>
	<circle fill="#2D2D2D" cx="795.9" cy="261.3" r="1.1"/>
	<circle fill="#2D2D2D" cx="795.9" cy="266.4" r="1.1"/>
	<circle fill="#2D2D2D" cx="795.9" cy="271.6" r="1.1"/>
	<rect x="555.3" y="355.2" fill="#2B2B2B" width="236.2" height="59.2"/>
	<g>
		<path fill="#ED1A46" d="M581.9,393.8h-11.5v11.1h-2v-23.5h15v1.7h-13.1v9.1h11.5L581.9,393.8L581.9,393.8z"/>
		<path fill="#ED1A46" d="M604.7,395.1c0,3-0.9,5.4-2.4,7.4c-1.7,2-3.9,2.8-6.7,2.8s-5-0.9-6.5-2.8c-1.7-2-2.4-4.4-2.4-7.4v-4
			c0-3,0.9-5.4,2.4-7.4c1.7-2,3.9-2.8,6.5-2.8c2.8,0,5,0.9,6.7,2.8c1.7,2,2.6,4.4,2.6,7.4v3.9h-0.2V395.1z M602.8,391.1
			c0-2.6-0.7-4.6-2-6.1s-3-2.4-5.4-2.4c-2.2,0-3.9,0.9-5.2,2.4s-2,3.7-2,6.1v3.9c0,2.6,0.7,4.6,2,6.1s3,2.4,5.2,2.4
			c2.4,0,4.1-0.9,5.4-2.4s2-3.7,2-6.1V391.1z"/>
		<path fill="#ED1A46" d="M627.2,395.1c0,3-0.9,5.4-2.4,7.4c-1.7,2-3.9,2.8-6.7,2.8s-5-0.9-6.5-2.8c-1.7-2-2.4-4.4-2.4-7.4v-4
			c0-3,0.9-5.4,2.4-7.4s3.9-2.8,6.5-2.8c2.8,0,5,0.9,6.7,2.8c1.7,2,2.6,4.4,2.6,7.4v3.9h-0.2V395.1z M625.2,391.1
			c0-2.6-0.7-4.6-2-6.1s-3-2.4-5.4-2.4c-2.2,0-3.9,0.9-5.2,2.4s-2,3.7-2,6.1v3.9c0,2.6,0.7,4.6,2,6.1s3,2.4,5.2,2.4
			c2.4,0,4.1-0.9,5.4-2.4s2-3.7,2-6.1V391.1z"/>
	</g>
	<g>
		<path fill="#FFFFFF" d="M567.9,366.3h0.9c0.7,0,1.3-0.2,1.5-0.4c0.4-0.4,0.4-0.9,0.4-1.3c0-0.7-0.2-1.1-0.4-1.3
			c-0.4-0.4-0.9-0.4-1.5-0.4s-1.1,0.2-1.5,0.4c-0.4,0.4-0.7,0.9-0.7,1.3H566l0,0c0-0.7,0.2-1.3,0.9-1.7c0.7-0.4,1.3-0.7,2-0.7
			c0.9,0,1.5,0.2,2,0.7s0.7,1.1,0.7,2c0,0.4-0.2,0.9-0.4,1.3s-0.7,0.7-1.1,0.9c0.7,0.2,1.1,0.4,1.3,0.9c0.2,0.4,0.4,0.9,0.4,1.5
			c0,0.9-0.2,1.5-0.9,2c-0.4,0.4-1.3,0.7-2.2,0.7s-1.5-0.2-2.2-0.7c-0.7-0.4-0.9-1.1-0.9-2l0,0h0.7c0,0.7,0.2,1.1,0.7,1.5
			c0.4,0.4,0.9,0.7,1.5,0.7c0.7,0,1.1-0.2,1.5-0.4c0.4-0.2,0.7-0.9,0.7-1.5c0-0.7-0.2-1.1-0.7-1.5c-0.4-0.2-0.9-0.4-1.7-0.4h-0.9
			v-1.3h0.5V366.3z"/>
		<path fill="#FFFFFF" d="M575.1,365l-2.2-0.7l0.2-0.7l2.2,0.9v-2.4h0.7v2.4l2.2-0.9l0.2,0.7l-2.2,0.7l1.5,2l-0.7,0.4l-1.3-2l-1.3,2
			l-0.7-0.4L575.1,365z"/>
		<path fill="#FFFFFF" d="M579.3,367.8c0-1.5,0.2-3,0.9-4.1c0.7-1.3,1.3-2.2,2-2.6l0,0l0.2,0.4c-0.7,0.4-1.1,1.3-1.7,2.4
			c-0.4,1.1-0.7,2.4-0.7,3.9v0.2c0,1.5,0.2,2.6,0.7,3.9c0.4,1.1,1.1,2,1.7,2.4l-0.2,0.4l0,0c-0.7-0.4-1.5-1.3-2-2.4
			C579.5,370.9,579.3,369.4,579.3,367.8L579.3,367.8z"/>
		<path fill="#FFFFFF" d="M585.1,366.3h0.9c0.7,0,1.3-0.2,1.5-0.4c0.4-0.4,0.4-0.9,0.4-1.3c0-0.7-0.2-1.1-0.4-1.3
			c-0.4-0.4-0.9-0.4-1.5-0.4s-1.1,0.2-1.5,0.4c-0.4,0.4-0.7,0.9-0.7,1.3h-0.4l0,0c0-0.7,0.2-1.3,0.9-1.7c0.7-0.4,1.3-0.7,2-0.7
			c0.9,0,1.5,0.2,2,0.7c0.4,0.4,0.7,1.1,0.7,2c0,0.4-0.2,0.9-0.4,1.3s-0.7,0.7-1.1,0.9c0.7,0.2,1.1,0.4,1.3,0.9
			c0.2,0.4,0.4,0.9,0.4,1.5c0,0.9-0.2,1.5-0.9,2c-0.4,0.4-1.3,0.7-2.2,0.7s-1.5-0.2-2.2-0.7c-0.7-0.4-0.9-1.1-0.9-2l0,0h0.7
			c0,0.7,0.2,1.1,0.7,1.5c0.4,0.4,0.9,0.7,1.5,0.7c0.7,0,1.1-0.2,1.5-0.4c0.4-0.2,0.7-0.9,0.7-1.5c0-0.7-0.2-1.1-0.7-1.5
			c-0.4-0.2-0.9-0.4-1.7-0.4h-0.9v-1.3h0.3V366.3z"/>
		<path fill="#FFFFFF" d="M595.6,368.5h1.5v0.7h-1.5v2.4h-0.9v-2.4h-4.4v-0.4l4.4-6.5h0.9V368.5z M591.2,368.5h3.5v-5.4l0,0
			l-0.4,0.7L591.2,368.5z"/>
		<path fill="#FFFFFF" d="M599.9,366.3h0.9c0.7,0,1.3-0.2,1.5-0.4c0.2-0.2,0.4-0.9,0.4-1.3c0-0.7-0.2-1.1-0.4-1.3
			c-0.4-0.4-0.9-0.4-1.5-0.4c-0.7,0-1.1,0.2-1.5,0.4c-0.4,0.4-0.7,0.9-0.7,1.3H598l0,0c0-0.7,0.2-1.3,0.9-1.7c0.4-0.4,1.3-0.7,2-0.7
			c0.9,0,1.5,0.2,2,0.7c0.4,0.4,0.7,1.1,0.7,2c0,0.4-0.2,0.9-0.4,1.3s-0.7,0.7-1.1,0.9c0.7,0.2,1.1,0.4,1.3,0.9
			c0.2,0.4,0.4,0.9,0.4,1.5c0,0.9-0.2,1.5-0.9,2c-0.7,0.4-1.3,0.7-2.2,0.7s-1.5-0.2-2.2-0.7c-0.7-0.4-0.9-1.1-0.9-2l0,0h0.7
			c0,0.7,0.2,1.1,0.7,1.5c0.4,0.4,0.9,0.7,1.5,0.7s1.1-0.2,1.5-0.4s0.7-0.9,0.7-1.5c0-0.7-0.2-1.1-0.7-1.5c-0.4-0.2-0.9-0.4-1.7-0.4
			h-0.9v-1.3h0.5V366.3z"/>
		<path fill="#FFFFFF" d="M607.8,367.8c0,1.5-0.2,3-0.9,4.1c-0.7,1.3-1.3,2-2,2.4l0,0l-0.2-0.4c0.7-0.4,1.1-1.3,1.7-2.4
			c0.4-1.1,0.7-2.4,0.7-3.9v-0.2c0-1.5-0.2-2.6-0.7-3.9c-0.4-1.3-1.1-2-1.5-2.4l0.2-0.4l0,0c0.7,0.4,1.3,1.3,2,2.6
			C607.6,364.8,607.8,366.1,607.8,367.8L607.8,367.8z"/>
		<path fill="#FFFFFF" d="M613,366.8h2.8v0.7H613v3h-0.9v-3h-2.8v-0.7h2.8v-3h0.9V366.8z"/>
		<path fill="#FFFFFF" d="M621.9,368.5h1.5v0.7h-1.5v2.4H621v-2.4h-4.4v-0.4l4.4-6.5h0.9V368.5z M617.8,368.5h3.5v-5.4l0,0l-0.4,0.7
			L617.8,368.5z"/>
		<path fill="#FFFFFF" d="M629.3,368.5h1.5v0.7h-1.5v2.4h-0.9v-2.4H624v-0.4l4.4-6.5h0.9V368.5z M625,368.5h3.5v-5.4l0,0l-0.4,0.7
			L625,368.5z"/>
	</g>
	<g>
		<g>
			<path fill="#FFFFFF" d="M715.1,386.8l1.5-15h13.5v2.2h-11.5l-1.1,9.8c0.7-0.7,1.5-1.1,2.4-1.5s2-0.4,3.5-0.7
				c2.4,0,4.4,0.7,5.7,2.4c1.5,1.5,2.2,3.7,2.2,6.5s-0.7,5-2.2,6.7c-1.3,1.7-3.5,2.4-6.3,2.4c-2.2,0-4.1-0.7-5.7-2
				c-1.5-1.3-2.2-3-2.2-5.7v-0.2h2c0,2,0.4,3.3,1.5,4.4s2.4,1.5,4.1,1.5c2,0,3.5-0.7,4.6-2s1.5-3,1.5-5.4c0-2-0.4-3.7-1.5-5
				s-2.4-2-4.4-2c-1.7,0-3,0.2-4.1,0.9s-1.5,1.3-2,2.6L715.1,386.8z"/>
			<path fill="#FFFFFF" d="M749.5,390.5h4.4v2h-4.4v7h-2.2v-7h-12.8v-1.4l12.6-19.4h2.4V390.5z M737.1,390.5h10.2v-15.7h-0.2l-0.9,2
				L737.1,390.5z"/>
			<path fill="#FFFFFF" d="M759.7,399l-2,5.2h-1.5l1.3-5.2v-3.3h2.2V399z"/>
			<path fill="#FFFFFF" d="M778.4,390.5h4.4v2h-4.4v7h-2.2v-7h-12.8v-1.4l12.6-19.4h2.4V390.5z M766,390.5h10.2v-15.7H776l-0.9,2
				L766,390.5z"/>
		</g>
	</g>
	<g>
		<rect x="791.7" y="355.2" fill="#3D3D3D" width="8.7" height="59.2"/>
		<circle fill="#FFFFFF" cx="796.1" cy="379.4" r="1.1"/>
		<circle fill="#FFFFFF" cx="796.1" cy="384.8" r="1.1"/>
		<circle fill="#FFFFFF" cx="796.1" cy="390.1" r="1.1"/>
	</g>
	<rect x="555.3" y="252.7" fill="#B7B7B7" width="2.2" height="174.4"/>
	<rect x="782.6" y="296" fill="#D81F27" width="18.1" height="59.2"/>
	<path fill="#3D3D3D" d="M864.7,284"/>
	<g>
		<path fill="#FFFFFF" d="M788.9,331.9c-0.4,0-0.4,0-0.4-0.2s0-7.6,0-7.6h-0.9c0,0,0,7.4,0,7.8s0.4,1.1,1.1,1.1c0.7,0,3.5,0,3.5,0
			v-0.9C791.9,331.9,789.1,331.9,788.9,331.9z"/>
		<path fill="#FFFFFF" d="M796.3,324.1c0,0,0,7.4,0,7.8s-0.4,1.1-1.1,1.1s-3.5,0-3.5,0v-0.9c0,0,2.6,0,3,0s0.4,0,0.4-0.2
			s0-7.6,0-7.6h1.1L796.3,324.1L796.3,324.1z"/>
		<path fill="#FFFFFF" d="M796.7,323.2c0,0,0-0.4,0-0.7c0-0.2,0-0.4-0.4-0.4s-4.6,0-4.6,0s-4.1,0-4.6,0c-0.2,0-0.4,0.4-0.4,0.4v0.7
			h-0.4v1.1h5.4h5.4v-1.1H796.7z"/>
		<path fill="#FFFFFF" d="M793,320.2c-0.7,0-1.1,0-1.1,0s-0.4,0-1.1,0c-0.7,0-1.3,0.9-1.3,1.5c0,0.2,0,0.2,0,0.2h1.1c0,0,0,0,0-0.4
			c0-0.2,0.2-0.4,0.4-0.4c0.4,0,0.9,0,0.9,0s0.4,0,0.9,0c0.2,0,0.4,0.4,0.4,0.4c0,0.4,0,0.4,0,0.4h1.1c0,0,0,0,0-0.2
			C794.3,321,793.7,320.2,793,320.2z"/>
		<rect x="791.3" y="325.3" fill="#FFFFFF" width="1.1" height="5.9"/>
		<rect x="793.5" y="325.3" fill="#FFFFFF" width="1.1" height="5.9"/>
		<rect x="789.3" y="325.3" fill="#FFFFFF" width="1.1" height="5.9"/>
	</g>
	<rect x="740.1" y="296" fill="#3D3D3D" width="42.4" height="59.2"/>
	<rect x="741.9" y="296" fill="#2D2D2D" width="40.7" height="29.2"/>
	<g>
		<path fill="#FFFFFF" d="M761.9,338.9H753v-1.1h8.9V338.9z M761.9,343.2H753v-1.1h8.9V343.2z"/>
		<path fill="#FFFFFF" d="M770.8,347.8h-1.3v-14.1l-3.9,0.4v-0.9l5.2-0.9V347.8z"/>
	</g>
	<g>
		<path fill="#FFFFFF" d="M761.5,308.6h-8.9v-1.1h8.9V308.6z M761.5,313.2h-8.9v-1.1h8.9V313.2z"/>
		<path fill="#FFFFFF" d="M774.5,311.7c0,2-0.4,3.5-1.3,4.6c-0.9,1.1-2,1.5-3.7,1.5c-1.5,0-2.8-0.4-3.7-1.5s-1.3-2.6-1.3-4.6v-3.5
			c0-2,0.4-3.5,1.3-4.6c0.9-1.1,2-1.5,3.7-1.5s2.8,0.4,3.7,1.5s1.3,2.6,1.3,4.6V311.7z M773.2,308c0-1.5-0.2-2.8-0.9-3.7
			s-1.5-1.3-2.6-1.3s-2.2,0.4-2.6,1.3c-0.4,0.9-0.9,2.2-0.9,3.7v3.9c0,1.5,0.2,2.8,0.9,3.7s1.5,1.3,2.6,1.3s2.2-0.4,2.6-1.3
			c0.4-0.9,0.9-2.2,0.9-3.7V308z"/>
	</g>
	<g>
		<rect x="731.4" y="296" fill="#3D3D3D" width="8.7" height="59.2"/>
		<circle fill="#FFFFFF" cx="735.8" cy="320.4" r="1.1"/>
		<circle fill="#FFFFFF" cx="735.8" cy="325.6" r="1.1"/>
		<circle fill="#FFFFFF" cx="735.8" cy="330.8" r="1.1"/>
	</g>
</g>
<g id="error" display="none">
	<rect y="177.8" display="inline" opacity="0.9" enable-background="new    " width="800" height="346.8"/>
	<rect x="-0.7" y="257.8" display="inline" fill="#ED1D2B" width="800.7" height="150.6"/>
	
		<text transform="matrix(1 0 0 1 55.1473 311.0155)" display="inline" fill="#FFFFFF" font-family="'Roboto-Light'" font-size="45.7143">Error</text>
	
		<text transform="matrix(1 0 0 1 58.7754 362.2888)" display="inline" fill="#FFFFFF" font-family="'Roboto-Light'" font-size="21.7687">Naskytla se nějaká chyba.</text>
	<rect x="649.4" y="366.5" display="inline" fill="none" stroke="#FFFFFF" stroke-miterlimit="10" width="125" height="26.8"/>
	
		<text transform="matrix(1 0 0 1 701.8912 388.5804)" display="inline" fill="#FFFFFF" font-family="'Roboto-Light'" font-size="20.729">Ok</text>
</g>
<g id="completer">
	<rect x="86.6" y="404.9" fill="#2B2B2B" width="103.8" height="62.3"/>
	<rect x="86.6" y="451.4" opacity="0.8" fill="#ED1A46" enable-background="new    " width="103.8" height="15.7"/>
	<g>
		<path fill="#C9C9C9" d="M110.8,418.6c0-0.2,0-0.4,0-0.7s0-0.2,0-0.4c-0.2,0.4-0.7,0.7-0.9,0.9c-0.4,0.2-0.9,0.4-1.3,0.4
			c-0.7,0-1.1-0.2-1.5-0.4c-0.4-0.4-0.4-0.9-0.4-1.3c0-0.7,0.2-1.1,0.9-1.5c0.4-0.4,1.3-0.4,2.2-0.4h1.5v-0.9c0-0.4-0.2-0.9-0.4-1.1
			c-0.2-0.2-0.7-0.4-1.3-0.4c-0.4,0-0.9,0.2-1.3,0.4c-0.4,0.2-0.4,0.7-0.4,0.9h-0.7l0,0c0-0.4,0.2-0.9,0.7-1.3
			c0.4-0.4,1.1-0.7,1.7-0.7c0.7,0,1.3,0.2,1.7,0.7c0.4,0.4,0.7,0.9,0.7,1.5v3.3c0,0.2,0,0.4,0,0.7c0,0.2,0,0.4,0.2,0.7h-1.3
			L110.8,418.6L110.8,418.6z M108.4,418.1c0.4,0,0.9-0.2,1.3-0.4c0.4-0.2,0.7-0.7,0.9-0.9v-1.3h-1.5c-0.7,0-1.1,0.2-1.5,0.4
			c-0.4,0.2-0.7,0.7-0.7,1.1s0.2,0.7,0.4,0.9C107.5,417.9,108,418.1,108.4,418.1z"/>
		<path fill="#C9C9C9" d="M118.4,415.5c0,0.9-0.2,1.7-0.7,2.4c-0.4,0.7-1.1,0.9-1.7,0.9c-0.4,0-0.9,0-1.3-0.2s-0.7-0.4-0.9-0.9v1.1
			h-0.7v-9.4h0.7v3.9c0.2-0.4,0.4-0.7,0.9-0.9c0.4-0.2,0.7-0.2,1.3-0.2c0.9,0,1.3,0.2,1.7,0.9C118.2,413.6,118.4,414.2,118.4,415.5
			L118.4,415.5z M117.8,415.3c0-0.9-0.2-1.5-0.4-2c-0.2-0.4-0.9-0.9-1.5-0.9c-0.4,0-0.9,0.2-1.3,0.4c-0.2,0.2-0.4,0.7-0.7,0.9v3
			c0.2,0.4,0.4,0.7,0.7,0.9s0.7,0.4,1.1,0.4c0.7,0,1.1-0.2,1.5-0.7C117.6,416.8,117.8,416.2,117.8,415.3L117.8,415.3z"/>
		<path fill="#C9C9C9" d="M124.1,416.8c0-0.2-0.2-0.7-0.4-0.9s-0.7-0.4-1.3-0.7c-0.9-0.2-1.3-0.4-1.7-0.7c-0.4-0.2-0.7-0.7-0.7-1.1
			s0.2-0.9,0.7-1.3c0.4-0.4,0.9-0.4,1.7-0.4c0.7,0,1.3,0.2,1.7,0.7c0.4,0.4,0.7,0.9,0.7,1.3l0,0h-0.7c0-0.4-0.2-0.7-0.4-0.9
			c-0.2-0.2-0.7-0.4-1.3-0.4c-0.4,0-0.9,0.2-1.1,0.4c-0.2,0.2-0.4,0.4-0.4,0.9c0,0.2,0.2,0.7,0.4,0.7c0.2,0.2,0.7,0.4,1.3,0.4
			c0.9,0.2,1.3,0.4,1.7,0.7c0.4,0.2,0.7,0.7,0.7,1.3s-0.2,1.1-0.7,1.3c-0.4,0.4-1.1,0.4-1.7,0.4c-0.9,0-1.3-0.2-2-0.7
			s-0.9-0.7-0.9-1.1l0,0h0.7c0,0.4,0.2,0.9,0.7,1.1c0.4,0.2,0.9,0.2,1.3,0.2s0.9-0.2,1.3-0.4C123.9,417.5,124.1,417.3,124.1,416.8z"
			/>
	</g>
	<g>
		<path fill="#C9C9C9" d="M110.6,431.6c0-0.2-0.2-0.7-0.4-0.9c-0.2-0.2-0.7-0.4-1.3-0.7c-0.9-0.2-1.3-0.4-1.7-0.7
			c-0.4-0.2-0.7-0.7-0.7-1.1s0.2-0.9,0.7-1.3c0.4-0.4,0.9-0.4,1.7-0.4c0.7,0,1.3,0.2,1.7,0.7c0.4,0.4,0.7,0.9,0.7,1.3l0,0h-0.7
			c0-0.4-0.2-0.7-0.4-0.9c-0.2-0.2-0.7-0.4-1.3-0.4c-0.4,0-0.9,0.2-1.1,0.4c-0.2,0.2-0.4,0.4-0.4,0.9c0,0.2,0.2,0.7,0.4,0.7
			c0.2,0.2,0.7,0.4,1.3,0.4c0.9,0.2,1.3,0.4,1.7,0.7c0.4,0.2,0.7,0.7,0.7,1.3c0,0.7-0.2,1.1-0.7,1.3c-0.4,0.4-1.1,0.4-1.7,0.4
			c-0.9,0-1.3-0.2-2-0.7c-0.7-0.4-0.7-0.9-0.7-1.3l0,0h0.7c0,0.4,0.2,0.9,0.7,1.1c0.4,0.2,0.9,0.2,1.3,0.2s0.9-0.2,1.3-0.4
			C110.4,432.3,110.6,431.8,110.6,431.6z"/>
		<path fill="#C9C9C9" d="M113.6,424.9H113v-1.1h0.7L113.6,424.9L113.6,424.9z M113.6,433.2H113v-6.5h0.7L113.6,433.2L113.6,433.2z"
			/>
		<path fill="#C9C9C9" d="M116.2,426.8v1.1c0.2-0.4,0.4-0.7,0.9-0.9c0.4-0.2,0.9-0.4,1.3-0.4c0.7,0,1.3,0.2,1.5,0.7
			c0.4,0.4,0.7,1.1,0.7,2v3.9h-0.7v-3.9c0-0.7-0.2-1.3-0.4-1.5c-0.2-0.2-0.7-0.4-1.1-0.4s-0.9,0.2-1.3,0.4c-0.2,0.2-0.7,0.7-0.7,1.1
			v4.6h-0.7v-6.5L116.2,426.8L116.2,426.8z"/>
	</g>
	<g>
		<path fill="#C9C9C9" d="M110.8,448.6c0-0.2,0-0.4,0-0.7c0-0.2,0-0.2,0-0.4c-0.2,0.4-0.7,0.7-0.9,0.9c-0.4,0.2-0.9,0.4-1.3,0.4
			c-0.7,0-1.1-0.2-1.5-0.4c-0.4-0.4-0.4-0.9-0.4-1.3c0-0.7,0.2-1.1,0.9-1.5c0.4-0.4,1.3-0.4,2.2-0.4h1.5v-0.9c0-0.4-0.2-0.9-0.4-1.1
			c-0.2-0.2-0.7-0.4-1.3-0.4c-0.4,0-0.9,0.2-1.3,0.4c-0.4,0.2-0.4,0.7-0.4,0.9h-0.7l0,0c0-0.4,0.2-0.9,0.7-1.3
			c0.4-0.4,1.1-0.7,1.7-0.7c0.7,0,1.3,0.2,1.7,0.7c0.4,0.4,0.7,0.9,0.7,1.5v3.3c0,0.2,0,0.4,0,0.7c0,0.2,0,0.4,0.2,0.7h-1.3
			L110.8,448.6L110.8,448.6z M108.4,448.2c0.4,0,0.9-0.2,1.3-0.4c0.4-0.2,0.7-0.7,0.9-0.9v-1.3h-1.5c-0.7,0-1.1,0.2-1.5,0.4
			c-0.4,0.2-0.7,0.7-0.7,1.1s0.2,0.7,0.4,0.9C107.5,448,108,448.2,108.4,448.2z"/>
		<path fill="#C9C9C9" d="M114.1,443.2c0.2-0.4,0.4-0.7,0.9-0.9c0.4-0.2,0.9-0.2,1.3-0.2c0.7,0,1.3,0.2,1.5,0.7
			c0.4,0.4,0.7,1.1,0.7,2v3.9h-0.9v-4.1c0-0.7-0.2-1.3-0.4-1.5c-0.2-0.2-0.7-0.4-1.1-0.4s-0.9,0.2-1.3,0.4c-0.4,0.2-0.7,0.7-0.7,1.1
			v4.6h-0.9v-9.4h0.7v3.9h0.2V443.2z"/>
		<path fill="#C9C9C9" d="M119.7,445.3c0-0.9,0.2-1.7,0.9-2.4s1.3-0.9,2.2-0.9s1.5,0.2,2.2,0.9c0.7,0.7,0.9,1.3,0.9,2.4v0.2
			c0,0.9-0.2,1.7-0.9,2.4c-0.7,0.7-1.3,0.9-2.2,0.9s-1.5-0.2-2.2-0.9C119.9,447.3,119.7,446.4,119.7,445.3L119.7,445.3z
			 M120.4,445.6c0,0.7,0.2,1.3,0.7,2c0.4,0.7,0.9,0.9,1.5,0.9c0.7,0,1.3-0.2,1.5-0.9c0.4-0.4,0.7-1.1,0.7-2v-0.2
			c0-0.7-0.2-1.3-0.7-2c-0.4-0.4-0.9-0.9-1.5-0.9c-0.7,0-1.3,0.2-1.5,0.9C120.8,444,120.4,444.5,120.4,445.6L120.4,445.6z"/>
		<path fill="#C9C9C9" d="M127.8,442.1v7c0,0.7-0.2,1.1-0.4,1.5c-0.2,0.4-0.9,0.7-1.3,0.7c-0.2,0-0.2,0-0.4,0c-0.2,0-0.2,0-0.4,0
			v-0.7h0.2c0.2,0,0.2,0,0.2,0c0.4,0,0.7-0.2,0.9-0.4c0.2-0.2,0.2-0.7,0.2-1.1v-7H127.8z M127.8,440.3h-0.7v-1.1h0.7V440.3z"/>
		<path fill="#C9C9C9" d="M129.5,445.6c0-1.1,0.2-2,0.7-2.4c0.4-0.7,1.1-0.9,1.7-0.9c0.4,0,0.9,0,1.1,0.2c0.4,0.2,0.7,0.4,0.9,0.9
			v-3.9h0.7v9.4h-0.7V448c-0.2,0.4-0.4,0.7-0.9,0.9s-0.7,0.2-1.3,0.2c-0.9,0-1.3-0.2-1.7-0.9C129.7,447.3,129.5,446.7,129.5,445.6
			L129.5,445.6z M130.4,445.6c0,0.9,0.2,1.5,0.4,2s0.9,0.7,1.5,0.7c0.4,0,0.9,0,1.1-0.2c0.2-0.2,0.7-0.4,0.7-0.9v-3
			c-0.2-0.4-0.4-0.7-0.7-0.9c-0.2-0.2-0.7-0.4-1.1-0.4c-0.7,0-1.1,0.2-1.5,0.9C130.4,444,130.4,444.7,130.4,445.6L130.4,445.6z"/>
	</g>
	<g>
		<path fill="#C9C9C9" d="M109.5,458.4l2.4-3.7h0.9l-2.8,4.4l3,4.4h-0.9l-2.6-3.9l-2.6,3.9H106l3-4.4l-2.8-4.4h0.9L109.5,458.4z"/>
		<path fill="#C9C9C9" d="M116.9,459.5l2.6-4.8h0.9l-3.3,5.7v3.3h-0.7v-3.3l-3.3-5.4h0.9L116.9,459.5z"/>
	</g>
	<rect x="189" y="404.9" fill="#969696" width="1.5" height="34"/>
	<rect x="92.3" y="412" fill="#EF4323" width="5.9" height="5.9"/>
	<rect x="92.3" y="426.8" fill="#EF4323" width="5.9" height="5.9"/>
	<rect x="92.3" y="442.3" fill="#C9C9C9" width="5.9" height="5.9"/>
	<rect x="92.3" y="457.1" fill="#C9C9C9" width="5.9" height="5.9"/>
</g>
<g id="bar">
	<rect x="-0.7" y="784.1" fill="#2B2B2B" width="800.7" height="17"/>
	<rect x="-0.2" y="524.6" fill="#2B2B2B" width="197.7" height="33.1"/>
	<g>
		<g>
			<path fill="#B2B3B3" d="M22.9,539.6h5.2v8.3h-2v-1.5c-1.1,0.9-2.6,1.7-4.4,1.7c-3.7,0-6.3-3-6.3-7.6c0-5,2.6-8.5,7.2-8.5
				c2,0,3.5,0.4,4.8,1.3l-0.9,1.7c-1.3-0.7-2.4-1.1-4.1-1.1c-2.8,0-4.8,2.4-4.8,6.5c0,3.7,2,5.9,4.6,5.9c1.7,0,3-0.9,3.7-1.5v-3.5
				h-3.3v-1.7H22.9L22.9,539.6z"/>
			<path fill="#B2B3B3" d="M37.7,538.3c-0.2-0.2-0.7-0.2-1.1-0.2c-1.7,0-3.3,1.3-3.3,4.4v5.4h-2v-11.5h2v2.6
				c0.7-1.6,1.7-2.9,3.7-2.9c0.4,0,0.9,0,1.3,0.2L37.7,538.3z"/>
			<path fill="#B2B3B3" d="M44.4,536.1c1.3,0,2.4,0.4,3.3,1.3v-0.9h1.7v8.7c0,1.1,0.7,1.3,1.3,1.3l-0.4,1.5c-1.5,0-2.4-0.7-2.6-1.7
				c-0.7,0.9-1.7,2-3.7,2c-2.8,0-5.2-2.4-5.2-6.1C39,538.8,41.1,536.1,44.4,536.1z M47.5,545v-6.3c-0.9-0.7-1.7-0.9-2.8-0.9
				c-2.2,0-3.7,1.7-3.7,4.4c0,2.7,1.5,4.4,3.7,4.4C45.7,546.4,46.8,545.9,47.5,545z"/>
			<path fill="#B2B3B3" d="M52.7,536.3c1.3,0,2.2,0.7,2.6,1.5c0.4-0.7,1.7-2,3.7-2c2.6,0,5,2.2,5,5.9c0,3.7-2.4,6.1-5,6.1
				c-1.3,0-2.6-0.7-3.5-1.3v6.1h-2v-13.5c0-1.1-0.4-1.3-1.3-1.3L52.7,536.3z M58.3,537.9c-1.3,0-2.4,0.9-2.8,1.5v5.7
				c0.7,0.9,1.7,1.3,3,1.3c2,0,3.5-1.7,3.5-4.4C61.8,539.4,60.3,537.9,58.3,537.9z"/>
			<path fill="#B2B3B3" d="M68.8,538.3c0.9-1.3,2.2-2.2,3.9-2.2c2.6,0,3.9,1.7,3.9,4.4v7.6h-2v-7.4c0-1.7-0.9-2.8-2.2-2.8
				c-1.3,0-2.6,1.1-3.5,2.4v7.6h-2v-16.5h2v7h-0.1V538.3z"/>
			<path fill="#B2B3B3" d="M91.4,536.1c3.3,0,5.9,2.4,5.9,6.1s-2.4,6.1-5.9,6.1c-3.3,0-5.9-2.4-5.9-6.1
				C85.8,538.5,88.2,536.1,91.4,536.1z M91.4,537.9c-2.4,0-3.7,1.7-3.7,4.1c0,2.4,1.5,4.4,3.7,4.4c2.4,0,3.7-1.7,3.7-4.4
				C95.3,539.8,93.6,537.9,91.4,537.9z"/>
			<path fill="#B2B3B3" d="M106.4,533.8c-0.7-0.4-1.3-0.7-2.2-0.7c-1.3,0-2.2,0.9-2.2,2.4v1.5h3.5v1.7h-3.3v9.4H100v-9.4h-1.7v-1.7
				h1.7v-1.3c0-2.6,1.5-4.1,3.9-4.1c1.3,0,2.2,0.2,2.8,0.7L106.4,533.8z"/>
		</g>
	</g>
	<polygon fill="#2B2B2B" points="197.2,557.8 239,530 800,529.4 800,524.4 197.2,524.6 	"/>
	<rect x="379.9" y="835.9" fill="#ED1A46" width="0.4" height="2.2"/>
	<polygon fill="#D3D3D3" points="422.5,798.9 396.6,789.1 370.9,798.9 370.5,797.3 396.6,787.3 423,797.3 	"/>
</g>
<g id="new">
	<rect x="17.4" y="694.4" fill="#C1C1C0" width="783" height="1.1"/>
	<rect x="17" y="557.8" fill="#C1C1C0" width="1.1" height="226.4"/>
	<rect x="250.8" y="692" fill="#C1C1C0" width="1.1" height="5.9"/>
	<rect x="289.7" y="692" fill="#C1C1C0" width="1.1" height="5.9"/>
	<rect x="328.5" y="692" fill="#C1C1C0" width="1.1" height="5.9"/>
	<rect x="367.2" y="692" fill="#C1C1C0" width="1.1" height="5.9"/>
	<rect x="406" y="692" fill="#C1C1C0" width="1.1" height="5.9"/>
	<rect x="56.8" y="692" fill="#C1C1C0" width="1.1" height="5.9"/>
	<rect x="95.6" y="692" fill="#C1C1C0" width="1.1" height="5.9"/>
	<rect x="134.3" y="692" fill="#C1C1C0" width="1.1" height="5.9"/>
	<rect x="173.3" y="692" fill="#C1C1C0" width="1.1" height="5.9"/>
	<rect x="14.6" y="655.4" fill="#C1C1C0" width="5.9" height="1.1"/>
	<rect x="14.6" y="616.7" fill="#C1C1C0" width="5.9" height="1.1"/>
	<rect x="14.6" y="577.9" fill="#C1C1C0" width="5.9" height="1.1"/>
	<rect x="14.6" y="772.1" fill="#C1C1C0" width="5.9" height="1.1"/>
	<rect x="14.6" y="733.1" fill="#C1C1C0" width="5.9" height="1.1"/>
	<g>
		<path fill="#ABABAB" d="M288.4,709.2V709c0-2.2,2.8-3,2.8-4.4c0-0.4-0.4-0.9-0.9-0.9s-0.9,0.2-1.3,0.4l-0.4-0.4
			c0.4-0.4,1.1-0.7,1.7-0.7c1.1,0,1.7,0.7,1.7,1.5c0,1.7-2.4,2.4-2.6,3.9h2.6v0.7h-3.6V709.2z"/>
	</g>
	<g>
		<path fill="#ABABAB" d="M369.2,707.9v1.3h-0.9v-1.3h-2.6v-0.7l1.7-4.1l0.7,0.2l-1.7,3.9h1.7v-1.7h0.9v1.7h0.7v0.7L369.2,707.9
			L369.2,707.9z"/>
	</g>
	<g>
		<path fill="#ABABAB" d="M53.3,707.2v-0.7h3v0.7H53.3z"/>
		<path fill="#ABABAB" d="M61.4,708.5v1.3h-0.9v-1.3h-2.6v-0.7l1.7-4.1l0.7,0.2l-1.7,3.9h1.7v-1.7h0.9v1.7h0.7v0.7H61.4z"/>
	</g>
	<g>
		<path fill="#ABABAB" d="M131,707.2v-0.7h3v0.7H131z"/>
		<path fill="#ABABAB" d="M135.8,709.8v-0.2c0-2.2,2.8-3,2.8-4.4c0-0.4-0.4-0.9-0.9-0.9c-0.4,0-0.9,0.2-1.3,0.4l-0.4-0.4
			c0.4-0.4,1.1-0.7,1.7-0.7c1.1,0,1.7,0.7,1.7,1.5c0,1.7-2.4,2.4-2.6,3.9h2.4v0.7h-3.4V709.8z"/>
	</g>
	<g>
		<path fill="#ABABAB" d="M7.8,618.8v-0.2c0-2.2,2.8-3,2.8-4.4c0-0.4-0.4-0.9-0.9-0.9c-0.4,0-0.9,0.2-1.3,0.4L8,613
			c0.4-0.4,1.1-0.7,1.7-0.7c1.1,0,1.7,0.7,1.7,1.5c0,1.7-2.4,2.4-2.6,3.9h2.6v0.7H7.8V618.8z"/>
	</g>
	<g>
		<path fill="#ABABAB" d="M3,771.7V771h3v0.7H3z"/>
		<path fill="#ABABAB" d="M7.8,774.5v-0.2c0-2.2,2.8-3,2.8-4.4c0-0.4-0.4-0.9-0.9-0.9c-0.4,0-0.9,0.2-1.3,0.4L8,769
			c0.4-0.4,1.1-0.7,1.7-0.7c1.1,0,1.7,0.7,1.7,1.5c0,1.7-2.4,2.4-2.6,3.9h2.6v0.7H7.8V774.5z"/>
	</g>
	<g>
		<path fill="#ABABAB" d="M13.7,702.4c0,2-0.7,3-2.2,3c-1.3,0-2.2-1.1-2.2-3.3c0-2,0.7-3,2.2-3C12.8,699.2,13.7,700.5,13.7,702.4z
			 M10.2,702.4c0,1.5,0.4,2.4,1.3,2.4s1.3-0.7,1.3-2.4c0-1.5-0.4-2.4-1.3-2.4C10.9,699.8,10.2,700.5,10.2,702.4z"/>
	</g>
	<path fill="#ED177D" d="M503.9,754.2c-41.1,0-58.8-57.5-74-108c-11.5-37.9-22.4-73.6-40.9-73.6c-5.9,0-11.3-0.2-16.1-0.2
		c-31.8-0.9-45.1-1.3-65.5,46.6c-5.4,13.1-53.6,126.9-72.5,126.9c-5.2,0-11.8-13.9-21.6-46.4c-0.7-2.2-1.1-3.9-1.3-4.4
		s-0.2-0.9-0.4-1.3c-6.1-17.4-12.4-26.1-19.2-26.1c-14.4,0-17.2,27.6-17.2,27.9H173c0-39.6-4.6-70.3-12-82.1
		C139,579,21.9,579.8,20.8,579.8v-2.2c4.8,0,119.5-0.9,142.1,34.8c7,11.1,11.5,37.9,12.2,72.7c2.4-8.5,7.4-19.2,17.4-19.2
		c11.5,0,18.7,20.9,21.1,27.6c0.2,0.4,0.4,1.1,0.4,1.3c0.2,0.7,0.7,2.4,1.5,4.6c11.3,37,16.8,44.8,19.6,44.8
		c14.8,0,55.9-90.6,70.5-125.4c21.1-49.4,35.7-48.8,67.5-47.9c4.8,0.2,10.2,0.2,16.1,0.2c20.2,0,30.9,34.8,43.1,75.1
		c15.2,49.9,32.4,106.4,72.1,106.4c37.4,0,49.2-46.6,60.7-91.9c10-39.8,19.6-77.5,46.8-77.5c30.9,0,39.8,37.4,47.7,70.5
		c6.7,28.5,13.3,55.5,32,55.5c20.7,0,33.5-36.8,45.7-72.5c12.6-36.8,24.8-71.4,45.5-71.4c14.6,0,19.2,11.1,19.2,11.3l-2,0.9
		c-0.2-0.4-3.9-9.8-17-9.8c-19.2,0-31.6,35.5-43.3,69.9c-12.6,36.4-25.7,74-47.9,74c-20.5,0-27.2-27.9-34.2-57.3
		c-8.1-33.7-16.3-68.8-45.7-68.8c-25.5,0-34.8,36.8-44.6,76C555.1,706.8,543.1,754.2,503.9,754.2z"/>
	<rect x="212" y="692" fill="#C1C1C0" width="1.1" height="5.9"/>
	<g>
		<path fill="#ABABAB" d="M214.6,706.1c0,2-0.7,3-2.2,3c-1.3,0-2.2-1.1-2.2-3.3c0-2,0.7-3,2.2-3
			C213.8,702.9,214.6,704.2,214.6,706.1z M211.2,706.1c0,1.5,0.4,2.4,1.3,2.4c0.9,0,1.3-0.7,1.3-2.4c0-1.5-0.4-2.4-1.3-2.4
			C211.6,703.7,211.2,704.2,211.2,706.1z"/>
	</g>
	<rect x="444.7" y="692.6" fill="#C1C1C0" width="1.1" height="5.9"/>
	<rect x="483.7" y="692.6" fill="#C1C1C0" width="1.1" height="5.9"/>
	<rect x="522.2" y="692.6" fill="#C1C1C0" width="1.1" height="5.9"/>
	<g>
		<path fill="#ABABAB" d="M444.1,705.9c0.2-0.2,0.9-0.7,1.5-0.7c0.9,0,1.7,0.7,1.7,1.7c0,1.3-0.9,2.2-2,2.2s-2-0.9-2-2.6
			c0-2,1.1-3.7,3-3.7c0,0,0.2,0,0.4,0v0.7h-0.2C445.2,703.7,444.3,704.6,444.1,705.9z M444.1,706.6L444.1,706.6c0,1.3,0.7,2,1.3,2
			s1.1-0.7,1.1-1.3s-0.4-1.3-1.1-1.3C445,705.9,444.5,706.1,444.1,706.6z"/>
	</g>
	<g>
		<path fill="#ABABAB" d="M521.1,704.2c0-0.9,0.9-1.5,1.7-1.5c1.1,0,1.7,0.7,1.7,1.5c0,0.7-0.4,1.1-1.1,1.5c0.9,0.4,1.3,0.9,1.3,1.7
			c0,1.1-0.9,1.7-2.2,1.7s-2.2-0.7-2.2-1.7c0-0.7,0.4-1.3,1.3-1.7C521.4,705,521.1,704.8,521.1,704.2z M522.9,705.9
			c-0.7,0.2-1.3,0.7-1.3,1.3c0,0.7,0.7,1.1,1.3,1.1c0.7,0,1.3-0.4,1.3-1.1C524.2,706.6,523.8,706.1,522.9,705.9z M522.9,705.3
			c0.4-0.2,0.9-0.4,0.9-1.1c0-0.4-0.4-0.9-1.1-0.9c-0.7,0-1.1,0.4-1.1,0.9C521.8,704.6,522.2,705,522.9,705.3z"/>
	</g>
	<rect x="561" y="692.6" fill="#C1C1C0" width="1.1" height="5.9"/>
	<rect x="599.9" y="692.6" fill="#C1C1C0" width="1.1" height="5.9"/>
	<rect x="638.7" y="692.6" fill="#C1C1C0" width="1.1" height="5.9"/>
	<g>
		<path fill="#ABABAB" d="M598.4,702.7v5.4h1.1v0.7h-3v-0.7h1.3v-4.4l-1.3,0.9l-0.4-0.7l1.7-1.3L598.4,702.7L598.4,702.7z"/>
		<path fill="#ABABAB" d="M605.2,705.7c0,2-0.7,3-2.2,3c-1.3,0-2.2-1.1-2.2-3.3c0-2,0.7-3,2.2-3
			C604.5,702.7,605.2,703.7,605.2,705.7z M601.9,705.7c0,1.5,0.4,2.4,1.3,2.4s1.3-0.7,1.3-2.4c0-1.5-0.4-2.4-1.3-2.4
			S601.9,704,601.9,705.7z"/>
	</g>
	<rect x="677.4" y="693.3" fill="#C1C1C0" width="1.1" height="5.9"/>
	<rect x="716.2" y="693.3" fill="#C1C1C0" width="1.1" height="5.9"/>
	<rect x="754.9" y="693.3" fill="#C1C1C0" width="1.1" height="5.9"/>
	<g>
		<path fill="#ABABAB" d="M675.9,703.3v5.4h1.1v0.7h-3v-0.7h1.3v-4.4l-1.1,0.9l-0.4-0.7l1.7-1.3L675.9,703.3L675.9,703.3z"/>
		<path fill="#ABABAB" d="M678.7,709.4v-0.2c0-2.2,2.8-3,2.8-4.4c0-0.4-0.4-0.9-0.9-0.9s-0.9,0.2-1.3,0.4l-0.4-0.4
			c0.4-0.4,1.1-0.7,1.7-0.7c1.1,0,1.7,0.7,1.7,1.5c0,1.7-2.4,2.4-2.6,3.9h2.6v0.7h-3.6V709.4z"/>
	</g>
	<g>
		<path fill="#ABABAB" d="M753.6,703.3v5.4h1.1v0.7h-3v-0.7h1.3v-4.4l-1.1,0.9l-0.4-0.7l1.7-1.3L753.6,703.3L753.6,703.3z"/>
		<path fill="#ABABAB" d="M759.5,708.1v1.3h-0.9v-1.3H756v-0.7l1.7-4.1l0.7,0.2l-1.7,3.9h1.7v-1.7h0.9v1.7h0.7v0.7L759.5,708.1
			L759.5,708.1z"/>
	</g>
	<g>
		<path fill="#ED1A46" d="M115.4,545.3c0.7,0.7,2,1.1,3.3,1.1c1.7,0,2.6-0.7,2.6-1.5s-0.4-1.5-2.8-2.2c-2.2-0.7-3.3-1.7-3.3-3.5
			c0-1.7,1.7-3.3,4.4-3.3c1.5,0,2.6,0.4,3.5,0.9l-0.7,1.7c-0.9-0.4-1.7-0.9-3-0.9c-1.5,0-2.4,0.7-2.4,1.5c0,0.7,0.4,1.1,2.4,1.7
			c3,1.1,3.9,2.2,3.9,3.9c0,2.2-1.7,3.3-4.6,3.3c-1.7,0-3.3-0.4-4.1-1.3L115.4,545.3z"/>
		<path fill="#ED1A46" d="M125.6,533.1c0-0.9,0.4-1.3,1.3-1.3s1.3,0.7,1.3,1.3c0,0.9-0.4,1.3-1.3,1.3
			C126.3,534.4,125.6,533.8,125.6,533.1z M128,547.9h-2v-11.5h2V547.9z"/>
		<path fill="#ED1A46" d="M133.4,538.3c0.9-1.3,2.2-2.2,3.9-2.2c2.6,0,3.9,1.7,3.9,4.4v7.6h-2v-7.4c0-1.7-0.9-2.8-2.2-2.8
			s-2.6,1.1-3.5,2.4v7.6h-2v-11.5h2v2h-0.1V538.3z"/>
		<path fill="#A09F9F" d="M148.2,550.1l-1.1,0.7c-1.7-3.3-3-6.3-3-9.8c0-3.7,1.1-6.7,3-9.8l1.1,0.7c-1.1,2.4-2,5.7-2,9.1
			C146.2,544.5,147.2,547.4,148.2,550.1z"/>
		<path fill="#A09F9F" d="M155.2,540l-5-6.5l1.7-1.3l4.6,6.3l4.6-6.3l1.7,1.3L158,540l5.2,7l-1.7,1.3l-5-6.7l-4.8,6.7L150,547
			L155.2,540z"/>
		<path fill="#A09F9F" d="M170,540l4.8-7.8l1.7,1.1l-5.4,8.7v5.9h-2.2V542l-5.4-8.7l1.7-1.1L170,540z"/>
		<path fill="#A09F9F" d="M177.9,531.5l1.1-0.7c1.7,3,3,6.1,3,9.8c0,3.5-1.1,6.5-3,9.8l-1.1-0.7c1.1-2.6,2-5.7,2-9.1
			C179.9,537.2,178.9,534.3,177.9,531.5z"/>
	</g>
</g>
</svg>
