<?xml version="1.0" encoding="utf-8"?>
<!-- Generator: Adobe Illustrator 18.0.0, SVG Export Plug-In . SVG Version: 6.00 Build 0)  -->
<!DOCTYPE svg PUBLIC "-//W3C//DTD SVG 1.1//EN" "http://www.w3.org/Graphics/SVG/1.1/DTD/svg11.dtd">
<svg version="1.1" xmlns="http://www.w3.org/2000/svg" xmlns:xlink="http://www.w3.org/1999/xlink" x="0px" y="0px"
	 viewBox="-250.4 -118.4 1000 819.9" enable-background="new -250.4 -118.4 1000 819.9" xml:space="preserve">
<g id="Vrstva_1">
	<g id="error" display="none">
		<rect x="0" y="572.7" display="inline" opacity="0.9" enable-background="new    " width="500" height="216.7"/>
		<rect x="-0.4" y="622.6" display="inline" fill="#ED1D2B" width="500.4" height="94.1"/>
		
			<text transform="matrix(1 0 0 1 34.4669 655.9287)" display="inline" fill="#FFFFFF" font-family="'Roboto-Light'" font-size="28.5714">Error</text>
		
			<text transform="matrix(1 0 0 1 36.7343 687.9746)" display="inline" fill="#FFFFFF" font-family="'Roboto-Light'" font-size="13.6054">Naskytla se nějaká chyba.</text>
		<rect x="405.9" y="690.7" display="inline" fill="none" stroke="#FFFFFF" stroke-miterlimit="10" width="78.1" height="16.7"/>
		
			<text transform="matrix(1 0 0 1 438.6818 704.4062)" display="inline" fill="#FFFFFF" font-family="'Roboto-Light'" font-size="12.9556">Ok</text>
	</g>
	<g>
		<g id="input">
			<rect x="-198.8" y="166" fill="#F2F2F2" width="571.3" height="187.2"/>
			<g>
				<path fill="#A09F9F" d="M-141.2,196.5c0.9,0.9,2.1,1.4,3.5,1.4c1.9,0,2.7-0.5,2.7-1.6c0-1.1-0.5-1.6-3.2-2.5
					c-2.5-0.9-3.5-1.9-3.5-3.7c0-1.9,1.9-3.5,4.9-3.5c1.6,0,2.7,0.2,3.7,0.9l-0.5,1.9c-0.9-0.5-1.9-0.9-3.2-0.9
					c-1.6,0-2.5,0.9-2.5,1.6c0,0.9,0.5,1.4,2.5,1.9c3.2,1.1,4.4,2.1,4.4,4.1c0,2.1-1.9,3.5-4.9,3.5c-1.9,0-3.5-0.5-4.4-1.4
					L-141.2,196.5z"/>
				<path fill="#A09F9F" d="M-129.9,183.1c0-0.9,0.5-1.6,1.6-1.6c0.9,0,1.6,0.9,1.6,1.6c0,0.9-0.5,1.6-1.6,1.6
					C-129.4,184.5-129.9,183.8-129.9,183.1z M-127.5,199.1h-2.1v-12.5h2.1V199.1z"/>
				<path fill="#A09F9F" d="M-121.5,188.8c0.9-1.4,2.1-2.5,4.4-2.5c2.7,0,4.4,1.9,4.4,4.6v8.1h-2.1v-7.9c0-1.9-0.9-3-2.5-3
					c-1.4,0-3,1.1-3.7,2.7v8.1h-2.1v-12.5h2.1v2.1L-121.5,188.8L-121.5,188.8z"/>
				<path fill="#A09F9F" d="M-105.4,201.6l-1.4,0.9c-1.9-3.5-3.2-7.1-3.2-10.6c0-4.1,1.1-7.4,3.2-10.6l1.4,0.9
					c-1.1,2.7-2.1,6-2.1,10.1C-107.7,196.1-106.5,198.6-105.4,201.6z"/>
				<path fill="#A09F9F" d="M-98.2,190.7l-5.4-7.1l1.9-1.4l4.9,6.7l4.9-6.7l1.9,1.4l-5.1,7.1l5.7,7.6l-1.9,1.4l-5.5-7.4l-5.1,7.1
					l-1.9-1.4L-98.2,190.7z"/>
				<path fill="#A09F9F" d="M-82,190.7l5.1-8.4l1.9,1.1l-5.7,9.5v6.5h-2.1V193l-6-9.5l1.9-1.1L-82,190.7z"/>
				<path fill="#A09F9F" d="M-73.7,181.5l1.4-0.9c1.9,3.2,3.2,6.7,3.2,10.6c0,3.7-1.1,7.1-3.2,10.6l-1.4-0.9c1.1-2.7,2.1-6,2.1-10.1
					C-71.4,186.8-72.3,184.2-73.7,181.5z"/>
			</g>
			<rect x="375.5" y="168.1" fill="#ED1A46" width="67.5" height="187"/>
			<rect x="396.5" y="255.5" fill="#FFFFFF" width="25.9" height="4.1"/>
			<rect x="396.5" y="268.5" fill="#FFFFFF" width="25.9" height="4.1"/>
		</g>
		<g id="frame">
			<rect x="-251" y="-118.4" fill="#303030" width="999" height="40.9"/>
			<g id="close_button">
				<rect x="708.4" y="-118.4" fill="#C82027" width="40.9" height="40.9"/>
				<g>
					<path fill="#FFFFFF" d="M-233-97.1l-6.5,8.4h10.6v1.4h-12.5v-1.1l6.7-9l-6.7-7.9v-1.4h12.5v1.4h-10.4l0,0l6.2,7.6
						C-233-97.8-233-97.1-233-97.1z"/>
				</g>
				<polygon fill="#FFFFFF" points="-229,-105.4 -229.8,-105.4 -229,-104.3 				"/>
				<polygon fill="#FFFFFF" points="-229,-88.8 -229.8,-88.8 -229,-89.5 				"/>
				<rect x="-240.2" y="-100.4" fill="#C82027" width="9.7" height="1.6"/>
				<rect x="-240.2" y="-95.5" fill="#C82027" width="9.7" height="1.6"/>
				
					<rect x="728.1" y="-114.2" transform="matrix(-0.7071 0.7071 -0.7071 -0.7071 1174.4718 -682.9669)" fill="#E1E1E1" width="1.1" height="31.9"/>
				
					<rect x="728" y="-114.1" transform="matrix(0.7071 0.7071 -0.7071 0.7071 144.003 -543.9281)" fill="#E1E1E1" width="1.1" height="31.9"/>
			</g>
			<g>
				<path fill="#F7F7F7" d="M-215.9-87.4V-107h5.7c1.9,0,3.5,0.5,4.9,1.4c1.1,0.9,1.6,2.1,1.6,3.7c0,1.1-0.2,1.9-0.9,2.7
					c-0.5,0.9-1.4,1.4-2.5,1.6c1.1,0.2,2.1,0.9,3,1.6c0.9,0.9,1.1,1.9,1.1,3.2c0,1.6-0.5,3-1.6,4.1c-1.1,0.9-2.7,1.4-4.6,1.4h-6.7
					C-215.9-87.1-215.9-87.4-215.9-87.4z M-214.3-98.3h4.6c1.4,0,2.5-0.2,3.2-0.9c0.9-0.5,1.1-1.6,1.1-2.7c0-1.4-0.5-2.1-1.4-2.7
					c-0.9-0.5-1.9-0.9-3.5-0.9h-4.1C-214.3-105.4-214.3-98.3-214.3-98.3z M-214.3-96.9v8.1h5.1c1.4,0,2.5-0.2,3.5-1.1
					c0.9-0.9,1.4-1.6,1.4-3c0-1.1-0.2-2.1-1.1-3c-0.9-0.9-1.9-1.1-3.2-1.1C-208.5-96.9-214.3-96.9-214.3-96.9z"/>
				<path fill="#F7F7F7" d="M-189.8-87.4c0-0.5-0.2-0.9-0.2-1.4c0-0.2,0-0.9,0-1.1c-0.5,0.9-1.4,1.4-2.1,1.9c-0.9,0.5-1.9,0.9-3,0.9
					c-1.4,0-2.5-0.3-3.2-1.1s-1.1-1.6-1.1-3s0.5-2.5,1.6-3.2c1.1-0.9,2.7-1.1,4.6-1.1h3.2v-1.9c0-1.1-0.2-1.9-1.1-2.5
					c-0.9-0.5-1.6-0.9-2.7-0.9c-1.1,0-2.1,0.3-2.7,0.9c-0.5,0.5-1.1,1.4-1.1,2.1h-1.4l0,0c0-1.1,0.5-2.1,1.4-3
					c0.9-0.9,2.5-1.4,4.1-1.4c1.6,0,3,0.5,3.7,1.4c1.1,0.9,1.4,1.9,1.4,3.5v7.1c0,0.5,0,1.1,0,1.4c0,0.3,0.2,1.1,0.2,1.4
					L-189.8-87.4L-189.8-87.4z M-195.3-88.5c1.1,0,2.1-0.3,3-0.9c0.9-0.5,1.6-1.4,1.9-2.1v-3h-3.2c-1.4,0-2.7,0.2-3.5,0.9
					c-0.9,0.5-1.4,1.4-1.4,2.5c0,0.9,0.2,1.4,0.9,1.9C-196.9-88.8-196-88.5-195.3-88.5z"/>
				<path fill="#F7F7F7" d="M-177.5-100.4h-1.1c-1.1,0-1.9,0.2-2.5,0.9c-0.5,0.5-1.1,1.4-1.4,2.5v10.1h-1.6v-15h1.1l0.2,2.5v0.2
					c0.5-0.9,1.1-1.6,1.6-2.1c0.5-0.5,1.6-0.9,2.5-0.9c0.2,0,0.2,0,0.5,0c0.5,0.2,0.5,0.2,0.9,0.2L-177.5-100.4z"/>
				<path fill="#F7F7F7" d="M-163.2-94.1c0,2.1-0.5,3.7-1.4,5.1c-1.1,1.4-2.5,1.9-4.1,1.9c-1.1,0-1.9-0.3-2.7-0.5
					c-0.9-0.3-1.4-1.1-1.9-1.9l-0.2,2.1h-1.2v-21h1.6v8.7c0.5-0.9,1.1-1.4,1.9-1.9c0.9-0.5,1.6-0.5,2.7-0.5c1.6,0,3,0.9,4.1,2.1
					C-163.4-98.5-163.2-96.6-163.2-94.1L-163.2-94.1z M-164.8-94.4c0-1.9-0.2-3.2-1.1-4.6c-0.9-1.1-1.9-1.6-3.2-1.6
					c-1.1,0-1.9,0.2-2.7,0.9c-0.9,0.5-1.1,1.4-1.6,2.1v6.5c0.2,0.9,0.9,1.6,1.6,1.9c0.9,0.5,1.6,0.9,2.7,0.9c1.4,0,2.5-0.5,3.2-1.6
					C-165-91.1-164.8-92.5-164.8-94.4L-164.8-94.4z"/>
				<path fill="#F7F7F7" d="M-157.7-106.1h-1.6v-2.1h1.6V-106.1z M-157.7-87.4h-1.6v-14.7h1.6V-87.4z"/>
				<path fill="#F7F7F7" d="M-147.9-87.1c-1.9,0-3.2-0.5-4.6-1.9c-1.1-1.4-1.9-3-1.9-5.1V-95c0-2.1,0.5-3.7,1.9-5.1
					c1.1-1.4,2.7-2.1,4.4-2.1c1.9,0,3.2,0.5,4.4,1.6c1.1,1.4,1.6,2.7,1.6,4.6v1.4h-10.4v0.3c0,1.6,0.5,3,1.4,4.1
					c0.9,1.1,1.9,1.6,3.5,1.6c1.1,0,1.9-0.3,2.5-0.5c0.5-0.2,1.4-0.5,1.9-1.1l0.9,1.1c-0.5,0.5-1.4,1.1-2.1,1.4
					C-145.8-87.4-146.5-87.1-147.9-87.1z M-147.9-100.8c-1.1,0-2.1,0.5-3,1.4c-0.9,0.9-1.4,2.1-1.4,3.5l0,0h8.4v-0.5
					c0-1.4-0.2-2.5-1.1-3.2C-145.8-100.4-146.8-100.8-147.9-100.8z"/>
				<path fill="#F7F7F7" d="M-118.5-93.4L-118.5-93.4c-0.2,2.1-0.9,3.5-2.1,4.6c-1.4,1.1-3,1.6-4.9,1.6c-2.1,0-3.7-0.9-5.1-2.5
					s-1.9-3.5-1.9-6.2v-3c0-2.5,0.5-4.6,1.9-6.2c1.4-1.6,3-2.5,5.1-2.5c2.1,0,3.7,0.5,4.9,1.6c1.1,1.1,1.9,2.7,2.1,4.6l0,0h-1.6
					c-0.2-1.6-0.9-3-1.6-3.7c-0.7-0.7-2.1-1.4-3.7-1.4c-1.6,0-3,0.5-4.1,1.9c-1.1,1.4-1.6,3-1.6,5.1v3.2c0,2.1,0.5,3.7,1.6,5.1
					c1.1,1.4,2.5,1.9,4.1,1.9c1.6,0,3-0.5,3.7-1.4c0.9-0.9,1.4-2.1,1.6-3.7h1.6V-93.4z"/>
				<path fill="#F7F7F7" d="M-105.4-87.4c0-0.5-0.2-0.9-0.2-1.4c0-0.2,0-0.9,0-1.1c-0.5,0.9-1.4,1.4-2.1,1.9c-0.7,0.5-1.9,0.9-3,0.9
					c-1.4,0-2.5-0.3-3.2-1.1c-0.9-0.9-1.1-1.6-1.1-3s0.5-2.5,1.6-3.2c1.1-0.9,2.7-1.1,4.6-1.1h3.2v-1.9c0-1.1-0.2-1.9-1.1-2.5
					c-0.9-0.6-1.6-0.9-2.7-0.9c-1.1,0-2.1,0.3-2.7,0.9c-0.5,0.5-1.1,1.4-1.1,2.1h-1.4l0,0c0-1.1,0.5-2.1,1.4-3
					c0.9-0.9,2.5-1.4,4.1-1.4c1.6,0,3,0.5,3.7,1.4c0.9,0.5,1.4,1.6,1.4,3.2v7.1c0,0.5,0,1.1,0,1.4s0.2,1.1,0.2,1.4h-1.6L-105.4-87.4
					L-105.4-87.4z M-110.7-88.5c1.1,0,2.1-0.3,3-0.9c0.9-0.5,1.6-1.4,1.9-2.1v-3h-3.2c-1.4,0-2.7,0.2-3.5,0.9s-1.4,1.4-1.4,2.5
					c0,0.9,0.2,1.4,0.9,1.9C-112.5-88.8-111.7-88.5-110.7-88.5z"/>
				<path fill="#F7F7F7" d="M-98.2-87.4h-1.6v-21h1.6V-87.4z"/>
				<path fill="#F7F7F7" d="M-88-88.5c1.1,0,1.9-0.3,2.7-0.9c0.9-0.5,1.4-1.4,1.4-2.5h1.4l0,0c0,1.4-0.5,2.5-1.6,3.2
					c-1.1,0.9-2.5,1.4-3.7,1.4c-1.9,0-3.5-0.9-4.6-2.1c-1.1-1.4-1.6-3-1.6-5.1V-95c0-2.1,0.5-3.7,1.6-5.1c1.1-1.4,2.7-2.1,4.6-2.1
					c1.6,0,3,0.5,4.1,1.4c1.1,0.9,1.6,2.1,1.6,3.7l0,0h-1.4c0-1.1-0.2-2.1-1.1-2.7c-0.9-0.9-1.6-1.1-3-1.1c-1.6,0-2.7,0.5-3.5,1.6
					c-0.9,1.1-1.4,2.7-1.4,4.4v0.5c0,1.6,0.2,3.2,1.1,4.4C-90.8-89-89.7-88.5-88-88.5z"/>
				<path fill="#F7F7F7" d="M-69.8-89.8c-0.5,0.9-1.1,1.6-1.9,1.9c-0.9,0.5-1.6,0.9-2.7,0.9c-1.6,0-2.7-0.5-3.5-1.6
					c-0.9-1.1-1.4-2.7-1.4-4.9v-8.4h1.6v8.4c0,1.9,0.2,3,0.9,3.7c0.5,0.9,1.4,1.1,2.5,1.1c1.1,0,2.1-0.3,3-0.9
					c0.9-0.6,1.4-1.4,1.6-2.1V-102h1.6v14.7h-1.4L-69.8-89.8z"/>
				<path fill="#F7F7F7" d="M-62.2-87.4h-1.6v-21h1.6V-87.4z"/>
				<path fill="#F7F7F7" d="M-48.3-87.4c0-0.5-0.2-0.9-0.2-1.4c0-0.2,0-0.9,0-1.1c-0.5,0.9-1.4,1.4-2.1,1.9c-0.9,0.5-1.9,0.9-3,0.9
					c-1.4,0-2.5-0.3-3.2-1.1c-0.7-0.9-1.1-1.6-1.1-3s0.5-2.5,1.6-3.2c1.1-0.9,2.7-1.1,4.6-1.1h3.2v-1.9c0-1.1-0.2-1.9-1.1-2.5
					c-0.9-0.6-1.6-0.9-2.7-0.9s-2.1,0.3-2.7,0.9c-0.6,0.6-1.1,1.4-1.1,2.1h-1.4l0,0c0-1.1,0.5-2.1,1.4-3c0.9-0.9,2.5-1.4,4.1-1.4
					c1.6,0,3,0.5,3.7,1.4c1.1,0.9,1.4,1.9,1.4,3.5v7.1c0,0.5,0,1.1,0,1.4c0,0.3,0.2,1.1,0.2,1.4L-48.3-87.4L-48.3-87.4z M-53.8-88.5
					c1.1,0,2.1-0.3,3-0.9c0.9-0.5,1.6-1.4,1.9-2.1v-3h-3.2c-1.4,0-2.7,0.2-3.5,0.9c-0.9,0.5-1.4,1.4-1.4,2.5c0,0.9,0.2,1.4,0.9,1.9
					C-55.4-88.8-54.6-88.5-53.8-88.5z"/>
				<path fill="#F7F7F7" d="M-40.2-105.6v3.5h3.2v1.4h-3.2v9.5c0,1.1,0.2,1.6,0.5,1.9c0.2,0.2,0.9,0.5,1.4,0.5c0.2,0,0.5,0,0.9,0
					c0.2,0,0.5,0,0.9,0l0.2,1.1c-0.2,0-0.5,0.2-1.1,0.2c-0.5,0-0.9,0-1.1,0c-1.1,0-1.9-0.2-2.5-1.1c-0.5-0.5-0.9-1.6-0.9-3v-9.2
					h-2.5v-1.4h2.5v-3.5h1.7V-105.6z"/>
				<path fill="#F7F7F7" d="M-34.7-95c0-2.1,0.5-3.7,1.6-5.1c1.1-1.4,2.7-2.1,4.6-2.1s3.5,0.9,4.6,2.1c1.1,1.4,1.6,3.2,1.6,5.1v0.5
					c0,2.1-0.5,3.7-1.6,5.1c-1.1,1.4-2.7,2.1-4.6,2.1s-3.5-0.9-4.6-2.1c-1.1-1.4-1.6-3.2-1.6-5.1V-95z M-33.1-94.4
					c0,1.6,0.5,3,1.4,4.4c0.9,1.1,2.1,1.6,3.5,1.6c1.6,0,2.7-0.5,3.5-1.6c0.9-1.1,1.4-2.5,1.4-4.4v-0.5c0-1.6-0.5-3-1.4-4.4
					c-0.9-1.1-2.1-1.6-3.5-1.6c-1.6,0-2.7,0.5-3.5,1.6c-0.9,1.1-1.4,2.5-1.4,4.4V-94.4z"/>
				<path fill="#F7F7F7" d="M-11.9-100.4h-1.1c-1.1,0-1.9,0.2-2.5,0.9c-0.5,0.5-1.1,1.4-1.4,2.5v10.1h-1.6v-15h1.4v2.5v0.2
					c0.5-0.9,1.1-1.6,1.6-2.1s1.6-0.9,2.5-0.9c0.2,0,0.2,0,0.5,0s0.2,0,0.5,0L-11.9-100.4z"/>
			</g>
		</g>
		<g id="display">
			<rect x="-251" y="-77.6" fill="#F7F7F7" width="692.2" height="246.5"/>
			<g>
				<path fill="#303030" d="M270.8,39.7c0,6.2-1.4,11.1-4.4,14.4c-2.7,3.2-6.7,4.9-11.7,4.9s-8.7-1.6-11.7-4.9
					c-3-3.2-4.4-8.1-4.4-14.4V28.6c0-6.2,1.4-11.1,4.4-14.4c3-3.2,6.7-4.9,11.7-4.9s8.7,1.6,11.7,4.9s4.4,8.1,4.4,14.4V39.7z
					 M262.7,27.5c0-4.1-0.5-6.7-1.9-8.7c-1.4-1.9-3.2-3-5.7-3s-4.4,1.1-5.7,3c-1.4,1.9-1.9,4.9-1.9,8.7v13.4c0,4.1,0.5,7.1,1.9,9
					c1.4,1.9,3.2,3,5.7,3s4.4-1.1,5.7-3s1.9-4.9,1.9-9V27.5z"/>
				<path fill="#303030" d="M287.4,58.5h-8.1v-7.9h8.1V58.5z"/>
				<path fill="#303030" d="M324.2,41.1h6.2v6.5h-6.2v10.9H316V47.6h-20.6l-0.3-4.9l20.6-32.6h8.4V41.1z M303.2,41.1h13V21.5h-0.3
					l-0.5,1.4L303.2,41.1z"/>
				<path fill="#303030" d="M362.8,41.1h6.2v6.5h-6.2v10.9h-8.1V47.6h-20.7l-0.3-4.9l20.6-32.6h8.4v31H362.8z M341.8,41.1h13V21.5
					h-0.3l-0.5,1.4L341.8,41.1z"/>
				<path fill="#303030" d="M401.7,41.1h6.2v6.5h-6.2v10.9h-8.1V47.6h-20.6l-0.3-4.9l20.6-32.6h8.4V41.1z M380.5,41.1h13V21.5h-0.2
					l-0.5,1.4L380.5,41.1z"/>
			</g>
		</g>
		<g id="extension">
			<rect x="-251" y="168.1" fill="#2B2B2B" width="54.4" height="27"/>
			<g>
				<path fill="#FFFFFF" d="M-230.4,182c0,1.1-0.2,2.1-0.9,3c-0.6,0.9-1.4,1.1-2.1,1.1c-0.5,0-1.1,0-1.6-0.3s-0.9-0.5-1.1-0.9v4.4
					h-1.1v-11.1h0.9v1.4c0.2-0.5,0.5-0.9,1.1-1.1c0.5-0.3,0.9-0.3,1.6-0.3c1.1,0,1.6,0.3,2.1,1.1
					C-230.7,179.6-230.4,180.6-230.4,182L-230.4,182z M-231.4,181.7c0-1.1-0.2-1.9-0.5-2.5c-0.5-0.5-1.1-1.1-1.9-1.1
					c-0.5,0-1.1,0.3-1.4,0.5c-0.2,0.3-0.5,0.5-0.9,1.1v3.7c0.2,0.5,0.5,0.9,0.9,1.1c0.2,0.3,0.9,0.3,1.4,0.3c0.9,0,1.4-0.3,1.9-0.9
					C-231.4,183.6-231.4,182.8-231.4,181.7L-231.4,181.7z"/>
				<path fill="#FFFFFF" d="M-229,181.7c0-1.1,0.2-2.1,1.1-3c0.9-0.9,1.6-1.1,2.7-1.1c1.1,0,1.9,0.3,2.7,1.1c0.9,0.9,1.1,1.6,1.1,3
					v0.3c0,1.1-0.2,2.1-1.1,3c-0.9,0.9-1.6,1.1-2.7,1.1c-1.1,0-1.9-0.3-2.7-1.1C-228.7,184.2-229,183.1-229,181.7L-229,181.7z
					 M-227.9,181.7c0,0.9,0.2,1.6,0.9,2.5c0.5,0.9,1.1,1.1,1.9,1.1c0.9,0,1.6-0.2,1.9-1.1c0.5-0.5,0.9-1.4,0.9-2.5v-0.3
					c0-0.9-0.2-1.6-0.9-2.5c-0.5-0.5-1.1-1.1-1.9-1.1c-0.9,0-1.6,0.2-1.9,1.1C-227.4,179.8-227.9,180.6-227.9,181.7L-227.9,181.7z"
					/>
				<path fill="#FFFFFF" d="M-218.2,183.1l0.2,1.4l0,0l0.2-1.4l1.6-5.5h0.9l1.6,5.5l0.2,1.4l0,0l0.2-1.4l1.4-5.5h0.9l-2.5,8.1h0.2
					l-1.9-5.5l-0.2-1.4l0,0l-0.2,1.4l-1.9,5.5h-0.9l-2.5-8.1h0.9L-218.2,183.1z"/>
			</g>
			<rect x="-251" y="194.8" fill="#2B2B2B" width="54.4" height="27"/>
			<g>
				<path fill="#EE1D3E" d="M-232.5,205.1h-0.5c-0.5,0-1.1,0.3-1.4,0.5s-0.5,0.9-0.9,1.4v5.7h-1.1v-8.1h0.9v1.4l0,0
					c0.2-0.5,0.5-0.9,0.9-1.1c0.2-0.3,0.9-0.5,1.4-0.5h0.2h0.2L-232.5,205.1z"/>
				<path fill="#EE1D3E" d="M-231.7,208.3c0-1.1,0.2-2.1,1.1-3c0.9-0.9,1.6-1.1,2.7-1.1s1.9,0.3,2.7,1.1c0.9,0.9,1.1,1.6,1.1,3v0.3
					c0,1.1-0.2,2.1-1.1,3c-0.9,0.9-1.6,1.1-2.7,1.1s-1.9-0.2-2.7-1.1C-231.4,210.8-231.7,209.7-231.7,208.3L-231.7,208.3z
					 M-230.9,208.3c0,0.9,0.2,1.6,0.9,2.5c0.6,0.9,1.1,1.1,1.9,1.1c0.9,0,1.6-0.2,1.9-1.1c0.5-0.5,0.9-1.4,0.9-2.5v-0.3
					c0-0.9-0.2-1.6-0.9-2.5c-0.5-0.5-1.1-1.1-1.9-1.1c-0.9,0-1.6,0.2-1.9,1.1C-230.4,206.5-230.9,207.3-230.9,208.3L-230.9,208.3z"
					/>
				<path fill="#EE1D3E" d="M-223,208.3c0-1.1,0.2-2.1,1.1-3c0.9-0.9,1.6-1.1,2.7-1.1c1.1,0,1.9,0.3,2.7,1.1c0.9,0.9,1.1,1.6,1.1,3
					v0.3c0,1.1-0.2,2.1-1.1,3c-0.9,0.9-1.6,1.1-2.7,1.1s-1.9-0.2-2.7-1.1C-222.8,210.8-223,209.7-223,208.3L-223,208.3z
					 M-222.2,208.3c0,0.9,0.2,1.6,0.9,2.5c0.5,0.9,1.1,1.1,1.9,1.1c0.9,0,1.6-0.2,1.9-1.1c0.5-0.5,0.9-1.4,0.9-2.5v-0.3
					c0-0.9-0.2-1.6-0.9-2.5c-0.5-0.5-1.1-1.1-1.9-1.1c-0.9,0-1.6,0.2-1.9,1.1C-221.7,206.5-222.2,207.3-222.2,208.3L-222.2,208.3z"
					/>
				<path fill="#EE1D3E" d="M-212.7,202.1v2.1h1.9v0.9h-1.9v5.5c0,0.5,0,0.9,0.2,1.1c0.2,0.2,0.5,0.2,0.9,0.2s0.2,0,0.5,0
					c0.2,0,0.2,0,0.5,0v0.5c-0.2,0-0.2,0-0.5,0.2c-0.2,0-0.5,0-0.5,0c-0.5,0-1.1-0.2-1.4-0.5s-0.5-0.9-0.5-1.6v-5.5h-1.4v-0.9h1.2
					v-2.1L-212.7,202.1L-212.7,202.1z"/>
			</g>
			<rect x="-251" y="221.7" fill="#2B2B2B" width="54.4" height="27"/>
			<g>
				<path fill="#FFFFFF" d="M-235.3,239.5v-7.4h-1.4v-0.9h1.4v-1.4c0-0.9,0.2-1.4,0.5-1.9c0.5-0.5,1.1-0.5,1.6-0.5
					c0.2,0,0.2,0,0.5,0c0.2,0,0.2,0,0.5,0v0.9h-0.1c0,0-0.2,0-0.5,0c-0.5,0-0.9,0.2-1.1,0.5c-0.2,0.3-0.2,0.9-0.2,1.4v1.1h1.9v0.9
					h-1.9v7.4h-1.1V239.5z"/>
				<path fill="#FFFFFF" d="M-225.8,239.5c0-0.3,0-0.5,0-0.9c0-0.2,0-0.2,0-0.5c-0.2,0.5-0.9,0.9-1.1,1.1c-0.5,0.3-1.1,0.5-1.6,0.5
					c-0.9,0-1.4-0.2-1.9-0.5c-0.5-0.5-0.5-1.1-0.5-1.6c0-0.9,0.2-1.4,1.1-1.9c0.5-0.5,1.6-0.5,2.7-0.5h1.9v-1.1
					c0-0.5-0.2-1.1-0.5-1.4c-0.2-0.2-0.9-0.5-1.6-0.5c-0.5,0-1.1,0.3-1.6,0.5c-0.5,0.3-0.5,0.9-0.5,1.1h-0.9l0,0
					c0-0.5,0.2-1.1,0.9-1.6c0.5-0.5,1.4-0.9,2.1-0.9s1.6,0.3,2.1,0.9c0.5,0.5,0.9,1.1,0.9,1.9v4.1c0,0.3,0,0.5,0,0.9
					c0,0.2,0,0.5,0.2,0.9h-1.6v-0.5H-225.8z M-228.4,238.6c0.5,0,1.1-0.2,1.6-0.5c0.5-0.3,0.9-0.9,1.1-1.1v-1.6h-1.9
					c-0.9,0-1.4,0.3-1.9,0.5c-0.5,0.3-0.9,0.9-0.9,1.4c0,0.5,0.2,0.9,0.5,1.1C-229.5,238.6-229,238.6-228.4,238.6z"/>
				<path fill="#FFFFFF" d="M-219.4,238.6c0.5,0,1.1-0.2,1.6-0.5c0.5-0.3,0.9-0.9,0.9-1.4h0.9l0,0c0,0.9-0.2,1.4-0.9,1.9
					c-0.5,0.5-1.4,0.9-2.1,0.9c-1.1,0-1.9-0.3-2.5-1.1c-0.5-0.9-0.9-1.6-0.9-3v-0.3c0-1.1,0.2-2.1,0.9-3c0.5-0.9,1.4-1.1,2.5-1.1
					c0.9,0,1.6,0.3,2.1,0.9c0.5,0.5,0.9,1.1,0.9,2.1l0,0h-0.9c0-0.5-0.2-1.1-0.5-1.6c-0.5-0.3-1.1-0.5-1.6-0.5
					c-0.9,0-1.6,0.2-1.9,0.9c-0.5,0.5-0.5,1.4-0.5,2.5v0.3c0,1.1,0.2,1.6,0.5,2.5C-221.2,238.3-220.3,238.6-219.4,238.6z"/>
				<path fill="#FFFFFF" d="M-212.9,229.1v2.1h1.9v0.9h-1.9v5.5c0,0.5,0,0.9,0.2,1.1c0.2,0.2,0.5,0.2,0.9,0.2s0.2,0,0.5,0
					c0.2,0,0.2,0,0.5,0v0.5c-0.2,0-0.2,0-0.5,0.2c-0.2,0-0.5,0-0.5,0c-0.5,0-1.1-0.2-1.4-0.5s-0.5-0.9-0.5-1.6v-5.5h-1.4v-0.9h1.4
					v-2.1L-212.9,229.1L-212.9,229.1z"/>
			</g>
			<rect x="-251" y="248.3" fill="#2B2B2B" width="54.4" height="27"/>
			<g>
				<path fill="#FFFFFF" d="M-234.2,258.7h-0.5c-0.5,0-1.1,0.3-1.4,0.5c-0.2,0.3-0.5,0.9-0.9,1.4v5.7h-1.1v-8.1h0.9v1.4l0,0
					c0.2-0.5,0.5-0.9,0.9-1.1c0.2-0.3,0.9-0.5,1.4-0.5h0.2h0.2L-234.2,258.7z"/>
				<path fill="#FFFFFF" d="M-227.7,266.1c0-0.3,0-0.5,0-0.9c0-0.3,0-0.3,0-0.5c-0.2,0.5-0.9,0.9-1.1,1.1c-0.5,0.3-1.1,0.5-1.6,0.5
					c-0.9,0-1.4-0.3-1.9-0.5c-0.5-0.5-0.5-1.1-0.5-1.6c0-0.9,0.2-1.4,1.1-1.9c0.5-0.5,1.6-0.5,2.7-0.5h1.9v-1.1
					c0-0.5-0.2-1.1-0.5-1.4c-0.2-0.3-0.9-0.5-1.6-0.5c-0.5,0-1.1,0.3-1.6,0.5c-0.5,0.3-1.1,0.3-1.1,0.9h-0.9l0,0
					c0-0.5,0.2-1.1,0.9-1.6c0.5-0.5,1.4-0.9,2.1-0.9c0.9,0,1.6,0.3,2.1,0.9c0.5,0.6,0.9,1.1,0.9,1.9v4.1c0,0.3,0,0.5,0,0.9
					c0,0.3,0,0.5,0.2,0.9h-1.1C-227.7,266.3-227.7,266.1-227.7,266.1z M-230.7,265.2c0.5,0,1.1-0.3,1.6-0.5c0.5-0.3,0.9-0.9,1.1-1.1
					V262h-1.6c-0.9,0-1.4,0.3-1.9,0.5c-0.5,0.3-0.9,0.9-0.9,1.4c0,0.5,0.2,0.9,0.5,1.1C-231.4,265.2-231.2,265.2-230.7,265.2z"/>
				<path fill="#FFFFFF" d="M-223.5,258v1.4c0.2-0.5,0.5-0.9,1.1-1.1c0.6-0.3,1.1-0.5,1.6-0.5c0.9,0,1.6,0.3,1.9,0.9
					c0.5,0.5,0.9,1.4,0.9,2.5v4.9h-0.9v-4.9c0-0.9-0.2-1.6-0.5-1.9s-0.9-0.5-1.4-0.5s-1.1,0.3-1.6,0.5c-0.2,0.3-0.9,0.9-0.9,1.4v5.7
					h-1.1v-8.1L-223.5,258L-223.5,258z"/>
				<path fill="#FFFFFF" d="M-216.2,262c0-1.4,0.2-2.5,0.9-3c0.5-0.9,1.4-1.1,2.1-1.1c0.5,0,1.1,0,1.4,0.3c0.5,0.3,0.9,0.5,1.1,1.1
					v-4.9h0.9v11.7h-0.9V265c-0.2,0.5-0.5,0.9-1.1,1.1c-0.5,0.3-0.9,0.3-1.6,0.3c-1.1,0-1.6-0.3-2.1-1.1
					C-215.9,264.5-216.2,263.3-216.2,262L-216.2,262z M-215.4,262.2c0,1.1,0.2,1.9,0.5,2.5c0.2,0.6,1.1,0.9,1.9,0.9
					c0.5,0,1.1,0,1.4-0.3c0.2-0.3,0.9-0.5,0.9-1.1v-3.7c-0.2-0.5-0.5-0.9-0.9-1.1c-0.2-0.3-0.9-0.5-1.4-0.5c-0.9,0-1.4,0.3-1.9,1.1
					C-215.2,260.1-215.4,261-215.4,262.2L-215.4,262.2z"/>
			</g>
			<rect x="-251" y="275.3" fill="#2B2B2B" width="54.4" height="27"/>
			<g>
				<path fill="#FFFFFF" d="M-232,292.7h-0.9v-11.6h0.9V292.7z"/>
				<path fill="#FFFFFF" d="M-229.8,288.7c0-1.1,0.2-2.1,1.1-3c0.9-0.9,1.6-1.1,2.7-1.1c1.1,0,1.9,0.2,2.7,1.1
					c0.9,0.9,1.1,1.6,1.1,3v0.3c0,1.1-0.2,2.1-1.1,3c-0.9,0.9-1.6,1.1-2.7,1.1c-1.1,0-1.9-0.3-2.7-1.1
					C-229.5,291.1-229.8,290-229.8,288.7L-229.8,288.7z M-229,289c0,0.9,0.2,1.6,0.9,2.5c0.5,0.9,1.1,1.1,1.9,1.1
					c0.9,0,1.6-0.3,1.9-1.1c0.5-0.5,0.9-1.4,0.9-2.5v-0.3c0-0.9-0.2-1.6-0.9-2.5c-0.5-0.5-1.1-1.1-1.9-1.1c-0.9,0-1.6,0.3-1.9,1.1
					C-228.4,287-229,287.8-229,289L-229,289z"/>
				<path fill="#FFFFFF" d="M-221.2,289c0-1.4,0.2-2.5,0.9-3c0.5-0.9,1.4-1.1,2.5-1.1c0.5,0,1.1,0,1.6,0.3c0.5,0.3,0.9,0.5,1.1,1.1
					v-1.4h0.9v8.1c0,1.1-0.2,1.9-0.9,2.5c-0.5,0.5-1.4,0.9-2.5,0.9c-0.2,0-0.9,0-1.4-0.3c-0.5,0-0.9-0.3-1.1-0.3l0.2-0.9
					c0.2,0.3,0.5,0.3,1.1,0.3c0.2,0,0.9,0,1.1,0c0.9,0,1.4-0.3,1.9-0.9c0.2-0.5,0.5-1.1,0.5-1.9v-1.1c-0.2,0.5-0.5,0.9-1.1,1.1
					c-0.5,0.3-0.9,0.3-1.4,0.3c-1.1,0-1.6-0.3-2.1-1.1C-220.8,291.1-221.2,290.3-221.2,289L-221.2,289z M-220.3,289
					c0,1.1,0.2,1.6,0.5,2.5c0.2,0.5,1.1,0.9,1.9,0.9c0.5,0,1.1,0,1.4-0.3c0.2-0.3,0.9-0.5,0.9-1.1v-3.7c-0.2-0.5-0.5-0.9-0.9-1.1
					c-0.2-0.3-0.9-0.5-1.4-0.5c-0.9,0-1.4,0.3-1.9,1.1C-220.3,287.3-220.3,287.8-220.3,289L-220.3,289z"/>
			</g>
			<rect x="-251" y="302" fill="#2B2B2B" width="54.4" height="27"/>
			<g>
				<g>
					<path fill="#FFFFFF" d="M-223.5,319.7c-1.1,0-1.9-0.3-2.5-1.1c-0.5-0.9-1.1-1.6-1.1-3v-0.5c0-1.1,0.2-2.1,1.1-3
						s1.4-1.1,2.5-1.1s1.9,0.3,2.5,0.9c0.6,0.6,0.9,1.4,0.9,2.5v0.9h-6v0.3c0,0.9,0.2,1.6,0.9,2.1c0.6,0.5,1.1,0.9,1.9,0.9
						c0.5,0,1.1,0,1.4-0.3c0.2-0.3,0.9-0.3,1.1-0.5l0.2,0.5c-0.2,0.3-0.9,0.5-1.1,0.9C-222.2,319.1-222.8,319.7-223.5,319.7z
						 M-223.5,312.1c-0.5,0-1.4,0.3-1.6,0.9c-0.5,0.5-0.9,1.1-0.9,1.9l0,0h4.9v-0.3c0-0.9-0.2-1.4-0.5-1.9
						C-222.4,312.3-223,312.1-223.5,312.1z"/>
				</g>
			</g>
			<rect x="-251" y="329" fill="#2B2B2B" width="54.4" height="27"/>
			<g>
				<path fill="#FFFFFF" d="M-222.2,342.6c0,1.1-0.2,2.1-0.9,3c-0.6,0.9-1.4,1.1-2.1,1.1c-0.5,0-1.1,0-1.6-0.3
					c-0.5-0.3-0.9-0.5-1.1-0.9v4.4h-0.9v-11.1h0.9v1.4c0.2-0.5,0.5-0.9,1.1-1.1c0.5-0.3,0.9-0.3,1.6-0.3c1.1,0,1.6,0.3,2.1,1.1
					C-222.4,340.1-222.2,341.2-222.2,342.6L-222.2,342.6z M-223,342.2c0-1.1-0.2-1.9-0.5-2.5c-0.5-0.5-1.1-1.1-1.9-1.1
					c-0.5,0-1.1,0.3-1.4,0.5c-0.2,0.3-0.5,0.5-0.9,1.1v3.7c0.2,0.5,0.5,0.9,0.9,1.1c0.2,0.3,0.9,0.3,1.4,0.3c0.9,0,1.4-0.3,1.9-0.9
					C-223.3,344.2-223,343.6-223,342.2L-223,342.2z"/>
				<path fill="#FFFFFF" d="M-218.9,336h-0.9v-1.4h0.9V336z M-218.9,346.3h-0.9v-8.1h0.9V346.3z"/>
			</g>
		</g>
		<g id="soustavy">
			<g>
				<path fill="#EF4323" d="M-234.4,125.7v-9.2h2.7c1.1,0,1.6,0.2,2.1,0.5c0.5,0.2,0.9,1.1,0.9,1.9c0,0.5,0,0.9-0.2,1.4
					c-0.2,0.5-0.5,0.5-1.1,0.9c0.5,0,1.1,0.2,1.4,0.9c0.2,0.6,0.5,0.9,0.5,1.4c0,0.9-0.2,1.4-0.9,1.9c-0.6,0.5-1.4,0.5-2.1,0.5
					H-234.4L-234.4,125.7z M-233.7,120.5h2.1c0.5,0,1.1-0.2,1.6-0.5c0.2-0.2,0.5-0.9,0.5-1.4s-0.2-1.1-0.5-1.4
					c-0.2-0.2-0.9-0.5-1.6-0.5h-2.1V120.5z M-233.7,121.3v3.7h2.5c0.5,0,1.1-0.3,1.6-0.5c0.2-0.3,0.5-0.9,0.5-1.4s-0.2-1.1-0.5-1.4
					c-0.2-0.2-0.9-0.5-1.6-0.5H-233.7L-233.7,121.3z"/>
				<path fill="#EF4323" d="M-225.4,125.7h-0.9v-9.2h0.9C-225.4,116.5-225.4,125.7-225.4,125.7z"/>
				<path fill="#EF4323" d="M-216.2,125.7h-0.9l-5.1-7.9l0,0v7.9h-0.9v-9.2h0.9l5.1,7.9l0,0v-7.9h0.9V125.7z"/>
				<path d="M-195,125.7h-0.9v-8.4l-2.5,0.2v-0.5l3-0.5v9.2h0.4V125.7z"/>
				<path d="M-185.4,122.1c0,1.1-0.2,2.1-0.9,2.7c-0.6,0.6-1.4,1.1-2.1,1.1c-0.9,0-1.6-0.3-2.1-1.1c-0.5-0.5-0.9-1.6-0.9-2.7V120
					c0-1.1,0.2-2.1,0.9-2.7c0.5-0.5,1.4-1.1,2.1-1.1c0.9,0,1.6,0.2,2.1,1.1c0.5,0.9,0.9,1.6,0.9,2.7V122.1z M-186,120
					c0-0.9-0.2-1.6-0.5-2.1s-0.9-0.9-1.6-0.9c-0.9,0-1.4,0.2-1.6,0.9c-0.2,0.5-0.5,1.4-0.5,2.1v2.1c0,0.9,0.2,1.6,0.5,2.1
					c0.2,0.5,0.9,0.9,1.6,0.9s1.4-0.3,1.6-0.9c0.2-0.5,0.5-1.4,0.5-2.1V120z"/>
				<path d="M-180.3,125.7h-0.9v-8.4l-2.5,0.2v-0.5l3-0.5v9.2h0.4V125.7z"/>
				<path d="M-170.5,122.1c0,1.1-0.2,2.1-0.9,2.7c-0.6,0.6-1.4,1.1-2.1,1.1c-0.9,0-1.6-0.3-2.1-1.1c-0.5-0.5-0.9-1.6-0.9-2.7V120
					c0-1.1,0.2-2.1,0.9-2.7c0.5-0.5,1.4-1.1,2.1-1.1c0.9,0,1.6,0.2,2.1,1.1c0.5,0.9,0.9,1.6,0.9,2.7V122.1z M-171.3,120
					c0-0.9-0.2-1.6-0.5-2.1c-0.2-0.5-0.9-0.9-1.6-0.9c-0.9,0-1.4,0.2-1.6,0.9c-0.2,0.5-0.5,1.4-0.5,2.1v2.1c0,0.9,0.2,1.6,0.5,2.1
					s0.9,0.9,1.6,0.9s1.4-0.3,1.6-0.9c0.2-0.5,0.5-1.4,0.5-2.1V120z"/>
				<path d="M-162.3,125.7h-0.9v-8.4l-2.5,0.2v-0.5l3-0.5v9.2h0.4V125.7z"/>
				<path d="M-152.8,122.1c0,1.1-0.2,2.1-0.9,2.7c-0.5,0.5-1.4,1.1-2.1,1.1c-0.9,0-1.6-0.3-2.1-1.1c-0.5-0.5-0.9-1.6-0.9-2.7V120
					c0-1.1,0.2-2.1,0.9-2.7c0.5-0.5,1.4-1.1,2.1-1.1c0.9,0,1.6,0.2,2.1,1.1c0.5,0.9,0.9,1.6,0.9,2.7V122.1z M-153.7,120
					c0-0.9-0.2-1.6-0.5-2.1s-0.9-0.9-1.6-0.9c-0.9,0-1.4,0.2-1.6,0.9c-0.2,0.5-0.5,1.4-0.5,2.1v2.1c0,0.9,0.2,1.6,0.5,2.1
					c0.2,0.5,0.9,0.9,1.6,0.9c0.9,0,1.4-0.3,1.6-0.9c0.2-0.5,0.5-1.4,0.5-2.1V120z"/>
				<path d="M-147.7,125.7h-0.9v-8.4l-2.5,0.2v-0.5l3-0.5v9.2h0.4C-147.7,125.8-147.7,125.7-147.7,125.7z"/>
				<path d="M-138.2,122.1c0,1.1-0.2,2.1-0.9,2.7c-0.5,0.5-1.4,1.1-2.1,1.1c-0.9,0-1.6-0.3-2.1-1.1c-0.5-0.5-0.9-1.6-0.9-2.7V120
					c0-1.1,0.2-2.1,0.9-2.7c0.5-0.5,1.4-1.1,2.1-1.1c0.9,0,1.6,0.2,2.1,1.1s0.9,1.6,0.9,2.7V122.1z M-138.9,120
					c0-0.9-0.2-1.6-0.5-2.1s-0.9-0.9-1.6-0.9c-0.9,0-1.4,0.2-1.6,0.9c-0.2,0.5-0.5,1.4-0.5,2.1v2.1c0,0.9,0.2,1.6,0.5,2.1
					c0.2,0.5,0.9,0.9,1.6,0.9c0.9,0,1.4-0.3,1.6-0.9c0.2-0.5,0.5-1.4,0.5-2.1V120z"/>
				<path d="M-132.9,125.7h-0.9v-8.4l-2.5,0.2v-0.5l3-0.5v9.2h0.4C-132.9,125.8-132.9,125.7-132.9,125.7z"/>
				<path d="M-123.4,122.1c0,1.1-0.2,2.1-0.9,2.7c-0.5,0.5-1.4,1.1-2.1,1.1s-1.6-0.3-2.1-1.1c-0.5-0.5-0.9-1.6-0.9-2.7V120
					c0-1.1,0.2-2.1,0.9-2.7c0.5-0.5,1.4-1.1,2.1-1.1s1.6,0.2,2.1,1.1c0.5,0.9,0.9,1.6,0.9,2.7V122.1z M-123.9,120
					c0-0.9-0.2-1.6-0.5-2.1c-0.2-0.5-0.9-0.9-1.6-0.9c-0.7,0-1.4,0.2-1.6,0.9c-0.2,0.5-0.5,1.4-0.5,2.1v2.1c0,0.9,0.2,1.6,0.5,2.1
					c0.2,0.5,0.9,0.9,1.6,0.9c0.7,0,1.4-0.3,1.6-0.9c0.2-0.5,0.5-1.4,0.5-2.1V120z"/>
			</g>
			<g>
				<path opacity="0.8" fill="#ED1A46" enable-background="new    " d="M-234.4,111.5v-9.2h2.7c1.1,0,2.1,0.2,2.7,1.1
					c0.9,0.9,1.1,1.6,1.1,3v1.1c0,1.1-0.2,2.1-1.1,3c-0.9,0.9-1.6,1.1-2.7,1.1L-234.4,111.5L-234.4,111.5z M-233.7,102.8v7.9h1.9
					c0.9,0,1.6-0.3,2.1-1.1c0.5-0.5,0.9-1.4,0.9-2.5v-1c0-1.1-0.2-1.6-0.9-2.5c-0.5-0.5-1.4-1.1-2.1-1.1h-1.9
					C-233.7,102.5-233.7,102.8-233.7,102.8z"/>
				<path opacity="0.8" fill="#ED1A46" enable-background="new    " d="M-220.8,106.8h-4.4v3.7h5.1v0.5h-6v-9.2h5.7v0.5h-4.9v3.5
					h4.4V106.8z"/>
				<path opacity="0.8" fill="#ED1A46" enable-background="new    " d="M-212.2,108.5L-212.2,108.5c0,1.1-0.2,1.6-1.1,2.1
					c-0.9,0.5-1.4,0.9-2.5,0.9c-1.1,0-1.9-0.2-2.5-1.1c-0.5-0.9-0.9-1.6-0.9-3v-1.2c0-1.1,0.2-2.1,0.9-3c0.6-0.9,1.4-1.1,2.5-1.1
					c1.1,0,1.6,0.3,2.5,0.9c0.5,0.5,0.9,1.4,1.1,2.1l0,0h-0.9c0-0.9-0.2-1.4-0.9-1.6c-0.6-0.2-1.1-0.5-1.9-0.5
					c-0.9,0-1.4,0.3-1.9,0.9c-0.5,0.5-0.9,1.4-0.9,2.5v1.6c0,1.1,0.2,1.9,0.9,2.5c0.5,0.5,1.1,0.9,1.9,0.9c0.9,0,1.4-0.3,1.9-0.5
					c0.5-0.3,0.9-1.1,0.9-1.9L-212.2,108.5L-212.2,108.5z"/>
				<path d="M-194.4,111.5h-0.9v-8.4l-2.5,0.2v-0.5l3-0.5v9.2h0.4V111.5z"/>
				<path d="M-184.9,108c0,1.1-0.2,2.1-0.9,2.7c-0.6,0.6-1.4,1.1-2.1,1.1c-0.9,0-1.6-0.2-2.1-1.1c-0.5-0.5-0.9-1.6-0.9-2.7v-2.1
					c0-1.1,0.2-2.1,0.9-2.7c0.6-0.6,1.4-1.1,2.1-1.1c0.9,0,1.6,0.3,2.1,1.1c0.5,0.9,0.9,1.6,0.9,2.7V108z M-185.8,105.8
					c0-0.9-0.2-1.6-0.5-2.1c-0.2-0.5-0.9-0.9-1.6-0.9c-0.9,0-1.4,0.3-1.6,0.9c-0.2,0.6-0.5,1.4-0.5,2.1v2.1c0,0.9,0.2,1.6,0.5,2.1
					c0.2,0.5,0.9,0.9,1.6,0.9c0.9,0,1.4-0.2,1.6-0.9c0.2-0.5,0.5-1.4,0.5-2.1V105.8z"/>
				<path d="M-181.7,106.3h0.9c0.5,0,1.1-0.2,1.6-0.5c0.5-0.3,0.5-0.9,0.5-1.4c0-0.5-0.2-1.1-0.5-1.4c-0.2-0.3-0.9-0.5-1.4-0.5
					c-0.5,0-1.1,0.2-1.4,0.5c-0.2,0.2-0.5,0.9-0.5,1.4h-0.9l0,0c0-0.9,0.2-1.4,0.9-1.9c0.5-0.5,1.1-0.9,1.9-0.9
					c0.9,0,1.4,0.2,1.9,0.5c0.5,0.2,0.9,1.1,0.9,1.9c0,0.5,0,0.9-0.2,1.1c-0.2,0.2-0.5,0.5-1.1,0.9c0.5,0.2,1.1,0.5,1.4,0.9
					c0.2,0.2,0.5,0.9,0.5,1.4c0,0.9-0.2,1.4-0.9,1.9s-1.1,0.9-1.9,0.9c-0.9,0-1.4-0.3-2.1-0.9c-0.9-0.5-0.9-1.1-0.9-1.9l0,0h0.9
					c0,0.5,0.2,1.1,0.5,1.4c0.2,0.2,0.9,0.5,1.6,0.5c0.5,0,1.1-0.3,1.6-0.5c0.5-0.3,0.5-0.9,0.5-1.4c0-0.5-0.2-1.1-0.5-1.4
					c-0.2-0.2-0.9-0.5-1.6-0.5h-0.9l0,0h-0.7V106.3z"/>
			</g>
			<g>
				<path fill="#EF4323" d="M-227.7,149.1c0,1.1-0.2,2.1-1.1,3c-0.5,0.9-1.6,1.1-2.7,1.1s-1.9-0.3-2.5-1.1c-0.5-0.9-0.9-1.9-0.9-3
					v-1.4c0-1.1,0.2-2.1,1.1-3c0.5-0.9,1.6-1.1,2.5-1.1c1.1,0,1.9,0.3,2.7,1.1c0.5,0.9,1.1,1.6,1.1,3v1.4H-227.7z M-228.4,147.7
					c0-1.1-0.2-1.9-0.9-2.5c-0.5-0.5-1.1-0.9-2.1-0.9c-0.9,0-1.6,0.3-2.1,0.9c-0.5,0.5-0.9,1.4-0.9,2.5v1.6c0,1.1,0.2,1.9,0.9,2.5
					c0.5,0.5,1.1,0.9,2.1,0.9c0.9,0,1.6-0.3,2.1-0.9c0.5-0.5,0.9-1.4,0.9-2.5V147.7z"/>
				<path fill="#EF4323" d="M-219.4,150.2L-219.4,150.2c0,1.1-0.2,1.6-1.1,2.1c-0.9,0.5-1.4,0.9-2.5,0.9c-1.1,0-1.9-0.3-2.5-1.1
					c-0.5-0.9-0.9-1.6-0.9-3v-1.4c0-1.1,0.2-2.1,0.9-3c0.5-0.9,1.4-1.1,2.5-1.1c1.1,0,1.6,0.3,2.5,0.9c0.5,0.5,0.9,1.4,1.1,2.1l0,0
					h-0.9c0-0.9-0.2-1.4-0.9-1.6s-1.1-0.5-1.9-0.5c-0.9,0-1.4,0.3-1.9,0.9s-0.9,1.4-0.9,2.5v1.6c0,1.1,0.2,1.9,0.9,2.5
					c0.5,0.5,1.1,0.9,1.9,0.9c0.9,0,1.4-0.3,1.9-0.5c0.5-0.3,0.9-1.1,0.9-1.9L-219.4,150.2L-219.4,150.2z"/>
				<path fill="#EF4323" d="M-211.3,144.5h-3.2v8.4h-0.9v-8.4h-3V144h7.1V144.5z"/>
				<path d="M-193,149.8h1.4v0.5h-1.4v2.5h-0.9v-2.5h-4.4v-0.5l4.4-6.5h0.9V149.8z M-197.2,149.8h3.2v-5.1l0,0l-0.2,0.9
					L-197.2,149.8z"/>
				<path d="M-184.7,149.3c0,1.1-0.2,2.1-0.9,2.7c-0.5,0.5-1.4,1.1-2.1,1.1c-0.7,0-1.6-0.3-2.1-1.1c-0.5-0.5-0.9-1.6-0.9-2.7v-2.1
					c0-1.1,0.2-2.1,0.9-2.7c0.5-0.5,1.4-1.1,2.1-1.1c0.7,0,1.6,0.3,2.1,1.1c0.5,0.9,0.9,1.6,0.9,2.7V149.3z M-185.4,147.2
					c0-0.9-0.2-1.6-0.5-2.1c-0.2-0.5-0.9-0.9-1.6-0.9c-0.9,0-1.4,0.2-1.6,0.9c-0.2,0.5-0.5,1.4-0.5,2.1v2.1c0,0.9,0.2,1.6,0.5,2.1
					c0.2,0.5,0.9,0.9,1.6,0.9s1.4-0.3,1.6-0.9c0.2-0.5,0.5-1.4,0.5-2.1V147.2z"/>
				<path d="M-181.4,148h1.1c0.5,0,1.1-0.2,1.6-0.5s0.5-0.9,0.5-1.4s-0.2-1.1-0.5-1.4c-0.2-0.3-0.9-0.5-1.4-0.5s-1.1,0.2-1.4,0.5
					s-0.5,0.9-0.5,1.4h-1.1l0,0c0-0.9,0.2-1.4,0.9-1.9c0.6-0.5,1.1-0.9,1.9-0.9s1.4,0.3,1.9,0.5c0.5,0.2,0.9,1.1,0.9,1.9
					c0,0.5,0,0.9-0.2,1.1c-0.2,0.3-0.5,0.5-1.1,0.9c0.5,0.2,1.1,0.5,1.4,0.9c0.2,0.3,0.5,0.9,0.5,1.4c0,0.9-0.2,1.4-0.9,1.9
					c-0.6,0.5-1.1,0.9-1.9,0.9c-0.9,0-1.4-0.3-2.1-0.9c-0.9-0.5-0.9-1.1-0.9-1.9l0,0h0.9c0,0.5,0.2,1.1,0.5,1.4s0.9,0.5,1.6,0.5
					c0.5,0,1.1-0.3,1.6-0.5s0.5-0.9,0.5-1.4c0-0.5-0.2-1.1-0.5-1.4c-0.2-0.2-0.9-0.5-1.6-0.5h-0.9l0,0L-181.4,148L-181.4,148z"/>
			</g>
			<g>
				<path fill="#EF4323" d="M-227.7,139.2h-0.9v-4.4h-5.1v4.4h-0.9V130h0.9v4.4h5.1V130h0.9V139.2z"/>
				<path fill="#EF4323" d="M-220,135h-4.6v3.7h5.1v0.5h-5.7V130h5.7v0.5h-5.1v3.5h4.4v0.9L-220,135L-220,135z"/>
				<path fill="#EF4323" d="M-215.2,134.1l2.7-3.7h0.9l-3,4.4l3.2,4.6h-0.9l-2.7-4.1l-2.7,4.1h-0.9l3.2-4.6l-3-4.6h1L-215.2,134.1z"
					/>
				<path d="M-193,136.2h1.4v0.5h-1.4v2.5h-0.9v-2.5h-4.4v-0.5l4.4-6.5h0.9V136.2z M-197.2,136.2h3.5v-5.1l0,0l-0.2,0.9
					L-197.2,136.2z"/>
				<path d="M-184.9,135h-4.4v4.4h-0.9v-9.2h6v0.5h-5.1v3.5h4.4V135z"/>
				<path d="M-178.2,136.8h-4.1l-0.9,2.5h-0.9l3.5-9.2h0.9l3.5,9.2h-0.9L-178.2,136.8z M-181.9,136h3.7l-2.1-4.9l0,0L-181.9,136z"/>
			</g>
		</g>
		<rect x="445.3" y="-77.5" fill="#2B2B2B" width="303.9" height="433.1"/>
		<rect x="443.3" y="-77.6" fill="#C1C1C0" width="305.9" height="73.7"/>
		<g>
			<g>
				<path d="M475.4-23.8h-13.6l-3,8.1h-2.5L467.4-45h2.1l11.1,29.4h-2.5L475.4-23.8z M462.9-25.9h12l-6-16l0,0L462.9-25.9z"/>
				<path d="M487.2-37.3l0.2,3.7c0.9-1.4,1.6-2.5,2.7-3c1.1-0.9,2.7-1.1,4.4-1.1c2.5,0,4.1,0.9,5.5,2.1c1.4,1.2,1.9,3.7,1.9,6.7
					v13.4h-2.5v-13.4c0-2.5-0.5-4.4-1.4-5.5c-0.9-1.1-2.1-1.6-4.1-1.6c-1.6,0-3,0.5-4.1,1.4c-1.1,0.9-1.9,2.1-2.5,3.5v15.2h-2.5
					v-21.7h2.4L487.2-37.3L487.2-37.3z"/>
				<path d="M521.2-21c0-1.1-0.5-1.9-1.4-2.7c-0.9-0.9-2.5-1.4-4.6-1.9c-2.7-0.5-4.6-1.4-5.7-2.1c-1.4-0.9-1.9-2.1-1.9-3.7
					c0-1.6,0.9-3,2.1-4.4c1.4-1.1,3.2-1.6,5.7-1.6s4.4,0.5,6,1.9c1.4,1.1,2.1,2.7,2.1,4.6l0,0h-2.1c0-1.1-0.5-2.1-1.6-3.2
					c-1.1-0.9-2.5-1.4-4.1-1.4s-3,0.2-4.1,1.1c-0.9,0.9-1.4,1.6-1.4,2.7s0.3,1.9,1.1,2.5c0.9,0.5,2.1,1.4,4.6,1.6
					c2.7,0.5,4.6,1.4,5.7,2.5s1.9,2.5,1.9,4.1c0,1.9-0.9,3.2-2.1,4.4c-1.4,1.1-3.5,1.6-6,1.6c-2.7,0-4.6-0.5-6.2-1.9
					c-1.6-1.4-2.1-2.7-2.1-4.6l0,0h2.1c0,1.6,0.9,2.7,1.9,3.5c1.1,0.9,2.7,1.1,4.1,1.1c1.6,0,3.2-0.2,4.1-1.1
					C520.7-19,521.2-19.9,521.2-21z"/>
			</g>
		</g>
		<g>
			<path fill="#FFFFFF" d="M459.2-63.8h1.1c0.9,0,1.6-0.2,1.9-0.5c0.5-0.5,0.5-1.1,0.5-1.6c0-0.9-0.3-1.4-0.5-1.6
				c-0.5-0.5-1.1-0.5-1.9-0.5c-0.9,0-1.4,0.2-1.9,0.5c-0.5,0.5-0.9,1.1-0.9,1.6h-0.9l0,0c0-0.9,0.3-1.6,1.1-2.1s1.6-0.9,2.5-0.9
				c1.1,0,1.9,0.2,2.5,0.9c0.5,0.5,0.9,1.4,0.9,2.5c0,0.5-0.3,1.1-0.5,1.6c-0.3,0.5-0.9,0.9-1.4,1.1c0.9,0.2,1.4,0.5,1.6,1.1
				c0.3,0.6,0.5,1.1,0.5,1.9c0,1.1-0.3,1.9-1.1,2.5c-0.5,0.5-1.6,0.9-2.7,0.9s-1.9-0.2-2.7-0.9c-0.9-0.5-1.1-1.4-1.1-2.5l0,0h0.9
				c0,0.9,0.2,1.4,0.9,1.9c0.5,0.5,1.1,0.9,1.9,0.9c0.9,0,1.4-0.2,1.9-0.5c0.5-0.2,0.9-1.1,0.9-1.9c0-0.9-0.3-1.4-0.9-1.9
				c-0.5-0.2-1.1-0.5-2.1-0.5h-0.3L459.2-63.8L459.2-63.8z"/>
			<path fill="#FFFFFF" d="M467.8-65.4l-2.7-0.9l0.3-0.9L468-66v-2.9h0.9v3l2.7-1.1l0.3,0.9l-2.7,0.9l1.9,2.5l-0.9,0.5l-1.6-2.5
				l-1.6,2.5l-0.9-0.5L467.8-65.4z"/>
			<path fill="#FFFFFF" d="M473.3-61.8c0-1.9,0.3-3.7,1.1-5.1c0.9-1.6,1.6-2.7,2.5-3.2l0,0l0.3,0.5c-0.9,0.5-1.4,1.6-2.1,3
				c-0.5,1.4-0.9,3-0.9,4.9v0.2c0,1.9,0.3,3.2,0.9,4.9c0.5,1.4,1.4,2.5,2.1,3l-0.3,0.5l0,0c-0.9-0.5-1.9-1.6-2.5-3
				C473.5-58,473.3-59.9,473.3-61.8L473.3-61.8z"/>
			<path fill="#FFFFFF" d="M480.7-63.8h1.1c0.9,0,1.6-0.2,1.9-0.5c0.5-0.5,0.5-1.1,0.5-1.6c0-0.9-0.3-1.4-0.5-1.6
				c-0.5-0.5-1.1-0.5-1.9-0.5c-0.9,0-1.4,0.2-1.9,0.5c-0.5,0.5-0.9,1.1-0.9,1.6h-0.9l0,0c0-0.9,0.2-1.6,1.1-2.1
				c0.9-0.5,1.6-0.9,2.5-0.9c1.1,0,1.9,0.2,2.5,0.9c0.5,0.5,0.9,1.4,0.9,2.5c0,0.5-0.3,1.1-0.5,1.6c-0.2,0.5-0.9,0.9-1.4,1.1
				c0.9,0.2,1.4,0.5,1.6,1.1c0.3,0.6,0.5,1.1,0.5,1.9c0,1.1-0.3,1.9-1.1,2.5c-0.5,0.5-1.6,0.9-2.7,0.9c-1.1,0-1.9-0.2-2.7-0.9
				c-0.9-0.5-1.1-1.4-1.1-2.5l0,0h0.9c0,0.9,0.3,1.4,0.9,1.9c0.5,0.5,1.1,0.9,1.9,0.9c0.9,0,1.4-0.2,1.9-0.5
				c0.5-0.2,0.9-1.1,0.9-1.9c0-0.9-0.3-1.4-0.9-1.9c-0.5-0.2-1.1-0.5-2.1-0.5h-1.1v-1.6h0.7L480.7-63.8L480.7-63.8z"/>
			<path fill="#FFFFFF" d="M493.4-61h1.9v0.9h-1.9v3h-1.1v-3h-5.5v-0.5l5.5-8.1h1.1V-61z M488.3-61h4.4v-6.7l0,0l-0.5,0.9L488.3-61z
				"/>
			<path fill="#FFFFFF" d="M498.8-63.8h1.1c0.9,0,1.6-0.2,1.9-0.5c0.3-0.2,0.5-1.1,0.5-1.6c0-0.9-0.3-1.4-0.5-1.6
				c-0.5-0.5-1.1-0.5-1.9-0.5c-0.9,0-1.4,0.2-1.9,0.5c-0.5,0.5-0.9,1.1-0.9,1.6h-0.8l0,0c0-0.9,0.3-1.6,1.1-2.1
				c0.5-0.5,1.6-0.9,2.5-0.9c1.1,0,1.9,0.2,2.5,0.9c0.5,0.5,0.9,1.4,0.9,2.5c0,0.5-0.3,1.1-0.5,1.6c-0.3,0.5-0.9,0.9-1.4,1.1
				c0.9,0.2,1.4,0.5,1.6,1.1c0.3,0.5,0.5,1.1,0.5,1.9c0,1.1-0.2,1.9-1.1,2.5c-0.9,0.5-1.6,0.9-2.7,0.9s-1.9-0.2-2.7-0.9
				c-0.9-0.5-1.1-1.4-1.1-2.5l0,0h0.9c0,0.9,0.2,1.4,0.9,1.9c0.5,0.5,1.1,0.9,1.9,0.9s1.4-0.2,1.9-0.5s0.9-1.1,0.9-1.9
				c0-0.9-0.2-1.4-0.9-1.9c-0.5-0.2-1.1-0.5-2.1-0.5h-1.1v-1.6h0.6L498.8-63.8L498.8-63.8z"/>
			<path fill="#FFFFFF" d="M508.9-61.8c0,1.9-0.3,3.7-1.1,5.1c-0.9,1.6-1.6,2.5-2.5,3l0,0l-0.3-0.5c0.9-0.5,1.4-1.6,2.1-3
				c0.5-1.4,0.9-3,0.9-4.9v-0.2c0-1.9-0.3-3.2-0.9-4.9c-0.5-1.6-1.4-2.5-1.9-3l0.3-0.5l0,0c0.9,0.5,1.6,1.6,2.5,3.2
				C508.7-65.6,508.9-64,508.9-61.8L508.9-61.8z"/>
			<path fill="#FFFFFF" d="M515.2-63.1h3.5v0.9h-3.5v3.7H514v-3.7h-3.2v-0.9h3.5v-3.7h1.1v3.7H515.2L515.2-63.1z"/>
			<path fill="#FFFFFF" d="M526.5-61h1.9v0.9h-1.9v3h-1.1v-3h-5.5v-0.5l5.5-8.1h1.1V-61z M521.2-61h4.4v-6.7l0,0l-0.5,0.9L521.2-61z
				"/>
			<path fill="#FFFFFF" d="M535.9-61h1.9v0.9h-1.9v3h-1.1v-3h-5.5v-0.5l5.5-8.1h1.1V-61z M530.4-61h4.4v-6.7l0,0l-0.5,0.9L530.4-61z
				"/>
		</g>
		<g>
			<g>
				<path fill="#FFFFFF" d="M643-38.1l1.9-18.7h16.9v2.7h-14.4L646-41.9c0.9-0.9,1.9-1.4,3-1.9s2.5-0.5,4.4-0.9c3,0,5.5,0.9,7.1,3
					c1.9,1.9,2.7,4.6,2.7,8.1c0,3.5-0.9,6.2-2.7,8.4c-1.6,2.1-4.4,3-7.9,3c-2.7,0-5.1-0.9-7.1-2.5c-1.9-1.6-2.7-3.7-2.7-7.1V-32h2.5
					c0,2.5,0.5,4.1,1.9,5.5s3,1.9,5.1,1.9c2.5,0,4.4-0.9,5.7-2.5c1.4-1.6,1.9-3.7,1.9-6.7c0-2.5-0.5-4.6-1.9-6.2s-3-2.5-5.5-2.5
					c-2.1,0-3.7,0.2-5.1,1.1c-1.4,0.9-1.9,1.6-2.5,3.2H643V-38.1z"/>
				<path fill="#FFFFFF" d="M686-33.5h5.5v2.1H686v8.7h-2.7v-8.7h-16V-33L683-57.3h3V-33.5z M670.3-33.5H683v-19.6h-0.3l-1.1,2.5
					L670.3-33.5z"/>
				<path fill="#FFFFFF" d="M698.5-22.9l-2.5,6.5h-1.9l1.6-6.5V-27h2.7V-22.9z"/>
				<path fill="#FFFFFF" d="M722.3-33.5h5.5v2.1h-5.5v8.7h-2.7v-8.7h-16V-33l15.7-24.2h3V-33.5z M706.4-33.5h12.7v-19.6h-0.3
					l-1.1,2.5L706.4-33.5z"/>
			</g>
		</g>
		<rect x="443.3" y="-3.9" fill="#2B2B2B" width="295.2" height="74"/>
		<g>
			<path fill="#ED1A46" d="M459.7,58.5V28.9h8.4c3.5,0,6.5,1.1,9,3.5c2.5,2.5,3.5,5.5,3.5,9.2v3.7c0,3.7-1.1,6.7-3.5,9.2
				c-2.5,2.5-5.5,3.5-9,3.5h-8.4V58.5z M462.2,31v25.2h6.2c3,0,5.5-1.1,7.1-3c1.9-1.9,2.7-4.6,2.7-7.6v-3.7c0-3-0.9-5.7-2.7-7.6
				c-1.9-1.9-4.4-3-7.1-3h-6.2V31z"/>
			<path fill="#ED1A46" d="M503.4,44.6H489v13.9h-2.5V28.9h18.7V31h-16.4v11.4h14.4L503.4,44.6L503.4,44.6z"/>
		</g>
		<g>
			<path fill="#FFFFFF" d="M459.2,10.4h1.1c0.9,0,1.6-0.2,1.9-0.5c0.5-0.5,0.5-1.1,0.5-1.6c0-0.9-0.3-1.4-0.5-1.6
				c-0.5-0.5-1.1-0.5-1.9-0.5c-0.9,0-1.4,0.2-1.9,0.5c-0.5,0.5-0.9,1.1-0.9,1.6h-0.9l0,0c0-0.9,0.3-1.6,1.1-2.1s1.6-0.9,2.5-0.9
				c1.1,0,1.9,0.2,2.5,0.9c0.5,0.5,0.9,1.4,0.9,2.5c0,0.5-0.3,1.1-0.5,1.6s-0.9,0.9-1.4,1.1c0.9,0.2,1.4,0.5,1.6,1.1
				s0.5,1.1,0.5,1.9c0,1.1-0.3,1.9-1.1,2.5c-0.5,0.5-1.6,0.9-2.7,0.9s-1.9-0.2-2.7-0.9c-0.9-0.5-1.1-1.4-1.1-2.5l0,0h0.9
				c0,0.9,0.2,1.4,0.9,1.9c0.5,0.5,1.1,0.9,1.9,0.9c0.9,0,1.4-0.2,1.9-0.5c0.5-0.2,0.9-1.1,0.9-1.9c0-0.9-0.3-1.4-0.9-1.9
				c-0.5-0.2-1.1-0.5-2.1-0.5h-0.3L459.2,10.4L459.2,10.4z"/>
			<path fill="#FFFFFF" d="M467.8,8.7L465,7.9l0.3-0.9l2.7,1.1v-3h0.9v3l2.7-1.1l0.3,0.9l-2.7,0.9l1.9,2.5l-0.9,0.5l-1.6-2.5
				l-1.6,2.5l-0.9-0.5L467.8,8.7z"/>
			<path fill="#FFFFFF" d="M473.3,12c0-1.9,0.3-3.7,1.1-5.1c0.9-1.6,1.6-2.7,2.5-3.2l0,0l0.3,0.5c-0.9,0.5-1.4,1.6-2.1,3
				c-0.5,1.4-0.9,3-0.9,4.9v0.2c0,1.9,0.3,3.2,0.9,4.9c0.5,1.4,1.4,2.5,2.1,3l-0.3,0.5l0,0c-0.9-0.5-1.9-1.6-2.5-3
				C473.5,16,473.3,14.1,473.3,12L473.3,12z"/>
			<path fill="#FFFFFF" d="M480.7,10.4h1.1c0.9,0,1.6-0.2,1.9-0.5c0.5-0.5,0.5-1.1,0.5-1.6c0-0.9-0.3-1.4-0.5-1.6
				c-0.5-0.5-1.1-0.5-1.9-0.5c-0.9,0-1.4,0.2-1.9,0.5c-0.5,0.5-0.9,1.1-0.9,1.6h-0.9l0,0c0-0.9,0.2-1.6,1.1-2.1
				c0.9-0.5,1.6-0.9,2.5-0.9c1.1,0,1.9,0.2,2.5,0.9c0.5,0.5,0.9,1.4,0.9,2.5c0,0.5-0.3,1.1-0.5,1.6c-0.2,0.5-0.9,0.9-1.4,1.1
				c0.9,0.2,1.4,0.5,1.6,1.1s0.5,1.1,0.5,1.9c0,1.1-0.3,1.9-1.1,2.5c-0.5,0.5-1.6,0.9-2.7,0.9c-1.1,0-1.9-0.2-2.7-0.9
				c-0.9-0.5-1.1-1.4-1.1-2.5l0,0h0.9c0,0.9,0.3,1.4,0.9,1.9c0.5,0.5,1.1,0.9,1.9,0.9c0.9,0,1.4-0.2,1.9-0.5
				c0.5-0.2,0.9-1.1,0.9-1.9c0-0.9-0.3-1.4-0.9-1.9c-0.5-0.2-1.1-0.5-2.1-0.5h-1.1v-1.6h0.7L480.7,10.4L480.7,10.4z"/>
			<path fill="#FFFFFF" d="M493.4,13h1.9v0.9h-1.9v3h-1.1v-3h-5.5v-0.5l5.5-8.1h1.1V13z M488.3,13h4.4V6.2l0,0l-0.5,0.9L488.3,13z"
				/>
			<path fill="#FFFFFF" d="M498.8,10.4h1.1c0.9,0,1.6-0.2,1.9-0.5c0.3-0.2,0.5-1.1,0.5-1.6c0-0.9-0.3-1.4-0.5-1.6
				c-0.5-0.5-1.1-0.5-1.9-0.5c-0.9,0-1.4,0.2-1.9,0.5c-0.5,0.5-0.9,1.1-0.9,1.6h-0.8l0,0c0-0.9,0.3-1.6,1.1-2.1
				c0.5-0.5,1.6-0.9,2.5-0.9c1.1,0,1.9,0.2,2.5,0.9c0.5,0.5,0.9,1.4,0.9,2.5c0,0.5-0.3,1.1-0.5,1.6s-0.9,0.9-1.4,1.1
				c0.9,0.2,1.4,0.5,1.6,1.1c0.3,0.5,0.5,1.1,0.5,1.9c0,1.1-0.2,1.9-1.1,2.5c-0.9,0.6-1.6,0.9-2.7,0.9s-1.9-0.2-2.7-0.9
				c-0.9-0.5-1.1-1.4-1.1-2.5l0,0h0.9c0,0.9,0.2,1.4,0.9,1.9c0.5,0.5,1.1,0.9,1.9,0.9s1.4-0.2,1.9-0.5c0.5-0.2,0.9-1.1,0.9-1.9
				c0-0.9-0.2-1.4-0.9-1.9c-0.5-0.2-1.1-0.5-2.1-0.5h-1.1v-1.6h0.6L498.8,10.4L498.8,10.4z"/>
			<path fill="#FFFFFF" d="M508.9,12.2c0,1.9-0.3,3.7-1.1,5.1c-0.9,1.6-1.6,2.5-2.5,3l0,0l-0.1-0.5c0.9-0.5,1.4-1.6,2.1-3
				c0.5-1.4,0.9-3,0.9-4.9v-0.2c0-1.9-0.3-3.2-0.9-4.9c-0.5-1.6-1.4-2.5-1.9-3l0.3-0.5l0,0c0.9,0.5,1.6,1.6,2.5,3.2
				C508.7,8.1,508.9,10,508.9,12.2L508.9,12.2z"/>
			<path fill="#FFFFFF" d="M515.2,10.9h3.5v0.9h-3.5v3.7H514v-3.7h-3.2v-0.9h3.5V7.1h1.1v3.7H515.2z"/>
			<path fill="#FFFFFF" d="M526.5,13h1.9v0.9h-1.9v3h-1.1v-3h-5.5v-0.5l5.5-8.1h1.1V13z M521.2,13h4.4V6.2l0,0L525,7.1L521.2,13z"/>
			<path fill="#FFFFFF" d="M535.9,13h1.9v0.9h-1.9v3h-1.1v-3h-5.5v-0.5l5.5-8.1h1.1V13z M530.4,13h4.4V6.2l0,0l-0.5,0.9L530.4,13z"
				/>
		</g>
		<g>
			<g>
				<path fill="#FFFFFF" d="M643,35.9l1.9-18.7h16.9v2.7h-14.4L646,32.1c0.9-0.9,1.9-1.4,3-1.9c1.1-0.5,2.5-0.5,4.4-0.9
					c3,0,5.5,0.9,7.1,3c1.9,1.9,2.7,4.6,2.7,8.1c0,3.5-0.9,6.2-2.7,8.4c-1.6,2.1-4.4,3-7.9,3c-2.7,0-5.1-0.9-7.1-2.5
					c-1.9-1.6-2.7-3.7-2.7-7.1V42h2.5c0,2.5,0.5,4.1,1.9,5.5c1.4,1.4,3,1.9,5.1,1.9c2.5,0,4.4-0.9,5.7-2.5c1.4-1.6,1.9-3.7,1.9-6.7
					c0-2.5-0.5-4.6-1.9-6.2s-3-2.5-5.5-2.5c-2.1,0-3.7,0.2-5.1,1.1s-1.9,1.6-2.5,3.2L643,35.9z"/>
				<path fill="#FFFFFF" d="M686,40.2h5.5v2.5H686v8.7h-2.7v-8.7h-16v-1.6L683,16.9h3V40.2z M670.3,40.2H683V20.6h-0.3l-1.1,2.5
					L670.3,40.2z"/>
				<path fill="#FFFFFF" d="M698.5,50.9l-2.5,6.5h-1.9l1.6-6.5v-4.1h2.7V50.9z"/>
				<path fill="#FFFFFF" d="M722.3,40.2h5.5v2.5h-5.5v8.7h-2.7v-8.7h-16v-1.6l15.7-24.2h3V40.2z M706.4,40.2h12.7V20.6h-0.3
					l-1.1,2.5L706.4,40.2z"/>
			</g>
		</g>
		<rect x="443" y="68.2" fill="#2B2B2B" width="295.2" height="74"/>
		<g>
			<path fill="#ED1A46" d="M468.4,113.7l8.4-12.5h3l-9.7,14.4l10.1,15h-3l-8.7-13l-8.7,13h-3l10.1-15l-9.7-14.4h3L468.4,113.7z"/>
			<path fill="#ED1A46" d="M493.7,117.5l9.2-16.4h2.7L495,119.8v10.9h-2.5v-10.9l-10.6-18.5h2.7L493.7,117.5z"/>
		</g>
		<g>
			<path fill="#FFFFFF" d="M459.2,82.3h1.1c0.9,0,1.6-0.3,1.9-0.5c0.5-0.5,0.5-1.1,0.5-1.6c0-0.9-0.3-1.4-0.5-1.6
				c-0.5-0.5-1.1-0.5-1.9-0.5c-0.9,0-1.4,0.3-1.9,0.5c-0.5,0.5-0.9,1.1-0.9,1.6h-0.9l0,0c0-0.9,0.3-1.6,1.1-2.1s1.6-0.9,2.5-0.9
				c1.1,0,1.9,0.3,2.5,0.9c0.5,0.5,0.9,1.4,0.9,2.5c0,0.5-0.3,1.1-0.5,1.6c-0.3,0.5-0.9,0.9-1.4,1.1c0.9,0.2,1.4,0.5,1.6,1.1
				c0.3,0.5,0.5,1.1,0.5,1.9c0,1.1-0.3,1.9-1.1,2.5c-0.5,0.5-1.6,0.9-2.7,0.9s-1.9-0.2-2.7-0.9c-0.9-0.5-1.1-1.4-1.1-2.5l0,0h0.9
				c0,0.9,0.2,1.4,0.9,1.9c0.5,0.5,1.1,0.9,1.9,0.9c0.9,0,1.4-0.3,1.9-0.5c0.5-0.3,0.9-1.1,0.9-1.9c0-0.9-0.3-1.4-0.9-1.9
				c-0.5-0.2-1.1-0.5-2.1-0.5h-0.3L459.2,82.3L459.2,82.3z"/>
			<path fill="#FFFFFF" d="M467.8,80.7l-2.7-0.9l0.3-0.9l2.7,1.1v-3h0.9v3l2.7-1.1l0.3,0.9l-2.7,0.9l1.9,2.5l-0.9,0.5l-1.6-2.5
				l-1.6,2.5l-0.9-0.5L467.8,80.7z"/>
			<path fill="#FFFFFF" d="M473.3,84.1c0-1.9,0.3-3.7,1.1-5.1c0.9-1.6,1.6-2.7,2.5-3.2l0,0l0.3,0.5c-0.9,0.5-1.4,1.6-2.1,3
				c-0.5,1.4-0.9,3-0.9,4.9v0.2c0,1.9,0.3,3.2,0.9,4.9c0.5,1.4,1.4,2.5,2.1,3l-0.3,0.5l0,0c-0.9-0.5-1.9-1.6-2.5-3
				C473.5,88.1,473.3,86.2,473.3,84.1L473.3,84.1z"/>
			<path fill="#FFFFFF" d="M480.3,82.3h1.1c0.9,0,1.6-0.3,1.9-0.5c0.5-0.5,0.5-1.1,0.5-1.6c0-0.9-0.3-1.4-0.5-1.6
				c-0.5-0.5-1.1-0.5-1.9-0.5s-1.4,0.3-1.9,0.5c-0.5,0.5-0.9,1.1-0.9,1.6h-0.5l0,0c0-0.9,0.3-1.6,1.1-2.1s1.6-0.9,2.5-0.9
				c1.1,0,1.9,0.3,2.5,0.9c0.5,0.5,0.9,1.4,0.9,2.5c0,0.5-0.3,1.1-0.5,1.6c-0.3,0.5-0.9,0.9-1.4,1.1c0.9,0.2,1.4,0.5,1.6,1.1
				c0.3,0.5,0.5,1.1,0.5,1.9c0,1.1-0.3,1.9-1.1,2.5c-0.5,0.5-1.6,0.9-2.7,0.9s-1.9-0.2-2.7-0.9c-0.9-0.5-1.1-1.4-1.1-2.5l0,0h0.9
				c0,0.9,0.3,1.4,0.9,1.9c0.5,0.5,1.1,0.9,1.9,0.9c0.9,0,1.4-0.3,1.9-0.5c0.5-0.3,0.9-1.1,0.9-1.9c0-0.9-0.3-1.4-0.9-1.9
				c-0.5-0.2-1.1-0.5-2.1-0.5h-1.1v-2H480.3z"/>
			<path fill="#FFFFFF" d="M493.4,85.1h1.9V86h-1.9v3h-1.1v-3h-5.5v-0.5l5.5-8.1h1.1V85.1z M488.3,85.1h4.4v-6.7l0,0l-0.5,0.9
				L488.3,85.1z"/>
			<path fill="#FFFFFF" d="M498.8,82.3h1.1c0.9,0,1.6-0.3,1.9-0.5c0.3-0.3,0.5-1.1,0.5-1.6c0-0.9-0.3-1.4-0.5-1.6
				c-0.5-0.5-1.1-0.5-1.9-0.5c-0.9,0-1.4,0.3-1.9,0.5c-0.5,0.5-0.9,1.1-0.9,1.6h-0.8l0,0c0-0.9,0.3-1.6,1.1-2.1
				c0.5-0.5,1.6-0.9,2.5-0.9c1.1,0,1.9,0.3,2.5,0.9c0.5,0.5,0.9,1.4,0.9,2.5c0,0.5-0.3,1.1-0.5,1.6c-0.3,0.5-0.9,0.9-1.4,1.1
				c0.9,0.2,1.4,0.5,1.6,1.1c0.3,0.5,0.5,1.1,0.5,1.9c0,1.1-0.2,1.9-1.1,2.5c-0.9,0.5-1.6,0.9-2.7,0.9s-1.9-0.2-2.7-0.9
				c-0.9-0.5-1.1-1.4-1.1-2.5l0,0h0.9c0,0.9,0.2,1.4,0.9,1.9c0.6,0.5,1.1,0.9,1.9,0.9s1.4-0.3,1.9-0.5c0.5-0.3,0.9-1.1,0.9-1.9
				c0-0.9-0.2-1.4-0.9-1.9c-0.5-0.2-1.1-0.5-2.1-0.5h-1.1v-2H498.8z"/>
			<path fill="#FFFFFF" d="M508.9,84.3c0,1.9-0.3,3.7-1.1,5.1c-0.9,1.6-1.6,2.5-2.5,3l0,0L505,92c0.9-0.5,1.4-1.6,2.1-3
				c0.5-1.4,0.9-3,0.9-4.9v-0.3c0-1.9-0.3-3.2-0.9-4.9c-0.5-1.6-1.4-2.5-1.9-3l0.3-0.5l0,0c0.9,0.5,1.6,1.6,2.5,3.2
				C508.4,80.2,508.9,82.1,508.9,84.3L508.9,84.3z"/>
			<path fill="#FFFFFF" d="M515.2,83h3.5v0.9h-3.5v3.7H514v-3.7h-3.2V83h3.5v-3.7h1.1V83H515.2z"/>
			<path fill="#FFFFFF" d="M526.5,85.1h1.9V86h-1.9v3h-1.1v-3h-5.5v-0.5l5.5-8.1h1.1V85.1z M521.2,85.1h4.4v-6.7l0,0l-0.5,0.9
				L521.2,85.1z"/>
			<path fill="#FFFFFF" d="M535.9,85.1h1.9V86h-1.9v3h-1.1v-3h-5.5v-0.5l5.5-8.1h1.1V85.1z M530.4,85.1h4.4v-6.7l0,0l-0.5,0.9
				L530.4,85.1z"/>
		</g>
		<g>
			<g>
				<path fill="#FFFFFF" d="M588.4,108l1.9-18.7h16.9V92h-14.5l-1.4,12.2c0.9-0.9,1.9-1.4,3-1.9s2.5-0.5,4.4-0.9c3,0,5.5,0.9,7.1,3
					c1.9,1.9,2.7,4.6,2.7,8.1c0,3.5-0.9,6.2-2.7,8.4c-1.6,2.1-4.4,3-7.9,3c-2.7,0-5.1-0.9-7.1-2.5c-1.9-1.6-2.7-3.7-2.7-7.1v-0.3
					h2.5c0,2.5,0.5,4.1,1.9,5.5c1.4,1.4,3,1.9,5.1,1.9c2.5,0,4.4-0.9,5.7-2.5c1.4-1.6,1.9-3.7,1.9-6.7c0-2.5-0.5-4.6-1.9-6.2
					c-1.4-1.6-3-2.5-5.5-2.5c-2.1,0-3.7,0.2-5.1,1.1s-1.9,1.6-2.5,3.2L588.4,108z"/>
				<path fill="#FFFFFF" d="M631.6,112.3h5.5v2.5h-5.5v8.7h-2.7v-8.7h-16v-1.6L628.6,89h3V112.3z M615.9,112.3h12.7V92.7h-0.3
					l-1.1,2.5L615.9,112.3z"/>
				<path fill="#FFFFFF" d="M642.3,108l1.9-18.7H661V92h-14.4l-1.4,12.2c0.9-0.9,1.9-1.4,3-1.9s2.5-0.5,4.4-0.9c3,0,5.5,0.9,7.1,3
					c1.9,1.9,2.7,4.6,2.7,8.1c0,3.5-0.9,6.2-2.7,8.4c-1.6,2.1-4.4,3-7.9,3c-2.7,0-5.1-0.9-7.1-2.5c-1.9-1.6-2.7-3.7-2.7-7.1v-0.3
					h2.5c0,2.5,0.5,4.1,1.9,5.5c1.4,1.4,3,1.9,5.1,1.9c2.5,0,4.4-0.9,5.7-2.5c1.4-1.6,1.9-3.7,1.9-6.7c0-2.5-0.5-4.6-1.9-6.2
					c-1.4-1.6-3-2.5-5.5-2.5c-2.1,0-3.7,0.2-5.1,1.1s-1.9,1.6-2.5,3.2L642.3,108z"/>
				<path fill="#FFFFFF" d="M685.3,112.3h5.5v2.5h-5.5v8.7h-2.7v-8.7h-16.1v-1.6L682.1,89h3L685.3,112.3L685.3,112.3z M669.8,112.3
					h12.7V92.7h-0.3l-1.1,2.5L669.8,112.3z"/>
				<path fill="#FFFFFF" d="M698,123l-2.5,6.5h-1.9l1.6-6.5v-4.1h2.7V123z"/>
				<path fill="#FFFFFF" d="M721.4,112.3h5.5v2.5h-5.5v8.7h-2.7v-8.7h-16v-1.6L718.4,89h3V112.3z M705.9,112.3h12.7V92.7h-0.3
					l-1.1,2.5L705.9,112.3z"/>
			</g>
		</g>
		<rect x="738.3" y="-3.9" fill="#3D3D3D" width="10.9" height="74"/>
		<circle fill="#2D2D2D" cx="743.8" cy="26.6" r="1.4"/>
		<circle fill="#2D2D2D" cx="743.8" cy="33.1" r="1.4"/>
		<circle fill="#2D2D2D" cx="743.8" cy="39.7" r="1.4"/>
		<rect x="443" y="144.2" fill="#2B2B2B" width="295.2" height="74"/>
		<g>
			<path fill="#ED1A46" d="M476.3,192.3h-14.4v13.9h-2.5v-29.4h18.7v2.1h-16.4v11.4h14.4L476.3,192.3L476.3,192.3z"/>
			<path fill="#ED1A46" d="M504.8,194c0,3.7-1.1,6.7-3,9.2c-2.1,2.5-4.9,3.5-8.4,3.5c-3.5,0-6.2-1.1-8.1-3.5c-2.1-2.5-3-5.5-3-9.2
				v-4.9c0-3.7,1.1-6.7,3-9.2c2.1-2.5,4.9-3.5,8.1-3.5c3.5,0,6.2,1.1,8.4,3.5c2.1,2.5,3.2,5.5,3.2,9.2v4.9H504.8z M502.4,189.1
				c0-3.2-0.9-5.7-2.5-7.6c-1.6-1.9-3.7-3-6.7-3c-2.7,0-4.9,1.1-6.5,3c-1.6,1.9-2.5,4.6-2.5,7.6v4.9c0,3.2,0.9,5.7,2.5,7.6
				c1.6,1.9,3.7,3,6.5,3c3,0,5.1-1.1,6.7-3c1.6-1.9,2.5-4.6,2.5-7.6V189.1z"/>
			<path fill="#ED1A46" d="M532.9,194c0,3.7-1.1,6.7-3,9.2c-2.1,2.5-4.9,3.5-8.4,3.5c-3.5,0-6.2-1.1-8.1-3.5c-2.1-2.5-3-5.5-3-9.2
				v-4.9c0-3.7,1.1-6.7,3-9.2c1.9-2.5,4.9-3.5,8.1-3.5c3.5,0,6.2,1.1,8.4,3.5c2.1,2.5,3.2,5.5,3.2,9.2v4.9H532.9z M530.4,189.1
				c0-3.2-0.9-5.7-2.5-7.6c-1.6-1.9-3.7-3-6.7-3c-2.7,0-4.9,1.1-6.5,3c-1.6,1.9-2.5,4.6-2.5,7.6v4.9c0,3.2,0.9,5.7,2.5,7.6
				c1.6,1.9,3.7,3,6.5,3c3,0,5.1-1.1,6.7-3c1.6-1.9,2.5-4.6,2.5-7.6V189.1z"/>
		</g>
		<g>
			<path fill="#FFFFFF" d="M458.8,158.1h1.1c0.9,0,1.6-0.3,1.9-0.5c0.5-0.5,0.5-1.1,0.5-1.6c0-0.9-0.3-1.4-0.5-1.6
				c-0.5-0.5-1.1-0.5-1.9-0.5s-1.4,0.3-1.9,0.5c-0.5,0.5-0.9,1.1-0.9,1.6h-0.8l0,0c0-0.9,0.3-1.6,1.1-2.1c0.9-0.5,1.6-0.9,2.5-0.9
				c1.1,0,1.9,0.3,2.5,0.9c0.6,0.6,0.9,1.4,0.9,2.5c0,0.5-0.3,1.1-0.5,1.6c-0.3,0.5-0.9,0.9-1.4,1.1c0.9,0.2,1.4,0.5,1.6,1.1
				c0.3,0.5,0.5,1.1,0.5,1.9c0,1.1-0.3,1.9-1.1,2.5c-0.5,0.5-1.6,0.9-2.7,0.9s-1.9-0.3-2.7-0.9c-0.9-0.5-1.1-1.4-1.1-2.5l0,0h0.9
				c0,0.9,0.3,1.4,0.9,1.9c0.5,0.5,1.1,0.9,1.9,0.9c0.9,0,1.4-0.3,1.9-0.5c0.5-0.3,0.9-1.1,0.9-1.9c0-0.9-0.3-1.4-0.9-1.9
				c-0.5-0.3-1.1-0.5-2.1-0.5h-1.1v-1.6h0.6L458.8,158.1L458.8,158.1z"/>
			<path fill="#FFFFFF" d="M467.8,156.5l-2.7-0.9l0.3-0.9l2.7,1.1v-3h0.9v3l2.7-1.1l0.3,0.9l-2.7,0.9l1.9,2.5l-0.9,0.5l-1.6-2.5
				l-1.6,2.5L466,159L467.8,156.5z"/>
			<path fill="#FFFFFF" d="M473,160c0-1.9,0.3-3.7,1.1-5.1c0.9-1.6,1.6-2.7,2.5-3.2l0,0l0.3,0.5c-0.9,0.5-1.4,1.6-2.1,3
				c-0.5,1.4-0.9,3-0.9,4.9v0.3c0,1.9,0.3,3.2,0.9,4.9c0.5,1.4,1.4,2.5,2.1,3l-0.3,0.5l0,0c-0.9-0.5-1.9-1.6-2.5-3
				C473.3,163.7,473,161.8,473,160L473,160z"/>
			<path fill="#FFFFFF" d="M480.3,158.1h1.1c0.9,0,1.6-0.3,1.9-0.5c0.5-0.5,0.5-1.1,0.5-1.6c0-0.9-0.3-1.4-0.5-1.6
				c-0.5-0.5-1.1-0.5-1.9-0.5s-1.4,0.3-1.9,0.5c-0.5,0.5-0.9,1.1-0.9,1.6h-0.5l0,0c0-0.9,0.3-1.6,1.1-2.1c0.9-0.5,1.6-0.9,2.5-0.9
				c1.1,0,1.9,0.3,2.5,0.9c0.5,0.5,0.9,1.4,0.9,2.5c0,0.5-0.3,1.1-0.5,1.6c-0.3,0.5-0.9,0.9-1.4,1.1c0.9,0.2,1.4,0.5,1.6,1.1
				c0.3,0.5,0.5,1.1,0.5,1.9c0,1.1-0.3,1.9-1.1,2.5c-0.5,0.5-1.6,0.9-2.7,0.9s-1.9-0.3-2.7-0.9c-0.9-0.5-1.1-1.4-1.1-2.5l0,0h0.9
				c0,0.9,0.3,1.4,0.9,1.9c0.5,0.5,1.1,0.9,1.9,0.9c0.9,0,1.4-0.3,1.9-0.5c0.5-0.3,0.9-1.1,0.9-1.9c0-0.9-0.3-1.4-0.9-1.9
				c-0.5-0.3-1.1-0.5-2.1-0.5h-1.1v-1.6h0.4L480.3,158.1L480.3,158.1z"/>
			<path fill="#FFFFFF" d="M493.4,160.7h1.9v0.9h-1.9v3h-1.1v-3h-5.5v-0.5l5.5-8.1h1.1V160.7z M487.9,160.7h4.4V154l0,0l-0.5,0.9
				L487.9,160.7z"/>
			<path fill="#FFFFFF" d="M498.8,158.1h1.1c0.9,0,1.6-0.3,1.9-0.5c0.3-0.2,0.5-1.1,0.5-1.6c0-0.9-0.3-1.4-0.5-1.6
				c-0.5-0.5-1.1-0.5-1.9-0.5c-0.9,0-1.4,0.3-1.9,0.5c-0.5,0.5-0.9,1.1-0.9,1.6h-0.8l0,0c0-0.9,0.3-1.6,1.1-2.1
				c0.5-0.5,1.6-0.9,2.5-0.9c1.1,0,1.9,0.3,2.5,0.9c0.5,0.5,0.9,1.4,0.9,2.5c0,0.5-0.3,1.1-0.5,1.6c-0.3,0.5-0.9,0.9-1.4,1.1
				c0.9,0.2,1.4,0.5,1.6,1.1c0.3,0.5,0.5,1.1,0.5,1.9c0,1.1-0.2,1.9-1.1,2.5c-0.9,0.5-1.6,0.9-2.7,0.9s-1.9-0.3-2.7-0.9
				c-0.9-0.5-1.1-1.4-1.1-2.5l0,0h0.9c0,0.9,0.2,1.4,0.9,1.9c0.5,0.5,1.1,0.9,1.9,0.9s1.4-0.3,1.9-0.5c0.5-0.3,0.9-1.1,0.9-1.9
				c0-0.9-0.2-1.4-0.9-1.9c-0.5-0.3-1.1-0.5-2.1-0.5h-1.1v-1.6h0.6L498.8,158.1L498.8,158.1z"/>
			<path fill="#FFFFFF" d="M508.7,160c0,1.9-0.3,3.7-1.1,5.1c-0.9,1.6-1.6,2.5-2.5,3l0,0l-0.2-0.5c0.9-0.5,1.4-1.6,2.1-3
				c0.5-1.4,0.9-3,0.9-4.9v-0.2c0-1.9-0.3-3.2-0.9-4.9c-0.5-1.6-1.4-2.5-1.9-3l0.3-0.5l0,0c0.9,0.5,1.6,1.6,2.5,3.2
				C508.4,156.1,508.7,157.7,508.7,160L508.7,160z"/>
			<path fill="#FFFFFF" d="M515.2,158.6h3.5v0.9h-3.5v3.7H514v-3.7h-3.5v-0.9h3.5v-3.7h1.1V158.6z"/>
			<path fill="#FFFFFF" d="M526.3,160.7h1.9v0.9h-1.9v3h-1.1v-3h-5.5v-0.5l5.5-8.1h1.1V160.7z M521.2,160.7h4.4V154l0,0l-0.5,0.9
				L521.2,160.7z"/>
			<path fill="#FFFFFF" d="M535.5,160.7h1.9v0.9h-1.9v3h-1.1v-3h-5.5v-0.5l5.5-8.1h1.1L535.5,160.7L535.5,160.7z M530.2,160.7h4.4
				V154l0,0l-0.6,0.9L530.2,160.7z"/>
		</g>
		<g>
			<g>
				<path fill="#FFFFFF" d="M642.8,183.6l1.9-18.7h16.9v2.7h-14.4l-1.4,12.2c0.9-0.9,1.9-1.4,3-1.9c1.1-0.5,2.5-0.5,4.4-0.9
					c3,0,5.5,0.9,7.1,3c1.9,1.9,2.7,4.6,2.7,8.1s-0.9,6.2-2.7,8.4c-1.6,2.1-4.4,3-7.9,3c-2.7,0-5.1-0.9-7.1-2.5
					c-1.9-1.6-2.7-3.7-2.7-7.1v-0.1h2.5c0,2.5,0.5,4.1,1.9,5.5c1.4,1.4,3,1.9,5.1,1.9c2.5,0,4.4-0.9,5.7-2.5
					c1.4-1.6,1.9-3.7,1.9-6.7c0-2.5-0.5-4.6-1.9-6.2c-1.4-1.6-3-2.5-5.5-2.5c-2.1,0-3.7,0.2-5.1,1.1c-1.4,0.9-1.9,1.6-2.5,3.2
					L642.8,183.6L642.8,183.6z"/>
				<path fill="#FFFFFF" d="M685.8,188.2h5.5v2.5h-5.5v8.7H683v-8.7h-16v-1.6l15.7-24.2h3V188.2z M670.3,188.2H683v-19.6h-0.3
					l-1.1,2.5L670.3,188.2z"/>
				<path fill="#FFFFFF" d="M698.5,198.8l-2.5,6.5h-1.9l1.6-6.5v-4h2.7V198.8z"/>
				<path fill="#FFFFFF" d="M721.9,188.2h5.5v2.5h-5.5v8.7h-2.7v-8.7h-16v-1.6l15.7-24.2h3V188.2z M706.4,188.2h12.7v-19.6h-0.3
					l-1.1,2.5L706.4,188.2z"/>
			</g>
		</g>
		<g>
			<rect x="738.5" y="144.2" fill="#3D3D3D" width="10.9" height="74"/>
			<circle fill="#FFFFFF" cx="744" cy="174.3" r="1.4"/>
			<circle fill="#FFFFFF" cx="744" cy="181.2" r="1.4"/>
			<circle fill="#FFFFFF" cx="744" cy="187.7" r="1.4"/>
		</g>
		<rect x="443" y="16" fill="#B7B7B7" width="2.7" height="218"/>
		<rect x="727.1" y="70.2" fill="#D81F27" width="22.6" height="74"/>
		<g>
			<path fill="#FFFFFF" d="M735,115.1c-0.5,0-0.5,0-0.5-0.2c0-0.3,0-9.5,0-9.5h-1.1c0,0,0,9.2,0,9.7c0,0.5,0.5,1.4,1.4,1.4
				c0.9,0,4.4,0,4.4,0v-1.1C738.8,115.1,735.3,115.1,735,115.1z"/>
			<path fill="#FFFFFF" d="M744.3,105.2c0,0,0,9.2,0,9.7s-0.5,1.4-1.4,1.4s-4.4,0-4.4,0v-1.1c0,0,3.2,0,3.7,0s0.5,0,0.5-0.3
				c0-0.2,0-9.5,0-9.5h1.4L744.3,105.2L744.3,105.2z"/>
			<path fill="#FFFFFF" d="M744.8,104.2c0,0,0-0.5,0-0.9c0-0.2,0-0.5-0.5-0.5s-5.7,0-5.7,0s-5.1,0-5.7,0c-0.3,0-0.5,0.5-0.5,0.5v0.9
				h-0.5v1.4h6.7h6.7v-1.4H744.8z"/>
			<path fill="#FFFFFF" d="M740.1,100.3c-0.9,0-1.4,0-1.4,0s-0.5,0-1.4,0c-0.9,0-1.6,1.1-1.6,1.9c0,0.2,0,0.2,0,0.2h1.4
				c0,0,0,0,0-0.5c0-0.2,0.3-0.5,0.5-0.5c0.5,0,1.1,0,1.1,0s0.5,0,1.1,0c0.3,0,0.5,0.5,0.5,0.5c0,0.5,0,0.5,0,0.5h1.4c0,0,0,0,0-0.2
				C741.8,101.5,741,100.3,740.1,100.3z"/>
			<rect x="738" y="106.6" fill="#FFFFFF" width="1.4" height="7.4"/>
			<rect x="740.8" y="106.6" fill="#FFFFFF" width="1.4" height="7.4"/>
			<rect x="735.5" y="106.6" fill="#FFFFFF" width="1.4" height="7.4"/>
		</g>
		<rect x="674" y="70.2" fill="#3D3D3D" width="53" height="74"/>
		<rect x="676.3" y="70.2" fill="#2D2D2D" width="50.9" height="36.5"/>
		<g>
			<path fill="#FFFFFF" d="M701.3,123.7h-11.1v-1.4h11.1V123.7z M701.3,129.2h-11.1v-1.4h11.1V129.2z"/>
			<path fill="#FFFFFF" d="M712.4,135h-1.6v-17.6l-4.9,0.5v-1.1l6.5-1.1V135z"/>
		</g>
		<g>
			<path fill="#FFFFFF" d="M700.8,86h-11.1v-1.4h11.1V86z M700.8,91.6h-11.1v-1.4h11.1V91.6z"/>
			<path fill="#FFFFFF" d="M717,89.7c0,2.5-0.5,4.4-1.6,5.7c-1.1,1.4-2.5,1.9-4.6,1.9c-1.9,0-3.5-0.5-4.6-1.9s-1.6-3.2-1.6-5.7v-4.4
				c0-2.5,0.5-4.4,1.6-5.7s2.5-1.9,4.6-1.9c2.1,0,3.5,0.5,4.6,1.9s1.6,3.2,1.6,5.7V89.7z M715.4,85.1c0-1.9-0.3-3.5-1.1-4.6
				c-0.9-1.1-1.9-1.6-3.2-1.6s-2.7,0.5-3.2,1.6c-0.5,1.1-1.1,2.7-1.1,4.6V90c0,1.9,0.2,3.5,1.1,4.6c0.9,1.1,1.9,1.6,3.2,1.6
				s2.7-0.5,3.2-1.6c0.5-1.1,1.1-2.7,1.1-4.6V85.1z"/>
		</g>
		<g>
			<rect x="663.1" y="70.2" fill="#3D3D3D" width="10.9" height="74"/>
			<circle fill="#FFFFFF" cx="668.6" cy="100.6" r="1.4"/>
			<circle fill="#FFFFFF" cx="668.6" cy="107.2" r="1.4"/>
			<circle fill="#FFFFFF" cx="668.6" cy="113.7" r="1.4"/>
		</g>
		<g id="completer">
			<rect x="-142.8" y="206.2" fill="#2B2B2B" width="129.7" height="77.9"/>
			<rect x="-142.8" y="264.5" opacity="0.8" fill="#ED1A46" enable-background="new    " width="129.7" height="19.6"/>
			<g>
				<path fill="#C9C9C9" d="M-112.5,223.3c0-0.3,0-0.5,0-0.9s0-0.3,0-0.5c-0.2,0.5-0.9,0.9-1.1,1.1c-0.5,0.3-1.1,0.5-1.6,0.5
					c-0.9,0-1.4-0.3-1.9-0.5c-0.5-0.5-0.5-1.1-0.5-1.6c0-0.9,0.2-1.4,1.1-1.9c0.5-0.5,1.6-0.5,2.7-0.5h1.9V218
					c0-0.5-0.2-1.1-0.5-1.4c-0.2-0.3-0.9-0.5-1.6-0.5c-0.5,0-1.1,0.3-1.6,0.5c-0.5,0.2-0.5,0.9-0.5,1.1h-0.9l0,0
					c0-0.5,0.2-1.1,0.9-1.6c0.5-0.5,1.4-0.9,2.1-0.9c0.9,0,1.6,0.2,2.1,0.9c0.5,0.5,0.9,1.1,0.9,1.9v4.1c0,0.2,0,0.5,0,0.9
					c0,0.3,0,0.5,0.2,0.9h-1.6L-112.5,223.3L-112.5,223.3z M-115.5,222.8c0.5,0,1.1-0.3,1.6-0.5c0.5-0.2,0.9-0.9,1.1-1.1v-1.6h-1.9
					c-0.9,0-1.4,0.3-1.9,0.5c-0.5,0.3-0.9,0.9-0.9,1.4c0,0.5,0.2,0.9,0.5,1.1C-116.7,222.6-116,222.8-115.5,222.8z"/>
				<path fill="#C9C9C9" d="M-103,219.6c0,1.1-0.2,2.1-0.9,3c-0.5,0.9-1.4,1.1-2.1,1.1c-0.5,0-1.1,0-1.6-0.2
					c-0.5-0.3-0.9-0.5-1.1-1.1v1.4h-0.9V212h0.9v4.9c0.2-0.5,0.5-0.9,1.1-1.1c0.5-0.3,0.9-0.3,1.6-0.3c1.1,0,1.6,0.3,2.1,1.1
					C-103.3,217.1-103,218-103,219.6L-103,219.6z M-103.8,219.2c0-1.1-0.2-1.9-0.5-2.5c-0.2-0.5-1.1-1.1-1.9-1.1
					c-0.5,0-1.1,0.3-1.6,0.5c-0.2,0.3-0.5,0.9-0.9,1.1v3.7c0.2,0.5,0.5,0.9,0.9,1.1c0.4,0.2,0.9,0.5,1.4,0.5c0.9,0,1.4-0.3,1.9-0.9
					C-104,221.2-103.8,220.3-103.8,219.2L-103.8,219.2z"/>
				<path fill="#C9C9C9" d="M-95.9,221.2c0-0.3-0.2-0.9-0.5-1.1s-0.9-0.5-1.6-0.9c-1.1-0.2-1.6-0.5-2.1-0.9
					c-0.5-0.3-0.9-0.9-0.9-1.4c0-0.5,0.2-1.1,0.9-1.6c0.5-0.5,1.1-0.5,2.1-0.5c0.9,0,1.6,0.2,2.1,0.9c0.5,0.5,0.9,1.1,0.9,1.6l0,0
					h-0.9c0-0.5-0.2-0.9-0.5-1.1c-0.2-0.3-0.9-0.5-1.6-0.5c-0.5,0-1.1,0.3-1.4,0.5c-0.2,0.2-0.5,0.5-0.5,1.1c0,0.3,0.2,0.9,0.5,0.9
					c0.2,0.3,0.9,0.5,1.6,0.5c1.1,0.3,1.6,0.5,2.1,0.9c0.5,0.3,0.9,0.9,0.9,1.6s-0.2,1.4-0.9,1.6c-0.5,0.5-1.4,0.5-2.1,0.5
					c-1.1,0-1.6-0.3-2.5-0.9c-0.9-0.6-1.1-0.9-1.1-1.4l0,0h0.9c0,0.5,0.2,1.1,0.9,1.4c0.5,0.2,1.1,0.2,1.6,0.2s1.1-0.2,1.6-0.5
					C-96.2,222-95.9,221.7-95.9,221.2z"/>
			</g>
			<g>
				<path fill="#C9C9C9" d="M-112.8,239.7c0-0.2-0.2-0.9-0.5-1.1c-0.2-0.2-0.9-0.5-1.6-0.9c-1.1-0.3-1.6-0.5-2.1-0.9
					c-0.5-0.3-0.9-0.9-0.9-1.4c0-0.5,0.2-1.1,0.9-1.6c0.5-0.5,1.1-0.5,2.1-0.5c0.9,0,1.6,0.3,2.1,0.9c0.5,0.5,0.9,1.1,0.9,1.6l0,0
					h-0.9c0-0.5-0.2-0.9-0.5-1.1c-0.2-0.3-0.9-0.5-1.6-0.5c-0.5,0-1.1,0.2-1.4,0.5s-0.5,0.5-0.5,1.1c0,0.3,0.2,0.9,0.5,0.9
					c0.2,0.3,0.9,0.5,1.6,0.5c1.1,0.3,1.6,0.5,2.1,0.9c0.5,0.3,0.9,0.9,0.9,1.6c0,0.9-0.2,1.4-0.9,1.6c-0.5,0.5-1.4,0.5-2.1,0.5
					c-1.1,0-1.6-0.3-2.5-0.9c-0.9-0.5-0.9-1.1-0.9-1.6l0,0h0.9c0,0.5,0.2,1.1,0.9,1.4c0.5,0.3,1.1,0.3,1.6,0.3s1.1-0.3,1.6-0.5
					C-113,240.5-112.8,240-112.8,239.7z"/>
				<path fill="#C9C9C9" d="M-109,231.2h-0.7v-1.4h0.9L-109,231.2L-109,231.2z M-109,241.6h-0.7v-8.1h0.9L-109,241.6L-109,241.6z"/>
				<path fill="#C9C9C9" d="M-105.8,233.7v1.4c0.2-0.5,0.5-0.9,1.1-1.1c0.5-0.3,1.1-0.5,1.6-0.5c0.9,0,1.6,0.3,1.9,0.9
					c0.5,0.5,0.9,1.4,0.9,2.5v4.9h-0.9v-4.9c0-0.9-0.2-1.6-0.5-1.9c-0.2-0.3-0.9-0.5-1.4-0.5s-1.1,0.3-1.6,0.5
					c-0.2,0.2-0.9,0.9-0.9,1.4v5.7h-0.9V234L-105.8,233.7L-105.8,233.7z"/>
			</g>
			<g>
				<path fill="#C9C9C9" d="M-112.5,261c0-0.2,0-0.5,0-0.9c0-0.4,0-0.3,0-0.5c-0.2,0.5-0.9,0.9-1.1,1.1c-0.5,0.2-1.1,0.5-1.6,0.5
					c-0.9,0-1.4-0.3-1.9-0.5c-0.5-0.5-0.5-1.1-0.5-1.6c0-0.9,0.2-1.4,1.1-1.9c0.5-0.5,1.6-0.5,2.7-0.5h1.9v-1.1
					c0-0.5-0.2-1.1-0.5-1.4c-0.2-0.2-0.9-0.5-1.6-0.5c-0.5,0-1.1,0.3-1.6,0.5c-0.5,0.3-0.5,0.9-0.5,1.1h-0.9l0,0
					c0-0.5,0.2-1.1,0.9-1.6c0.5-0.5,1.4-0.9,2.1-0.9c0.9,0,1.6,0.3,2.1,0.9c0.5,0.5,0.9,1.1,0.9,1.9v4.1c0,0.3,0,0.5,0,0.9
					c0,0.3,0,0.5,0.2,0.9h-1.6L-112.5,261L-112.5,261z M-115.5,260.3c0.5,0,1.1-0.3,1.6-0.5s0.9-0.9,1.1-1.1v-1.6h-1.9
					c-0.9,0-1.4,0.3-1.9,0.5c-0.5,0.2-0.9,0.9-0.9,1.4s0.2,0.9,0.5,1.1C-116.7,260.1-116,260.3-115.5,260.3z"/>
				<path fill="#C9C9C9" d="M-108.4,254.1c0.2-0.5,0.5-0.9,1.1-1.1c0.5-0.3,1.1-0.3,1.6-0.3c0.9,0,1.6,0.3,1.9,0.9
					c0.5,0.5,0.9,1.4,0.9,2.5v4.9h-1.1v-5.1c0-0.9-0.2-1.6-0.5-1.9c-0.2-0.3-0.9-0.5-1.4-0.5c-0.5,0-1.1,0.3-1.6,0.5
					c-0.5,0.2-0.9,0.9-0.9,1.4v5.7h-1.1v-11.7h0.9v4.9L-108.4,254.1L-108.4,254.1z"/>
				<path fill="#C9C9C9" d="M-101.4,256.8c0-1.1,0.2-2.1,1.1-3c0.9-0.9,1.6-1.1,2.7-1.1c1.1,0,1.9,0.3,2.7,1.1
					c0.9,0.9,1.1,1.6,1.1,3v0.3c0,1.1-0.2,2.1-1.1,3c-0.9,0.9-1.6,1.1-2.7,1.1c-1.1,0-1.9-0.3-2.7-1.1
					C-101.2,259.2-101.4,258.2-101.4,256.8L-101.4,256.8z M-100.5,257.1c0,0.9,0.2,1.6,0.9,2.5c0.5,0.9,1.1,1.1,1.9,1.1
					c0.9,0,1.6-0.3,1.9-1.1c0.5-0.5,0.9-1.4,0.9-2.5v-0.3c0-0.9-0.2-1.6-0.9-2.5c-0.5-0.5-1.1-1.1-1.9-1.1c-0.9,0-1.6,0.3-1.9,1.1
					C-100,255.2-100.5,255.7-100.5,257.1L-100.5,257.1z"/>
				<path fill="#C9C9C9" d="M-91.3,252.7v8.7c0,0.9-0.2,1.4-0.5,1.9c-0.2,0.5-1.1,0.9-1.6,0.9c-0.2,0-0.2,0-0.5,0
					c-0.2,0-0.2,0-0.5,0v-0.9h0.2c0.2,0,0.2,0,0.2,0c0.5,0,0.9-0.3,1.1-0.5c0.2-0.3,0.2-0.9,0.2-1.4v-8.7H-91.3z M-91.3,250.6h-0.9
					v-1.4h0.9V250.6z"/>
				<path fill="#C9C9C9" d="M-89.2,257.1c0-1.4,0.2-2.5,0.9-3c0.5-0.9,1.4-1.1,2.1-1.1c0.5,0,1.1,0,1.4,0.2c0.5,0.3,0.9,0.5,1.1,1.1
					v-4.9h0.9v11.7h-0.9v-1.1c-0.2,0.5-0.5,0.9-1.1,1.1c-0.5,0.3-0.9,0.3-1.6,0.3c-1.1,0-1.6-0.3-2.1-1.1
					C-88.9,259.2-89.2,258.5-89.2,257.1L-89.2,257.1z M-88,257.1c0,1.1,0.2,1.9,0.5,2.5s1.1,0.9,1.9,0.9c0.5,0,1.1,0,1.4-0.3
					c0.2-0.3,0.9-0.5,0.9-1.1v-3.7c-0.2-0.5-0.5-0.9-0.9-1.1c-0.2-0.2-0.9-0.5-1.4-0.5c-0.9,0-1.4,0.3-1.9,1.1
					C-88,255.2-88,256-88,257.1L-88,257.1z"/>
			</g>
			<g>
				<path fill="#C9C9C9" d="M-114.2,273.1l3-4.6h1.1l-3.5,5.5l3.7,5.5h-1.1l-3.2-4.9l-3.2,4.9h-1.1l3.7-5.5l-3.5-5.5h1.1
					L-114.2,273.1z"/>
				<path fill="#C9C9C9" d="M-104.9,274.5l3.2-6h1.1l-4.1,7.1v4.1h-0.9v-4.1l-4.1-6.7h1.1L-104.9,274.5z"/>
			</g>
			<rect x="-14.8" y="206.2" fill="#969696" width="1.9" height="42.5"/>
			<rect x="-135.7" y="215.2" fill="#EF4323" width="7.4" height="7.4"/>
			<rect x="-135.7" y="233.7" fill="#EF4323" width="7.4" height="7.4"/>
			<rect x="-135.7" y="253" fill="#C9C9C9" width="7.4" height="7.4"/>
			<rect x="-135.7" y="271.5" fill="#C9C9C9" width="7.4" height="7.4"/>
		</g>
		<g id="new">
			<rect x="314.4" y="131.3" display="none" fill="#E0E0E0" width="128.7" height="37.2"/>
			<polygon display="none" fill="#E0E0E0" points="314.4,131.3 265.9,168.7 314.4,168.7 			"/>
			<polygon fill="#303030" points="-223,-77.9 -223,-44.9 -247.5,-22.6 -247.5,168.1 -251,168.1 -251,-77.9 			"/>
			
				<text transform="matrix(1 0 0 1 362.4561 158.0713)" display="none" fill="#2B2B2B" enable-background="new    " font-family="'Roboto-Light'" font-size="24.9421">Graph</text>
			<g id="grapicon">
				<path fill="#FFFFFF" d="M-227.4-59.6v1.1h-1.1v-1.1H-227.4z M-230.4-59.6v1.1h-0.9v-1.1H-230.4z M-233-59.6v1.1h-1.1v-1.1H-233z
					 M-236-59.6v1.1h-1.1v-1.1H-236z M-239-59.6v1.1h-0.9v-1.1H-239z M-241.8-59.6v1.1h-1.1v-1.1H-241.8z M-244.8-59.6v1.1h-1.1
					v-1.1H-244.8z M-247.8-59.6v1.1h-0.7v-1.1H-247.8z"/>
				<path fill="#FFFFFF" d="M-237.2-75.4L-237.2-75.4h-1.1l0,0H-237.2z M-237.2-73.3v1.1h-1.1v-1.1H-237.2z M-237.2-70.3v0.9h-1.1
					v-1.1h1.1V-70.3z M-237.2-67.5v1.1h-1.1v-1.1H-237.2z M-237.2-64.5v1.1h-1.1v-1.1H-237.2z M-237.2-61.5v1.1h-1.1v-1.1H-237.2z
					 M-237.2-58.8v1.1h-1.1v-1.1H-237.2z M-237.2-55.8v1.1h-1.1v-1.1H-237.2z M-237.2-52.8v1.1h-1.1v-1.1H-237.2z M-237.2-49.8v1.1
					h-1.1v-1.1H-237.2z M-237.2-47.1v1.1h-1.1v-1.1H-237.2z M-237.2-44.1v1.1h-1.1v-1.1H-237.2z"/>
				<path display="none" fill="#FFFFFF" d="M-227.7-74v28.2h-19.6V-74H-227.7z M-228.4-46.5v-26.6h-18v26.6H-228.4z"/>
				<polygon fill="#ED1A46" points="-241.8,-49 -244.3,-63.8 -246.7,-56.4 -247.3,-56.4 -243.9,-66.1 -241.5,-51.8 -239.3,-61 
					-236.9,-55 -232,-65 -229.3,-58 -226.5,-63.1 -226,-62.9 -229.5,-56.6 -232,-63.8 -236.9,-53.6 -239.3,-59.4 				"/>
			</g>
		</g>
	</g>
</g>
<g id="graf">
	<g>
		<rect x="-250.4" y="356.1" fill="#FFFFFF" width="999.6" height="324.3"/>
		<rect x="-251.5" y="680.5" fill="#2B2B2B" width="1000.7" height="21.1"/>
		<rect x="-250.9" y="356.1" fill="#2B2B2B" width="247.1" height="41.1"/>
		<g>
			<g>
				<path fill="#B2B3B3" d="M-222.1,374.5h6.7V385h-2.8v-1.7c-1.1,1.1-3.3,2.2-5.6,2.2c-4.4,0-7.8-3.9-7.8-9.4
					c0-6.1,3.3-10.6,8.9-10.6c2.2,0,4.4,0.6,6.1,1.7l-1.1,2.2c-1.7-1.1-2.8-1.1-5-1.1c-3.3,0-6.1,2.8-6.1,8.3c0,4.4,2.2,7.2,5.6,7.2
					c2.2,0,3.9-1.1,4.4-1.7v-5.6h-3.9L-222.1,374.5L-222.1,374.5L-222.1,374.5z"/>
				<path fill="#B2B3B3" d="M-203.7,373.3h-1.1c-2.2,0-3.9,1.7-3.9,5.6v6.7h-2.8v-14.4h2.2v3.3c1.1-2.2,2.2-3.9,4.4-3.9
					c0.6,0,1.1,0,1.7,0L-203.7,373.3z"/>
				<path fill="#B2B3B3" d="M-195.4,370.6c1.7,0,2.8,0.6,3.9,1.7v-1.1h2.2v11.1c0,1.1,1.1,1.7,1.7,1.7l-0.6,1.7
					c-1.7,0-2.8-1.1-3.3-2.2c-1.1,1.1-2.2,2.2-4.4,2.2c-3.3,0-6.7-2.8-6.7-7.8C-202.1,373.9-199.3,370.6-195.4,370.6z M-191.5,381.7
					v-7.8c-1.1-1.1-2.2-1.1-3.3-1.1c-2.8,0-4.4,2.2-4.4,5.6s1.7,5.6,4.4,5.6C-193.7,383.3-192.1,382.8-191.5,381.7z"/>
				<path fill="#B2B3B3" d="M-184.9,370.6c1.7,0,2.8,1.1,3.3,1.7c0.6-1.1,2.2-2.8,4.4-2.8c3.3,0,6.1,2.8,6.1,7.2
					c0,4.4-2.8,7.8-6.1,7.8c-1.7,0-3.3-1.1-4.4-1.7v7.8h-2.2v-16.7c0-1.1-0.6-1.7-1.7-1.7L-184.9,370.6z M-177.6,372.8
					c-1.7,0-2.8,1.1-3.3,1.7v7.2c1.1,1.1,2.2,1.7,3.9,1.7c2.2,0,4.4-2.2,4.4-5.6C-173.2,374.5-175.4,372.8-177.6,372.8z"/>
				<path fill="#B2B3B3" d="M-164.9,373.3c1.1-1.7,2.8-2.8,5-2.8c3.3,0,5,2.2,5,5.6v9.4h-2.2v-9.4c0-2.2-1.1-3.3-2.8-3.3
					s-3.3,1.1-4.4,2.8v9.4h-2.2v-20.5h2.2L-164.9,373.3L-164.9,373.3L-164.9,373.3z"/>
				<path fill="#B2B3B3" d="M-136.5,370.6c3.9,0,7.2,2.8,7.2,7.8s-2.8,7.8-7.2,7.8c-3.9,0-7.2-2.8-7.2-7.8
					C-143.2,373.3-140.4,370.6-136.5,370.6z M-136.5,372.8c-2.8,0-4.4,2.2-4.4,5c0,2.8,1.7,5.6,4.4,5.6c2.8,0,4.4-2.2,4.4-5.6
					C-131.5,375-133.8,372.8-136.5,372.8z"/>
				<path fill="#B2B3B3" d="M-117.7,367.2c-1.1-0.6-1.7-1.1-2.8-1.1c-1.7,0-2.8,1.1-2.8,2.8v1.7h4.4v2.2h-3.9v11.7h-2.8v-11.7h-2.2
					v-2.2h2.2v-1.7c0-3.3,1.7-5,5-5c1.7,0,2.8,0,3.3,1.1L-117.7,367.2z"/>
			</g>
		</g>
		<polygon fill="#2B2B2B" points="-4.4,397.2 47.8,362.8 749.2,362.2 749.2,355.6 -4.4,356.1 		"/>
		<polygon fill="#D3D3D3" points="277.2,698.8 245,686.6 212.8,698.8 212.2,696.6 245,684.3 277.8,696.6 		"/>
		<g id="new_1_">
			<rect x="-228.7" y="568.3" fill="#C1C1C0" width="978.5" height="1.1"/>
			<rect x="-229.3" y="397.2" fill="#C1C1C0" width="1.1" height="282.7"/>
			<rect x="62.8" y="564.9" fill="#C1C1C0" width="1.1" height="7.2"/>
			<rect x="111.1" y="564.9" fill="#C1C1C0" width="1.1" height="7.2"/>
			<rect x="160" y="564.9" fill="#C1C1C0" width="1.1" height="7.2"/>
			<rect x="208.3" y="564.9" fill="#C1C1C0" width="1.1" height="7.2"/>
			<rect x="256.7" y="564.9" fill="#C1C1C0" width="1.1" height="7.2"/>
			<rect x="-179.9" y="564.9" fill="#C1C1C0" width="1.1" height="7.2"/>
			<rect x="-131" y="564.9" fill="#C1C1C0" width="1.1" height="7.2"/>
			<rect x="-82.7" y="564.9" fill="#C1C1C0" width="1.1" height="7.2"/>
			<rect x="-33.8" y="564.9" fill="#C1C1C0" width="1.1" height="7.2"/>
			<rect x="-232.6" y="519.4" fill="#C1C1C0" width="7.2" height="1.1"/>
			<rect x="-232.6" y="471.1" fill="#C1C1C0" width="7.2" height="1.1"/>
			<rect x="-232.6" y="422.8" fill="#C1C1C0" width="7.2" height="1.1"/>
			<rect x="-232.6" y="665.5" fill="#C1C1C0" width="7.2" height="1.1"/>
			<rect x="-232.6" y="616.6" fill="#C1C1C0" width="7.2" height="1.1"/>
			<g>
				<path fill="#ABABAB" d="M109.5,586.6L109.5,586.6c0-2.8,3.3-3.9,3.3-5.6c0-0.6-0.6-1.1-1.1-1.1s-1.1,0-1.7,0.6l-0.6-0.6
					c0.6-0.6,1.1-1.1,2.2-1.1c1.1,0,2.2,1.1,2.2,1.7c0,2.2-2.8,2.8-3.3,5h3.3v1.1L109.5,586.6L109.5,586.6z"/>
			</g>
			<g>
				<path fill="#ABABAB" d="M210.6,584.9v1.7h-1.1v-1.7h-3.3v-1.1l2.2-5h1.1l-2.2,5h2.2v-1.7h1.1v2.2h1.1v1.1L210.6,584.9
					L210.6,584.9z"/>
			</g>
			<g>
				<path fill="#ABABAB" d="M-184.3,584.4v-1.1h3.9v1.1H-184.3z"/>
				<path fill="#ABABAB" d="M-173.7,585.5v1.7h-1.1v-1.7h-3.3v-1.1l2.2-5h1.1l-2.2,5h2.2v-2.2h1.1v2.2h1.1v1.1H-173.7L-173.7,585.5z
					"/>
			</g>
			<g>
				<path fill="#ABABAB" d="M-87.1,584.4v-1.1h3.9v1.1H-87.1z"/>
				<path fill="#ABABAB" d="M-81,587.2L-81,587.2c0-2.8,3.3-3.9,3.3-5.6c0-0.6-0.6-1.1-1.1-1.1s-1.1,0-1.7,0.6l-0.6-0.6
					c0.6-0.6,1.1-1.1,2.2-1.1c1.1,0,2.2,1.1,2.2,1.7c0,2.2-2.8,2.8-3.3,5h2.8v1.1L-81,587.2L-81,587.2z"/>
			</g>
			<g>
				<path fill="#ABABAB" d="M-240.9,473.9L-240.9,473.9c0-2.8,3.3-3.9,3.3-5.6c0-0.6-0.6-1.1-1.1-1.1c-0.6,0-1.1,0-1.7,0.6v-1.1
					c0.6-0.6,1.1-1.1,2.2-1.1s2.2,1.1,2.2,1.7c0,2.2-2.8,2.8-3.3,5h3.3v1.1L-240.9,473.9L-240.9,473.9z"/>
			</g>
			<g>
				<path fill="#ABABAB" d="M-247.1,664.9v-1.1h3.9v1.1H-247.1z"/>
				<path fill="#ABABAB" d="M-240.9,668.2L-240.9,668.2c0-2.8,3.3-3.9,3.3-5.6c0-0.6-0.6-1.1-1.1-1.1c-0.6,0-1.1,0-1.7,0.6v-0.6
					c0.6-0.6,1.1-1.1,2.2-1.1s2.2,1.1,2.2,1.7c0,2.2-2.8,2.8-3.3,5h3.3v1.1H-240.9L-240.9,668.2z"/>
			</g>
			<g>
				<path fill="#ABABAB" d="M-233.7,578.3c0,2.2-1.1,3.9-2.8,3.9c-1.7,0-2.8-1.1-2.8-3.9c0-2.2,1.1-3.9,2.8-3.9
					C-234.8,574.4-233.7,575.5-233.7,578.3z M-237.6,578.3c0,1.7,0.6,2.8,1.7,2.8s1.7-1.1,1.7-2.8s-0.6-2.8-1.7-2.8
					C-237.1,574.9-237.6,575.5-237.6,578.3z"/>
			</g>
			<path fill="#ED177D" d="M378.8,642.7c-51.1,0-73.3-71.6-92.7-135c-14.4-47.2-27.8-92.2-51.1-92.2c-7.2,0-13.9,0-20,0
				c-40-1.1-56.1-1.7-81.6,58.3c-6.7,16.1-67.2,158.8-90.5,158.8c-6.7,0-15-17.2-27.2-57.8c-1.1-2.8-1.1-5-1.7-5.6
				c0-0.6,0-1.1-0.6-1.7C5.6,546.1-2.1,535-10.5,535c-17.8,0-21.7,34.4-21.7,35h-2.8c0-49.4-5.6-87.7-15-102.7
				C-77.7,423.9-223.7,425-224.8,425v-2.8c6.1,0,149.4-1.1,177.7,43.3c8.9,13.9,14.4,47.2,15,91.1c2.8-10.6,9.4-23.9,21.7-23.9
				c14.4,0,23.3,26.1,26.1,34.4c0,0.6,0.6,1.1,0.6,1.7c0,1.1,1.1,2.8,1.7,5.6c13.9,46.1,21.1,56.1,24.4,56.1
				c18.3,0,70-113.3,88.3-156.6c26.1-61.6,44.4-61.1,84.4-60c6.1,0,12.8,0,20,0c25,0,38.9,43.3,53.9,93.9
				c18.9,62.2,40.5,132.7,90,132.7c46.6,0,61.6-58.3,76.1-115c12.8-50,24.4-96.6,58.3-96.6c38.9,0,50,46.6,59.4,88.3
				c8.3,35.5,16.7,69.4,40,69.4c26.1,0,41.7-46.1,57.2-90.5c15.5-46.1,31.1-89.4,56.6-89.4c18.3,0,23.9,13.9,23.9,13.9l-2.8,1.1
				c0-0.6-5-12.2-21.1-12.2c-23.9,0-39.4,44.4-53.9,87.2c-15.5,45.5-32.2,92.7-60,92.7c-25.5,0-33.9-35-42.8-71.6
				c-10-42.2-20.5-86.1-57.2-86.1c-31.7,0-43.3,46.1-55.5,95C443.2,583.8,428.3,642.7,378.8,642.7z"/>
			<rect x="14.5" y="564.9" fill="#C1C1C0" width="1.1" height="7.2"/>
			<g>
				<path fill="#ABABAB" d="M17.3,582.7c0,2.2-1.1,3.9-2.8,3.9s-2.8-1.1-2.8-3.9c0-2.2,1.1-3.9,2.8-3.9
					C16.7,578.8,17.3,580.5,17.3,582.7z M13.4,582.7c0,1.7,0.6,2.8,1.7,2.8s1.7-1.1,1.7-2.8s-0.6-2.8-1.7-2.8S13.4,580.5,13.4,582.7
					z"/>
			</g>
			<rect x="305" y="566.1" fill="#C1C1C0" width="1.1" height="7.2"/>
			<rect x="353.8" y="566.1" fill="#C1C1C0" width="1.1" height="7.2"/>
			<rect x="402.2" y="566.1" fill="#C1C1C0" width="1.1" height="7.2"/>
			<g>
				<path fill="#ABABAB" d="M304.4,582.7c0,0,1.1-1.1,1.7-1.1c1.1,0,2.2,1.1,2.2,2.2c0,1.7-1.1,2.8-2.8,2.8c-1.1,0-2.2-1.1-2.2-3.3
					c0-2.2,1.1-4.4,3.9-4.4c0,0,0,0,0.6,0v1.1l0,0C305.5,579.9,304.4,581,304.4,582.7z M304.4,583.3L304.4,583.3
					c0,1.7,1.1,2.2,1.7,2.2c0.6,0,1.1-1.1,1.1-1.7c0-0.6-0.6-1.7-1.1-1.7C305.5,582.7,305,582.7,304.4,583.3z"/>
			</g>
			<g>
				<path fill="#ABABAB" d="M400.5,580.5c0-1.1,1.1-1.7,2.2-1.7c1.1,0,2.2,1.1,2.2,1.7c0,1.1-0.6,1.1-1.1,1.7
					c1.1,0.6,1.7,1.1,1.7,2.2c0,1.1-1.1,2.2-2.8,2.2c-1.7,0-2.8-1.1-2.8-2.2s0.6-1.7,1.7-2.2C401,581.6,400.5,581,400.5,580.5z
					 M402.7,582.7c-1.1,0-1.7,1.1-1.7,1.7c0,1.1,1.1,1.1,1.7,1.1c1.1,0,1.7-0.6,1.7-1.1C404.4,583.3,403.8,582.7,402.7,582.7z
					 M402.7,581.6c0.6,0,1.1-0.6,1.1-1.1s-0.6-1.1-1.1-1.1c-1.1,0-1.1,0.6-1.1,1.1C401.6,581,402.2,581.6,402.7,581.6z"/>
			</g>
			<rect x="450.5" y="566.1" fill="#C1C1C0" width="1.1" height="7.2"/>
			<rect x="498.8" y="566.1" fill="#C1C1C0" width="1.1" height="7.2"/>
			<rect x="547.7" y="566.1" fill="#C1C1C0" width="1.1" height="7.2"/>
			<g>
				<path fill="#ABABAB" d="M497.1,578.3v6.7h1.1v1.1h-3.9v-1.1h1.7v-5.6l-1.7,1.1l-0.6-1.1l2.2-1.7L497.1,578.3L497.1,578.3z"/>
				<path fill="#ABABAB" d="M505.4,582.2c0,2.2-1.1,3.9-2.8,3.9s-2.8-1.1-2.8-3.9s1.1-3.9,2.8-3.9
					C504.9,578.3,505.4,579.9,505.4,582.2z M501.6,582.2c0,1.7,0.6,2.8,1.7,2.8s1.7-1.1,1.7-2.8s-0.6-2.8-1.7-2.8
					C502.1,579.4,501.6,579.9,501.6,582.2z"/>
			</g>
			<rect x="596" y="566.6" fill="#C1C1C0" width="1.1" height="7.2"/>
			<rect x="644.3" y="566.6" fill="#C1C1C0" width="1.1" height="7.2"/>
			<rect x="692.6" y="566.6" fill="#C1C1C0" width="1.1" height="7.2"/>
			<g>
				<path fill="#ABABAB" d="M593.7,579.4v6.7h1.1v1.1H591V586h1.7v-5.6l-1.1,1.1l-0.6-1.1L593.7,579.4L593.7,579.4L593.7,579.4z"/>
				<path fill="#ABABAB" d="M597.6,587.2L597.6,587.2c0-2.8,3.3-3.9,3.3-5.6c0-0.6-0.6-1.1-1.1-1.1c-0.6,0-1.1,0-1.7,0.6l-0.6-0.6
					c0.6-0.6,1.1-1.1,2.2-1.1c1.1,0,2.2,1.1,2.2,1.7c0,2.2-2.8,2.8-3.3,5h3.3v1.1L597.6,587.2L597.6,587.2z"/>
			</g>
			<g>
				<path fill="#ABABAB" d="M690.9,579.4v6.7h1.1v1.1h-3.9V586h1.7v-5.6l-1.1,1.1l-0.6-1.1L690.9,579.4L690.9,579.4L690.9,579.4z"/>
				<path fill="#ABABAB" d="M698.2,585.5v1.7H697v-1.7h-3.3v-1.1l2.2-5h1.1l-2.2,5h2.2v-2.2h1.1v2.2h1.1v1.1H698.2L698.2,585.5z"/>
			</g>
			<g>
				<path fill="#ED1A46" d="M-106.5,381.7c1.1,1.1,2.2,1.1,3.9,1.1c2.2,0,3.3-1.1,3.3-1.7c0-1.1-0.6-1.7-3.3-2.8
					c-2.8-1.1-3.9-2.2-3.9-4.4s2.2-3.9,5.6-3.9c1.7,0,3.3,0.6,4.4,1.1l-1.1,2.2c-1.1-0.6-2.2-1.1-3.9-1.1c-1.7,0-2.8,1.1-2.8,1.7
					c0,1.1,0.6,1.1,2.8,2.2c3.9,1.1,5,2.8,5,5c0,2.8-2.2,3.9-5.6,3.9c-2.2,0-3.9-0.6-5-1.7L-106.5,381.7z"/>
				<path fill="#ED1A46" d="M-93.8,366.7c0-1.1,0.6-1.7,1.7-1.7c1.1,0,1.7,1.1,1.7,1.7c0,1.1-0.6,1.7-1.7,1.7
					C-92.7,368.3-93.8,367.2-93.8,366.7z M-90.4,385h-2.8v-14.4h2.8V385z"/>
				<path fill="#ED1A46" d="M-83.8,373.3c1.1-1.7,2.8-2.8,5-2.8c3.3,0,5,2.2,5,5.6v9.4H-76v-9.4c0-2.2-1.1-3.3-2.8-3.3
					s-3.3,1.1-4.4,2.8v9.4H-86v-14.4h2.8L-83.8,373.3L-83.8,373.3L-83.8,373.3z"/>
				<path fill="#A09F9F" d="M-65.5,387.8l-1.1,1.1c-2.2-3.9-3.9-7.8-3.9-12.2c0-4.4,1.1-8.3,3.9-12.2l1.1,1.1
					c-1.1,2.8-2.8,7.2-2.8,11.1C-67.7,380.6-66.6,384.5-65.5,387.8z"/>
				<path fill="#A09F9F" d="M-56.6,375l-6.1-7.8l2.2-1.7l5.6,7.8l5.6-7.8l2.2,1.7l-6.1,8.3l6.7,8.9l-2.2,1.7l-6.1-8.3l-6.1,8.3
					l-2.2-1.7L-56.6,375z"/>
				<path fill="#A09F9F" d="M-38.2,375l6.1-10l2.2,1.1l-6.7,11.1v7.2h-2.8v-7.2l-6.7-11.1l2.2-1.1L-38.2,375z"/>
				<path fill="#A09F9F" d="M-28.2,364.5l1.1-1.1c2.2,3.9,3.9,7.8,3.9,12.2c0,4.4-1.1,8.3-3.9,12.2l-1.1-1.1
					c1.1-3.3,2.8-7.2,2.8-11.1C-25.5,371.7-27.1,368.3-28.2,364.5z"/>
			</g>
		</g>
	</g>
</g>
<g id="description">
	<path fill="#EF0000" d="M224.4,696.1c-4.3,0-7.7-3.5-7.7-7.7c0-4.3,3.5-7.7,7.7-7.7c4.3,0,7.7,3.5,7.7,7.7
		C232.1,692.6,228.7,696.1,224.4,696.1z M224.4,681.6c-3.7,0-6.7,3-6.7,6.7c0,3.7,3,6.7,6.7,6.7s6.7-3,6.7-6.7
		C231.1,684.7,228.1,681.6,224.4,681.6z"/>
	<polygon fill="#EF0000" points="220.2,682.6 200.3,661.6 -2.1,661.6 -2.1,660.6 200.7,660.6 220.9,681.9 	"/>
	<g>
		<path fill="#191919" d="M1.4,652.4c0.9,0.8,2,1.3,3.6,1.3c1.9,0,3-0.8,3-2.1c0-1.1-0.5-1.8-3.1-2.7c-2.8-1.1-3.8-2.1-3.8-4
			c0-1.9,1.6-3.5,4.6-3.5c1.6,0,2.8,0.3,4,0.9l-0.7,1.6c-0.9-0.5-2.1-0.9-3.4-0.9c-1.7,0-2.7,0.7-2.7,1.8c0,1,0.4,1.5,2.9,2.5
			c3,1.1,4,2.3,4,4.2c0,2.5-2,4-4.9,4c-1.9,0-3.5-0.5-4.5-1.4L1.4,652.4z"/>
		<path fill="#191919" d="M18.8,646.8c-0.7-0.4-1.3-0.5-2.1-0.5c-1.8,0-3.2,1.4-3.2,3.7c0,2.1,1.2,3.7,3.1,3.7c1,0,1.6-0.2,2.4-0.6
			l0.5,1.5c-0.8,0.4-1.8,0.7-3,0.7c-2.9,0-4.7-2.2-4.7-5.3c0-2.9,1.9-5.3,4.9-5.3c1.1,0,2,0.2,2.7,0.6L18.8,646.8z"/>
		<path fill="#191919" d="M23.2,646.6c0.7-1,1.8-1.8,3.3-1.8c2.3,0,3.4,1.5,3.4,3.7v6.5h-1.7v-6.4c0-1.4-0.7-2.4-1.9-2.4
			c-1.2,0-2.3,1-3.1,2.1v6.6h-1.7v-14.3h1.7V646.6z"/>
		<path fill="#191919" d="M37.2,644.8c2.8,0,5,2,5,5.2c0,3.2-2.1,5.3-5,5.3c-2.9,0-5-2.1-5-5.3C32.2,646.8,34.3,644.8,37.2,644.8z
			 M37.2,646.3c-2,0-3.2,1.5-3.2,3.7c0,2,1.4,3.7,3.2,3.7c2,0,3.2-1.5,3.2-3.7C40.4,648,39,646.3,37.2,646.3z"/>
		<path fill="#191919" d="M42.8,645.5l1.6-0.7l3.4,8.3l3.4-8.3l1.5,0.7l-4.1,9.6h-1.8L42.8,645.5z"/>
		<path fill="#191919" d="M58.1,644.8c1.2,0,2.1,0.5,2.8,1V645h1.6v7.6c0,1,0.6,1.2,1.1,1.2l-0.4,1.4c-1.3,0-2-0.5-2.2-1.5
			c-0.6,0.8-1.6,1.6-3.1,1.6c-2.5,0-4.5-2-4.5-5.2C53.3,647.1,55.3,644.8,58.1,644.8z M60.7,652.5v-5.4c-0.7-0.5-1.5-0.8-2.5-0.8
			c-1.9,0-3.1,1.5-3.1,3.7c0,2.2,1.3,3.7,3.1,3.7C59.2,653.7,60.1,653.2,60.7,652.5z M56.3,642.8l3.7-2.4l0.8,1.6l-3.9,2L56.3,642.8
			z"/>
		<path fill="#191919" d="M76,644.8c2.8,0,5,2,5,5.2c0,3.2-2.1,5.3-5,5.3c-2.9,0-5-2.1-5-5.3C71,646.8,73.1,644.8,76,644.8z
			 M76,646.3c-2,0-3.2,1.5-3.2,3.7c0,2,1.4,3.7,3.2,3.7c2,0,3.2-1.5,3.2-3.7C79.2,648,77.8,646.3,76,646.3z"/>
		<path fill="#191919" d="M83.3,640.8H85v8.2l4.5-4.1l1,1.1l-3.9,3.4l4.7,4.7l-1.2,1.2l-5.2-5.4v5.2h-1.7V640.8z"/>
		<path fill="#191919" d="M94.8,646.7c0.7-1.1,1.8-1.9,3.4-1.9c2.3,0,3.4,1.5,3.4,3.7v6.5h-1.7v-6.4c0-1.4-0.7-2.4-1.9-2.4
			c-1.2,0-2.3,1-3,2.1v6.6h-1.7v-10h1.7V646.7z"/>
		<path fill="#191919" d="M108.8,644.8c2.8,0,5,2,5,5.2c0,3.2-2.1,5.3-5,5.3c-2.9,0-5-2.1-5-5.3C103.8,646.8,106,644.8,108.8,644.8z
			 M108.8,646.3c-2,0-3.2,1.5-3.2,3.7c0,2,1.4,3.7,3.2,3.7c2,0,3.2-1.5,3.2-3.7C112.1,648,110.7,646.3,108.8,646.3z"/>
		<path fill="#191919" d="M121.8,652.8c0.7,0.6,1.7,1,2.9,1c1.4,0,2.2-0.5,2.2-1.3c0-0.8-0.5-1.3-2.5-2c-1.9-0.6-2.8-1.4-2.8-3
			c0-1.5,1.4-2.8,3.8-2.8c1.3,0,2.3,0.3,3.1,0.7l-0.5,1.4c-0.7-0.4-1.6-0.7-2.7-0.7c-1.3,0-2,0.7-2,1.3c0,0.6,0.4,1,2,1.5
			c2.5,0.9,3.4,1.8,3.4,3.3c0,1.8-1.6,2.9-4,2.9c-1.5,0-2.8-0.4-3.6-1L121.8,652.8z"/>
		<path fill="#191919" d="M143.5,645.8V645h1.6v9.8c0,3.3-1.9,4.7-4.6,4.7c-1.2,0-2.4-0.3-3.2-0.8l0.6-1.5c0.6,0.5,1.4,0.9,2.6,0.9
			c1.8,0,2.9-0.9,2.9-3v-1.2c-0.5,0.6-1.5,1.3-2.8,1.3c-2.3,0-4.5-1.8-4.5-5.1c0-3,2.1-5.2,4.7-5.2
			C141.9,644.8,142.8,645.2,143.5,645.8z M143.3,652.3v-5.3c-0.6-0.4-1.4-0.8-2.4-0.8c-1.6,0-3.1,1.3-3.1,3.6c0,2.2,1.4,3.6,3.1,3.6
			C142,653.5,142.8,653,143.3,652.3z"/>
		<path fill="#191919" d="M153.5,646.7c-0.2-0.1-0.5-0.2-0.9-0.2c-1.4,0-2.8,1.2-2.8,3.8v4.7h-1.7v-10h1.7v2.2
			c0.5-1.3,1.5-2.4,3.2-2.4c0.4,0,0.8,0,1.1,0.1L153.5,646.7z"/>
		<path fill="#191919" d="M159.3,644.8c1.2,0,2.1,0.5,2.8,1V645h1.6v7.6c0,1,0.6,1.2,1.1,1.2l-0.4,1.4c-1.3,0-2-0.5-2.2-1.5
			c-0.6,0.8-1.6,1.6-3.1,1.6c-2.5,0-4.5-2-4.5-5.2C154.5,647.1,156.5,644.8,159.3,644.8z M161.9,652.5v-5.4
			c-0.7-0.5-1.5-0.8-2.5-0.8c-1.9,0-3.1,1.5-3.1,3.7c0,2.2,1.3,3.7,3.1,3.7C160.4,653.7,161.3,653.2,161.9,652.5z"/>
		<path fill="#191919" d="M172.8,642.6c-0.5-0.3-1.1-0.6-1.9-0.6c-1.1,0-1.8,0.7-1.8,2v1.3h3v1.5h-3v8.2h-1.7v-8.2h-1.5v-1.5h1.5
			v-1.2c0-2.3,1.4-3.7,3.4-3.7c1.1,0,1.8,0.3,2.5,0.6L172.8,642.6z"/>
		<path fill="#191919" d="M174.7,650.7c0.2,1.9,1.4,3,3.1,3c1.2,0,2-0.3,2.9-0.7l0.4,1.5c-0.9,0.4-2.1,0.7-3.5,0.7
			c-2.9,0-4.7-1.9-4.7-5.3c0-3,1.8-5.3,4.5-5.3c2.9,0,4.3,2.1,4.3,4.7c0,0.5,0,0.9-0.1,1.3H174.7z M174.6,649.3h5.5
			c0-2-1-3.1-2.8-3.1C175.9,646.3,174.8,647.3,174.6,649.3z"/>
		<path fill="#191919" d="M185.8,646.7c0.7-1.1,1.8-1.9,3.3-1.9c1.6,0,2.6,0.8,3,2.1c0.8-1.2,1.8-2.1,3.5-2.1c2.2,0,3.2,1.5,3.2,3.7
			v6.5H197v-6.4c0-1.4-0.7-2.3-1.8-2.3c-1.2,0-2.2,1-2.9,2.2v6.6h-1.7v-6.4c0-1.4-0.7-2.3-1.8-2.3c-1.1,0-2.2,1-2.9,2.1v6.6h-1.7
			v-10h1.7V646.7z"/>
	</g>
</g>
</svg>
