<?xml version="1.0" encoding="utf-8"?>
<!-- Generator: Adobe Illustrator 18.0.0, SVG Export Plug-In . SVG Version: 6.00 Build 0)  -->
<!DOCTYPE svg PUBLIC "-//W3C//DTD SVG 1.1//EN" "http://www.w3.org/Graphics/SVG/1.1/DTD/svg11.dtd">
<svg version="1.1" id="Vrstva_1" xmlns="http://www.w3.org/2000/svg" xmlns:xlink="http://www.w3.org/1999/xlink" x="0px" y="0px"
	 viewBox="0 420.7 800 379.3" enable-background="new 0 420.7 800 379.3" xml:space="preserve">
<g id="input">
	<rect x="41.8" y="648.2" fill="#F2F2F2" width="457.1" height="149.8"/>
	<g>
		<path fill="#A09F9F" d="M94.5,666.7c-0.7-0.4-1.3-0.4-2.2-0.4c-1.7,0-3.3,1.3-3.3,3.7c0,2.2,1.3,3.7,3,3.7c0.9,0,1.5-0.2,2.4-0.7
			l0.4,1.5c-0.9,0.4-1.7,0.7-3,0.7c-2.8,0-4.8-2.2-4.8-5.2c0-2.8,2-5.2,4.8-5.2c1.1,0,2,0.2,2.8,0.7L94.5,666.7z"/>
		<path fill="#A09F9F" d="M101.2,664.5c2.8,0,5,2,5,5.2c0,3.2-2.2,5.2-5,5.2s-5-2.2-5-5.2C96.2,666.5,98.4,664.5,101.2,664.5z
			 M101.2,666c-2,0-3.3,1.5-3.3,3.7c0,2,1.3,3.7,3.3,3.7s3.3-1.5,3.3-3.7C104.5,667.8,103,666,101.2,666z"/>
		<path fill="#A09F9F" d="M117.6,675c-1.3,0-2-0.4-2.2-1.5c-0.9,0.9-2.2,1.5-3.5,1.5c-1.7,0-3.5-1.1-3.5-3.7v-6.5h1.7v6.3
			c0,1.5,0.7,2.4,2,2.4c1.1,0,2.2-0.4,2.8-1.1v-7.6h1.7v7.4c0,1.1,0.7,1.3,1.1,1.3L117.6,675z"/>
		<path fill="#A09F9F" d="M121.9,666.5c0.7-1.1,1.7-2,3.5-2c2.2,0,3.5,1.5,3.5,3.7v6.5h-1.7v-6.3c0-1.5-0.7-2.4-2-2.4
			c-1.1,0-2.4,0.9-3,2.2v6.5h-1.7v-10h1.5L121.9,666.5L121.9,666.5z"/>
		<path fill="#A09F9F" d="M132.4,661.9h1.3v3.3h2.8v1.5h-2.8v4.8c0,1.5,0.7,2,1.5,2c0.7,0,1.3-0.2,1.7-0.4l0.4,1.3
			c-0.4,0.2-1.5,0.7-2.4,0.7c-2,0-3-1.3-3-3.7v-4.6h-1.7v-1.5h1.7L132.4,661.9z"/>
		<path fill="#A09F9F" d="M138.2,669.9c0-3,2-5.2,4.4-5.2c1.3,0,2.4,0.7,2.8,1.3v-5.2h1.7v11.8c0,1.1,0.7,1.1,1.1,1.1l-0.4,1.3
			c-1.3,0-2-0.4-2.2-1.5c-0.7,0.9-1.5,1.5-3,1.5C140.2,675,138.2,673,138.2,669.9z M145.6,672.3v-5c-0.4-0.7-1.3-1.3-2.4-1.3
			c-2,0-3,1.7-3,3.7c0,2.2,1.3,3.7,3,3.7C144.1,673.4,145,673,145.6,672.3z"/>
		<path fill="#A09F9F" d="M154.8,664.5c2.8,0,5,2,5,5.2c0,3.2-2.2,5.2-5,5.2s-5-2.2-5-5.2C149.8,666.5,151.9,664.5,154.8,664.5z
			 M154.8,666c-2,0-3.3,1.5-3.3,3.7c0,2,1.3,3.7,3.3,3.7s3.3-1.5,3.3-3.7C158,667.8,156.5,666,154.8,666z"/>
		<path fill="#A09F9F" d="M174.1,664.7l1.5,0.7l-3.3,9.6h-2l-2.4-7.4l-2.4,7.4h-2l-3.3-9.6l1.5-0.7l2.6,8.3l2.4-7.4h2l2.4,7.4
			L174.1,664.7z"/>
		<path fill="#A09F9F" d="M179.4,666.5c0.7-1.1,1.7-2,3.5-2c2.2,0,3.5,1.5,3.5,3.7v6.5h-1.7v-6.3c0-1.5-0.7-2.4-2-2.4
			c-1.1,0-2.4,0.9-3,2.2v6.5H178v-10h1.7v1.7L179.4,666.5L179.4,666.5z"/>
		<path fill="#A09F9F" d="M192.2,676.7l-1.1,0.7c-1.5-2.8-2.6-5.7-2.6-8.5c0-3.3,0.9-5.9,2.6-8.5l1.1,0.7c-0.9,2.2-1.7,4.8-1.7,8.1
			C190.5,672.3,191.3,674.3,192.2,676.7z"/>
		<path fill="#A09F9F" d="M198.1,668l-4.4-5.7l1.5-1.1l3.9,5.4l3.9-5.4l1.5,1.1l-4.1,5.7l4.6,6.1l-1.5,1.1l-4.4-5.9L195,675
			l-1.5-1.1L198.1,668z"/>
		<path fill="#A09F9F" d="M210.9,668l4.1-6.7l1.5,0.9l-4.6,7.6v5.2h-1.7v-5.2l-4.8-7.6l1.5-0.9L210.9,668z"/>
		<path fill="#A09F9F" d="M217.7,660.6l1.1-0.7c1.5,2.6,2.6,5.4,2.6,8.5c0,3-0.9,5.7-2.6,8.5l-1.1-0.7c0.9-2.2,1.7-4.8,1.7-8.1
			C219.4,664.9,218.8,662.8,217.7,660.6z"/>
	</g>
	<rect x="501.3" y="649.9" fill="#ED1A46" width="54" height="149.6"/>
	<rect x="518.1" y="719.8" fill="#FFFFFF" width="20.7" height="3.3"/>
	<rect x="518.1" y="730.2" fill="#FFFFFF" width="20.7" height="3.3"/>
</g>
<g id="frame">
	<rect y="420.7" fill="#303030" width="799.3" height="32.7"/>
	<g id="close_button">
		<rect x="767.6" y="420.7" fill="#C82027" width="32.7" height="32.7"/>
		<g>
			<path fill="#FFFFFF" d="M14.4,437.7l-5.2,6.7h8.5v1.1h-10v-0.9l5.4-7.2l-5.4-6.3V430h10v1.1H9.4l0,0l5,6.1
				C14.4,437.2,14.4,437.7,14.4,437.7z"/>
		</g>
		<polygon fill="#FFFFFF" points="17.6,431.1 17,431.1 17.6,432 		"/>
		<polygon fill="#FFFFFF" points="17.6,444.4 17,444.4 17.6,443.8 		"/>
		<rect x="8.7" y="435.1" fill="#C82027" width="7.8" height="1.3"/>
		<rect x="8.7" y="439" fill="#C82027" width="7.8" height="1.3"/>
		
			<rect x="783.4" y="424.1" transform="matrix(0.7071 -0.7071 0.7071 0.7071 -79.3206 682.1802)" fill="#E1E1E1" width="0.9" height="25.5"/>
		
			<rect x="783.3" y="424.2" transform="matrix(-0.7071 -0.7071 0.7071 -0.7071 1028.9769 1300.0576)" fill="#E1E1E1" width="0.9" height="25.5"/>
	</g>
	<g>
		<path fill="#F7F7F7" d="M28.1,445.5v-15.7h4.6c1.5,0,2.8,0.4,3.9,1.1c0.9,0.7,1.3,1.7,1.3,3c0,0.9-0.2,1.5-0.7,2.2
			c-0.4,0.7-1.1,1.1-2,1.3c0.9,0.2,1.7,0.7,2.4,1.3c0.7,0.7,0.9,1.5,0.9,2.6c0,1.3-0.4,2.4-1.3,3.3c-0.9,0.7-2.2,1.1-3.7,1.1h-5.4
			C28.1,445.7,28.1,445.5,28.1,445.5z M29.4,436.8h3.7c1.1,0,2-0.2,2.6-0.7c0.7-0.4,0.9-1.3,0.9-2.2c0-1.1-0.4-1.7-1.1-2.2
			c-0.7-0.4-1.5-0.7-2.8-0.7h-3.3C29.4,431.1,29.4,436.8,29.4,436.8z M29.4,437.9v6.5h4.1c1.1,0,2-0.2,2.8-0.9
			c0.7-0.7,1.1-1.3,1.1-2.4c0-0.9-0.2-1.7-0.9-2.4s-1.5-0.9-2.6-0.9C34,437.9,29.4,437.9,29.4,437.9z"/>
		<path fill="#F7F7F7" d="M49,445.5c0-0.4-0.2-0.7-0.2-1.1c0-0.2,0-0.7,0-0.9c-0.4,0.7-1.1,1.1-1.7,1.5c-0.7,0.4-1.5,0.7-2.4,0.7
			c-1.1,0-2-0.2-2.6-0.9s-0.9-1.3-0.9-2.4s0.4-2,1.3-2.6c0.9-0.7,2.2-0.9,3.7-0.9h2.6v-1.5c0-0.9-0.2-1.5-0.9-2
			c-0.7-0.4-1.3-0.7-2.2-0.7s-1.7,0.2-2.2,0.7c-0.4,0.4-0.9,1.1-0.9,1.7h-1.1l0,0c0-0.9,0.4-1.7,1.1-2.4c0.7-0.7,2-1.1,3.3-1.1
			s2.4,0.4,3,1.1c0.9,0.7,1.1,1.5,1.1,2.8v5.7c0,0.4,0,0.9,0,1.1s0.2,0.9,0.2,1.1L49,445.5L49,445.5z M44.6,444.6
			c0.9,0,1.7-0.2,2.4-0.7c0.7-0.4,1.3-1.1,1.5-1.7v-2.4h-2.6c-1.1,0-2.2,0.2-2.8,0.7c-0.7,0.4-1.1,1.1-1.1,2c0,0.7,0.2,1.1,0.7,1.5
			C43.3,444.4,44,444.6,44.6,444.6z"/>
		<path fill="#F7F7F7" d="M58.8,435.1h-0.9c-0.9,0-1.5,0.2-2,0.7c-0.4,0.4-0.9,1.1-1.1,2v8.1h-1.3v-12h0.9l0.2,2v0.2
			c0.4-0.7,0.9-1.3,1.3-1.7c0.4-0.4,1.3-0.7,2-0.7c0.2,0,0.2,0,0.4,0c0.4,0.2,0.4,0.2,0.7,0.2L58.8,435.1z"/>
		<path fill="#F7F7F7" d="M70.3,440.1c0,1.7-0.4,3-1.1,4.1c-0.9,1.1-2,1.5-3.3,1.5c-0.9,0-1.5-0.2-2.2-0.4c-0.7-0.2-1.1-0.9-1.5-1.5
			l-0.2,1.7h-1v-16.8h1.3v7c0.4-0.7,0.9-1.1,1.5-1.5c0.7-0.4,1.3-0.4,2.2-0.4c1.3,0,2.4,0.7,3.3,1.7
			C70.1,436.6,70.3,438.1,70.3,440.1L70.3,440.1z M69,439.9c0-1.5-0.2-2.6-0.9-3.7c-0.7-0.9-1.5-1.3-2.6-1.3c-0.9,0-1.5,0.2-2.2,0.7
			c-0.7,0.4-0.9,1.1-1.3,1.7v5.2c0.2,0.7,0.7,1.3,1.3,1.5c0.7,0.4,1.3,0.7,2.2,0.7c1.1,0,2-0.4,2.6-1.3
			C68.8,442.5,69,441.4,69,439.9L69,439.9z"/>
		<path fill="#F7F7F7" d="M74.7,430.5h-1.3v-1.7h1.3V430.5z M74.7,445.5h-1.3v-11.8h1.3V445.5z"/>
		<path fill="#F7F7F7" d="M82.5,445.7c-1.5,0-2.6-0.4-3.7-1.5c-0.9-1.1-1.5-2.4-1.5-4.1v-0.7c0-1.7,0.4-3,1.5-4.1
			c0.9-1.1,2.2-1.7,3.5-1.7c1.5,0,2.6,0.4,3.5,1.3c0.9,1.1,1.3,2.2,1.3,3.7v1.1h-8.3v0.2c0,1.3,0.4,2.4,1.1,3.3s1.5,1.3,2.8,1.3
			c0.9,0,1.5-0.2,2-0.4c0.4-0.2,1.1-0.4,1.5-0.9l0.7,0.9c-0.4,0.4-1.1,0.9-1.7,1.1C84.2,445.5,83.6,445.7,82.5,445.7z M82.5,434.8
			c-0.9,0-1.7,0.4-2.4,1.1c-0.7,0.7-1.1,1.7-1.1,2.8l0,0h6.7v-0.4c0-1.1-0.2-2-0.9-2.6C84.2,435.1,83.4,434.8,82.5,434.8z"/>
		<path fill="#F7F7F7" d="M106,440.7L106,440.7c-0.2,1.7-0.7,2.8-1.7,3.7c-1.1,0.9-2.4,1.3-3.9,1.3c-1.7,0-3-0.7-4.1-2
			s-1.5-2.8-1.5-5v-2.4c0-2,0.4-3.7,1.5-5s2.4-2,4.1-2s3,0.4,3.9,1.3c0.9,0.9,1.5,2.2,1.7,3.7l0,0h-1.3c-0.2-1.3-0.7-2.4-1.3-3
			s-1.7-1.1-3-1.1s-2.4,0.4-3.3,1.5s-1.3,2.4-1.3,4.1v2.6c0,1.7,0.4,3,1.3,4.1s2,1.5,3.3,1.5s2.4-0.4,3-1.1c0.7-0.7,1.1-1.7,1.3-3
			h1.3V440.7z"/>
		<path fill="#F7F7F7" d="M116.5,445.5c0-0.4-0.2-0.7-0.2-1.1c0-0.2,0-0.7,0-0.9c-0.4,0.7-1.1,1.1-1.7,1.5c-0.6,0.4-1.5,0.7-2.4,0.7
			c-1.1,0-2-0.2-2.6-0.9c-0.7-0.7-0.9-1.3-0.9-2.4s0.4-2,1.3-2.6c0.9-0.7,2.2-0.9,3.7-0.9h2.6v-1.5c0-0.9-0.2-1.5-0.9-2
			s-1.3-0.7-2.2-0.7s-1.7,0.2-2.2,0.7c-0.4,0.4-0.9,1.1-0.9,1.7H109l0,0c0-0.9,0.4-1.7,1.1-2.4c0.7-0.7,2-1.1,3.3-1.1s2.4,0.4,3,1.1
			c0.7,0.4,1.1,1.3,1.1,2.6v5.7c0,0.4,0,0.9,0,1.1s0.2,0.9,0.2,1.1h-1.3L116.5,445.5L116.5,445.5z M112.3,444.6
			c0.9,0,1.7-0.2,2.4-0.7c0.7-0.4,1.3-1.1,1.5-1.7v-2.4h-2.6c-1.1,0-2.2,0.2-2.8,0.7s-1.1,1.1-1.1,2c0,0.7,0.2,1.1,0.7,1.5
			C110.8,444.4,111.5,444.6,112.3,444.6z"/>
		<path fill="#F7F7F7" d="M122.3,445.5H121v-16.8h1.3V445.5z"/>
		<path fill="#F7F7F7" d="M130.4,444.6c0.9,0,1.5-0.2,2.2-0.7c0.7-0.4,1.1-1.1,1.1-2h1.1l0,0c0,1.1-0.4,2-1.3,2.6
			c-0.9,0.7-2,1.1-3,1.1c-1.5,0-2.8-0.7-3.7-1.7c-0.9-1.1-1.3-2.4-1.3-4.1v-0.4c0-1.7,0.4-3,1.3-4.1c0.9-1.1,2.2-1.7,3.7-1.7
			c1.3,0,2.4,0.4,3.3,1.1c0.9,0.7,1.3,1.7,1.3,3l0,0H134c0-0.9-0.2-1.7-0.9-2.2c-0.7-0.7-1.3-0.9-2.4-0.9c-1.3,0-2.2,0.4-2.8,1.3
			c-0.7,0.9-1.1,2.2-1.1,3.5v0.4c0,1.3,0.2,2.6,0.9,3.5C128.2,444.2,129.1,444.6,130.4,444.6z"/>
		<path fill="#F7F7F7" d="M145,443.6c-0.4,0.7-0.9,1.3-1.5,1.5c-0.7,0.4-1.3,0.7-2.2,0.7c-1.3,0-2.2-0.4-2.8-1.3
			c-0.7-0.9-1.1-2.2-1.1-3.9v-6.7h1.3v6.7c0,1.5,0.2,2.4,0.7,3c0.4,0.7,1.1,0.9,2,0.9s1.7-0.2,2.4-0.7s1.1-1.1,1.3-1.7v-8.3h1.3
			v11.8h-1.1L145,443.6z"/>
		<path fill="#F7F7F7" d="M151.1,445.5h-1.3v-16.8h1.3V445.5z"/>
		<path fill="#F7F7F7" d="M162.2,445.5c0-0.4-0.2-0.7-0.2-1.1c0-0.2,0-0.7,0-0.9c-0.4,0.7-1.1,1.1-1.7,1.5c-0.7,0.4-1.5,0.7-2.4,0.7
			c-1.1,0-2-0.2-2.6-0.9s-0.9-1.3-0.9-2.4s0.4-2,1.3-2.6c0.9-0.7,2.2-0.9,3.7-0.9h2.6v-1.5c0-0.9-0.2-1.5-0.9-2s-1.3-0.7-2.2-0.7
			s-1.7,0.2-2.2,0.7s-0.9,1.1-0.9,1.7h-1.1l0,0c0-0.9,0.4-1.7,1.1-2.4c0.7-0.7,2-1.1,3.3-1.1s2.4,0.4,3,1.1c0.9,0.7,1.1,1.5,1.1,2.8
			v5.7c0,0.4,0,0.9,0,1.1s0.2,0.9,0.2,1.1L162.2,445.5L162.2,445.5z M157.8,444.6c0.9,0,1.7-0.2,2.4-0.7c0.7-0.4,1.3-1.1,1.5-1.7
			v-2.4h-2.6c-1.1,0-2.2,0.2-2.8,0.7c-0.7,0.4-1.1,1.1-1.1,2c0,0.7,0.2,1.1,0.7,1.5C156.5,444.4,157.2,444.6,157.8,444.6z"/>
		<path fill="#F7F7F7" d="M168.7,430.9v2.8h2.6v1.1h-2.6v7.6c0,0.9,0.2,1.3,0.4,1.5c0.2,0.2,0.7,0.4,1.1,0.4c0.2,0,0.4,0,0.7,0
			c0.2,0,0.4,0,0.7,0l0.2,0.9c-0.2,0-0.4,0.2-0.9,0.2c-0.4,0-0.7,0-0.9,0c-0.9,0-1.5-0.2-2-0.9c-0.4-0.4-0.7-1.3-0.7-2.4v-7.4h-2
			v-1.1h2v-2.8L168.7,430.9L168.7,430.9z"/>
		<path fill="#F7F7F7" d="M173.1,439.4c0-1.7,0.4-3,1.3-4.1c0.9-1.1,2.2-1.7,3.7-1.7s2.8,0.7,3.7,1.7c0.9,1.1,1.3,2.6,1.3,4.1v0.4
			c0,1.7-0.4,3-1.3,4.1c-0.9,1.1-2.2,1.7-3.7,1.7s-2.8-0.7-3.7-1.7c-0.9-1.1-1.3-2.6-1.3-4.1V439.4z M174.4,439.9
			c0,1.3,0.4,2.4,1.1,3.5c0.7,0.9,1.7,1.3,2.8,1.3c1.3,0,2.2-0.4,2.8-1.3c0.7-0.9,1.1-2,1.1-3.5v-0.4c0-1.3-0.4-2.4-1.1-3.5
			c-0.7-0.9-1.7-1.3-2.8-1.3c-1.3,0-2.2,0.4-2.8,1.3c-0.7,0.9-1.1,2-1.1,3.5V439.9z"/>
		<path fill="#F7F7F7" d="M191.3,435.1h-0.9c-0.9,0-1.5,0.2-2,0.7c-0.4,0.4-0.9,1.1-1.1,2v8.1H186v-12h1.1v2v0.2
			c0.4-0.7,0.9-1.3,1.3-1.7s1.3-0.7,2-0.7c0.2,0,0.2,0,0.4,0s0.2,0,0.4,0L191.3,435.1z"/>
	</g>
</g>
<g id="display">
	<rect y="453.3" fill="#F7F7F7" width="553.8" height="197.2"/>
	<g>
		<path fill="#303030" d="M417.5,547.2c0,5-1.1,8.9-3.5,11.5c-2.2,2.6-5.4,3.9-9.4,3.9s-7-1.3-9.4-3.9s-3.5-6.5-3.5-11.5v-8.9
			c0-5,1.1-8.9,3.5-11.5c2.4-2.6,5.4-3.9,9.4-3.9s7,1.3,9.4,3.9c2.4,2.6,3.5,6.5,3.5,11.5V547.2z M411,537.4c0-3.3-0.4-5.4-1.5-7
			c-1.1-1.5-2.6-2.4-4.6-2.4s-3.5,0.9-4.6,2.4s-1.5,3.9-1.5,7v10.7c0,3.3,0.4,5.7,1.5,7.2s2.6,2.4,4.6,2.4s3.5-0.9,4.6-2.4
			s1.5-3.9,1.5-7.2V537.4z"/>
		<path fill="#303030" d="M430.8,562.2h-6.5v-6.3h6.5V562.2z"/>
		<path fill="#303030" d="M460.2,548.3h5v5.2h-5v8.7h-6.5v-8.7h-16.5l-0.2-3.9l16.5-26.1h6.7V548.3z M443.4,548.3h10.4v-15.7h-0.2
			l-0.4,1.1L443.4,548.3z"/>
		<path fill="#303030" d="M491.1,548.3h5v5.2h-5v8.7h-6.5v-8.7H468l-0.2-3.9l16.5-26.1h6.7v24.8H491.1z M474.3,548.3h10.4v-15.7
			h-0.2l-0.4,1.1L474.3,548.3z"/>
		<path fill="#303030" d="M522.2,548.3h5v5.2h-5v8.7h-6.5v-8.7h-16.5l-0.2-3.9l16.5-26.1h6.7V548.3z M505.3,548.3h10.4v-15.7h-0.2
			l-0.4,1.1L505.3,548.3z"/>
	</g>
</g>
<g id="extension">
	<rect x="232.5" y="615.5" display="none" fill="#303030" width="47" height="348.1"/>
	<rect y="649.9" fill="#2B2B2B" width="43.5" height="21.6"/>
	<g>
		<path fill="#FFFFFF" d="M16.5,661c0,0.9-0.2,1.7-0.7,2.4s-1.1,0.9-1.7,0.9c-0.4,0-0.9,0-1.3-0.2c-0.4-0.2-0.7-0.4-0.9-0.7v3.5H11
			V658h0.7v1.1c0.2-0.4,0.4-0.7,0.9-0.9c0.4-0.2,0.7-0.2,1.3-0.2c0.9,0,1.3,0.2,1.7,0.9C16.3,659.1,16.5,659.9,16.5,661L16.5,661z
			 M15.7,660.8c0-0.9-0.2-1.5-0.4-2c-0.4-0.4-0.9-0.9-1.5-0.9c-0.4,0-0.9,0.2-1.1,0.4c-0.2,0.2-0.4,0.4-0.7,0.9v3
			c0.2,0.4,0.4,0.7,0.7,0.9c0.2,0.2,0.7,0.2,1.1,0.2c0.7,0,1.1-0.2,1.5-0.7C15.7,662.3,15.7,661.7,15.7,660.8L15.7,660.8z"/>
		<path fill="#FFFFFF" d="M17.6,660.8c0-0.9,0.2-1.7,0.9-2.4c0.7-0.7,1.3-0.9,2.2-0.9c0.9,0,1.5,0.2,2.2,0.9
			c0.7,0.7,0.9,1.3,0.9,2.4v0.2c0,0.9-0.2,1.7-0.9,2.4s-1.3,0.9-2.2,0.9c-0.9,0-1.5-0.2-2.2-0.9C17.9,662.8,17.6,661.9,17.6,660.8
			L17.6,660.8z M18.5,660.8c0,0.7,0.2,1.3,0.7,2c0.4,0.7,0.9,0.9,1.5,0.9c0.7,0,1.3-0.2,1.5-0.9c0.4-0.4,0.7-1.1,0.7-2v-0.2
			c0-0.7-0.2-1.3-0.7-2c-0.4-0.4-0.9-0.9-1.5-0.9c-0.7,0-1.3,0.2-1.5,0.9C18.9,659.3,18.5,659.9,18.5,660.8L18.5,660.8z"/>
		<path fill="#FFFFFF" d="M26.3,661.9l0.2,1.1l0,0l0.2-1.1l1.3-4.4h0.7l1.3,4.4l0.2,1.1l0,0l0.2-1.1l1.1-4.4h0.7l-2,6.5h0.2
			l-1.5-4.4l-0.2-1.1l0,0l-0.2,1.1L27,664h-0.7l-2-6.5H25L26.3,661.9z"/>
	</g>
	<rect y="671.3" fill="#2B2B2B" width="43.5" height="21.6"/>
	<g>
		<path fill="#EE1D3E" d="M14.8,679.5h-0.4c-0.4,0-0.9,0.2-1.1,0.4c-0.2,0.2-0.4,0.7-0.7,1.1v4.6h-0.9v-6.5h0.7v1.1l0,0
			c0.2-0.4,0.4-0.7,0.7-0.9c0.2-0.2,0.7-0.4,1.1-0.4h0.2h0.2L14.8,679.5z"/>
		<path fill="#EE1D3E" d="M15.5,682.1c0-0.9,0.2-1.7,0.9-2.4c0.7-0.7,1.3-0.9,2.2-0.9c0.9,0,1.5,0.2,2.2,0.9s0.9,1.3,0.9,2.4v0.2
			c0,0.9-0.2,1.7-0.9,2.4s-1.3,0.9-2.2,0.9c-0.9,0-1.5-0.2-2.2-0.9C15.7,684.1,15.5,683.2,15.5,682.1L15.5,682.1z M16.1,682.1
			c0,0.7,0.2,1.3,0.7,2c0.5,0.7,0.9,0.9,1.5,0.9c0.7,0,1.3-0.2,1.5-0.9c0.4-0.4,0.7-1.1,0.7-2v-0.2c0-0.7-0.2-1.3-0.7-2
			c-0.4-0.4-0.9-0.9-1.5-0.9c-0.7,0-1.3,0.2-1.5,0.9C16.5,680.6,16.1,681.3,16.1,682.1L16.1,682.1z"/>
		<path fill="#EE1D3E" d="M22.4,682.1c0-0.9,0.2-1.7,0.9-2.4c0.7-0.7,1.3-0.9,2.2-0.9c0.9,0,1.5,0.2,2.2,0.9s0.9,1.3,0.9,2.4v0.2
			c0,0.9-0.2,1.7-0.9,2.4s-1.3,0.9-2.2,0.9c-0.9,0-1.5-0.2-2.2-0.9C22.6,684.1,22.4,683.2,22.4,682.1L22.4,682.1z M23.1,682.1
			c0,0.7,0.2,1.3,0.7,2c0.4,0.7,0.9,0.9,1.5,0.9c0.7,0,1.3-0.2,1.5-0.9c0.4-0.4,0.7-1.1,0.7-2v-0.2c0-0.7-0.2-1.3-0.7-2
			c-0.4-0.4-0.9-0.9-1.5-0.9c-0.7,0-1.3,0.2-1.5,0.9C23.5,680.6,23.1,681.3,23.1,682.1L23.1,682.1z"/>
		<path fill="#EE1D3E" d="M30.7,677.1v1.7h1.5v0.7h-1.5v4.4c0,0.4,0,0.7,0.2,0.9c0.2,0.2,0.4,0.2,0.7,0.2s0.2,0,0.4,0s0.2,0,0.4,0
			v0.4c-0.2,0-0.2,0-0.4,0.2c-0.2,0-0.4,0-0.4,0c-0.4,0-0.9-0.2-1.1-0.4c-0.2-0.2-0.4-0.7-0.4-1.3v-4.4H29v-0.7h1v-1.7L30.7,677.1
			L30.7,677.1z"/>
	</g>
	<rect y="692.8" fill="#2B2B2B" width="43.5" height="21.6"/>
	<g>
		<path fill="#FFFFFF" d="M12.6,707v-5.9h-1.1v-0.7h1.1v-1.1c0-0.7,0.2-1.1,0.4-1.5c0.4-0.4,0.9-0.4,1.3-0.4c0.2,0,0.2,0,0.4,0
			s0.2,0,0.4,0v0.7H15c0,0-0.2,0-0.4,0c-0.4,0-0.7,0.2-0.9,0.4c-0.2,0.2-0.2,0.7-0.2,1.1v0.9H15v0.7h-1.5v5.9h-0.9V707z"/>
		<path fill="#FFFFFF" d="M20.2,707c0-0.2,0-0.4,0-0.7c0-0.2,0-0.2,0-0.4c-0.2,0.4-0.7,0.7-0.9,0.9c-0.4,0.2-0.9,0.4-1.3,0.4
			c-0.7,0-1.1-0.2-1.5-0.4c-0.4-0.4-0.4-0.9-0.4-1.3c0-0.7,0.2-1.1,0.9-1.5c0.4-0.4,1.3-0.4,2.2-0.4h1.5v-0.9c0-0.4-0.2-0.9-0.4-1.1
			c-0.2-0.2-0.7-0.4-1.3-0.4c-0.4,0-0.9,0.2-1.3,0.4s-0.4,0.7-0.4,0.9h-0.7l0,0c0-0.4,0.2-0.9,0.7-1.3c0.4-0.4,1.1-0.7,1.7-0.7
			s1.3,0.2,1.7,0.7c0.4,0.4,0.7,0.9,0.7,1.5v3.3c0,0.2,0,0.4,0,0.7c0,0.2,0,0.4,0.2,0.7h-1.3V707H20.2z M18.1,706.3
			c0.4,0,0.9-0.2,1.3-0.4c0.4-0.2,0.7-0.7,0.9-0.9v-1.3h-1.5c-0.7,0-1.1,0.2-1.5,0.4s-0.7,0.7-0.7,1.1c0,0.4,0.2,0.7,0.4,0.9
			C17.2,706.3,17.6,706.3,18.1,706.3z"/>
		<path fill="#FFFFFF" d="M25.3,706.3c0.4,0,0.9-0.2,1.3-0.4c0.4-0.2,0.7-0.7,0.7-1.1H28l0,0c0,0.7-0.2,1.1-0.7,1.5
			c-0.4,0.4-1.1,0.7-1.7,0.7c-0.9,0-1.5-0.2-2-0.9c-0.4-0.7-0.7-1.3-0.7-2.4v-0.2c0-0.9,0.2-1.7,0.7-2.4c0.4-0.7,1.1-0.9,2-0.9
			c0.7,0,1.3,0.2,1.7,0.7c0.4,0.4,0.7,0.9,0.7,1.7l0,0h-0.7c0-0.4-0.2-0.9-0.4-1.3c-0.4-0.2-0.9-0.4-1.3-0.4c-0.7,0-1.3,0.2-1.5,0.7
			c-0.4,0.4-0.4,1.1-0.4,2v0.2c0,0.9,0.2,1.3,0.4,2C23.9,706.1,24.6,706.3,25.3,706.3z"/>
		<path fill="#FFFFFF" d="M30.5,698.7v1.7H32v0.7h-1.5v4.4c0,0.4,0,0.7,0.2,0.9c0.2,0.2,0.4,0.2,0.7,0.2s0.2,0,0.4,0s0.2,0,0.4,0
			v0.4c-0.2,0-0.2,0-0.4,0.2c-0.2,0-0.4,0-0.4,0c-0.4,0-0.9-0.2-1.1-0.4c-0.2-0.2-0.4-0.7-0.4-1.3v-4.4h-1.1v-0.7h1.1v-1.7
			L30.5,698.7L30.5,698.7z"/>
	</g>
	<rect y="714.1" fill="#2B2B2B" width="43.5" height="21.6"/>
	<g>
		<path fill="#FFFFFF" d="M13.5,722.4h-0.4c-0.4,0-0.9,0.2-1.1,0.4c-0.2,0.2-0.4,0.7-0.7,1.1v4.6h-0.9V722h0.7v1.1l0,0
			c0.2-0.4,0.4-0.7,0.7-0.9c0.2-0.2,0.7-0.4,1.1-0.4h0.2h0.2L13.5,722.4z"/>
		<path fill="#FFFFFF" d="M18.7,728.3c0-0.2,0-0.4,0-0.7c0-0.2,0-0.2,0-0.4c-0.2,0.4-0.7,0.7-0.9,0.9c-0.4,0.2-0.9,0.4-1.3,0.4
			c-0.7,0-1.1-0.2-1.5-0.4c-0.4-0.4-0.4-0.9-0.4-1.3c0-0.7,0.2-1.1,0.9-1.5c0.4-0.4,1.3-0.4,2.2-0.4h1.5V724c0-0.4-0.2-0.9-0.4-1.1
			c-0.2-0.2-0.7-0.4-1.3-0.4c-0.4,0-0.9,0.2-1.3,0.4c-0.4,0.2-0.9,0.2-0.9,0.7h-0.7l0,0c0-0.4,0.2-0.9,0.7-1.3
			c0.4-0.4,1.1-0.7,1.7-0.7c0.7,0,1.3,0.2,1.7,0.7s0.7,0.9,0.7,1.5v3.3c0,0.2,0,0.4,0,0.7c0,0.2,0,0.4,0.2,0.7h-0.9V728.3z
			 M16.3,727.6c0.4,0,0.9-0.2,1.3-0.4c0.4-0.2,0.7-0.7,0.9-0.9V725h-1.3c-0.7,0-1.1,0.2-1.5,0.4c-0.4,0.2-0.7,0.7-0.7,1.1
			c0,0.4,0.2,0.7,0.4,0.9C15.7,727.6,15.9,727.6,16.3,727.6z"/>
		<path fill="#FFFFFF" d="M22,721.8v1.1c0.2-0.4,0.4-0.7,0.9-0.9s0.9-0.4,1.3-0.4c0.7,0,1.3,0.2,1.5,0.7c0.4,0.4,0.7,1.1,0.7,2v3.9
			h-0.7v-3.9c0-0.7-0.2-1.3-0.4-1.5c-0.2-0.2-0.7-0.4-1.1-0.4s-0.9,0.2-1.3,0.4c-0.2,0.2-0.7,0.7-0.7,1.1v4.6h-0.9V722L22,721.8
			L22,721.8z"/>
		<path fill="#FFFFFF" d="M27.9,725c0-1.1,0.2-2,0.7-2.4c0.4-0.7,1.1-0.9,1.7-0.9c0.4,0,0.9,0,1.1,0.2c0.4,0.2,0.7,0.4,0.9,0.9v-3.9
			H33v9.4h-0.7v-0.9c-0.2,0.4-0.4,0.7-0.9,0.9c-0.4,0.2-0.7,0.2-1.3,0.2c-0.9,0-1.3-0.2-1.7-0.9C28.1,727,27.9,726.1,27.9,725
			L27.9,725z M28.5,725.2c0,0.9,0.2,1.5,0.4,2s0.9,0.7,1.5,0.7c0.4,0,0.9,0,1.1-0.2c0.2-0.2,0.7-0.4,0.7-0.9v-3
			c-0.2-0.4-0.4-0.7-0.7-0.9c-0.2-0.2-0.7-0.4-1.1-0.4c-0.7,0-1.1,0.2-1.5,0.9C28.7,723.5,28.5,724.2,28.5,725.2L28.5,725.2z"/>
	</g>
	<rect y="735.7" fill="#2B2B2B" width="43.5" height="21.6"/>
	<g>
		<path fill="#FFFFFF" d="M15.2,749.6h-0.7v-9.3h0.7V749.6z"/>
		<path fill="#FFFFFF" d="M17,746.4c0-0.9,0.2-1.7,0.9-2.4c0.7-0.7,1.3-0.9,2.2-0.9c0.9,0,1.5,0.2,2.2,0.9c0.7,0.7,0.9,1.3,0.9,2.4
			v0.2c0,0.9-0.2,1.7-0.9,2.4c-0.7,0.7-1.3,0.9-2.2,0.9c-0.9,0-1.5-0.2-2.2-0.9C17.2,748.3,17,747.4,17,746.4L17,746.4z M17.6,746.6
			c0,0.7,0.2,1.3,0.7,2c0.4,0.7,0.9,0.9,1.5,0.9c0.7,0,1.3-0.2,1.5-0.9c0.4-0.4,0.7-1.1,0.7-2v-0.2c0-0.7-0.2-1.3-0.7-2
			c-0.4-0.4-0.9-0.9-1.5-0.9c-0.7,0-1.3,0.2-1.5,0.9C18.1,745,17.6,745.7,17.6,746.6L17.6,746.6z"/>
		<path fill="#FFFFFF" d="M23.9,746.6c0-1.1,0.2-2,0.7-2.4c0.4-0.7,1.1-0.9,2-0.9c0.4,0,0.9,0,1.3,0.2c0.4,0.2,0.7,0.4,0.9,0.9v-1.1
			h0.7v6.5c0,0.9-0.2,1.5-0.7,2c-0.4,0.4-1.1,0.7-2,0.7c-0.2,0-0.7,0-1.1-0.2c-0.4,0-0.7-0.2-0.9-0.2l0.2-0.7
			c0.2,0.2,0.4,0.2,0.9,0.2c0.2,0,0.7,0,0.9,0c0.7,0,1.1-0.2,1.5-0.7c0.2-0.4,0.4-0.9,0.4-1.5v-0.9c-0.2,0.4-0.4,0.7-0.9,0.9
			c-0.4,0.2-0.7,0.2-1.1,0.2c-0.9,0-1.3-0.2-1.7-0.9C24.2,748.3,23.9,747.7,23.9,746.6L23.9,746.6z M24.6,746.6c0,0.9,0.2,1.3,0.4,2
			c0.2,0.4,0.9,0.7,1.5,0.7c0.4,0,0.9,0,1.1-0.2c0.2-0.2,0.7-0.4,0.7-0.9v-3c-0.2-0.4-0.4-0.7-0.7-0.9c-0.2-0.2-0.7-0.4-1.1-0.4
			c-0.7,0-1.1,0.2-1.5,0.9C24.6,745.3,24.6,745.7,24.6,746.6L24.6,746.6z"/>
	</g>
	<rect y="757" fill="#2B2B2B" width="43.5" height="21.6"/>
	<g>
		<g>
			<path fill="#FFFFFF" d="M22,771.2c-0.9,0-1.5-0.2-2-0.9c-0.4-0.7-0.9-1.3-0.9-2.4v-0.4c0-0.9,0.2-1.7,0.9-2.4
				c0.7-0.7,1.1-0.9,2-0.9s1.5,0.2,2,0.7s0.7,1.1,0.7,2v0.7h-4.8v0.2c0,0.7,0.2,1.3,0.7,1.7s0.9,0.7,1.5,0.7c0.4,0,0.9,0,1.1-0.2
				c0.2-0.2,0.7-0.2,0.9-0.4l0.2,0.4c-0.2,0.2-0.7,0.4-0.9,0.7C23.1,770.7,22.6,771.2,22,771.2z M22,765.1c-0.4,0-1.1,0.2-1.3,0.7
				c-0.4,0.4-0.7,0.9-0.7,1.5l0,0h3.9v-0.2c0-0.7-0.2-1.1-0.4-1.5C22.9,765.3,22.4,765.1,22,765.1z"/>
		</g>
	</g>
	<rect y="778.6" fill="#2B2B2B" width="43.5" height="21.6"/>
	<g>
		<path fill="#FFFFFF" d="M23.1,789.5c0,0.9-0.2,1.7-0.7,2.4c-0.5,0.7-1.1,0.9-1.7,0.9c-0.4,0-0.9,0-1.3-0.2
			c-0.4-0.2-0.7-0.4-0.9-0.7v3.5h-0.7v-8.9h0.7v1.1c0.2-0.4,0.4-0.7,0.9-0.9c0.4-0.2,0.7-0.2,1.3-0.2c0.9,0,1.3,0.2,1.7,0.9
			C22.9,787.5,23.1,788.4,23.1,789.5L23.1,789.5z M22.4,789.2c0-0.9-0.2-1.5-0.4-2c-0.4-0.4-0.9-0.9-1.5-0.9c-0.4,0-0.9,0.2-1.1,0.4
			c-0.2,0.2-0.4,0.4-0.7,0.9v3c0.2,0.4,0.4,0.7,0.7,0.9c0.2,0.2,0.7,0.2,1.1,0.2c0.7,0,1.1-0.2,1.5-0.7
			C22.2,790.8,22.4,790.3,22.4,789.2L22.4,789.2z"/>
		<path fill="#FFFFFF" d="M25.7,784.2H25v-1.1h0.7V784.2z M25.7,792.5H25V786h0.7V792.5z"/>
	</g>
</g>
<g id="soustavy">
	<g>
		<path fill="#EF4323" d="M13.3,616v-7.4h2.2c0.9,0,1.3,0.2,1.7,0.4c0.4,0.2,0.7,0.9,0.7,1.5c0,0.4,0,0.7-0.2,1.1s-0.4,0.4-0.9,0.7
			c0.4,0,0.9,0.2,1.1,0.7s0.4,0.7,0.4,1.1c0,0.7-0.2,1.1-0.7,1.5c-0.5,0.4-1.1,0.4-1.7,0.4L13.3,616L13.3,616z M13.9,611.8h1.7
			c0.4,0,0.9-0.2,1.3-0.4c0.2-0.2,0.4-0.7,0.4-1.1c0-0.4-0.2-0.9-0.4-1.1c-0.2-0.2-0.7-0.4-1.3-0.4h-1.7V611.8z M13.9,612.5v3h2
			c0.4,0,0.9-0.2,1.3-0.4c0.2-0.2,0.4-0.7,0.4-1.1c0-0.4-0.2-0.9-0.4-1.1s-0.7-0.4-1.3-0.4H13.9L13.9,612.5z"/>
		<path fill="#EF4323" d="M20.5,616h-0.7v-7.4h0.7C20.5,608.6,20.5,616,20.5,616z"/>
		<path fill="#EF4323" d="M27.9,616h-0.7l-4.1-6.3l0,0v6.3h-0.7v-7.4h0.7l4.1,6.3l0,0v-6.3h0.7V616z"/>
		<path d="M44.8,616h-0.7v-6.7l-2,0.2v-0.4l2.4-0.4v7.4h0.3V616z"/>
		<path d="M52.5,613.1c0,0.9-0.2,1.7-0.7,2.2s-1.1,0.9-1.7,0.9c-0.7,0-1.3-0.2-1.7-0.9c-0.4-0.4-0.7-1.3-0.7-2.2v-1.7
			c0-0.9,0.2-1.7,0.7-2.2c0.4-0.4,1.1-0.9,1.7-0.9c0.7,0,1.3,0.2,1.7,0.9c0.4,0.7,0.7,1.3,0.7,2.2V613.1z M52,611.4
			c0-0.7-0.2-1.3-0.4-1.7c-0.2-0.4-0.7-0.7-1.3-0.7c-0.7,0-1.1,0.2-1.3,0.7c-0.2,0.4-0.4,1.1-0.4,1.7v1.7c0,0.7,0.2,1.3,0.4,1.7
			s0.7,0.7,1.3,0.7s1.1-0.2,1.3-0.7c0.2-0.4,0.4-1.1,0.4-1.7V611.4z"/>
		<path d="M56.6,616h-0.7v-6.7l-2,0.2v-0.4l2.4-0.4v7.4h0.3V616z"/>
		<path d="M64.4,613.1c0,0.9-0.2,1.7-0.7,2.2s-1.1,0.9-1.7,0.9c-0.7,0-1.3-0.2-1.7-0.9c-0.4-0.4-0.7-1.3-0.7-2.2v-1.7
			c0-0.9,0.2-1.7,0.7-2.2c0.4-0.4,1.1-0.9,1.7-0.9c0.7,0,1.3,0.2,1.7,0.9c0.4,0.7,0.7,1.3,0.7,2.2V613.1z M63.8,611.4
			c0-0.7-0.2-1.3-0.4-1.7c-0.2-0.4-0.7-0.7-1.3-0.7c-0.7,0-1.1,0.2-1.3,0.7c-0.2,0.4-0.4,1.1-0.4,1.7v1.7c0,0.7,0.2,1.3,0.4,1.7
			s0.7,0.7,1.3,0.7s1.1-0.2,1.3-0.7c0.2-0.4,0.4-1.1,0.4-1.7V611.4z"/>
		<path d="M71,616h-0.7v-6.7l-2,0.2v-0.4l2.4-0.4v7.4H71V616z"/>
		<path d="M78.6,613.1c0,0.9-0.2,1.7-0.7,2.2c-0.4,0.4-1.1,0.9-1.7,0.9c-0.7,0-1.3-0.2-1.7-0.9c-0.4-0.4-0.7-1.3-0.7-2.2v-1.7
			c0-0.9,0.2-1.7,0.7-2.2c0.4-0.4,1.1-0.9,1.7-0.9c0.7,0,1.3,0.2,1.7,0.9c0.4,0.7,0.7,1.3,0.7,2.2V613.1z M77.9,611.4
			c0-0.7-0.2-1.3-0.4-1.7c-0.2-0.4-0.7-0.7-1.3-0.7c-0.7,0-1.1,0.2-1.3,0.7c-0.2,0.4-0.4,1.1-0.4,1.7v1.7c0,0.7,0.2,1.3,0.4,1.7
			c0.2,0.4,0.7,0.7,1.3,0.7c0.7,0,1.1-0.2,1.3-0.7c0.2-0.4,0.4-1.1,0.4-1.7V611.4z"/>
		<path d="M82.7,616H82v-6.7l-2,0.2v-0.4l2.4-0.4v7.4h0.3V616z"/>
		<path d="M90.3,613.1c0,0.9-0.2,1.7-0.7,2.2c-0.4,0.4-1.1,0.9-1.7,0.9c-0.7,0-1.3-0.2-1.7-0.9c-0.4-0.4-0.7-1.3-0.7-2.2v-1.7
			c0-0.9,0.2-1.7,0.7-2.2c0.4-0.4,1.1-0.9,1.7-0.9c0.7,0,1.3,0.2,1.7,0.9c0.4,0.7,0.7,1.3,0.7,2.2V613.1z M89.7,611.4
			c0-0.7-0.2-1.3-0.4-1.7c-0.2-0.4-0.7-0.7-1.3-0.7c-0.7,0-1.1,0.2-1.3,0.7c-0.2,0.4-0.4,1.1-0.4,1.7v1.7c0,0.7,0.2,1.3,0.4,1.7
			c0.2,0.4,0.7,0.7,1.3,0.7c0.7,0,1.1-0.2,1.3-0.7c0.2-0.4,0.4-1.1,0.4-1.7V611.4z"/>
		<path d="M94.5,616h-0.7v-6.7l-2,0.2v-0.4l2.4-0.4v7.4h0.3V616z"/>
		<path d="M102.1,613.1c0,0.9-0.2,1.7-0.7,2.2c-0.4,0.4-1.1,0.9-1.7,0.9s-1.3-0.2-1.7-0.9c-0.4-0.4-0.7-1.3-0.7-2.2v-1.7
			c0-0.9,0.2-1.7,0.7-2.2c0.4-0.4,1.1-0.9,1.7-0.9s1.3,0.2,1.7,0.9c0.4,0.7,0.7,1.3,0.7,2.2V613.1z M101.7,611.4
			c0-0.7-0.2-1.3-0.4-1.7c-0.2-0.4-0.7-0.7-1.3-0.7s-1.1,0.2-1.3,0.7c-0.2,0.4-0.4,1.1-0.4,1.7v1.7c0,0.7,0.2,1.3,0.4,1.7
			s0.7,0.7,1.3,0.7s1.1-0.2,1.3-0.7c0.2-0.4,0.4-1.1,0.4-1.7V611.4z"/>
	</g>
	<g>
		<path opacity="0.8" fill="#ED1A46" enable-background="new    " d="M13.3,604.6v-7.4h2.2c0.9,0,1.7,0.2,2.2,0.9
			c0.7,0.7,0.9,1.3,0.9,2.4v0.9c0,0.9-0.2,1.7-0.9,2.4c-0.7,0.7-1.3,0.9-2.2,0.9L13.3,604.6L13.3,604.6z M13.9,597.7v6.3h1.5
			c0.7,0,1.3-0.2,1.7-0.9c0.4-0.4,0.7-1.1,0.7-2v-0.8c0-0.9-0.2-1.3-0.7-2c-0.4-0.4-1.1-0.9-1.7-0.9h-1.5
			C13.9,597.4,13.9,597.7,13.9,597.7z"/>
		<path opacity="0.8" fill="#ED1A46" enable-background="new    " d="M24.2,600.9h-3.5v3h4.1v0.4H20v-7.4h4.6v0.4h-3.9v2.8h3.5
			V600.9z"/>
		<path opacity="0.8" fill="#ED1A46" enable-background="new    " d="M31.1,602.2L31.1,602.2c0,0.9-0.2,1.3-0.9,1.7
			c-0.7,0.4-1.1,0.7-2,0.7s-1.5-0.2-2-0.9c-0.4-0.7-0.7-1.3-0.7-2.4v-1c0-0.9,0.2-1.7,0.7-2.4s1.1-0.9,2-0.9s1.3,0.2,2,0.7
			c0.4,0.4,0.7,1.1,0.9,1.7l0,0h-0.7c0-0.7-0.2-1.1-0.7-1.3c-0.5-0.2-0.9-0.4-1.5-0.4c-0.7,0-1.1,0.2-1.5,0.7
			c-0.4,0.4-0.7,1.1-0.7,2v1.3c0,0.9,0.2,1.5,0.7,2c0.4,0.4,0.9,0.7,1.5,0.7c0.7,0,1.1-0.2,1.5-0.4c0.4-0.2,0.7-0.9,0.7-1.5
			L31.1,602.2L31.1,602.2z"/>
		<path d="M45.3,604.6h-0.7v-6.7l-2,0.2v-0.4l2.4-0.4v7.4h0.3V604.6z"/>
		<path d="M52.9,601.8c0,0.9-0.2,1.7-0.7,2.2s-1.1,0.9-1.7,0.9c-0.7,0-1.3-0.2-1.7-0.9c-0.4-0.4-0.7-1.3-0.7-2.2v-1.7
			c0-0.9,0.2-1.7,0.7-2.2s1.1-0.9,1.7-0.9c0.7,0,1.3,0.2,1.7,0.9c0.4,0.7,0.7,1.3,0.7,2.2V601.8z M52.2,600.1c0-0.7-0.2-1.3-0.4-1.7
			s-0.7-0.7-1.3-0.7c-0.7,0-1.1,0.2-1.3,0.7s-0.4,1.1-0.4,1.7v1.7c0,0.7,0.2,1.3,0.4,1.7s0.7,0.7,1.3,0.7c0.7,0,1.1-0.2,1.3-0.7
			c0.2-0.4,0.4-1.1,0.4-1.7V600.1z"/>
		<path d="M55.5,600.5h0.7c0.4,0,0.9-0.2,1.3-0.4c0.4-0.2,0.4-0.7,0.4-1.1c0-0.4-0.2-0.9-0.4-1.1s-0.7-0.4-1.1-0.4s-0.9,0.2-1.1,0.4
			c-0.2,0.2-0.4,0.7-0.4,1.1h-0.7l0,0c0-0.7,0.2-1.1,0.7-1.5c0.4-0.4,0.9-0.7,1.5-0.7c0.7,0,1.1,0.2,1.5,0.4s0.7,0.9,0.7,1.5
			c0,0.4,0,0.7-0.2,0.9c-0.2,0.2-0.4,0.4-0.9,0.7c0.4,0.2,0.9,0.4,1.1,0.7c0.2,0.2,0.4,0.7,0.4,1.1c0,0.7-0.2,1.1-0.7,1.5
			s-0.9,0.7-1.5,0.7c-0.7,0-1.1-0.2-1.7-0.7c-0.7-0.4-0.7-0.9-0.7-1.5l0,0h0.7c0,0.4,0.2,0.9,0.4,1.1c0.2,0.2,0.7,0.4,1.3,0.4
			c0.4,0,0.9-0.2,1.3-0.4c0.4-0.2,0.4-0.7,0.4-1.1s-0.2-0.9-0.4-1.1c-0.2-0.2-0.7-0.4-1.3-0.4h-0.7l0,0h-0.6V600.5z"/>
	</g>
	<g>
		<path fill="#EF4323" d="M18.7,634.7c0,0.9-0.2,1.7-0.9,2.4c-0.4,0.7-1.3,0.9-2.2,0.9s-1.5-0.2-2-0.9c-0.4-0.7-0.7-1.5-0.7-2.4
			v-1.1c0-0.9,0.2-1.7,0.9-2.4c0.4-0.7,1.3-0.9,2-0.9c0.9,0,1.5,0.2,2.2,0.9c0.4,0.7,0.9,1.3,0.9,2.4v1.1H18.7z M18.1,633.6
			c0-0.9-0.2-1.5-0.7-2c-0.4-0.4-0.9-0.7-1.7-0.7c-0.7,0-1.3,0.2-1.7,0.7c-0.4,0.4-0.7,1.1-0.7,2v1.3c0,0.9,0.2,1.5,0.7,2
			c0.4,0.4,0.9,0.7,1.7,0.7c0.7,0,1.3-0.2,1.7-0.7c0.4-0.4,0.7-1.1,0.7-2V633.6z"/>
		<path fill="#EF4323" d="M25.3,635.6L25.3,635.6c0,0.9-0.2,1.3-0.9,1.7c-0.7,0.4-1.1,0.7-2,0.7s-1.5-0.2-2-0.9
			c-0.4-0.7-0.7-1.3-0.7-2.4v-1.1c0-0.9,0.2-1.7,0.7-2.4c0.4-0.7,1.1-0.9,2-0.9s1.3,0.2,2,0.7c0.4,0.4,0.7,1.1,0.9,1.7l0,0h-0.7
			c0-0.7-0.2-1.1-0.7-1.3S23,631,22.4,631c-0.7,0-1.1,0.2-1.5,0.7s-0.7,1.1-0.7,2v1.3c0,0.9,0.2,1.5,0.7,2c0.4,0.4,0.9,0.7,1.5,0.7
			c0.7,0,1.1-0.2,1.5-0.4s0.7-0.9,0.7-1.5L25.3,635.6L25.3,635.6z"/>
		<path fill="#EF4323" d="M31.8,631h-2.6v6.7h-0.7V631h-2.4v-0.4h5.7V631z"/>
		<path d="M46.4,635.3h1.1v0.4h-1.1v2h-0.7v-2h-3.5v-0.4l3.5-5.2h0.7V635.3z M43.1,635.3h2.6v-4.1l0,0l-0.2,0.7L43.1,635.3z"/>
		<path d="M53.1,634.9c0,0.9-0.2,1.7-0.7,2.2c-0.4,0.4-1.1,0.9-1.7,0.9s-1.3-0.2-1.7-0.9c-0.4-0.4-0.7-1.3-0.7-2.2v-1.7
			c0-0.9,0.2-1.7,0.7-2.2c0.4-0.4,1.1-0.9,1.7-0.9s1.3,0.2,1.7,0.9c0.4,0.7,0.7,1.3,0.7,2.2V634.9z M52.5,633.2
			c0-0.7-0.2-1.3-0.4-1.7s-0.7-0.7-1.3-0.7c-0.7,0-1.1,0.2-1.3,0.7c-0.2,0.4-0.4,1.1-0.4,1.7v1.7c0,0.7,0.2,1.3,0.4,1.7
			c0.2,0.4,0.7,0.7,1.3,0.7s1.1-0.2,1.3-0.7c0.2-0.4,0.4-1.1,0.4-1.7V633.2z"/>
		<path d="M55.7,633.8h0.9c0.4,0,0.9-0.2,1.3-0.4c0.4-0.2,0.4-0.7,0.4-1.1c0-0.4-0.2-0.9-0.4-1.1s-0.7-0.4-1.1-0.4s-0.9,0.2-1.1,0.4
			s-0.4,0.7-0.4,1.1h-0.9l0,0c0-0.7,0.2-1.1,0.7-1.5c0.5-0.4,0.9-0.7,1.5-0.7s1.1,0.2,1.5,0.4s0.7,0.9,0.7,1.5c0,0.4,0,0.7-0.2,0.9
			c-0.2,0.2-0.4,0.4-0.9,0.7c0.4,0.2,0.9,0.4,1.1,0.7c0.2,0.2,0.4,0.7,0.4,1.1c0,0.7-0.2,1.1-0.7,1.5s-0.9,0.7-1.5,0.7
			c-0.7,0-1.1-0.2-1.7-0.7c-0.7-0.4-0.7-0.9-0.7-1.5l0,0h0.7c0,0.4,0.2,0.9,0.4,1.1c0.2,0.2,0.7,0.4,1.3,0.4c0.4,0,0.9-0.2,1.3-0.4
			c0.4-0.2,0.4-0.7,0.4-1.1s-0.2-0.9-0.4-1.1c-0.2-0.2-0.7-0.4-1.3-0.4h-0.7l0,0L55.7,633.8L55.7,633.8z"/>
	</g>
	<g>
		<path fill="#EF4323" d="M18.7,626.8H18v-3.5h-4.1v3.5h-0.7v-7.4h0.7v3.5H18v-3.5h0.7V626.8z"/>
		<path fill="#EF4323" d="M24.8,623.4h-3.7v3h4.1v0.4h-4.6v-7.4h4.6v0.4h-4.1v2.8h3.5v0.7L24.8,623.4L24.8,623.4z"/>
		<path fill="#EF4323" d="M28.7,622.7l2.2-3h0.7l-2.4,3.5l2.6,3.7h-0.7l-2.2-3.3l-2.2,3.3H26l2.6-3.7l-2.4-3.7H27L28.7,622.7z"/>
		<path d="M46.4,624.4h1.1v0.4h-1.1v2h-0.7v-2h-3.5v-0.4l3.5-5.2h0.7V624.4z M43.1,624.4h2.8v-4.1l0,0l-0.2,0.7L43.1,624.4z"/>
		<path d="M52.9,623.4h-3.5v3.5h-0.7v-7.4h4.8v0.4h-4.1v2.8h3.5V623.4z"/>
		<path d="M58.3,624.9H55l-0.7,2h-0.7l2.8-7.4h0.7l2.8,7.4h-0.7L58.3,624.9z M55.3,624.2h3l-1.7-3.9l0,0L55.3,624.2z"/>
	</g>
</g>
<g id="history">
	<rect x="555.5" y="453.1" fill="#2B2B2B" width="244.7" height="346.8"/>
	<rect x="555.5" y="453.3" fill="#C1C1C0" width="244.7" height="59"/>
	<g>
		<g>
			<path d="M581.2,496.4h-10.9l-2.4,6.5h-2l8.9-23.5h1.7l8.9,23.5h-2L581.2,496.4z M571.2,494.7h9.6l-4.8-12.8l0,0L571.2,494.7z"/>
			<path d="M590.6,485.6l0.2,3c0.7-1.1,1.3-2,2.2-2.4c0.9-0.7,2.2-0.9,3.5-0.9c2,0,3.3,0.7,4.4,1.7s1.5,3,1.5,5.4v10.7h-2v-10.7
				c0-2-0.4-3.5-1.1-4.4c-0.7-0.9-1.7-1.3-3.3-1.3c-1.3,0-2.4,0.4-3.3,1.1c-0.9,0.7-1.5,1.7-2,2.8v12.2h-2v-17.4h1.9V485.6z"/>
			<path d="M617.8,498.6c0-0.9-0.4-1.5-1.1-2.2c-0.7-0.7-2-1.1-3.7-1.5c-2.2-0.4-3.7-1.1-4.6-1.7c-1.1-0.7-1.5-1.7-1.5-3
				s0.7-2.4,1.7-3.5c1.1-0.9,2.6-1.3,4.6-1.3s3.5,0.4,4.8,1.5c1.1,0.9,1.7,2.2,1.7,3.7l0,0H618c0-0.9-0.4-1.7-1.3-2.6
				c-0.9-0.7-2-1.1-3.3-1.1s-2.4,0.2-3.3,0.9c-0.7,0.7-1.1,1.3-1.1,2.2s0.2,1.5,0.9,2c0.7,0.4,1.7,1.1,3.7,1.3
				c2.2,0.4,3.7,1.1,4.6,2s1.5,2,1.5,3.3c0,1.5-0.7,2.6-1.7,3.5c-1.1,0.9-2.8,1.3-4.8,1.3c-2.2,0-3.7-0.4-5-1.5s-1.7-2.2-1.7-3.7
				l0,0h1.7c0,1.3,0.7,2.2,1.5,2.8c0.9,0.7,2.2,0.9,3.3,0.9c1.3,0,2.6-0.2,3.3-0.9C617.4,500.2,617.8,499.5,617.8,498.6z"/>
		</g>
	</g>
	<g>
		<path fill="#FFFFFF" d="M568.2,464.4h0.9c0.7,0,1.3-0.2,1.5-0.4c0.4-0.4,0.4-0.9,0.4-1.3c0-0.7-0.2-1.1-0.4-1.3
			c-0.4-0.4-0.9-0.4-1.5-0.4c-0.7,0-1.1,0.2-1.5,0.4c-0.4,0.4-0.7,0.9-0.7,1.3h-0.7l0,0c0-0.7,0.2-1.3,0.9-1.7s1.3-0.7,2-0.7
			c0.9,0,1.5,0.2,2,0.7c0.4,0.4,0.7,1.1,0.7,2c0,0.4-0.2,0.9-0.4,1.3c-0.2,0.4-0.7,0.7-1.1,0.9c0.7,0.2,1.1,0.4,1.3,0.9
			c0.2,0.5,0.4,0.9,0.4,1.5c0,0.9-0.2,1.5-0.9,2c-0.4,0.4-1.3,0.7-2.2,0.7s-1.5-0.2-2.2-0.7c-0.7-0.4-0.9-1.1-0.9-2l0,0h0.7
			c0,0.7,0.2,1.1,0.7,1.5c0.4,0.4,0.9,0.7,1.5,0.7c0.7,0,1.1-0.2,1.5-0.4c0.4-0.2,0.7-0.9,0.7-1.5c0-0.7-0.2-1.1-0.7-1.5
			c-0.4-0.2-0.9-0.4-1.7-0.4h-0.2L568.2,464.4L568.2,464.4z"/>
		<path fill="#FFFFFF" d="M575.1,463.1l-2.2-0.7l0.2-0.7l2.2,0.9v-2.3h0.7v2.4l2.2-0.9l0.2,0.7l-2.2,0.7l1.5,2l-0.7,0.4l-1.3-2
			l-1.3,2l-0.7-0.4L575.1,463.1z"/>
		<path fill="#FFFFFF" d="M579.5,466c0-1.5,0.2-3,0.9-4.1c0.7-1.3,1.3-2.2,2-2.6l0,0l0.2,0.4c-0.7,0.4-1.1,1.3-1.7,2.4
			c-0.4,1.1-0.7,2.4-0.7,3.9v0.2c0,1.5,0.2,2.6,0.7,3.9c0.4,1.1,1.1,2,1.7,2.4l-0.2,0.4l0,0c-0.7-0.4-1.5-1.3-2-2.4
			C579.7,469,579.5,467.5,579.5,466L579.5,466z"/>
		<path fill="#FFFFFF" d="M585.4,464.4h0.9c0.7,0,1.3-0.2,1.5-0.4c0.4-0.4,0.4-0.9,0.4-1.3c0-0.7-0.2-1.1-0.4-1.3
			c-0.4-0.4-0.9-0.4-1.5-0.4c-0.7,0-1.1,0.2-1.5,0.4c-0.4,0.4-0.7,0.9-0.7,1.3h-0.7l0,0c0-0.7,0.2-1.3,0.9-1.7s1.3-0.7,2-0.7
			c0.9,0,1.5,0.2,2,0.7c0.4,0.4,0.7,1.1,0.7,2c0,0.4-0.2,0.9-0.4,1.3c-0.2,0.4-0.7,0.7-1.1,0.9c0.7,0.2,1.1,0.4,1.3,0.9
			c0.2,0.5,0.4,0.9,0.4,1.5c0,0.9-0.2,1.5-0.9,2c-0.4,0.4-1.3,0.7-2.2,0.7s-1.5-0.2-2.2-0.7c-0.7-0.4-0.9-1.1-0.9-2l0,0h0.7
			c0,0.7,0.2,1.1,0.7,1.5c0.4,0.4,0.9,0.7,1.5,0.7c0.7,0,1.1-0.2,1.5-0.4c0.4-0.2,0.7-0.9,0.7-1.5c0-0.7-0.2-1.1-0.7-1.5
			c-0.4-0.2-0.9-0.4-1.7-0.4h-0.9v-1.3h0.6V464.4z"/>
		<path fill="#FFFFFF" d="M595.6,466.6h1.5v0.7h-1.5v2.4h-0.9v-2.4h-4.4v-0.4l4.4-6.5h0.9V466.6z M591.5,466.6h3.5v-5.4l0,0
			l-0.4,0.7L591.5,466.6z"/>
		<path fill="#FFFFFF" d="M599.9,464.4h0.9c0.7,0,1.3-0.2,1.5-0.4s0.4-0.9,0.4-1.3c0-0.7-0.2-1.1-0.4-1.3c-0.4-0.4-0.9-0.4-1.5-0.4
			c-0.7,0-1.1,0.2-1.5,0.4c-0.4,0.4-0.7,0.9-0.7,1.3H598l0,0c0-0.7,0.2-1.3,0.9-1.7c0.4-0.4,1.3-0.7,2-0.7c0.9,0,1.5,0.2,2,0.7
			c0.4,0.4,0.7,1.1,0.7,2c0,0.4-0.2,0.9-0.4,1.3c-0.2,0.4-0.7,0.7-1.1,0.9c0.7,0.2,1.1,0.4,1.3,0.9c0.2,0.4,0.4,0.9,0.4,1.5
			c0,0.9-0.2,1.5-0.9,2c-0.7,0.4-1.3,0.7-2.2,0.7s-1.5-0.2-2.2-0.7c-0.7-0.4-0.9-1.1-0.9-2l0,0h0.7c0,0.7,0.2,1.1,0.7,1.5
			c0.4,0.4,0.9,0.7,1.5,0.7s1.1-0.2,1.5-0.4s0.7-0.9,0.7-1.5c0-0.7-0.2-1.1-0.7-1.5c-0.4-0.2-0.9-0.4-1.7-0.4h-0.9v-1.3h0.5V464.4z"
			/>
		<path fill="#FFFFFF" d="M608,466c0,1.5-0.2,3-0.9,4.1c-0.7,1.3-1.3,2-2,2.4l0,0l-0.2-0.4c0.7-0.4,1.1-1.3,1.7-2.4
			c0.4-1.1,0.7-2.4,0.7-3.9v-0.2c0-1.5-0.2-2.6-0.7-3.9c-0.4-1.3-1.1-2-1.5-2.4l0.2-0.4l0,0c0.7,0.4,1.3,1.3,2,2.6
			C607.8,462.9,608,464.2,608,466L608,466z"/>
		<path fill="#FFFFFF" d="M613,464.9h2.8v0.7H613v3h-0.9v-3h-2.6v-0.7h2.8v-3h0.9v3H613L613,464.9z"/>
		<path fill="#FFFFFF" d="M622.1,466.6h1.5v0.7h-1.5v2.4h-0.9v-2.4h-4.4v-0.4l4.4-6.5h0.9V466.6z M617.8,466.6h3.5v-5.4l0,0
			l-0.4,0.7L617.8,466.6z"/>
		<path fill="#FFFFFF" d="M629.6,466.6h1.5v0.7h-1.5v2.4h-0.9v-2.4h-4.4v-0.4l4.4-6.5h0.9V466.6z M625.2,466.6h3.5v-5.4l0,0
			l-0.4,0.7L625.2,466.6z"/>
	</g>
	<g>
		<g>
			<path fill="#FFFFFF" d="M715.3,484.9l1.5-15h13.5v2.2h-11.5l-1.1,9.8c0.7-0.7,1.5-1.1,2.4-1.5s2-0.4,3.5-0.7
				c2.4,0,4.4,0.7,5.7,2.4c1.5,1.5,2.2,3.7,2.2,6.5s-0.7,5-2.2,6.7c-1.3,1.7-3.5,2.4-6.3,2.4c-2.2,0-4.1-0.7-5.7-2
				c-1.5-1.3-2.2-3-2.2-5.7v-0.2h2c0,2,0.4,3.3,1.5,4.4s2.4,1.5,4.1,1.5c2,0,3.5-0.7,4.6-2s1.5-3,1.5-5.4c0-2-0.4-3.7-1.5-5
				s-2.4-2-4.4-2c-1.7,0-3,0.2-4.1,0.9c-1.1,0.7-1.5,1.3-2,2.6h-1.5V484.9z"/>
			<path fill="#FFFFFF" d="M749.7,488.6h4.4v1.7h-4.4v7h-2.2v-7h-12.8V489l12.6-19.4h2.4V488.6z M737.1,488.6h10.2v-15.7h-0.2
				l-0.9,2L737.1,488.6z"/>
			<path fill="#FFFFFF" d="M759.7,497.1l-2,5.2h-1.5l1.3-5.2v-3.3h2.2V497.1z"/>
			<path fill="#FFFFFF" d="M778.7,488.6h4.4v1.7h-4.4v7h-2.2v-7h-12.8V489l12.6-19.4h2.4V488.6z M766,488.6h10.2v-15.7H776l-0.9,2
				L766,488.6z"/>
		</g>
	</g>
	<rect x="555.5" y="512.3" fill="#2B2B2B" width="236.2" height="59.2"/>
	<g>
		<path fill="#ED1A46" d="M568.6,562.2v-23.7h6.7c2.8,0,5.2,0.9,7.2,2.8c2,2,2.8,4.4,2.8,7.4v3c0,3-0.9,5.4-2.8,7.4
			c-2,2-4.4,2.8-7.2,2.8h-6.7V562.2z M570.6,540.2v20.2h5c2.4,0,4.4-0.9,5.7-2.4c1.5-1.5,2.2-3.7,2.2-6.1v-3c0-2.4-0.7-4.6-2.2-6.1
			s-3.5-2.4-5.7-2.4h-5V540.2z"/>
		<path fill="#ED1A46" d="M603.6,551.1h-11.5v11.1h-2v-23.7h15v1.7H592v9.1h11.5L603.6,551.1L603.6,551.1z"/>
	</g>
	<g>
		<path fill="#FFFFFF" d="M568.2,523.7h0.9c0.7,0,1.3-0.2,1.5-0.4c0.4-0.4,0.4-0.9,0.4-1.3c0-0.7-0.2-1.1-0.4-1.3
			c-0.4-0.4-0.9-0.4-1.5-0.4c-0.7,0-1.1,0.2-1.5,0.4c-0.4,0.4-0.7,0.9-0.7,1.3h-0.7l0,0c0-0.7,0.2-1.3,0.9-1.7s1.3-0.7,2-0.7
			c0.9,0,1.5,0.2,2,0.7c0.4,0.4,0.7,1.1,0.7,2c0,0.4-0.2,0.9-0.4,1.3c-0.2,0.4-0.7,0.7-1.1,0.9c0.7,0.2,1.1,0.4,1.3,0.9
			s0.4,0.9,0.4,1.5c0,0.9-0.2,1.5-0.9,2c-0.4,0.4-1.3,0.7-2.2,0.7s-1.5-0.2-2.2-0.7c-0.7-0.4-0.9-1.1-0.9-2l0,0h0.7
			c0,0.7,0.2,1.1,0.7,1.5c0.4,0.4,0.9,0.7,1.5,0.7c0.7,0,1.1-0.2,1.5-0.4s0.7-0.9,0.7-1.5c0-0.7-0.2-1.1-0.7-1.5
			c-0.4-0.2-0.9-0.4-1.7-0.4h-0.2L568.2,523.7L568.2,523.7z"/>
		<path fill="#FFFFFF" d="M575.1,522.4l-2.2-0.7l0.2-0.7l2.2,0.9v-2.4h0.7v2.4l2.2-0.9l0.2,0.7l-2.2,0.7l1.5,2l-0.7,0.4l-1.3-2
			l-1.3,2l-0.7-0.4L575.1,522.4z"/>
		<path fill="#FFFFFF" d="M579.5,525c0-1.5,0.2-3,0.9-4.1c0.7-1.3,1.3-2.2,2-2.6l0,0l0.2,0.4c-0.7,0.4-1.1,1.3-1.7,2.4
			c-0.4,1.1-0.7,2.4-0.7,3.9v0.2c0,1.5,0.2,2.6,0.7,3.9c0.4,1.1,1.1,2,1.7,2.4l-0.2,0.4l0,0c-0.7-0.4-1.5-1.3-2-2.4
			C579.7,528.2,579.5,526.7,579.5,525L579.5,525z"/>
		<path fill="#FFFFFF" d="M585.4,523.7h0.9c0.7,0,1.3-0.2,1.5-0.4c0.4-0.4,0.4-0.9,0.4-1.3c0-0.7-0.2-1.1-0.4-1.3
			c-0.4-0.4-0.9-0.4-1.5-0.4c-0.7,0-1.1,0.2-1.5,0.4c-0.4,0.4-0.7,0.9-0.7,1.3h-0.7l0,0c0-0.7,0.2-1.3,0.9-1.7s1.3-0.7,2-0.7
			c0.9,0,1.5,0.2,2,0.7c0.4,0.4,0.7,1.1,0.7,2c0,0.4-0.2,0.9-0.4,1.3c-0.2,0.4-0.7,0.7-1.1,0.9c0.7,0.2,1.1,0.4,1.3,0.9
			s0.4,0.9,0.4,1.5c0,0.9-0.2,1.5-0.9,2c-0.4,0.4-1.3,0.7-2.2,0.7s-1.5-0.2-2.2-0.7c-0.7-0.4-0.9-1.1-0.9-2l0,0h0.7
			c0,0.7,0.2,1.1,0.7,1.5c0.4,0.4,0.9,0.7,1.5,0.7c0.7,0,1.1-0.2,1.5-0.4s0.7-0.9,0.7-1.5c0-0.7-0.2-1.1-0.7-1.5
			c-0.4-0.2-0.9-0.4-1.7-0.4h-0.9V524h0.6V523.7z"/>
		<path fill="#FFFFFF" d="M595.6,525.8h1.5v0.7h-1.5v2.4h-0.9v-2.4h-4.4v-0.4l4.4-6.5h0.9V525.8z M591.5,525.8h3.5v-5.4l0,0
			l-0.4,0.7L591.5,525.8z"/>
		<path fill="#FFFFFF" d="M599.9,523.7h0.9c0.7,0,1.3-0.2,1.5-0.4c0.2-0.2,0.4-0.9,0.4-1.3c0-0.7-0.2-1.1-0.4-1.3
			c-0.4-0.4-0.9-0.4-1.5-0.4c-0.7,0-1.1,0.2-1.5,0.4c-0.4,0.4-0.7,0.9-0.7,1.3H598l0,0c0-0.7,0.2-1.3,0.9-1.7c0.4-0.4,1.3-0.7,2-0.7
			c0.9,0,1.5,0.2,2,0.7c0.4,0.4,0.7,1.1,0.7,2c0,0.4-0.2,0.9-0.4,1.3c-0.2,0.4-0.7,0.7-1.1,0.9c0.7,0.2,1.1,0.4,1.3,0.9
			c0.2,0.4,0.4,0.9,0.4,1.5c0,0.9-0.2,1.5-0.9,2s-1.3,0.7-2.2,0.7s-1.5-0.2-2.2-0.7c-0.7-0.4-0.9-1.1-0.9-2l0,0h0.7
			c0,0.7,0.2,1.1,0.7,1.5c0.4,0.4,0.9,0.7,1.5,0.7s1.1-0.2,1.5-0.4s0.7-0.9,0.7-1.5c0-0.7-0.2-1.1-0.7-1.5c-0.4-0.2-0.9-0.4-1.7-0.4
			h-0.9V524h0.5V523.7z"/>
		<path fill="#FFFFFF" d="M608,525.2c0,1.5-0.2,3-0.9,4.1c-0.7,1.3-1.3,2-2,2.4l0,0l-0.1-0.4c0.7-0.4,1.1-1.3,1.7-2.4
			c0.4-1.1,0.7-2.4,0.7-3.9v-0.2c0-1.5-0.2-2.6-0.7-3.9c-0.4-1.3-1.1-2-1.5-2.4l0.2-0.4l0,0c0.7,0.4,1.3,1.3,2,2.6
			C607.8,521.9,608,523.4,608,525.2L608,525.2z"/>
		<path fill="#FFFFFF" d="M613,524.1h2.8v0.7H613v3h-0.9v-3h-2.6v-0.7h2.8v-3h0.9v3H613z"/>
		<path fill="#FFFFFF" d="M622.1,525.8h1.5v0.7h-1.5v2.4h-0.9v-2.4h-4.4v-0.4l4.4-6.5h0.9V525.8z M617.8,525.8h3.5v-5.4l0,0
			l-0.4,0.7L617.8,525.8z"/>
		<path fill="#FFFFFF" d="M629.6,525.8h1.5v0.7h-1.5v2.4h-0.9v-2.4h-4.4v-0.4l4.4-6.5h0.9V525.8z M625.2,525.8h3.5v-5.4l0,0
			l-0.4,0.7L625.2,525.8z"/>
	</g>
	<g>
		<g>
			<path fill="#FFFFFF" d="M715.3,544.1l1.5-15h13.5v2.2h-11.5l-1.1,9.8c0.7-0.7,1.5-1.1,2.4-1.5c0.9-0.4,2-0.4,3.5-0.7
				c2.4,0,4.4,0.7,5.7,2.4c1.5,1.5,2.2,3.7,2.2,6.5s-0.7,5-2.2,6.7c-1.3,1.7-3.5,2.4-6.3,2.4c-2.2,0-4.1-0.7-5.7-2
				c-1.5-1.3-2.2-3-2.2-5.7V549h2c0,2,0.4,3.3,1.5,4.4s2.4,1.5,4.1,1.5c2,0,3.5-0.7,4.6-2s1.5-3,1.5-5.4c0-2-0.4-3.7-1.5-5
				c-1.1-1.3-2.4-2-4.4-2c-1.7,0-3,0.2-4.1,0.9s-1.5,1.3-2,2.6L715.3,544.1z"/>
			<path fill="#FFFFFF" d="M749.7,547.6h4.4v2h-4.4v7h-2.2v-7h-12.8v-1.3l12.6-19.4h2.4V547.6z M737.1,547.6h10.2v-15.7h-0.2l-0.9,2
				L737.1,547.6z"/>
			<path fill="#FFFFFF" d="M759.7,556.1l-2,5.2h-1.5l1.3-5.2v-3.3h2.2V556.1z"/>
			<path fill="#FFFFFF" d="M778.7,547.6h4.4v2h-4.4v7h-2.2v-7h-12.8v-1.3l12.6-19.4h2.4V547.6z M766,547.6h10.2v-15.7H776l-0.9,2
				L766,547.6z"/>
		</g>
	</g>
	<rect x="555.3" y="570" fill="#2B2B2B" width="236.2" height="59.2"/>
	<g>
		<path fill="#ED1A46" d="M575.6,606.4l6.7-10h2.4l-7.8,11.5l8.1,12h-2.4l-7-10.4l-7,10.4h-2.4l8.1-12l-7.8-11.5h2.4L575.6,606.4z"
			/>
		<path fill="#ED1A46" d="M595.8,609.4l7.4-13.1h2.2l-8.5,15v8.7h-2v-8.7l-8.5-14.8h2.2L595.8,609.4z"/>
	</g>
	<g>
		<path fill="#FFFFFF" d="M568.2,581.3h0.9c0.7,0,1.3-0.2,1.5-0.4c0.4-0.4,0.4-0.9,0.4-1.3c0-0.7-0.2-1.1-0.4-1.3
			c-0.4-0.4-0.9-0.4-1.5-0.4c-0.7,0-1.1,0.2-1.5,0.4c-0.4,0.4-0.7,0.9-0.7,1.3h-0.7l0,0c0-0.7,0.2-1.3,0.9-1.7s1.3-0.7,2-0.7
			c0.9,0,1.5,0.2,2,0.7c0.4,0.4,0.7,1.1,0.7,2c0,0.4-0.2,0.9-0.4,1.3s-0.7,0.7-1.1,0.9c0.7,0.2,1.1,0.4,1.3,0.9
			c0.2,0.4,0.4,0.9,0.4,1.5c0,0.9-0.2,1.5-0.9,2c-0.4,0.4-1.3,0.7-2.2,0.7s-1.5-0.2-2.2-0.7c-0.7-0.4-0.9-1.1-0.9-2l0,0h0.7
			c0,0.7,0.2,1.1,0.7,1.5c0.4,0.4,0.9,0.7,1.5,0.7c0.7,0,1.1-0.2,1.5-0.4c0.4-0.2,0.7-0.9,0.7-1.5c0-0.7-0.2-1.1-0.7-1.5
			c-0.4-0.2-0.9-0.4-1.7-0.4h-0.2L568.2,581.3L568.2,581.3z"/>
		<path fill="#FFFFFF" d="M575.1,580l-2.2-0.7l0.2-0.7l2.2,0.9v-2.4h0.7v2.4l2.2-0.9l0.2,0.7l-2.2,0.7l1.5,2l-0.7,0.4l-1.3-2l-1.3,2
			l-0.7-0.4L575.1,580z"/>
		<path fill="#FFFFFF" d="M579.5,582.7c0-1.5,0.2-3,0.9-4.1c0.7-1.3,1.3-2.2,2-2.6l0,0l0.2,0.4c-0.7,0.4-1.1,1.3-1.7,2.4
			c-0.4,1.1-0.7,2.4-0.7,3.9v0.2c0,1.5,0.2,2.6,0.7,3.9c0.4,1.1,1.1,2,1.7,2.4l-0.2,0.4l0,0c-0.7-0.4-1.5-1.3-2-2.4
			C579.7,585.9,579.5,584.4,579.5,582.7L579.5,582.7z"/>
		<path fill="#FFFFFF" d="M585.1,581.3h0.9c0.7,0,1.3-0.2,1.5-0.4c0.4-0.4,0.4-0.9,0.4-1.3c0-0.7-0.2-1.1-0.4-1.3
			c-0.4-0.4-0.9-0.4-1.5-0.4s-1.1,0.2-1.5,0.4c-0.4,0.4-0.7,0.9-0.7,1.3h-0.4l0,0c0-0.7,0.2-1.3,0.9-1.7s1.3-0.7,2-0.7
			c0.9,0,1.5,0.2,2,0.7c0.4,0.4,0.7,1.1,0.7,2c0,0.4-0.2,0.9-0.4,1.3s-0.7,0.7-1.1,0.9c0.7,0.2,1.1,0.4,1.3,0.9
			c0.2,0.4,0.4,0.9,0.4,1.5c0,0.9-0.2,1.5-0.9,2c-0.4,0.4-1.3,0.7-2.2,0.7s-1.5-0.2-2.2-0.7c-0.7-0.4-0.9-1.1-0.9-2l0,0h0.7
			c0,0.7,0.2,1.1,0.7,1.5c0.4,0.4,0.9,0.7,1.5,0.7c0.7,0,1.1-0.2,1.5-0.4c0.4-0.2,0.7-0.9,0.7-1.5c0-0.7-0.2-1.1-0.7-1.5
			c-0.4-0.2-0.9-0.4-1.7-0.4h-0.9v-1.6H585.1z"/>
		<path fill="#FFFFFF" d="M595.6,583.5h1.5v0.7h-1.5v2.4h-0.9v-2.4h-4.4v-0.4l4.4-6.5h0.9V583.5z M591.5,583.5h3.5v-5.4l0,0
			l-0.4,0.7L591.5,583.5z"/>
		<path fill="#FFFFFF" d="M599.9,581.3h0.9c0.7,0,1.3-0.2,1.5-0.4c0.2-0.2,0.4-0.9,0.4-1.3c0-0.7-0.2-1.1-0.4-1.3
			c-0.4-0.4-0.9-0.4-1.5-0.4c-0.7,0-1.1,0.2-1.5,0.4c-0.4,0.4-0.7,0.9-0.7,1.3H598l0,0c0-0.7,0.2-1.3,0.9-1.7c0.4-0.4,1.3-0.7,2-0.7
			c0.9,0,1.5,0.2,2,0.7c0.4,0.4,0.7,1.1,0.7,2c0,0.4-0.2,0.9-0.4,1.3s-0.7,0.7-1.1,0.9c0.7,0.2,1.1,0.4,1.3,0.9
			c0.2,0.4,0.4,0.9,0.4,1.5c0,0.9-0.2,1.5-0.9,2c-0.7,0.4-1.3,0.7-2.2,0.7s-1.5-0.2-2.2-0.7c-0.7-0.4-0.9-1.1-0.9-2l0,0h0.7
			c0,0.7,0.2,1.1,0.7,1.5s0.9,0.7,1.5,0.7s1.1-0.2,1.5-0.4c0.4-0.2,0.7-0.9,0.7-1.5c0-0.7-0.2-1.1-0.7-1.5c-0.4-0.2-0.9-0.4-1.7-0.4
			h-0.9v-1.6H599.9z"/>
		<path fill="#FFFFFF" d="M608,582.9c0,1.5-0.2,3-0.9,4.1c-0.7,1.3-1.3,2-2,2.4l0,0l-0.2-0.4c0.7-0.4,1.1-1.3,1.7-2.4
			c0.4-1.1,0.7-2.4,0.7-3.9v-0.2c0-1.5-0.2-2.6-0.7-3.9c-0.4-1.3-1.1-2-1.5-2.4l0.2-0.4l0,0c0.7,0.4,1.3,1.3,2,2.6
			C607.6,579.6,608,581.1,608,582.9L608,582.9z"/>
		<path fill="#FFFFFF" d="M613,581.8h2.8v0.7H613v3h-0.9v-3h-2.6v-0.7h2.8v-3h0.9v3H613z"/>
		<path fill="#FFFFFF" d="M622.1,583.5h1.5v0.7h-1.5v2.4h-0.9v-2.4h-4.4v-0.4l4.4-6.5h0.9V583.5z M617.8,583.5h3.5v-5.4l0,0
			l-0.4,0.7L617.8,583.5z"/>
		<path fill="#FFFFFF" d="M629.6,583.5h1.5v0.7h-1.5v2.4h-0.9v-2.4h-4.4v-0.4l4.4-6.5h0.9V583.5z M625.2,583.5h3.5v-5.4l0,0
			l-0.4,0.7L625.2,583.5z"/>
	</g>
	<g>
		<g>
			<path fill="#FFFFFF" d="M671.6,601.8l1.5-15h13.5v2.2H675l-1.1,9.8c0.7-0.7,1.5-1.1,2.4-1.5c0.9-0.4,2-0.4,3.5-0.7
				c2.4,0,4.4,0.7,5.7,2.4c1.5,1.5,2.2,3.7,2.2,6.5s-0.7,5-2.2,6.7c-1.3,1.7-3.5,2.4-6.3,2.4c-2.2,0-4.1-0.7-5.7-2
				c-1.5-1.3-2.2-3-2.2-5.7v-0.2h2c0,2,0.4,3.3,1.5,4.4s2.4,1.5,4.1,1.5c2,0,3.5-0.7,4.6-2s1.5-3,1.5-5.4c0-2-0.4-3.7-1.5-5
				c-1.1-1.3-2.4-2-4.4-2c-1.7,0-3,0.2-4.1,0.9c-1.1,0.7-1.5,1.3-2,2.6L671.6,601.8z"/>
			<path fill="#FFFFFF" d="M706.2,605.3h4.4v2h-4.4v7H704v-7h-12.8V606l12.6-19.4h2.4V605.3z M693.6,605.3h10.2v-15.7h-0.2l-0.9,2
				L693.6,605.3z"/>
			<path fill="#FFFFFF" d="M714.7,601.8l1.5-15h13.5v2.2h-11.5l-1.1,9.8c0.7-0.7,1.5-1.1,2.4-1.5c0.9-0.4,2-0.4,3.5-0.7
				c2.4,0,4.4,0.7,5.7,2.4c1.5,1.5,2.2,3.7,2.2,6.5s-0.7,5-2.2,6.7c-1.3,1.7-3.5,2.4-6.3,2.4c-2.2,0-4.1-0.7-5.7-2
				c-1.5-1.3-2.2-3-2.2-5.7v-0.2h2c0,2,0.4,3.3,1.5,4.4s2.4,1.5,4.1,1.5c2,0,3.5-0.7,4.6-2s1.5-3,1.5-5.4c0-2-0.4-3.7-1.5-5
				c-1.1-1.3-2.4-2-4.4-2c-1.7,0-3,0.2-4.1,0.9c-1.1,0.7-1.5,1.3-2,2.6L714.7,601.8z"/>
			<path fill="#FFFFFF" d="M749.1,605.3h4.4v2h-4.4v7h-2.2v-7H734V606l12.6-19.4h2.4L749.1,605.3L749.1,605.3z M736.7,605.3h10.2
				v-15.7h-0.2l-0.9,2L736.7,605.3z"/>
			<path fill="#FFFFFF" d="M759.3,613.8l-2,5.2h-1.5l1.3-5.2v-3.3h2.2V613.8z"/>
			<path fill="#FFFFFF" d="M778,605.3h4.4v2H778v7h-2.2v-7H763V606l12.6-19.4h2.4V605.3z M765.6,605.3h10.2v-15.7h-0.2l-0.9,2
				L765.6,605.3z"/>
		</g>
	</g>
	<rect x="791.5" y="512.3" fill="#3D3D3D" width="8.7" height="59.2"/>
	<circle fill="#2D2D2D" cx="795.9" cy="536.7" r="1.1"/>
	<circle fill="#2D2D2D" cx="795.9" cy="541.9" r="1.1"/>
	<circle fill="#2D2D2D" cx="795.9" cy="547.2" r="1.1"/>
	<rect x="555.3" y="630.8" fill="#2B2B2B" width="236.2" height="59.2"/>
	<g>
		<path fill="#ED1A46" d="M581.9,669.3h-11.5v11.1h-2v-23.5h15v1.7h-13.1v9.1h11.5L581.9,669.3L581.9,669.3z"/>
		<path fill="#ED1A46" d="M604.7,670.6c0,3-0.9,5.4-2.4,7.4c-1.7,2-3.9,2.8-6.7,2.8s-5-0.9-6.5-2.8c-1.7-2-2.4-4.4-2.4-7.4v-3.9
			c0-3,0.9-5.4,2.4-7.4c1.7-2,3.9-2.8,6.5-2.8c2.8,0,5,0.9,6.7,2.8c1.7,2,2.6,4.4,2.6,7.4v3.9H604.7z M602.8,666.7
			c0-2.6-0.7-4.6-2-6.1s-3-2.4-5.4-2.4c-2.2,0-3.9,0.9-5.2,2.4s-2,3.7-2,6.1v3.9c0,2.6,0.7,4.6,2,6.1s3,2.4,5.2,2.4
			c2.4,0,4.1-0.9,5.4-2.4s2-3.7,2-6.1V666.7z"/>
		<path fill="#ED1A46" d="M627.2,670.6c0,3-0.9,5.4-2.4,7.4c-1.7,2-3.9,2.8-6.7,2.8s-5-0.9-6.5-2.8c-1.7-2-2.4-4.4-2.4-7.4v-3.9
			c0-3,0.9-5.4,2.4-7.4s3.9-2.8,6.5-2.8c2.8,0,5,0.9,6.7,2.8c1.7,2,2.6,4.4,2.6,7.4v3.9H627.2z M625.2,666.7c0-2.6-0.7-4.6-2-6.1
			s-3-2.4-5.4-2.4c-2.2,0-3.9,0.9-5.2,2.4s-2,3.7-2,6.1v3.9c0,2.6,0.7,4.6,2,6.1s3,2.4,5.2,2.4c2.4,0,4.1-0.9,5.4-2.4s2-3.7,2-6.1
			V666.7z"/>
	</g>
	<g>
		<path fill="#FFFFFF" d="M567.9,641.9h0.9c0.7,0,1.3-0.2,1.5-0.4c0.4-0.4,0.4-0.9,0.4-1.3c0-0.7-0.2-1.1-0.4-1.3
			c-0.4-0.4-0.9-0.4-1.5-0.4s-1.1,0.2-1.5,0.4c-0.4,0.4-0.7,0.9-0.7,1.3H566l0,0c0-0.7,0.2-1.3,0.9-1.7c0.7-0.4,1.3-0.7,2-0.7
			c0.9,0,1.5,0.2,2,0.7s0.7,1.1,0.7,2c0,0.4-0.2,0.9-0.4,1.3c-0.2,0.4-0.7,0.7-1.1,0.9c0.7,0.2,1.1,0.4,1.3,0.9
			c0.2,0.4,0.4,0.9,0.4,1.5c0,0.9-0.2,1.5-0.9,2c-0.4,0.4-1.3,0.7-2.2,0.7s-1.5-0.2-2.2-0.7c-0.7-0.4-0.9-1.1-0.9-2l0,0h0.7
			c0,0.7,0.2,1.1,0.7,1.5c0.4,0.4,0.9,0.7,1.5,0.7c0.7,0,1.1-0.2,1.5-0.4c0.4-0.2,0.7-0.9,0.7-1.5c0-0.7-0.2-1.1-0.7-1.5
			c-0.4-0.2-0.9-0.4-1.7-0.4h-0.9v-1.3h0.5V641.9z"/>
		<path fill="#FFFFFF" d="M575.1,640.6l-2.2-0.7l0.2-0.7l2.2,0.9v-2.4h0.7v2.4l2.2-0.9l0.2,0.7l-2.2,0.7l1.5,2L577,643l-1.3-2
			l-1.3,2l-0.7-0.4L575.1,640.6z"/>
		<path fill="#FFFFFF" d="M579.3,643.4c0-1.5,0.2-3,0.9-4.1c0.7-1.3,1.3-2.2,2-2.6l0,0l0.2,0.4c-0.7,0.4-1.1,1.3-1.7,2.4
			c-0.4,1.1-0.7,2.4-0.7,3.9v0.2c0,1.5,0.2,2.6,0.7,3.9c0.4,1.1,1.1,2,1.7,2.4l-0.2,0.4l0,0c-0.7-0.4-1.5-1.3-2-2.4
			C579.5,646.4,579.3,644.9,579.3,643.4L579.3,643.4z"/>
		<path fill="#FFFFFF" d="M585.1,641.9h0.9c0.7,0,1.3-0.2,1.5-0.4c0.4-0.4,0.4-0.9,0.4-1.3c0-0.7-0.2-1.1-0.4-1.3
			c-0.4-0.4-0.9-0.4-1.5-0.4s-1.1,0.2-1.5,0.4c-0.4,0.4-0.7,0.9-0.7,1.3h-0.4l0,0c0-0.7,0.2-1.3,0.9-1.7c0.7-0.4,1.3-0.7,2-0.7
			c0.9,0,1.5,0.2,2,0.7c0.4,0.4,0.7,1.1,0.7,2c0,0.4-0.2,0.9-0.4,1.3c-0.2,0.4-0.7,0.7-1.1,0.9c0.7,0.2,1.1,0.4,1.3,0.9
			c0.2,0.4,0.4,0.9,0.4,1.5c0,0.9-0.2,1.5-0.9,2c-0.4,0.4-1.3,0.7-2.2,0.7s-1.5-0.2-2.2-0.7c-0.7-0.4-0.9-1.1-0.9-2l0,0h0.7
			c0,0.7,0.2,1.1,0.7,1.5c0.4,0.4,0.9,0.7,1.5,0.7c0.7,0,1.1-0.2,1.5-0.4c0.4-0.2,0.7-0.9,0.7-1.5c0-0.7-0.2-1.1-0.7-1.5
			c-0.4-0.2-0.9-0.4-1.7-0.4h-0.9v-1.3h0.3V641.9z"/>
		<path fill="#FFFFFF" d="M595.6,644h1.5v0.7h-1.5v2.4h-0.9v-2.4h-4.4v-0.4l4.4-6.5h0.9V644z M591.2,644h3.5v-5.4l0,0l-0.4,0.7
			L591.2,644z"/>
		<path fill="#FFFFFF" d="M599.9,641.9h0.9c0.7,0,1.3-0.2,1.5-0.4c0.2-0.2,0.4-0.9,0.4-1.3c0-0.7-0.2-1.1-0.4-1.3
			c-0.4-0.4-0.9-0.4-1.5-0.4c-0.7,0-1.1,0.2-1.5,0.4c-0.4,0.4-0.7,0.9-0.7,1.3H598l0,0c0-0.7,0.2-1.3,0.9-1.7c0.4-0.4,1.3-0.7,2-0.7
			c0.9,0,1.5,0.2,2,0.7c0.4,0.4,0.7,1.1,0.7,2c0,0.4-0.2,0.9-0.4,1.3c-0.2,0.4-0.7,0.7-1.1,0.9c0.7,0.2,1.1,0.4,1.3,0.9
			c0.2,0.4,0.4,0.9,0.4,1.5c0,0.9-0.2,1.5-0.9,2c-0.7,0.4-1.3,0.7-2.2,0.7s-1.5-0.2-2.2-0.7c-0.7-0.4-0.9-1.1-0.9-2l0,0h0.7
			c0,0.7,0.2,1.1,0.7,1.5c0.4,0.4,0.9,0.7,1.5,0.7s1.1-0.2,1.5-0.4s0.7-0.9,0.7-1.5c0-0.7-0.2-1.1-0.7-1.5c-0.4-0.2-0.9-0.4-1.7-0.4
			h-0.9v-1.3h0.5V641.9z"/>
		<path fill="#FFFFFF" d="M607.8,643.4c0,1.5-0.2,3-0.9,4.1c-0.7,1.3-1.3,2-2,2.4l0,0l-0.2-0.4c0.7-0.4,1.1-1.3,1.7-2.4
			c0.4-1.1,0.7-2.4,0.7-3.9V643c0-1.5-0.2-2.6-0.7-3.9c-0.4-1.3-1.1-2-1.5-2.4l0.2-0.4l0,0c0.7,0.4,1.3,1.3,2,2.6
			C607.6,640.3,607.8,641.6,607.8,643.4L607.8,643.4z"/>
		<path fill="#FFFFFF" d="M613,642.3h2.8v0.7H613v3h-0.9v-3h-2.8v-0.7h2.8v-3h0.9V642.3z"/>
		<path fill="#FFFFFF" d="M621.9,644h1.5v0.7h-1.5v2.4H621v-2.4h-4.4v-0.4l4.4-6.5h0.9V644z M617.8,644h3.5v-5.4l0,0l-0.4,0.7
			L617.8,644z"/>
		<path fill="#FFFFFF" d="M629.3,644h1.5v0.7h-1.5v2.4h-0.9v-2.4H624v-0.4l4.4-6.5h0.9V644z M625,644h3.5v-5.4l0,0l-0.5,0.7L625,644
			z"/>
	</g>
	<g>
		<g>
			<path fill="#FFFFFF" d="M715.1,662.3l1.5-15h13.5v2.2h-11.5l-1.1,9.8c0.7-0.7,1.5-1.1,2.4-1.5c0.9-0.4,2-0.4,3.5-0.7
				c2.4,0,4.4,0.7,5.7,2.4c1.5,1.5,2.2,3.7,2.2,6.5s-0.7,5-2.2,6.7c-1.3,1.7-3.5,2.4-6.3,2.4c-2.2,0-4.1-0.7-5.7-2
				c-1.5-1.3-2.2-3-2.2-5.7v-0.1h2c0,2,0.4,3.3,1.5,4.4s2.4,1.5,4.1,1.5c2,0,3.5-0.7,4.6-2s1.5-3,1.5-5.4c0-2-0.4-3.7-1.5-5
				c-1.1-1.3-2.4-2-4.4-2c-1.7,0-3,0.2-4.1,0.9s-1.5,1.3-2,2.6H715.1z"/>
			<path fill="#FFFFFF" d="M749.5,666h4.4v2h-4.4v7h-2.2v-7h-12.8v-1.3l12.6-19.4h2.4V666z M737.1,666h10.2v-15.7h-0.2l-0.9,2
				L737.1,666z"/>
			<path fill="#FFFFFF" d="M759.7,674.5l-2,5.2h-1.5l1.3-5.2v-3.2h2.2V674.5z"/>
			<path fill="#FFFFFF" d="M778.4,666h4.4v2h-4.4v7h-2.2v-7h-12.8v-1.3l12.6-19.4h2.4V666z M766,666h10.2v-15.7H776l-0.9,2L766,666z
				"/>
		</g>
	</g>
	<g>
		<rect x="791.7" y="630.8" fill="#3D3D3D" width="8.7" height="59.2"/>
		<circle fill="#FFFFFF" cx="796.1" cy="654.9" r="1.1"/>
		<circle fill="#FFFFFF" cx="796.1" cy="660.4" r="1.1"/>
		<circle fill="#FFFFFF" cx="796.1" cy="665.6" r="1.1"/>
	</g>
	<rect x="555.3" y="528.2" fill="#B7B7B7" width="2.2" height="174.4"/>
	<rect x="782.6" y="571.6" fill="#D81F27" width="18.1" height="59.2"/>
	<path fill="#3D3D3D" d="M864.7,559.6"/>
	<g>
		<path fill="#FFFFFF" d="M788.9,607.5c-0.4,0-0.4,0-0.4-0.2c0-0.2,0-7.6,0-7.6h-0.9c0,0,0,7.4,0,7.8s0.4,1.1,1.1,1.1
			c0.7,0,3.5,0,3.5,0v-0.9C791.9,607.5,789.1,607.5,788.9,607.5z"/>
		<path fill="#FFFFFF" d="M796.3,599.6c0,0,0,7.4,0,7.8c0,0.4-0.4,1.1-1.1,1.1s-3.5,0-3.5,0v-0.9c0,0,2.6,0,3,0s0.4,0,0.4-0.2
			c0-0.2,0-7.6,0-7.6h1.1L796.3,599.6L796.3,599.6z"/>
		<path fill="#FFFFFF" d="M796.7,598.8c0,0,0-0.4,0-0.7c0-0.2,0-0.4-0.4-0.4s-4.6,0-4.6,0s-4.1,0-4.6,0c-0.2,0-0.4,0.4-0.4,0.4v0.7
			h-0.4v1.1h5.4h5.4v-1.1H796.7z"/>
		<path fill="#FFFFFF" d="M793,595.7c-0.7,0-1.1,0-1.1,0s-0.4,0-1.1,0c-0.7,0-1.3,0.9-1.3,1.5c0,0.2,0,0.2,0,0.2h1.1c0,0,0,0,0-0.4
			c0-0.2,0.2-0.4,0.4-0.4c0.4,0,0.9,0,0.9,0s0.4,0,0.9,0c0.2,0,0.4,0.4,0.4,0.4c0,0.4,0,0.4,0,0.4h1.1c0,0,0,0,0-0.2
			C794.3,596.6,793.7,595.7,793,595.7z"/>
		<rect x="791.3" y="600.7" fill="#FFFFFF" width="1.1" height="5.9"/>
		<rect x="793.5" y="600.7" fill="#FFFFFF" width="1.1" height="5.9"/>
		<rect x="789.3" y="600.7" fill="#FFFFFF" width="1.1" height="5.9"/>
	</g>
	<rect x="740.1" y="571.6" fill="#3D3D3D" width="42.4" height="59.2"/>
	<rect x="741.9" y="571.6" fill="#2D2D2D" width="40.7" height="29.2"/>
	<g>
		<path fill="#FFFFFF" d="M761.9,614.4H753v-1.1h8.9V614.4z M761.9,618.8H753v-1.1h8.9V618.8z"/>
		<path fill="#FFFFFF" d="M770.8,623.4h-1.3v-14.1l-3.9,0.4v-0.9l5.2-0.9V623.4z"/>
	</g>
	<g>
		<path fill="#FFFFFF" d="M761.5,584.2h-8.9v-1.1h8.9V584.2z M761.5,588.7h-8.9v-1.1h8.9V588.7z"/>
		<path fill="#FFFFFF" d="M774.5,587.2c0,2-0.4,3.5-1.3,4.6c-0.9,1.1-2,1.5-3.7,1.5c-1.5,0-2.8-0.4-3.7-1.5
			c-0.9-1.1-1.3-2.6-1.3-4.6v-3.5c0-2,0.4-3.5,1.3-4.6c0.9-1.1,2-1.5,3.7-1.5s2.8,0.4,3.7,1.5c0.9,1.1,1.3,2.6,1.3,4.6V587.2z
			 M773.2,583.5c0-1.5-0.2-2.8-0.9-3.7s-1.5-1.3-2.6-1.3s-2.2,0.4-2.6,1.3c-0.4,0.9-0.9,2.2-0.9,3.7v3.9c0,1.5,0.2,2.8,0.9,3.7
			c0.7,0.9,1.5,1.3,2.6,1.3s2.2-0.4,2.6-1.3c0.4-0.9,0.9-2.2,0.9-3.7V583.5z"/>
	</g>
	<g>
		<rect x="731.4" y="571.6" fill="#3D3D3D" width="8.7" height="59.2"/>
		<circle fill="#FFFFFF" cx="735.8" cy="595.9" r="1.1"/>
		<circle fill="#FFFFFF" cx="735.8" cy="601.2" r="1.1"/>
		<circle fill="#FFFFFF" cx="735.8" cy="606.4" r="1.1"/>
	</g>
</g>
<g id="error" display="none">
	<rect y="453.3" display="inline" opacity="0.9" enable-background="new    " width="800" height="346.8"/>
	<rect x="-0.7" y="533.2" display="inline" fill="#ED1D2B" width="800.7" height="150.6"/>
	
		<text transform="matrix(1 0 0 1 55.1473 586.5054)" display="inline" fill="#FFFFFF" font-family="'Roboto-Light'" font-size="45.7143">Error</text>
	
		<text transform="matrix(1 0 0 1 58.7754 637.7789)" display="inline" fill="#FFFFFF" font-family="'Roboto-Light'" font-size="21.7687">Naskytla se njak chyba.</text>
	<rect x="649.4" y="642.1" display="inline" fill="none" stroke="#FFFFFF" stroke-miterlimit="10" width="125" height="26.8"/>
	
		<text transform="matrix(1 0 0 1 701.8912 664.0704)" display="inline" fill="#FFFFFF" font-family="'Roboto-Light'" font-size="20.729">Ok</text>
</g>
<g id="completer">
	<rect x="86.6" y="680.4" fill="#2B2B2B" width="103.8" height="62.3"/>
	<rect x="86.6" y="727" opacity="0.8" fill="#ED1A46" enable-background="new    " width="103.8" height="15.7"/>
	<g>
		<path fill="#C9C9C9" d="M110.8,694.1c0-0.2,0-0.4,0-0.7c0-0.3,0-0.2,0-0.4c-0.2,0.4-0.7,0.7-0.9,0.9c-0.4,0.2-0.9,0.4-1.3,0.4
			c-0.7,0-1.1-0.2-1.5-0.4c-0.4-0.4-0.4-0.9-0.4-1.3c0-0.7,0.2-1.1,0.9-1.5c0.4-0.4,1.3-0.4,2.2-0.4h1.5v-0.9c0-0.4-0.2-0.9-0.4-1.1
			c-0.2-0.2-0.7-0.4-1.3-0.4c-0.4,0-0.9,0.2-1.3,0.4s-0.4,0.7-0.4,0.9h-0.7l0,0c0-0.4,0.2-0.9,0.7-1.3c0.4-0.4,1.1-0.7,1.7-0.7
			c0.7,0,1.3,0.2,1.7,0.7c0.4,0.4,0.7,0.9,0.7,1.5v3.3c0,0.2,0,0.4,0,0.7c0,0.2,0,0.4,0.2,0.7h-1.3L110.8,694.1L110.8,694.1z
			 M108.4,693.7c0.4,0,0.9-0.2,1.3-0.4c0.4-0.2,0.7-0.7,0.9-0.9v-1.3h-1.5c-0.7,0-1.1,0.2-1.5,0.4c-0.4,0.2-0.7,0.7-0.7,1.1
			s0.2,0.7,0.4,0.9C107.5,693.5,108,693.7,108.4,693.7z"/>
		<path fill="#C9C9C9" d="M118.4,691.1c0,0.9-0.2,1.7-0.7,2.4c-0.4,0.7-1.1,0.9-1.7,0.9c-0.4,0-0.9,0-1.3-0.2
			c-0.4-0.2-0.7-0.4-0.9-0.9v1.1h-0.7V685h0.7v3.9c0.2-0.4,0.4-0.7,0.9-0.9c0.4-0.2,0.7-0.2,1.3-0.2c0.9,0,1.3,0.2,1.7,0.9
			C118.2,689.1,118.4,689.8,118.4,691.1L118.4,691.1z M117.8,690.8c0-0.9-0.2-1.5-0.4-2c-0.2-0.4-0.9-0.9-1.5-0.9
			c-0.4,0-0.9,0.2-1.3,0.4c-0.2,0.2-0.4,0.7-0.7,0.9v3c0.2,0.4,0.4,0.7,0.7,0.9c0.3,0.2,0.7,0.4,1.1,0.4c0.7,0,1.1-0.2,1.5-0.7
			C117.6,692.4,117.8,691.7,117.8,690.8L117.8,690.8z"/>
		<path fill="#C9C9C9" d="M124.1,692.4c0-0.2-0.2-0.7-0.4-0.9c-0.2-0.2-0.7-0.4-1.3-0.7c-0.9-0.2-1.3-0.4-1.7-0.7
			c-0.4-0.2-0.7-0.7-0.7-1.1s0.2-0.9,0.7-1.3c0.4-0.4,0.9-0.4,1.7-0.4c0.7,0,1.3,0.2,1.7,0.7c0.4,0.4,0.7,0.9,0.7,1.3l0,0h-0.7
			c0-0.4-0.2-0.7-0.4-0.9c-0.2-0.2-0.7-0.4-1.3-0.4c-0.4,0-0.9,0.2-1.1,0.4c-0.2,0.2-0.4,0.4-0.4,0.9c0,0.2,0.2,0.7,0.4,0.7
			c0.2,0.2,0.7,0.4,1.3,0.4c0.9,0.2,1.3,0.4,1.7,0.7c0.4,0.2,0.7,0.7,0.7,1.3s-0.2,1.1-0.7,1.3c-0.4,0.4-1.1,0.4-1.7,0.4
			c-0.9,0-1.3-0.2-2-0.7s-0.9-0.7-0.9-1.1l0,0h0.7c0,0.4,0.2,0.9,0.7,1.1c0.4,0.2,0.9,0.2,1.3,0.2s0.9-0.2,1.3-0.4
			C123.9,693,124.1,692.8,124.1,692.4z"/>
	</g>
	<g>
		<path fill="#C9C9C9" d="M110.6,707.2c0-0.2-0.2-0.7-0.4-0.9c-0.2-0.2-0.7-0.4-1.3-0.7c-0.9-0.2-1.3-0.4-1.7-0.7
			c-0.4-0.2-0.7-0.7-0.7-1.1s0.2-0.9,0.7-1.3c0.4-0.4,0.9-0.4,1.7-0.4c0.7,0,1.3,0.2,1.7,0.7c0.4,0.4,0.7,0.9,0.7,1.3l0,0h-0.7
			c0-0.4-0.2-0.7-0.4-0.9c-0.2-0.2-0.7-0.4-1.3-0.4c-0.4,0-0.9,0.2-1.1,0.4s-0.4,0.4-0.4,0.9c0,0.2,0.2,0.7,0.4,0.7
			c0.2,0.2,0.7,0.4,1.3,0.4c0.9,0.2,1.3,0.4,1.7,0.7c0.4,0.2,0.7,0.7,0.7,1.3c0,0.7-0.2,1.1-0.7,1.3c-0.4,0.4-1.1,0.4-1.7,0.4
			c-0.9,0-1.3-0.2-2-0.7c-0.7-0.4-0.7-0.9-0.7-1.3l0,0h0.7c0,0.4,0.2,0.9,0.7,1.1c0.4,0.2,0.9,0.2,1.3,0.2s0.9-0.2,1.3-0.4
			C110.4,707.8,110.6,707.4,110.6,707.2z"/>
		<path fill="#C9C9C9" d="M113.6,700.4H113v-1.1h0.7L113.6,700.4L113.6,700.4z M113.6,708.7H113v-6.5h0.7L113.6,708.7L113.6,708.7z"
			/>
		<path fill="#C9C9C9" d="M116.2,702.4v1.1c0.2-0.4,0.4-0.7,0.9-0.9c0.4-0.2,0.9-0.4,1.3-0.4c0.7,0,1.3,0.2,1.5,0.7
			c0.4,0.4,0.7,1.1,0.7,2v3.9h-0.7v-3.9c0-0.7-0.2-1.3-0.4-1.5c-0.2-0.2-0.7-0.4-1.1-0.4s-0.9,0.2-1.3,0.4c-0.2,0.2-0.7,0.7-0.7,1.1
			v4.6h-0.7v-6.5L116.2,702.4L116.2,702.4z"/>
	</g>
	<g>
		<path fill="#C9C9C9" d="M110.8,724.2c0-0.2,0-0.4,0-0.7c0-0.3,0-0.2,0-0.4c-0.2,0.4-0.7,0.7-0.9,0.9c-0.4,0.2-0.9,0.4-1.3,0.4
			c-0.7,0-1.1-0.2-1.5-0.4c-0.4-0.4-0.4-0.9-0.4-1.3c0-0.7,0.2-1.1,0.9-1.5c0.4-0.4,1.3-0.4,2.2-0.4h1.5v-0.9c0-0.4-0.2-0.9-0.4-1.1
			c-0.2-0.2-0.7-0.4-1.3-0.4c-0.4,0-0.9,0.2-1.3,0.4c-0.4,0.2-0.4,0.7-0.4,0.9h-0.7l0,0c0-0.4,0.2-0.9,0.7-1.3
			c0.4-0.4,1.1-0.7,1.7-0.7c0.7,0,1.3,0.2,1.7,0.7c0.4,0.4,0.7,0.9,0.7,1.5v3.3c0,0.2,0,0.4,0,0.7c0,0.2,0,0.4,0.2,0.7h-1.3
			L110.8,724.2L110.8,724.2z M108.4,723.7c0.4,0,0.9-0.2,1.3-0.4c0.4-0.2,0.7-0.7,0.9-0.9v-1.3h-1.5c-0.7,0-1.1,0.2-1.5,0.4
			c-0.4,0.2-0.7,0.7-0.7,1.1c0,0.4,0.2,0.7,0.4,0.9C107.5,723.5,108,723.7,108.4,723.7z"/>
		<path fill="#C9C9C9" d="M114.1,718.7c0.2-0.4,0.4-0.7,0.9-0.9c0.4-0.2,0.9-0.2,1.3-0.2c0.7,0,1.3,0.2,1.5,0.7
			c0.4,0.4,0.7,1.1,0.7,2v3.9h-0.9v-4.1c0-0.7-0.2-1.3-0.4-1.5c-0.2-0.2-0.7-0.4-1.1-0.4s-0.9,0.2-1.3,0.4s-0.7,0.7-0.7,1.1v4.6
			h-0.9v-9.4h0.7v3.9h0.2V718.7z"/>
		<path fill="#C9C9C9" d="M119.7,720.9c0-0.9,0.2-1.7,0.9-2.4c0.7-0.7,1.3-0.9,2.2-0.9s1.5,0.2,2.2,0.9c0.7,0.7,0.9,1.3,0.9,2.4v0.2
			c0,0.9-0.2,1.7-0.9,2.4c-0.7,0.7-1.3,0.9-2.2,0.9s-1.5-0.2-2.2-0.9C119.9,722.8,119.7,722,119.7,720.9L119.7,720.9z M120.4,721.1
			c0,0.7,0.2,1.3,0.7,2c0.4,0.7,0.9,0.9,1.5,0.9c0.7,0,1.3-0.2,1.5-0.9c0.4-0.4,0.7-1.1,0.7-2v-0.2c0-0.7-0.2-1.3-0.7-2
			c-0.4-0.4-0.9-0.9-1.5-0.9c-0.7,0-1.3,0.2-1.5,0.9C120.8,719.6,120.4,720,120.4,721.1L120.4,721.1z"/>
		<path fill="#C9C9C9" d="M127.8,717.6v7c0,0.7-0.2,1.1-0.4,1.5c-0.2,0.4-0.9,0.7-1.3,0.7c-0.2,0-0.2,0-0.4,0c-0.2,0-0.2,0-0.4,0
			v-0.7h0.2c0.2,0,0.2,0,0.2,0c0.4,0,0.7-0.2,0.9-0.4c0.2-0.2,0.2-0.7,0.2-1.1v-7H127.8z M127.8,715.9h-0.7v-1.1h0.7V715.9z"/>
		<path fill="#C9C9C9" d="M129.5,721.1c0-1.1,0.2-2,0.7-2.4c0.4-0.7,1.1-0.9,1.7-0.9c0.4,0,0.9,0,1.1,0.2c0.4,0.2,0.7,0.4,0.9,0.9
			V715h0.7v9.4h-0.7v-0.9c-0.2,0.4-0.4,0.7-0.9,0.9c-0.4,0.2-0.7,0.2-1.3,0.2c-0.9,0-1.3-0.2-1.7-0.9
			C129.7,722.8,129.5,722.2,129.5,721.1L129.5,721.1z M130.4,721.1c0,0.9,0.2,1.5,0.4,2s0.9,0.7,1.5,0.7c0.4,0,0.9,0,1.1-0.2
			c0.2-0.2,0.7-0.4,0.7-0.9v-3c-0.2-0.4-0.4-0.7-0.7-0.9c-0.2-0.2-0.7-0.4-1.1-0.4c-0.7,0-1.1,0.2-1.5,0.9
			C130.4,719.6,130.4,720.2,130.4,721.1L130.4,721.1z"/>
	</g>
	<g>
		<path fill="#C9C9C9" d="M109.5,733.9l2.4-3.7h0.9l-2.8,4.4l3,4.4h-0.9l-2.6-3.9l-2.6,3.9H106l3-4.4l-2.8-4.4h0.9L109.5,733.9z"/>
		<path fill="#C9C9C9" d="M116.9,735l2.6-4.8h0.9l-3.3,5.7v3.3h-0.7v-3.3l-3.3-5.4h0.9L116.9,735z"/>
	</g>
	<rect x="189" y="680.4" fill="#969696" width="1.5" height="34"/>
	<rect x="92.3" y="687.6" fill="#EF4323" width="5.9" height="5.9"/>
	<rect x="92.3" y="702.4" fill="#EF4323" width="5.9" height="5.9"/>
	<rect x="92.3" y="717.8" fill="#C9C9C9" width="5.9" height="5.9"/>
	<rect x="92.3" y="732.6" fill="#C9C9C9" width="5.9" height="5.9"/>
</g>
<g id="new">
	<rect y="453.3" opacity="0.8" enable-background="new    " width="800" height="346.8"/>
	<path fill="#ED1A46" d="M399.7,705.9c-53.8,0-97.5-43.8-97.5-97.5c0-7,0.9-14.1,2.4-20.9l3.3,0.7c-1.5,6.7-2.2,13.5-2.2,20.2
		c0,51.8,42.2,94.3,94.3,94.3s94.3-42.2,94.3-94.3s-42.4-94-94.5-94h-0.4v-3.3h0.4c53.8,0,97.5,43.8,97.5,97.5
		C497.3,662.3,453.4,705.9,399.7,705.9z"/>
	<g>
		<path fill="#BCBCBC" d="M367.7,607.7h5.2c5.7,0,10-1.3,13.3-4.1c3.3-2.8,4.8-6.3,4.8-10.4c0-4.6-1.3-8.3-4.1-11.3s-7-4.4-12.4-4.4
			c-5,0-9.1,1.5-12.4,4.4c-3.3,3-5,6.7-5,11.8h-2.2v-0.4c-0.2-5.4,1.7-10,5.4-13.3c3.9-3.5,8.5-5,14.1-5c5.9,0,10.4,1.7,13.9,5
			c3.5,3.3,5.2,7.8,5.2,13.5c0,3.5-1.1,6.7-3.3,9.6c-2.2,2.8-5.2,4.8-9.1,6.1c4.4,1.1,7.8,3,10.2,5.9c2.4,2.8,3.7,6.5,3.7,10.7
			c0,5.9-2,10.4-5.7,13.9s-8.5,5-14.6,5c-5.7,0-10.9-1.7-15.2-5c-4.4-3.5-6.5-8.3-6.3-14.4v-0.2h2.2c0,5,1.7,9.1,5.4,12.4
			c3.7,3.3,8.3,4.8,13.7,4.8c5.7,0,9.8-1.5,13.1-4.4c3-2.8,4.6-6.7,4.6-12s-1.7-9.1-5.2-11.8c-3.5-2.6-8.3-3.7-14.4-3.7h-5.2v-2.8
			L367.7,607.7L367.7,607.7z"/>
		<path fill="#BCBCBC" d="M439.5,622.5h11.8v2.6h-11.8v18.5h-2.6v-18.5H404v-1.3l32.2-47.7h3v46.4H439.5z M407.9,622.5h29v-43.1
			h-0.2l-3.7,6.1L407.9,622.5z"/>
	</g>
</g>
</svg>
