<?xml version="1.0" encoding="utf-8"?>
<!-- Generator: Adobe Illustrator 18.0.0, SVG Export Plug-In . SVG Version: 6.00 Build 0)  -->
<!DOCTYPE svg PUBLIC "-//W3C//DTD SVG 1.1//EN" "http://www.w3.org/Graphics/SVG/1.1/DTD/svg11.dtd">
<svg version="1.1" id="Vrstva_1" xmlns="http://www.w3.org/2000/svg" xmlns:xlink="http://www.w3.org/1999/xlink" x="0px" y="0px"
	 viewBox="0 0 180 147.5" enable-background="new 0 0 180 147.5" xml:space="preserve">
<rect x="0.2" y="85.3" fill="#FFFFFF" width="180" height="58.4"/>
<g id="input">
	<rect x="9.6" y="51.1" fill="#F2F2F2" width="102.8" height="33.7"/>
	<g>
		<path fill="#A09F9F" d="M19.9,56.6c0.2,0.2,0.4,0.2,0.6,0.2c0.3,0,0.5-0.1,0.5-0.3s-0.1-0.3-0.6-0.5c-0.5-0.2-0.6-0.3-0.6-0.7
			c0-0.3,0.3-0.6,0.9-0.6c0.3,0,0.5,0,0.7,0.2l-0.1,0.3c-0.2-0.1-0.3-0.2-0.6-0.2c-0.3,0-0.5,0.2-0.5,0.3c0,0.2,0.1,0.2,0.5,0.3
			c0.6,0.2,0.8,0.4,0.8,0.7c0,0.4-0.3,0.6-0.9,0.6c-0.3,0-0.6-0.1-0.8-0.2L19.9,56.6z"/>
		<path fill="#A09F9F" d="M22,54.2c0-0.2,0.1-0.3,0.3-0.3c0.2,0,0.3,0.2,0.3,0.3c0,0.2-0.1,0.3-0.3,0.3C22,54.4,22,54.3,22,54.2z
			 M22.4,57.1H22v-2.3h0.4V57.1z"/>
		<path fill="#A09F9F" d="M23.5,55.2c0.2-0.2,0.4-0.5,0.8-0.5c0.5,0,0.8,0.3,0.8,0.8V57h-0.4v-1.4c0-0.3-0.2-0.5-0.5-0.5
			c-0.2,0-0.5,0.2-0.7,0.5V57h-0.4v-2.3h0.4L23.5,55.2L23.5,55.2L23.5,55.2z"/>
		<path fill="#A09F9F" d="M26.4,57.5l-0.2,0.2c-0.3-0.6-0.6-1.3-0.6-1.9c0-0.7,0.2-1.3,0.6-1.9l0.2,0.2c-0.2,0.5-0.4,1.1-0.4,1.8
			C26,56.5,26.2,57,26.4,57.5z"/>
		<path fill="#A09F9F" d="M27.7,55.5l-1-1.3L27,54l0.9,1.2l0.9-1.2l0.3,0.2l-0.9,1.3l1,1.4l-0.3,0.2l-1-1.3L27,57.1l-0.3-0.2
			L27.7,55.5z"/>
		<path fill="#A09F9F" d="M30.6,55.5l0.9-1.5l0.3,0.2l-1,1.7v1.2h-0.4v-1.2l-1.1-1.7l0.3-0.2L30.6,55.5z"/>
		<path fill="#A09F9F" d="M32.1,53.9l0.2-0.2c0.3,0.6,0.6,1.2,0.6,1.9c0,0.7-0.2,1.3-0.6,1.9l-0.2-0.2c0.2-0.5,0.4-1.1,0.4-1.8
			C32.5,54.9,32.3,54.4,32.1,53.9z"/>
	</g>
	<rect x="112.9" y="51.6" fill="#ED1A46" width="12.1" height="33.7"/>
	<rect x="116.7" y="67.2" fill="#FFFFFF" width="4.7" height="0.7"/>
	<rect x="116.7" y="69.5" fill="#FFFFFF" width="4.7" height="0.7"/>
</g>
<g id="frame">
	<rect x="0.2" y="-0.1" fill="#303030" width="179.8" height="7.4"/>
	<g id="close_button">
		<rect x="172.9" y="-0.1" fill="#C82027" width="7.4" height="7.4"/>
		<g>
			<path fill="#FFFFFF" d="M3.4,3.7L2.2,5.2h1.9v0.2H1.9V5.3l1.2-1.6L1.9,2.2V2h2.3v0.2H2.3l0,0L3.4,3.7L3.4,3.7z"/>
		</g>
		<polygon fill="#FFFFFF" points="4.1,2.2 4,2.2 4.1,2.4 		"/>
		<polygon fill="#FFFFFF" points="4.1,5.2 4,5.2 4.1,5.1 		"/>
		<rect x="2.1" y="3.1" fill="#C82027" width="1.8" height="0.3"/>
		<rect x="2.1" y="4" fill="#C82027" width="1.8" height="0.3"/>
		
			<rect x="176.4" y="0.7" transform="matrix(-0.7071 0.7071 -0.7071 -0.7071 303.8363 -118.7674)" fill="#E1E1E1" width="0.2" height="5.7"/>
		
			<rect x="176.4" y="0.7" transform="matrix(0.7071 0.7071 -0.7071 0.7071 54.2096 -123.7508)" fill="#E1E1E1" width="0.2" height="5.7"/>
	</g>
	<g>
		<path fill="#F7F7F7" d="M6.5,5.5V2h1C7.9,2,8.1,2,8.4,2.2c0.2,0.2,0.3,0.4,0.3,0.7c0,0.2,0,0.3-0.2,0.5C8.4,3.5,8.3,3.6,8.1,3.7
			c0.2,0,0.4,0.2,0.5,0.3c0.2,0.2,0.2,0.3,0.2,0.6c0,0.3-0.1,0.5-0.3,0.7C8.3,5.4,8,5.5,7.7,5.5L6.5,5.5C6.5,5.5,6.5,5.5,6.5,5.5z
			 M6.8,3.5h0.8c0.2,0,0.4,0,0.6-0.2c0.2-0.1,0.2-0.3,0.2-0.5c0-0.2-0.1-0.4-0.2-0.5C8,2.3,7.8,2.2,7.5,2.2H6.8
			C6.8,2.2,6.8,3.5,6.8,3.5z M6.8,3.8v1.5h0.9c0.2,0,0.5,0,0.6-0.2c0.2-0.2,0.2-0.3,0.2-0.5c0-0.2,0-0.4-0.2-0.5S8,3.8,7.8,3.8
			C7.8,3.8,6.8,3.8,6.8,3.8z"/>
		<path fill="#F7F7F7" d="M11.2,5.5c0-0.1,0-0.2,0-0.2c0,0,0-0.2,0-0.2c-0.1,0.2-0.2,0.2-0.4,0.3c-0.2,0.1-0.3,0.2-0.5,0.2
			c-0.2,0-0.4,0-0.6-0.2C9.5,5.2,9.4,5,9.4,4.8s0.1-0.5,0.3-0.6C9.9,4,10.2,4,10.6,4h0.6V3.7c0-0.2,0-0.3-0.2-0.5
			c-0.2-0.1-0.3-0.2-0.5-0.2s-0.4,0-0.5,0.2C9.9,3.3,9.7,3.5,9.7,3.6H9.5l0,0c0-0.2,0.1-0.4,0.2-0.5s0.4-0.2,0.7-0.2
			s0.5,0.1,0.7,0.2c0.2,0.2,0.2,0.3,0.2,0.6V5c0,0.1,0,0.2,0,0.2c0,0,0,0.2,0,0.2L11.2,5.5L11.2,5.5z M10.2,5.3c0.2,0,0.4,0,0.5-0.2
			C10.9,5,11,4.9,11.1,4.7V4.2h-0.6c-0.2,0-0.5,0-0.6,0.2C9.7,4.5,9.6,4.6,9.6,4.8c0,0.2,0,0.2,0.2,0.3C9.9,5.2,10.1,5.3,10.2,5.3z"
			/>
		<path fill="#F7F7F7" d="M13.4,3.1h-0.2c-0.2,0-0.3,0-0.4,0.2c-0.1,0.1-0.2,0.2-0.2,0.5v1.8h-0.3V2.9h0.2l0,0.4v0
			c0.1-0.2,0.2-0.3,0.3-0.4c0.1-0.1,0.3-0.2,0.4-0.2c0,0,0,0,0.1,0c0.1,0,0.1,0,0.2,0L13.4,3.1z"/>
		<path fill="#F7F7F7" d="M16,4.2c0,0.4-0.1,0.7-0.2,0.9c-0.2,0.2-0.4,0.3-0.7,0.3c-0.2,0-0.3,0-0.5-0.1c-0.2,0-0.2-0.2-0.3-0.3
			l0,0.4h-0.2V1.7h0.3v1.6c0.1-0.2,0.2-0.2,0.3-0.3c0.2-0.1,0.3-0.1,0.5-0.1c0.3,0,0.5,0.2,0.7,0.4C15.9,3.5,16,3.8,16,4.2L16,4.2z
			 M15.7,4.2c0-0.3,0-0.6-0.2-0.8c-0.2-0.2-0.3-0.3-0.6-0.3c-0.2,0-0.3,0-0.5,0.2c-0.2,0.1-0.2,0.2-0.3,0.4v1.2
			c0,0.2,0.2,0.3,0.3,0.3c0.2,0.1,0.3,0.2,0.5,0.2c0.2,0,0.5-0.1,0.6-0.3C15.6,4.8,15.7,4.5,15.7,4.2L15.7,4.2z"/>
		<path fill="#F7F7F7" d="M17,2.1h-0.3V1.7H17V2.1z M17,5.5h-0.3V2.8H17V5.5z"/>
		<path fill="#F7F7F7" d="M18.7,5.5c-0.3,0-0.6-0.1-0.8-0.3c-0.2-0.2-0.3-0.5-0.3-0.9V4.1c0-0.4,0.1-0.7,0.3-0.9
			c0.2-0.2,0.5-0.4,0.8-0.4c0.3,0,0.6,0.1,0.8,0.3c0.2,0.2,0.3,0.5,0.3,0.8v0.2h-1.9v0c0,0.3,0.1,0.5,0.2,0.7
			c0.2,0.2,0.3,0.3,0.6,0.3c0.2,0,0.3,0,0.5-0.1c0.1,0,0.2-0.1,0.3-0.2l0.2,0.2c-0.1,0.1-0.2,0.2-0.4,0.2C19.1,5.5,19,5.5,18.7,5.5z
			 M18.7,3.1c-0.2,0-0.4,0.1-0.5,0.2C18,3.5,17.9,3.7,17.9,4l0,0h1.5V3.9c0-0.2,0-0.5-0.2-0.6C19.1,3.1,18.9,3.1,18.7,3.1z"/>
		<path fill="#F7F7F7" d="M24,4.4L24,4.4c0,0.4-0.2,0.6-0.4,0.8c-0.2,0.2-0.5,0.3-0.9,0.3c-0.4,0-0.7-0.2-0.9-0.4S21.5,4.5,21.5,4
			V3.4c0-0.5,0.1-0.8,0.3-1.1s0.5-0.5,0.9-0.5s0.7,0.1,0.9,0.3C23.8,2.3,24,2.6,24,3l0,0h-0.3c0-0.3-0.2-0.5-0.3-0.7
			C23.3,2.2,23,2,22.7,2c-0.3,0-0.5,0.1-0.7,0.3c-0.2,0.2-0.3,0.5-0.3,0.9v0.6c0,0.4,0.1,0.7,0.3,0.9c0.2,0.2,0.4,0.3,0.7,0.3
			c0.3,0,0.5-0.1,0.7-0.2c0.2-0.2,0.2-0.4,0.3-0.7H24V4.4z"/>
		<path fill="#F7F7F7" d="M26.4,5.5c0-0.1,0-0.2,0-0.2c0,0,0-0.2,0-0.2c-0.1,0.2-0.2,0.2-0.4,0.3c-0.2,0.1-0.3,0.2-0.5,0.2
			c-0.2,0-0.5,0-0.6-0.2c-0.2-0.2-0.2-0.3-0.2-0.5s0.1-0.5,0.3-0.6C25.1,4,25.4,4,25.7,4h0.6V3.7c0-0.2,0-0.3-0.2-0.5
			c-0.2-0.1-0.3-0.2-0.5-0.2c-0.2,0-0.4,0-0.5,0.2c-0.1,0.1-0.2,0.2-0.2,0.4h-0.2l0,0c0-0.2,0.1-0.4,0.2-0.5s0.5-0.2,0.7-0.2
			c0.3,0,0.5,0.1,0.7,0.2c0.2,0.1,0.2,0.3,0.2,0.6v1.3c0,0.1,0,0.2,0,0.2c0,0,0,0.2,0,0.2L26.4,5.5L26.4,5.5L26.4,5.5z M25.4,5.3
			c0.2,0,0.4,0,0.5-0.2c0.2-0.1,0.3-0.2,0.3-0.4V4.2h-0.6c-0.2,0-0.5,0-0.6,0.2c-0.1,0.1-0.2,0.2-0.2,0.5c0,0.2,0,0.2,0.2,0.3
			C25.1,5.2,25.2,5.3,25.4,5.3z"/>
		<path fill="#F7F7F7" d="M27.7,5.5h-0.3V1.7h0.3V5.5z"/>
		<path fill="#F7F7F7" d="M29.5,5.3c0.2,0,0.3,0,0.5-0.2c0.2-0.1,0.2-0.2,0.2-0.4h0.2l0,0c0,0.2-0.1,0.4-0.3,0.6
			c-0.2,0.1-0.4,0.2-0.7,0.2c-0.3,0-0.6-0.2-0.8-0.4c-0.2-0.2-0.3-0.5-0.3-0.9V4.1c0-0.4,0.1-0.7,0.3-0.9c0.2-0.2,0.5-0.4,0.8-0.4
			c0.3,0,0.5,0.1,0.7,0.2c0.2,0.2,0.3,0.4,0.3,0.7l0,0h-0.2c0-0.2,0-0.4-0.2-0.5C29.9,3.1,29.8,3,29.6,3c-0.3,0-0.5,0.1-0.6,0.3
			c-0.2,0.2-0.2,0.5-0.2,0.8v0.1c0,0.3,0,0.6,0.2,0.8C29,5.2,29.2,5.3,29.5,5.3z"/>
		<path fill="#F7F7F7" d="M32.8,5c-0.1,0.2-0.2,0.3-0.3,0.3c-0.2,0.1-0.3,0.2-0.5,0.2c-0.3,0-0.5-0.1-0.6-0.3
			c-0.2-0.2-0.2-0.5-0.2-0.9V2.9h0.3v1.5c0,0.3,0,0.5,0.2,0.7c0.1,0.2,0.2,0.2,0.5,0.2c0.2,0,0.4,0,0.5-0.2c0.2-0.1,0.2-0.2,0.3-0.4
			V2.8h0.3v2.7h-0.2L32.8,5z"/>
		<path fill="#F7F7F7" d="M34.2,5.5h-0.3V1.7h0.3V5.5z"/>
		<path fill="#F7F7F7" d="M36.7,5.5c0-0.1,0-0.2,0-0.2c0,0,0-0.2,0-0.2c-0.1,0.2-0.2,0.2-0.4,0.3c-0.2,0.1-0.3,0.2-0.5,0.2
			c-0.2,0-0.5,0-0.6-0.2S34.9,5,34.9,4.8s0.1-0.5,0.3-0.6C35.4,4,35.7,4,36,4h0.6V3.7c0-0.2,0-0.3-0.2-0.5c-0.2-0.1-0.3-0.2-0.5-0.2
			s-0.4,0-0.5,0.2c-0.1,0.1-0.2,0.2-0.2,0.4H35l0,0c0-0.2,0.1-0.4,0.2-0.5s0.5-0.2,0.7-0.2c0.3,0,0.5,0.1,0.7,0.2
			c0.2,0.2,0.2,0.3,0.2,0.6V5c0,0.1,0,0.2,0,0.2c0,0,0,0.2,0,0.2L36.7,5.5L36.7,5.5L36.7,5.5z M35.7,5.3c0.2,0,0.4,0,0.5-0.2
			c0.2-0.1,0.3-0.2,0.3-0.4V4.2H36c-0.2,0-0.5,0-0.6,0.2c-0.2,0.1-0.2,0.2-0.2,0.5c0,0.2,0,0.2,0.2,0.3C35.4,5.2,35.5,5.3,35.7,5.3z
			"/>
		<path fill="#F7F7F7" d="M38.1,2.2v0.6h0.6v0.2h-0.6v1.7c0,0.2,0,0.3,0.1,0.3c0,0,0.2,0.1,0.2,0.1c0,0,0.1,0,0.2,0c0,0,0.1,0,0.2,0
			l0,0.2c0,0-0.1,0-0.2,0c-0.1,0-0.2,0-0.2,0c-0.2,0-0.3,0-0.5-0.2c-0.1-0.1-0.2-0.3-0.2-0.5V3.1h-0.5V2.8h0.5V2.2L38.1,2.2
			L38.1,2.2z"/>
		<path fill="#F7F7F7" d="M39.1,4.1c0-0.4,0.1-0.7,0.3-0.9s0.5-0.4,0.8-0.4s0.6,0.2,0.8,0.4c0.2,0.2,0.3,0.6,0.3,0.9v0.1
			c0,0.4-0.1,0.7-0.3,0.9s-0.5,0.4-0.8,0.4s-0.6-0.2-0.8-0.4C39.2,4.9,39.1,4.5,39.1,4.1L39.1,4.1z M39.4,4.2c0,0.3,0.1,0.5,0.2,0.8
			c0.2,0.2,0.4,0.3,0.6,0.3c0.3,0,0.5-0.1,0.6-0.3c0.2-0.2,0.2-0.4,0.2-0.8V4.1c0-0.3-0.1-0.5-0.2-0.8C40.7,3.1,40.5,3,40.3,3
			c-0.3,0-0.5,0.1-0.6,0.3C39.5,3.5,39.4,3.8,39.4,4.2L39.4,4.2z"/>
		<path fill="#F7F7F7" d="M43.2,3.1H43c-0.2,0-0.3,0-0.5,0.2c-0.1,0.1-0.2,0.2-0.2,0.5v1.8H42V2.9h0.2v0.4v0
			c0.1-0.2,0.2-0.3,0.3-0.4c0.1-0.1,0.3-0.2,0.5-0.2c0,0,0,0,0.1,0c0,0,0,0,0.1,0L43.2,3.1z"/>
	</g>
</g>
<g id="display">
	<rect x="0.2" y="7.2" fill="#F7F7F7" width="124.6" height="44.4"/>
	<g>
		<path fill="#303030" d="M94.1,28.3c0,1.1-0.2,2-0.8,2.6c-0.5,0.6-1.2,0.9-2.1,0.9s-1.6-0.3-2.1-0.9s-0.8-1.5-0.8-2.6v-2
			c0-1.1,0.2-2,0.8-2.6c0.5-0.6,1.2-0.9,2.1-0.9s1.6,0.3,2.1,0.9c0.5,0.6,0.8,1.5,0.8,2.6V28.3z M92.6,26.1c0-0.7-0.1-1.2-0.3-1.6
			c-0.2-0.3-0.6-0.5-1-0.5c-0.4,0-0.8,0.2-1,0.5c-0.2,0.3-0.3,0.9-0.3,1.6v2.4c0,0.7,0.1,1.3,0.3,1.6c0.2,0.3,0.6,0.5,1,0.5
			c0.5,0,0.8-0.2,1-0.5c0.2-0.3,0.3-0.9,0.3-1.6V26.1z"/>
		<path fill="#303030" d="M97.1,31.7h-1.5v-1.4h1.5V31.7z"/>
		<path fill="#303030" d="M103.7,28.6h1.1v1.2h-1.1v2h-1.5v-2h-3.7l0-0.9l3.7-5.9h1.5V28.6z M99.9,28.6h2.3v-3.5h0l-0.1,0.2
			L99.9,28.6z"/>
		<path fill="#303030" d="M110.7,28.6h1.1v1.2h-1.1v2h-1.5v-2h-3.7l0-0.9l3.7-5.9h1.5L110.7,28.6L110.7,28.6z M106.9,28.6h2.3v-3.5
			h0l-0.1,0.2L106.9,28.6z"/>
		<path fill="#303030" d="M117.7,28.6h1.1v1.2h-1.1v2h-1.5v-2h-3.7l0-0.9l3.7-5.9h1.5V28.6z M113.8,28.6h2.3v-3.5h0l-0.1,0.2
			L113.8,28.6z"/>
	</g>
</g>
<g id="extension">
	<rect x="52.5" y="43.7" display="none" fill="#303030" width="10.6" height="78.3"/>
	<rect x="0.2" y="51.5" fill="#2B2B2B" width="9.8" height="4.9"/>
	<g>
		<path fill="#FFFFFF" d="M3.9,54c0,0.2,0,0.4-0.2,0.5c-0.1,0.2-0.2,0.2-0.4,0.2c-0.1,0-0.2,0-0.3,0c-0.1,0-0.2-0.1-0.2-0.2v0.8H2.6
			v-2h0.2v0.2c0-0.1,0.1-0.2,0.2-0.2c0.1,0,0.2,0,0.3,0c0.2,0,0.3,0,0.4,0.2C3.8,53.5,3.9,53.7,3.9,54L3.9,54z M3.7,53.9
			c0-0.2,0-0.3-0.1-0.4c-0.1-0.1-0.2-0.2-0.3-0.2c-0.1,0-0.2,0-0.2,0.1c0,0-0.1,0.1-0.2,0.2v0.7c0,0.1,0.1,0.2,0.2,0.2
			c0,0,0.2,0,0.2,0c0.2,0,0.2,0,0.3-0.2C3.7,54.3,3.7,54.1,3.7,53.9L3.7,53.9z"/>
		<path fill="#FFFFFF" d="M4.1,53.9c0-0.2,0-0.4,0.2-0.5c0.2-0.2,0.3-0.2,0.5-0.2c0.2,0,0.3,0,0.5,0.2c0.2,0.2,0.2,0.3,0.2,0.5v0
			c0,0.2,0,0.4-0.2,0.5S5,54.7,4.8,54.7s-0.3,0-0.5-0.2C4.2,54.4,4.1,54.2,4.1,53.9L4.1,53.9z M4.3,53.9c0,0.2,0,0.3,0.2,0.5
			c0.1,0.2,0.2,0.2,0.3,0.2c0.2,0,0.3,0,0.3-0.2c0.1-0.1,0.2-0.2,0.2-0.5v0c0-0.2,0-0.3-0.2-0.5c-0.1-0.1-0.2-0.2-0.3-0.2
			c-0.2,0-0.3,0-0.3,0.2C4.4,53.6,4.3,53.7,4.3,53.9L4.3,53.9z"/>
		<path fill="#FFFFFF" d="M6.1,54.2l0,0.2l0,0L6.1,54.2l0.4-1h0.2l0.3,1l0,0.2l0,0l0-0.2l0.2-1h0.2L7,54.6h0l-0.3-1l0-0.2l0,0l0,0.2
			l-0.3,1H6.1l-0.4-1.5h0.2L6.1,54.2z"/>
	</g>
	<rect x="0.2" y="56.3" fill="#2B2B2B" width="9.8" height="4.9"/>
	<g>
		<path fill="#EE1D3E" d="M3.5,58.1L3.5,58.1c-0.2,0-0.3,0-0.3,0.1c0,0-0.1,0.2-0.2,0.2v1H2.8V58h0.2v0.2l0,0c0-0.1,0.1-0.2,0.2-0.2
			c0,0,0.2-0.1,0.2-0.1h0h0L3.5,58.1z"/>
		<path fill="#EE1D3E" d="M3.6,58.7c0-0.2,0-0.4,0.2-0.5C4,58,4.1,58,4.3,58c0.2,0,0.3,0,0.5,0.2C5,58.3,5,58.5,5,58.7v0
			c0,0.2,0,0.4-0.2,0.5c-0.2,0.2-0.3,0.2-0.5,0.2c-0.2,0-0.3,0-0.5-0.2C3.7,59.2,3.6,59,3.6,58.7L3.6,58.7z M3.8,58.7
			c0,0.2,0,0.3,0.2,0.4c0.1,0.2,0.2,0.2,0.3,0.2c0.2,0,0.3,0,0.3-0.2c0.1-0.1,0.2-0.2,0.2-0.4v0c0-0.2,0-0.3-0.2-0.4
			C4.5,58.1,4.4,58,4.3,58c-0.2,0-0.3,0-0.3,0.2C3.9,58.4,3.8,58.5,3.8,58.7L3.8,58.7z"/>
		<path fill="#EE1D3E" d="M5.2,58.7c0-0.2,0-0.4,0.2-0.5C5.6,58,5.7,58,5.9,58c0.2,0,0.3,0,0.5,0.2c0.2,0.2,0.2,0.3,0.2,0.5v0
			c0,0.2,0,0.4-0.2,0.5c-0.2,0.2-0.3,0.2-0.5,0.2c-0.2,0-0.3,0-0.5-0.2C5.2,59.2,5.2,59,5.2,58.7L5.2,58.7z M5.4,58.7
			c0,0.2,0,0.3,0.2,0.4c0.1,0.2,0.2,0.2,0.3,0.2c0.2,0,0.3,0,0.3-0.2c0.1-0.1,0.2-0.2,0.2-0.4v0c0-0.2,0-0.3-0.2-0.4
			C6.1,58.1,6,58,5.8,58c-0.2,0-0.3,0-0.3,0.2C5.4,58.4,5.4,58.5,5.4,58.7L5.4,58.7z"/>
		<path fill="#EE1D3E" d="M7.1,57.6V58h0.3v0.2H7.1v1c0,0.1,0,0.2,0,0.2c0,0,0.1,0,0.2,0c0.1,0,0,0,0.1,0s0,0,0.1,0v0.1
			c0,0,0,0-0.1,0c0,0-0.1,0-0.1,0c-0.1,0-0.2,0-0.2-0.1c0,0-0.1-0.2-0.1-0.3v-1H6.7V58h0.2v-0.4L7.1,57.6L7.1,57.6z"/>
	</g>
	<rect x="0.2" y="61.1" fill="#2B2B2B" width="9.8" height="4.9"/>
	<g>
		<path fill="#FFFFFF" d="M3,64.3V63H2.7v-0.2H3v-0.2c0-0.2,0-0.2,0.1-0.3c0.1-0.1,0.2-0.1,0.3-0.1c0,0,0,0,0.1,0c0,0,0,0,0.1,0v0.2
			h0c0,0,0,0-0.1,0c-0.1,0-0.2,0-0.2,0.1c0,0,0,0.2,0,0.2v0.2h0.3V63H3.2v1.3L3,64.3L3,64.3z"/>
		<path fill="#FFFFFF" d="M4.7,64.3c0,0,0-0.1,0-0.2c0,0,0,0,0-0.1c0,0.1-0.2,0.2-0.2,0.2c-0.1,0-0.2,0.1-0.3,0.1
			c-0.2,0-0.2,0-0.3-0.1c-0.1-0.1-0.1-0.2-0.1-0.3c0-0.2,0-0.2,0.2-0.3c0.1-0.1,0.3-0.1,0.5-0.1h0.3v-0.2c0-0.1,0-0.2-0.1-0.2
			c0,0-0.2-0.1-0.3-0.1c-0.1,0-0.2,0-0.3,0.1c-0.1,0-0.1,0.2-0.1,0.2H3.9l0,0c0-0.1,0-0.2,0.2-0.3c0.1-0.1,0.2-0.2,0.4-0.2
			c0.1,0,0.3,0,0.4,0.2C4.9,63.1,5,63.2,5,63.3v0.7c0,0,0,0.1,0,0.2c0,0,0,0.1,0,0.2L4.7,64.3L4.7,64.3C4.7,64.3,4.7,64.3,4.7,64.3z
			 M4.2,64.2c0.1,0,0.2,0,0.3-0.1c0.1,0,0.2-0.2,0.2-0.2v-0.3H4.4c-0.2,0-0.2,0-0.3,0.1c-0.1,0-0.2,0.2-0.2,0.2c0,0.1,0,0.2,0.1,0.2
			C4,64.2,4.1,64.2,4.2,64.2z"/>
		<path fill="#FFFFFF" d="M5.8,64.2c0.1,0,0.2,0,0.3-0.1c0.1,0,0.2-0.2,0.2-0.2h0.2l0,0c0,0.2,0,0.2-0.2,0.3
			c-0.1,0.1-0.2,0.2-0.4,0.2c-0.2,0-0.3,0-0.4-0.2c-0.1-0.2-0.2-0.3-0.2-0.5v0c0-0.2,0-0.4,0.2-0.5c0.1-0.2,0.2-0.2,0.4-0.2
			c0.2,0,0.3,0,0.4,0.2c0.1,0.1,0.2,0.2,0.2,0.4l0,0H6.3c0-0.1,0-0.2-0.1-0.3C6.1,63,6,63,5.9,63c-0.2,0-0.3,0-0.3,0.2
			c-0.1,0.1-0.1,0.2-0.1,0.5v0c0,0.2,0,0.3,0.1,0.4C5.5,64.1,5.7,64.2,5.8,64.2z"/>
		<path fill="#FFFFFF" d="M7,62.4v0.4h0.3V63H7v1c0,0.1,0,0.2,0,0.2c0,0,0.1,0,0.2,0c0.1,0,0,0,0.1,0c0,0,0,0,0.1,0v0.1
			c0,0,0,0-0.1,0c0,0-0.1,0-0.1,0c-0.1,0-0.2,0-0.2-0.1S6.9,64.1,6.9,64v-1H6.6v-0.2h0.2v-0.4C6.9,62.4,7,62.4,7,62.4z"/>
	</g>
	<rect x="0.2" y="65.9" fill="#2B2B2B" width="9.8" height="4.9"/>
	<g>
		<path fill="#FFFFFF" d="M3.2,67.8L3.2,67.8c-0.2,0-0.3,0-0.3,0.1c0,0-0.1,0.2-0.2,0.2v1H2.5v-1.5h0.2v0.2l0,0
			c0-0.1,0.1-0.2,0.2-0.2c0,0,0.2-0.1,0.2-0.1h0h0L3.2,67.8z"/>
		<path fill="#FFFFFF" d="M4.4,69.1c0,0,0-0.1,0-0.2c0,0,0,0,0-0.1c0,0.1-0.2,0.2-0.2,0.2c-0.1,0-0.2,0.1-0.3,0.1
			c-0.2,0-0.2,0-0.3-0.1c-0.1-0.1-0.1-0.2-0.1-0.3c0-0.2,0-0.2,0.2-0.3c0.1-0.1,0.3-0.1,0.5-0.1h0.3v-0.2c0-0.1,0-0.2-0.1-0.2
			c0,0-0.2-0.1-0.3-0.1c-0.1,0-0.2,0-0.3,0.1c-0.1,0-0.2,0-0.2,0.2H3.4l0,0c0-0.1,0-0.2,0.2-0.3c0.1-0.1,0.2-0.2,0.4-0.2
			c0.2,0,0.3,0,0.4,0.2c0.1,0.1,0.2,0.2,0.2,0.3v0.7c0,0,0,0.1,0,0.2c0,0,0,0.1,0,0.2L4.4,69.1C4.4,69.1,4.4,69.1,4.4,69.1z M3.8,69
			c0.1,0,0.2,0,0.3-0.1c0.1,0,0.2-0.2,0.2-0.2v-0.3H4c-0.2,0-0.2,0-0.3,0.1c-0.1,0-0.2,0.2-0.2,0.2c0,0.1,0,0.2,0.1,0.2
			C3.7,69,3.7,69,3.8,69z"/>
		<path fill="#FFFFFF" d="M5.1,67.6v0.2c0-0.1,0.1-0.2,0.2-0.2c0.1,0,0.2-0.1,0.3-0.1c0.2,0,0.3,0,0.3,0.2C6,67.8,6.1,68,6.1,68.2
			v0.9H5.9v-0.9c0-0.2,0-0.3-0.1-0.3c0,0-0.2-0.1-0.2-0.1c-0.1,0-0.2,0-0.3,0.1c0,0-0.2,0.2-0.2,0.2v1H4.9v-1.5L5.1,67.6L5.1,67.6z"
			/>
		<path fill="#FFFFFF" d="M6.4,68.4c0-0.2,0-0.4,0.2-0.5c0.1-0.2,0.2-0.2,0.4-0.2c0.1,0,0.2,0,0.2,0c0.1,0,0.2,0.1,0.2,0.2V67h0.2
			v2.1H7.4v-0.2c0,0.1-0.1,0.2-0.2,0.2c-0.1,0-0.2,0-0.3,0c-0.2,0-0.3,0-0.4-0.2C6.5,68.8,6.4,68.6,6.4,68.4L6.4,68.4z M6.6,68.4
			c0,0.2,0,0.3,0.1,0.4C6.7,69,6.9,69,7,69c0.1,0,0.2,0,0.2,0c0,0,0.2-0.1,0.2-0.2v-0.7c0-0.1-0.1-0.2-0.2-0.2c0,0-0.2-0.1-0.2-0.1
			c-0.2,0-0.2,0-0.3,0.2C6.6,68,6.6,68.2,6.6,68.4L6.6,68.4z"/>
	</g>
	<rect x="0.2" y="70.8" fill="#2B2B2B" width="9.8" height="4.9"/>
	<g>
		<path fill="#FFFFFF" d="M3.6,73.9H3.4v-2.1h0.2V73.9z"/>
		<path fill="#FFFFFF" d="M4,73.2c0-0.2,0-0.4,0.2-0.5c0.2-0.2,0.3-0.2,0.5-0.2c0.2,0,0.3,0,0.5,0.2c0.2,0.2,0.2,0.3,0.2,0.5v0
			c0,0.2,0,0.4-0.2,0.5S4.9,74,4.7,74c-0.2,0-0.3,0-0.5-0.2C4,73.6,4,73.4,4,73.2L4,73.2z M4.1,73.2c0,0.2,0,0.3,0.2,0.4
			c0.1,0.2,0.2,0.2,0.3,0.2c0.2,0,0.3,0,0.3-0.2c0.1-0.1,0.2-0.2,0.2-0.4v0c0-0.2,0-0.3-0.2-0.4c-0.1-0.1-0.2-0.2-0.3-0.2
			c-0.2,0-0.3,0-0.3,0.2C4.2,72.9,4.1,73,4.1,73.2L4.1,73.2z"/>
		<path fill="#FFFFFF" d="M5.5,73.2c0-0.2,0-0.5,0.2-0.5c0.1-0.2,0.2-0.2,0.5-0.2c0.1,0,0.2,0,0.3,0c0.1,0,0.2,0.1,0.2,0.2v-0.2h0.2
			v1.5c0,0.2,0,0.3-0.2,0.4c-0.1,0.1-0.2,0.2-0.4,0.2c0,0-0.2,0-0.2,0c-0.1,0-0.2,0-0.2,0l0-0.2c0,0,0.1,0,0.2,0c0,0,0.2,0,0.2,0
			c0.2,0,0.2,0,0.3-0.2c0-0.1,0.1-0.2,0.1-0.3v-0.2c0,0.1-0.1,0.2-0.2,0.2c-0.1,0-0.2,0-0.2,0c-0.2,0-0.3,0-0.4-0.2
			C5.6,73.6,5.5,73.5,5.5,73.2L5.5,73.2z M5.7,73.2c0,0.2,0,0.3,0.1,0.4c0,0.1,0.2,0.2,0.3,0.2c0.1,0,0.2,0,0.2,0
			c0,0,0.2-0.1,0.2-0.2v-0.7c0-0.1-0.1-0.2-0.2-0.2c0,0-0.2-0.1-0.2-0.1c-0.2,0-0.2,0-0.3,0.2C5.7,72.9,5.7,73,5.7,73.2L5.7,73.2z"
			/>
	</g>
	<rect x="0.2" y="75.6" fill="#2B2B2B" width="9.8" height="4.9"/>
	<g>
		<g>
			<path fill="#FFFFFF" d="M5.1,78.7c-0.2,0-0.3,0-0.4-0.2c-0.1-0.2-0.2-0.3-0.2-0.5v-0.1c0-0.2,0-0.4,0.2-0.5
				c0.2-0.2,0.2-0.2,0.4-0.2s0.3,0,0.4,0.2c0.1,0.1,0.2,0.2,0.2,0.5v0.2H4.6v0c0,0.2,0,0.3,0.2,0.4c0.1,0.1,0.2,0.2,0.3,0.2
				c0.1,0,0.2,0,0.2,0c0,0,0.2,0,0.2-0.1l0,0.1c0,0-0.2,0.1-0.2,0.2C5.4,78.7,5.2,78.7,5.1,78.7z M5.1,77.4c-0.1,0-0.2,0-0.3,0.2
				c-0.1,0.1-0.2,0.2-0.2,0.3l0,0h0.9v0c0-0.2,0-0.2-0.1-0.3C5.3,77.4,5.2,77.4,5.1,77.4z"/>
		</g>
	</g>
	<rect x="0.2" y="80.4" fill="#2B2B2B" width="9.8" height="4.9"/>
	<g>
		<path fill="#FFFFFF" d="M5.4,82.9c0,0.2,0,0.4-0.2,0.5c-0.1,0.2-0.2,0.2-0.4,0.2c-0.1,0-0.2,0-0.3,0c-0.1,0-0.2-0.1-0.2-0.2v0.8
			H4.2v-2h0.2v0.2c0-0.1,0.1-0.2,0.2-0.2c0.1,0,0.2,0,0.3,0c0.2,0,0.3,0,0.4,0.2C5.3,82.4,5.4,82.6,5.4,82.9L5.4,82.9z M5.2,82.8
			c0-0.2,0-0.3-0.1-0.5c-0.1-0.1-0.2-0.2-0.3-0.2c-0.1,0-0.2,0-0.2,0.1s-0.1,0.1-0.2,0.2v0.7c0,0.1,0.1,0.2,0.2,0.2
			c0.1,0,0.2,0,0.2,0c0.2,0,0.2,0,0.3-0.2C5.2,83.2,5.2,83.1,5.2,82.8L5.2,82.8z"/>
		<path fill="#FFFFFF" d="M5.9,81.7H5.8v-0.2h0.2V81.7z M5.9,83.6H5.8v-1.5h0.2V83.6z"/>
	</g>
</g>
<g id="soustavy">
	<g>
		<path fill="#EF4323" d="M3.1,43.8v-1.7h0.5c0.2,0,0.3,0,0.4,0.1c0.1,0,0.2,0.2,0.2,0.3c0,0.1,0,0.2,0,0.2c0,0.1-0.1,0.1-0.2,0.2
			c0.1,0,0.2,0,0.2,0.2c0,0.1,0.1,0.2,0.1,0.2c0,0.2,0,0.2-0.2,0.3c-0.1,0.1-0.2,0.1-0.4,0.1L3.1,43.8L3.1,43.8z M3.3,42.9h0.4
			c0.1,0,0.2,0,0.3-0.1c0,0,0.1-0.2,0.1-0.2c0-0.1,0-0.2-0.1-0.2c0,0-0.2-0.1-0.3-0.1H3.3V42.9z M3.3,43v0.7h0.5
			c0.1,0,0.2,0,0.3-0.1c0,0,0.1-0.2,0.1-0.2c0-0.1,0-0.2-0.1-0.2c0,0-0.2-0.1-0.3-0.1H3.3L3.3,43z"/>
		<path fill="#EF4323" d="M4.8,43.8H4.6v-1.7h0.2V43.8z"/>
		<path fill="#EF4323" d="M6.4,43.8H6.3l-0.9-1.4l0,0v1.4H5.2v-1.7h0.2l0.9,1.4l0,0v-1.4h0.2V43.8z"/>
		<path d="M10.2,43.8h-0.2v-1.5l-0.4,0v-0.1l0.5-0.1L10.2,43.8L10.2,43.8L10.2,43.8z"/>
		<path d="M12,43.2c0,0.2,0,0.4-0.2,0.5s-0.2,0.2-0.4,0.2c-0.2,0-0.3,0-0.4-0.2c-0.1-0.1-0.2-0.3-0.2-0.5v-0.4c0-0.2,0-0.4,0.2-0.5
			c0.1-0.1,0.2-0.2,0.4-0.2c0.2,0,0.3,0,0.4,0.2c0.1,0.2,0.2,0.3,0.2,0.5V43.2z M11.9,42.8c0-0.2,0-0.3-0.1-0.4
			c0-0.1-0.2-0.2-0.3-0.2c-0.2,0-0.2,0-0.3,0.2c0,0.1-0.1,0.2-0.1,0.4v0.4c0,0.2,0,0.3,0.1,0.4c0,0.1,0.2,0.2,0.3,0.2
			c0.1,0,0.2,0,0.3-0.2c0-0.1,0.1-0.2,0.1-0.4V42.8z"/>
		<path d="M12.9,43.8h-0.2v-1.5l-0.4,0v-0.1l0.5-0.1L12.9,43.8L12.9,43.8L12.9,43.8z"/>
		<path d="M14.6,43.2c0,0.2,0,0.4-0.2,0.5c-0.1,0.1-0.2,0.2-0.4,0.2c-0.2,0-0.3,0-0.4-0.2c-0.1-0.1-0.2-0.3-0.2-0.5v-0.4
			c0-0.2,0-0.4,0.2-0.5c0.1-0.1,0.2-0.2,0.4-0.2c0.2,0,0.3,0,0.4,0.2c0.1,0.2,0.2,0.3,0.2,0.5V43.2z M14.5,42.8c0-0.2,0-0.3-0.1-0.4
			c0-0.1-0.2-0.2-0.3-0.2c-0.2,0-0.2,0-0.3,0.2c0,0.1-0.1,0.2-0.1,0.4v0.4c0,0.2,0,0.3,0.1,0.4c0,0.1,0.2,0.2,0.3,0.2
			c0.1,0,0.2,0,0.3-0.2c0-0.1,0.1-0.2,0.1-0.4V42.8z"/>
		<path d="M16.1,43.8H16v-1.5l-0.4,0v-0.1l0.5-0.1L16.1,43.8L16.1,43.8L16.1,43.8z"/>
		<path d="M17.8,43.2c0,0.2,0,0.4-0.2,0.5c-0.1,0.1-0.2,0.2-0.4,0.2c-0.2,0-0.3,0-0.4-0.2c-0.1-0.1-0.2-0.3-0.2-0.5v-0.4
			c0-0.2,0-0.4,0.2-0.5c0.1-0.1,0.2-0.2,0.4-0.2c0.2,0,0.3,0,0.4,0.2c0.1,0.2,0.2,0.3,0.2,0.5V43.2z M17.7,42.8c0-0.2,0-0.3-0.1-0.4
			c0-0.1-0.2-0.2-0.3-0.2c-0.2,0-0.2,0-0.3,0.2c0,0.1-0.1,0.2-0.1,0.4v0.4c0,0.2,0,0.3,0.1,0.4c0,0.1,0.2,0.2,0.3,0.2
			c0.2,0,0.2,0,0.3-0.2c0-0.1,0.1-0.2,0.1-0.4V42.8z"/>
		<path d="M18.8,43.8h-0.2v-1.5l-0.4,0v-0.1l0.5-0.1L18.8,43.8L18.8,43.8C18.8,43.8,18.8,43.8,18.8,43.8z"/>
		<path d="M20.5,43.2c0,0.2,0,0.4-0.2,0.5c-0.1,0.1-0.2,0.2-0.4,0.2c-0.2,0-0.3,0-0.4-0.2c-0.1-0.1-0.2-0.3-0.2-0.5v-0.4
			c0-0.2,0-0.4,0.2-0.5c0.1-0.1,0.2-0.2,0.4-0.2c0.2,0,0.3,0,0.4,0.2c0.1,0.2,0.2,0.3,0.2,0.5V43.2z M20.3,42.8c0-0.2,0-0.3-0.1-0.4
			c0-0.1-0.2-0.2-0.3-0.2c-0.2,0-0.2,0-0.3,0.2c0,0.1-0.1,0.2-0.1,0.4v0.4c0,0.2,0,0.3,0.1,0.4c0,0.1,0.2,0.2,0.3,0.2
			c0.2,0,0.2,0,0.3-0.2c0-0.1,0.1-0.2,0.1-0.4V42.8z"/>
		<path d="M21.4,43.8h-0.2v-1.5l-0.4,0v-0.1l0.5-0.1L21.4,43.8L21.4,43.8C21.4,43.8,21.4,43.8,21.4,43.8z"/>
		<path d="M23.1,43.2c0,0.2,0,0.4-0.2,0.5c-0.1,0.1-0.2,0.2-0.4,0.2c-0.1,0-0.3,0-0.4-0.2c-0.1-0.1-0.2-0.3-0.2-0.5v-0.4
			c0-0.2,0-0.4,0.2-0.5c0.1-0.1,0.2-0.2,0.4-0.2c0.1,0,0.3,0,0.4,0.2c0.1,0.2,0.2,0.3,0.2,0.5V43.2z M23,42.8c0-0.2,0-0.3-0.1-0.4
			c0-0.1-0.2-0.2-0.3-0.2c-0.1,0-0.2,0-0.3,0.2c0,0.1-0.1,0.2-0.1,0.4v0.4c0,0.2,0,0.3,0.1,0.4c0,0.1,0.2,0.2,0.3,0.2
			c0.1,0,0.2,0,0.3-0.2c0-0.1,0.1-0.2,0.1-0.4V42.8z"/>
	</g>
	<g>
		<path opacity="0.8" fill="#ED1A46" enable-background="new    " d="M3.1,41.3v-1.7h0.5c0.2,0,0.4,0,0.5,0.2
			c0.2,0.2,0.2,0.3,0.2,0.5v0.2c0,0.2,0,0.4-0.2,0.5c-0.2,0.2-0.3,0.2-0.5,0.2L3.1,41.3L3.1,41.3z M3.3,39.7v1.4h0.3
			c0.2,0,0.3,0,0.4-0.2c0.1-0.1,0.2-0.2,0.2-0.4v-0.2c0-0.2,0-0.3-0.2-0.5c-0.1-0.1-0.2-0.2-0.4-0.2L3.3,39.7
			C3.3,39.6,3.3,39.7,3.3,39.7z"/>
		<path opacity="0.8" fill="#ED1A46" enable-background="new    " d="M5.6,40.5H4.8v0.7h0.9v0.1H4.7v-1.7h1v0.1H4.8v0.6h0.8V40.5z"
			/>
		<path opacity="0.8" fill="#ED1A46" enable-background="new    " d="M7.2,40.7L7.2,40.7c0,0.2,0,0.3-0.2,0.4
			c-0.2,0.1-0.2,0.2-0.5,0.2c-0.2,0-0.3,0-0.4-0.2c-0.1-0.2-0.2-0.3-0.2-0.5v-0.2c0-0.2,0-0.4,0.2-0.5c0.1-0.2,0.2-0.2,0.4-0.2
			c0.2,0,0.3,0,0.5,0.2C7,39.8,7.1,40,7.2,40.1l0,0H7c0-0.2,0-0.2-0.2-0.3c-0.1,0-0.2-0.1-0.3-0.1s-0.2,0-0.3,0.2
			C6.1,40,6,40.1,6,40.3v0.3c0,0.2,0,0.3,0.2,0.5c0.1,0.1,0.2,0.2,0.3,0.2c0.2,0,0.2,0,0.3-0.1C7,41.1,7,40.9,7,40.8L7.2,40.7
			L7.2,40.7z"/>
		<path d="M10.3,41.3h-0.2v-1.5l-0.5,0v-0.1l0.5-0.1L10.3,41.3L10.3,41.3z"/>
		<path d="M12.1,40.7c0,0.2,0,0.4-0.2,0.5c-0.1,0.1-0.2,0.2-0.4,0.2c-0.2,0-0.3,0-0.4-0.2C11,41.1,11,40.9,11,40.7v-0.4
			c0-0.2,0-0.4,0.2-0.5c0.1-0.1,0.2-0.2,0.4-0.2c0.2,0,0.3,0,0.4,0.2c0.1,0.2,0.2,0.3,0.2,0.5V40.7z M11.9,40.2c0-0.2,0-0.3-0.1-0.4
			c0-0.1-0.2-0.2-0.3-0.2c-0.2,0-0.2,0-0.3,0.2c0,0.1-0.1,0.2-0.1,0.4v0.4c0,0.2,0,0.3,0.1,0.4c0,0.1,0.2,0.2,0.3,0.2
			c0.2,0,0.2,0,0.3-0.2c0-0.1,0.1-0.2,0.1-0.4V40.2z"/>
		<path d="M12.6,40.4h0.2c0.1,0,0.2,0,0.3-0.1c0.1,0,0.1-0.2,0.1-0.2c0-0.1,0-0.2-0.1-0.2s-0.2-0.1-0.2-0.1c-0.1,0-0.2,0-0.2,0.1
			c0,0-0.1,0.2-0.1,0.2h-0.2l0,0c0-0.2,0-0.2,0.2-0.3c0.1-0.1,0.2-0.2,0.3-0.2c0.2,0,0.2,0,0.3,0.1c0.1,0,0.2,0.2,0.2,0.3
			c0,0.1,0,0.2,0,0.2c0,0-0.1,0.1-0.2,0.2c0.1,0,0.2,0.1,0.2,0.2c0,0,0.1,0.2,0.1,0.2c0,0.2,0,0.2-0.2,0.3c-0.1,0.1-0.2,0.2-0.3,0.2
			c-0.2,0-0.2,0-0.4-0.2c-0.2-0.1-0.2-0.2-0.2-0.3l0,0h0.2c0,0.1,0,0.2,0.1,0.2c0,0,0.2,0.1,0.3,0.1c0.1,0,0.2,0,0.3-0.1
			c0.1,0,0.1-0.2,0.1-0.2c0-0.1,0-0.2-0.1-0.2c0,0-0.2-0.1-0.3-0.1h-0.2l0,0L12.6,40.4L12.6,40.4z"/>
	</g>
	<g>
		<path fill="#EF4323" d="M4.4,48c0,0.2,0,0.4-0.2,0.5c-0.1,0.2-0.3,0.2-0.5,0.2s-0.3,0-0.5-0.2c-0.1-0.2-0.2-0.3-0.2-0.5v-0.2
			c0-0.2,0-0.4,0.2-0.5c0.1-0.2,0.3-0.2,0.4-0.2c0.2,0,0.3,0,0.5,0.2c0.1,0.2,0.2,0.3,0.2,0.5L4.4,48L4.4,48L4.4,48z M4.2,47.8
			c0-0.2,0-0.3-0.2-0.5c-0.1-0.1-0.2-0.2-0.4-0.2c-0.2,0-0.3,0-0.4,0.2c-0.1,0.1-0.2,0.2-0.2,0.5v0.3c0,0.2,0,0.3,0.2,0.4
			c0.1,0.1,0.2,0.2,0.4,0.2c0.2,0,0.3,0,0.4-0.2c0.1-0.1,0.2-0.2,0.2-0.4V47.8z"/>
		<path fill="#EF4323" d="M5.8,48.2L5.8,48.2c0,0.2,0,0.3-0.2,0.4c-0.2,0.1-0.2,0.2-0.4,0.2s-0.3,0-0.5-0.2
			c-0.1-0.2-0.2-0.3-0.2-0.5v-0.2c0-0.2,0-0.4,0.2-0.5c0.1-0.2,0.2-0.2,0.5-0.2s0.3,0,0.4,0.2c0.1,0.1,0.2,0.2,0.2,0.4l0,0H5.7
			c0-0.2,0-0.2-0.2-0.3c-0.1,0-0.2-0.1-0.3-0.1c-0.2,0-0.2,0-0.3,0.2c-0.1,0.1-0.2,0.2-0.2,0.5v0.3c0,0.2,0,0.3,0.2,0.4
			c0.1,0.1,0.2,0.2,0.3,0.2c0.2,0,0.2,0,0.3-0.1c0.1,0,0.2-0.2,0.2-0.3L5.8,48.2L5.8,48.2z"/>
		<path fill="#EF4323" d="M7.3,47.2H6.7v1.5H6.6v-1.5H6v-0.1L7.3,47.2L7.3,47.2z"/>
		<path d="M10.6,48.2h0.2v0.1L10.6,48.2v0.5h-0.2v-0.5H9.7v-0.1l0.8-1.2h0.2V48.2z M9.9,48.2h0.6v-0.9l0,0l0,0.2L9.9,48.2z"/>
		<path d="M12.1,48.1c0,0.2,0,0.4-0.2,0.5c-0.1,0.1-0.2,0.2-0.4,0.2c-0.1,0-0.3,0-0.4-0.2c-0.1-0.1-0.2-0.3-0.2-0.5v-0.4
			c0-0.2,0-0.4,0.2-0.5c0.1-0.1,0.2-0.2,0.4-0.2c0.1,0,0.3,0,0.4,0.2c0.1,0.2,0.2,0.3,0.2,0.5V48.1z M12,47.7c0-0.2,0-0.3-0.1-0.4
			c0-0.1-0.2-0.2-0.3-0.2c-0.2,0-0.2,0-0.3,0.2c0,0.1-0.1,0.2-0.1,0.4v0.4c0,0.2,0,0.3,0.1,0.4c0,0.1,0.2,0.2,0.3,0.2
			c0.1,0,0.2,0,0.3-0.2c0-0.1,0.1-0.2,0.1-0.4V47.7z"/>
		<path d="M12.7,47.9h0.2c0.1,0,0.2,0,0.3-0.1c0.1,0,0.1-0.2,0.1-0.2s0-0.2-0.1-0.2s-0.2-0.1-0.2-0.1c-0.1,0-0.2,0-0.2,0.1
			c0,0-0.1,0.2-0.1,0.2h-0.2l0,0c0-0.2,0-0.2,0.2-0.3c0.1-0.1,0.2-0.2,0.3-0.2c0.1,0,0.2,0,0.3,0.1c0.1,0,0.2,0.2,0.2,0.3
			c0,0.1,0,0.2,0,0.2c0,0-0.1,0.1-0.2,0.2c0.1,0,0.2,0.1,0.2,0.2c0,0,0.1,0.2,0.1,0.2c0,0.2,0,0.2-0.2,0.3c-0.1,0.1-0.2,0.2-0.3,0.2
			c-0.2,0-0.2,0-0.4-0.2c-0.2-0.1-0.2-0.2-0.2-0.3l0,0h0.2c0,0.1,0,0.2,0.1,0.2c0,0,0.2,0.1,0.3,0.1c0.1,0,0.2,0,0.3-0.1
			c0.1,0,0.1-0.2,0.1-0.2c0-0.1,0-0.2-0.1-0.2s-0.2-0.1-0.3-0.1h-0.2l0,0L12.7,47.9L12.7,47.9z"/>
	</g>
	<g>
		<path fill="#EF4323" d="M4.4,46.3H4.2v-0.8H3.3v0.8H3.1v-1.7h0.2v0.8h0.9v-0.8h0.2V46.3z"/>
		<path fill="#EF4323" d="M5.7,45.5H4.9v0.7h0.9v0.1h-1v-1.7h1v0.1H4.9v0.6h0.8L5.7,45.5L5.7,45.5L5.7,45.5z"/>
		<path fill="#EF4323" d="M6.6,45.4l0.5-0.7h0.2l-0.5,0.8l0.6,0.8H7.2l-0.5-0.7l-0.5,0.7H6l0.6-0.8l-0.5-0.8h0.2L6.6,45.4z"/>
		<path d="M10.6,45.7h0.2v0.1L10.6,45.7v0.5h-0.2v-0.5H9.7v-0.1l0.8-1.2h0.2V45.7z M9.9,45.7h0.6v-0.9l0,0l0,0.2L9.9,45.7z"/>
		<path d="M12.1,45.5h-0.8v0.8h-0.2v-1.7h1.1v0.1h-0.9v0.6h0.8C12.1,45.4,12.1,45.5,12.1,45.5z"/>
		<path d="M13.3,45.8h-0.7l-0.2,0.5h-0.2l0.6-1.7H13l0.6,1.7h-0.2L13.3,45.8z M12.6,45.7h0.7l-0.4-0.9l0,0L12.6,45.7z"/>
	</g>
</g>
<g id="history">
	<rect x="125.1" y="7.2" fill="#2B2B2B" width="55.1" height="78"/>
	<rect x="125.1" y="7.2" fill="#C1C1C0" width="55.1" height="13.3"/>
	<g>
		<g>
			<path d="M130.9,16.9h-2.5l-0.5,1.5h-0.5l2-5.3h0.4l2,5.3h-0.4L130.9,16.9z M128.7,16.6h2.2l-1.1-2.9l0,0L128.7,16.6z"/>
			<path d="M133,14.5l0,0.7c0.2-0.2,0.3-0.4,0.5-0.5c0.2-0.2,0.5-0.2,0.8-0.2c0.4,0,0.7,0.2,1,0.4c0.2,0.2,0.3,0.7,0.3,1.2v2.4h-0.4
				V16c0-0.4-0.1-0.8-0.2-1s-0.4-0.3-0.7-0.3c-0.3,0-0.5,0.1-0.7,0.2c-0.2,0.2-0.3,0.4-0.4,0.6v2.7h-0.5v-3.9L133,14.5L133,14.5
				L133,14.5z"/>
			<path d="M139.2,17.4c0-0.2-0.1-0.3-0.2-0.5s-0.4-0.2-0.8-0.3c-0.5-0.1-0.8-0.2-1-0.4c-0.2-0.2-0.3-0.4-0.3-0.7
				c0-0.3,0.2-0.5,0.4-0.8c0.2-0.2,0.6-0.3,1-0.3s0.8,0.1,1.1,0.3c0.2,0.2,0.4,0.5,0.4,0.8l0,0h-0.4c0-0.2-0.1-0.4-0.3-0.6
				c-0.2-0.2-0.4-0.2-0.7-0.2s-0.5,0-0.7,0.2c-0.2,0.2-0.2,0.3-0.2,0.5s0,0.3,0.2,0.4c0.2,0.1,0.4,0.2,0.8,0.3
				c0.5,0.1,0.8,0.2,1,0.5c0.2,0.2,0.3,0.5,0.3,0.7c0,0.3-0.2,0.6-0.4,0.8c-0.2,0.2-0.6,0.3-1.1,0.3c-0.5,0-0.8-0.1-1.1-0.3
				s-0.4-0.5-0.4-0.8l0,0h0.4c0,0.3,0.2,0.5,0.3,0.6c0.2,0.2,0.5,0.2,0.7,0.2c0.3,0,0.6,0,0.7-0.2C139.1,17.8,139.2,17.6,139.2,17.4
				z"/>
		</g>
	</g>
	<g>
		<path fill="#FFFFFF" d="M128,9.7h0.2c0.2,0,0.3,0,0.3-0.1c0.1-0.1,0.1-0.2,0.1-0.3c0-0.2,0-0.2-0.1-0.3C128.5,9,128.3,9,128.2,9
			c-0.2,0-0.2,0-0.3,0.1c-0.1,0.1-0.2,0.2-0.2,0.3h-0.2l0,0c0-0.2,0-0.3,0.2-0.4c0.2-0.1,0.3-0.2,0.4-0.2c0.2,0,0.3,0,0.4,0.2
			c0.1,0.1,0.2,0.2,0.2,0.4c0,0.1,0,0.2-0.1,0.3s-0.2,0.2-0.2,0.2c0.2,0,0.2,0.1,0.3,0.2c0,0.1,0.1,0.2,0.1,0.3c0,0.2,0,0.3-0.2,0.4
			c-0.1,0.1-0.3,0.2-0.5,0.2c-0.2,0-0.3,0-0.5-0.2c-0.2-0.1-0.2-0.2-0.2-0.4l0,0h0.2c0,0.2,0,0.2,0.2,0.3c0.1,0.1,0.2,0.2,0.3,0.2
			c0.2,0,0.2,0,0.3-0.1s0.2-0.2,0.2-0.3c0-0.1,0-0.2-0.2-0.3c-0.1,0-0.2-0.1-0.4-0.1h0L128,9.7L128,9.7z"/>
		<path fill="#FFFFFF" d="M129.6,9.4l-0.5-0.2l0-0.2l0.5,0.2V8.8h0.2v0.5l0.5-0.2l0,0.2l-0.5,0.2l0.3,0.4L130,10l-0.3-0.4l-0.3,0.4
			l-0.2-0.1L129.6,9.4z"/>
		<path fill="#FFFFFF" d="M130.5,10.1c0-0.3,0-0.7,0.2-0.9c0.2-0.3,0.3-0.5,0.4-0.6l0,0l0,0.1c-0.2,0.1-0.2,0.3-0.4,0.5
			c-0.1,0.2-0.2,0.5-0.2,0.9v0c0,0.3,0,0.6,0.2,0.9c0.1,0.2,0.2,0.4,0.4,0.5l0,0.1l0,0c-0.2-0.1-0.3-0.3-0.4-0.5
			C130.6,10.8,130.5,10.4,130.5,10.1L130.5,10.1z"/>
		<path fill="#FFFFFF" d="M131.9,9.7h0.2c0.2,0,0.3,0,0.3-0.1c0.1-0.1,0.1-0.2,0.1-0.3c0-0.2,0-0.2-0.1-0.3C132.3,9,132.2,9,132.1,9
			c-0.2,0-0.2,0-0.3,0.1c-0.1,0.1-0.2,0.2-0.2,0.3h-0.2l0,0c0-0.2,0-0.3,0.2-0.4c0.2-0.1,0.3-0.2,0.5-0.2c0.2,0,0.3,0,0.4,0.2
			c0.1,0.1,0.2,0.2,0.2,0.4c0,0.1,0,0.2-0.1,0.3c0,0.1-0.2,0.2-0.2,0.2c0.2,0,0.2,0.1,0.3,0.2c0,0.1,0.1,0.2,0.1,0.3
			c0,0.2,0,0.3-0.2,0.4c-0.1,0.1-0.3,0.2-0.5,0.2c-0.2,0-0.3,0-0.5-0.2c-0.2-0.1-0.2-0.2-0.2-0.4l0,0h0.2c0,0.2,0,0.2,0.2,0.3
			c0.1,0.1,0.2,0.2,0.3,0.2c0.2,0,0.2,0,0.3-0.1c0.1,0,0.2-0.2,0.2-0.3c0-0.1,0-0.2-0.2-0.3c-0.1,0-0.2-0.1-0.4-0.1h-0.2V9.8
			L131.9,9.7L131.9,9.7L131.9,9.7z"/>
		<path fill="#FFFFFF" d="M134.2,10.2h0.3v0.2h-0.3v0.5H134v-0.5h-1v-0.1l1-1.5h0.2V10.2z M133.2,10.2h0.8V9l0,0l-0.1,0.2
			L133.2,10.2z"/>
		<path fill="#FFFFFF" d="M135.1,9.7h0.2c0.2,0,0.3,0,0.3-0.1c0,0,0.1-0.2,0.1-0.3c0-0.2,0-0.2-0.1-0.3C135.6,9,135.5,9,135.3,9
			c-0.2,0-0.2,0-0.3,0.1c-0.1,0.1-0.2,0.2-0.2,0.3h-0.1l0,0c0-0.2,0-0.3,0.2-0.4c0.1-0.1,0.3-0.2,0.4-0.2c0.2,0,0.3,0,0.4,0.2
			c0.1,0.1,0.2,0.2,0.2,0.4c0,0.1,0,0.2-0.1,0.3c0,0.1-0.2,0.2-0.2,0.2c0.2,0,0.2,0.1,0.3,0.2c0,0.1,0.1,0.2,0.1,0.3
			c0,0.2,0,0.3-0.2,0.4c-0.2,0.1-0.3,0.2-0.5,0.2c-0.2,0-0.3,0-0.5-0.2c-0.2-0.1-0.2-0.2-0.2-0.4l0,0h0.2c0,0.2,0,0.2,0.2,0.3
			c0.1,0.1,0.2,0.2,0.3,0.2s0.2,0,0.3-0.1c0.1,0,0.2-0.2,0.2-0.3c0-0.1,0-0.2-0.2-0.3c-0.1,0-0.2-0.1-0.4-0.1H135V9.8L135.1,9.7
			L135.1,9.7L135.1,9.7z"/>
		<path fill="#FFFFFF" d="M137,10.1c0,0.3,0,0.7-0.2,0.9c-0.2,0.3-0.3,0.4-0.4,0.5l0,0l0-0.1c0.2-0.1,0.2-0.3,0.4-0.5
			c0.1-0.2,0.2-0.5,0.2-0.9v0c0-0.3,0-0.6-0.2-0.9c-0.1-0.3-0.2-0.4-0.3-0.5l0-0.1l0,0c0.2,0.1,0.3,0.3,0.4,0.6
			C136.9,9.4,137,9.7,137,10.1L137,10.1z"/>
		<path fill="#FFFFFF" d="M138.1,9.8h0.6V10h-0.6v0.7h-0.2V10h-0.6V9.8h0.6V9.2h0.2L138.1,9.8L138.1,9.8z"/>
		<path fill="#FFFFFF" d="M140.1,10.2h0.3v0.2h-0.3v0.5h-0.2v-0.5h-1v-0.1l1-1.5h0.2V10.2z M139.2,10.2h0.8V9l0,0l-0.1,0.2
			L139.2,10.2z"/>
		<path fill="#FFFFFF" d="M141.8,10.2h0.3v0.2h-0.3v0.5h-0.2v-0.5h-1v-0.1l1-1.5h0.2V10.2z M140.8,10.2h0.8V9l0,0l-0.1,0.2
			L140.8,10.2z"/>
	</g>
	<g>
		<g>
			<path fill="#FFFFFF" d="M161.1,14.4l0.3-3.4h3v0.5h-2.6l-0.2,2.2c0.2-0.2,0.3-0.2,0.5-0.3c0.2-0.1,0.4-0.1,0.8-0.2
				c0.5,0,1,0.2,1.3,0.5c0.3,0.3,0.5,0.8,0.5,1.5c0,0.6-0.2,1.1-0.5,1.5c-0.3,0.4-0.8,0.5-1.4,0.5c-0.5,0-0.9-0.2-1.3-0.5
				c-0.3-0.3-0.5-0.7-0.5-1.3v0h0.4c0,0.4,0.1,0.7,0.3,1s0.5,0.3,0.9,0.3c0.4,0,0.8-0.2,1-0.4c0.2-0.3,0.3-0.7,0.3-1.2
				c0-0.5-0.1-0.8-0.3-1.1s-0.5-0.4-1-0.4c-0.4,0-0.7,0-0.9,0.2c-0.2,0.2-0.3,0.3-0.5,0.6L161.1,14.4L161.1,14.4z"/>
			<path fill="#FFFFFF" d="M168.8,15.2h1v0.4h-1v1.6h-0.5v-1.6h-2.9v-0.3l2.8-4.4h0.5V15.2z M166,15.2h2.3v-3.5h0l-0.2,0.4L166,15.2
				z"/>
			<path fill="#FFFFFF" d="M171.1,17.1l-0.4,1.2h-0.3l0.3-1.2v-0.7h0.5V17.1z"/>
			<path fill="#FFFFFF" d="M175.4,15.2h1v0.4h-1v1.6h-0.5v-1.6H172v-0.3l2.8-4.4h0.5V15.2z M172.5,15.2h2.3v-3.5h0l-0.2,0.4
				L172.5,15.2z"/>
		</g>
	</g>
	<rect x="125.1" y="20.5" fill="#2B2B2B" width="53.1" height="13.3"/>
	<g>
		<path fill="#ED1A46" d="M128.1,31.7v-5.3h1.5c0.6,0,1.2,0.2,1.6,0.6c0.4,0.4,0.6,1,0.6,1.7v0.7c0,0.7-0.2,1.2-0.6,1.7
			c-0.4,0.4-1,0.6-1.6,0.6L128.1,31.7L128.1,31.7z M128.5,26.8v4.5h1.1c0.5,0,1-0.2,1.3-0.5c0.3-0.3,0.5-0.8,0.5-1.4v-0.7
			c0-0.5-0.2-1-0.5-1.4c-0.3-0.3-0.8-0.5-1.3-0.5L128.5,26.8L128.5,26.8z"/>
		<path fill="#ED1A46" d="M136,29.2h-2.6v2.5h-0.4v-5.3h3.4v0.4h-2.9v2h2.6L136,29.2L136,29.2z"/>
	</g>
	<g>
		<path fill="#FFFFFF" d="M128,23.1h0.2c0.2,0,0.3,0,0.3-0.1c0.1-0.1,0.1-0.2,0.1-0.3c0-0.2,0-0.2-0.1-0.3c-0.1-0.1-0.2-0.1-0.3-0.1
			c-0.2,0-0.2,0-0.3,0.1c-0.1,0.1-0.2,0.2-0.2,0.3h-0.2l0,0c0-0.2,0-0.3,0.2-0.4s0.3-0.2,0.4-0.2c0.2,0,0.3,0,0.4,0.2
			c0.1,0.1,0.2,0.2,0.2,0.5c0,0.1,0,0.2-0.1,0.3c0,0.1-0.2,0.2-0.2,0.2c0.2,0,0.2,0.1,0.3,0.2c0,0.1,0.1,0.2,0.1,0.3
			c0,0.2,0,0.3-0.2,0.4c-0.1,0.1-0.3,0.2-0.5,0.2c-0.2,0-0.3,0-0.5-0.2c-0.2-0.1-0.2-0.2-0.2-0.4l0,0h0.2c0,0.2,0,0.2,0.2,0.3
			c0.1,0.1,0.2,0.2,0.3,0.2c0.2,0,0.2,0,0.3-0.1c0.1,0,0.2-0.2,0.2-0.3c0-0.1,0-0.2-0.2-0.3c-0.1,0-0.2-0.1-0.4-0.1h0L128,23.1
			L128,23.1z"/>
		<path fill="#FFFFFF" d="M129.6,22.8l-0.5-0.2l0-0.2l0.5,0.2v-0.5h0.2v0.5l0.5-0.2l0,0.2l-0.5,0.2l0.3,0.5l-0.2,0.1l-0.3-0.5
			l-0.3,0.5l-0.2-0.1L129.6,22.8z"/>
		<path fill="#FFFFFF" d="M130.5,23.4c0-0.3,0-0.7,0.2-0.9c0.2-0.3,0.3-0.5,0.4-0.6l0,0l0,0.1c-0.2,0.1-0.2,0.3-0.4,0.5
			c-0.1,0.2-0.2,0.5-0.2,0.9v0c0,0.3,0,0.6,0.2,0.9c0.1,0.2,0.2,0.4,0.4,0.5l0,0.1l0,0c-0.2-0.1-0.3-0.3-0.4-0.5
			C130.6,24.1,130.5,23.8,130.5,23.4L130.5,23.4z"/>
		<path fill="#FFFFFF" d="M131.9,23.1h0.2c0.2,0,0.3,0,0.3-0.1c0.1-0.1,0.1-0.2,0.1-0.3c0-0.2,0-0.2-0.1-0.3
			c-0.1-0.1-0.2-0.1-0.3-0.1c-0.2,0-0.2,0-0.3,0.1c-0.1,0.1-0.2,0.2-0.2,0.3h-0.2l0,0c0-0.2,0-0.3,0.2-0.4c0.2-0.1,0.3-0.2,0.5-0.2
			c0.2,0,0.3,0,0.4,0.2c0.1,0.1,0.2,0.2,0.2,0.5c0,0.1,0,0.2-0.1,0.3c0,0.1-0.2,0.2-0.2,0.2c0.2,0,0.2,0.1,0.3,0.2
			c0,0.1,0.1,0.2,0.1,0.3c0,0.2,0,0.3-0.2,0.4c-0.1,0.1-0.3,0.2-0.5,0.2c-0.2,0-0.3,0-0.5-0.2c-0.2-0.1-0.2-0.2-0.2-0.4l0,0h0.2
			c0,0.2,0,0.2,0.2,0.3c0.1,0.1,0.2,0.2,0.3,0.2c0.2,0,0.2,0,0.3-0.1c0.1,0,0.2-0.2,0.2-0.3c0-0.1,0-0.2-0.2-0.3
			c-0.1,0-0.2-0.1-0.4-0.1h-0.2v-0.4H131.9z"/>
		<path fill="#FFFFFF" d="M134.2,23.6h0.3v0.2h-0.3v0.5H134v-0.5h-1v-0.1l1-1.5h0.2V23.6z M133.2,23.6h0.8v-1.2l0,0l-0.1,0.2
			L133.2,23.6z"/>
		<path fill="#FFFFFF" d="M135.1,23.1h0.2c0.2,0,0.3,0,0.3-0.1c0,0,0.1-0.2,0.1-0.3c0-0.2,0-0.2-0.1-0.3c-0.1-0.1-0.2-0.1-0.3-0.1
			c-0.2,0-0.2,0-0.3,0.1c-0.1,0.1-0.2,0.2-0.2,0.3h-0.1l0,0c0-0.2,0-0.3,0.2-0.4c0.1-0.1,0.3-0.2,0.4-0.2c0.2,0,0.3,0,0.4,0.2
			c0.1,0.1,0.2,0.2,0.2,0.5c0,0.1,0,0.2-0.1,0.3c0,0.1-0.2,0.2-0.2,0.2c0.2,0,0.2,0.1,0.3,0.2c0,0.1,0.1,0.2,0.1,0.3
			c0,0.2,0,0.3-0.2,0.4c-0.2,0.1-0.3,0.2-0.5,0.2c-0.2,0-0.3,0-0.5-0.2c-0.2-0.1-0.2-0.2-0.2-0.4l0,0h0.2c0,0.2,0,0.2,0.2,0.3
			s0.2,0.2,0.3,0.2s0.2,0,0.3-0.1c0.1,0,0.2-0.2,0.2-0.3c0-0.1,0-0.2-0.2-0.3c-0.1,0-0.2-0.1-0.4-0.1H135v-0.4H135.1z"/>
		<path fill="#FFFFFF" d="M137,23.4c0,0.3,0,0.7-0.2,0.9c-0.2,0.3-0.3,0.5-0.4,0.5l0,0l0-0.1c0.2-0.1,0.2-0.3,0.4-0.5
			c0.1-0.2,0.2-0.5,0.2-0.9v0c0-0.3,0-0.6-0.2-0.9c-0.1-0.3-0.2-0.5-0.3-0.5l0-0.1l0,0c0.2,0.1,0.3,0.3,0.4,0.6
			C136.9,22.7,137,23,137,23.4L137,23.4z"/>
		<path fill="#FFFFFF" d="M138.1,23.2h0.6v0.2h-0.6V24h-0.2v-0.7h-0.6v-0.2h0.6v-0.7h0.2L138.1,23.2L138.1,23.2z"/>
		<path fill="#FFFFFF" d="M140.1,23.6h0.3v0.2h-0.3v0.5h-0.2v-0.5h-1v-0.1l1-1.5h0.2V23.6z M139.2,23.6h0.8v-1.2l0,0l-0.1,0.2
			L139.2,23.6z"/>
		<path fill="#FFFFFF" d="M141.8,23.6h0.3v0.2h-0.3v0.5h-0.2v-0.5h-1v-0.1l1-1.5h0.2V23.6z M140.8,23.6h0.8v-1.2l0,0l-0.1,0.2
			L140.8,23.6z"/>
	</g>
	<g>
		<g>
			<path fill="#FFFFFF" d="M161.1,27.7l0.3-3.4h3v0.5h-2.6l-0.2,2.2c0.2-0.2,0.3-0.2,0.5-0.3c0.2-0.1,0.4-0.1,0.8-0.2
				c0.5,0,1,0.2,1.3,0.5c0.3,0.3,0.5,0.8,0.5,1.5s-0.2,1.1-0.5,1.5c-0.3,0.4-0.8,0.5-1.4,0.5c-0.5,0-0.9-0.2-1.3-0.4
				c-0.3-0.3-0.5-0.7-0.5-1.3v0h0.4c0,0.5,0.1,0.7,0.3,1s0.5,0.3,0.9,0.3c0.4,0,0.8-0.2,1-0.5c0.2-0.3,0.3-0.7,0.3-1.2
				c0-0.4-0.1-0.8-0.3-1.1s-0.5-0.4-1-0.4c-0.4,0-0.7,0-0.9,0.2c-0.2,0.2-0.3,0.3-0.5,0.6L161.1,27.7L161.1,27.7z"/>
			<path fill="#FFFFFF" d="M168.8,28.5h1v0.5h-1v1.6h-0.5v-1.6h-2.9v-0.3l2.8-4.4h0.5V28.5z M166,28.5h2.3v-3.5h0l-0.2,0.5L166,28.5
				z"/>
			<path fill="#FFFFFF" d="M171.1,30.4l-0.4,1.2h-0.3l0.3-1.2v-0.7h0.5V30.4z"/>
			<path fill="#FFFFFF" d="M175.4,28.5h1v0.5h-1v1.6h-0.5v-1.6H172v-0.3l2.8-4.4h0.5V28.5z M172.5,28.5h2.3v-3.5h0l-0.2,0.5
				L172.5,28.5z"/>
		</g>
	</g>
	<rect x="125.1" y="33.5" fill="#2B2B2B" width="53.1" height="13.3"/>
	<g>
		<path fill="#ED1A46" d="M129.7,41.7l1.5-2.3h0.5L130,42l1.8,2.7h-0.5l-1.6-2.3l-1.6,2.3h-0.5l1.8-2.7l-1.8-2.6h0.5L129.7,41.7z"/>
		<path fill="#ED1A46" d="M134.2,42.4l1.7-2.9h0.5l-1.9,3.4v2H134v-2l-1.9-3.3h0.5L134.2,42.4z"/>
	</g>
	<g>
		<path fill="#FFFFFF" d="M128,36h0.2c0.2,0,0.3,0,0.3-0.1c0.1-0.1,0.1-0.2,0.1-0.3c0-0.2,0-0.2-0.1-0.3c-0.1-0.1-0.2-0.1-0.3-0.1
			c-0.2,0-0.2,0-0.3,0.1c-0.1,0.1-0.2,0.2-0.2,0.3h-0.2l0,0c0-0.2,0-0.3,0.2-0.4s0.3-0.2,0.4-0.2c0.2,0,0.3,0,0.4,0.2
			c0.1,0.1,0.2,0.2,0.2,0.5c0,0.1,0,0.2-0.1,0.3c0,0.1-0.2,0.2-0.2,0.2c0.2,0,0.2,0.1,0.3,0.2c0,0.1,0.1,0.2,0.1,0.3
			c0,0.2,0,0.3-0.2,0.5c-0.1,0.1-0.3,0.2-0.5,0.2c-0.2,0-0.3,0-0.5-0.2c-0.2-0.1-0.2-0.2-0.2-0.5l0,0h0.2c0,0.2,0,0.2,0.2,0.3
			c0.1,0.1,0.2,0.2,0.3,0.2c0.2,0,0.2,0,0.3-0.1c0.1,0,0.2-0.2,0.2-0.3c0-0.2,0-0.2-0.2-0.3c-0.1,0-0.2-0.1-0.4-0.1h0L128,36L128,36
			z"/>
		<path fill="#FFFFFF" d="M129.6,35.7l-0.5-0.2l0-0.2l0.5,0.2v-0.5h0.2v0.5l0.5-0.2l0,0.2l-0.5,0.2l0.3,0.5l-0.2,0.1l-0.3-0.5
			l-0.3,0.5l-0.2-0.1L129.6,35.7z"/>
		<path fill="#FFFFFF" d="M130.5,36.3c0-0.3,0-0.7,0.2-0.9c0.2-0.3,0.3-0.5,0.4-0.6l0,0l0,0.1c-0.2,0.1-0.2,0.3-0.4,0.5
			c-0.1,0.2-0.2,0.5-0.2,0.9v0c0,0.3,0,0.6,0.2,0.9c0.1,0.2,0.2,0.5,0.4,0.5l0,0.1l0,0c-0.2-0.1-0.3-0.3-0.4-0.5
			C130.6,37.1,130.5,36.7,130.5,36.3L130.5,36.3z"/>
		<path fill="#FFFFFF" d="M131.8,36h0.2c0.2,0,0.3,0,0.3-0.1c0.1-0.1,0.1-0.2,0.1-0.3c0-0.2,0-0.2-0.1-0.3c-0.1-0.1-0.2-0.1-0.3-0.1
			s-0.2,0-0.3,0.1c-0.1,0.1-0.2,0.2-0.2,0.3h-0.1l0,0c0-0.2,0-0.3,0.2-0.4c0.2-0.1,0.3-0.2,0.4-0.2c0.2,0,0.3,0,0.4,0.2
			c0.1,0.1,0.2,0.2,0.2,0.5c0,0.1,0,0.2-0.1,0.3c0,0.1-0.2,0.2-0.2,0.2c0.2,0,0.2,0.1,0.3,0.2c0,0.1,0.1,0.2,0.1,0.3
			c0,0.2,0,0.3-0.2,0.5c-0.1,0.1-0.3,0.2-0.5,0.2c-0.2,0-0.3,0-0.5-0.2c-0.2-0.1-0.2-0.2-0.2-0.5l0,0h0.2c0,0.2,0,0.2,0.2,0.3
			c0.1,0.1,0.2,0.2,0.3,0.2c0.2,0,0.2,0,0.3-0.1c0.1,0,0.2-0.2,0.2-0.3c0-0.2,0-0.2-0.2-0.3c-0.1,0-0.2-0.1-0.4-0.1h-0.2L131.8,36
			L131.8,36L131.8,36L131.8,36z"/>
		<path fill="#FFFFFF" d="M134.2,36.5h0.3v0.2h-0.3v0.5H134v-0.5h-1v-0.1l1-1.5h0.2V36.5z M133.2,36.5h0.8v-1.2l0,0l-0.1,0.2
			L133.2,36.5z"/>
		<path fill="#FFFFFF" d="M135.1,36h0.2c0.2,0,0.3,0,0.3-0.1c0,0,0.1-0.2,0.1-0.3c0-0.2,0-0.2-0.1-0.3c-0.1-0.1-0.2-0.1-0.3-0.1
			c-0.2,0-0.2,0-0.3,0.1c-0.1,0.1-0.2,0.2-0.2,0.3h-0.1l0,0c0-0.2,0-0.3,0.2-0.4c0.1-0.1,0.3-0.2,0.4-0.2c0.2,0,0.3,0,0.4,0.2
			c0.1,0.1,0.2,0.2,0.2,0.5c0,0.1,0,0.2-0.1,0.3c0,0.1-0.2,0.2-0.2,0.2c0.2,0,0.2,0.1,0.3,0.2c0,0.1,0.1,0.2,0.1,0.3
			c0,0.2,0,0.3-0.2,0.5c-0.2,0.1-0.3,0.2-0.5,0.2c-0.2,0-0.3,0-0.5-0.2c-0.2-0.1-0.2-0.2-0.2-0.5l0,0h0.2c0,0.2,0,0.2,0.2,0.3
			s0.2,0.2,0.3,0.2s0.2,0,0.3-0.1c0.1,0,0.2-0.2,0.2-0.3c0-0.2,0-0.2-0.2-0.3c-0.1,0-0.2-0.1-0.4-0.1H135v-0.3L135.1,36L135.1,36
			L135.1,36z"/>
		<path fill="#FFFFFF" d="M137,36.4c0,0.3,0,0.7-0.2,0.9c-0.2,0.3-0.3,0.4-0.4,0.5l0,0l0-0.1c0.2-0.1,0.2-0.3,0.4-0.5
			c0.1-0.2,0.2-0.5,0.2-0.9v0c0-0.3,0-0.6-0.2-0.9c-0.1-0.3-0.2-0.5-0.3-0.5l0-0.1l0,0c0.2,0.1,0.3,0.3,0.4,0.6
			C136.9,35.7,137,36,137,36.4L137,36.4z"/>
		<path fill="#FFFFFF" d="M138.1,36.1h0.6v0.2h-0.6V37h-0.2v-0.7h-0.6v-0.2h0.6v-0.7h0.2L138.1,36.1L138.1,36.1z"/>
		<path fill="#FFFFFF" d="M140.1,36.5h0.3v0.2h-0.3v0.5h-0.2v-0.5h-1v-0.1l1-1.5h0.2V36.5z M139.2,36.5h0.8v-1.2l0,0l-0.1,0.2
			L139.2,36.5z"/>
		<path fill="#FFFFFF" d="M141.8,36.5h0.3v0.2h-0.3v0.5h-0.2v-0.5h-1v-0.1l1-1.5h0.2V36.5z M140.8,36.5h0.8v-1.2l0,0l-0.1,0.2
			L140.8,36.5z"/>
	</g>
	<g>
		<g>
			<path fill="#FFFFFF" d="M151.3,40.7l0.3-3.4h3v0.5H152l-0.2,2.2c0.2-0.2,0.3-0.2,0.5-0.3c0.2-0.1,0.4-0.1,0.8-0.2
				c0.5,0,1,0.2,1.3,0.5c0.3,0.3,0.5,0.8,0.5,1.5s-0.2,1.1-0.5,1.5c-0.3,0.4-0.8,0.5-1.4,0.5c-0.5,0-0.9-0.2-1.3-0.5
				c-0.3-0.3-0.5-0.7-0.5-1.3v0h0.4c0,0.5,0.1,0.7,0.3,1s0.5,0.3,0.9,0.3c0.4,0,0.8-0.2,1-0.5c0.2-0.3,0.3-0.7,0.3-1.2
				c0-0.5-0.1-0.8-0.3-1.1c-0.2-0.3-0.5-0.5-1-0.5c-0.4,0-0.7,0-0.9,0.2c-0.2,0.2-0.3,0.3-0.5,0.6L151.3,40.7z"/>
			<path fill="#FFFFFF" d="M159.1,41.4h1v0.5h-1v1.6h-0.5v-1.6h-2.9v-0.3l2.8-4.4h0.5V41.4z M156.2,41.4h2.3v-3.5h0l-0.2,0.5
				L156.2,41.4z"/>
			<path fill="#FFFFFF" d="M161,40.7l0.3-3.4h3v0.5h-2.6l-0.2,2.2c0.2-0.2,0.3-0.2,0.5-0.3c0.2-0.1,0.4-0.1,0.8-0.2
				c0.5,0,1,0.2,1.3,0.5c0.3,0.3,0.5,0.8,0.5,1.5s-0.2,1.1-0.5,1.5c-0.3,0.4-0.8,0.5-1.4,0.5c-0.5,0-0.9-0.2-1.3-0.5
				c-0.3-0.3-0.5-0.7-0.5-1.3v0h0.4c0,0.5,0.1,0.7,0.3,1s0.5,0.3,0.9,0.3c0.4,0,0.8-0.2,1-0.5c0.2-0.3,0.3-0.7,0.3-1.2
				c0-0.5-0.1-0.8-0.3-1.1c-0.2-0.3-0.5-0.5-1-0.5c-0.4,0-0.7,0-0.9,0.2c-0.2,0.2-0.3,0.3-0.5,0.6L161,40.7z"/>
			<path fill="#FFFFFF" d="M168.7,41.4h1v0.5h-1v1.6h-0.5v-1.6h-2.9v-0.3l2.8-4.4h0.5L168.7,41.4L168.7,41.4z M165.9,41.4h2.3v-3.5
				h0l-0.2,0.5L165.9,41.4z"/>
			<path fill="#FFFFFF" d="M171,43.3l-0.4,1.2h-0.3l0.3-1.2v-0.7h0.5V43.3z"/>
			<path fill="#FFFFFF" d="M175.2,41.4h1v0.5h-1v1.6h-0.5v-1.6h-2.9v-0.3l2.8-4.4h0.5V41.4z M172.4,41.4h2.3v-3.5h0l-0.2,0.5
				L172.4,41.4z"/>
		</g>
	</g>
	<rect x="178.2" y="20.5" fill="#3D3D3D" width="2" height="13.3"/>
	<circle fill="#2D2D2D" cx="179.2" cy="26" r="0.2"/>
	<circle fill="#2D2D2D" cx="179.2" cy="27.2" r="0.2"/>
	<circle fill="#2D2D2D" cx="179.2" cy="28.3" r="0.2"/>
	<rect x="125.1" y="47.2" fill="#2B2B2B" width="53.1" height="13.3"/>
	<g>
		<path fill="#ED1A46" d="M131.1,55.8h-2.6v2.5H128v-5.3h3.4v0.4h-2.9v2h2.6L131.1,55.8L131.1,55.8z"/>
		<path fill="#ED1A46" d="M136.2,56.1c0,0.7-0.2,1.2-0.5,1.7c-0.4,0.5-0.9,0.6-1.5,0.6c-0.6,0-1.1-0.2-1.5-0.6
			c-0.4-0.4-0.5-1-0.5-1.7v-0.9c0-0.7,0.2-1.2,0.5-1.7c0.4-0.5,0.9-0.6,1.5-0.6c0.6,0,1.1,0.2,1.5,0.6c0.4,0.5,0.6,1,0.6,1.7
			L136.2,56.1L136.2,56.1L136.2,56.1L136.2,56.1z M135.8,55.2c0-0.6-0.2-1-0.4-1.4c-0.3-0.3-0.7-0.5-1.2-0.5c-0.5,0-0.9,0.2-1.2,0.5
			c-0.3,0.3-0.4,0.8-0.4,1.4v0.9c0,0.6,0.2,1,0.4,1.4c0.3,0.3,0.7,0.5,1.2,0.5c0.5,0,0.9-0.2,1.2-0.5c0.3-0.3,0.4-0.8,0.4-1.4V55.2z
			"/>
		<path fill="#ED1A46" d="M141.3,56.1c0,0.7-0.2,1.2-0.5,1.7c-0.4,0.5-0.9,0.6-1.5,0.6c-0.6,0-1.1-0.2-1.5-0.6
			c-0.4-0.4-0.5-1-0.5-1.7v-0.9c0-0.7,0.2-1.2,0.5-1.7c0.3-0.5,0.9-0.6,1.5-0.6c0.6,0,1.1,0.2,1.5,0.6c0.4,0.5,0.6,1,0.6,1.7
			L141.3,56.1L141.3,56.1L141.3,56.1L141.3,56.1z M140.8,55.2c0-0.6-0.2-1-0.4-1.4c-0.3-0.3-0.7-0.5-1.2-0.5c-0.5,0-0.9,0.2-1.2,0.5
			c-0.3,0.3-0.4,0.8-0.4,1.4v0.9c0,0.6,0.2,1,0.4,1.4c0.3,0.3,0.7,0.5,1.2,0.5c0.5,0,0.9-0.2,1.2-0.5c0.3-0.3,0.4-0.8,0.4-1.4V55.2z
			"/>
	</g>
	<g>
		<path fill="#FFFFFF" d="M127.9,49.7h0.2c0.2,0,0.3,0,0.3-0.1c0.1-0.1,0.1-0.2,0.1-0.3c0-0.2,0-0.2-0.1-0.3
			c-0.1-0.1-0.2-0.1-0.3-0.1s-0.2,0-0.3,0.1c-0.1,0.1-0.2,0.2-0.2,0.3h-0.1l0,0c0-0.2,0-0.3,0.2-0.4c0.2-0.1,0.3-0.2,0.5-0.2
			c0.2,0,0.3,0,0.4,0.2s0.2,0.2,0.2,0.5c0,0.1,0,0.2-0.1,0.3c0,0.1-0.2,0.2-0.2,0.2c0.2,0,0.2,0.1,0.3,0.2c0,0.1,0.1,0.2,0.1,0.3
			c0,0.2,0,0.3-0.2,0.5c-0.1,0.1-0.3,0.2-0.5,0.2c-0.2,0-0.3,0-0.5-0.2c-0.2-0.1-0.2-0.2-0.2-0.5l0,0h0.2c0,0.2,0,0.2,0.2,0.3
			c0.1,0.1,0.2,0.2,0.3,0.2c0.2,0,0.2,0,0.3-0.1c0.1,0,0.2-0.2,0.2-0.3c0-0.2,0-0.2-0.2-0.3c-0.1,0-0.2-0.1-0.4-0.1h-0.2v-0.3
			L127.9,49.7L127.9,49.7L127.9,49.7z"/>
		<path fill="#FFFFFF" d="M129.6,49.4l-0.5-0.2l0-0.2l0.5,0.2v-0.5h0.2v0.5l0.5-0.2l0,0.2l-0.5,0.2l0.3,0.5l-0.2,0.1l-0.3-0.5
			l-0.3,0.5l-0.2-0.1L129.6,49.4z"/>
		<path fill="#FFFFFF" d="M130.5,50c0-0.3,0-0.7,0.2-0.9c0.2-0.3,0.3-0.5,0.4-0.6l0,0l0,0.1c-0.2,0.1-0.2,0.3-0.4,0.5
			c-0.1,0.2-0.2,0.5-0.2,0.9v0c0,0.3,0,0.6,0.2,0.9c0.1,0.2,0.2,0.5,0.4,0.5l0,0.1l0,0c-0.2-0.1-0.3-0.3-0.4-0.5
			C130.5,50.7,130.5,50.4,130.5,50L130.5,50z"/>
		<path fill="#FFFFFF" d="M131.8,49.7h0.2c0.2,0,0.3,0,0.3-0.1c0.1-0.1,0.1-0.2,0.1-0.3c0-0.2,0-0.2-0.1-0.3
			c-0.1-0.1-0.2-0.1-0.3-0.1s-0.2,0-0.3,0.1c-0.1,0.1-0.2,0.2-0.2,0.3h-0.1l0,0c0-0.2,0-0.3,0.2-0.4c0.2-0.1,0.3-0.2,0.4-0.2
			c0.2,0,0.3,0,0.4,0.2c0.1,0.1,0.2,0.2,0.2,0.5c0,0.1,0,0.2-0.1,0.3c0,0.1-0.2,0.2-0.2,0.2c0.2,0,0.2,0.1,0.3,0.2
			c0,0.1,0.1,0.2,0.1,0.3c0,0.2,0,0.3-0.2,0.5c-0.1,0.1-0.3,0.2-0.5,0.2c-0.2,0-0.3,0-0.5-0.2c-0.2-0.1-0.2-0.2-0.2-0.5l0,0h0.2
			c0,0.2,0,0.2,0.2,0.3c0.1,0.1,0.2,0.2,0.3,0.2c0.2,0,0.2,0,0.3-0.1c0.1,0,0.2-0.2,0.2-0.3c0-0.2,0-0.2-0.2-0.3
			c-0.1,0-0.2-0.1-0.4-0.1h-0.2L131.8,49.7L131.8,49.7L131.8,49.7L131.8,49.7z"/>
		<path fill="#FFFFFF" d="M134.2,50.1h0.3v0.2h-0.3v0.5H134v-0.5h-1v-0.1l1-1.5h0.2V50.1z M133.2,50.1h0.8v-1.2l0,0l-0.1,0.2
			L133.2,50.1z"/>
		<path fill="#FFFFFF" d="M135.1,49.7h0.2c0.2,0,0.3,0,0.3-0.1c0,0,0.1-0.2,0.1-0.3c0-0.2,0-0.2-0.1-0.3c-0.1-0.1-0.2-0.1-0.3-0.1
			c-0.2,0-0.2,0-0.3,0.1c-0.1,0.1-0.2,0.2-0.2,0.3h-0.1l0,0c0-0.2,0-0.3,0.2-0.4c0.1-0.1,0.3-0.2,0.4-0.2c0.2,0,0.3,0,0.4,0.2
			c0.1,0.1,0.2,0.2,0.2,0.5c0,0.1,0,0.2-0.1,0.3c0,0.1-0.2,0.2-0.2,0.2c0.2,0,0.2,0.1,0.3,0.2c0,0.1,0.1,0.2,0.1,0.3
			c0,0.2,0,0.3-0.2,0.5c-0.2,0.1-0.3,0.2-0.5,0.2c-0.2,0-0.3,0-0.5-0.2c-0.2-0.1-0.2-0.2-0.2-0.5l0,0h0.2c0,0.2,0,0.2,0.2,0.3
			c0.1,0.1,0.2,0.2,0.3,0.2s0.2,0,0.3-0.1c0.1,0,0.2-0.2,0.2-0.3c0-0.2,0-0.2-0.2-0.3c-0.1,0-0.2-0.1-0.4-0.1H135v-0.3L135.1,49.7
			L135.1,49.7L135.1,49.7z"/>
		<path fill="#FFFFFF" d="M136.9,50c0,0.3,0,0.7-0.2,0.9c-0.2,0.3-0.3,0.4-0.4,0.5l0,0l0-0.1c0.2-0.1,0.2-0.3,0.4-0.5
			c0.1-0.2,0.2-0.5,0.2-0.9v0c0-0.3,0-0.6-0.2-0.9c-0.1-0.3-0.2-0.5-0.3-0.5l0-0.1l0,0c0.2,0.1,0.3,0.3,0.4,0.6
			C136.9,49.3,136.9,49.6,136.9,50L136.9,50z"/>
		<path fill="#FFFFFF" d="M138.1,49.8h0.6v0.2h-0.6v0.7h-0.2v-0.7h-0.6v-0.2h0.6v-0.7h0.2V49.8z"/>
		<path fill="#FFFFFF" d="M140.1,50.1h0.3v0.2h-0.3v0.5h-0.2v-0.5h-1v-0.1l1-1.5h0.2V50.1z M139.2,50.1h0.8v-1.2l0,0l-0.1,0.2
			L139.2,50.1z"/>
		<path fill="#FFFFFF" d="M141.8,50.1h0.3v0.2h-0.3v0.5h-0.2v-0.5h-1v-0.1l1-1.5h0.2V50.1L141.8,50.1z M140.8,50.1h0.8v-1.2l0,0
			l-0.1,0.2L140.8,50.1z"/>
	</g>
	<g>
		<g>
			<path fill="#FFFFFF" d="M161.1,54.3l0.3-3.4h3v0.5h-2.6l-0.2,2.2c0.2-0.2,0.3-0.2,0.5-0.3c0.2-0.1,0.5-0.1,0.8-0.2
				c0.5,0,1,0.2,1.3,0.5c0.3,0.3,0.5,0.8,0.5,1.5s-0.2,1.1-0.5,1.5c-0.3,0.4-0.8,0.5-1.4,0.5c-0.5,0-0.9-0.2-1.3-0.5
				c-0.3-0.3-0.5-0.7-0.5-1.3v0h0.5c0,0.4,0.1,0.7,0.3,1s0.5,0.3,0.9,0.3c0.4,0,0.8-0.2,1-0.4c0.2-0.3,0.3-0.7,0.3-1.2
				c0-0.5-0.1-0.8-0.3-1.1s-0.5-0.5-1-0.5c-0.4,0-0.7,0-0.9,0.2c-0.2,0.2-0.3,0.3-0.4,0.6L161.1,54.3z"/>
			<path fill="#FFFFFF" d="M168.8,55.1h1v0.4h-1v1.6h-0.5v-1.6h-2.9v-0.3l2.8-4.4h0.5V55.1z M166,55.1h2.3v-3.5h0l-0.2,0.5L166,55.1
				z"/>
			<path fill="#FFFFFF" d="M171.1,57l-0.4,1.2h-0.3l0.3-1.2v-0.7h0.5V57z"/>
			<path fill="#FFFFFF" d="M175.3,55.1h1v0.4h-1v1.6h-0.5v-1.6h-2.9v-0.3l2.8-4.4h0.5V55.1z M172.5,55.1h2.3v-3.5h0l-0.2,0.5
				L172.5,55.1z"/>
		</g>
	</g>
	<g>
		<rect x="178.3" y="47.2" fill="#3D3D3D" width="2" height="13.3"/>
		<circle fill="#FFFFFF" cx="179.3" cy="52.6" r="0.2"/>
		<circle fill="#FFFFFF" cx="179.3" cy="53.8" r="0.2"/>
		<circle fill="#FFFFFF" cx="179.3" cy="55" r="0.2"/>
	</g>
	<rect x="125.1" y="24.1" fill="#B7B7B7" width="0.5" height="39.2"/>
	<rect x="176.2" y="33.8" fill="#D81F27" width="4.1" height="13.3"/>
	<path fill="#3D3D3D" d="M194.7,31.1"/>
	<g>
		<path fill="#FFFFFF" d="M177.7,41.9C177.6,41.9,177.6,41.9,177.7,41.9c-0.1-0.1-0.1-1.8-0.1-1.8h-0.2c0,0,0,1.7,0,1.8
			c0,0.1,0.1,0.2,0.2,0.2s0.8,0,0.8,0V42C178.3,41.9,177.7,41.9,177.7,41.9z"/>
		<path fill="#FFFFFF" d="M179.3,40.2c0,0,0,1.7,0,1.8c0,0.1-0.1,0.2-0.2,0.2s-0.8,0-0.8,0V42c0,0,0.6,0,0.7,0s0.1,0,0.1,0
			c0,0,0-1.7,0-1.7L179.3,40.2L179.3,40.2L179.3,40.2z"/>
		<path fill="#FFFFFF" d="M179.4,40c0,0,0-0.1,0-0.2c0,0,0-0.1-0.1-0.1c-0.1,0-1,0-1,0s-0.9,0-1,0c0,0-0.1,0.1-0.1,0.1V40h-0.1v0.2
			h1.2h1.2L179.4,40L179.4,40z"/>
		<path fill="#FFFFFF" d="M178.6,39.3c-0.2,0-0.2,0-0.2,0s-0.1,0-0.2,0c-0.2,0-0.3,0.2-0.3,0.3c0,0,0,0,0,0h0.2c0,0,0,0,0-0.1
			c0,0,0-0.1,0.1-0.1c0.1,0,0.2,0,0.2,0s0.1,0,0.2,0c0,0,0.1,0.1,0.1,0.1c0,0.1,0,0.1,0,0.1h0.2c0,0,0,0,0,0
			C178.9,39.5,178.7,39.3,178.6,39.3z"/>
		<rect x="178.2" y="40.4" fill="#FFFFFF" width="0.2" height="1.3"/>
		<rect x="178.7" y="40.4" fill="#FFFFFF" width="0.2" height="1.3"/>
		<rect x="177.7" y="40.4" fill="#FFFFFF" width="0.2" height="1.3"/>
	</g>
	<rect x="166.7" y="33.8" fill="#3D3D3D" width="9.5" height="13.3"/>
	<rect x="167.1" y="33.8" fill="#2D2D2D" width="9.2" height="6.6"/>
	<g>
		<path fill="#FFFFFF" d="M171.6,43.5h-2v-0.2h2V43.5z M171.6,44.5h-2v-0.2h2V44.5z"/>
		<path fill="#FFFFFF" d="M173.6,45.5h-0.3v-3.2l-0.9,0.1v-0.2l1.2-0.2V45.5z"/>
	</g>
	<g>
		<path fill="#FFFFFF" d="M171.5,36.7h-2v-0.2h2V36.7z M171.5,37.7h-2v-0.2h2V37.7z"/>
		<path fill="#FFFFFF" d="M174.4,37.4c0,0.5-0.1,0.8-0.3,1c-0.2,0.2-0.5,0.3-0.8,0.3c-0.3,0-0.6-0.1-0.8-0.3c-0.2-0.2-0.3-0.6-0.3-1
			v-0.8c0-0.5,0.1-0.8,0.3-1s0.4-0.3,0.8-0.3c0.4,0,0.6,0.1,0.8,0.3c0.2,0.2,0.3,0.6,0.3,1V37.4z M174.1,36.5c0-0.3,0-0.6-0.2-0.8
			c-0.2-0.2-0.3-0.3-0.6-0.3s-0.5,0.1-0.6,0.3c-0.1,0.2-0.2,0.5-0.2,0.8v0.9c0,0.3,0,0.6,0.2,0.8c0.2,0.2,0.3,0.3,0.6,0.3
			s0.5-0.1,0.6-0.3c0.1-0.2,0.2-0.5,0.2-0.8V36.5z"/>
	</g>
	<g>
		<rect x="164.7" y="33.8" fill="#3D3D3D" width="2" height="13.3"/>
		<circle fill="#FFFFFF" cx="165.7" cy="39.3" r="0.2"/>
		<circle fill="#FFFFFF" cx="165.7" cy="40.5" r="0.2"/>
		<circle fill="#FFFFFF" cx="165.7" cy="41.7" r="0.2"/>
	</g>
</g>
<g id="error" display="none">
	<rect y="168.9" display="inline" opacity="0.9" enable-background="new    " width="180" height="78"/>
	<rect x="-0.2" y="186.9" display="inline" fill="#ED1D2B" width="180.2" height="33.9"/>
	
		<text transform="matrix(1 0 0 1 12.408 198.8438)" display="inline" fill="#FFFFFF" font-family="'Roboto-Light'" font-size="10.2857">Error</text>
	
		<text transform="matrix(1 0 0 1 13.2243 210.3805)" display="inline" fill="#FFFFFF" font-family="'Roboto-Light'" font-size="4.898">Naskytla se nějaká chyba.</text>
	<rect x="146.1" y="211.3" display="inline" fill="none" stroke="#FFFFFF" stroke-miterlimit="10" width="28.1" height="6"/>
	
		<text transform="matrix(1 0 0 1 157.9258 216.2956)" display="inline" fill="#FFFFFF" font-family="'Roboto-Light'" font-size="4.664">Ok</text>
</g>
<g id="completer">
	<rect x="19.6" y="58.3" fill="#2B2B2B" width="23.4" height="14"/>
	<rect x="19.6" y="68.8" opacity="0.8" fill="#ED1A46" enable-background="new    " width="23.4" height="3.5"/>
	<g>
		<path fill="#C9C9C9" d="M25.1,61.4c0,0,0-0.1,0-0.2s0,0,0-0.1c0,0.1-0.2,0.2-0.2,0.2c-0.1,0-0.2,0.1-0.3,0.1c-0.2,0-0.2,0-0.3-0.1
			c-0.1-0.1-0.1-0.2-0.1-0.3c0-0.2,0-0.2,0.2-0.3c0.1-0.1,0.3-0.1,0.5-0.1h0.3v-0.2c0-0.1,0-0.2-0.1-0.2c0,0-0.2-0.1-0.3-0.1
			c-0.1,0-0.2,0-0.3,0.1c-0.1,0-0.1,0.2-0.1,0.2h-0.2l0,0c0-0.1,0-0.2,0.2-0.3c0.1-0.1,0.2-0.2,0.4-0.2c0.2,0,0.3,0,0.4,0.2
			c0.1,0.1,0.2,0.2,0.2,0.3v0.7c0,0,0,0.1,0,0.2c0,0,0,0.1,0,0.2L25.1,61.4L25.1,61.4L25.1,61.4z M24.5,61.3c0.1,0,0.2,0,0.3-0.1
			c0.1,0,0.2-0.2,0.2-0.2v-0.3h-0.3c-0.2,0-0.2,0-0.3,0.1c-0.1,0-0.2,0.2-0.2,0.2s0,0.2,0.1,0.2C24.3,61.3,24.5,61.3,24.5,61.3z"/>
		<path fill="#C9C9C9" d="M26.8,60.7c0,0.2,0,0.4-0.2,0.5c-0.1,0.2-0.2,0.2-0.4,0.2c-0.1,0-0.2,0-0.3,0c-0.1,0-0.2-0.1-0.2-0.2v0.2
			h-0.2v-2.1h0.2v0.9c0-0.1,0.1-0.2,0.2-0.2c0.1,0,0.2,0,0.3,0c0.2,0,0.3,0,0.4,0.2C26.8,60.3,26.8,60.4,26.8,60.7L26.8,60.7z
			 M26.7,60.7c0-0.2,0-0.3-0.1-0.4c0-0.1-0.2-0.2-0.3-0.2c-0.1,0-0.2,0-0.3,0.1c0,0-0.1,0.2-0.2,0.2V61c0,0.1,0.1,0.2,0.2,0.2
			c0.1,0,0.2,0.1,0.2,0.1c0.2,0,0.2,0,0.3-0.2C26.6,61,26.7,60.9,26.7,60.7L26.7,60.7z"/>
		<path fill="#C9C9C9" d="M28.1,61c0,0,0-0.2-0.1-0.2c0,0-0.2-0.1-0.3-0.2c-0.2,0-0.3-0.1-0.4-0.2c-0.1,0-0.2-0.2-0.2-0.2
			c0-0.1,0-0.2,0.2-0.3c0.1-0.1,0.2-0.1,0.4-0.1c0.2,0,0.3,0,0.4,0.2c0.1,0.1,0.2,0.2,0.2,0.3l0,0h-0.2c0-0.1,0-0.2-0.1-0.2
			c0,0-0.2-0.1-0.3-0.1c-0.1,0-0.2,0-0.2,0.1c0,0-0.1,0.1-0.1,0.2c0,0,0,0.2,0.1,0.2c0,0,0.2,0.1,0.3,0.1c0.2,0,0.3,0.1,0.4,0.2
			c0.1,0,0.2,0.2,0.2,0.3s0,0.2-0.2,0.3c-0.1,0.1-0.2,0.1-0.4,0.1c-0.2,0-0.3,0-0.5-0.2c-0.2-0.1-0.2-0.2-0.2-0.2l0,0h0.2
			c0,0.1,0,0.2,0.2,0.2c0.1,0,0.2,0,0.3,0c0.1,0,0.2,0,0.3-0.1C28,61.2,28.1,61.1,28.1,61z"/>
	</g>
	<g>
		<path fill="#C9C9C9" d="M25,64.3c0,0,0-0.2-0.1-0.2c0,0-0.2-0.1-0.3-0.2c-0.2,0-0.3-0.1-0.4-0.2c-0.1,0-0.2-0.2-0.2-0.2
			s0-0.2,0.2-0.3c0.1-0.1,0.2-0.1,0.4-0.1c0.2,0,0.3,0,0.4,0.2c0.1,0.1,0.2,0.2,0.2,0.3l0,0H25c0-0.1,0-0.2-0.1-0.2
			c0,0-0.2-0.1-0.3-0.1c-0.1,0-0.2,0-0.2,0.1c0,0-0.1,0.1-0.1,0.2c0,0,0,0.2,0.1,0.2c0,0,0.2,0.1,0.3,0.1c0.2,0,0.3,0.1,0.4,0.2
			c0.1,0,0.2,0.2,0.2,0.3c0,0.2,0,0.2-0.2,0.3c-0.1,0.1-0.2,0.1-0.4,0.1c-0.2,0-0.3,0-0.4-0.2c-0.2-0.1-0.2-0.2-0.2-0.3l0,0h0.2
			c0,0.1,0,0.2,0.2,0.2c0.1,0,0.2,0,0.3,0s0.2,0,0.3-0.1C25,64.5,25,64.4,25,64.3z"/>
		<path fill="#C9C9C9" d="M25.7,62.8h-0.1v-0.2h0.2L25.7,62.8L25.7,62.8z M25.7,64.7h-0.1v-1.5h0.2L25.7,64.7L25.7,64.7z"/>
		<path fill="#C9C9C9" d="M26.3,63.3v0.2c0-0.1,0.1-0.2,0.2-0.2c0.1,0,0.2-0.1,0.3-0.1c0.2,0,0.3,0,0.3,0.2c0.1,0.1,0.2,0.2,0.2,0.5
			v0.9h-0.2v-0.9c0-0.2,0-0.3-0.1-0.3c0,0-0.2-0.1-0.2-0.1s-0.2,0-0.3,0.1c0,0-0.2,0.2-0.2,0.2v1h-0.2v-1.5L26.3,63.3L26.3,63.3z"/>
	</g>
	<g>
		<path fill="#C9C9C9" d="M25.1,68.2c0,0,0-0.1,0-0.2c0,0,0,0,0-0.1c0,0.1-0.2,0.2-0.2,0.2c-0.1,0-0.2,0.1-0.3,0.1
			c-0.2,0-0.2,0-0.3-0.1c-0.1-0.1-0.1-0.2-0.1-0.3c0-0.2,0-0.2,0.2-0.3c0.1-0.1,0.3-0.1,0.5-0.1h0.3v-0.2c0-0.1,0-0.2-0.1-0.2
			c0,0-0.2-0.1-0.3-0.1c-0.1,0-0.2,0-0.3,0.1s-0.1,0.2-0.1,0.2h-0.2l0,0c0-0.1,0-0.2,0.2-0.3c0.1-0.1,0.2-0.2,0.4-0.2
			c0.2,0,0.3,0,0.4,0.2c0.1,0.1,0.2,0.2,0.2,0.3v0.7c0,0,0,0.1,0,0.2c0,0,0,0.1,0,0.2L25.1,68.2L25.1,68.2L25.1,68.2z M24.5,68.1
			c0.1,0,0.2,0,0.3-0.1c0.1,0,0.2-0.2,0.2-0.2v-0.3h-0.3c-0.2,0-0.2,0-0.3,0.1s-0.2,0.2-0.2,0.2c0,0.1,0,0.2,0.1,0.2
			C24.3,68,24.5,68.1,24.5,68.1z"/>
		<path fill="#C9C9C9" d="M25.8,67c0-0.1,0.1-0.2,0.2-0.2c0.1,0,0.2,0,0.3,0c0.2,0,0.3,0,0.3,0.2c0.1,0.1,0.2,0.2,0.2,0.4v0.9h-0.2
			v-0.9c0-0.2,0-0.3-0.1-0.3c0,0-0.2-0.1-0.2-0.1s-0.2,0-0.3,0.1s-0.2,0.2-0.2,0.2v1h-0.2v-2.1h0.2L25.8,67L25.8,67
			C25.8,67,25.8,67,25.8,67z"/>
		<path fill="#C9C9C9" d="M27.1,67.4c0-0.2,0-0.4,0.2-0.5s0.3-0.2,0.5-0.2c0.2,0,0.3,0,0.5,0.2c0.2,0.2,0.2,0.3,0.2,0.5v0
			c0,0.2,0,0.4-0.2,0.5c-0.2,0.2-0.3,0.2-0.5,0.2c-0.2,0-0.3,0-0.5-0.2C27.1,67.9,27.1,67.7,27.1,67.4L27.1,67.4z M27.2,67.5
			c0,0.2,0,0.3,0.2,0.4c0.1,0.2,0.2,0.2,0.3,0.2c0.2,0,0.3,0,0.3-0.2c0.1-0.1,0.2-0.2,0.2-0.4v0c0-0.2,0-0.3-0.2-0.4
			c-0.1-0.1-0.2-0.2-0.3-0.2c-0.2,0-0.3,0-0.3,0.2C27.3,67.1,27.2,67.2,27.2,67.5L27.2,67.5z"/>
		<path fill="#C9C9C9" d="M28.9,66.7v1.6c0,0.2,0,0.2-0.1,0.3c0,0.1-0.2,0.2-0.3,0.2c0,0,0,0-0.1,0s0,0-0.1,0v-0.2h0c0,0,0,0,0,0
			c0.1,0,0.2,0,0.2-0.1s0-0.2,0-0.2v-1.6H28.9z M28.9,66.3h-0.2v-0.2h0.2V66.3z"/>
		<path fill="#C9C9C9" d="M29.3,67.5c0-0.2,0-0.5,0.2-0.5c0.1-0.2,0.2-0.2,0.4-0.2c0.1,0,0.2,0,0.2,0c0.1,0,0.2,0.1,0.2,0.2v-0.9
			h0.2v2.1h-0.2V68c0,0.1-0.1,0.2-0.2,0.2s-0.2,0-0.3,0c-0.2,0-0.3,0-0.4-0.2C29.3,67.9,29.3,67.7,29.3,67.5L29.3,67.5z M29.5,67.5
			c0,0.2,0,0.3,0.1,0.4s0.2,0.2,0.3,0.2c0.1,0,0.2,0,0.2,0c0,0,0.2-0.1,0.2-0.2v-0.7c0-0.1-0.1-0.2-0.2-0.2c0,0-0.2-0.1-0.2-0.1
			c-0.2,0-0.2,0-0.3,0.2C29.5,67.1,29.5,67.3,29.5,67.5L29.5,67.5z"/>
	</g>
	<g>
		<path fill="#C9C9C9" d="M24.8,70.4l0.5-0.8h0.2l-0.6,1l0.7,1h-0.2l-0.6-0.9l-0.6,0.9H24l0.7-1l-0.6-1h0.2L24.8,70.4z"/>
		<path fill="#C9C9C9" d="M26.5,70.6l0.6-1.1h0.2l-0.7,1.3v0.7h-0.2v-0.7l-0.7-1.2h0.2L26.5,70.6z"/>
	</g>
	<rect x="42.7" y="58.3" fill="#969696" width="0.3" height="7.6"/>
	<rect x="20.9" y="59.9" fill="#EF4323" width="1.3" height="1.3"/>
	<rect x="20.9" y="63.3" fill="#EF4323" width="1.3" height="1.3"/>
	<rect x="20.9" y="66.8" fill="#C9C9C9" width="1.3" height="1.3"/>
	<rect x="20.9" y="70.1" fill="#C9C9C9" width="1.3" height="1.3"/>
</g>
<g id="bar">
	<rect y="143.7" fill="#2B2B2B" width="180.2" height="3.8"/>
	<rect x="0.1" y="85.3" fill="#2B2B2B" width="44.5" height="7.4"/>
	<g>
		<g>
			<path fill="#B2B3B3" d="M5.3,88.6h1.2v1.9H6v-0.3c-0.2,0.2-0.6,0.4-1,0.4c-0.8,0-1.4-0.7-1.4-1.7c0-1.1,0.6-1.9,1.6-1.9
				c0.4,0,0.8,0.1,1.1,0.3l-0.2,0.4c-0.3-0.2-0.5-0.2-0.9-0.2c-0.6,0-1.1,0.5-1.1,1.5c0,0.8,0.4,1.3,1,1.3c0.4,0,0.7-0.2,0.8-0.3V89
				H5.2L5.3,88.6L5.3,88.6L5.3,88.6z"/>
			<path fill="#B2B3B3" d="M8.6,88.4c0,0-0.2,0-0.2,0c-0.4,0-0.7,0.3-0.7,1v1.2H7.2v-2.6h0.4v0.6c0.2-0.4,0.4-0.7,0.8-0.7
				c0.1,0,0.2,0,0.3,0L8.6,88.4z"/>
			<path fill="#B2B3B3" d="M10.1,87.9c0.3,0,0.5,0.1,0.7,0.3v-0.2h0.4v2c0,0.2,0.2,0.3,0.3,0.3l-0.1,0.3c-0.3,0-0.5-0.2-0.6-0.4
				c-0.2,0.2-0.4,0.4-0.8,0.4c-0.6,0-1.2-0.5-1.2-1.4C8.9,88.5,9.4,87.9,10.1,87.9z M10.8,89.9v-1.4c-0.2-0.2-0.4-0.2-0.6-0.2
				c-0.5,0-0.8,0.4-0.8,1c0,0.6,0.3,1,0.8,1C10.4,90.2,10.7,90.1,10.8,89.9z"/>
			<path fill="#B2B3B3" d="M12,87.9c0.3,0,0.5,0.2,0.6,0.3c0.1-0.2,0.4-0.5,0.8-0.5c0.6,0,1.1,0.5,1.1,1.3s-0.5,1.4-1.1,1.4
				c-0.3,0-0.6-0.2-0.8-0.3v1.4h-0.4v-3c0-0.2-0.1-0.3-0.3-0.3L12,87.9z M13.3,88.3c-0.3,0-0.5,0.2-0.6,0.3v1.3
				c0.2,0.2,0.4,0.3,0.7,0.3c0.4,0,0.8-0.4,0.8-1C14.1,88.6,13.7,88.3,13.3,88.3z"/>
			<path fill="#B2B3B3" d="M15.6,88.4c0.2-0.3,0.5-0.5,0.9-0.5c0.6,0,0.9,0.4,0.9,1v1.7h-0.4v-1.7c0-0.4-0.2-0.6-0.5-0.6
				s-0.6,0.2-0.8,0.5v1.7h-0.4v-3.7h0.4L15.6,88.4L15.6,88.4C15.6,88.4,15.6,88.4,15.6,88.4z"/>
			<path fill="#B2B3B3" d="M20.7,87.9c0.7,0,1.3,0.5,1.3,1.4s-0.5,1.4-1.3,1.4c-0.7,0-1.3-0.5-1.3-1.4C19.5,88.4,20,87.9,20.7,87.9z
				 M20.7,88.3c-0.5,0-0.8,0.4-0.8,0.9c0,0.5,0.3,1,0.8,1c0.5,0,0.8-0.4,0.8-1C21.6,88.7,21.2,88.3,20.7,88.3z"/>
			<path fill="#B2B3B3" d="M24.1,87.3c-0.2-0.1-0.3-0.2-0.5-0.2c-0.3,0-0.5,0.2-0.5,0.5v0.3h0.8v0.4h-0.7v2.1h-0.5v-2.1h-0.4v-0.4
				h0.4v-0.3c0-0.6,0.3-0.9,0.9-0.9c0.3,0,0.5,0,0.6,0.2L24.1,87.3z"/>
		</g>
	</g>
	<polygon fill="#2B2B2B" points="44.5,92.7 53.9,86.5 180.2,86.4 180.2,85.2 44.5,85.3 	"/>
	<rect x="85.6" y="155.3" fill="#ED1A46" width="0.1" height="0.5"/>
	<polygon fill="#D3D3D3" points="95.2,147 89.4,144.8 83.6,147 83.5,146.6 89.4,144.4 95.3,146.6 	"/>
</g>
<g id="new">
	<rect x="4.1" y="123.5" fill="#C1C1C0" width="176.2" height="0.2"/>
	<rect x="4" y="92.7" fill="#C1C1C0" width="0.2" height="50.9"/>
	<rect x="56.6" y="122.9" fill="#C1C1C0" width="0.2" height="1.3"/>
	<rect x="65.3" y="122.9" fill="#C1C1C0" width="0.2" height="1.3"/>
	<rect x="74.1" y="122.9" fill="#C1C1C0" width="0.2" height="1.3"/>
	<rect x="82.8" y="122.9" fill="#C1C1C0" width="0.2" height="1.3"/>
	<rect x="91.5" y="122.9" fill="#C1C1C0" width="0.2" height="1.3"/>
	<rect x="12.9" y="122.9" fill="#C1C1C0" width="0.2" height="1.3"/>
	<rect x="21.7" y="122.9" fill="#C1C1C0" width="0.2" height="1.3"/>
	<rect x="30.4" y="122.9" fill="#C1C1C0" width="0.2" height="1.3"/>
	<rect x="39.2" y="122.9" fill="#C1C1C0" width="0.2" height="1.3"/>
	<rect x="3.4" y="114.7" fill="#C1C1C0" width="1.3" height="0.2"/>
	<rect x="3.4" y="106" fill="#C1C1C0" width="1.3" height="0.2"/>
	<rect x="3.4" y="97.3" fill="#C1C1C0" width="1.3" height="0.2"/>
	<rect x="3.4" y="141" fill="#C1C1C0" width="1.3" height="0.2"/>
	<rect x="3.4" y="132.2" fill="#C1C1C0" width="1.3" height="0.2"/>
	<g>
		<path fill="#ABABAB" d="M65,126.8L65,126.8c0-0.5,0.6-0.7,0.6-1c0-0.1-0.1-0.2-0.2-0.2c-0.1,0-0.2,0-0.3,0.1l-0.1-0.1
			c0.1-0.1,0.2-0.2,0.4-0.2c0.2,0,0.4,0.2,0.4,0.3c0,0.4-0.5,0.5-0.6,0.9h0.6v0.2L65,126.8C65,126.8,65,126.8,65,126.8z"/>
	</g>
	<g>
		<path fill="#ABABAB" d="M83.2,126.5v0.3H83v-0.3h-0.6v-0.2l0.4-0.9l0.2,0l-0.4,0.9H83V126h0.2v0.4h0.2v0.2L83.2,126.5L83.2,126.5z
			"/>
	</g>
	<g>
		<path fill="#ABABAB" d="M12.1,126.4v-0.2h0.7v0.2H12.1z"/>
		<path fill="#ABABAB" d="M14,126.6v0.3h-0.2v-0.3h-0.6v-0.2l0.4-0.9l0.2,0l-0.4,0.9h0.4v-0.4h0.2v0.4h0.2v0.2L14,126.6L14,126.6z"
			/>
	</g>
	<g>
		<path fill="#ABABAB" d="M29.6,126.4v-0.2h0.7v0.2H29.6z"/>
		<path fill="#ABABAB" d="M30.7,126.9L30.7,126.9c0-0.5,0.6-0.7,0.6-1c0-0.1-0.1-0.2-0.2-0.2c-0.1,0-0.2,0-0.3,0.1l-0.1-0.1
			c0.1-0.1,0.2-0.2,0.4-0.2c0.2,0,0.4,0.2,0.4,0.3c0,0.4-0.5,0.5-0.6,0.9h0.5v0.2L30.7,126.9L30.7,126.9z"/>
	</g>
	<g>
		<path fill="#ABABAB" d="M1.9,106.5L1.9,106.5c0-0.5,0.6-0.7,0.6-1c0-0.1-0.1-0.2-0.2-0.2c-0.1,0-0.2,0-0.3,0.1L2,105.2
			c0.1-0.1,0.2-0.2,0.4-0.2c0.2,0,0.4,0.2,0.4,0.3c0,0.4-0.5,0.5-0.6,0.9h0.6v0.2L1.9,106.5L1.9,106.5z"/>
	</g>
	<g>
		<path fill="#ABABAB" d="M0.8,140.9v-0.2h0.7v0.2H0.8z"/>
		<path fill="#ABABAB" d="M1.9,141.5L1.9,141.5c0-0.5,0.6-0.7,0.6-1c0-0.1-0.1-0.2-0.2-0.2c-0.1,0-0.2,0-0.3,0.1L2,140.3
			c0.1-0.1,0.2-0.2,0.4-0.2c0.2,0,0.4,0.2,0.4,0.3c0,0.4-0.5,0.5-0.6,0.9h0.6v0.2L1.9,141.5L1.9,141.5z"/>
	</g>
	<g>
		<path fill="#ABABAB" d="M3.2,125.3c0,0.4-0.2,0.7-0.5,0.7c-0.3,0-0.5-0.2-0.5-0.7c0-0.4,0.2-0.7,0.5-0.7
			C3,124.6,3.2,124.8,3.2,125.3z M2.5,125.3c0,0.3,0.1,0.5,0.3,0.5s0.3-0.2,0.3-0.5c0-0.3-0.1-0.5-0.3-0.5
			C2.6,124.7,2.5,124.8,2.5,125.3z"/>
	</g>
	<path fill="#ED177D" d="M113.5,136.9c-9.2,0-13.2-12.9-16.7-24.3c-2.6-8.5-5-16.6-9.2-16.6c-1.3,0-2.5,0-3.6,0
		c-7.2-0.2-10.1-0.3-14.7,10.5c-1.2,2.9-12.1,28.6-16.3,28.6c-1.2,0-2.7-3.1-4.9-10.4c-0.2-0.5-0.2-0.9-0.3-1c0-0.1,0-0.2-0.1-0.3
		c-1.4-3.9-2.8-5.9-4.3-5.9c-3.2,0-3.9,6.2-3.9,6.3h-0.5c0-8.9-1-15.8-2.7-18.5c-5-7.8-31.3-7.6-31.5-7.6v-0.5
		c1.1,0,26.9-0.2,32,7.8c1.6,2.5,2.6,8.5,2.7,16.4c0.5-1.9,1.7-4.3,3.9-4.3c2.6,0,4.2,4.7,4.7,6.2c0,0.1,0.1,0.2,0.1,0.3
		c0,0.2,0.2,0.5,0.3,1c2.5,8.3,3.8,10.1,4.4,10.1c3.3,0,12.6-20.4,15.9-28.2c4.7-11.1,8-11,15.2-10.8c1.1,0,2.3,0,3.6,0
		c4.5,0,7,7.8,9.7,16.9c3.4,11.2,7.3,23.9,16.2,23.9c8.4,0,11.1-10.5,13.7-20.7c2.3-9,4.4-17.4,10.5-17.4c7,0,9,8.4,10.7,15.9
		c1.5,6.4,3,12.5,7.2,12.5c4.7,0,7.5-8.3,10.3-16.3c2.8-8.3,5.6-16.1,10.2-16.1c3.3,0,4.3,2.5,4.3,2.5l-0.5,0.2
		c0-0.1-0.9-2.2-3.8-2.2c-4.3,0-7.1,8-9.7,15.7c-2.8,8.2-5.8,16.7-10.8,16.7c-4.6,0-6.1-6.3-7.7-12.9c-1.8-7.6-3.7-15.5-10.3-15.5
		c-5.7,0-7.8,8.3-10,17.1C125.1,126.3,122.4,136.9,113.5,136.9z"/>
	<rect x="47.9" y="122.9" fill="#C1C1C0" width="0.2" height="1.3"/>
	<g>
		<path fill="#ABABAB" d="M48.4,126.1c0,0.4-0.2,0.7-0.5,0.7c-0.3,0-0.5-0.2-0.5-0.7c0-0.4,0.2-0.7,0.5-0.7
			C48.3,125.4,48.4,125.7,48.4,126.1z M47.7,126.1c0,0.3,0.1,0.5,0.3,0.5c0.2,0,0.3-0.2,0.3-0.5c0-0.3-0.1-0.5-0.3-0.5
			C47.8,125.6,47.7,125.7,47.7,126.1z"/>
	</g>
	<rect x="100.2" y="123.1" fill="#C1C1C0" width="0.2" height="1.3"/>
	<rect x="109" y="123.1" fill="#C1C1C0" width="0.2" height="1.3"/>
	<rect x="117.7" y="123.1" fill="#C1C1C0" width="0.2" height="1.3"/>
	<g>
		<path fill="#ABABAB" d="M100.1,126.1c0,0,0.2-0.2,0.3-0.2c0.2,0,0.4,0.2,0.4,0.4c0,0.3-0.2,0.5-0.5,0.5c-0.2,0-0.4-0.2-0.4-0.6
			c0-0.4,0.2-0.8,0.7-0.8c0,0,0,0,0.1,0v0.2h0C100.3,125.6,100.1,125.8,100.1,126.1z M100.1,126.2L100.1,126.2
			c0,0.3,0.2,0.4,0.3,0.4s0.2-0.2,0.2-0.3s-0.1-0.3-0.2-0.3C100.3,126.1,100.2,126.1,100.1,126.2z"/>
	</g>
	<g>
		<path fill="#ABABAB" d="M117.4,125.7c0-0.2,0.2-0.3,0.4-0.3c0.2,0,0.4,0.2,0.4,0.3c0,0.2-0.1,0.2-0.2,0.3c0.2,0.1,0.3,0.2,0.3,0.4
			c0,0.2-0.2,0.4-0.5,0.4c-0.3,0-0.5-0.2-0.5-0.4c0-0.2,0.1-0.3,0.3-0.4C117.5,125.9,117.4,125.8,117.4,125.7z M117.8,126.1
			c-0.2,0-0.3,0.2-0.3,0.3c0,0.2,0.2,0.2,0.3,0.2c0.2,0,0.3-0.1,0.3-0.2C118.1,126.2,118,126.1,117.8,126.1z M117.8,125.9
			c0.1,0,0.2-0.1,0.2-0.2c0-0.1-0.1-0.2-0.2-0.2c-0.2,0-0.2,0.1-0.2,0.2C117.6,125.8,117.7,125.9,117.8,125.9z"/>
	</g>
	<rect x="126.4" y="123.1" fill="#C1C1C0" width="0.2" height="1.3"/>
	<rect x="135.1" y="123.1" fill="#C1C1C0" width="0.2" height="1.3"/>
	<rect x="143.9" y="123.1" fill="#C1C1C0" width="0.2" height="1.3"/>
	<g>
		<path fill="#ABABAB" d="M134.8,125.3v1.2h0.2v0.2h-0.7v-0.2h0.3v-1l-0.3,0.2l-0.1-0.2l0.4-0.3L134.8,125.3L134.8,125.3z"/>
		<path fill="#ABABAB" d="M136.3,126c0,0.4-0.2,0.7-0.5,0.7c-0.3,0-0.5-0.2-0.5-0.7c0-0.5,0.2-0.7,0.5-0.7
			C136.2,125.3,136.3,125.6,136.3,126z M135.6,126c0,0.3,0.1,0.5,0.3,0.5c0.2,0,0.3-0.2,0.3-0.5c0-0.3-0.1-0.5-0.3-0.5
			C135.7,125.5,135.6,125.6,135.6,126z"/>
	</g>
	<rect x="152.6" y="123.2" fill="#C1C1C0" width="0.2" height="1.3"/>
	<rect x="161.3" y="123.2" fill="#C1C1C0" width="0.2" height="1.3"/>
	<rect x="170" y="123.2" fill="#C1C1C0" width="0.2" height="1.3"/>
	<g>
		<path fill="#ABABAB" d="M152.2,125.5v1.2h0.2v0.2h-0.7v-0.2h0.3v-1l-0.2,0.2l-0.1-0.2L152.2,125.5L152.2,125.5L152.2,125.5z"/>
		<path fill="#ABABAB" d="M152.9,126.9L152.9,126.9c0-0.5,0.6-0.7,0.6-1c0-0.1-0.1-0.2-0.2-0.2c-0.1,0-0.2,0-0.3,0.1l-0.1-0.1
			c0.1-0.1,0.2-0.2,0.4-0.2c0.2,0,0.4,0.2,0.4,0.3c0,0.4-0.5,0.5-0.6,0.9h0.6v0.2L152.9,126.9L152.9,126.9z"/>
	</g>
	<g>
		<path fill="#ABABAB" d="M169.7,125.5v1.2h0.2v0.2h-0.7v-0.2h0.3v-1l-0.2,0.2l-0.1-0.2L169.7,125.5L169.7,125.5L169.7,125.5z"/>
		<path fill="#ABABAB" d="M171,126.6v0.3h-0.2v-0.3h-0.6v-0.2l0.4-0.9l0.2,0l-0.4,0.9h0.4V126h0.2v0.4h0.2v0.2L171,126.6L171,126.6z
			"/>
	</g>
	<g>
		<path fill="#ED1A46" d="M26.1,89.9c0.2,0.2,0.4,0.2,0.7,0.2c0.4,0,0.6-0.2,0.6-0.3c0-0.2-0.1-0.3-0.6-0.5
			c-0.5-0.2-0.7-0.4-0.7-0.8c0-0.4,0.4-0.7,1-0.7c0.3,0,0.6,0.1,0.8,0.2l-0.2,0.4c-0.2-0.1-0.4-0.2-0.7-0.2c-0.3,0-0.5,0.2-0.5,0.3
			c0,0.2,0.1,0.2,0.5,0.4c0.7,0.2,0.9,0.5,0.9,0.9c0,0.5-0.4,0.7-1,0.7c-0.4,0-0.7-0.1-0.9-0.3L26.1,89.9z"/>
		<path fill="#ED1A46" d="M28.4,87.2c0-0.2,0.1-0.3,0.3-0.3c0.2,0,0.3,0.2,0.3,0.3c0,0.2-0.1,0.3-0.3,0.3
			C28.6,87.5,28.4,87.3,28.4,87.2z M29,90.5h-0.5v-2.6H29V90.5z"/>
		<path fill="#ED1A46" d="M30.2,88.4c0.2-0.3,0.5-0.5,0.9-0.5c0.6,0,0.9,0.4,0.9,1v1.7h-0.4v-1.7c0-0.4-0.2-0.6-0.5-0.6
			c-0.3,0-0.6,0.2-0.8,0.5v1.7h-0.5v-2.6h0.5L30.2,88.4L30.2,88.4C30.2,88.4,30.2,88.4,30.2,88.4z"/>
		<path fill="#A09F9F" d="M33.5,91l-0.2,0.2c-0.4-0.7-0.7-1.4-0.7-2.2c0-0.8,0.2-1.5,0.7-2.2l0.2,0.2c-0.2,0.5-0.5,1.3-0.5,2
			C33.1,89.7,33.3,90.4,33.5,91z"/>
		<path fill="#A09F9F" d="M35.1,88.7L34,87.3l0.4-0.3l1,1.4l1-1.4l0.4,0.3l-1.1,1.5l1.2,1.6l-0.4,0.3l-1.1-1.5l-1.1,1.5l-0.4-0.3
			L35.1,88.7z"/>
		<path fill="#A09F9F" d="M38.4,88.7l1.1-1.8l0.4,0.2l-1.2,2v1.3h-0.5v-1.3l-1.2-2l0.4-0.2L38.4,88.7z"/>
		<path fill="#A09F9F" d="M40.2,86.8l0.2-0.2c0.4,0.7,0.7,1.4,0.7,2.2c0,0.8-0.2,1.5-0.7,2.2l-0.2-0.2c0.2-0.6,0.5-1.3,0.5-2
			S40.4,87.5,40.2,86.8z"/>
	</g>
</g>
</svg>
