<?xml version="1.0" encoding="utf-8"?>
<!-- Generator: Adobe Illustrator 18.0.0, SVG Export Plug-In . SVG Version: 6.00 Build 0)  -->
<!DOCTYPE svg PUBLIC "-//W3C//DTD SVG 1.1//EN" "http://www.w3.org/Graphics/SVG/1.1/DTD/svg11.dtd">
<svg version="1.1" xmlns="http://www.w3.org/2000/svg" xmlns:xlink="http://www.w3.org/1999/xlink" x="0px" y="0px"
	 viewBox="0 0 367.5 174.2" enable-background="new 0 0 367.5 174.2" xml:space="preserve">
<g id="input">
	<rect x="19.2" y="104.5" fill="#F2F2F2" width="210" height="68.8"/>
	<text transform="matrix(1 0 0 1 39.7504 116.7377)" fill="#A09F9F" font-family="'ABeeZee-Regular'" font-size="8.8677">Zadejte vstup...</text>
	<rect x="230.3" y="105.3" fill="#ED1A46" width="24.8" height="68.7"/>
	<rect x="238" y="137.4" fill="#FFFFFF" width="9.5" height="1.5"/>
	<rect x="238" y="142.2" fill="#FFFFFF" width="9.5" height="1.5"/>
</g>
<g id="frame">
	<rect x="0" y="0" fill="#303030" width="367.2" height="15"/>
	<g id="close_button">
		<rect x="352.6" y="0" fill="#C82027" width="15" height="15"/>
		<g>
			<path fill="#FFFFFF" d="M6.6,7.8l-2.4,3.1h3.9v0.5H3.5V11L6,7.7L3.5,4.8V4.3h4.6v0.5H4.3l0,0l2.3,2.8V7.8z"/>
		</g>
		<polygon fill="#FFFFFF" points="8.1,4.8 7.8,4.8 8.1,5.2 		"/>
		<polygon fill="#FFFFFF" points="8.1,10.9 7.8,10.9 8.1,10.6 		"/>
		<rect x="4" y="6.6" fill="#C82027" width="3.6" height="0.6"/>
		<rect x="4" y="8.4" fill="#C82027" width="3.6" height="0.6"/>
		
			<rect x="359.9" y="1.6" transform="matrix(0.7071 -0.7071 0.7071 0.7071 100.1846 256.7964)" fill="#E1E1E1" width="0.4" height="11.7"/>
		
			<rect x="359.9" y="1.6" transform="matrix(-0.7071 -0.7071 0.7071 -0.7071 609.4047 267.3529)" fill="#E1E1E1" width="0.4" height="11.7"/>
	</g>
	<g>
		<path fill="#F7F7F7" d="M12.9,11.4V4.2h2.1c0.7,0,1.3,0.2,1.8,0.5c0.4,0.3,0.6,0.8,0.6,1.4c0,0.4-0.1,0.7-0.3,1
			c-0.2,0.3-0.5,0.5-0.9,0.6c0.4,0.1,0.8,0.3,1.1,0.6s0.4,0.7,0.4,1.2c0,0.6-0.2,1.1-0.6,1.5c-0.4,0.3-1,0.5-1.7,0.5H12.9z
			 M13.5,7.4h1.7c0.5,0,0.9-0.1,1.2-0.3s0.4-0.6,0.4-1c0-0.5-0.2-0.8-0.5-1c-0.3-0.2-0.7-0.3-1.3-0.3h-1.5V7.4z M13.5,7.9v3h1.9
			c0.5,0,0.9-0.1,1.3-0.4c0.3-0.3,0.5-0.6,0.5-1.1c0-0.4-0.1-0.8-0.4-1.1c-0.3-0.3-0.7-0.4-1.2-0.4H13.5z"/>
		<path fill="#F7F7F7" d="M22.5,11.4c0-0.2-0.1-0.3-0.1-0.5c0-0.1,0-0.3,0-0.4c-0.2,0.3-0.5,0.5-0.8,0.7c-0.3,0.2-0.7,0.3-1.1,0.3
			c-0.5,0-0.9-0.1-1.2-0.4c-0.3-0.3-0.4-0.6-0.4-1.1c0-0.5,0.2-0.9,0.6-1.2c0.4-0.3,1-0.4,1.7-0.4h1.2V7.7c0-0.4-0.1-0.7-0.4-0.9
			s-0.6-0.3-1-0.3c-0.4,0-0.8,0.1-1,0.3s-0.4,0.5-0.4,0.8l-0.5,0l0,0c0-0.4,0.2-0.8,0.5-1.1s0.9-0.5,1.5-0.5c0.6,0,1.1,0.2,1.4,0.5
			c0.4,0.3,0.5,0.7,0.5,1.3v2.6c0,0.2,0,0.4,0,0.5s0.1,0.4,0.1,0.5H22.5z M20.5,11c0.4,0,0.8-0.1,1.1-0.3c0.3-0.2,0.6-0.5,0.7-0.8
			V8.8h-1.2c-0.5,0-1,0.1-1.3,0.3c-0.3,0.2-0.5,0.5-0.5,0.9c0,0.3,0.1,0.5,0.3,0.7C19.9,10.9,20.2,11,20.5,11z"/>
		<path fill="#F7F7F7" d="M27,6.6l-0.4,0c-0.4,0-0.7,0.1-0.9,0.3c-0.2,0.2-0.4,0.5-0.5,0.9v3.7h-0.6V6H25l0.1,0.9V7
			c0.2-0.3,0.4-0.6,0.6-0.8s0.6-0.3,0.9-0.3c0.1,0,0.1,0,0.2,0C27,6,27,6,27.1,6L27,6.6z"/>
		<path fill="#F7F7F7" d="M32.3,8.9c0,0.8-0.2,1.4-0.5,1.9c-0.4,0.5-0.9,0.7-1.5,0.7c-0.4,0-0.7-0.1-1-0.2s-0.5-0.4-0.7-0.7
			l-0.1,0.8H28V3.7h0.6v3.2c0.2-0.3,0.4-0.5,0.7-0.7s0.6-0.2,1-0.2c0.6,0,1.1,0.3,1.5,0.8c0.4,0.5,0.5,1.2,0.5,2.1V8.9z M31.7,8.8
			c0-0.7-0.1-1.2-0.4-1.7c-0.3-0.4-0.7-0.6-1.2-0.6c-0.4,0-0.7,0.1-1,0.3c-0.3,0.2-0.4,0.5-0.6,0.8V10c0.1,0.3,0.3,0.6,0.6,0.7
			c0.3,0.2,0.6,0.3,1,0.3c0.5,0,0.9-0.2,1.2-0.6s0.4-0.9,0.4-1.6V8.8z"/>
		<path fill="#F7F7F7" d="M34.3,4.5h-0.6V3.7h0.6V4.5z M34.3,11.4h-0.6V6h0.6V11.4z"/>
		<path fill="#F7F7F7" d="M37.9,11.5c-0.7,0-1.2-0.2-1.7-0.7c-0.4-0.5-0.7-1.1-0.7-1.9V8.6c0-0.8,0.2-1.4,0.7-1.9
			c0.4-0.5,1-0.8,1.6-0.8c0.7,0,1.2,0.2,1.6,0.6C39.8,7,40,7.5,40,8.2v0.5h-3.8v0.1c0,0.6,0.2,1.1,0.5,1.5c0.3,0.4,0.7,0.6,1.3,0.6
			c0.4,0,0.7-0.1,0.9-0.2s0.5-0.2,0.7-0.4l0.3,0.4c-0.2,0.2-0.5,0.4-0.8,0.5C38.7,11.4,38.4,11.5,37.9,11.5z M37.9,6.5
			c-0.4,0-0.8,0.2-1.1,0.5c-0.3,0.3-0.5,0.8-0.5,1.3l0,0h3.1V8.1c0-0.5-0.1-0.9-0.4-1.2C38.7,6.6,38.3,6.5,37.9,6.5z"/>
		<path fill="#F7F7F7" d="M48.7,9.2L48.7,9.2c-0.1,0.8-0.3,1.3-0.8,1.7s-1.1,0.6-1.8,0.6c-0.8,0-1.4-0.3-1.9-0.9
			c-0.5-0.6-0.7-1.3-0.7-2.3V7.2c0-0.9,0.2-1.7,0.7-2.3c0.5-0.6,1.1-0.9,1.9-0.9c0.8,0,1.4,0.2,1.8,0.6s0.7,1,0.8,1.7l0,0h-0.6
			c-0.1-0.6-0.3-1.1-0.6-1.4c-0.3-0.3-0.8-0.5-1.4-0.5c-0.6,0-1.1,0.2-1.5,0.7c-0.4,0.5-0.6,1.1-0.6,1.9v1.2c0,0.8,0.2,1.4,0.6,1.9
			c0.4,0.5,0.9,0.7,1.5,0.7c0.6,0,1.1-0.2,1.4-0.5c0.3-0.3,0.5-0.8,0.6-1.4H48.7z"/>
		<path fill="#F7F7F7" d="M53.5,11.4c0-0.2-0.1-0.3-0.1-0.5c0-0.1,0-0.3,0-0.4c-0.2,0.3-0.5,0.5-0.8,0.7c-0.3,0.2-0.7,0.3-1.1,0.3
			c-0.5,0-0.9-0.1-1.2-0.4c-0.3-0.3-0.4-0.6-0.4-1.1c0-0.5,0.2-0.9,0.6-1.2c0.4-0.3,1-0.4,1.7-0.4h1.2V7.7c0-0.4-0.1-0.7-0.4-0.9
			s-0.6-0.3-1-0.3c-0.4,0-0.8,0.1-1,0.3s-0.4,0.5-0.4,0.8l-0.5,0l0,0c0-0.4,0.2-0.8,0.5-1.1s0.9-0.5,1.5-0.5c0.6,0,1.1,0.2,1.4,0.5
			C53.8,6.7,54,7.1,54,7.7v2.6c0,0.2,0,0.4,0,0.5s0.1,0.4,0.1,0.5H53.5z M51.6,11c0.4,0,0.8-0.1,1.1-0.3c0.3-0.2,0.6-0.5,0.7-0.8
			V8.8h-1.2c-0.5,0-1,0.1-1.3,0.3c-0.3,0.2-0.5,0.5-0.5,0.9c0,0.3,0.1,0.5,0.3,0.7C50.9,10.9,51.2,11,51.6,11z"/>
		<path fill="#F7F7F7" d="M56.2,11.4h-0.6V3.7h0.6V11.4z"/>
		<path fill="#F7F7F7" d="M59.9,11c0.4,0,0.7-0.1,1-0.3s0.5-0.5,0.5-0.9h0.5l0,0c0,0.5-0.2,0.9-0.6,1.2c-0.4,0.3-0.9,0.5-1.4,0.5
			c-0.7,0-1.3-0.3-1.7-0.8c-0.4-0.5-0.6-1.1-0.6-1.9V8.6c0-0.8,0.2-1.4,0.6-1.9s1-0.8,1.7-0.8c0.6,0,1.1,0.2,1.5,0.5
			c0.4,0.3,0.6,0.8,0.6,1.4l0,0h-0.5c0-0.4-0.1-0.8-0.4-1c-0.3-0.3-0.6-0.4-1.1-0.4c-0.6,0-1,0.2-1.3,0.6S58.2,8,58.2,8.6v0.2
			c0,0.6,0.1,1.2,0.4,1.6S59.3,11,59.9,11z"/>
		<path fill="#F7F7F7" d="M66.6,10.5c-0.2,0.3-0.4,0.6-0.7,0.7c-0.3,0.2-0.6,0.3-1,0.3c-0.6,0-1-0.2-1.3-0.6c-0.3-0.4-0.5-1-0.5-1.8
			V6h0.6v3.1c0,0.7,0.1,1.1,0.3,1.4c0.2,0.3,0.5,0.4,0.9,0.4c0.4,0,0.8-0.1,1.1-0.3c0.3-0.2,0.5-0.5,0.6-0.8V6h0.6v5.4h-0.5
			L66.6,10.5z"/>
		<path fill="#F7F7F7" d="M69.4,11.4h-0.6V3.7h0.6V11.4z"/>
		<path fill="#F7F7F7" d="M74.5,11.4c0-0.2-0.1-0.3-0.1-0.5c0-0.1,0-0.3,0-0.4c-0.2,0.3-0.5,0.5-0.8,0.7c-0.3,0.2-0.7,0.3-1.1,0.3
			c-0.5,0-0.9-0.1-1.2-0.4c-0.3-0.3-0.4-0.6-0.4-1.1c0-0.5,0.2-0.9,0.6-1.2c0.4-0.3,1-0.4,1.7-0.4h1.2V7.7c0-0.4-0.1-0.7-0.4-0.9
			s-0.6-0.3-1-0.3c-0.4,0-0.8,0.1-1,0.3s-0.4,0.5-0.4,0.8l-0.5,0l0,0c0-0.4,0.2-0.8,0.5-1.1s0.9-0.5,1.5-0.5c0.6,0,1.1,0.2,1.4,0.5
			C74.8,6.7,75,7.1,75,7.7v2.6c0,0.2,0,0.4,0,0.5s0.1,0.4,0.1,0.5H74.5z M72.5,11c0.4,0,0.8-0.1,1.1-0.3c0.3-0.2,0.6-0.5,0.7-0.8
			V8.8h-1.2c-0.5,0-1,0.1-1.3,0.3c-0.3,0.2-0.5,0.5-0.5,0.9c0,0.3,0.1,0.5,0.3,0.7C71.9,10.9,72.2,11,72.5,11z"/>
		<path fill="#F7F7F7" d="M77.5,4.7V6h1.2v0.5h-1.2V10c0,0.4,0.1,0.6,0.2,0.7s0.3,0.2,0.5,0.2c0.1,0,0.2,0,0.3,0s0.2,0,0.3,0
			l0.1,0.4c-0.1,0-0.2,0.1-0.4,0.1s-0.3,0-0.4,0c-0.4,0-0.7-0.1-0.9-0.4c-0.2-0.2-0.3-0.6-0.3-1.1V6.5h-0.9V6h0.9V4.7H77.5z"/>
		<path fill="#F7F7F7" d="M79.5,8.6c0-0.8,0.2-1.4,0.6-1.9s1-0.8,1.7-0.8c0.7,0,1.3,0.3,1.7,0.8s0.6,1.2,0.6,1.9v0.2
			c0,0.8-0.2,1.4-0.6,1.9c-0.4,0.5-1,0.8-1.7,0.8c-0.7,0-1.3-0.3-1.7-0.8s-0.6-1.2-0.6-1.9V8.6z M80.1,8.8c0,0.6,0.2,1.1,0.5,1.6
			c0.3,0.4,0.8,0.6,1.3,0.6c0.6,0,1-0.2,1.3-0.6c0.3-0.4,0.5-0.9,0.5-1.6V8.6c0-0.6-0.2-1.1-0.5-1.6c-0.3-0.4-0.8-0.6-1.3-0.6
			c-0.6,0-1,0.2-1.3,0.6c-0.3,0.4-0.5,0.9-0.5,1.6V8.8z"/>
		<path fill="#F7F7F7" d="M87.9,6.6l-0.4,0c-0.4,0-0.7,0.1-0.9,0.3c-0.2,0.2-0.4,0.5-0.5,0.9v3.7h-0.6V6H86L86,6.9V7
			c0.2-0.3,0.4-0.6,0.6-0.8s0.6-0.3,0.9-0.3c0.1,0,0.1,0,0.2,0c0.1,0,0.1,0,0.2,0L87.9,6.6z"/>
	</g>
</g>
<g id="display">
	<rect y="15" fill="#F7F7F7" width="254.4" height="90.6"/>
	<g>
		<path fill="#303030" d="M135.5,46.9c0.6,0,1.2,0.1,1.8,0.2c0.6,0.1,1.1,0.3,1.6,0.5l-0.6,2.3c-0.5-0.2-0.9-0.3-1.3-0.5
			c-0.4-0.1-0.9-0.2-1.5-0.2c-1.2,0-2.1,0.5-2.9,1.4c-0.7,0.9-1.1,2.2-1.1,3.7v0.1c0.5-0.4,1.1-0.8,1.7-1c0.6-0.2,1.4-0.4,2.1-0.4
			c1.6,0,2.8,0.6,3.8,1.7c0.9,1.1,1.4,2.5,1.4,4.3c0,1.8-0.5,3.3-1.6,4.5c-1.1,1.2-2.5,1.7-4.2,1.7c-1.8,0-3.3-0.6-4.5-1.9
			c-1.2-1.3-1.7-3-1.7-5.3v-3.4c0-2.3,0.7-4.2,2-5.6C131.9,47.6,133.5,46.9,135.5,46.9z M134.7,55.4c-0.8,0-1.4,0.1-1.9,0.4
			s-0.9,0.6-1.2,1.1v1.3c0,1.5,0.3,2.7,0.9,3.5c0.6,0.8,1.4,1.2,2.3,1.2c0.9,0,1.5-0.4,2-1.1c0.5-0.7,0.7-1.7,0.7-2.7
			c0-1.1-0.3-1.9-0.8-2.6S135.6,55.4,134.7,55.4z"/>
		<path fill="#303030" d="M152.8,58.6h2.3V61h-2.3v4h-3v-4h-7.6l-0.1-1.8l7.6-12h3.1V58.6z M145.1,58.6h4.8v-7.2l-0.1,0l-0.2,0.5
			L145.1,58.6z"/>
		<path fill="#303030" d="M157.6,57l1-9.8h9.4v2.6h-6.9l-0.5,4.5c0.4-0.3,0.8-0.5,1.2-0.6c0.5-0.2,1-0.3,1.6-0.3
			c1.7,0,3,0.5,3.9,1.6c0.9,1.1,1.4,2.5,1.4,4.4c0,1.7-0.5,3.2-1.5,4.3c-1,1.1-2.4,1.7-4.3,1.7c-1.6,0-2.9-0.4-4-1.3
			s-1.6-2.1-1.6-3.7l0-0.1l2.8-0.1c0,0.9,0.3,1.5,0.8,2c0.5,0.5,1.2,0.7,2,0.7c0.9,0,1.6-0.3,2.1-1c0.5-0.6,0.7-1.5,0.7-2.6
			c0-1.1-0.2-2-0.7-2.6c-0.5-0.7-1.2-1-2.1-1c-0.8,0-1.4,0.1-1.8,0.4s-0.7,0.7-0.9,1.2L157.6,57z"/>
		<path fill="#303030" d="M174.4,64.6l-1.9,3.8h-1.9l0.9-3.9v-2.4h2.9V64.6z"/>
		<path fill="#303030" d="M188.7,49.5c-2,2.4-3.4,4.6-4.1,6.5c-0.7,1.9-1.2,4.3-1.6,7l-0.2,1.9h-3l0.2-1.9c0.3-2.7,1-5.1,1.9-7.3
			c1-2.2,2.3-4.3,3.9-6.2h-9.4v-2.4h12.3V49.5z"/>
		<path fill="#303030" d="M201.2,58.6h2.3V61h-2.3v4h-3v-4h-7.6l-0.1-1.8l7.6-12h3.1V58.6z M193.4,58.6h4.8v-7.2l-0.1,0l-0.2,0.5
			L193.4,58.6z"/>
		<path fill="#303030" d="M206,57l1-9.8h9.4v2.6h-6.9l-0.5,4.5c0.4-0.3,0.8-0.5,1.2-0.6c0.5-0.2,1-0.3,1.6-0.3c1.7,0,3,0.5,3.9,1.6
			c0.9,1.1,1.4,2.5,1.4,4.4c0,1.7-0.5,3.2-1.5,4.3c-1,1.1-2.4,1.7-4.3,1.7c-1.6,0-2.9-0.4-4-1.3s-1.6-2.1-1.6-3.7l0-0.1l2.8-0.1
			c0,0.9,0.3,1.5,0.8,2c0.5,0.5,1.2,0.7,2,0.7c0.9,0,1.6-0.3,2.1-1c0.5-0.6,0.7-1.5,0.7-2.6c0-1.1-0.2-2-0.7-2.6
			c-0.5-0.7-1.2-1-2.1-1c-0.8,0-1.4,0.1-1.8,0.4s-0.7,0.7-0.9,1.2L206,57z"/>
		<path fill="#303030" d="M220.2,57l1-9.8h9.4v2.6h-6.9l-0.5,4.5c0.4-0.3,0.8-0.5,1.2-0.6c0.5-0.2,1-0.3,1.6-0.3
			c1.7,0,3,0.5,3.9,1.6c0.9,1.1,1.4,2.5,1.4,4.4c0,1.7-0.5,3.2-1.5,4.3c-1,1.1-2.4,1.7-4.3,1.7c-1.6,0-2.9-0.4-4-1.3
			s-1.6-2.1-1.6-3.7l0-0.1l2.8-0.1c0,0.9,0.3,1.5,0.8,2c0.5,0.5,1.2,0.7,2,0.7c0.9,0,1.6-0.3,2.1-1c0.5-0.6,0.7-1.5,0.7-2.6
			c0-1.1-0.2-2-0.7-2.6c-0.5-0.7-1.2-1-2.1-1c-0.8,0-1.4,0.1-1.8,0.4s-0.7,0.7-0.9,1.2L220.2,57z"/>
		<path fill="#303030" d="M237.3,54.7h2.1c1,0,1.7-0.2,2.1-0.7c0.4-0.5,0.6-1.2,0.6-2c0-0.9-0.2-1.5-0.7-2c-0.5-0.5-1.1-0.7-2-0.7
			c-0.8,0-1.5,0.2-2,0.7c-0.5,0.5-0.8,1.1-0.8,1.8h-2.9l0-0.1c0-1.4,0.5-2.5,1.5-3.4c1.1-0.9,2.4-1.4,4.1-1.4c1.7,0,3.1,0.4,4.2,1.3
			s1.6,2.1,1.6,3.8c0,0.8-0.2,1.5-0.7,2.2s-1.1,1.3-2,1.7c1,0.4,1.8,0.9,2.2,1.6c0.5,0.7,0.7,1.6,0.7,2.5c0,1.6-0.6,2.9-1.7,3.8
			c-1.1,0.9-2.6,1.4-4.3,1.4c-1.6,0-3-0.4-4.2-1.3c-1.1-0.9-1.7-2.1-1.6-3.6l0-0.1h2.9c0,0.8,0.3,1.4,0.8,1.9
			c0.5,0.5,1.2,0.7,2.1,0.7c0.9,0,1.6-0.2,2.2-0.7c0.5-0.5,0.8-1.2,0.8-2.1c0-1-0.2-1.7-0.7-2.2c-0.5-0.5-1.2-0.7-2.3-0.7h-2.1V54.7
			z"/>
	</g>
</g>
<g id="extension">
	<rect x="106.8" y="89.5" display="none" fill="#303030" width="21.6" height="159.9"/>
	<rect x="0" y="105.3" fill="#2B2B2B" width="20" height="9.9"/>
	<g>
		<path fill="#FFFFFF" d="M7.6,110.4c0,0.4-0.1,0.8-0.3,1.1s-0.5,0.4-0.8,0.4c-0.2,0-0.4,0-0.6-0.1c-0.2-0.1-0.3-0.2-0.4-0.3v1.6
			H5.1v-4.1h0.3l0,0.5c0.1-0.2,0.2-0.3,0.4-0.4c0.2-0.1,0.3-0.1,0.6-0.1c0.4,0,0.6,0.1,0.8,0.4C7.5,109.5,7.6,109.9,7.6,110.4
			L7.6,110.4z M7.2,110.3c0-0.4-0.1-0.7-0.2-0.9c-0.2-0.2-0.4-0.4-0.7-0.4c-0.2,0-0.4,0.1-0.5,0.2c-0.1,0.1-0.2,0.2-0.3,0.4v1.4
			c0.1,0.2,0.2,0.3,0.3,0.4c0.1,0.1,0.3,0.1,0.5,0.1c0.3,0,0.5-0.1,0.7-0.3C7.2,111,7.2,110.7,7.2,110.3L7.2,110.3z"/>
		<path fill="#FFFFFF" d="M8.1,110.3c0-0.4,0.1-0.8,0.4-1.1s0.6-0.4,1-0.4c0.4,0,0.7,0.1,1,0.4s0.4,0.6,0.4,1.1v0.1
			c0,0.4-0.1,0.8-0.4,1.1s-0.6,0.4-1,0.4c-0.4,0-0.7-0.1-1-0.4S8.1,110.8,8.1,110.3L8.1,110.3z M8.5,110.3c0,0.3,0.1,0.6,0.3,0.9
			s0.4,0.4,0.7,0.4c0.3,0,0.6-0.1,0.7-0.4c0.2-0.2,0.3-0.5,0.3-0.9v-0.1c0-0.3-0.1-0.6-0.3-0.9c-0.2-0.2-0.4-0.4-0.7-0.4
			c-0.3,0-0.6,0.1-0.7,0.4S8.5,109.9,8.5,110.3L8.5,110.3z"/>
		<path fill="#FFFFFF" d="M12.1,110.8l0.1,0.5h0l0.1-0.5l0.6-2h0.3l0.6,2l0.1,0.5h0l0.1-0.5l0.5-2h0.3l-0.9,3H14l-0.7-2l-0.1-0.5h0
			l-0.1,0.5l-0.7,2h-0.3l-0.9-3h0.3L12.1,110.8z"/>
	</g>
	<rect x="0" y="115.1" fill="#2B2B2B" width="20" height="9.9"/>
	<g>
		<path fill="#EE1D3E" d="M6.8,118.9l-0.2,0c-0.2,0-0.4,0.1-0.5,0.2s-0.2,0.3-0.3,0.5v2.1H5.4v-3h0.3l0,0.5v0
			c0.1-0.2,0.2-0.3,0.3-0.4c0.1-0.1,0.3-0.2,0.5-0.2c0,0,0.1,0,0.1,0c0,0,0.1,0,0.1,0L6.8,118.9z"/>
		<path fill="#EE1D3E" d="M7.1,120.1c0-0.4,0.1-0.8,0.4-1.1s0.6-0.4,1-0.4c0.4,0,0.7,0.1,1,0.4s0.4,0.6,0.4,1.1v0.1
			c0,0.4-0.1,0.8-0.4,1.1s-0.6,0.4-1,0.4c-0.4,0-0.7-0.1-1-0.4S7.1,120.6,7.1,120.1L7.1,120.1z M7.4,120.1c0,0.3,0.1,0.6,0.3,0.9
			s0.4,0.4,0.7,0.4c0.3,0,0.6-0.1,0.7-0.4c0.2-0.2,0.3-0.5,0.3-0.9v-0.1c0-0.3-0.1-0.6-0.3-0.9c-0.2-0.2-0.4-0.4-0.7-0.4
			c-0.3,0-0.6,0.1-0.7,0.4S7.4,119.7,7.4,120.1L7.4,120.1z"/>
		<path fill="#EE1D3E" d="M10.3,120.1c0-0.4,0.1-0.8,0.4-1.1s0.6-0.4,1-0.4c0.4,0,0.7,0.1,1,0.4s0.4,0.6,0.4,1.1v0.1
			c0,0.4-0.1,0.8-0.4,1.1s-0.6,0.4-1,0.4c-0.4,0-0.7-0.1-1-0.4S10.3,120.6,10.3,120.1L10.3,120.1z M10.6,120.1
			c0,0.3,0.1,0.6,0.3,0.9s0.4,0.4,0.7,0.4c0.3,0,0.6-0.1,0.7-0.4c0.2-0.2,0.3-0.5,0.3-0.9v-0.1c0-0.3-0.1-0.6-0.3-0.9
			c-0.2-0.2-0.4-0.4-0.7-0.4c-0.3,0-0.6,0.1-0.7,0.4S10.6,119.7,10.6,120.1L10.6,120.1z"/>
		<path fill="#EE1D3E" d="M14.1,117.8v0.8h0.7v0.3h-0.7v2c0,0.2,0,0.3,0.1,0.4s0.2,0.1,0.3,0.1c0.1,0,0.1,0,0.2,0c0.1,0,0.1,0,0.2,0
			l0,0.2c-0.1,0-0.1,0-0.2,0.1c-0.1,0-0.2,0-0.2,0c-0.2,0-0.4-0.1-0.5-0.2s-0.2-0.3-0.2-0.6v-2h-0.5v-0.3h0.5v-0.8H14.1z"/>
	</g>
	<rect x="0" y="125" fill="#2B2B2B" width="20" height="9.9"/>
	<g>
		<path fill="#FFFFFF" d="M5.8,131.5v-2.7H5.3v-0.3h0.5V128c0-0.3,0.1-0.5,0.2-0.7c0.2-0.2,0.4-0.2,0.6-0.2c0.1,0,0.1,0,0.2,0
			c0.1,0,0.1,0,0.2,0l0,0.3c0,0-0.1,0-0.1,0c0,0-0.1,0-0.2,0c-0.2,0-0.3,0.1-0.4,0.2c-0.1,0.1-0.1,0.3-0.1,0.5v0.4h0.7v0.3H6.2v2.7
			H5.8z"/>
		<path fill="#FFFFFF" d="M9.3,131.5c0-0.1,0-0.2,0-0.3s0-0.1,0-0.2c-0.1,0.2-0.3,0.3-0.4,0.4c-0.2,0.1-0.4,0.2-0.6,0.2
			c-0.3,0-0.5-0.1-0.7-0.2c-0.2-0.2-0.2-0.4-0.2-0.6c0-0.3,0.1-0.5,0.4-0.7c0.2-0.2,0.6-0.2,1-0.2h0.7v-0.4c0-0.2-0.1-0.4-0.2-0.5
			c-0.1-0.1-0.3-0.2-0.6-0.2c-0.2,0-0.4,0.1-0.6,0.2s-0.2,0.3-0.2,0.4l-0.3,0l0,0c0-0.2,0.1-0.4,0.3-0.6s0.5-0.3,0.8-0.3
			c0.3,0,0.6,0.1,0.8,0.3c0.2,0.2,0.3,0.4,0.3,0.7v1.5c0,0.1,0,0.2,0,0.3s0,0.2,0.1,0.3H9.3z M8.3,131.2c0.2,0,0.4-0.1,0.6-0.2
			c0.2-0.1,0.3-0.3,0.4-0.4V130H8.6c-0.3,0-0.5,0.1-0.7,0.2c-0.2,0.1-0.3,0.3-0.3,0.5c0,0.2,0.1,0.3,0.2,0.4
			C7.9,131.2,8.1,131.2,8.3,131.2z"/>
		<path fill="#FFFFFF" d="M11.6,131.2c0.2,0,0.4-0.1,0.6-0.2s0.3-0.3,0.3-0.5h0.3l0,0c0,0.3-0.1,0.5-0.3,0.7
			c-0.2,0.2-0.5,0.3-0.8,0.3c-0.4,0-0.7-0.1-0.9-0.4c-0.2-0.3-0.3-0.6-0.3-1.1v-0.1c0-0.4,0.1-0.8,0.3-1.1c0.2-0.3,0.5-0.4,0.9-0.4
			c0.3,0,0.6,0.1,0.8,0.3c0.2,0.2,0.3,0.4,0.3,0.8l0,0h-0.3c0-0.2-0.1-0.4-0.2-0.6c-0.2-0.1-0.4-0.2-0.6-0.2c-0.3,0-0.6,0.1-0.7,0.3
			c-0.2,0.2-0.2,0.5-0.2,0.9v0.1c0,0.4,0.1,0.6,0.2,0.9C11,131.1,11.3,131.2,11.6,131.2z"/>
		<path fill="#FFFFFF" d="M14,127.7v0.8h0.7v0.3H14v2c0,0.2,0,0.3,0.1,0.4s0.2,0.1,0.3,0.1c0.1,0,0.1,0,0.2,0c0.1,0,0.1,0,0.2,0
			l0,0.2c-0.1,0-0.1,0-0.2,0.1c-0.1,0-0.2,0-0.2,0c-0.2,0-0.4-0.1-0.5-0.2s-0.2-0.3-0.2-0.6v-2h-0.5v-0.3h0.5v-0.8H14z"/>
	</g>
	<rect x="0" y="134.8" fill="#2B2B2B" width="20" height="9.9"/>
	<g>
		<path fill="#FFFFFF" d="M6.2,138.6l-0.2,0c-0.2,0-0.4,0.1-0.5,0.2s-0.2,0.3-0.3,0.5v2.1H4.8v-3h0.3l0,0.5v0
			c0.1-0.2,0.2-0.3,0.3-0.4c0.1-0.1,0.3-0.2,0.5-0.2c0,0,0.1,0,0.1,0c0,0,0.1,0,0.1,0L6.2,138.6z"/>
		<path fill="#FFFFFF" d="M8.6,141.3c0-0.1,0-0.2,0-0.3s0-0.1,0-0.2c-0.1,0.2-0.3,0.3-0.4,0.4c-0.2,0.1-0.4,0.2-0.6,0.2
			c-0.3,0-0.5-0.1-0.7-0.2c-0.2-0.2-0.2-0.4-0.2-0.6c0-0.3,0.1-0.5,0.4-0.7c0.2-0.2,0.6-0.2,1-0.2h0.7v-0.4c0-0.2-0.1-0.4-0.2-0.5
			c-0.1-0.1-0.3-0.2-0.6-0.2c-0.2,0-0.4,0.1-0.6,0.2S7,138.9,7,139.1l-0.3,0l0,0c0-0.2,0.1-0.4,0.3-0.6s0.5-0.3,0.8-0.3
			c0.3,0,0.6,0.1,0.8,0.3c0.2,0.2,0.3,0.4,0.3,0.7v1.5c0,0.1,0,0.2,0,0.3s0,0.2,0.1,0.3H8.6z M7.5,141c0.2,0,0.4-0.1,0.6-0.2
			c0.2-0.1,0.3-0.3,0.4-0.4v-0.6H7.9c-0.3,0-0.5,0.1-0.7,0.2c-0.2,0.1-0.3,0.3-0.3,0.5c0,0.2,0.1,0.3,0.2,0.4
			C7.2,141,7.3,141,7.5,141z"/>
		<path fill="#FFFFFF" d="M10.1,138.3l0,0.5c0.1-0.2,0.2-0.3,0.4-0.4c0.2-0.1,0.4-0.2,0.6-0.2c0.3,0,0.6,0.1,0.7,0.3
			c0.2,0.2,0.3,0.5,0.3,0.9v1.8h-0.3v-1.8c0-0.3-0.1-0.6-0.2-0.7c-0.1-0.1-0.3-0.2-0.5-0.2c-0.2,0-0.4,0.1-0.6,0.2
			c-0.1,0.1-0.3,0.3-0.3,0.5v2.1H9.8v-3H10.1z"/>
		<path fill="#FFFFFF" d="M12.8,139.8c0-0.5,0.1-0.9,0.3-1.1c0.2-0.3,0.5-0.4,0.8-0.4c0.2,0,0.4,0,0.5,0.1c0.2,0.1,0.3,0.2,0.4,0.4
			V137h0.3v4.3h-0.3l0-0.4c-0.1,0.2-0.2,0.3-0.4,0.4c-0.2,0.1-0.3,0.1-0.6,0.1c-0.4,0-0.6-0.1-0.8-0.4
			C12.9,140.7,12.8,140.3,12.8,139.8L12.8,139.8z M13.1,139.9c0,0.4,0.1,0.7,0.2,0.9s0.4,0.3,0.7,0.3c0.2,0,0.4,0,0.5-0.1
			s0.3-0.2,0.3-0.4v-1.4c-0.1-0.2-0.2-0.3-0.3-0.4c-0.1-0.1-0.3-0.2-0.5-0.2c-0.3,0-0.5,0.1-0.7,0.4
			C13.2,139.1,13.1,139.4,13.1,139.9L13.1,139.9z"/>
	</g>
	<rect x="0" y="144.7" fill="#2B2B2B" width="20" height="9.9"/>
	<g>
		<path fill="#FFFFFF" d="M7,151.1H6.7v-4.3H7V151.1z"/>
		<path fill="#FFFFFF" d="M7.8,149.6c0-0.4,0.1-0.8,0.4-1.1s0.6-0.4,1-0.4c0.4,0,0.7,0.1,1,0.4s0.4,0.6,0.4,1.1v0.1
			c0,0.4-0.1,0.8-0.4,1.1s-0.6,0.4-1,0.4c-0.4,0-0.7-0.1-1-0.4S7.8,150.1,7.8,149.6L7.8,149.6z M8.1,149.7c0,0.3,0.1,0.6,0.3,0.9
			s0.4,0.4,0.7,0.4c0.3,0,0.6-0.1,0.7-0.4c0.2-0.2,0.3-0.5,0.3-0.9v-0.1c0-0.3-0.1-0.6-0.3-0.9c-0.2-0.2-0.4-0.4-0.7-0.4
			c-0.3,0-0.6,0.1-0.7,0.4S8.1,149.3,8.1,149.7L8.1,149.7z"/>
		<path fill="#FFFFFF" d="M11,149.7c0-0.5,0.1-0.9,0.3-1.1c0.2-0.3,0.5-0.4,0.9-0.4c0.2,0,0.4,0,0.6,0.1c0.2,0.1,0.3,0.2,0.4,0.4
			l0-0.5h0.3v3c0,0.4-0.1,0.7-0.3,0.9c-0.2,0.2-0.5,0.3-0.9,0.3c-0.1,0-0.3,0-0.5-0.1c-0.2,0-0.3-0.1-0.4-0.1l0.1-0.3
			c0.1,0.1,0.2,0.1,0.4,0.1c0.1,0,0.3,0,0.4,0c0.3,0,0.5-0.1,0.7-0.3c0.1-0.2,0.2-0.4,0.2-0.7v-0.4c-0.1,0.2-0.2,0.3-0.4,0.4
			c-0.2,0.1-0.3,0.1-0.5,0.1c-0.4,0-0.6-0.1-0.8-0.4C11.1,150.5,11,150.2,11,149.7L11,149.7z M11.3,149.7c0,0.4,0.1,0.6,0.2,0.9
			c0.1,0.2,0.4,0.3,0.7,0.3c0.2,0,0.4,0,0.5-0.1c0.1-0.1,0.3-0.2,0.3-0.4V149c-0.1-0.2-0.2-0.3-0.3-0.4s-0.3-0.2-0.5-0.2
			c-0.3,0-0.5,0.1-0.7,0.4S11.3,149.3,11.3,149.7L11.3,149.7z"/>
	</g>
	<rect x="0" y="154.5" fill="#2B2B2B" width="20" height="9.9"/>
	<g>
		<g>
			<path fill="#FFFFFF" d="M10.1,161c-0.4,0-0.7-0.1-0.9-0.4c-0.2-0.3-0.4-0.6-0.4-1.1v-0.2c0-0.4,0.1-0.8,0.4-1.1s0.5-0.4,0.9-0.4
				c0.4,0,0.7,0.1,0.9,0.3s0.3,0.5,0.3,0.9v0.3H9.1v0.1c0,0.3,0.1,0.6,0.3,0.8c0.2,0.2,0.4,0.3,0.7,0.3c0.2,0,0.4,0,0.5-0.1
				c0.1-0.1,0.3-0.1,0.4-0.2l0.1,0.2c-0.1,0.1-0.3,0.2-0.4,0.3S10.4,161,10.1,161z M10.1,158.2c-0.2,0-0.5,0.1-0.6,0.3
				c-0.2,0.2-0.3,0.4-0.3,0.7l0,0h1.8v-0.1c0-0.3-0.1-0.5-0.2-0.7C10.5,158.3,10.3,158.2,10.1,158.2z"/>
		</g>
	</g>
	<rect x="0" y="164.4" fill="#2B2B2B" width="20" height="9.9"/>
	<g>
		<path fill="#FFFFFF" d="M10.6,169.4c0,0.4-0.1,0.8-0.3,1.1s-0.5,0.4-0.8,0.4c-0.2,0-0.4,0-0.6-0.1c-0.2-0.1-0.3-0.2-0.4-0.3v1.6
			H8.2v-4.1h0.3l0,0.5c0.1-0.2,0.2-0.3,0.4-0.4c0.2-0.1,0.3-0.1,0.6-0.1c0.4,0,0.6,0.1,0.8,0.4C10.5,168.5,10.6,168.9,10.6,169.4
			L10.6,169.4z M10.3,169.3c0-0.4-0.1-0.7-0.2-0.9c-0.2-0.2-0.4-0.4-0.7-0.4c-0.2,0-0.4,0.1-0.5,0.2c-0.1,0.1-0.2,0.2-0.3,0.4v1.4
			c0.1,0.2,0.2,0.3,0.3,0.4c0.1,0.1,0.3,0.1,0.5,0.1c0.3,0,0.5-0.1,0.7-0.3C10.2,170,10.3,169.8,10.3,169.3L10.3,169.3z"/>
		<path fill="#FFFFFF" d="M11.8,167h-0.3v-0.5h0.3V167z M11.8,170.8h-0.3v-3h0.3V170.8z"/>
	</g>
</g>
<g id="soustavy">
	<g>
		<path fill="#EF4323" d="M6.1,89.7v-3.4h1c0.4,0,0.6,0.1,0.8,0.2s0.3,0.4,0.3,0.7c0,0.2,0,0.3-0.1,0.5s-0.2,0.2-0.4,0.3
			c0.2,0,0.4,0.1,0.5,0.3s0.2,0.3,0.2,0.5c0,0.3-0.1,0.5-0.3,0.7s-0.5,0.2-0.8,0.2H6.1z M6.4,87.8h0.8c0.2,0,0.4-0.1,0.6-0.2
			c0.1-0.1,0.2-0.3,0.2-0.5c0-0.2-0.1-0.4-0.2-0.5c-0.1-0.1-0.3-0.2-0.6-0.2H6.4V87.8z M6.4,88.1v1.4h0.9c0.2,0,0.4-0.1,0.6-0.2
			C8,89.2,8.1,89,8.1,88.8c0-0.2-0.1-0.4-0.2-0.5s-0.3-0.2-0.6-0.2H6.4z"/>
		<path fill="#EF4323" d="M9.4,89.7H9.1v-3.4h0.3V89.7z"/>
		<path fill="#EF4323" d="M12.8,89.7h-0.3l-1.9-2.9l0,0v2.9h-0.3v-3.4h0.3l1.9,2.9l0,0v-2.9h0.3V89.7z"/>
		<path d="M20.6,89.7h-0.3v-3.1l-0.9,0.1v-0.2l1.1-0.2V89.7z"/>
		<path d="M24.1,88.4c0,0.4-0.1,0.8-0.3,1s-0.5,0.4-0.8,0.4c-0.3,0-0.6-0.1-0.8-0.4c-0.2-0.2-0.3-0.6-0.3-1v-0.8
			c0-0.4,0.1-0.8,0.3-1s0.5-0.4,0.8-0.4s0.6,0.1,0.8,0.4s0.3,0.6,0.3,1V88.4z M23.9,87.6c0-0.3-0.1-0.6-0.2-0.8s-0.3-0.3-0.6-0.3
			c-0.3,0-0.5,0.1-0.6,0.3s-0.2,0.5-0.2,0.8v0.8c0,0.3,0.1,0.6,0.2,0.8c0.1,0.2,0.3,0.3,0.6,0.3s0.5-0.1,0.6-0.3
			c0.1-0.2,0.2-0.5,0.2-0.8V87.6z"/>
		<path d="M26,89.7h-0.3v-3.1l-0.9,0.1v-0.2l1.1-0.2V89.7z"/>
		<path d="M29.6,88.4c0,0.4-0.1,0.8-0.3,1s-0.5,0.4-0.8,0.4c-0.3,0-0.6-0.1-0.8-0.4c-0.2-0.2-0.3-0.6-0.3-1v-0.8
			c0-0.4,0.1-0.8,0.3-1s0.5-0.4,0.8-0.4s0.6,0.1,0.8,0.4s0.3,0.6,0.3,1V88.4z M29.3,87.6c0-0.3-0.1-0.6-0.2-0.8s-0.3-0.3-0.6-0.3
			c-0.3,0-0.5,0.1-0.6,0.3s-0.2,0.5-0.2,0.8v0.8c0,0.3,0.1,0.6,0.2,0.8c0.1,0.2,0.3,0.3,0.6,0.3s0.5-0.1,0.6-0.3
			c0.1-0.2,0.2-0.5,0.2-0.8V87.6z"/>
		<path d="M32.6,89.7h-0.3v-3.1l-0.9,0.1v-0.2l1.1-0.2V89.7z"/>
		<path d="M36.1,88.4c0,0.4-0.1,0.8-0.3,1s-0.5,0.4-0.8,0.4c-0.3,0-0.6-0.1-0.8-0.4c-0.2-0.2-0.3-0.6-0.3-1v-0.8
			c0-0.4,0.1-0.8,0.3-1s0.5-0.4,0.8-0.4s0.6,0.1,0.8,0.4s0.3,0.6,0.3,1V88.4z M35.8,87.6c0-0.3-0.1-0.6-0.2-0.8s-0.3-0.3-0.6-0.3
			c-0.3,0-0.5,0.1-0.6,0.3s-0.2,0.5-0.2,0.8v0.8c0,0.3,0.1,0.6,0.2,0.8c0.1,0.2,0.3,0.3,0.6,0.3s0.5-0.1,0.6-0.3
			c0.1-0.2,0.2-0.5,0.2-0.8V87.6z"/>
		<path d="M38,89.7h-0.3v-3.1l-0.9,0.1v-0.2l1.1-0.2V89.7z"/>
		<path d="M41.5,88.4c0,0.4-0.1,0.8-0.3,1s-0.5,0.4-0.8,0.4c-0.3,0-0.6-0.1-0.8-0.4c-0.2-0.2-0.3-0.6-0.3-1v-0.8
			c0-0.4,0.1-0.8,0.3-1s0.5-0.4,0.8-0.4s0.6,0.1,0.8,0.4s0.3,0.6,0.3,1V88.4z M41.2,87.6c0-0.3-0.1-0.6-0.2-0.8s-0.3-0.3-0.6-0.3
			c-0.3,0-0.5,0.1-0.6,0.3s-0.2,0.5-0.2,0.8v0.8c0,0.3,0.1,0.6,0.2,0.8c0.1,0.2,0.3,0.3,0.6,0.3s0.5-0.1,0.6-0.3
			c0.1-0.2,0.2-0.5,0.2-0.8V87.6z"/>
		<path d="M43.4,89.7h-0.3v-3.1l-0.9,0.1v-0.2l1.1-0.2V89.7z"/>
		<path d="M46.9,88.4c0,0.4-0.1,0.8-0.3,1s-0.5,0.4-0.8,0.4c-0.3,0-0.6-0.1-0.8-0.4c-0.2-0.2-0.3-0.6-0.3-1v-0.8
			c0-0.4,0.1-0.8,0.3-1s0.5-0.4,0.8-0.4s0.6,0.1,0.8,0.4s0.3,0.6,0.3,1V88.4z M46.7,87.6c0-0.3-0.1-0.6-0.2-0.8s-0.3-0.3-0.6-0.3
			c-0.3,0-0.5,0.1-0.6,0.3s-0.2,0.5-0.2,0.8v0.8c0,0.3,0.1,0.6,0.2,0.8c0.1,0.2,0.3,0.3,0.6,0.3s0.5-0.1,0.6-0.3
			c0.1-0.2,0.2-0.5,0.2-0.8V87.6z"/>
	</g>
	<g>
		<path opacity="0.8" fill="#ED1A46" d="M6.1,84.5v-3.4h1c0.4,0,0.8,0.1,1,0.4c0.3,0.3,0.4,0.6,0.4,1.1V83c0,0.4-0.1,0.8-0.4,1.1
			c-0.3,0.3-0.6,0.4-1,0.4H6.1z M6.4,81.3v2.9h0.7c0.3,0,0.6-0.1,0.8-0.4c0.2-0.2,0.3-0.5,0.3-0.9v-0.4c0-0.4-0.1-0.6-0.3-0.9
			c-0.2-0.2-0.5-0.4-0.8-0.4H6.4z"/>
		<path opacity="0.8" fill="#ED1A46" d="M11.1,82.8H9.5v1.4h1.9v0.2H9.2v-3.4h2.1v0.2H9.5v1.3h1.6V82.8z"/>
		<path opacity="0.8" fill="#ED1A46" d="M14.3,83.4L14.3,83.4c0,0.4-0.1,0.6-0.4,0.8s-0.5,0.3-0.9,0.3c-0.4,0-0.7-0.1-0.9-0.4
			c-0.2-0.3-0.3-0.6-0.3-1.1v-0.5c0-0.4,0.1-0.8,0.3-1.1c0.2-0.3,0.5-0.4,0.9-0.4c0.4,0,0.6,0.1,0.9,0.3c0.2,0.2,0.3,0.5,0.4,0.8
			l0,0H14c0-0.3-0.1-0.5-0.3-0.6c-0.2-0.1-0.4-0.2-0.7-0.2c-0.3,0-0.5,0.1-0.7,0.3c-0.2,0.2-0.3,0.5-0.3,0.9v0.6
			c0,0.4,0.1,0.7,0.3,0.9c0.2,0.2,0.4,0.3,0.7,0.3c0.3,0,0.5-0.1,0.7-0.2s0.3-0.4,0.3-0.7H14.3z"/>
		<path d="M20.8,84.5h-0.3v-3.1l-0.9,0.1v-0.2l1.1-0.2V84.5z"/>
		<path d="M24.3,83.2c0,0.4-0.1,0.8-0.3,1s-0.5,0.4-0.8,0.4c-0.3,0-0.6-0.1-0.8-0.4c-0.2-0.2-0.3-0.6-0.3-1v-0.8
			c0-0.4,0.1-0.8,0.3-1s0.5-0.4,0.8-0.4s0.6,0.1,0.8,0.4s0.3,0.6,0.3,1V83.2z M24,82.4c0-0.3-0.1-0.6-0.2-0.8s-0.3-0.3-0.6-0.3
			c-0.3,0-0.5,0.1-0.6,0.3s-0.2,0.5-0.2,0.8v0.8c0,0.3,0.1,0.6,0.2,0.8c0.1,0.2,0.3,0.3,0.6,0.3s0.5-0.1,0.6-0.3
			c0.1-0.2,0.2-0.5,0.2-0.8V82.4z"/>
		<path d="M25.5,82.6h0.3c0.2,0,0.4-0.1,0.6-0.2s0.2-0.3,0.2-0.5c0-0.2-0.1-0.4-0.2-0.5c-0.1-0.1-0.3-0.2-0.5-0.2
			c-0.2,0-0.4,0.1-0.5,0.2c-0.1,0.1-0.2,0.3-0.2,0.5h-0.3l0,0c0-0.3,0.1-0.5,0.3-0.7s0.4-0.3,0.7-0.3c0.3,0,0.5,0.1,0.7,0.2
			s0.3,0.4,0.3,0.7c0,0.2,0,0.3-0.1,0.4s-0.2,0.2-0.4,0.3c0.2,0.1,0.4,0.2,0.5,0.3s0.2,0.3,0.2,0.5c0,0.3-0.1,0.5-0.3,0.7
			s-0.4,0.3-0.7,0.3c-0.3,0-0.5-0.1-0.8-0.3s-0.3-0.4-0.3-0.7l0,0h0.3c0,0.2,0.1,0.4,0.2,0.5s0.3,0.2,0.6,0.2c0.2,0,0.4-0.1,0.6-0.2
			s0.2-0.3,0.2-0.5c0-0.2-0.1-0.4-0.2-0.5c-0.1-0.1-0.3-0.2-0.6-0.2h-0.3V82.6z"/>
	</g>
	<g>
		<path fill="#EF4323" d="M8.6,98.3c0,0.4-0.1,0.8-0.4,1.1c-0.2,0.3-0.6,0.4-1,0.4c-0.4,0-0.7-0.1-0.9-0.4C6.1,99.1,6,98.7,6,98.3
			v-0.5c0-0.4,0.1-0.8,0.4-1.1c0.2-0.3,0.6-0.4,0.9-0.4c0.4,0,0.7,0.1,1,0.4c0.2,0.3,0.4,0.6,0.4,1.1V98.3z M8.3,97.8
			c0-0.4-0.1-0.7-0.3-0.9c-0.2-0.2-0.4-0.3-0.8-0.3c-0.3,0-0.6,0.1-0.8,0.3c-0.2,0.2-0.3,0.5-0.3,0.9v0.6c0,0.4,0.1,0.7,0.3,0.9
			s0.4,0.3,0.8,0.3c0.3,0,0.6-0.1,0.8-0.3c0.2-0.2,0.3-0.5,0.3-0.9V97.8z"/>
		<path fill="#EF4323" d="M11.6,98.7L11.6,98.7c0,0.4-0.1,0.6-0.4,0.8s-0.5,0.3-0.9,0.3c-0.4,0-0.7-0.1-0.9-0.4
			c-0.2-0.3-0.3-0.6-0.3-1.1v-0.5c0-0.4,0.1-0.8,0.3-1.1c0.2-0.3,0.5-0.4,0.9-0.4c0.4,0,0.6,0.1,0.9,0.3c0.2,0.2,0.3,0.5,0.4,0.8
			l0,0h-0.3c0-0.3-0.1-0.5-0.3-0.6c-0.2-0.1-0.4-0.2-0.7-0.2c-0.3,0-0.5,0.1-0.7,0.3c-0.2,0.2-0.3,0.5-0.3,0.9v0.6
			c0,0.4,0.1,0.7,0.3,0.9c0.2,0.2,0.4,0.3,0.7,0.3c0.3,0,0.5-0.1,0.7-0.2s0.3-0.4,0.3-0.7H11.6z"/>
		<path fill="#EF4323" d="M14.6,96.6h-1.2v3.1h-0.3v-3.1H12v-0.2h2.6V96.6z"/>
		<path d="M21.3,98.6h0.5v0.2h-0.5v0.9H21v-0.9h-1.6v-0.2l1.6-2.4h0.3V98.6z M19.8,98.6H21v-1.9l0,0L20.9,97L19.8,98.6z"/>
		<path d="M24.4,98.4c0,0.4-0.1,0.8-0.3,1s-0.5,0.4-0.8,0.4c-0.3,0-0.6-0.1-0.8-0.4c-0.2-0.2-0.3-0.6-0.3-1v-0.8
			c0-0.4,0.1-0.8,0.3-1s0.5-0.4,0.8-0.4s0.6,0.1,0.8,0.4s0.3,0.6,0.3,1V98.4z M24.1,97.6c0-0.3-0.1-0.6-0.2-0.8s-0.3-0.3-0.6-0.3
			c-0.3,0-0.5,0.1-0.6,0.3s-0.2,0.5-0.2,0.8v0.8c0,0.3,0.1,0.6,0.2,0.8c0.1,0.2,0.3,0.3,0.6,0.3s0.5-0.1,0.6-0.3
			c0.1-0.2,0.2-0.5,0.2-0.8V97.6z"/>
		<path d="M25.6,97.9H26c0.2,0,0.4-0.1,0.6-0.2s0.2-0.3,0.2-0.5c0-0.2-0.1-0.4-0.2-0.5c-0.1-0.1-0.3-0.2-0.5-0.2
			c-0.2,0-0.4,0.1-0.5,0.2c-0.1,0.1-0.2,0.3-0.2,0.5H25l0,0c0-0.3,0.1-0.5,0.3-0.7s0.4-0.3,0.7-0.3c0.3,0,0.5,0.1,0.7,0.2
			s0.3,0.4,0.3,0.7c0,0.2,0,0.3-0.1,0.4s-0.2,0.2-0.4,0.3c0.2,0.1,0.4,0.2,0.5,0.3s0.2,0.3,0.2,0.5c0,0.3-0.1,0.5-0.3,0.7
			s-0.4,0.3-0.7,0.3c-0.3,0-0.5-0.1-0.8-0.3s-0.3-0.4-0.3-0.7l0,0h0.3c0,0.2,0.1,0.4,0.2,0.5s0.3,0.2,0.6,0.2c0.2,0,0.4-0.1,0.6-0.2
			s0.2-0.3,0.2-0.5c0-0.2-0.1-0.4-0.2-0.5c-0.1-0.1-0.3-0.2-0.6-0.2h-0.3V97.9z"/>
	</g>
	<g>
		<path fill="#EF4323" d="M8.6,94.7H8.3v-1.6H6.4v1.6H6.1v-3.4h0.3v1.6h1.9v-1.6h0.3V94.7z"/>
		<path fill="#EF4323" d="M11.4,93.1H9.7v1.4h1.9v0.2H9.5v-3.4h2.1v0.2H9.7v1.3h1.6V93.1z"/>
		<path fill="#EF4323" d="M13.2,92.8l1-1.4h0.3L13.4,93l1.2,1.7h-0.3l-1-1.5l-1,1.5h-0.3l1.2-1.7l-1.1-1.7h0.3L13.2,92.8z"/>
		<path d="M21.3,93.6h0.5v0.2h-0.5v0.9h-0.3v-0.9h-1.6v-0.2l1.6-2.4h0.3V93.6z M19.8,93.6h1.3v-1.9l0,0l-0.1,0.3L19.8,93.6z"/>
		<path d="M24.3,93.1h-1.6v1.6h-0.3v-3.4h2.2v0.2h-1.9v1.3h1.6V93.1z"/>
		<path d="M26.8,93.8h-1.5l-0.3,0.9h-0.3l1.3-3.4h0.3l1.3,3.4h-0.3L26.8,93.8z M25.4,93.5h1.4L26,91.7h0L25.4,93.5z"/>
	</g>
</g>
<g id="history">
	<rect x="255.2" y="14.9" fill="#2B2B2B" width="112.4" height="159.3"/>
	<rect x="255.2" y="15" fill="#C1C1C0" width="112.4" height="27.1"/>
	<g>
		<g>
			<path d="M267,34.8h-5l-1.1,3H260l4.1-10.8h0.8l4.1,10.8h-0.9L267,34.8z M262.4,34h4.4l-2.2-5.9h0L262.4,34z"/>
			<path d="M271.3,29.8l0.1,1.4c0.3-0.5,0.6-0.9,1-1.1c0.4-0.3,1-0.4,1.6-0.4c0.9,0,1.5,0.3,2,0.8c0.5,0.5,0.7,1.4,0.7,2.5v4.9h-0.9
				v-4.9c0-0.9-0.2-1.6-0.5-2s-0.8-0.6-1.5-0.6c-0.6,0-1.1,0.2-1.5,0.5c-0.4,0.3-0.7,0.8-0.9,1.3v5.6h-0.9v-8H271.3z"/>
			<path d="M283.8,35.8c0-0.4-0.2-0.7-0.5-1s-0.9-0.5-1.7-0.7c-1-0.2-1.7-0.5-2.1-0.8c-0.5-0.3-0.7-0.8-0.7-1.4
				c0-0.6,0.3-1.1,0.8-1.6c0.5-0.4,1.2-0.6,2.1-0.6c0.9,0,1.6,0.2,2.2,0.7c0.5,0.4,0.8,1,0.8,1.7l0,0h-0.8c0-0.4-0.2-0.8-0.6-1.2
				c-0.4-0.3-0.9-0.5-1.5-0.5c-0.6,0-1.1,0.1-1.5,0.4c-0.3,0.3-0.5,0.6-0.5,1c0,0.4,0.1,0.7,0.4,0.9c0.3,0.2,0.8,0.5,1.7,0.6
				c1,0.2,1.7,0.5,2.1,0.9s0.7,0.9,0.7,1.5c0,0.7-0.3,1.2-0.8,1.6c-0.5,0.4-1.3,0.6-2.2,0.6c-1,0-1.7-0.2-2.3-0.7
				c-0.6-0.5-0.8-1-0.8-1.7l0,0h0.8c0,0.6,0.3,1,0.7,1.3c0.4,0.3,1,0.4,1.5,0.4c0.6,0,1.2-0.1,1.5-0.4
				C283.6,36.5,283.8,36.2,283.8,35.8z"/>
		</g>
	</g>
	<g>
		<path fill="#FFFFFF" d="M261,20.1h0.4c0.3,0,0.6-0.1,0.7-0.2c0.2-0.2,0.2-0.4,0.2-0.6c0-0.3-0.1-0.5-0.2-0.6
			c-0.2-0.2-0.4-0.2-0.7-0.2c-0.3,0-0.5,0.1-0.7,0.2c-0.2,0.2-0.3,0.4-0.3,0.6h-0.3l0,0c0-0.3,0.1-0.6,0.4-0.8s0.6-0.3,0.9-0.3
			c0.4,0,0.7,0.1,0.9,0.3c0.2,0.2,0.3,0.5,0.3,0.9c0,0.2-0.1,0.4-0.2,0.6c-0.1,0.2-0.3,0.3-0.5,0.4c0.3,0.1,0.5,0.2,0.6,0.4
			c0.1,0.2,0.2,0.4,0.2,0.7c0,0.4-0.1,0.7-0.4,0.9c-0.2,0.2-0.6,0.3-1,0.3c-0.4,0-0.7-0.1-1-0.3c-0.3-0.2-0.4-0.5-0.4-0.9l0,0h0.3
			c0,0.3,0.1,0.5,0.3,0.7c0.2,0.2,0.4,0.3,0.7,0.3c0.3,0,0.5-0.1,0.7-0.2s0.3-0.4,0.3-0.7c0-0.3-0.1-0.5-0.3-0.7
			c-0.2-0.1-0.4-0.2-0.8-0.2H261V20.1z"/>
		<path fill="#FFFFFF" d="M264.2,19.5l-1-0.3l0.1-0.3l1,0.4l0-1.1h0.3l0,1.1l1-0.4l0.1,0.3l-1,0.3l0.7,0.9l-0.3,0.2l-0.6-0.9
			l-0.6,0.9l-0.3-0.2L264.2,19.5z"/>
		<path fill="#FFFFFF" d="M266.2,20.8c0-0.7,0.1-1.4,0.4-1.9c0.3-0.6,0.6-1,0.9-1.2l0,0l0.1,0.2c-0.3,0.2-0.5,0.6-0.8,1.1
			c-0.2,0.5-0.3,1.1-0.3,1.8v0.1c0,0.7,0.1,1.2,0.3,1.8c0.2,0.5,0.5,0.9,0.8,1.1l-0.1,0.2h0c-0.3-0.2-0.7-0.6-0.9-1.1
			C266.3,22.2,266.2,21.5,266.2,20.8L266.2,20.8z"/>
		<path fill="#FFFFFF" d="M268.9,20.1h0.4c0.3,0,0.6-0.1,0.7-0.2c0.2-0.2,0.2-0.4,0.2-0.6c0-0.3-0.1-0.5-0.2-0.6
			c-0.2-0.2-0.4-0.2-0.7-0.2c-0.3,0-0.5,0.1-0.7,0.2c-0.2,0.2-0.3,0.4-0.3,0.6H268l0,0c0-0.3,0.1-0.6,0.4-0.8s0.6-0.3,0.9-0.3
			c0.4,0,0.7,0.1,0.9,0.3c0.2,0.2,0.3,0.5,0.3,0.9c0,0.2-0.1,0.4-0.2,0.6c-0.1,0.2-0.3,0.3-0.5,0.4c0.3,0.1,0.5,0.2,0.6,0.4
			c0.1,0.2,0.2,0.4,0.2,0.7c0,0.4-0.1,0.7-0.4,0.9c-0.2,0.2-0.6,0.3-1,0.3c-0.4,0-0.7-0.1-1-0.3c-0.3-0.2-0.4-0.5-0.4-0.9l0,0h0.3
			c0,0.3,0.1,0.5,0.3,0.7c0.2,0.2,0.4,0.3,0.7,0.3c0.3,0,0.5-0.1,0.7-0.2s0.3-0.4,0.3-0.7c0-0.3-0.1-0.5-0.3-0.7
			c-0.2-0.1-0.4-0.2-0.8-0.2h-0.4V20.1z"/>
		<path fill="#FFFFFF" d="M273.6,21.1h0.7v0.3h-0.7v1.1h-0.4v-1.1h-2v-0.2l2-3h0.4V21.1z M271.7,21.1h1.6v-2.5l0,0l-0.2,0.3
			L271.7,21.1z"/>
		<path fill="#FFFFFF" d="M275.6,20.1h0.4c0.3,0,0.6-0.1,0.7-0.2s0.2-0.4,0.2-0.6c0-0.3-0.1-0.5-0.2-0.6c-0.2-0.2-0.4-0.2-0.7-0.2
			c-0.3,0-0.5,0.1-0.7,0.2c-0.2,0.2-0.3,0.4-0.3,0.6h-0.3l0,0c0-0.3,0.1-0.6,0.4-0.8c0.2-0.2,0.6-0.3,0.9-0.3c0.4,0,0.7,0.1,0.9,0.3
			c0.2,0.2,0.3,0.5,0.3,0.9c0,0.2-0.1,0.4-0.2,0.6c-0.1,0.2-0.3,0.3-0.5,0.4c0.3,0.1,0.5,0.2,0.6,0.4c0.1,0.2,0.2,0.4,0.2,0.7
			c0,0.4-0.1,0.7-0.4,0.9c-0.3,0.2-0.6,0.3-1,0.3c-0.4,0-0.7-0.1-1-0.3c-0.3-0.2-0.4-0.5-0.4-0.9l0,0h0.3c0,0.3,0.1,0.5,0.3,0.7
			c0.2,0.2,0.4,0.3,0.7,0.3c0.3,0,0.5-0.1,0.7-0.2s0.3-0.4,0.3-0.7c0-0.3-0.1-0.5-0.3-0.7c-0.2-0.1-0.4-0.2-0.8-0.2h-0.4V20.1z"/>
		<path fill="#FFFFFF" d="M279.3,20.8c0,0.7-0.1,1.4-0.4,1.9c-0.3,0.6-0.6,0.9-0.9,1.1h0l-0.1-0.2c0.3-0.2,0.5-0.6,0.8-1.1
			c0.2-0.5,0.3-1.1,0.3-1.8v-0.1c0-0.7-0.1-1.2-0.3-1.8s-0.5-0.9-0.7-1.1l0.1-0.2h0c0.3,0.2,0.6,0.6,0.9,1.2
			C279.2,19.4,279.3,20,279.3,20.8L279.3,20.8z"/>
		<path fill="#FFFFFF" d="M281.6,20.3h1.3v0.3h-1.3v1.4h-0.4v-1.4H280v-0.3h1.3v-1.4h0.4V20.3z"/>
		<path fill="#FFFFFF" d="M285.8,21.1h0.7v0.3h-0.7v1.1h-0.4v-1.1h-2v-0.2l2-3h0.4V21.1z M283.8,21.1h1.6v-2.5l0,0l-0.2,0.3
			L283.8,21.1z"/>
		<path fill="#FFFFFF" d="M289.2,21.1h0.7v0.3h-0.7v1.1h-0.4v-1.1h-2v-0.2l2-3h0.4V21.1z M287.2,21.1h1.6v-2.5l0,0l-0.2,0.3
			L287.2,21.1z"/>
	</g>
	<g>
		<g>
			<path fill="#FFFFFF" d="M328.6,29.5l0.7-6.9h6.2v1h-5.3l-0.5,4.5c0.3-0.3,0.7-0.5,1.1-0.7c0.4-0.2,0.9-0.2,1.6-0.3
				c1.1,0,2,0.3,2.6,1.1c0.7,0.7,1,1.7,1,3c0,1.3-0.3,2.3-1,3.1c-0.6,0.8-1.6,1.1-2.9,1.1c-1,0-1.9-0.3-2.6-0.9s-1-1.4-1-2.6l0-0.1
				h0.9c0,0.9,0.2,1.5,0.7,2c0.5,0.5,1.1,0.7,1.9,0.7c0.9,0,1.6-0.3,2.1-0.9c0.5-0.6,0.7-1.4,0.7-2.5c0-0.9-0.2-1.7-0.7-2.3
				c-0.5-0.6-1.1-0.9-2-0.9c-0.8,0-1.4,0.1-1.9,0.4s-0.7,0.6-0.9,1.2L328.6,29.5z"/>
			<path fill="#FFFFFF" d="M344.4,31.2h2V32h-2v3.2h-1V32h-5.9v-0.6l5.8-8.9h1.1V31.2z M338.6,31.2h4.7v-7.2l-0.1,0l-0.4,0.9
				L338.6,31.2z"/>
			<path fill="#FFFFFF" d="M349,35.1l-0.9,2.4h-0.7l0.6-2.4v-1.5h1V35.1z"/>
			<path fill="#FFFFFF" d="M357.7,31.2h2V32h-2v3.2h-1V32h-5.9v-0.6l5.8-8.9h1.1V31.2z M351.9,31.2h4.7v-7.2l-0.1,0l-0.4,0.9
				L351.9,31.2z"/>
		</g>
	</g>
	<rect x="255.2" y="42.1" fill="#2B2B2B" width="108.5" height="27.2"/>
	<g>
		<path fill="#ED1A46" d="M261.2,65V54.1h3.1c1.3,0,2.4,0.4,3.3,1.3s1.3,2,1.3,3.4v1.4c0,1.4-0.4,2.5-1.3,3.4s-2,1.3-3.3,1.3H261.2z
			 M262.1,54.9v9.3h2.3c1.1,0,2-0.4,2.6-1.1c0.7-0.7,1-1.7,1-2.8v-1.4c0-1.1-0.3-2.1-1-2.8c-0.7-0.7-1.6-1.1-2.6-1.1H262.1z"/>
		<path fill="#ED1A46" d="M277.3,59.9h-5.3V65h-0.9V54.1h6.9v0.8h-6v4.2h5.3V59.9z"/>
	</g>
	<g>
		<path fill="#FFFFFF" d="M261,47.3h0.4c0.3,0,0.6-0.1,0.7-0.2c0.2-0.2,0.2-0.4,0.2-0.6c0-0.3-0.1-0.5-0.2-0.6
			c-0.2-0.2-0.4-0.2-0.7-0.2c-0.3,0-0.5,0.1-0.7,0.2c-0.2,0.2-0.3,0.4-0.3,0.6h-0.3l0,0c0-0.3,0.1-0.6,0.4-0.8s0.6-0.3,0.9-0.3
			c0.4,0,0.7,0.1,0.9,0.3c0.2,0.2,0.3,0.5,0.3,0.9c0,0.2-0.1,0.4-0.2,0.6c-0.1,0.2-0.3,0.3-0.5,0.4c0.3,0.1,0.5,0.2,0.6,0.4
			c0.1,0.2,0.2,0.4,0.2,0.7c0,0.4-0.1,0.7-0.4,0.9c-0.2,0.2-0.6,0.3-1,0.3c-0.4,0-0.7-0.1-1-0.3c-0.3-0.2-0.4-0.5-0.4-0.9l0,0h0.3
			c0,0.3,0.1,0.5,0.3,0.7c0.2,0.2,0.4,0.3,0.7,0.3c0.3,0,0.5-0.1,0.7-0.2s0.3-0.4,0.3-0.7c0-0.3-0.1-0.5-0.3-0.7
			c-0.2-0.1-0.4-0.2-0.8-0.2H261V47.3z"/>
		<path fill="#FFFFFF" d="M264.2,46.7l-1-0.3l0.1-0.3l1,0.4l0-1.1h0.3l0,1.1l1-0.4l0.1,0.3l-1,0.3l0.7,0.9l-0.3,0.2l-0.6-0.9
			l-0.6,0.9l-0.3-0.2L264.2,46.7z"/>
		<path fill="#FFFFFF" d="M266.2,47.9c0-0.7,0.1-1.4,0.4-1.9c0.3-0.6,0.6-1,0.9-1.2l0,0l0.1,0.2c-0.3,0.2-0.5,0.6-0.8,1.1
			c-0.2,0.5-0.3,1.1-0.3,1.8V48c0,0.7,0.1,1.2,0.3,1.8c0.2,0.5,0.5,0.9,0.8,1.1l-0.1,0.2h0c-0.3-0.2-0.7-0.6-0.9-1.1
			C266.3,49.4,266.2,48.7,266.2,47.9L266.2,47.9z"/>
		<path fill="#FFFFFF" d="M268.9,47.3h0.4c0.3,0,0.6-0.1,0.7-0.2c0.2-0.2,0.2-0.4,0.2-0.6c0-0.3-0.1-0.5-0.2-0.6
			c-0.2-0.2-0.4-0.2-0.7-0.2c-0.3,0-0.5,0.1-0.7,0.2c-0.2,0.2-0.3,0.4-0.3,0.6H268l0,0c0-0.3,0.1-0.6,0.4-0.8s0.6-0.3,0.9-0.3
			c0.4,0,0.7,0.1,0.9,0.3c0.2,0.2,0.3,0.5,0.3,0.9c0,0.2-0.1,0.4-0.2,0.6c-0.1,0.2-0.3,0.3-0.5,0.4c0.3,0.1,0.5,0.2,0.6,0.4
			c0.1,0.2,0.2,0.4,0.2,0.7c0,0.4-0.1,0.7-0.4,0.9c-0.2,0.2-0.6,0.3-1,0.3c-0.4,0-0.7-0.1-1-0.3c-0.3-0.2-0.4-0.5-0.4-0.9l0,0h0.3
			c0,0.3,0.1,0.5,0.3,0.7c0.2,0.2,0.4,0.3,0.7,0.3c0.3,0,0.5-0.1,0.7-0.2s0.3-0.4,0.3-0.7c0-0.3-0.1-0.5-0.3-0.7
			c-0.2-0.1-0.4-0.2-0.8-0.2h-0.4V47.3z"/>
		<path fill="#FFFFFF" d="M273.6,48.3h0.7v0.3h-0.7v1.1h-0.4v-1.1h-2v-0.2l2-3h0.4V48.3z M271.7,48.3h1.6v-2.5l0,0l-0.2,0.3
			L271.7,48.3z"/>
		<path fill="#FFFFFF" d="M275.6,47.3h0.4c0.3,0,0.6-0.1,0.7-0.2s0.2-0.4,0.2-0.6c0-0.3-0.1-0.5-0.2-0.6c-0.2-0.2-0.4-0.2-0.7-0.2
			c-0.3,0-0.5,0.1-0.7,0.2c-0.2,0.2-0.3,0.4-0.3,0.6h-0.3l0,0c0-0.3,0.1-0.6,0.4-0.8c0.2-0.2,0.6-0.3,0.9-0.3c0.4,0,0.7,0.1,0.9,0.3
			c0.2,0.2,0.3,0.5,0.3,0.9c0,0.2-0.1,0.4-0.2,0.6c-0.1,0.2-0.3,0.3-0.5,0.4c0.3,0.1,0.5,0.2,0.6,0.4c0.1,0.2,0.2,0.4,0.2,0.7
			c0,0.4-0.1,0.7-0.4,0.9c-0.3,0.2-0.6,0.3-1,0.3c-0.4,0-0.7-0.1-1-0.3c-0.3-0.2-0.4-0.5-0.4-0.9l0,0h0.3c0,0.3,0.1,0.5,0.3,0.7
			c0.2,0.2,0.4,0.3,0.7,0.3c0.3,0,0.5-0.1,0.7-0.2s0.3-0.4,0.3-0.7c0-0.3-0.1-0.5-0.3-0.7c-0.2-0.1-0.4-0.2-0.8-0.2h-0.4V47.3z"/>
		<path fill="#FFFFFF" d="M279.3,48c0,0.7-0.1,1.4-0.4,1.9c-0.3,0.6-0.6,0.9-0.9,1.1h0l-0.1-0.2c0.3-0.2,0.5-0.6,0.8-1.1
			c0.2-0.5,0.3-1.1,0.3-1.8v-0.1c0-0.7-0.1-1.2-0.3-1.8s-0.5-0.9-0.7-1.1l0.1-0.2h0c0.3,0.2,0.6,0.6,0.9,1.2
			C279.2,46.5,279.3,47.2,279.3,48L279.3,48z"/>
		<path fill="#FFFFFF" d="M281.6,47.5h1.3v0.3h-1.3v1.4h-0.4v-1.4H280v-0.3h1.3v-1.4h0.4V47.5z"/>
		<path fill="#FFFFFF" d="M285.8,48.3h0.7v0.3h-0.7v1.1h-0.4v-1.1h-2v-0.2l2-3h0.4V48.3z M283.8,48.3h1.6v-2.5l0,0l-0.2,0.3
			L283.8,48.3z"/>
		<path fill="#FFFFFF" d="M289.2,48.3h0.7v0.3h-0.7v1.1h-0.4v-1.1h-2v-0.2l2-3h0.4V48.3z M287.2,48.3h1.6v-2.5l0,0l-0.2,0.3
			L287.2,48.3z"/>
	</g>
	<g>
		<g>
			<path fill="#FFFFFF" d="M328.6,56.7l0.7-6.9h6.2v1h-5.3l-0.5,4.5c0.3-0.3,0.7-0.5,1.1-0.7c0.4-0.2,0.9-0.2,1.6-0.3
				c1.1,0,2,0.3,2.6,1.1c0.7,0.7,1,1.7,1,3c0,1.3-0.3,2.3-1,3.1c-0.6,0.8-1.6,1.1-2.9,1.1c-1,0-1.9-0.3-2.6-0.9s-1-1.4-1-2.6l0-0.1
				h0.9c0,0.9,0.2,1.5,0.7,2c0.5,0.5,1.1,0.7,1.9,0.7c0.9,0,1.6-0.3,2.1-0.9c0.5-0.6,0.7-1.4,0.7-2.5c0-0.9-0.2-1.7-0.7-2.3
				c-0.5-0.6-1.1-0.9-2-0.9c-0.8,0-1.4,0.1-1.9,0.4s-0.7,0.6-0.9,1.2L328.6,56.7z"/>
			<path fill="#FFFFFF" d="M344.4,58.3h2v0.9h-2v3.2h-1v-3.2h-5.9v-0.6l5.8-8.9h1.1V58.3z M338.6,58.3h4.7v-7.2l-0.1,0l-0.4,0.9
				L338.6,58.3z"/>
			<path fill="#FFFFFF" d="M349,62.2l-0.9,2.4h-0.7l0.6-2.4v-1.5h1V62.2z"/>
			<path fill="#FFFFFF" d="M357.7,58.3h2v0.9h-2v3.2h-1v-3.2h-5.9v-0.6l5.8-8.9h1.1V58.3z M351.9,58.3h4.7v-7.2l-0.1,0l-0.4,0.9
				L351.9,58.3z"/>
		</g>
	</g>
	<rect x="255.1" y="68.6" fill="#2B2B2B" width="108.5" height="27.2"/>
	<g>
		<path fill="#ED1A46" d="M264.4,85.3l3.1-4.6h1.1L265,86l3.7,5.5h-1.1l-3.2-4.8l-3.2,4.8h-1.1l3.7-5.5l-3.6-5.3h1.1L264.4,85.3z"/>
		<path fill="#ED1A46" d="M273.7,86.7l3.4-6h1l-3.9,6.9v4h-0.9v-4l-3.9-6.8h1L273.7,86.7z"/>
	</g>
	<g>
		<path fill="#FFFFFF" d="M261,73.8h0.4c0.3,0,0.6-0.1,0.7-0.2c0.2-0.2,0.2-0.4,0.2-0.6c0-0.3-0.1-0.5-0.2-0.6
			c-0.2-0.2-0.4-0.2-0.7-0.2c-0.3,0-0.5,0.1-0.7,0.2c-0.2,0.2-0.3,0.4-0.3,0.6h-0.3l0,0c0-0.3,0.1-0.6,0.4-0.8s0.6-0.3,0.9-0.3
			c0.4,0,0.7,0.1,0.9,0.3c0.2,0.2,0.3,0.5,0.3,0.9c0,0.2-0.1,0.4-0.2,0.6c-0.1,0.2-0.3,0.3-0.5,0.4c0.3,0.1,0.5,0.2,0.6,0.4
			c0.1,0.2,0.2,0.4,0.2,0.7c0,0.4-0.1,0.7-0.4,0.9c-0.2,0.2-0.6,0.3-1,0.3c-0.4,0-0.7-0.1-1-0.3c-0.3-0.2-0.4-0.5-0.4-0.9l0,0h0.3
			c0,0.3,0.1,0.5,0.3,0.7c0.2,0.2,0.4,0.3,0.7,0.3c0.3,0,0.5-0.1,0.7-0.2s0.3-0.4,0.3-0.7c0-0.3-0.1-0.5-0.3-0.7
			c-0.2-0.1-0.4-0.2-0.8-0.2H261V73.8z"/>
		<path fill="#FFFFFF" d="M264.2,73.2l-1-0.3l0.1-0.3l1,0.4l0-1.1h0.3l0,1.1l1-0.4l0.1,0.3l-1,0.3l0.7,0.9l-0.3,0.2l-0.6-0.9
			l-0.6,0.9l-0.3-0.2L264.2,73.2z"/>
		<path fill="#FFFFFF" d="M266.2,74.4c0-0.7,0.1-1.4,0.4-1.9c0.3-0.6,0.6-1,0.9-1.2l0,0l0.1,0.2c-0.3,0.2-0.5,0.6-0.8,1.1
			c-0.2,0.5-0.3,1.1-0.3,1.8v0.1c0,0.7,0.1,1.2,0.3,1.8c0.2,0.5,0.5,0.9,0.8,1.1l-0.1,0.2h0c-0.3-0.2-0.7-0.6-0.9-1.1
			C266.3,75.9,266.2,75.2,266.2,74.4L266.2,74.4z"/>
		<path fill="#FFFFFF" d="M268.8,73.8h0.4c0.3,0,0.6-0.1,0.7-0.2c0.2-0.2,0.2-0.4,0.2-0.6c0-0.3-0.1-0.5-0.2-0.6
			c-0.2-0.2-0.4-0.2-0.7-0.2c-0.3,0-0.5,0.1-0.7,0.2c-0.2,0.2-0.3,0.4-0.3,0.6H268l0,0c0-0.3,0.1-0.6,0.4-0.8s0.6-0.3,0.9-0.3
			c0.4,0,0.7,0.1,0.9,0.3c0.2,0.2,0.3,0.5,0.3,0.9c0,0.2-0.1,0.4-0.2,0.6c-0.1,0.2-0.3,0.3-0.5,0.4c0.3,0.1,0.5,0.2,0.6,0.4
			c0.1,0.2,0.2,0.4,0.2,0.7c0,0.4-0.1,0.7-0.4,0.9c-0.2,0.2-0.6,0.3-1,0.3c-0.4,0-0.7-0.1-1-0.3c-0.3-0.2-0.4-0.5-0.4-0.9l0,0h0.3
			c0,0.3,0.1,0.5,0.3,0.7c0.2,0.2,0.4,0.3,0.7,0.3c0.3,0,0.5-0.1,0.7-0.2s0.3-0.4,0.3-0.7c0-0.3-0.1-0.5-0.3-0.7
			c-0.2-0.1-0.4-0.2-0.8-0.2h-0.4V73.8z"/>
		<path fill="#FFFFFF" d="M273.6,74.8h0.7v0.3h-0.7v1.1h-0.4v-1.1h-2v-0.2l2-3h0.4V74.8z M271.7,74.8h1.6v-2.5l0,0l-0.2,0.3
			L271.7,74.8z"/>
		<path fill="#FFFFFF" d="M275.6,73.8h0.4c0.3,0,0.6-0.1,0.7-0.2s0.2-0.4,0.2-0.6c0-0.3-0.1-0.5-0.2-0.6c-0.2-0.2-0.4-0.2-0.7-0.2
			c-0.3,0-0.5,0.1-0.7,0.2c-0.2,0.2-0.3,0.4-0.3,0.6h-0.3l0,0c0-0.3,0.1-0.6,0.4-0.8c0.2-0.2,0.6-0.3,0.9-0.3c0.4,0,0.7,0.1,0.9,0.3
			c0.2,0.2,0.3,0.5,0.3,0.9c0,0.2-0.1,0.4-0.2,0.6c-0.1,0.2-0.3,0.3-0.5,0.4c0.3,0.1,0.5,0.2,0.6,0.4c0.1,0.2,0.2,0.4,0.2,0.7
			c0,0.4-0.1,0.7-0.4,0.9c-0.3,0.2-0.6,0.3-1,0.3c-0.4,0-0.7-0.1-1-0.3c-0.3-0.2-0.4-0.5-0.4-0.9l0,0h0.3c0,0.3,0.1,0.5,0.3,0.7
			c0.2,0.2,0.4,0.3,0.7,0.3c0.3,0,0.5-0.1,0.7-0.2s0.3-0.4,0.3-0.7c0-0.3-0.1-0.5-0.3-0.7c-0.2-0.1-0.4-0.2-0.8-0.2h-0.4V73.8z"/>
		<path fill="#FFFFFF" d="M279.3,74.5c0,0.7-0.1,1.4-0.4,1.9c-0.3,0.6-0.6,0.9-0.9,1.1h0l-0.1-0.2c0.3-0.2,0.5-0.6,0.8-1.1
			c0.2-0.5,0.3-1.1,0.3-1.8v-0.1c0-0.7-0.1-1.2-0.3-1.8s-0.5-0.9-0.7-1.1l0.1-0.2h0c0.3,0.2,0.6,0.6,0.9,1.2
			C279.1,73,279.3,73.7,279.3,74.5L279.3,74.5z"/>
		<path fill="#FFFFFF" d="M281.6,74h1.3v0.3h-1.3v1.4h-0.4v-1.4H280V74h1.3v-1.4h0.4V74z"/>
		<path fill="#FFFFFF" d="M285.8,74.8h0.7v0.3h-0.7v1.1h-0.4v-1.1h-2v-0.2l2-3h0.4V74.8z M283.8,74.8h1.6v-2.5l0,0l-0.2,0.3
			L283.8,74.8z"/>
		<path fill="#FFFFFF" d="M289.2,74.8h0.7v0.3h-0.7v1.1h-0.4v-1.1h-2v-0.2l2-3h0.4V74.8z M287.2,74.8h1.6v-2.5l0,0l-0.2,0.3
			L287.2,74.8z"/>
	</g>
	<g>
		<g>
			<path fill="#FFFFFF" d="M308.5,83.2l0.7-6.9h6.2v1h-5.3l-0.5,4.5c0.3-0.3,0.7-0.5,1.1-0.7c0.4-0.2,0.9-0.2,1.6-0.3
				c1.1,0,2,0.3,2.6,1.1c0.7,0.7,1,1.7,1,3c0,1.3-0.3,2.3-1,3.1c-0.6,0.8-1.6,1.1-2.9,1.1c-1,0-1.9-0.3-2.6-0.9s-1-1.4-1-2.6l0-0.1
				h0.9c0,0.9,0.2,1.5,0.7,2c0.5,0.5,1.1,0.7,1.9,0.7c0.9,0,1.6-0.3,2.1-0.9c0.5-0.6,0.7-1.4,0.7-2.5c0-0.9-0.2-1.7-0.7-2.3
				c-0.5-0.6-1.1-0.9-2-0.9c-0.8,0-1.4,0.1-1.9,0.4s-0.7,0.6-0.9,1.2L308.5,83.2z"/>
			<path fill="#FFFFFF" d="M324.4,84.8h2v0.9h-2v3.2h-1v-3.2h-5.9v-0.6l5.8-8.9h1.1V84.8z M318.6,84.8h4.7v-7.2l-0.1,0l-0.4,0.9
				L318.6,84.8z"/>
			<path fill="#FFFFFF" d="M328.3,83.2l0.7-6.9h6.2v1h-5.3l-0.5,4.5c0.3-0.3,0.7-0.5,1.1-0.7c0.4-0.2,0.9-0.2,1.6-0.3
				c1.1,0,2,0.3,2.6,1.1c0.7,0.7,1,1.7,1,3c0,1.3-0.3,2.3-1,3.1c-0.6,0.8-1.6,1.1-2.9,1.1c-1,0-1.9-0.3-2.6-0.9s-1-1.4-1-2.6l0-0.1
				h0.9c0,0.9,0.2,1.5,0.7,2c0.5,0.5,1.1,0.7,1.9,0.7c0.9,0,1.6-0.3,2.1-0.9c0.5-0.6,0.7-1.4,0.7-2.5c0-0.9-0.2-1.7-0.7-2.3
				c-0.5-0.6-1.1-0.9-2-0.9c-0.8,0-1.4,0.1-1.9,0.4s-0.7,0.6-0.9,1.2L328.3,83.2z"/>
			<path fill="#FFFFFF" d="M344.1,84.8h2v0.9h-2v3.2h-1v-3.2h-5.9v-0.6l5.8-8.9h1.1V84.8z M338.4,84.8h4.7v-7.2l-0.1,0l-0.4,0.9
				L338.4,84.8z"/>
			<path fill="#FFFFFF" d="M348.8,88.7l-0.9,2.4h-0.7l0.6-2.4v-1.5h1V88.7z"/>
			<path fill="#FFFFFF" d="M357.4,84.8h2v0.9h-2v3.2h-1v-3.2h-5.9v-0.6l5.8-8.9h1.1V84.8z M351.7,84.8h4.7v-7.2l-0.1,0l-0.4,0.9
				L351.7,84.8z"/>
		</g>
	</g>
	<rect x="363.6" y="42.1" fill="#3D3D3D" width="4" height="27.2"/>
	<circle fill="#2D2D2D" cx="365.6" cy="53.3" r="0.5"/>
	<circle fill="#2D2D2D" cx="365.6" cy="55.7" r="0.5"/>
	<circle fill="#2D2D2D" cx="365.6" cy="58.1" r="0.5"/>
	<rect x="255.1" y="96.5" fill="#2B2B2B" width="108.5" height="27.2"/>
	<g>
		<path fill="#ED1A46" d="M267.3,114.2H262v5.1h-0.9v-10.8h6.9v0.8h-6v4.2h5.3V114.2z"/>
		<path fill="#ED1A46" d="M277.8,114.8c0,1.4-0.4,2.5-1.1,3.4c-0.8,0.9-1.8,1.3-3.1,1.3c-1.3,0-2.3-0.4-3-1.3
			c-0.8-0.9-1.1-2-1.1-3.4V113c0-1.4,0.4-2.5,1.1-3.4c0.8-0.9,1.8-1.3,3-1.3c1.3,0,2.3,0.4,3.1,1.3c0.8,0.9,1.2,2,1.2,3.4V114.8z
			 M276.9,113c0-1.2-0.3-2.1-0.9-2.8c-0.6-0.7-1.4-1.1-2.5-1.1c-1,0-1.8,0.4-2.4,1.1c-0.6,0.7-0.9,1.7-0.9,2.8v1.8
			c0,1.2,0.3,2.1,0.9,2.8c0.6,0.7,1.4,1.1,2.4,1.1c1.1,0,1.9-0.4,2.5-1.1s0.9-1.7,0.9-2.8V113z"/>
		<path fill="#ED1A46" d="M288.1,114.8c0,1.4-0.4,2.5-1.1,3.4c-0.8,0.9-1.8,1.3-3.1,1.3c-1.3,0-2.3-0.4-3-1.3
			c-0.8-0.9-1.1-2-1.1-3.4V113c0-1.4,0.4-2.5,1.1-3.4s1.8-1.3,3-1.3c1.3,0,2.3,0.4,3.1,1.3c0.8,0.9,1.2,2,1.2,3.4V114.8z M287.2,113
			c0-1.2-0.3-2.1-0.9-2.8c-0.6-0.7-1.4-1.1-2.5-1.1c-1,0-1.8,0.4-2.4,1.1c-0.6,0.7-0.9,1.7-0.9,2.8v1.8c0,1.2,0.3,2.1,0.9,2.8
			c0.6,0.7,1.4,1.1,2.4,1.1c1.1,0,1.9-0.4,2.5-1.1s0.9-1.7,0.9-2.8V113z"/>
	</g>
	<g>
		<path fill="#FFFFFF" d="M260.9,101.6h0.4c0.3,0,0.6-0.1,0.7-0.2c0.2-0.2,0.2-0.4,0.2-0.6c0-0.3-0.1-0.5-0.2-0.6
			c-0.2-0.2-0.4-0.2-0.7-0.2c-0.3,0-0.5,0.1-0.7,0.2c-0.2,0.2-0.3,0.4-0.3,0.6h-0.3l0,0c0-0.3,0.1-0.6,0.4-0.8s0.6-0.3,0.9-0.3
			c0.4,0,0.7,0.1,0.9,0.3c0.2,0.2,0.3,0.5,0.3,0.9c0,0.2-0.1,0.4-0.2,0.6c-0.1,0.2-0.3,0.3-0.5,0.4c0.3,0.1,0.5,0.2,0.6,0.4
			c0.1,0.2,0.2,0.4,0.2,0.7c0,0.4-0.1,0.7-0.4,0.9c-0.2,0.2-0.6,0.3-1,0.3c-0.4,0-0.7-0.1-1-0.3c-0.3-0.2-0.4-0.5-0.4-0.9l0,0h0.3
			c0,0.3,0.1,0.5,0.3,0.7c0.2,0.2,0.4,0.3,0.7,0.3c0.3,0,0.5-0.1,0.7-0.2s0.3-0.4,0.3-0.7c0-0.3-0.1-0.5-0.3-0.7
			c-0.2-0.1-0.4-0.2-0.8-0.2h-0.4V101.6z"/>
		<path fill="#FFFFFF" d="M264.2,101l-1-0.3l0.1-0.3l1,0.4l0-1.1h0.3l0,1.1l1-0.4l0.1,0.3l-1,0.3l0.7,0.9l-0.3,0.2l-0.6-0.9
			l-0.6,0.9l-0.3-0.2L264.2,101z"/>
		<path fill="#FFFFFF" d="M266.1,102.3c0-0.7,0.1-1.4,0.4-1.9c0.3-0.6,0.6-1,0.9-1.2l0,0l0.1,0.2c-0.3,0.2-0.5,0.6-0.8,1.1
			c-0.2,0.5-0.3,1.1-0.3,1.8v0.1c0,0.7,0.1,1.2,0.3,1.8c0.2,0.5,0.5,0.9,0.8,1.1l-0.1,0.2h0c-0.3-0.2-0.7-0.6-0.9-1.1
			C266.2,103.7,266.1,103,266.1,102.3L266.1,102.3z"/>
		<path fill="#FFFFFF" d="M268.8,101.6h0.4c0.3,0,0.6-0.1,0.7-0.2c0.2-0.2,0.2-0.4,0.2-0.6c0-0.3-0.1-0.5-0.2-0.6
			c-0.2-0.2-0.4-0.2-0.7-0.2c-0.3,0-0.5,0.1-0.7,0.2c-0.2,0.2-0.3,0.4-0.3,0.6H268l0,0c0-0.3,0.1-0.6,0.4-0.8s0.6-0.3,0.9-0.3
			c0.4,0,0.7,0.1,0.9,0.3c0.2,0.2,0.3,0.5,0.3,0.9c0,0.2-0.1,0.4-0.2,0.6c-0.1,0.2-0.3,0.3-0.5,0.4c0.3,0.1,0.5,0.2,0.6,0.4
			c0.1,0.2,0.2,0.4,0.2,0.7c0,0.4-0.1,0.7-0.4,0.9c-0.2,0.2-0.6,0.3-1,0.3c-0.4,0-0.7-0.1-1-0.3c-0.3-0.2-0.4-0.5-0.4-0.9l0,0h0.3
			c0,0.3,0.1,0.5,0.3,0.7c0.2,0.2,0.4,0.3,0.7,0.3c0.3,0,0.5-0.1,0.7-0.2s0.3-0.4,0.3-0.7c0-0.3-0.1-0.5-0.3-0.7
			c-0.2-0.1-0.4-0.2-0.8-0.2h-0.4V101.6z"/>
		<path fill="#FFFFFF" d="M273.6,102.6h0.7v0.3h-0.7v1.1h-0.4v-1.1h-2v-0.2l2-3h0.4V102.6z M271.6,102.6h1.6v-2.5l0,0l-0.2,0.3
			L271.6,102.6z"/>
		<path fill="#FFFFFF" d="M275.6,101.6h0.4c0.3,0,0.6-0.1,0.7-0.2s0.2-0.4,0.2-0.6c0-0.3-0.1-0.5-0.2-0.6c-0.2-0.2-0.4-0.2-0.7-0.2
			c-0.3,0-0.5,0.1-0.7,0.2c-0.2,0.2-0.3,0.4-0.3,0.6h-0.3l0,0c0-0.3,0.1-0.6,0.4-0.8c0.2-0.2,0.6-0.3,0.9-0.3c0.4,0,0.7,0.1,0.9,0.3
			c0.2,0.2,0.3,0.5,0.3,0.9c0,0.2-0.1,0.4-0.2,0.6c-0.1,0.2-0.3,0.3-0.5,0.4c0.3,0.1,0.5,0.2,0.6,0.4c0.1,0.2,0.2,0.4,0.2,0.7
			c0,0.4-0.1,0.7-0.4,0.9c-0.3,0.2-0.6,0.3-1,0.3c-0.4,0-0.7-0.1-1-0.3c-0.3-0.2-0.4-0.5-0.4-0.9l0,0h0.3c0,0.3,0.1,0.5,0.3,0.7
			c0.2,0.2,0.4,0.3,0.7,0.3c0.3,0,0.5-0.1,0.7-0.2s0.3-0.4,0.3-0.7c0-0.3-0.1-0.5-0.3-0.7c-0.2-0.1-0.4-0.2-0.8-0.2h-0.4V101.6z"/>
		<path fill="#FFFFFF" d="M279.2,102.3c0,0.7-0.1,1.4-0.4,1.9c-0.3,0.6-0.6,0.9-0.9,1.1h0l-0.1-0.2c0.3-0.2,0.5-0.6,0.8-1.1
			c0.2-0.5,0.3-1.1,0.3-1.8v-0.1c0-0.7-0.1-1.2-0.3-1.8s-0.5-0.9-0.7-1.1l0.1-0.2h0c0.3,0.2,0.6,0.6,0.9,1.2
			C279.1,100.9,279.2,101.5,279.2,102.3L279.2,102.3z"/>
		<path fill="#FFFFFF" d="M281.6,101.8h1.3v0.3h-1.3v1.4h-0.4v-1.4h-1.3v-0.3h1.3v-1.4h0.4V101.8z"/>
		<path fill="#FFFFFF" d="M285.7,102.6h0.7v0.3h-0.7v1.1h-0.4v-1.1h-2v-0.2l2-3h0.4V102.6z M283.8,102.6h1.6v-2.5l0,0l-0.2,0.3
			L283.8,102.6z"/>
		<path fill="#FFFFFF" d="M289.1,102.6h0.7v0.3h-0.7v1.1h-0.4v-1.1h-2v-0.2l2-3h0.4V102.6z M287.1,102.6h1.6v-2.5l0,0l-0.2,0.3
			L287.1,102.6z"/>
	</g>
	<g>
		<g>
			<path fill="#FFFFFF" d="M328.5,111l0.7-6.9h6.2v1h-5.3l-0.5,4.5c0.3-0.3,0.7-0.5,1.1-0.7c0.4-0.2,0.9-0.2,1.6-0.3
				c1.1,0,2,0.3,2.6,1.1c0.7,0.7,1,1.7,1,3c0,1.3-0.3,2.3-1,3.1c-0.6,0.8-1.6,1.1-2.9,1.1c-1,0-1.9-0.3-2.6-0.9s-1-1.4-1-2.6l0-0.1
				h0.9c0,0.9,0.2,1.5,0.7,2c0.5,0.5,1.1,0.7,1.9,0.7c0.9,0,1.6-0.3,2.1-0.9c0.5-0.6,0.7-1.4,0.7-2.5c0-0.9-0.2-1.7-0.7-2.3
				c-0.5-0.6-1.1-0.9-2-0.9c-0.8,0-1.4,0.1-1.9,0.4s-0.7,0.6-0.9,1.2L328.5,111z"/>
			<path fill="#FFFFFF" d="M344.3,112.7h2v0.9h-2v3.2h-1v-3.2h-5.9v-0.6l5.8-8.9h1.1V112.7z M338.6,112.7h4.7v-7.2l-0.1,0l-0.4,0.9
				L338.6,112.7z"/>
			<path fill="#FFFFFF" d="M349,116.6l-0.9,2.4h-0.7l0.6-2.4v-1.5h1V116.6z"/>
			<path fill="#FFFFFF" d="M357.6,112.7h2v0.9h-2v3.2h-1v-3.2h-5.9v-0.6l5.8-8.9h1.1V112.7z M351.9,112.7h4.7v-7.2l-0.1,0l-0.4,0.9
				L351.9,112.7z"/>
		</g>
	</g>
	<g>
		<rect x="363.7" y="96.5" fill="#3D3D3D" width="4" height="27.2"/>
		<circle fill="#FFFFFF" cx="365.7" cy="107.6" r="0.5"/>
		<circle fill="#FFFFFF" cx="365.7" cy="110.1" r="0.5"/>
		<circle fill="#FFFFFF" cx="365.7" cy="112.5" r="0.5"/>
	</g>
	<rect x="255.1" y="49.4" fill="#B7B7B7" width="1" height="80.1"/>
	<rect x="359.5" y="69.3" fill="#D81F27" width="8.3" height="27.2"/>
	<path fill="#3D3D3D" d="M397.2,63.8"/>
	<g>
		<path fill="#FFFFFF" d="M362.4,85.8c-0.2,0-0.2,0-0.2-0.1c0-0.1,0-3.5,0-3.5h-0.4c0,0,0,3.4,0,3.6s0.2,0.5,0.5,0.5
			c0.3,0,1.6,0,1.6,0v-0.4C363.8,85.8,362.5,85.8,362.4,85.8z"/>
		<path fill="#FFFFFF" d="M365.8,82.2c0,0,0,3.4,0,3.6s-0.2,0.5-0.5,0.5s-1.6,0-1.6,0v-0.4c0,0,1.2,0,1.4,0c0.2,0,0.2,0,0.2-0.1
			s0-3.5,0-3.5H365.8z"/>
		<path fill="#FFFFFF" d="M366,81.8c0,0,0-0.2,0-0.3s0-0.2-0.2-0.2s-2.1,0-2.1,0s-1.9,0-2.1,0c-0.1,0-0.2,0.2-0.2,0.2s0,0.3,0,0.3
			h-0.2v0.5h2.5h2.5v-0.5H366z"/>
		<path fill="#FFFFFF" d="M364.3,80.4c-0.3,0-0.5,0-0.5,0s-0.2,0-0.5,0s-0.6,0.4-0.6,0.7c0,0.1,0,0.1,0,0.1h0.5c0,0,0,0,0-0.2
			c0-0.1,0.1-0.2,0.2-0.2c0.2,0,0.4,0,0.4,0s0.2,0,0.4,0c0.1,0,0.2,0.2,0.2,0.2c0,0.2,0,0.2,0,0.2h0.5c0,0,0,0,0-0.1
			C364.9,80.8,364.6,80.4,364.3,80.4z"/>
		<rect x="363.5" y="82.7" fill="#FFFFFF" width="0.5" height="2.7"/>
		<rect x="364.5" y="82.7" fill="#FFFFFF" width="0.5" height="2.7"/>
		<rect x="362.6" y="82.7" fill="#FFFFFF" width="0.5" height="2.7"/>
	</g>
	<rect x="340" y="69.3" fill="#3D3D3D" width="19.5" height="27.2"/>
	<rect x="340.8" y="69.3" fill="#2D2D2D" width="18.7" height="13.4"/>
	<g>
		<path fill="#FFFFFF" d="M350,89h-4.1v-0.5h4.1V89z M350,91h-4.1v-0.5h4.1V91z"/>
		<path fill="#FFFFFF" d="M354.1,93.1h-0.6v-6.5l-1.8,0.2v-0.4l2.4-0.4V93.1z"/>
	</g>
	<g>
		<path fill="#FFFFFF" d="M349.8,75.1h-4.1v-0.5h4.1V75.1z M349.8,77.2h-4.1v-0.5h4.1V77.2z"/>
		<path fill="#FFFFFF" d="M355.8,76.5c0,0.9-0.2,1.6-0.6,2.1s-0.9,0.7-1.7,0.7c-0.7,0-1.3-0.2-1.7-0.7s-0.6-1.2-0.6-2.1v-1.6
			c0-0.9,0.2-1.6,0.6-2.1s0.9-0.7,1.7-0.7s1.3,0.2,1.7,0.7s0.6,1.2,0.6,2.1V76.5z M355.2,74.8c0-0.7-0.1-1.3-0.4-1.7
			s-0.7-0.6-1.2-0.6s-1,0.2-1.2,0.6s-0.4,1-0.4,1.7v1.8c0,0.7,0.1,1.3,0.4,1.7s0.7,0.6,1.2,0.6s1-0.2,1.2-0.6s0.4-1,0.4-1.7V74.8z"
			/>
	</g>
	<g>
		<rect x="336" y="69.3" fill="#3D3D3D" width="4" height="27.2"/>
		<circle fill="#FFFFFF" cx="338" cy="80.5" r="0.5"/>
		<circle fill="#FFFFFF" cx="338" cy="82.9" r="0.5"/>
		<circle fill="#FFFFFF" cx="338" cy="85.3" r="0.5"/>
	</g>
</g>
<g id="error" display="none">
	<rect y="15" display="inline" opacity="0.9" width="367.5" height="159.3"/>
	<rect x="-0.3" y="51.7" display="inline" fill="#ED1D2B" width="367.8" height="69.2"/>
	<text transform="matrix(1 0 0 1 25.3332 76.1695)" display="inline" fill="#FFFFFF" font-family="'Roboto-Light'" font-size="21">Error</text>
	<text transform="matrix(1 0 0 1 27 99.7231)" display="inline" fill="#FFFFFF" font-family="'Roboto-Light'" font-size="10">Naskytla se nějaká chyba.</text>
	<rect x="298.3" y="101.7" display="inline" fill="none" stroke="#FFFFFF" stroke-miterlimit="10" width="57.4" height="12.3"/>
	
		<text transform="matrix(1 0 0 1 322.4315 111.8009)" display="inline" fill="#FFFFFF" font-family="'Roboto-Light'" font-size="9.5224">Ok</text>
</g>
<g id="completer">
	<rect x="39.8" y="119.3" fill="#2B2B2B" width="47.7" height="29.2"/>
	<rect x="39.8" y="127.4" opacity="0.8" fill="#ED1A46" width="47.4" height="6.6"/>
	<g>
		<path fill="#C9C9C9" d="M50.9,125.6c0-0.1,0-0.2,0-0.3s0-0.1,0-0.2c-0.1,0.2-0.3,0.3-0.4,0.4c-0.2,0.1-0.4,0.2-0.6,0.2
			c-0.3,0-0.5-0.1-0.7-0.2c-0.2-0.2-0.2-0.4-0.2-0.6c0-0.3,0.1-0.5,0.4-0.7c0.2-0.2,0.6-0.2,1-0.2h0.7v-0.4c0-0.2-0.1-0.4-0.2-0.5
			c-0.1-0.1-0.3-0.2-0.6-0.2c-0.2,0-0.4,0.1-0.6,0.2s-0.2,0.3-0.2,0.4l-0.3,0l0,0c0-0.2,0.1-0.4,0.3-0.6s0.5-0.3,0.8-0.3
			c0.3,0,0.6,0.1,0.8,0.3c0.2,0.2,0.3,0.4,0.3,0.7v1.5c0,0.1,0,0.2,0,0.3s0,0.2,0.1,0.3H50.9z M49.8,125.4c0.2,0,0.4-0.1,0.6-0.2
			c0.2-0.1,0.3-0.3,0.4-0.4v-0.6h-0.7c-0.3,0-0.5,0.1-0.7,0.2c-0.2,0.1-0.3,0.3-0.3,0.5c0,0.2,0.1,0.3,0.2,0.4
			C49.4,125.3,49.6,125.4,49.8,125.4z"/>
		<path fill="#C9C9C9" d="M54.4,124.2c0,0.4-0.1,0.8-0.3,1.1c-0.2,0.3-0.5,0.4-0.8,0.4c-0.2,0-0.4,0-0.6-0.1
			c-0.2-0.1-0.3-0.2-0.4-0.4l0,0.5H52v-4.3h0.3v1.8c0.1-0.2,0.2-0.3,0.4-0.4s0.3-0.1,0.6-0.1c0.4,0,0.6,0.1,0.8,0.4
			C54.3,123.3,54.4,123.6,54.4,124.2L54.4,124.2z M54.1,124.1c0-0.4-0.1-0.7-0.2-0.9s-0.4-0.4-0.7-0.4c-0.2,0-0.4,0.1-0.6,0.2
			c-0.1,0.1-0.2,0.3-0.3,0.4v1.4c0.1,0.2,0.2,0.3,0.3,0.4c0.1,0.1,0.3,0.2,0.5,0.2c0.3,0,0.5-0.1,0.7-0.3
			C54,124.8,54.1,124.5,54.1,124.1L54.1,124.1z"/>
		<path fill="#C9C9C9" d="M57,124.8c0-0.1-0.1-0.3-0.2-0.4c-0.1-0.1-0.3-0.2-0.6-0.3c-0.4-0.1-0.6-0.2-0.8-0.3
			c-0.2-0.1-0.3-0.3-0.3-0.5c0-0.2,0.1-0.4,0.3-0.6s0.4-0.2,0.8-0.2c0.3,0,0.6,0.1,0.8,0.3c0.2,0.2,0.3,0.4,0.3,0.6l0,0H57
			c0-0.2-0.1-0.3-0.2-0.4c-0.1-0.1-0.3-0.2-0.6-0.2c-0.2,0-0.4,0.1-0.5,0.2c-0.1,0.1-0.2,0.2-0.2,0.4c0,0.1,0.1,0.3,0.2,0.3
			c0.1,0.1,0.3,0.2,0.6,0.2c0.4,0.1,0.6,0.2,0.8,0.3c0.2,0.1,0.3,0.3,0.3,0.6c0,0.3-0.1,0.5-0.3,0.6c-0.2,0.2-0.5,0.2-0.8,0.2
			c-0.4,0-0.6-0.1-0.9-0.3S55,125,55,124.8l0,0h0.3c0,0.2,0.1,0.4,0.3,0.5c0.2,0.1,0.4,0.1,0.6,0.1c0.2,0,0.4-0.1,0.6-0.2
			C56.9,125.1,57,125,57,124.8z"/>
	</g>
	<g>
		<path fill="#C9C9C9" d="M50.9,132.3c0-0.1,0-0.2,0-0.3s0-0.1,0-0.2c-0.1,0.2-0.3,0.3-0.4,0.4c-0.2,0.1-0.4,0.2-0.6,0.2
			c-0.3,0-0.5-0.1-0.7-0.2c-0.2-0.2-0.2-0.4-0.2-0.6c0-0.3,0.1-0.5,0.4-0.7c0.2-0.2,0.6-0.2,1-0.2h0.7v-0.4c0-0.2-0.1-0.4-0.2-0.5
			c-0.1-0.1-0.3-0.2-0.6-0.2c-0.2,0-0.4,0.1-0.6,0.2s-0.2,0.3-0.2,0.4l-0.3,0l0,0c0-0.2,0.1-0.4,0.3-0.6s0.5-0.3,0.8-0.3
			c0.3,0,0.6,0.1,0.8,0.3c0.2,0.2,0.3,0.4,0.3,0.7v1.5c0,0.1,0,0.2,0,0.3s0,0.2,0.1,0.3H50.9z M49.8,132.1c0.2,0,0.4-0.1,0.6-0.2
			c0.2-0.1,0.3-0.3,0.4-0.4v-0.6h-0.7c-0.3,0-0.5,0.1-0.7,0.2c-0.2,0.1-0.3,0.3-0.3,0.5c0,0.2,0.1,0.3,0.2,0.4
			C49.4,132.1,49.6,132.1,49.8,132.1z"/>
		<path fill="#C9C9C9" d="M52.4,129.9c0.1-0.2,0.2-0.3,0.4-0.4s0.4-0.1,0.6-0.1c0.3,0,0.6,0.1,0.7,0.3c0.2,0.2,0.3,0.5,0.3,0.9v1.8
			H54v-1.9c0-0.3-0.1-0.6-0.2-0.7c-0.1-0.1-0.3-0.2-0.5-0.2c-0.2,0-0.4,0.1-0.6,0.2s-0.3,0.3-0.3,0.5v2.1H52V128h0.3V129.9z"/>
		<path fill="#C9C9C9" d="M55,130.8c0-0.4,0.1-0.8,0.4-1.1s0.6-0.4,1-0.4c0.4,0,0.7,0.1,1,0.4s0.4,0.6,0.4,1.1v0.1
			c0,0.4-0.1,0.8-0.4,1.1s-0.6,0.4-1,0.4c-0.4,0-0.7-0.1-1-0.4S55,131.3,55,130.8L55,130.8z M55.3,130.9c0,0.3,0.1,0.6,0.3,0.9
			s0.4,0.4,0.7,0.4c0.3,0,0.6-0.1,0.7-0.4c0.2-0.2,0.3-0.5,0.3-0.9v-0.1c0-0.3-0.1-0.6-0.3-0.9c-0.2-0.2-0.4-0.4-0.7-0.4
			c-0.3,0-0.6,0.1-0.7,0.4S55.3,130.5,55.3,130.9L55.3,130.9z"/>
		<path fill="#C9C9C9" d="M58.7,129.4v3.2c0,0.3-0.1,0.5-0.2,0.7s-0.4,0.3-0.6,0.3c-0.1,0-0.1,0-0.2,0s-0.1,0-0.2,0l0-0.3
			c0,0,0.1,0,0.1,0c0.1,0,0.1,0,0.1,0c0.2,0,0.3-0.1,0.4-0.2s0.1-0.3,0.1-0.5v-3.2H58.7z M58.7,128.5h-0.3V128h0.3V128.5z"/>
		<path fill="#C9C9C9" d="M60.4,130.9H60v1.5h-0.3V128H60v2.6h0.3l1.1-1.3h0.4l0,0l-1.2,1.3l1.3,1.6l0,0h-0.4L60.4,130.9z"/>
	</g>
	<g>
		<path fill="#C9C9C9" d="M50.9,139.4c0-0.1,0-0.2,0-0.3s0-0.1,0-0.2c-0.1,0.2-0.3,0.3-0.4,0.4c-0.2,0.1-0.4,0.2-0.6,0.2
			c-0.3,0-0.5-0.1-0.7-0.2c-0.2-0.2-0.2-0.4-0.2-0.6c0-0.3,0.1-0.5,0.4-0.7c0.2-0.2,0.6-0.2,1-0.2h0.7v-0.4c0-0.2-0.1-0.4-0.2-0.5
			c-0.1-0.1-0.3-0.2-0.6-0.2c-0.2,0-0.4,0.1-0.6,0.2s-0.2,0.3-0.2,0.4l-0.3,0l0,0c0-0.2,0.1-0.4,0.3-0.6s0.5-0.3,0.8-0.3
			c0.3,0,0.6,0.1,0.8,0.3c0.2,0.2,0.3,0.4,0.3,0.7v1.5c0,0.1,0,0.2,0,0.3s0,0.2,0.1,0.3H50.9z M49.8,139.2c0.2,0,0.4-0.1,0.6-0.2
			c0.2-0.1,0.3-0.3,0.4-0.4V138h-0.7c-0.3,0-0.5,0.1-0.7,0.2c-0.2,0.1-0.3,0.3-0.3,0.5c0,0.2,0.1,0.3,0.2,0.4
			C49.4,139.1,49.6,139.2,49.8,139.2z"/>
		<path fill="#C9C9C9" d="M52.4,136.9c0.1-0.2,0.2-0.3,0.4-0.4s0.4-0.1,0.6-0.1c0.3,0,0.6,0.1,0.7,0.3c0.2,0.2,0.3,0.5,0.3,0.9v1.8
			H54v-1.9c0-0.3-0.1-0.6-0.2-0.7c-0.1-0.1-0.3-0.2-0.5-0.2c-0.2,0-0.4,0.1-0.6,0.2s-0.3,0.3-0.3,0.5v2.1H52v-4.3h0.3V136.9z"/>
		<path fill="#C9C9C9" d="M55,137.9c0-0.4,0.1-0.8,0.4-1.1s0.6-0.4,1-0.4c0.4,0,0.7,0.1,1,0.4s0.4,0.6,0.4,1.1v0.1
			c0,0.4-0.1,0.8-0.4,1.1s-0.6,0.4-1,0.4c-0.4,0-0.7-0.1-1-0.4S55,138.4,55,137.9L55,137.9z M55.3,138c0,0.3,0.1,0.6,0.3,0.9
			s0.4,0.4,0.7,0.4c0.3,0,0.6-0.1,0.7-0.4c0.2-0.2,0.3-0.5,0.3-0.9v-0.1c0-0.3-0.1-0.6-0.3-0.9c-0.2-0.2-0.4-0.4-0.7-0.4
			c-0.3,0-0.6,0.1-0.7,0.4S55.3,137.5,55.3,138L55.3,138z"/>
		<path fill="#C9C9C9" d="M58.7,136.4v3.2c0,0.3-0.1,0.5-0.2,0.7s-0.4,0.3-0.6,0.3c-0.1,0-0.1,0-0.2,0s-0.1,0-0.2,0l0-0.3
			c0,0,0.1,0,0.1,0c0.1,0,0.1,0,0.1,0c0.2,0,0.3-0.1,0.4-0.2s0.1-0.3,0.1-0.5v-3.2H58.7z M58.7,135.6h-0.3v-0.5h0.3V135.6z"/>
		<path fill="#C9C9C9" d="M59.5,138c0-0.5,0.1-0.9,0.3-1.1c0.2-0.3,0.5-0.4,0.8-0.4c0.2,0,0.4,0,0.5,0.1c0.2,0.1,0.3,0.2,0.4,0.4
			v-1.8h0.3v4.3h-0.3l0-0.4c-0.1,0.2-0.2,0.3-0.4,0.4c-0.2,0.1-0.3,0.1-0.6,0.1c-0.4,0-0.6-0.1-0.8-0.4
			C59.6,138.8,59.5,138.5,59.5,138L59.5,138z M59.9,138c0,0.4,0.1,0.7,0.2,0.9s0.4,0.3,0.7,0.3c0.2,0,0.4,0,0.5-0.1s0.3-0.2,0.3-0.4
			v-1.4c-0.1-0.2-0.2-0.3-0.3-0.4c-0.1-0.1-0.3-0.2-0.5-0.2c-0.3,0-0.5,0.1-0.7,0.4C59.9,137.3,59.9,137.6,59.9,138L59.9,138z"/>
	</g>
	<g>
		<path fill="#C9C9C9" d="M50.9,146.2c0-0.1,0-0.2,0-0.3s0-0.1,0-0.2c-0.1,0.2-0.3,0.3-0.4,0.4c-0.2,0.1-0.4,0.2-0.6,0.2
			c-0.3,0-0.5-0.1-0.7-0.2c-0.2-0.2-0.2-0.4-0.2-0.6c0-0.3,0.1-0.5,0.4-0.7c0.2-0.2,0.6-0.2,1-0.2h0.7v-0.4c0-0.2-0.1-0.4-0.2-0.5
			c-0.1-0.1-0.3-0.2-0.6-0.2c-0.2,0-0.4,0.1-0.6,0.2s-0.2,0.3-0.2,0.4l-0.3,0l0,0c0-0.2,0.1-0.4,0.3-0.6s0.5-0.3,0.8-0.3
			c0.3,0,0.6,0.1,0.8,0.3c0.2,0.2,0.3,0.4,0.3,0.7v1.5c0,0.1,0,0.2,0,0.3s0,0.2,0.1,0.3H50.9z M49.8,145.9c0.2,0,0.4-0.1,0.6-0.2
			c0.2-0.1,0.3-0.3,0.4-0.4v-0.6h-0.7c-0.3,0-0.5,0.1-0.7,0.2c-0.2,0.1-0.3,0.3-0.3,0.5c0,0.2,0.1,0.3,0.2,0.4
			C49.4,145.9,49.6,145.9,49.8,145.9z"/>
		<path fill="#C9C9C9" d="M52.4,143.7c0.1-0.2,0.2-0.3,0.4-0.4s0.4-0.1,0.6-0.1c0.3,0,0.6,0.1,0.7,0.3c0.2,0.2,0.3,0.5,0.3,0.9v1.8
			H54v-1.9c0-0.3-0.1-0.6-0.2-0.7c-0.1-0.1-0.3-0.2-0.5-0.2c-0.2,0-0.4,0.1-0.6,0.2s-0.3,0.3-0.3,0.5v2.1H52v-4.3h0.3V143.7z"/>
		<path fill="#C9C9C9" d="M55,144.6c0-0.4,0.1-0.8,0.4-1.1s0.6-0.4,1-0.4c0.4,0,0.7,0.1,1,0.4s0.4,0.6,0.4,1.1v0.1
			c0,0.4-0.1,0.8-0.4,1.1s-0.6,0.4-1,0.4c-0.4,0-0.7-0.1-1-0.4S55,145.2,55,144.6L55,144.6z M55.3,144.7c0,0.3,0.1,0.6,0.3,0.9
			s0.4,0.4,0.7,0.4c0.3,0,0.6-0.1,0.7-0.4c0.2-0.2,0.3-0.5,0.3-0.9v-0.1c0-0.3-0.1-0.6-0.3-0.9c-0.2-0.2-0.4-0.4-0.7-0.4
			c-0.3,0-0.6,0.1-0.7,0.4S55.3,144.3,55.3,144.7L55.3,144.7z"/>
		<path fill="#C9C9C9" d="M58.7,143.2v3.2c0,0.3-0.1,0.5-0.2,0.7s-0.4,0.3-0.6,0.3c-0.1,0-0.1,0-0.2,0s-0.1,0-0.2,0l0-0.3
			c0,0,0.1,0,0.1,0c0.1,0,0.1,0,0.1,0c0.2,0,0.3-0.1,0.4-0.2s0.1-0.3,0.1-0.5v-3.2H58.7z M58.7,142.3h-0.3v-0.5h0.3V142.3z"/>
		<path fill="#C9C9C9" d="M59.5,144.7c0-0.5,0.1-0.9,0.3-1.1c0.2-0.3,0.5-0.4,0.8-0.4c0.2,0,0.4,0,0.5,0.1c0.2,0.1,0.3,0.2,0.4,0.4
			v-1.8h0.3v4.3h-0.3l0-0.4c-0.1,0.2-0.2,0.3-0.4,0.4c-0.2,0.1-0.3,0.1-0.6,0.1c-0.4,0-0.6-0.1-0.8-0.4
			C59.6,145.6,59.5,145.2,59.5,144.7L59.5,144.7z M59.9,144.8c0,0.4,0.1,0.7,0.2,0.9s0.4,0.3,0.7,0.3c0.2,0,0.4,0,0.5-0.1
			s0.3-0.2,0.3-0.4V144c-0.1-0.2-0.2-0.3-0.3-0.4c-0.1-0.1-0.3-0.2-0.5-0.2c-0.3,0-0.5,0.1-0.7,0.4C59.9,144,59.9,144.3,59.9,144.8
			L59.9,144.8z"/>
		<path fill="#C9C9C9" d="M62.7,144.7c0-0.5,0.1-0.9,0.3-1.1c0.2-0.3,0.5-0.4,0.8-0.4c0.2,0,0.4,0,0.5,0.1c0.2,0.1,0.3,0.2,0.4,0.4
			v-1.8h0.3v4.3h-0.3l0-0.4c-0.1,0.2-0.2,0.3-0.4,0.4c-0.2,0.1-0.3,0.1-0.6,0.1c-0.4,0-0.6-0.1-0.8-0.4
			C62.8,145.6,62.7,145.2,62.7,144.7L62.7,144.7z M63,144.8c0,0.4,0.1,0.7,0.2,0.9s0.4,0.3,0.7,0.3c0.2,0,0.4,0,0.5-0.1
			s0.3-0.2,0.3-0.4V144c-0.1-0.2-0.2-0.3-0.3-0.4c-0.1-0.1-0.3-0.2-0.5-0.2c-0.3,0-0.5,0.1-0.7,0.4C63.1,144,63,144.3,63,144.8
			L63,144.8z"/>
		<path fill="#C9C9C9" d="M65.9,144.7c0-0.5,0.1-0.9,0.3-1.1c0.2-0.3,0.5-0.4,0.8-0.4c0.2,0,0.4,0,0.5,0.1c0.2,0.1,0.3,0.2,0.4,0.4
			v-1.8h0.3v4.3H68l0-0.4c-0.1,0.2-0.2,0.3-0.4,0.4c-0.2,0.1-0.3,0.1-0.6,0.1c-0.4,0-0.6-0.1-0.8-0.4
			C66,145.6,65.9,145.2,65.9,144.7L65.9,144.7z M66.2,144.8c0,0.4,0.1,0.7,0.2,0.9s0.4,0.3,0.7,0.3c0.2,0,0.4,0,0.5-0.1
			s0.3-0.2,0.3-0.4V144c-0.1-0.2-0.2-0.3-0.3-0.4c-0.1-0.1-0.3-0.2-0.5-0.2c-0.3,0-0.5,0.1-0.7,0.4C66.3,144,66.2,144.3,66.2,144.8
			L66.2,144.8z"/>
	</g>
	<rect x="86.8" y="119.3" fill="#969696" width="0.7" height="15.6"/>
	<rect x="42.4" y="122.6" fill="#EF4323" width="2.7" height="2.7"/>
	<rect x="42.4" y="129.4" fill="#EF4323" width="2.7" height="2.7"/>
	<rect x="42.4" y="136.5" fill="#C9C9C9" width="2.7" height="2.7"/>
	<rect x="42.4" y="143.3" fill="#C9C9C9" width="2.7" height="2.7"/>
</g>
</svg>
